<?xml version="1.0" standalone="no"?><!DOCTYPE svg PUBLIC "-//W3C//DTD SVG 1.1//EN" "http://www.w3.org/Graphics/SVG/1.1/DTD/svg11.dtd"><svg t="1569483807291" class="icon" viewBox="0 0 1024 1024" version="1.1" xmlns="http://www.w3.org/2000/svg" p-id="3197" xmlns:xlink="http://www.w3.org/1999/xlink" width="200" height="200"><defs><style type="text/css"></style></defs><path d="M858.5216 102.4H819.2V51.2a51.2 51.2 0 0 0-102.4 0V102.4H307.2V51.2a51.2 51.2 0 0 0-102.4 0V102.4H165.4784A165.4784 165.4784 0 0 0 0 267.8784v590.6432A165.4784 165.4784 0 0 0 165.4784 1024h693.0432A165.4784 165.4784 0 0 0 1024 858.5216V267.8784A165.4784 165.4784 0 0 0 858.5216 102.4zM921.6 858.5216A63.0784 63.0784 0 0 1 858.5216 921.6H165.4784A63.0784 63.0784 0 0 1 102.4 858.5216V267.8784A63.0784 63.0784 0 0 1 165.4784 204.8H204.8v51.2a51.2 51.2 0 0 0 102.4 0V204.8h409.6v51.2a51.2 51.2 0 0 0 102.4 0V204.8h39.3216A63.0784 63.0784 0 0 1 921.6 267.8784z" fill="#111111" p-id="3198"></path><path d="M512 522.24m-51.2 0a51.2 51.2 0 1 0 102.4 0 51.2 51.2 0 1 0-102.4 0Z" fill="#111111" p-id="3199"></path><path d="M512 706.56m-51.2 0a51.2 51.2 0 1 0 102.4 0 51.2 51.2 0 1 0-102.4 0Z" fill="#111111" p-id="3200"></path><path d="M327.68 706.56m-51.2 0a51.2 51.2 0 1 0 102.4 0 51.2 51.2 0 1 0-102.4 0Z" fill="#111111" p-id="3201"></path><path d="M696.32 522.24m-51.2 0a51.2 51.2 0 1 0 102.4 0 51.2 51.2 0 1 0-102.4 0Z" fill="#00C569" p-id="3202"></path><path d="M696.32 706.56m-51.2 0a51.2 51.2 0 1 0 102.4 0 51.2 51.2 0 1 0-102.4 0Z" fill="#00C569" p-id="3203"></path></svg>