<?xml version="1.0" standalone="no"?><!DOCTYPE svg PUBLIC "-//W3C//DTD SVG 1.1//EN" "http://www.w3.org/Graphics/SVG/1.1/DTD/svg11.dtd"><svg t="1569483668250" class="icon" viewBox="0 0 1142 1024" version="1.1" xmlns="http://www.w3.org/2000/svg" p-id="1167" xmlns:xlink="http://www.w3.org/1999/xlink" width="223.046875" height="200"><defs><style type="text/css"></style></defs><path d="M809.922695 0.001828A58.488071 58.488071 0 0 0 776.794687 11.19681C551.752697 172.039004 274.162831 205.623951 109.893601 205.623951H58.031132A58.031132 58.031132 0 0 0 0 263.426614V504.918374a58.031132 58.031132 0 0 0 58.031132 58.031133h2.741629c14.850487 0 31.300256-1.142345 49.12084-1.142346h2.284691L150.789557 936.724832a97.556274 97.556274 0 0 0 96.870867 87.275168h147.134052a97.099336 97.099336 0 0 0 96.642398-107.151973l-31.528726-307.290839A1003.892898 1003.892898 0 0 1 776.794687 756.919709a58.71654 58.71654 0 0 0 34.270353 11.423451 58.031132 58.031132 0 0 0 57.117257-58.031132V58.03296A57.802663 57.802663 0 0 0 809.922695 0.001828z m-434.091148 909.53519h-114.234513L228.469025 567.290418c36.098106 3.427035 74.709371 8.224885 114.234513 15.535894zM753.947784 607.729436c-249.031238-141.650796-521.594785-159.928318-639.713271-159.928318V319.858463c118.118486 0 390.682034-18.73446 639.713271-159.928317z" fill="#111111" p-id="1168"></path><path d="M936.723005 247.205313a57.117256 57.117256 0 0 0 34.95576 52.547876 91.38761 91.38761 0 0 1 0 168.83861 56.660318 56.660318 0 0 0-34.95576 52.547876 56.888787 56.888787 0 0 0 77.450999 53.461752 205.622123 205.622123 0 0 0 0-381.086335A57.117256 57.117256 0 0 0 936.723005 247.205313z" fill="#00C569" p-id="1169"></path></svg>