<?xml version="1.0" standalone="no"?><!DOCTYPE svg PUBLIC "-//W3C//DTD SVG 1.1//EN" "http://www.w3.org/Graphics/SVG/1.1/DTD/svg11.dtd"><svg t="1569483674656" class="icon" viewBox="0 0 1024 1024" version="1.1" xmlns="http://www.w3.org/2000/svg" p-id="1286" xmlns:xlink="http://www.w3.org/1999/xlink" width="200" height="200"><defs><style type="text/css"></style></defs><path d="M679.076874 715.115046a51.079646 51.079646 0 0 0 70.081275-20.431859C814.948733 566.984072 869.501795 435.811541 869.501795 357.557523a357.557523 357.557523 0 0 0-715.115046 0C154.386749 510.796461 376.481051 867.741029 475.371245 1001.161064a56.596248 56.596248 0 0 0 91.739045-1.225911c21.862089-31.260743 49.853735-74.371965 80.297204-124.2257a51.488283 51.488283 0 0 0-19.001629-71.307186 51.283965 51.283965 0 0 0-68.242407 18.388673c-13.689345 22.475044-27.174372 44.132814-40.863717 64.564673C403.042467 717.771188 256.546041 453.587258 256.546041 357.557523a255.398231 255.398231 0 0 1 510.796462 0c0 56.596248-47.401912 170.810337-108.901806 289.723753a51.283965 51.283965 0 0 0 20.431859 68.242407z" fill="#111111" p-id="1287"></path><path d="M511.944272 286.046018a71.511505 71.511505 0 1 1-71.511504 71.511505 71.511505 71.511505 0 0 1 71.511504-71.511505m0-102.159292a173.670797 173.670797 0 1 0 173.670797 173.670797A173.875115 173.875115 0 0 0 511.944272 183.886726z" fill="#00C569" p-id="1288"></path></svg>