<?xml version="1.0" standalone="no"?><!DOCTYPE svg PUBLIC "-//W3C//DTD SVG 1.1//EN" "http://www.w3.org/Graphics/SVG/1.1/DTD/svg11.dtd"><svg t="1569483797179" class="icon" viewBox="0 0 1024 1024" version="1.1" xmlns="http://www.w3.org/2000/svg" p-id="2481" xmlns:xlink="http://www.w3.org/1999/xlink" width="200" height="200"><defs><style type="text/css"></style></defs><path d="M989.912371 862.6176l-26.2144-124.3136a245.76 245.76 0 0 0-111.616-159.1296l-157.4912-97.4848a226.9184 226.9184 0 0 0 44.032-111.8208l12.4928-117.76A227.9424 227.9424 0 0 0 524.606771 0h-25.1904A227.9424 227.9424 0 0 0 272.702771 252.1088l12.6976 117.76a226.9184 226.9184 0 0 0 44.032 111.8208l-157.696 97.4848a245.76 245.76 0 0 0-111.616 159.1296L33.905971 862.6176A133.7344 133.7344 0 0 0 164.773171 1024h694.272a133.7344 133.7344 0 0 0 130.8672-161.3824zM406.027571 143.36a124.3136 124.3136 0 0 1 93.3888-40.96h25.1904a125.3376 125.3376 0 0 1 124.7232 138.8544l-12.4928 117.5552a125.5424 125.5424 0 0 1-249.6512 0l-12.4928-117.5552A122.88 122.88 0 0 1 406.027571 143.36z m477.3888 765.952a30.3104 30.3104 0 0 1-24.3712 11.6736H164.773171a30.3104 30.3104 0 0 1-24.3712-11.6736A31.1296 31.1296 0 0 1 133.438771 883.712l26.2144-124.3136a145.2032 145.2032 0 0 1 65.9456-92.9792l186.9824-115.9168a226.5088 226.5088 0 0 0 198.656 0l186.9824 115.9168a145.2032 145.2032 0 0 1 65.3312 92.9792l26.2144 124.3136a31.1296 31.1296 0 0 1-6.3488 26.2144z" fill="#111111" p-id="2482"></path><path d="M552.869171 737.28m51.2 0l102.4 0q51.2 0 51.2 51.2l0 0q0 51.2-51.2 51.2l-102.4 0q-51.2 0-51.2-51.2l0 0q0-51.2 51.2-51.2Z" fill="#00C569" p-id="2483"></path></svg>