<?xml version="1.0" standalone="no"?><!DOCTYPE svg PUBLIC "-//W3C//DTD SVG 1.1//EN" "http://www.w3.org/Graphics/SVG/1.1/DTD/svg11.dtd"><svg t="1569483678839" class="icon" viewBox="0 0 1181 1024" version="1.1" xmlns="http://www.w3.org/2000/svg" p-id="1525" xmlns:xlink="http://www.w3.org/1999/xlink" width="230.6640625" height="200"><defs><style type="text/css"></style></defs><path d="M93.774119 162.053629m41.747993-41.747992l103.034044-103.034045q41.747992-41.747992 83.495985 0l0 0q41.747992 41.747992 0 83.495985l-103.034045 103.034045q-41.747992 41.747992-83.495984 0l0 0q-41.747992-41.747992 0-83.495985Z" fill="#00C569" p-id="1526"></path><path d="M792.324541 268.280381H59.040577a64.236148 64.236148 0 0 0-11.571953 1.180811l-4.959409 1.416974-6.14022 1.889299-5.431733 3.07011-4.723246 2.361623a59.512901 59.512901 0 0 0-16.295199 16.295199 43.926189 43.926189 0 0 0-2.361623 4.723246l-3.07011 5.431733-1.889299 6.14022a39.202943 39.202943 0 0 0-1.416973 4.959409 63.527661 63.527661 0 0 0 0 23.61623 39.202943 39.202943 0 0 0 1.416973 4.959409l1.889299 6.14022 3.07011 5.431733 2.361623 4.723246a86.907729 86.907729 0 0 0 7.321031 8.974168l214.671538 214.907699a61.4022 61.4022 0 0 0 81.475996 6.14022 58.804414 58.804414 0 0 0 4.487083-87.616216l-116.191855-116.664179h593.712041A264.737946 264.737946 0 0 1 1062.730382 621.34303a259.778538 259.778538 0 0 1-259.778538 284.57558H59.040577a59.040577 59.040577 0 0 0-59.040577 59.040577 59.040577 59.040577 0 0 0 59.040577 59.040577H802.951844A377.859691 377.859691 0 0 0 1180.811536 628.191737c-9.918817-203.099584-184.915087-359.911356-388.486995-359.911356z" fill="#111111" p-id="1527"></path></svg>