<?xml version="1.0" standalone="no"?><!DOCTYPE svg PUBLIC "-//W3C//DTD SVG 1.1//EN" "http://www.w3.org/Graphics/SVG/1.1/DTD/svg11.dtd"><svg t="1569483680397" class="icon" viewBox="0 0 1077 1024" version="1.1" xmlns="http://www.w3.org/2000/svg" p-id="1644" xmlns:xlink="http://www.w3.org/1999/xlink" width="210.3515625" height="200"><defs><style type="text/css"></style></defs><path d="M1022.810644 481.426409h-968.881413a56.625736 56.625736 0 0 0-10.550042 1.076535l-4.521446 1.507149a27.774601 27.774601 0 0 0-5.597982 1.722455 35.956266 35.956266 0 0 0-4.95206 2.583684 26.698066 26.698066 0 0 0-4.30614 2.15307 54.90328 54.90328 0 0 0-14.856182 15.071489l-2.368376 4.090832a38.53995 38.53995 0 0 0-2.583684 5.167368c0 1.722456 0 3.660219-1.722456 5.382674a35.740959 35.740959 0 0 0-1.291842 4.521447 49.735913 49.735913 0 0 0 0 21.530698 38.755257 38.755257 0 0 0 1.291842 4.736753c0 1.722456 1.076535 3.660219 1.722456 5.382675s1.722456 3.444912 2.583684 5.167368l2.368376 4.090832a41.123633 41.123633 0 0 0 6.674517 8.181665l434.704794 434.27418a53.826745 53.826745 0 0 0 76.218671-76.003364L183.759341 589.079899h839.697224a53.826745 53.826745 0 0 0 0-107.65349z" fill="#111111" p-id="1645"></path><path d="M85.522015 384.627176m38.061256-38.061256l330.828442-330.828442q38.061257-38.061257 76.122513 0l0 0q38.061257 38.061257 0 76.122513l-330.828442 330.828442q-38.061257 38.061257-76.122513 0l0 0q-38.061257-38.061257 0-76.122513Z" fill="#00C569" p-id="1646"></path></svg>