<?xml version="1.0" standalone="no"?><!DOCTYPE svg PUBLIC "-//W3C//DTD SVG 1.1//EN" "http://www.w3.org/Graphics/SVG/1.1/DTD/svg11.dtd"><svg t="1569483687975" class="icon" viewBox="0 0 1024 1024" version="1.1" xmlns="http://www.w3.org/2000/svg" p-id="2124" xmlns:xlink="http://www.w3.org/1999/xlink" width="200" height="200"><defs><style type="text/css"></style></defs><path d="M716.690802 102.399672a56.31982 56.31982 0 0 1 56.31982 50.995037L843.666396 860.157247a56.934218 56.934218 0 0 1-14.335954 43.622261 56.11502 56.11502 0 0 1-40.959869 18.63674H237.460336A56.524619 56.524619 0 0 1 180.935717 860.157247L251.79629 153.394709A56.31982 56.31982 0 0 1 308.11611 102.399672h409.598689m0-102.399672h-409.598689a158.719492 158.719492 0 0 0-158.105094 143.359541L78.536044 849.302882A158.719492 158.719492 0 0 0 237.460336 1023.996723h549.88624a158.719492 158.719492 0 0 0 158.105094-174.693841L874.795896 143.359541a158.719492 158.719492 0 0 0-158.105094-143.359541z" fill="#111111" p-id="2125"></path><path d="M657.094193 184.31941a50.380639 50.380639 0 0 0-47.923047 33.587093 102.399672 102.399672 0 0 1-193.53538 0A50.380639 50.380639 0 0 0 367.712719 184.31941a51.609435 51.609435 0 0 0-48.127846 69.426978 204.799345 204.799345 0 0 0 385.637166 0A51.609435 51.609435 0 0 0 657.094193 184.31941z" fill="#00C569" p-id="2126"></path></svg>