<?xml version="1.0" standalone="no"?><!DOCTYPE svg PUBLIC "-//W3C//DTD SVG 1.1//EN" "http://www.w3.org/Graphics/SVG/1.1/DTD/svg11.dtd"><svg t="1569483684310" class="icon" viewBox="0 0 1024 1024" version="1.1" xmlns="http://www.w3.org/2000/svg" p-id="1882" xmlns:xlink="http://www.w3.org/1999/xlink" width="200" height="200"><defs><style type="text/css"></style></defs><path d="M889.225551 184.320168H550.896018a51.19999 51.19999 0 0 0 0 102.399979h338.329533a28.876794 28.876794 0 0 1 28.671994 33.996794l-77.619184 372.121525A28.876794 28.876794 0 0 1 811.811166 716.800061h-331.775933a28.876794 28.876794 0 0 1-28.467195-23.961595L338.313661 40.960197a50.79039 50.79039 0 0 0-49.97119-40.959992H54.460918A51.19999 51.19999 0 0 0 4.899328 63.897792 52.42879 52.42879 0 0 0 56.918517 102.400184h189.644762L351.420858 710.246463A131.481574 131.481574 0 0 0 480.035233 819.200041h331.775933a131.481574 131.481574 0 0 0 129.433574-108.953578l77.619185-372.326326A131.481574 131.481574 0 0 0 889.225551 184.320168z" fill="#111111" p-id="1883"></path><path d="M748.323179 471.040111a51.19999 51.19999 0 0 0 0-102.39998h-163.839967a51.19999 51.19999 0 1 0 0 102.39998z" fill="#111111" p-id="1884"></path><path d="M502.563228 952.320014m-71.679986 0a71.679986 71.679986 0 1 0 143.359972 0 71.679986 71.679986 0 1 0-143.359972 0Z" fill="#00C569" p-id="1885"></path><path d="M789.283171 952.320014m-71.679986 0a71.679986 71.679986 0 1 0 143.359971 0 71.679986 71.679986 0 1 0-143.359971 0Z" fill="#00C569" p-id="1886"></path><path d="M758.563177 583.680088a51.19999 51.19999 0 0 0-51.19999-51.19999h-102.399979a51.19999 51.19999 0 1 0 0 102.39998h102.399979a51.19999 51.19999 0 0 0 51.19999-51.19999z" fill="#00C569" p-id="1887"></path></svg>