<?xml version="1.0" standalone="no"?><!DOCTYPE svg PUBLIC "-//W3C//DTD SVG 1.1//EN" "http://www.w3.org/Graphics/SVG/1.1/DTD/svg11.dtd"><svg t="1569483682410" class="icon" viewBox="0 0 1024 1024" version="1.1" xmlns="http://www.w3.org/2000/svg" p-id="1763" xmlns:xlink="http://www.w3.org/1999/xlink" width="200" height="200"><defs><style type="text/css"></style></defs><path d="M573.301081 839.730011v20.474443a61.42333 61.42333 0 0 1-122.84666 0v-20.474443h-102.372216v20.474443a163.795546 163.795546 0 0 0 327.591092 0v-20.474443z" fill="#00C569" p-id="1764"></path><path d="M908.262972 737.357795A48.319686 48.319686 0 0 1 859.943286 689.038109V450.715589A348.065535 348.065535 0 0 0 563.063859 106.744943V54.330368A53.233552 53.233552 0 0 0 517.201106 0.277838a51.186108 51.186108 0 0 0-56.509463 51.186108v55.280997A348.065535 348.065535 0 0 0 163.812216 450.715589v238.32252A48.319686 48.319686 0 0 1 115.49253 737.357795 53.233552 53.233552 0 0 0 61.44 783.220548 51.186108 51.186108 0 0 0 112.626108 839.730011h798.503286a51.186108 51.186108 0 0 0 51.186108-56.509463A53.233552 53.233552 0 0 0 908.262972 737.357795zM266.184432 737.357795V457.881645a250.81193 250.81193 0 0 1 221.942965-251.835652A245.693319 245.693319 0 0 1 757.57107 450.715589v286.642206z" fill="#111111" p-id="1765"></path></svg>