<?xml version="1.0" standalone="no"?><!DOCTYPE svg PUBLIC "-//W3C//DTD SVG 1.1//EN" "http://www.w3.org/Graphics/SVG/1.1/DTD/svg11.dtd"><svg t="1569483795304" class="icon" viewBox="0 0 1024 1024" version="1.1" xmlns="http://www.w3.org/2000/svg" p-id="2362" xmlns:xlink="http://www.w3.org/1999/xlink" width="200" height="200"><defs><style type="text/css"></style></defs><path d="M1000.6528 232.448l-121.6512-175.7184A132.096 132.096 0 0 0 770.6624 0H253.3376a132.096 132.096 0 0 0-108.3392 56.7296l-121.6512 175.7184A131.8912 131.8912 0 0 0 0 307.2v584.9088A131.8912 131.8912 0 0 0 131.8912 1024h760.2176A131.8912 131.8912 0 0 0 1024 892.1088V307.2a131.8912 131.8912 0 0 0-23.3472-74.752zM770.6624 102.4a29.2864 29.2864 0 0 1 24.1664 12.6976L871.0144 225.28h-307.2V102.4z m-541.4912 12.6976A29.2864 29.2864 0 0 1 253.3376 102.4H460.8v122.88h-307.2zM921.6 892.1088A29.2864 29.2864 0 0 1 892.1088 921.6H131.8912A29.2864 29.2864 0 0 1 102.4 892.1088V353.28A25.6 25.6 0 0 1 128 327.68h768A25.6 25.6 0 0 1 921.6 353.28z" fill="#111111" p-id="2363"></path><path d="M307.2 430.08m51.2 0l307.2 0q51.2 0 51.2 51.2l0 0q0 51.2-51.2 51.2l-307.2 0q-51.2 0-51.2-51.2l0 0q0-51.2 51.2-51.2Z" fill="#00C569" p-id="2364"></path></svg>