<?xml version="1.0" standalone="no"?><!DOCTYPE svg PUBLIC "-//W3C//DTD SVG 1.1//EN" "http://www.w3.org/Graphics/SVG/1.1/DTD/svg11.dtd"><svg t="1569483686078" class="icon" viewBox="0 0 1024 1024" version="1.1" xmlns="http://www.w3.org/2000/svg" p-id="2004" xmlns:xlink="http://www.w3.org/1999/xlink" width="200" height="200"><defs><style type="text/css"></style></defs><path d="M858.5216 184.32h-75.1616l-20.48-81.92a135.7824 135.7824 0 0 0-131.6864-102.4H392.6016a135.7824 135.7824 0 0 0-131.6864 102.4l-20.48 81.92H165.4784A165.4784 165.4784 0 0 0 0 349.7984v508.7232A165.4784 165.4784 0 0 0 165.4784 1024h693.0432A165.4784 165.4784 0 0 0 1024 858.5216V349.7984A165.4784 165.4784 0 0 0 858.5216 184.32zM921.6 858.5216A63.0784 63.0784 0 0 1 858.5216 921.6H165.4784A63.0784 63.0784 0 0 1 102.4 858.5216V349.7984A63.0784 63.0784 0 0 1 165.4784 286.72h105.6768a62.8736 62.8736 0 0 0 61.44-47.9232l26.4192-105.472A40.96 40.96 0 0 1 398.5408 102.4h226.9184a40.96 40.96 0 0 1 39.7312 30.9248l26.4192 105.472a62.8736 62.8736 0 0 0 61.44 47.9232h105.6768A63.0784 63.0784 0 0 1 921.6 349.7984z" fill="#111111" p-id="2005"></path><path d="M808.96 399.36m-51.2 0a51.2 51.2 0 1 0 102.4 0 51.2 51.2 0 1 0-102.4 0Z" fill="#111111" p-id="2006"></path><path d="M512 450.56a143.36 143.36 0 1 1-143.36 143.36 143.36 143.36 0 0 1 143.36-143.36m0-102.4a245.76 245.76 0 1 0 245.76 245.76 245.76 245.76 0 0 0-245.76-245.76z" fill="#00C569" p-id="2007"></path></svg>