<?xml version="1.0" standalone="no"?><!DOCTYPE svg PUBLIC "-//W3C//DTD SVG 1.1//EN" "http://www.w3.org/Graphics/SVG/1.1/DTD/svg11.dtd"><svg t="1569483676792" class="icon" viewBox="0 0 1024 1024" version="1.1" xmlns="http://www.w3.org/2000/svg" p-id="1405" xmlns:xlink="http://www.w3.org/1999/xlink" width="200" height="200"><defs><style type="text/css"></style></defs><path d="M549.2736 565.6576l184.32-100.1472a50.9952 50.9952 0 0 0 16.1792-70.4512 51.2 51.2 0 0 0-70.4512-16.384l-184.32 100.1472a50.9952 50.9952 0 0 0-16.384 70.4512 50.9952 50.9952 0 0 0 70.656 16.384z" fill="#00C569" p-id="1406"></path><path d="M512 0a512 512 0 1 0 512 512A512 512 0 0 0 512 0z m0 921.6a409.6 409.6 0 1 1 409.6-409.6 409.6 409.6 0 0 1-409.6 409.6z" fill="#111111" p-id="1407"></path><path d="M344.4736 280.576a51.2 51.2 0 0 0-69.2224 75.3664l212.3776 204.8a51.2 51.2 0 1 0 69.2224-75.3664z" fill="#111111" p-id="1408"></path></svg>