<?xml version="1.0" standalone="no"?><!DOCTYPE svg PUBLIC "-//W3C//DTD SVG 1.1//EN" "http://www.w3.org/Graphics/SVG/1.1/DTD/svg11.dtd"><svg t="1569483798964" class="icon" viewBox="0 0 1061 1024" version="1.1" xmlns="http://www.w3.org/2000/svg" p-id="2600" xmlns:xlink="http://www.w3.org/1999/xlink" width="207.2265625" height="200"><defs><style type="text/css"></style></defs><path d="M732.846186 823.42268H260.539381a260.539381 260.539381 0 0 1-128.15835-487.297319v-9.501031A326.62433 326.62433 0 0 1 755.437526 190.020619a316.701031 316.701031 0 0 1-22.59134 633.402061z m-274.474227-717.85567a221.479588 221.479588 0 0 0-220.635052 221.05732 228.44701 228.44701 0 0 0 2.955877 33.570309l6.545154 42.226804-40.326598 14.990516A154.972371 154.972371 0 0 0 260.539381 717.85567h472.306805a211.134021 211.134021 0 1 0 0-422.268041h-5.278351l-45.816082 2.322474-12.456908-38.426392A220.423918 220.423918 0 0 0 459.005361 105.56701z" fill="#111111" p-id="2601"></path><path d="M271.729485 918.43299m52.783505 0l401.154639 0q52.783505 0 52.783505 52.783505l0 0q0 52.783505-52.783505 52.783505l-401.154639 0q-52.783505 0-52.783505-52.783505l0 0q0-52.783505 52.783505-52.783505Z" fill="#00C569" p-id="2602"></path></svg>