<?xml version="1.0" standalone="no"?><!DOCTYPE svg PUBLIC "-//W3C//DTD SVG 1.1//EN" "http://www.w3.org/Graphics/SVG/1.1/DTD/svg11.dtd"><svg t="1569483816265" class="icon" viewBox="0 0 1038 1024" version="1.1" xmlns="http://www.w3.org/2000/svg" p-id="3915" xmlns:xlink="http://www.w3.org/1999/xlink" width="202.734375" height="200"><defs><style type="text/css"></style></defs><path d="M862.546997 0H168.467821A168.467821 168.467821 0 0 0 0 168.467821v446.63562A168.467821 168.467821 0 0 0 168.467821 783.571262h52.581756l-69.696602 164.962371A51.550741 51.550741 0 1 0 247.443556 983.175731l98.152611-230.32871a13.19699 13.19699 0 0 1 0-1.443421v-1.443421l1.031015-3.50545c0-1.649624 1.031015-3.50545 1.443421-5.361277a50.519726 50.519726 0 0 0 0-5.56748 20.620296 20.620296 0 0 0 0-3.505451 50.725929 50.725929 0 0 0 0-5.773683V721.710373a43.096419 43.096419 0 0 0-1.649624-4.742668 18.558267 18.558267 0 0 0-1.649624-4.742668 26.393979 26.393979 0 0 0-2.268232-4.12406 31.961459 31.961459 0 0 0-2.474436-4.536465l-3.299247-3.917856a25.156762 25.156762 0 0 0-3.093045-3.50545 28.662212 28.662212 0 0 0-3.917856-3.093045 18.558267 18.558267 0 0 0-3.917856-3.093044l-3.917857-2.268233a42.477811 42.477811 0 0 0-5.361277-2.474436h-3.50545l-4.948871-4.742668H168.467821A65.36634 65.36634 0 0 1 103.101482 615.103441V168.467821A65.36634 65.36634 0 0 1 168.467821 103.101482h694.079176A65.36634 65.36634 0 0 1 927.913337 168.467821v446.63562A65.36634 65.36634 0 0 1 862.546997 680.46978H505.197261a51.550741 51.550741 0 0 0 0 103.101482h357.349736A168.467821 168.467821 0 0 0 1031.014819 615.103441V168.467821A168.467821 168.467821 0 0 0 862.546997 0z" fill="#111111" p-id="3916"></path><path d="M680.46978 298.994297a51.550741 51.550741 0 0 0-51.550741-51.550741h-371.165334a51.550741 51.550741 0 0 0 0 103.101482h371.165334a51.550741 51.550741 0 0 0 51.550741-51.550741z" fill="#111111" p-id="3917"></path><path d="M206.202964 433.026224m51.550741 0l268.063852 0q51.550741 0 51.550741 51.550741l0 0q0 51.550741-51.550741 51.550741l-268.063852 0q-51.550741 0-51.550741-51.550741l0 0q0-51.550741 51.550741-51.550741Z" fill="#00C569" p-id="3918"></path></svg>