<?xml version="1.0" standalone="no"?><!DOCTYPE svg PUBLIC "-//W3C//DTD SVG 1.1//EN" "http://www.w3.org/Graphics/SVG/1.1/DTD/svg11.dtd"><svg t="1569483800645" class="icon" viewBox="0 0 1024 1024" version="1.1" xmlns="http://www.w3.org/2000/svg" p-id="2719" xmlns:xlink="http://www.w3.org/1999/xlink" width="200" height="200"><defs><style type="text/css"></style></defs><path d="M848.095778 675.846615l-232.64838 96.868559 38.911261 94.615803 232.648379-95.844579a51.199027 51.199027 0 0 0-38.91126-95.639783zM235.34582 32.172445a40.959222 40.959222 0 0 0-3.071942-5.939087l-1.638369-3.276738a58.981279 58.981279 0 0 0-4.505514-5.529495l-1.843165-2.252757A51.199027 51.199027 0 0 0 168.787085 3.705786L35.87441 57.362366a51.199027 51.199027 0 0 0 38.092076 95.025395l85.80957-34.610543L372.354417 637.549743a51.403823 51.403823 0 0 0 95.025394-38.911261z m779.044398 423.313557L908.715426 198.262089a76.184153 76.184153 0 0 0-99.121317-40.959222L495.232082 286.734008a75.77456 75.77456 0 0 0-40.959222 99.121317l105.674793 257.223912a75.979356 75.979356 0 0 0 99.121316 40.959222l314.157231-129.021548a75.979356 75.979356 0 0 0 41.164018-99.530909z m-120.829704 20.479611l-233.262768 96.254171a16.998077 16.998077 0 0 1-22.527572-9.420621l-72.497823-176.32945a17.407669 17.407669 0 0 1 9.420621-22.527572l233.262768-95.844579a17.202873 17.202873 0 0 1 22.527572 9.420621l72.497823 176.32945a17.407669 17.407669 0 0 1-9.420621 22.732368z" fill="#111111" p-id="2720"></path><path d="M515.711693 819.203891a51.199027 51.199027 0 1 1-51.199027 51.199027A51.199027 51.199027 0 0 1 515.711693 819.203891m0-102.398054a153.597082 153.597082 0 1 0 153.597082 153.597081A153.597082 153.597082 0 0 0 515.711693 716.805837z" fill="#00C569" p-id="2721"></path></svg>