<?xml version="1.0" standalone="no"?><!DOCTYPE svg PUBLIC "-//W3C//DTD SVG 1.1//EN" "http://www.w3.org/Graphics/SVG/1.1/DTD/svg11.dtd"><svg t="1569483805623" class="icon" viewBox="0 0 1062 1024" version="1.1" xmlns="http://www.w3.org/2000/svg" p-id="3078" xmlns:xlink="http://www.w3.org/1999/xlink" width="207.421875" height="200"><defs><style type="text/css"></style></defs><path d="M149.333333 682.666667h124.586667c-85.333333 341.333333 149.333333 341.333333 149.333333 341.333333h59.093334a98.346667 98.346667 0 0 0 97.706666-110.72L576 888.746667a100.266667 100.266667 0 0 1 14.293333-65.706667l71.466667-102.613333a53.546667 53.546667 0 0 0-17.493333-73.386667 53.333333 53.333333 0 0 0-73.6 17.493333l-90.026667 132.906667a107.946667 107.946667 0 0 0-15.146667 55.893333 91.733333 91.733333 0 0 0 0 13.226667l3.84 23.68A24.106667 24.106667 0 0 1 445.44 917.333333h-22.613333a67.626667 67.626667 0 0 1-42.666667-22.613333c-11.52-14.72-34.56-62.08-3.626667-186.24L410.026667 576H157.653333a48.64 48.64 0 0 1-46.933333-61.866667l85.333333-307.626666A49.066667 49.066667 0 0 1 242.56 170.666667h464.853333a55.68 55.68 0 0 0 56.746667-56.533334A53.333333 53.333333 0 0 0 710.826667 64H237.44a149.333333 149.333333 0 0 0-143.36 109.226667L5.333333 494.293333A149.333333 149.333333 0 0 0 149.333333 682.666667z" fill="#111111" p-id="3079"></path><path d="M746.666667 618.666667h248.106666a68.053333 68.053333 0 0 0 68.053334-68.053334V68.053333A68.053333 68.053333 0 0 0 994.773333 0H746.666667a68.053333 68.053333 0 0 0-68.053334 68.053333v482.56A68.053333 68.053333 0 0 0 746.666667 618.666667z m38.826666-488.106667A23.893333 23.893333 0 0 1 809.386667 106.666667h122.88a23.893333 23.893333 0 0 1 23.893333 23.893333v357.546667A23.893333 23.893333 0 0 1 932.266667 512h-122.88a23.893333 23.893333 0 0 1-23.893334-23.893333z" fill="#00C569" p-id="3080"></path></svg>