<?xml version="1.0" standalone="no"?><!DOCTYPE svg PUBLIC "-//W3C//DTD SVG 1.1//EN" "http://www.w3.org/Graphics/SVG/1.1/DTD/svg11.dtd"><svg t="1569483811786" class="icon" viewBox="0 0 1024 1024" version="1.1" xmlns="http://www.w3.org/2000/svg" p-id="3558" xmlns:xlink="http://www.w3.org/1999/xlink" width="200" height="200"><defs><style type="text/css"></style></defs><path d="M822.272 369.8688h-5.12A51.2 51.2 0 0 1 765.5424 318.8736a50.7904 50.7904 0 0 0-50.7904-50.7904H308.6336a50.7904 50.7904 0 0 0-50.7904 50.7904v88.8832a50.7904 50.7904 0 0 0 50.7904 50.7904h434.5856a150.1184 150.1184 0 0 1 150.1184 150.1184v102.4A150.1184 150.1184 0 0 1 743.2192 860.16H280.7808A150.1184 150.1184 0 0 1 130.6624 710.0416v-4.9152a50.9952 50.9952 0 0 1 50.7904-50.9952h5.12a50.9952 50.9952 0 0 1 50.7904 50.9952 50.9952 50.9952 0 0 0 50.9952 50.7904h447.2832A50.7904 50.7904 0 0 0 786.0224 705.1264V614.4a50.7904 50.7904 0 0 0-50.9952-50.9952H301.056A150.1184 150.1184 0 0 1 151.1424 412.672v-98.7136A150.1184 150.1184 0 0 1 301.056 163.84h421.888a150.1184 150.1184 0 0 1 150.1184 150.1184v4.9152a50.9952 50.9952 0 0 1-50.7904 50.9952z" fill="#111111" p-id="3559"></path><path d="M458.3424 51.2V163.84h102.4V51.2A51.2 51.2 0 0 0 509.5424 0 51.2 51.2 0 0 0 458.3424 51.2zM509.5424 1024a51.2 51.2 0 0 0 51.2-51.2V860.16h-102.4v112.64a51.2 51.2 0 0 0 51.2 51.2z" fill="#00C569" p-id="3560"></path></svg>