<?xml version="1.0" standalone="no"?><!DOCTYPE svg PUBLIC "-//W3C//DTD SVG 1.1//EN" "http://www.w3.org/Graphics/SVG/1.1/DTD/svg11.dtd"><svg t="1569483803885" class="icon" viewBox="0 0 1024 1024" version="1.1" xmlns="http://www.w3.org/2000/svg" p-id="2958" xmlns:xlink="http://www.w3.org/1999/xlink" width="200" height="200"><defs><style type="text/css"></style></defs><path d="M972.8 675.84a51.2 51.2 0 0 0-51.2 51.2v158.72A36.0448 36.0448 0 0 1 885.76 921.6H138.24A36.0448 36.0448 0 0 1 102.4 885.76V727.04a51.2 51.2 0 0 0-102.4 0v158.72A138.24 138.24 0 0 0 138.24 1024h747.52A138.24 138.24 0 0 0 1024 885.76V727.04a51.2 51.2 0 0 0-51.2-51.2z" fill="#111111" p-id="2959"></path><path d="M473.2928 782.336l1.6384 5.3248 2.6624 4.7104a38.0928 38.0928 0 0 0 2.048 4.096 51.6096 51.6096 0 0 0 14.1312 14.1312l4.096 2.048 4.7104 2.6624 5.3248 1.6384 4.096 2.2528a55.0912 55.0912 0 0 0 20.48 0l4.3008-1.2288 5.3248-1.6384 4.7104-2.6624 4.096-2.048a75.3664 75.3664 0 0 0 7.7824-6.3488l188.2112-188.2112a51.2 51.2 0 0 0-72.4992-72.4992L573.44 644.3008V51.2a51.2 51.2 0 0 0-102.4 0v716.8a55.7056 55.7056 0 0 0 1.024 10.0352 33.9968 33.9968 0 0 0 1.2288 4.3008z" fill="#111111" p-id="2960"></path><path d="M217.077886 576.20562m36.203867-36.203867l0 0q36.203867-36.203867 72.407734 0l89.351145 89.351144q36.203867 36.203867 0 72.407735l0 0q-36.203867 36.203867-72.407735 0l-89.351144-89.351145q-36.203867-36.203867 0-72.407734Z" fill="#00C569" p-id="2961"></path></svg>