<?xml version="1.0" standalone="no"?><!DOCTYPE svg PUBLIC "-//W3C//DTD SVG 1.1//EN" "http://www.w3.org/Graphics/SVG/1.1/DTD/svg11.dtd"><svg t="1569483836336" class="icon" viewBox="0 0 1024 1024" version="1.1" xmlns="http://www.w3.org/2000/svg" p-id="5346" xmlns:xlink="http://www.w3.org/1999/xlink" width="200" height="200"><defs><style type="text/css"></style></defs><path d="M645.084645 219.327553a51.401695 51.401695 0 0 0 27.646331 45.462854 348.138972 348.138972 0 1 1-321.516581 0 50.99212 50.99212 0 0 0 27.64633-45.258067 51.606483 51.606483 0 0 0-75.361848-45.462854 450.532788 450.532788 0 1 0 416.947617 0 51.606483 51.606483 0 0 0-75.361849 45.258067z" fill="#111111" p-id="5347"></path><path d="M460.775778 0m51.196907 0l0 0q51.196908 0 51.196908 51.196908l0 450.532788q0 51.196908-51.196908 51.196907l0 0q-51.196908 0-51.196907-51.196907l0-450.532788q0-51.196908 51.196907-51.196908Z" fill="#00C569" p-id="5348"></path></svg>