<?xml version="1.0" standalone="no"?><!DOCTYPE svg PUBLIC "-//W3C//DTD SVG 1.1//EN" "http://www.w3.org/Graphics/SVG/1.1/DTD/svg11.dtd"><svg t="1569483802280" class="icon" viewBox="0 0 1024 1024" version="1.1" xmlns="http://www.w3.org/2000/svg" p-id="2838" xmlns:xlink="http://www.w3.org/1999/xlink" width="200" height="200"><defs><style type="text/css"></style></defs><path d="M885.76 0h-419.84A138.24 138.24 0 0 0 327.68 138.24v158.72a51.2 51.2 0 0 0 102.4 0V138.24A36.0448 36.0448 0 0 1 465.92 102.4h419.84A36.0448 36.0448 0 0 1 921.6 138.24v747.52A36.0448 36.0448 0 0 1 885.76 921.6h-419.84A36.0448 36.0448 0 0 1 430.08 885.76V706.56a51.2 51.2 0 0 0-102.4 0v179.2A138.24 138.24 0 0 0 465.92 1024h419.84A138.24 138.24 0 0 0 1024 885.76V138.24A138.24 138.24 0 0 0 885.76 0z" fill="#111111" p-id="2839"></path><path d="M778.24 552.96a33.9968 33.9968 0 0 0 4.3008-1.2288l5.3248-1.6384 4.7104-2.6624 4.096-2.048a51.6096 51.6096 0 0 0 14.1312-14.1312l2.048-4.096 2.6624-4.7104 1.6384-5.3248A33.9968 33.9968 0 0 0 819.2 512a55.0912 55.0912 0 0 0 0-20.48 33.9968 33.9968 0 0 0-1.2288-4.3008l-1.6384-5.3248-2.6624-4.7104-2.048-4.096a75.3664 75.3664 0 0 0-6.3488-7.7824l-188.2112-188.2112a51.2 51.2 0 0 0-72.4992 72.4992L644.3008 450.56H51.2a51.2 51.2 0 0 0 0 102.4h716.8a55.7056 55.7056 0 0 0 10.24 0z" fill="#111111" p-id="2840"></path><path d="M503.691972 734.422521m36.203867-36.203867l89.351144-89.351144q36.203867-36.203867 72.407735 0l0 0q36.203867 36.203867 0 72.407734l-89.351144 89.351144q-36.203867 36.203867-72.407735 0l0 0q-36.203867-36.203867 0-72.407734Z" fill="#00C569" p-id="2841"></path></svg>