<?xml version="1.0" standalone="no"?><!DOCTYPE svg PUBLIC "-//W3C//DTD SVG 1.1//EN" "http://www.w3.org/Graphics/SVG/1.1/DTD/svg11.dtd"><svg t="1569483792257" class="icon" viewBox="0 0 1024 1024" version="1.1" xmlns="http://www.w3.org/2000/svg" p-id="2243" xmlns:xlink="http://www.w3.org/1999/xlink" width="200" height="200"><defs><style type="text/css"></style></defs><path d="M474.60944 747.811198V491.711472L364.384118 216.557928a51.219945 51.219945 0 0 0-95.269097 38.107639L372.16955 512.19945v235.611748a51.219945 51.219945 0 0 0 102.43989 0z" fill="#00C569" p-id="2244"></path><path d="M723.128613 0H242.890409a51.219945 51.219945 0 0 0 0 102.43989H703.869914a20.487978 20.487978 0 0 1 18.64406 27.65877L577.04933 491.711472v237.865425l-170.664857 209.182256a51.219945 51.219945 0 1 0 76.625038 68.020087l184.391802-225.367758 1.843918-2.458558 3.278077-4.507355 2.253677-4.302475a32.780765 32.780765 0 0 0 2.048798-4.712235 31.756366 31.756366 0 0 0 1.434159-4.712235l1.229278-4.712235a50.195546 50.195546 0 0 0 0-5.531754 15.775743 15.775743 0 0 0 0-3.073197V512.19945l145.054885-362.63721A109.200923 109.200923 0 0 0 723.128613 0z" fill="#111111" p-id="2245"></path></svg>