<?xml version="1.0" standalone="no"?><!DOCTYPE svg PUBLIC "-//W3C//DTD SVG 1.1//EN" "http://www.w3.org/Graphics/SVG/1.1/DTD/svg11.dtd"><svg t="1569483846605" class="icon" viewBox="0 0 1024 1024" version="1.1" xmlns="http://www.w3.org/2000/svg" p-id="6061" xmlns:xlink="http://www.w3.org/1999/xlink" width="200" height="200"><defs><style type="text/css"></style></defs><path d="M834.7648 319.6928l58.1632-139.8784A55.9104 55.9104 0 0 0 841.3184 102.4H331.3664V51.2A51.2 51.2 0 0 0 280.1664 0 51.2 51.2 0 0 0 228.9664 51.2v737.28A51.2 51.2 0 0 0 280.1664 839.68a51.2 51.2 0 0 0 51.2-51.2V593.92h509.952a55.9104 55.9104 0 0 0 51.6096-77.4144l-58.1632-139.8784a74.1376 74.1376 0 0 1 0-56.9344z m-81.92 171.8272H331.3664V204.8h421.6832a12.4928 12.4928 0 0 1 11.4688 17.2032l-40.96 97.6896a74.1376 74.1376 0 0 0 0 56.9344l40.96 97.6896a12.4928 12.4928 0 0 1-11.4688 17.2032z" fill="#111111" p-id="6062"></path><path d="M382.5664 921.6h-204.8a51.2 51.2 0 0 0 0 102.4h204.8a51.2 51.2 0 0 0 0-102.4z" fill="#00C569" p-id="6063"></path></svg>