<?xml version="1.0" standalone="no"?><!DOCTYPE svg PUBLIC "-//W3C//DTD SVG 1.1//EN" "http://www.w3.org/Graphics/SVG/1.1/DTD/svg11.dtd"><svg t="1569483813284" class="icon" viewBox="0 0 1163 1024" version="1.1" xmlns="http://www.w3.org/2000/svg" p-id="3677" xmlns:xlink="http://www.w3.org/1999/xlink" width="227.1484375" height="200"><defs><style type="text/css"></style></defs><path d="M972.334545 209.454545H698.181818v-18.152727A191.301818 191.301818 0 0 0 506.88 0H191.301818A191.301818 191.301818 0 0 0 0 191.301818v641.396364A191.301818 191.301818 0 0 0 191.301818 1024h781.032727A191.301818 191.301818 0 0 0 1163.636364 832.698182V400.756364A191.301818 191.301818 0 0 0 972.334545 209.454545zM1047.272727 832.698182A74.938182 74.938182 0 0 1 972.334545 907.636364H191.301818A74.938182 74.938182 0 0 1 116.363636 832.698182V191.301818A74.938182 74.938182 0 0 1 191.301818 116.363636h315.578182A74.938182 74.938182 0 0 1 581.818182 191.301818V209.454545h-197.818182a58.181818 58.181818 0 0 0 0 116.363637h588.334545A74.938182 74.938182 0 0 1 1047.272727 400.756364z" fill="#111111" p-id="3678"></path><path d="M325.818182 442.181818m58.181818 0l488.727273 0q58.181818 0 58.181818 58.181818l0 0q0 58.181818-58.181818 58.181819l-488.727273 0q-58.181818 0-58.181818-58.181819l0 0q0-58.181818 58.181818-58.181818Z" fill="#00C569" p-id="3679"></path></svg>