<?xml version="1.0" standalone="no"?><!DOCTYPE svg PUBLIC "-//W3C//DTD SVG 1.1//EN" "http://www.w3.org/Graphics/SVG/1.1/DTD/svg11.dtd"><svg t="1569483808905" class="icon" viewBox="0 0 1076 1024" version="1.1" xmlns="http://www.w3.org/2000/svg" p-id="3320" xmlns:xlink="http://www.w3.org/1999/xlink" width="210.15625" height="200"><defs><style type="text/css"></style></defs><path d="M1069.574015 462.947286a39.39856 39.39856 0 0 1 2.798805 5.167024c0 1.722341 0 3.659975 1.722341 5.382317a35.738584 35.738584 0 0 1 1.291756 4.521146 57.91373 57.91373 0 0 1 0 21.529268 27.772755 27.772755 0 0 1-1.291756 4.521146c0 1.937634 0 3.875268-1.722341 5.59761s-1.722341 3.444683-2.798805 5.167024a37.460926 37.460926 0 0 1-2.152927 4.090561 54.253754 54.253754 0 0 1-14.855195 14.855195l-4.305853 2.368219a54.469047 54.469047 0 0 1-4.951732 2.583512 55.54551 55.54551 0 0 1-5.597609 1.722341l-4.521146 1.291757a43.058535 43.058535 0 0 1-10.549342 1.076463h-968.817042a53.823169 53.823169 0 0 1 0-107.646338h839.641437L549.857495 91.998005A53.823169 53.823169 0 0 1 626.071102 15.784398l434.675913 434.675913a64.587803 64.587803 0 0 1 6.674073 8.396414 37.460926 37.460926 0 0 1 2.152927 4.090561z" fill="#111111" p-id="3321"></path><path d="M507.973565 970.164393m38.058727-38.058728l330.806463-330.806462q38.058728-38.058728 76.117455 0l0 0q38.058728 38.058728 0 76.117456l-330.806462 330.806462q-38.058728 38.058728-76.117456 0l0 0q-38.058728-38.058728 0-76.117456Z" fill="#00C569" p-id="3322"></path></svg>