<?xml version="1.0" standalone="no"?><!DOCTYPE svg PUBLIC "-//W3C//DTD SVG 1.1//EN" "http://www.w3.org/Graphics/SVG/1.1/DTD/svg11.dtd"><svg t="1569483841648" class="icon" viewBox="0 0 1181 1024" version="1.1" xmlns="http://www.w3.org/2000/svg" p-id="5704" xmlns:xlink="http://www.w3.org/1999/xlink" width="230.6640625" height="200"><defs><style type="text/css"></style></defs><path d="M817.690059 59.057035m41.747992-41.747992l0 0q41.747992-41.747992 83.495985 0l103.034045 103.034045q41.747992 41.747992 0 83.495984l0 0q-41.747992 41.747992-83.495985 0l-103.034045-103.034045q-41.747992-41.747992 0-83.495984Z" fill="#00C569" p-id="5705"></path><path d="M388.913977 268.280381H1122.197941a64.236148 64.236148 0 0 1 11.571953 1.180811l4.959408 1.416974 6.14022 1.889299 5.431733 3.07011 4.723246 2.361623a59.512901 59.512901 0 0 1 16.295199 16.295199l2.361624 4.723246 3.07011 5.431733 1.889298 6.14022a39.202943 39.202943 0 0 1 1.416974 4.959409 63.527661 63.527661 0 0 1 0 23.61623 39.202943 39.202943 0 0 1-1.416974 4.959409l-1.889298 6.14022-3.07011 5.431733-2.361624 4.723246a86.907729 86.907729 0 0 1-7.321031 8.974168l-214.671537 214.907699a61.4022 61.4022 0 0 1-81.475996 6.14022 58.804414 58.804414 0 0 1-4.487084-87.616216l116.191855-116.191855H385.843867a264.737946 264.737946 0 0 0-266.15492 236.162307A259.778538 259.778538 0 0 0 378.286673 905.91861h743.911268a59.040577 59.040577 0 0 1 59.040576 59.040577 59.040577 59.040577 0 0 1-59.040576 59.040577H378.286673A377.859691 377.859691 0 0 1 0.426982 628.191737C10.345798 425.092153 185.342068 268.280381 388.913977 268.280381z" fill="#111111" p-id="5706"></path></svg>