<?xml version="1.0" standalone="no"?><!DOCTYPE svg PUBLIC "-//W3C//DTD SVG 1.1//EN" "http://www.w3.org/Graphics/SVG/1.1/DTD/svg11.dtd"><svg t="1569483821414" class="icon" viewBox="0 0 1024 1024" version="1.1" xmlns="http://www.w3.org/2000/svg" p-id="4273" xmlns:xlink="http://www.w3.org/1999/xlink" width="200" height="200"><defs><style type="text/css"></style></defs><path d="M568.32 0h-112.64A56.32 56.32 0 0 0 399.36 56.32V102.4H163.84a51.2 51.2 0 0 0 0 102.4H747.52v680.96A36.0448 36.0448 0 0 1 711.68 921.6H312.32A36.0448 36.0448 0 0 1 276.48 885.76V358.4a51.2 51.2 0 1 0-102.4 0v527.36A138.24 138.24 0 0 0 312.32 1024h399.36A138.24 138.24 0 0 0 849.92 885.76V204.8h10.24a51.2 51.2 0 0 0 0-102.4H624.64V56.32A56.32 56.32 0 0 0 568.32 0z" fill="#111111" p-id="4274"></path><path d="M430.08 307.2a51.2 51.2 0 0 0-51.2 51.2v430.08a51.2 51.2 0 0 0 102.4 0v-430.08a51.2 51.2 0 0 0-51.2-51.2z m163.84 0a51.2 51.2 0 0 0-51.2 51.2v430.08a51.2 51.2 0 0 0 102.4 0v-430.08a51.2 51.2 0 0 0-51.2-51.2z" fill="#00C569" p-id="4275"></path></svg>