<?xml version="1.0" standalone="no"?><!DOCTYPE svg PUBLIC "-//W3C//DTD SVG 1.1//EN" "http://www.w3.org/Graphics/SVG/1.1/DTD/svg11.dtd"><svg t="1569483831309" class="icon" viewBox="0 0 1182 1024" version="1.1" xmlns="http://www.w3.org/2000/svg" p-id="4987" xmlns:xlink="http://www.w3.org/1999/xlink" width="230.859375" height="200"><defs><style type="text/css"></style></defs><path d="M1088.792893 96.259987A330.610168 330.610168 0 0 0 622.44343 96.259987l-31.600682 31.600683L560.199662 96.259987A330.370769 330.370769 0 0 0 93.132002 96.259987c-128.557321 128.557321-121.854146 345.692312 6.703175 474.249634l23.939911 23.939911 401.472304 402.429901a92.886854 92.886854 0 0 0 131.190712 0L1058.149807 595.167729l23.939911-23.939911c128.317922-128.317922 135.260496-345.452913 6.703175-474.967831z m-23.939911 247.299279a220.486579 220.486579 0 0 1-66.313553 140.527277l-25.136906 26.333902-383.038573 383.038573-383.038573-383.038573-24.41871-25.376306a220.725978 220.725978 0 0 1-66.552952-140.527276A210.671215 210.671215 0 0 1 340.191882 120.199898a219.528982 219.528982 0 0 1 140.527276 67.031751l25.615705 25.376305L550.623698 256.896789l63.201364 63.201365a62.483167 62.483167 0 1 0 88.338271-88.57767l-22.742915-23.939911 26.8127-25.615705a210.671215 210.671215 0 0 1 359.098662 162.551995z" fill="#111111" p-id="4988"></path><path d="M249.030112 413.615829m42.320183-42.320184l0 0q42.320183-42.320183 84.640366 0l107.323985 107.323985q42.320183 42.320183 0 84.640367l0 0q-42.320183 42.320183-84.640367 0l-107.323984-107.323985q-42.320183-42.320183 0-84.640367Z" fill="#00C569" p-id="4989"></path></svg>