<?xml version="1.0" standalone="no"?><!DOCTYPE svg PUBLIC "-//W3C//DTD SVG 1.1//EN" "http://www.w3.org/Graphics/SVG/1.1/DTD/svg11.dtd"><svg t="1569483852110" class="icon" viewBox="0 0 1062 1024" version="1.1" xmlns="http://www.w3.org/2000/svg" p-id="6418" xmlns:xlink="http://www.w3.org/1999/xlink" width="207.421875" height="200"><defs><style type="text/css"></style></defs><path d="M913.92 341.333333H789.333333c85.333333-341.333333-149.333333-341.333333-149.333333-341.333333h-59.093333a98.346667 98.346667 0 0 0-97.706667 110.72l2.986667 24.533333a100.266667 100.266667 0 0 1-14.293334 65.706667l-71.253333 102.613333a53.333333 53.333333 0 0 0 17.493333 73.386667 53.12 53.12 0 0 0 72.533334-17.493333l90.026666-132.906667A107.946667 107.946667 0 0 0 597.333333 170.666667a91.733333 91.733333 0 0 0 0-13.226667l-2.986666-23.68A24.106667 24.106667 0 0 1 617.386667 106.666667H640a67.626667 67.626667 0 0 1 42.666667 22.613333c11.52 14.72 34.56 62.08 3.626666 186.24L652.8 448h252.373333a48.64 48.64 0 0 1 46.933334 61.866667l-85.333334 307.626666A49.066667 49.066667 0 0 1 820.266667 853.333333H355.413333A55.893333 55.893333 0 0 0 298.666667 909.866667 53.333333 53.333333 0 0 0 352 960h473.386667a149.333333 149.333333 0 0 0 143.36-109.226667l88.746666-321.066666A149.333333 149.333333 0 0 0 913.92 341.333333z" fill="#111111" p-id="6419"></path><path d="M315.946667 405.333333H68.053333A68.053333 68.053333 0 0 0 0 473.386667v482.56A68.053333 68.053333 0 0 0 68.053333 1024h247.893334A68.053333 68.053333 0 0 0 384 955.946667V473.386667A68.053333 68.053333 0 0 0 315.946667 405.333333zM277.333333 893.44A23.893333 23.893333 0 0 1 253.44 917.333333H130.56A23.893333 23.893333 0 0 1 106.666667 893.44V535.893333A23.893333 23.893333 0 0 1 130.56 512h122.88A23.893333 23.893333 0 0 1 277.333333 535.893333z" fill="#00C569" p-id="6420"></path></svg>