<?xml version="1.0" standalone="no"?><!DOCTYPE svg PUBLIC "-//W3C//DTD SVG 1.1//EN" "http://www.w3.org/Graphics/SVG/1.1/DTD/svg11.dtd"><svg t="1569483819761" class="icon" viewBox="0 0 1024 1024" version="1.1" xmlns="http://www.w3.org/2000/svg" p-id="4154" xmlns:xlink="http://www.w3.org/1999/xlink" width="200" height="200"><defs><style type="text/css"></style></defs><path d="M781.135456 430.239247H778.06428v-163.79607A266.168614 266.168614 0 0 0 499.815706 0.274563 271.696731 271.696731 0 0 0 245.727052 274.63298v42.996469a51.186272 51.186272 0 0 0 102.372544 0v-44.634429A168.095717 168.095717 0 0 1 501.248921 102.647107 163.79607 163.79607 0 0 1 675.691736 266.443177v163.79607H242.655876A119.775876 119.775876 0 0 0 122.88 550.015123v354.209001A119.775876 119.775876 0 0 0 242.655876 1024h538.47958A119.775876 119.775876 0 0 0 900.911332 904.224124v-354.209001A119.775876 119.775876 0 0 0 781.135456 430.239247zM798.538788 904.224124a17.403332 17.403332 0 0 1-17.403332 17.403332H242.655876a17.403332 17.403332 0 0 1-17.403332-17.403332v-354.209001a17.403332 17.403332 0 0 1 17.403332-17.403333h538.47958a17.403332 17.403332 0 0 1 17.403332 17.403333z" fill="#111111" p-id="4155"></path><path d="M460.709394 634.984334m51.186272 0l0 0q51.186272 0 51.186272 51.186272l0 81.898035q0 51.186272-51.186272 51.186272l0 0q-51.186272 0-51.186272-51.186272l0-81.898035q0-51.186272 51.186272-51.186272Z" fill="#00C569" p-id="4156"></path></svg>