<?xml version="1.0" standalone="no"?><!DOCTYPE svg PUBLIC "-//W3C//DTD SVG 1.1//EN" "http://www.w3.org/Graphics/SVG/1.1/DTD/svg11.dtd"><svg t="1569483834628" class="icon" viewBox="0 0 1024 1024" version="1.1" xmlns="http://www.w3.org/2000/svg" p-id="5226" xmlns:xlink="http://www.w3.org/1999/xlink" width="200" height="200"><defs><style type="text/css"></style></defs><path d="M858.5216 0H165.4784A165.4784 165.4784 0 0 0 0 165.4784v693.0432A165.4784 165.4784 0 0 0 165.4784 1024h693.0432A165.4784 165.4784 0 0 0 1024 858.5216V165.4784A165.4784 165.4784 0 0 0 858.5216 0zM921.6 858.5216A63.0784 63.0784 0 0 1 858.5216 921.6H165.4784A63.0784 63.0784 0 0 1 102.4 858.5216V165.4784A63.0784 63.0784 0 0 1 165.4784 102.4h693.0432A63.0784 63.0784 0 0 1 921.6 165.4784z" fill="#111111" p-id="5227"></path><path d="M768 245.76h-512a51.2 51.2 0 0 0 0 102.4h512a51.2 51.2 0 0 0 0-102.4z m0 225.28h-512a51.2 51.2 0 0 0 0 102.4h512a51.2 51.2 0 0 0 0-102.4z" fill="#111111" p-id="5228"></path><path d="M204.8 696.32m51.2 0l430.08 0q51.2 0 51.2 51.2l0 0q0 51.2-51.2 51.2l-430.08 0q-51.2 0-51.2-51.2l0 0q0-51.2 51.2-51.2Z" fill="#00C569" p-id="5229"></path></svg>