<?xml version="1.0" standalone="no"?><!DOCTYPE svg PUBLIC "-//W3C//DTD SVG 1.1//EN" "http://www.w3.org/Graphics/SVG/1.1/DTD/svg11.dtd"><svg t="1569483818232" class="icon" viewBox="0 0 1219 1024" version="1.1" xmlns="http://www.w3.org/2000/svg" p-id="4035" xmlns:xlink="http://www.w3.org/1999/xlink" width="238.0859375" height="200"><defs><style type="text/css"></style></defs><path d="M987.428571 292.571429h170.666667a60.952381 60.952381 0 0 0 0-121.904762h-170.666667a60.952381 60.952381 0 0 0 0 121.904762z m-609.523809-121.904762h-316.952381a60.952381 60.952381 0 0 0 0 121.904762h316.952381a60.952381 60.952381 0 0 0 0-121.904762z m-146.285714 560.761904h-170.666667a60.952381 60.952381 0 0 0 0 121.904762h170.666667a60.952381 60.952381 0 0 0 0-121.904762z m926.47619 0h-316.952381a60.952381 60.952381 0 0 0 0 121.904762h316.952381a60.952381 60.952381 0 0 0 0-121.904762z" fill="#111111" p-id="4036"></path><path d="M451.047619 560.761905a231.619048 231.619048 0 1 0 231.619048 231.619047 231.619048 231.619048 0 0 0-231.619048-231.619047z m0 341.333333a109.714286 109.714286 0 1 1 109.714286-109.714286 109.958095 109.958095 0 0 1-109.714286 109.714286z m316.952381-902.095238A231.619048 231.619048 0 1 0 999.619048 231.619048 231.619048 231.619048 0 0 0 768 0z m0 341.333333A109.714286 109.714286 0 1 1 877.714286 231.619048a109.958095 109.958095 0 0 1-109.714286 109.714285z" fill="#00C569" p-id="4037"></path></svg>