<?xml version="1.0" standalone="no"?><!DOCTYPE svg PUBLIC "-//W3C//DTD SVG 1.1//EN" "http://www.w3.org/Graphics/SVG/1.1/DTD/svg11.dtd"><svg t="1569483832936" class="icon" viewBox="0 0 1024 1024" version="1.1" xmlns="http://www.w3.org/2000/svg" p-id="5106" xmlns:xlink="http://www.w3.org/1999/xlink" width="200" height="200"><defs><style type="text/css"></style></defs><path d="M834.35479 512A53.248 53.248 0 0 0 788.47959 566.0672v329.3184A26.2144 26.2144 0 0 1 762.26519 921.6H261.73399A26.2144 26.2144 0 0 1 235.51959 895.3856V128.6144A26.2144 26.2144 0 0 1 261.73399 102.4h319.2832a12.0832 12.0832 0 0 1 10.0352 5.3248L742.39959 327.68H604.15959v-68.8128A53.248 53.248 0 0 0 558.28439 204.8 51.2 51.2 0 0 0 501.75959 256v115.712A58.5728 58.5728 0 0 0 560.12759 430.08h277.7088a52.224 52.224 0 0 0 50.9952-37.0688 49.9712 49.9712 0 0 0-9.8304-46.4896L656.99799 22.7328v-1.2288l-3.4816-2.8672a37.0688 37.0688 0 0 0-3.6864-4.3008A28.4672 28.4672 0 0 0 645.11959 11.264a28.4672 28.4672 0 0 0-3.072-3.072l-4.5056-2.4576-4.3008-2.048-4.9152-1.4336A17.6128 17.6128 0 0 0 624.63959 1.024a26.0096 26.0096 0 0 0-5.7344 0L614.39959 0H242.27799A109.1584 109.1584 0 0 0 133.11959 109.1584v805.6832A109.1584 109.1584 0 0 0 242.27799 1024h539.4432A109.1584 109.1584 0 0 0 890.87959 914.8416V563.2a51.2 51.2 0 0 0-56.5248-51.2z" fill="#111111" p-id="5107"></path><path d="M389.11959 532.48a51.2 51.2 0 0 0 0 102.4h245.76a51.2 51.2 0 0 0 0-102.4z" fill="#111111" p-id="5108"></path><path d="M337.91959 716.8m51.2 0l143.36 0q51.2 0 51.2 51.2l0 0q0 51.2-51.2 51.2l-143.36 0q-51.2 0-51.2-51.2l0 0q0-51.2 51.2-51.2Z" fill="#00C569" p-id="5109"></path></svg>