<?xml version="1.0" standalone="no"?><!DOCTYPE svg PUBLIC "-//W3C//DTD SVG 1.1//EN" "http://www.w3.org/Graphics/SVG/1.1/DTD/svg11.dtd"><svg t="1569483853990" class="icon" viewBox="0 0 1024 1024" version="1.1" xmlns="http://www.w3.org/2000/svg" p-id="6537" xmlns:xlink="http://www.w3.org/1999/xlink" width="200" height="200"><defs><style type="text/css"></style></defs><path d="M691.2 102.4A36.0448 36.0448 0 0 1 727.04 138.24v747.52A36.0448 36.0448 0 0 1 691.2 921.6H332.8A36.0448 36.0448 0 0 1 296.96 885.76V138.24A36.0448 36.0448 0 0 1 332.8 102.4h358.4m0-102.4H332.8A138.24 138.24 0 0 0 194.56 138.24v747.52A138.24 138.24 0 0 0 332.8 1024h358.4A138.24 138.24 0 0 0 829.44 885.76V138.24A138.24 138.24 0 0 0 691.2 0z" fill="#111111" p-id="6538"></path><path d="M512 788.48m-71.68 0a71.68 71.68 0 1 0 143.36 0 71.68 71.68 0 1 0-143.36 0Z" fill="#00C569" p-id="6539"></path></svg>