<?xml version="1.0" standalone="no"?><!DOCTYPE svg PUBLIC "-//W3C//DTD SVG 1.1//EN" "http://www.w3.org/Graphics/SVG/1.1/DTD/svg11.dtd"><svg t="1569483814792" class="icon" viewBox="0 0 1024 1024" version="1.1" xmlns="http://www.w3.org/2000/svg" p-id="3796" xmlns:xlink="http://www.w3.org/1999/xlink" width="200" height="200"><defs><style type="text/css"></style></defs><path d="M460.8 51.2v409.6h-409.6A51.2 51.2 0 0 0 0 512a51.2 51.2 0 0 0 51.2 51.2h409.6v409.6A51.2 51.2 0 0 0 512 1024a51.2 51.2 0 0 0 51.2-51.2v-921.6A51.2 51.2 0 0 0 512 0a51.2 51.2 0 0 0-51.2 51.2z" fill="#111111" p-id="3797"></path><path d="M634.88 460.8m51.2 0l286.72 0q51.2 0 51.2 51.2l0 0q0 51.2-51.2 51.2l-286.72 0q-51.2 0-51.2-51.2l0 0q0-51.2 51.2-51.2Z" fill="#00C569" p-id="3798"></path></svg>