<?xml version="1.0" standalone="no"?><!DOCTYPE svg PUBLIC "-//W3C//DTD SVG 1.1//EN" "http://www.w3.org/Graphics/SVG/1.1/DTD/svg11.dtd"><svg t="1569483855484" class="icon" viewBox="0 0 1024 1024" version="1.1" xmlns="http://www.w3.org/2000/svg" p-id="6656" xmlns:xlink="http://www.w3.org/1999/xlink" width="200" height="200"><defs><style type="text/css"></style></defs><path d="M855.6544 204.8H819.2V122.88a122.88 122.88 0 0 0-122.88-122.88H327.68a122.88 122.88 0 0 0-122.88 122.88v81.92H168.3456A168.3456 168.3456 0 0 0 0 373.1456v318.6688A168.3456 168.3456 0 0 0 168.3456 860.16H204.8v40.96a122.88 122.88 0 0 0 122.88 122.88h368.64a122.88 122.88 0 0 0 122.88-122.88v-40.96h36.4544A168.3456 168.3456 0 0 0 1024 691.8144V373.1456A168.3456 168.3456 0 0 0 855.6544 204.8zM307.2 122.88a20.48 20.48 0 0 1 20.48-20.48h368.64a20.48 20.48 0 0 1 20.48 20.48v81.92H307.2z m409.6 778.24a20.48 20.48 0 0 1-20.48 20.48H327.68a20.48 20.48 0 0 1-20.48-20.48V696.32a20.48 20.48 0 0 1 20.48-20.48h368.64a20.48 20.48 0 0 1 20.48 20.48z m204.8-209.3056A65.9456 65.9456 0 0 1 855.6544 757.76H819.2v-61.44a122.88 122.88 0 0 0-122.88-122.88H327.68a122.88 122.88 0 0 0-122.88 122.88v61.44H168.3456A65.9456 65.9456 0 0 1 102.4 691.8144V373.1456A65.9456 65.9456 0 0 1 168.3456 307.2h687.3088A65.9456 65.9456 0 0 1 921.6 373.1456z" fill="#111111" p-id="6657"></path><path d="M225.28 389.12m51.2 0l225.28 0q51.2 0 51.2 51.2l0 0q0 51.2-51.2 51.2l-225.28 0q-51.2 0-51.2-51.2l0 0q0-51.2 51.2-51.2Z" fill="#00C569" p-id="6658"></path></svg>