<?xml version="1.0" standalone="no"?><!DOCTYPE svg PUBLIC "-//W3C//DTD SVG 1.1//EN" "http://www.w3.org/Graphics/SVG/1.1/DTD/svg11.dtd"><svg t="1569483839786" class="icon" viewBox="0 0 1113 1024" version="1.1" xmlns="http://www.w3.org/2000/svg" p-id="5585" xmlns:xlink="http://www.w3.org/1999/xlink" width="217.3828125" height="200"><defs><style type="text/css"></style></defs><path d="M1046.26087 534.26087v-111.304348a178.086957 178.086957 0 0 0-178.086957-178.086957H178.086957a66.782609 66.782609 0 0 1-66.782609-69.89913A68.563478 68.563478 0 0 1 180.98087 111.304348H868.173913a66.782609 66.782609 0 0 1 58.768696 35.84 55.652174 55.652174 0 1 0 99.060869-51.2A178.086957 178.086957 0 0 0 868.173913 0H178.086957a178.086957 178.086957 0 0 0-178.086957 178.086957v667.826086a178.086957 178.086957 0 0 0 178.086957 178.086957h690.086956a178.086957 178.086957 0 0 0 178.086957-178.086957v-111.304347h-111.304348v111.304347a66.782609 66.782609 0 0 1-66.782609 66.782609H178.086957a66.782609 66.782609 0 0 1-66.782609-66.782609V343.262609A178.086957 178.086957 0 0 0 178.086957 356.173913h690.086956a66.782609 66.782609 0 0 1 66.782609 66.782609v111.304348z" fill="#111111" p-id="5586"></path><path d="M1001.73913 578.782609v111.304348H712.347826v-111.304348h289.391304m15.805218-111.304348H696.542609A95.49913 95.49913 0 0 0 601.043478 562.977391v142.914783A95.49913 95.49913 0 0 0 696.542609 801.391304h321.001739A95.49913 95.49913 0 0 0 1113.043478 705.892174v-142.914783A95.49913 95.49913 0 0 0 1017.544348 467.478261z" fill="#00C569" p-id="5587"></path></svg>