<?xml version="1.0" standalone="no"?><!DOCTYPE svg PUBLIC "-//W3C//DTD SVG 1.1//EN" "http://www.w3.org/Graphics/SVG/1.1/DTD/svg11.dtd"><svg t="1569483829719" class="icon" viewBox="0 0 1024 1024" version="1.1" xmlns="http://www.w3.org/2000/svg" p-id="4868" xmlns:xlink="http://www.w3.org/1999/xlink" width="200" height="200"><defs><style type="text/css"></style></defs><path d="M643.2768 263.7824l-61.44-81.92-260.5056 191.8976 61.44 81.92 260.5056-191.8976zM400.9984 545.3824l-56.7296 85.1968 249.856 152.576 50.7904-88.8832-243.9168-148.8896z" fill="#111111" p-id="4869"></path><path d="M706.56 307.2A153.6 153.6 0 1 0 552.96 153.6a153.6 153.6 0 0 0 153.6 153.6z m0-204.8A51.2 51.2 0 1 1 655.36 153.6 51.2 51.2 0 0 1 706.56 102.4z m-471.04 225.28a174.08 174.08 0 1 0 174.08 174.08A174.2848 174.2848 0 0 0 235.52 327.68z m0 245.76a71.68 71.68 0 1 1 71.68-71.68A71.68 71.68 0 0 1 235.52 573.44z m532.48 61.44a194.56 194.56 0 1 0 194.56 194.56 194.56 194.56 0 0 0-194.56-194.56z m0 286.72a92.16 92.16 0 1 1 92.16-92.16 92.3648 92.3648 0 0 1-92.16 92.16z" fill="#00C569" p-id="4870"></path></svg>