<?xml version="1.0" standalone="no"?><!DOCTYPE svg PUBLIC "-//W3C//DTD SVG 1.1//EN" "http://www.w3.org/Graphics/SVG/1.1/DTD/svg11.dtd"><svg t="1569483838236" class="icon" viewBox="0 0 1422 1024" version="1.1" xmlns="http://www.w3.org/2000/svg" p-id="5465" xmlns:xlink="http://www.w3.org/1999/xlink" width="277.734375" height="200"><defs><style type="text/css"></style></defs><path d="M734.435556 671.857778l312.888888-252.871111a70.826667 70.826667 0 0 0 22.471112-97.848889 71.111111 71.111111 0 0 0-97.848889-22.755556l-312.888889 252.871111a70.826667 70.826667 0 0 0-22.755556 97.848889 70.826667 70.826667 0 0 0 98.133334 22.755556z" fill="#00C569" p-id="5466"></path><path d="M734.435556 551.253333l-312.888889-252.871111a71.111111 71.111111 0 0 0-97.848889 22.755556 70.826667 70.826667 0 0 0 22.471111 97.848889l312.888889 252.871111a71.111111 71.111111 0 0 0 75.093333-120.604445z" fill="#111111" p-id="5467"></path><path d="M1188.408889 0H233.813333A233.813333 233.813333 0 0 0 0 233.813333v556.373334A233.813333 233.813333 0 0 0 233.813333 1024h954.595556A233.813333 233.813333 0 0 0 1422.222222 790.186667V233.813333A233.813333 233.813333 0 0 0 1188.408889 0zM1280 790.186667A91.591111 91.591111 0 0 1 1188.408889 881.777778H233.813333A91.591111 91.591111 0 0 1 142.222222 790.186667V233.813333A91.591111 91.591111 0 0 1 233.813333 142.222222h954.595556A91.591111 91.591111 0 0 1 1280 233.813333z" fill="#111111" p-id="5468"></path></svg>