<?xml version="1.0" standalone="no"?><!DOCTYPE svg PUBLIC "-//W3C//DTD SVG 1.1//EN" "http://www.w3.org/Graphics/SVG/1.1/DTD/svg11.dtd"><svg t="1569483848418" class="icon" viewBox="0 0 1024 1024" version="1.1" xmlns="http://www.w3.org/2000/svg" p-id="6180" xmlns:xlink="http://www.w3.org/1999/xlink" width="200" height="200"><defs><style type="text/css"></style></defs><path d="M993.85823 51.261514a51.261514 51.261514 0 0 0-102.523028 0v85.709251A512.615138 512.615138 0 0 0 141.686824 831.871846a51.261514 51.261514 0 1 0 79.967962-64.384461 410.092111 410.092111 0 0 1 602.220264-553.624349L722.582299 205.046055a51.261514 51.261514 0 0 0-9.227073 102.523028l225.550661 20.504605h12.712855l4.921106-1.02523 4.716059-1.435322 4.716059-2.050461 4.305968-2.255506 4.100921-2.870645 3.690829-3.075691c1.230276-1.02523 2.255507-2.255507 3.485783-3.485783l2.05046-4.305967 2.665599-4.100921 2.460552-4.511013 1.845415-4.511014a41.009211 41.009211 0 0 0 1.435322-4.716059 24.400481 24.400481 0 0 0 1.025231-5.331197 12.507809 12.507809 0 0 0 0-2.665599V277.017221zM453.76692 914.505406a45.72527 45.72527 0 0 0-10.457349-3.895875 399.429716 399.429716 0 0 1-83.65879-31.167c-12.507809-6.151382-24.810573-13.122948-36.703244-20.504605l-4.511013-2.665599a51.261514 51.261514 0 0 0-50.236284 89.195034c11.892671 7.586704 23.990388 14.55827 36.703244 20.504605h26.861033l2.255507 1.025231a515.485783 515.485783 0 0 0 82.018422 28.296355 51.261514 51.261514 0 0 0 35.267922-95.551461z" fill="#111111" p-id="6181"></path><path d="M672.961153 915.530637a50.646376 50.646376 0 0 0-34.857829-4.100921 405.991189 405.991189 0 0 1-64.794553 10.252302 51.261514 51.261514 0 0 0-18.864238 96.986785 50.236284 50.236284 0 0 0 26.450942 5.126151 517.331197 517.331197 0 0 0 82.018422-12.712855 51.261514 51.261514 0 0 0 37.728474-61.513817 50.646376 50.646376 0 0 0-27.681218-34.037645z m166.497397-77.302363a51.261514 51.261514 0 0 0-53.311974 4.716059c-8.81698 6.356428-18.044053 12.507809-27.271125 18.249099a51.46656 51.46656 0 0 0-16.608731 70.535843 51.261514 51.261514 0 0 0 70.535843 16.608731c11.687625-7.176612 22.965158-14.763316 34.037645-22.965159a51.46656 51.46656 0 0 0-7.381658-87.144573z m109.289548-102.728074a51.261514 51.261514 0 1 0 13.943131 71.150981 51.46656 51.46656 0 0 0-13.943131-71.150981z" fill="#00C569" p-id="6182"></path></svg>