<?xml version="1.0" standalone="no"?><!DOCTYPE svg PUBLIC "-//W3C//DTD SVG 1.1//EN" "http://www.w3.org/Graphics/SVG/1.1/DTD/svg11.dtd"><svg t="1569483850232" class="icon" viewBox="0 0 1138 1024" version="1.1" xmlns="http://www.w3.org/2000/svg" p-id="6299" xmlns:xlink="http://www.w3.org/1999/xlink" width="222.265625" height="200"><defs><style type="text/css"></style></defs><path d="M993.735111 230.513778l-73.500444-136.533334A182.044444 182.044444 0 0 0 674.247111 22.755556L295.822222 227.555556H182.044444a182.044444 182.044444 0 0 0-182.044444 182.044444v432.355556a182.044444 182.044444 0 0 0 182.044444 182.044444h773.688889a182.044444 182.044444 0 0 0 182.044445-182.044444V409.6a182.044444 182.044444 0 0 0-144.042667-179.086222zM728.177778 121.969778A66.673778 66.673778 0 0 1 760.490667 113.777778a68.266667 68.266667 0 0 1 59.847111 35.498666L862.208 227.555556H535.210667zM1024 841.955556a68.266667 68.266667 0 0 1-68.266667 68.266666H182.044444a68.266667 68.266667 0 0 1-68.266666-68.266666V409.6a68.266667 68.266667 0 0 1 68.266666-68.266667h773.688889a68.266667 68.266667 0 0 1 68.266667 68.266667z" fill="#111111" p-id="6300"></path><path d="M227.555556 454.200889m56.888888 0l568.888889 0q56.888889 0 56.888889 56.888889l0 0q0 56.888889-56.888889 56.888889l-568.888889 0q-56.888889 0-56.888888-56.888889l0 0q0-56.888889 56.888888-56.888889Z" fill="#00C569" p-id="6301"></path></svg>