<?xml version="1.0" standalone="no"?><!DOCTYPE svg PUBLIC "-//W3C//DTD SVG 1.1//EN" "http://www.w3.org/Graphics/SVG/1.1/DTD/svg11.dtd"><svg t="1569483345392" class="icon" viewBox="0 0 1024 1024" version="1.1" xmlns="http://www.w3.org/2000/svg" p-id="2272" xmlns:xlink="http://www.w3.org/1999/xlink" width="200" height="200"><defs><style type="text/css"></style></defs><path d="M860.868362 548.77233v18.334079l-180.215666-311.887691h-63.127569V200.008138h83.545066l5.416887 8.750356L894.619736 512.520855l2.708443 9.583723v26.667752zM163.131638 548.77233v18.334079l180.215666-311.887691h63.335911V200.008138H323.138149l-5.416888 8.750356L129.380264 512.520855l-2.708443 9.583723v26.667752z" fill="#C9C9C9" p-id="2273"></path><path d="M145.0059 530.43825h752.530621v293.553612H557.731027l-5.208545-8.750356-40.418311-66.044354-39.376602 65.836012-5.416887 8.958698H126.671821V530.43825z" fill="#E2E2E2" p-id="2274"></path><path d="M512.104171 580.231943h348.764191v193.966226H598.357681l-5.833571-9.16704-80.419939-128.963581-80.628281 128.963581-5.625229 9.16704H163.131638v-193.966226H477.102747z" fill="#CBCBCB" p-id="2275"></path><path d="M823.991862 614.191658H526.479756l78.753204 125.838454h218.758902z" fill="#CE504D" p-id="2276"></path><path d="M644.192879 614.191658h-59.377416l125.838454 125.838454h59.377416z" fill="#E56161" p-id="2277"></path><path d="M497.520244 614.191658H200.008138v125.838454h218.967243z" fill="#4E96CC" p-id="2278"></path><path d="M334.80529 614.191658h59.169074l-125.838454 125.838454h-59.169074z" fill="#5AB0E5" p-id="2279"></path></svg>