<?xml version="1.0" standalone="no"?><!DOCTYPE svg PUBLIC "-//W3C//DTD SVG 1.1//EN" "http://www.w3.org/Graphics/SVG/1.1/DTD/svg11.dtd"><svg t="1569483353113" class="icon" viewBox="0 0 1024 1024" version="1.1" xmlns="http://www.w3.org/2000/svg" p-id="2645" xmlns:xlink="http://www.w3.org/1999/xlink" width="200" height="200"><defs><style type="text/css"></style></defs><path d="M403.766429 276.886267m-148.756053 0a148.756053 148.756053 0 1 0 297.512106 0 148.756053 148.756053 0 1 0-297.512106 0Z" fill="#CCCCCC" p-id="2646"></path><path d="M473.144252 389.390844l0.625026-0.416683 99.795727-64.37762 245.00997 425.64232c28.126144 48.751984 25.834385 93.128789-29.376196 128.755239l-316.054527-489.603256z" fill="#2E374A" p-id="2647"></path><path d="M377.515361 451.06002l98.128993-63.33591L791.698881 877.119023c-53.960529 34.793082-94.587182 18.334079-127.505188-27.501119L377.515361 451.06002z" fill="#242C3C" p-id="2648"></path><path d="M328.555036 430.642523c-11.250458 7.291963-14.583927 22.500916-7.291964 33.751373 7.291963 11.250458 22.500916 14.583927 33.751374 7.291964l246.468362-158.964802c11.250458-7.291963 14.583927-22.500916 7.291963-33.751373-7.291963-11.250458-22.500916-14.583927-33.751373-7.291964l-246.468362 158.964802z" fill="#2D3B48" p-id="2649"></path><path d="M423.975585 333.763581m-9.792065 0a9.792065 9.792065 0 1 0 19.58413 0 9.792065 9.792065 0 1 0-19.58413 0Z" fill="#808080" p-id="2650"></path><path d="M400.849644 348.764191m-9.792065 0a9.792065 9.792065 0 1 0 19.58413 0 9.792065 9.792065 0 1 0-19.58413 0Z" fill="#808080" p-id="2651"></path><path d="M377.515361 363.764802m-9.792065 0a9.792065 9.792065 0 1 0 19.58413 0 9.792065 9.792065 0 1 0-19.58413 0Z" fill="#808080" p-id="2652"></path><path d="M493.770092 288.76175m-9.792066 0a9.792065 9.792065 0 1 0 19.584131 0 9.792065 9.792065 0 1 0-19.584131 0Z" fill="#808080" p-id="2653"></path><path d="M470.644151 303.76236m-9.792066 0a9.792065 9.792065 0 1 0 19.584131 0 9.792065 9.792065 0 1 0-19.584131 0Z" fill="#808080" p-id="2654"></path><path d="M447.309868 318.76297m-9.792065 0a9.792065 9.792065 0 1 0 19.58413 0 9.792065 9.792065 0 1 0-19.58413 0Z" fill="#808080" p-id="2655"></path><path d="M372.931841 331.055137m-9.792065 0a9.792065 9.792065 0 1 0 19.58413 0 9.792065 9.792065 0 1 0-19.58413 0Z" fill="#808080" p-id="2656"></path><path d="M349.8059 345.847406m-9.792065 0a9.792065 9.792065 0 1 0 19.58413 0 9.792065 9.792065 0 1 0-19.58413 0Z" fill="#808080" p-id="2657"></path><path d="M326.679959 360.848016m-9.792065 0a9.792065 9.792065 0 1 0 19.58413 0 9.792065 9.792065 0 1 0-19.58413 0Z" fill="#808080" p-id="2658"></path><path d="M442.518006 286.053306m-9.792065 0a9.792065 9.792065 0 1 0 19.58413 0 9.792065 9.792065 0 1 0-19.58413 0Z" fill="#808080" p-id="2659"></path><path d="M419.392065 301.053917m-9.792065 0a9.792065 9.792065 0 1 0 19.58413 0 9.792065 9.792065 0 1 0-19.58413 0Z" fill="#808080" p-id="2660"></path><path d="M396.266124 316.054527m-9.792065 0a9.792065 9.792065 0 1 0 19.58413 0 9.792065 9.792065 0 1 0-19.58413 0Z" fill="#808080" p-id="2661"></path><path d="M488.97823 256.052085m-9.792065 0a9.792065 9.792065 0 1 0 19.58413 0 9.792065 9.792065 0 1 0-19.58413 0Z" fill="#808080" p-id="2662"></path><path d="M465.643947 271.052696m-9.792065 0a9.792065 9.792065 0 1 0 19.58413 0 9.792065 9.792065 0 1 0-19.58413 0Z" fill="#808080" p-id="2663"></path><path d="M512.104171 241.259817m-9.792065 0a9.792065 9.792065 0 1 0 19.58413 0 9.792065 9.792065 0 1 0-19.58413 0Z" fill="#808080" p-id="2664"></path><path d="M355.431129 303.76236m-9.792065 0a9.792065 9.792065 0 1 0 19.58413 0 9.792065 9.792065 0 1 0-19.58413 0Z" fill="#808080" p-id="2665"></path><path d="M332.305188 318.554629m-9.792065 0a9.792065 9.792065 0 1 0 19.58413 0 9.792065 9.792065 0 1 0-19.58413 0Z" fill="#808080" p-id="2666"></path><path d="M308.970905 333.555239m-9.792065 0a9.792065 9.792065 0 1 0 19.58413 0 9.792065 9.792065 0 1 0-19.58413 0Z" fill="#808080" p-id="2667"></path><path d="M425.017294 258.760529m-9.792065 0a9.792065 9.792065 0 1 0 19.58413 0 9.792065 9.792065 0 1 0-19.58413 0Z" fill="#808080" p-id="2668"></path><path d="M401.683011 273.761139m-9.792065 0a9.792065 9.792065 0 1 0 19.58413 0 9.792065 9.792065 0 1 0-19.58413 0Z" fill="#808080" p-id="2669"></path><path d="M378.55707 288.76175m-9.792065 0a9.792065 9.792065 0 1 0 19.58413 0 9.792065 9.792065 0 1 0-19.58413 0Z" fill="#808080" p-id="2670"></path><path d="M471.269176 228.96765m-9.792065 0a9.792065 9.792065 0 1 0 19.58413 0 9.792065 9.792065 0 1 0-19.58413 0Z" fill="#808080" p-id="2671"></path><path d="M448.143235 243.759919m-9.792065 0a9.792065 9.792065 0 1 0 19.58413 0 9.792065 9.792065 0 1 0-19.58413 0Z" fill="#808080" p-id="2672"></path><path d="M494.603459 213.96704m-9.792065 0a9.792065 9.792065 0 1 0 19.58413 0 9.792065 9.792065 0 1 0-19.58413 0Z" fill="#808080" p-id="2673"></path><path d="M337.722075 276.469583m-9.792065 0a9.792065 9.792065 0 1 0 19.58413 0 9.792065 9.792065 0 1 0-19.58413 0Z" fill="#808080" p-id="2674"></path><path d="M314.596134 291.470193m-9.792065 0a9.792065 9.792065 0 1 0 19.58413 0 9.792065 9.792065 0 1 0-19.58413 0Z" fill="#808080" p-id="2675"></path><path d="M291.470193 306.262462m-9.792065 0a9.792065 9.792065 0 1 0 19.58413 0 9.792065 9.792065 0 1 0-19.58413 0Z" fill="#808080" p-id="2676"></path><path d="M407.30824 231.467752m-9.792065 0a9.792065 9.792065 0 1 0 19.58413 0 9.792065 9.792065 0 1 0-19.58413 0Z" fill="#808080" p-id="2677"></path><path d="M384.182299 246.468362m-9.792065 0a9.792065 9.792065 0 1 0 19.58413 0 9.792065 9.792065 0 1 0-19.58413 0Z" fill="#808080" p-id="2678"></path><path d="M361.056358 261.468973m-9.792065 0a9.792065 9.792065 0 1 0 19.58413 0 9.792065 9.792065 0 1 0-19.58413 0Z" fill="#808080" p-id="2679"></path><path d="M453.768464 201.674873m-9.792065 0a9.792065 9.792065 0 1 0 19.58413 0 9.792065 9.792065 0 1 0-19.58413 0Z" fill="#808080" p-id="2680"></path><path d="M430.642523 216.467141m-9.792065 0a9.792065 9.792065 0 1 0 19.58413 0 9.792065 9.792065 0 1 0-19.58413 0Z" fill="#808080" p-id="2681"></path><path d="M476.894405 186.674262m-9.792065 0a9.792065 9.792065 0 1 0 19.58413 0 9.792065 9.792065 0 1 0-19.58413 0Z" fill="#808080" p-id="2682"></path><path d="M354.181078 225.634181m-9.792065 0a9.792065 9.792065 0 1 0 19.58413 0 9.792065 9.792065 0 1 0-19.58413 0Z" fill="#808080" p-id="2683"></path><path d="M331.055137 240.634791m-9.792065 0a9.792065 9.792065 0 1 0 19.58413 0 9.792065 9.792065 0 1 0-19.58413 0Z" fill="#808080" p-id="2684"></path><path d="M307.720855 255.635402m-9.792066 0a9.792065 9.792065 0 1 0 19.584131 0 9.792065 9.792065 0 1 0-19.584131 0Z" fill="#808080" p-id="2685"></path><path d="M423.975585 180.63235m-9.792065 0a9.792065 9.792065 0 1 0 19.58413 0 9.792065 9.792065 0 1 0-19.58413 0Z" fill="#808080" p-id="2686"></path><path d="M400.849644 195.63296m-9.792065 0a9.792065 9.792065 0 1 0 19.58413 0 9.792065 9.792065 0 1 0-19.58413 0Z" fill="#808080" p-id="2687"></path><path d="M377.515361 210.633571m-9.792065 0a9.792065 9.792065 0 1 0 19.58413 0 9.792065 9.792065 0 1 0-19.58413 0Z" fill="#808080" p-id="2688"></path><path d="M335.638657 196.674669m-9.792065 0a9.792065 9.792065 0 1 0 19.58413 0 9.792065 9.792065 0 1 0-19.58413 0Z" fill="#808080" p-id="2689"></path><path d="M312.304374 211.67528m-9.792065 0a9.792065 9.792065 0 1 0 19.58413 0 9.792065 9.792065 0 1 0-19.58413 0Z" fill="#808080" p-id="2690"></path><path d="M382.098881 166.673449m-9.792065 0a9.792065 9.792065 0 1 0 19.58413 0 9.792065 9.792065 0 1 0-19.58413 0Z" fill="#808080" p-id="2691"></path><path d="M358.764598 181.674059m-9.792065 0a9.792065 9.792065 0 1 0 19.58413 0 9.792065 9.792065 0 1 0-19.58413 0Z" fill="#808080" p-id="2692"></path><path d="M537.31353 455.226857c-7.291963-11.250458-19.792472-16.250661-28.126144-11.042116-8.125331 5.208545-8.958698 18.750763-1.666735 30.209562l34.584741 53.543846c7.291963 11.250458 20.000814 16.250661 28.126144 11.042115 8.125331-5.208545 8.958698-18.750763 1.666735-30.209562l-34.584741-53.543845z" fill="#BDBDBD" p-id="2693"></path><path d="M547.522279 485.228077c-3.958494-6.041913-10.833774-8.542014-15.625636-5.625229-4.58352 2.916785-5.208545 10.417091-1.250051 16.459003l18.542421 28.75117c3.958494 6.041913 10.833774 8.542014 15.625636 5.625229 4.58352-2.916785 5.208545-10.417091 1.250051-16.459003l-18.542421-28.75117z" fill="#424242" p-id="2694"></path></svg>