<?xml version="1.0" standalone="no"?><!DOCTYPE svg PUBLIC "-//W3C//DTD SVG 1.1//EN" "http://www.w3.org/Graphics/SVG/1.1/DTD/svg11.dtd"><svg t="1569483338791" class="icon" viewBox="0 0 1024 1024" version="1.1" xmlns="http://www.w3.org/2000/svg" p-id="1761" xmlns:xlink="http://www.w3.org/1999/xlink" width="200" height="200"><defs><style type="text/css"></style></defs><path d="M427.725738 695.653306L540.438657 193.757884l7.083622-31.251272 22.500915 22.9176c30.417904 30.626246 50.418718 75.211394 71.044558 121.046592 42.710071 95.212208 87.711902 195.216277 236.259613 140.839064l12.083825 33.126348c-179.173957 65.836012-231.051068-49.793693-280.428077-159.589827-13.333876-30.001221-26.667752-59.377416-42.293388-83.128383l-113.754628 506.478942-1.041709-0.208342c7.708647 40.209969-13.75056 80.211597-61.460835 101.879146-67.502747 30.834588-164.173347 15.208952-218.550559-35.209766-27.084435-25.001017-41.043337-56.668973-36.043133-88.753612 5.208545-32.084639 28.542828-57.710682 62.085859-72.919633 31.251272-14.167243 71.669583-19.58413 114.171313-12.917193 42.501729 6.87528 79.37823 24.792675 104.379247 48.126959 3.958494 3.541811 7.708647 7.500305 11.250458 11.458799z" fill="#FA655A" p-id="1762"></path><path d="M427.725738 695.653306l25.209359 48.3353-1.041709-0.208342c7.708647 40.209969-13.75056 80.211597-61.460835 101.879146-67.502747 30.834588-164.173347 15.208952-218.550559-35.209766-27.084435-25.001017-41.043337-56.668973-36.043133-88.753611 5.208545-32.084639 28.542828-57.710682 62.085859-72.919634 31.251272-14.167243 71.669583-19.58413 114.171313-12.917192 42.501729 6.87528 79.37823 24.792675 104.379247 48.126958 3.958494 3.750153 7.708647 7.708647 11.250458 11.667141z" fill="#F44336" p-id="1763"></path></svg>