<?xml version="1.0" standalone="no"?><!DOCTYPE svg PUBLIC "-//W3C//DTD SVG 1.1//EN" "http://www.w3.org/Graphics/SVG/1.1/DTD/svg11.dtd"><svg t="1569483343775" class="icon" viewBox="0 0 1024 1024" version="1.1" xmlns="http://www.w3.org/2000/svg" p-id="2125" xmlns:xlink="http://www.w3.org/1999/xlink" width="200" height="200"><defs><style type="text/css"></style></defs><path d="M129.588606 736.904985h765.03113v39.16826H129.588606z" fill="#E46315" p-id="2126"></path><path d="M597.524313 383.973957h137.297254v39.376603h-137.297254z" fill="#FFA726" p-id="2127"></path><path d="M597.524313 423.767243h137.297254v39.168261h-137.297254z" fill="#ED6513" p-id="2128"></path><path d="M597.524313 462.935504h137.297254V737.53001h-137.297254z" fill="#FB8C00" p-id="2129"></path><path d="M437.934486 614.191658h137.297254v39.168261h-137.297254z" fill="#ED6513" p-id="2130"></path><path d="M437.934486 653.359919h137.297254V737.53001h-137.297254z" fill="#FFA726" p-id="2131"></path><path d="M278.344659 301.678942h137.297254v39.376602h-137.297254z" fill="#ED6513" p-id="2132"></path><path d="M278.344659 687.944659h137.297254V737.53001h-137.297254z" fill="#FF9A28" p-id="2133"></path><path d="M278.344659 687.944659h137.297254v-49.585351h-137.297254z" fill="#FFA726" p-id="2134"></path><path d="M278.344659 588.773957h137.297254v49.585351h-137.297254z" fill="#FB8C00" p-id="2135"></path><path d="M278.344659 588.773957h137.297254v-49.377009h-137.297254z" fill="#FFA726" p-id="2136"></path><path d="M278.344659 489.811597h137.297254v49.585351h-137.297254z" fill="#FB8C00" p-id="2137"></path><path d="M278.344659 489.811597h137.297254v-49.585351h-137.297254z" fill="#FF9A28" p-id="2138"></path><path d="M278.344659 390.640895h137.297254v49.585351h-137.297254z" fill="#FB8C00" p-id="2139"></path><path d="M278.344659 390.640895h137.297254v-49.585351h-137.297254z" fill="#FF9A28" p-id="2140"></path><path d="M127.921872 704.820346h128.130213V737.53001H127.921872z" fill="#FF9A28" p-id="2141"></path><path d="M127.921872 704.820346h128.130213v-32.709664H127.921872z" fill="#FB8C00" p-id="2142"></path><path d="M127.921872 639.192675h128.130213v32.918007H127.921872z" fill="#FF9A28" p-id="2143"></path><path d="M127.921872 639.192675h128.130213v-32.709664H127.921872z" fill="#FB8C00" p-id="2144"></path><path d="M127.921872 573.565005h128.130213v32.918006H127.921872z" fill="#FF9A28" p-id="2145"></path><path d="M127.921872 573.565005h128.130213v-32.709664H127.921872z" fill="#ED6513" p-id="2146"></path><path d="M757.322482 301.678942h137.297254v39.376602h-137.297254z" fill="#ED6513" p-id="2147"></path><path d="M757.322482 687.944659h137.297254V737.53001h-137.297254z" fill="#FF9A28" p-id="2148"></path><path d="M757.322482 687.944659h137.297254v-49.585351h-137.297254z" fill="#FFA726" p-id="2149"></path><path d="M757.322482 588.773957h137.297254v49.585351h-137.297254z" fill="#FB8C00" p-id="2150"></path><path d="M757.322482 588.773957h137.297254v-49.377009h-137.297254z" fill="#FFA726" p-id="2151"></path><path d="M757.322482 489.811597h137.297254v49.585351h-137.297254z" fill="#FB8C00" p-id="2152"></path><path d="M757.322482 489.811597h137.297254v-49.585351h-137.297254z" fill="#FF9A28" p-id="2153"></path><path d="M757.322482 390.640895h137.297254v49.585351h-137.297254z" fill="#FB8C00" p-id="2154"></path><path d="M757.322482 390.640895h137.297254v-49.585351h-137.297254z" fill="#FF9A28" p-id="2155"></path></svg>