<?xml version="1.0" standalone="no"?><!DOCTYPE svg PUBLIC "-//W3C//DTD SVG 1.1//EN" "http://www.w3.org/Graphics/SVG/1.1/DTD/svg11.dtd"><svg t="1569483340421" class="icon" viewBox="0 0 1024 1024" version="1.1" xmlns="http://www.w3.org/2000/svg" p-id="1880" xmlns:xlink="http://www.w3.org/1999/xlink" width="200" height="200"><defs><style type="text/css"></style></defs><path d="M190.216073 127.921872h643.567854c17.084028 0 32.709664 7.083622 43.960122 18.334079 11.250458 11.250458 18.334079 26.876094 18.334079 43.960122v643.567854c0 17.084028-7.083622 32.709664-18.334079 43.960122-11.250458 11.250458-26.876094 18.334079-43.960122 18.334079H190.216073c-17.084028 0-32.709664-7.083622-43.960122-18.334079-11.250458-11.250458-18.334079-26.876094-18.334079-43.960122V190.216073c0-17.084028 7.083622-32.709664 18.334079-43.960122 11.250458-11.250458 26.876094-18.334079 43.960122-18.334079z" fill="#00A1A2" p-id="1881"></path><path d="M236.259613 182.92411h551.480774c14.792269 0 28.126144 6.041913 37.709867 15.625636 9.583723 9.583723 15.625636 22.917599 15.625636 37.709867v551.480774c0 14.792269-6.041913 28.126144-15.625636 37.709867-9.583723 9.583723-22.917599 15.625636-37.709867 15.625636H236.259613c-14.792269 0-28.126144-6.041913-37.709867-15.625636-9.583723-9.583723-15.625636-22.917599-15.625636-37.709867V236.259613c0-14.792269 6.041913-28.126144 15.625636-37.709867 9.583723-9.583723 23.125941-15.625636 37.709867-15.625636z" fill="#00C9CA" p-id="1882"></path></svg>