<?xml version="1.0" standalone="no"?><!DOCTYPE svg PUBLIC "-//W3C//DTD SVG 1.1//EN" "http://www.w3.org/Graphics/SVG/1.1/DTD/svg11.dtd"><svg t="1569483349621" class="icon" viewBox="0 0 1024 1024" version="1.1" xmlns="http://www.w3.org/2000/svg" p-id="2396" xmlns:xlink="http://www.w3.org/1999/xlink" width="200" height="200"><defs><style type="text/css"></style></defs><path d="M783.365209 575.023398l87.295218-44.585148 25.417701-12.917192v250.84354l-25.417701-12.917192-87.295218-44.585148-9.583724-4.791861V579.815259z" fill="#41576E" p-id="2397"></path><path d="M571.689929 232.092777c27.709461 0 52.91882 11.250458 71.252899 29.584537 18.125738 18.125738 29.584537 43.335097 29.584537 71.2529 0 27.709461-11.250458 52.91882-29.584537 71.252899-18.125738 18.125738-43.335097 29.584537-71.252899 29.584537-27.709461 0-52.91882-11.250458-71.252899-29.584537-18.125738-18.125738-29.584537-43.335097-29.584538-71.252899 0-27.709461 11.250458-52.91882 29.584538-71.2529 18.334079-18.334079 43.335097-29.584537 71.252899-29.584537z" fill="#C1C1CB" p-id="2398"></path><path d="M346.26409 171.673652c36.251475 0 68.961139 14.583927 92.503764 38.334893s38.334893 56.460631 38.334893 92.503764-14.583927 68.961139-38.334893 92.503764C415.016887 418.76704 382.307223 433.350966 346.26409 433.350966s-68.961139-14.583927-92.503764-38.334893c-23.750966-23.750966-38.334893-56.460631-38.334894-92.503764s14.583927-68.961139 38.334894-92.503764c23.542625-23.750966 56.252289-38.334893 92.503764-38.334893z" fill="#C1C1CB" p-id="2399"></path><path d="M232.717803 712.737335zM232.717803 555.647609z" fill="#424242" p-id="2400"></path><path d="M773.781485 642.942828v161.04822c0 13.333876-5.833571 25.417701-15.417294 34.168057-9.583723 8.750356-22.500916 14.167243-37.084842 14.167243H180.424008c-14.375585 0-27.501119-5.416887-37.084842-14.167243-9.583723-8.750356-15.417294-20.834181-15.417294-34.168057v-161.04822h645.859613z" fill="#A2A2AB" p-id="2401"></path><path d="M180.424008 433.559308h541.063683c14.375585 0 27.501119 5.416887 37.084842 14.167243 9.583723 8.750356 15.417294 20.834181 15.417294 34.168057v161.04822h-645.859613V481.686267c0-13.333876 5.833571-25.417701 15.417294-34.168057 9.375381-8.542014 22.500916-13.958901 36.8765-13.958902z" fill="#C1C1CB" p-id="2402"></path><path d="M232.717803 520.646185h279.386368c9.583723 0 18.334079 3.958494 24.584334 10.208749 6.250254 6.250254 10.208749 15.00061 10.208748 24.584334V712.528993c0 9.583723-3.958494 18.334079-10.208748 24.584334-6.250254 6.250254-15.00061 10.208749-24.584334 10.208748H232.717803c-9.583723 0-18.334079-3.958494-24.584334-10.208748-6.250254-6.250254-10.208749-15.00061-10.208749-24.584334v-157.089725c0-9.583723 3.958494-18.334079 10.208749-24.584334 6.250254-6.250254 15.00061-10.208749 24.584334-10.208749zM616.69176 538.146897h52.502136v35.001424H616.69176z" fill="#41576E" p-id="2403"></path><path d="M346.26409 241.468159c16.875687 0 32.084639 6.87528 43.126754 17.917395 11.042116 11.042116 17.917396 26.251068 17.917396 43.126755s-6.87528 32.084639-17.917396 43.126755c-11.042116 11.042116-26.251068 17.917396-43.126754 17.917396s-32.084639-6.87528-43.126755-17.917396c-11.042116-11.042116-17.917396-26.251068-17.917396-43.126755s6.87528-32.084639 17.917396-43.126755c10.833774-11.042116 26.251068-17.917396 43.126755-17.917395zM571.689929 289.178433c12.083825 0 22.917599 4.791862 30.834588 12.708851 7.916989 7.916989 12.70885 18.750763 12.70885 30.834588s-4.791862 22.917599-12.70885 30.834588c-7.916989 7.916989-18.750763 12.70885-30.834588 12.70885-12.083825 0-22.917599-4.791862-30.834588-12.70885-7.916989-7.916989-12.70885-18.750763-12.708851-30.834588 0-12.083825 4.791862-22.917599 12.708851-30.834588 7.916989-7.916989 18.750763-12.70885 30.834588-12.708851z" fill="#9999A3" p-id="2404"></path></svg>