<?xml version="1.0" standalone="no"?><!DOCTYPE svg PUBLIC "-//W3C//DTD SVG 1.1//EN" "http://www.w3.org/Graphics/SVG/1.1/DTD/svg11.dtd"><svg t="1569483342136" class="icon" viewBox="0 0 1024 1024" version="1.1" xmlns="http://www.w3.org/2000/svg" p-id="1999" xmlns:xlink="http://www.w3.org/1999/xlink" width="200" height="200"><defs><style type="text/css"></style></defs><path d="M165.840081 310.429298h692.111496c10.417091 0 20.000814 4.375178 26.876093 11.4588 6.666938 6.87528 11.042116 16.459003 11.042116 26.876093v383.973958c0 10.417091-4.166836 20.000814-11.042116 26.876093-6.87528 7.083622-16.459003 11.4588-26.876093 11.4588H165.840081c-10.417091 0-20.000814-4.375178-26.876093-11.4588-6.666938-6.87528-11.042116-16.459003-11.042116-26.876093V348.764191c0-10.417091 4.166836-20.000814 11.042116-26.876093 6.87528-7.083622 16.459003-11.4588 26.876093-11.4588z" fill="#4E5A68" p-id="2000"></path><path d="M593.982503 272.094405h134.380467V310.429298h-134.380467z" fill="#3CB2BA" p-id="2001"></path><path d="M198.341404 310.429298h185.632553v460.852086H198.341404z" fill="#424E5E" p-id="2002"></path><path d="M223.967447 381.265514H358.347915v66.669379h-134.380468z" fill="#7DD4DB" p-id="2003"></path><path d="M512.104171 310.429298H800.032553v460.852086H512.104171z" fill="#424E5E" p-id="2004"></path><path d="M656.068362 416.058596c34.376399 0 65.62767 13.958901 88.336928 36.459817 22.500916 22.500916 36.459817 53.752187 36.459817 88.336928 0 34.376399-13.958901 65.62767-36.459817 88.336928-22.500916 22.500916-53.752187 36.459817-88.336928 36.459816-34.376399 0-65.62767-13.958901-88.336928-36.459816-22.500916-22.500916-36.459817-53.752187-36.459817-88.336928s13.958901-65.62767 36.459817-88.336928c22.709257-22.500916 53.752187-36.459817 88.336928-36.459817z" fill="#7DD4DB" p-id="2005"></path><path d="M656.068362 452.518413c24.375992 0 46.460224 9.792065 62.502543 25.834385 16.042319 16.042319 25.834385 38.126551 25.834385 62.502543s-9.792065 46.460224-25.834385 62.502543c-16.042319 16.042319-38.126551 25.834385-62.502543 25.834385s-46.460224-9.792065-62.502543-25.834385c-16.042319-16.042319-25.834385-38.126551-25.834385-62.502543s9.792065-46.460224 25.834385-62.502543c16.042319-15.833978 38.126551-25.834385 62.502543-25.834385z" fill="#E6E7E8" p-id="2006"></path><path d="M656.068362 480.019532c16.875687 0 32.084639 6.87528 42.918413 17.709054 11.042116 11.042116 17.709054 26.251068 17.709054 42.918413s-6.87528 32.084639-17.709054 42.918413c-11.042116 11.042116-26.251068 17.709054-42.918413 17.709054-16.875687 0-32.084639-6.87528-42.918413-17.709054-11.042116-11.042116-17.709054-26.251068-17.709054-42.918413s6.87528-32.084639 17.709054-42.918413c10.833774-10.833774 26.042726-17.709054 42.918413-17.709054z" fill="#2B2B2B" p-id="2007"></path><path d="M656.068362 512.104171c7.916989 0 15.208952 3.125127 20.417498 8.333672 5.208545 5.208545 8.333672 12.500509 8.333672 20.417498 0 7.916989-3.125127 15.208952-8.333672 20.417497-5.208545 5.208545-12.500509 8.333672-20.417498 8.333673-7.916989 0-15.208952-3.125127-20.417497-8.333673-5.208545-5.208545-8.333672-12.500509-8.333673-20.417497 0-7.916989 3.125127-15.208952 8.333673-20.417498 5.208545-5.208545 12.500509-8.333672 20.417497-8.333672z" fill="#3D3E3F" p-id="2008"></path></svg>