<?xml version="1.0" standalone="no"?><!DOCTYPE svg PUBLIC "-//W3C//DTD SVG 1.1//EN" "http://www.w3.org/Graphics/SVG/1.1/DTD/svg11.dtd"><svg t="1569483355235" class="icon" viewBox="0 0 1024 1024" version="1.1" xmlns="http://www.w3.org/2000/svg" p-id="2811" xmlns:xlink="http://www.w3.org/1999/xlink" width="200" height="200"><defs><style type="text/css"></style></defs><path d="M679.194303 840.034181c-36.251475 18.542421-75.836419 31.04293-117.713123 36.668159 25.834385-3.541811 51.668769-9.792065 77.08647-19.167447 24.792675-8.958698 47.918616-20.417497 69.377823-33.959715-9.375381 5.833571-18.959105 11.250458-28.75117 16.459003zM465.852289 877.119023c-83.128383-10.417091-157.714751-48.543642-213.96704-105.004272-66.669379-66.669379-107.712716-158.548118-107.712716-260.218922 0-87.295219 30.417904-167.298474 81.044964-230.426043l247.926755 207.09176v-0.208342c-4.166836 6.87528-6.666938 15.00061-6.666938 23.542625 0 25.209359 20.417497 45.418515 45.418515 45.418515l-55.21058 318.346287c2.708444 0.625025 5.833571 1.041709 9.16704 1.458392z m7.291963-388.765819l0.208342-0.208341v-0.833368c0.208342 0.416684 0 0.833367-0.208342 1.041709z m0.625026-0.833367l0.208342-0.208342v-0.416683l0.208341-0.208342c-0.208342 0.208342-0.416684 0.416684-0.416683 0.833367z m0.625025-1.041709l0.208342-0.416683v-0.416684c0.208342-0.208342 0.416684-0.625025 0.625025-0.833367l-0.208341 0.208342-0.208342 0.208341V485.853103m0.833367-1.041709l0.208342-0.208342v-0.208342l0.208342-0.416684m0.208341 0l0.208342-0.208341 0.208342-0.208342v-0.208342l0.208342-0.208342 0.208342-0.416683 0.208342-0.208342 0.208341-0.208342 0.208342-0.208342 0.208342-0.208342 0.208342-0.416683c0.208342-0.208342 0.416684-0.416684 0.625025-0.833368l0.208342-0.416683 0.416684-0.416684 0.833367-0.833367c0.208342-0.208342 0.625025-0.416684 0.833367-0.833367 0.208342-0.208342 0.625025-0.416684 0.833367-0.625026s0.625025-0.416684 0.833368-0.625025c0.208342-0.208342 0.625025-0.416684 0.833367-0.625026 0.208342-0.208342 0.625025-0.416684 0.833367-0.625025-0.208342 0.208342-0.625025 0.416684-0.833367 0.625025m1.250051-0.833367c0.208342-0.208342 0.625025-0.416684 0.833367-0.625025 0.208342-0.208342 0.625025-0.416684 0.833367-0.625026-0.208342 0.208342-0.625025 0.416684-0.833367 0.625026m1.041709-0.625026c0.208342-0.208342 0.625025-0.416684 0.833367-0.625025 0.208342-0.208342 0.625025-0.416684 0.833367-0.625026-0.208342 0.208342-0.625025 0.416684-0.833367 0.625026m0.833367-0.416684c0.208342-0.208342 0.625025-0.416684 0.833368-0.625025 0.208342-0.208342 0.625025-0.416684 0.833367-0.416684 0.208342-0.208342 0.625025-0.416684 0.833367-0.416683-0.208342 0.208342-0.625025 0.416684-0.833367 0.416683m1.250051-0.625025c0.208342-0.208342 0.625025-0.208342 0.833367-0.416684 0.416684-0.208342 0.625025-0.208342 1.041709-0.416683-0.416684 0.208342-0.625025 0.208342-1.041709 0.416683m1.250051-0.625025c0.416684-0.208342 0.625025-0.208342 1.041709-0.416684s0.625025-0.208342 1.041709-0.416683c-0.416684 0.208342-0.625025 0.208342-1.041709 0.416683m1.041709-0.416683c0.208342-0.208342 0.625025-0.208342 0.833367-0.416684-0.208342 0.208342-0.625025 0.416684-0.833367 0.416684z m1.041709-0.416684c0.208342-0.208342 0.625025-0.208342 0.833367-0.416684-0.208342 0.208342-0.625025 0.416684-0.833367 0.416684z m1.041709-0.208342c0.416684-0.208342 0.625025-0.208342 1.041709-0.416684s0.625025-0.208342 1.041709-0.416683c0.416684 0 0.625025-0.208342 1.041709-0.208342s0.625025-0.208342 1.041709-0.208342c-0.416684 0-0.833367 0.208342-1.041709 0.208342m1.041709-0.208342c0.416684 0 0.625025-0.208342 1.041709-0.208342m0.208342 0c0.416684 0 0.625025-0.208342 1.041709-0.208341-0.416684 0-0.625025 0-1.041709 0.208341z m1.041709-0.208341c0.416684 0 0.625025-0.208342 1.041709-0.208342s0.833367-0.208342 1.041709-0.208342c0.416684 0 0.833367 0 1.041709-0.208342H517.937742c0.416684 0 0.625025 0.208342 1.041709 0.208342h-1.041709m-7.083622-0.416684h1.250051m8.125331 0.833368h0.833367-0.833367z m1.041709 0.208341h1.041709-1.041709z m1.041709 0.208342h1.041709m0 0.208342l0.416683 0.208342H524.396338m0.208342 0.208342l0.416683 0.208341H525.646389c0.416684 0 0.625025 0.208342 1.041709 0.416684h-0.833368m0.833368 0l55.21058-318.346287c73.544659 14.167243 139.380671 50.210376 190.216073 101.25412 66.669379 66.669379 107.712716 158.548118 107.712716 260.218922 0 92.295422-33.959715 176.673856-90.212004 241.468159l-247.926755-207.09176c9.583723-8.333672 15.625636-20.625839 15.625636-34.376399 0.208342-20.000814-12.70885-37.084842-30.626246-43.126755z m15.00061 77.503154l-0.208342 0.208341-0.208342 0.208342h-0.208341c0.208342 0 0.416684-0.208342 0.625025-0.416683z m-0.833367 0.625025l-0.416684 0.416684-0.208342 0.208342 0.625026-0.625026z m-0.833367 0.833367l-0.416684 0.208342-0.208342 0.208342c0.208342-0.208342 0.416684-0.208342 0.625026-0.416684z m-0.833368 0.625026l-0.416683 0.208342-0.416684 0.208341c-0.208342 0.208342-0.625025 0.416684-0.833367 0.625026h0.208342l0.208341-0.208342 0.416684-0.208342m-1.041709 0.625026l-0.208342 0.208341-0.208342 0.208342-0.208341 0.208342 0.625025-0.625025z m-0.833367 0.625025l-0.208342 0.208342-0.208342 0.208342h-0.416683c0.208342-0.208342 0.625025-0.208342 0.833367-0.416684z m-0.833367 0.625026l-0.208342 0.208341-0.208342 0.208342-0.416684 0.208342c0.208342-0.416684 0.416684-0.625025 0.833368-0.625025z m-1.04171 0.416683l-0.416683 0.208342-0.416684 0.208342c0.208342 0 0.625025-0.208342 0.833367-0.416684z m-0.833367 0.625026l-0.416683 0.208341h-0.208342l-0.208342 0.208342c0.208342-0.208342 0.416684-0.416684 0.833367-0.416683z m-1.041709 0.416683l-0.208342 0.208342-0.208341 0.208342h-0.208342s0.208342-0.208342 0.625025-0.416684z m-1.041709 0.625026l-0.208342 0.208341h-0.208342l-0.208341 0.208342c0-0.208342 0.416684-0.416684 0.625025-0.416683z m-1.041709 0.416683l-0.416684 0.208342-0.208341 0.208342c0.208342-0.208342 0.416684-0.416684 0.625025-0.416684z m-1.041709 0.416684l-0.416684 0.208342-0.416683 0.208341c0.208342-0.208342 0.625025-0.208342 0.833367-0.416683z m-1.041709 0.416683l-0.416684 0.208342h-0.208341l-0.208342 0.208342c0.416684-0.208342 0.625025-0.208342 0.833367-0.416684z m-1.041709 0.416684l-0.416684 0.208342h-0.416683c0.208342 0 0.625025-0.208342 0.833367-0.208342z m-1.875076 0.625026c0.208342 0 0.625025-0.208342 0.833367-0.208342m-1.041709 0.208342h-0.416684l-0.416683 0.208341-0.416684 0.208342-0.416684 0.208342c-0.416684 0-0.625025 0.208342-1.041709 0.208342H523.354629l0.416683-0.208342m-1.458392 0.208342l-0.416684 0.208342h-0.416684m-0.416683 0.208341h-1.041709 1.041709z m-1.041709 0.208342h-0.833368c-0.416684 0-0.833367 0.208342-1.041709 0.208342h1.041709m-1.458392 0h-3.333469 1.041709m-1.041709 0.416684h-1.041709 1.041709z m-1.250051 0h-1.250051 1.250051zM342.930621 185.007528c28.334486-14.583927 58.752391-25.834385 90.628687-32.709664-16.250661 3.541811-32.292981 8.125331-48.3353 14.167243-14.583927 5.416887-28.75117 11.667141-42.293387 18.542421z" fill="#BDBDBD" p-id="2812"></path><path d="M781.906816 762.322686c-38.334893 41.251679-86.670193 74.378026-143.130824 95.212207-60.627467 22.292574-123.13001 27.501119-182.715768 18.33408l55.21058-318.346287H521.687894l0.416684-0.208342 0.416683-0.208342 0.416684-0.208342 0.416684-0.208342h1.250051m2.083418-1.666734h0.416683l0.416684-0.208342h0.208342l0.208342-0.208342h0.208341l0.416684-0.208342 0.416684-0.208341 0.416683-0.208342 0.208342-0.208342 0.416684-0.208342h0.208341l0.208342-0.208342h0.208342l0.208342-0.208341h0.416683l0.208342-0.208342 0.208342-0.208342 0.208342-0.208342h0.208342l0.416683-0.208342 0.416684-0.208341 0.416684-0.208342 0.416683-0.208342 0.208342-0.208342H534.605086l0.208342-0.208342h0.416684l0.208342-0.208341 0.208342-0.208342 0.208341-0.208342h0.416684l0.208342-0.208342 0.416683-0.208342 0.416684-0.208342 0.416684-0.208341h0.208341l0.208342-0.208342 0.208342-0.208342 0.208342-0.208342 0.208342-0.208342 0.416683-0.208341h0.416684l0.208342-0.208342h0.208342l247.926754 207.09176c-2.708444 3.125127-5.208545 6.041913-7.916988 8.958698M526.688098 468.977416l55.21058-318.346287c-63.544252-12.292167-131.255341-8.125331-196.67467 15.833978-62.919227 23.125941-115.838047 61.460834-155.839674 109.587792l-0.416684 0.416684c-1.458393 1.666734-2.916785 3.541811-4.375178 5.208545l247.926755 207.09176V486.68647l0.208342-0.208342 0.208341-0.208342v-1.25005l0.208342-0.208342 0.208342-0.208342 0.208342-0.208342v-0.208342l0.208342-0.416683v-0.208342l0.208342-0.208342 0.208341-0.208342v-0.208342l0.208342-0.208341 0.208342-0.416684 0.208342-0.208342 0.208342-0.208342 0.208341-0.208341 0.208342-0.208342 0.208342-0.416684c0.208342-0.208342 0.416684-0.416684 0.625025-0.833367l0.208342-0.416684 0.416684-0.416683 0.833367-0.833368c0.208342-0.208342 0.625025-0.416684 0.833367-0.833367 0.208342-0.208342 0.625025-0.416684 0.833368-0.625025 0.208342-0.208342 0.625025-0.416684 0.833367-0.625026 0.208342-0.208342 0.625025-0.416684 0.833367-0.625025 0.208342-0.208342 0.625025-0.416684 0.833367-0.625026 0.208342-0.208342 0.625025-0.416684 0.833368-0.625025 0.208342-0.208342 0.625025-0.416684 0.833367-0.625025 0.208342-0.208342 0.625025-0.416684 0.833367-0.625026 0.208342-0.208342 0.625025-0.416684 0.833367-0.625025 0.208342-0.208342 0.625025-0.416684 0.833368-0.625026 0.208342-0.208342 0.625025-0.416684 0.833367-0.416683 0.208342-0.208342 0.625025-0.416684 0.833367-0.416684 0.208342-0.208342 0.625025-0.208342 0.833367-0.416684 0.416684-0.208342 0.625025-0.208342 1.041709-0.416683s0.625025-0.208342 1.041709-0.416684 0.625025-0.208342 1.041709-0.416683c0.208342-0.208342 0.625025-0.208342 0.833368-0.416684 0.208342-0.208342 0.625025-0.208342 0.833367-0.416684 0.416684-0.208342 0.625025-0.208342 1.041709-0.416683s0.625025-0.208342 1.041709-0.416684c0.416684 0 0.625025-0.208342 1.041709-0.208342s0.625025-0.208342 1.041709-0.208342 0.625025-0.208342 1.041709-0.208341 0.625025-0.208342 1.041709-0.208342 0.625025-0.208342 1.041709-0.208342 0.833367-0.208342 1.041709-0.208342c0.416684 0 0.833367 0 1.041709-0.208342H520.646185l6.041913 2.500102z" fill="#CCCCCC" p-id="2813"></path><path d="M512.104171 400.016277c30.834588 0 58.960732 12.500509 79.169888 32.709664s32.709664 48.3353 32.709664 79.169888-12.500509 58.960732-32.709664 79.169888-48.3353 32.709664-79.169888 32.709664-58.960732-12.500509-79.169888-32.709664-32.709664-48.3353-32.709664-79.169888 12.500509-58.960732 32.709664-79.169888 48.126958-32.709664 79.169888-32.709664z m32.084639 79.794913c-8.333672-8.333672-19.58413-13.333876-32.084639-13.333876s-23.959308 5.000203-32.084639 13.333876c-8.333672 8.333672-13.333876 19.58413-13.333876 32.084639s5.000203 23.959308 13.333876 32.084639c8.333672 8.333672 19.58413 13.333876 32.084639 13.333876s23.959308-5.000203 32.084639-13.333876c8.333672-8.333672 13.333876-19.58413 13.333876-32.084639s-5.000203-23.750966-13.333876-32.084639z" fill="#7A7A7A" p-id="2814"></path><path d="M512.104171 447.934893c17.709054 0 33.751373 7.083622 45.210173 18.750763 11.667141 11.667141 18.750763 27.501119 18.750763 45.210173s-7.083622 33.751373-18.750763 45.210173c-11.667141 11.667141-27.501119 18.750763-45.210173 18.750763s-33.751373-7.083622-45.210173-18.750763c-11.667141-11.667141-18.750763-27.501119-18.750763-45.210173s7.083622-33.751373 18.750763-45.210173c11.4588-11.4588 27.501119-18.750763 45.210173-18.750763z m0 18.542421c-25.209359 0-45.418515 20.417497-45.418515 45.418515 0 25.209359 20.417497 45.418515 45.418515 45.418515 25.209359 0 45.418515-20.417497 45.418515-45.418515s-20.417497-45.418515-45.418515-45.418515z" fill="#4D4D4D" p-id="2815"></path></svg>