<?xml version="1.0" standalone="no"?><!DOCTYPE svg PUBLIC "-//W3C//DTD SVG 1.1//EN" "http://www.w3.org/Graphics/SVG/1.1/DTD/svg11.dtd"><svg t="1569483357272" class="icon" viewBox="0 0 1024 1024" version="1.1" xmlns="http://www.w3.org/2000/svg" p-id="2932" xmlns:xlink="http://www.w3.org/1999/xlink" width="200" height="200"><defs><style type="text/css"></style></defs><path d="M127.921872 223.967447c249.176806 31.04293 506.062258 26.876094 767.947914 0v672.110681H127.921872V223.967447z" fill="#4D4D4D" p-id="2933"></path><path d="M823.158494 796.907426m-45.001831 0a45.001831 45.001831 0 1 0 90.003663 0 45.001831 45.001831 0 1 0-90.003663 0Z" fill="#1A1A1A" p-id="2934"></path><path d="M668.777213 796.907426m-45.001832 0a45.001831 45.001831 0 1 0 90.003663 0 45.001831 45.001831 0 1 0-90.003663 0Z" fill="#1A1A1A" p-id="2935"></path><path d="M357.097864 796.907426m-45.001831 0a45.001831 45.001831 0 1 0 90.003662 0 45.001831 45.001831 0 1 0-90.003662 0Z" fill="#1A1A1A" p-id="2936"></path><path d="M512.104171 796.907426m-45.001831 0a45.001831 45.001831 0 1 0 90.003662 0 45.001831 45.001831 0 1 0-90.003662 0Z" fill="#1A1A1A" p-id="2937"></path><path d="M202.716582 796.907426m-45.001831 0a45.001831 45.001831 0 1 0 90.003662 0 45.001831 45.001831 0 1 0-90.003662 0Z" fill="#1A1A1A" p-id="2938"></path><path d="M764.614446 806.282808h114.379654c9.375381 0 16.875687 8.125331 16.875686 17.917395v71.877925h-11.458799v-66.252696c0-9.16704-7.083622-16.667345-15.625636-16.667345h-105.629298c-8.542014 0-15.625636 7.500305-15.625636 16.667345v-5.625229c0.208342-10.000407 7.708647-17.917396 17.084029-17.917395z" fill="#A81919" p-id="2939"></path><path d="M764.614446 811.074669h106.462665c9.375381 0 17.084028 7.708647 17.084028 17.084029v67.91943h-140.42238v-67.91943c0-9.375381 7.500305-17.084028 16.875687-17.084029z" fill="#B71C1C" p-id="2940"></path><path d="M724.196134 806.282808h-114.379654c-9.375381 0-16.875687 8.125331-16.875687 17.917395v71.877925h11.4588v-66.252696c0-9.16704 7.083622-16.667345 15.625636-16.667345h105.629298c8.542014 0 15.625636 7.500305 15.625636 16.667345v-5.625229c-0.208342-10.000407-7.708647-17.917396-17.084029-17.917395z" fill="#A81919" p-id="2941"></path><path d="M724.196134 811.074669h-106.462665c-9.375381 0-17.084028 7.708647-17.084029 17.084029v67.91943h140.422381v-67.91943c0-9.375381-7.500305-17.084028-16.875687-17.084029z" fill="#B71C1C" p-id="2942"></path><path d="M454.810173 806.282808h114.379654c9.375381 0 16.875687 8.125331 16.875687 17.917395v71.877925h-11.4588v-66.252696c0-9.16704-7.083622-16.667345-15.625636-16.667345h-105.629298c-8.542014 0-15.625636 7.500305-15.625636 16.667345v-5.625229c0.208342-10.000407 7.708647-17.917396 17.084029-17.917395z" fill="#A81919" p-id="2943"></path><path d="M454.810173 811.074669h106.462665c9.375381 0 17.084028 7.708647 17.084029 17.084029v67.91943h-140.422381v-67.91943c0-9.375381 7.500305-17.084028 16.875687-17.084029z" fill="#B71C1C" p-id="2944"></path><path d="M414.391862 806.282808H300.012208c-9.375381 0-16.875687 8.125331-16.875687 17.917395v71.877925h11.458799v-66.252696c0-9.16704 7.083622-16.667345 15.625636-16.667345h105.629298c8.542014 0 15.625636 7.500305 15.625636 16.667345v-5.625229c-0.208342-10.000407-7.708647-17.917396-17.084028-17.917395z" fill="#A81919" p-id="2945"></path><path d="M414.391862 811.074669h-106.462666c-9.375381 0-17.084028 7.708647-17.084028 17.084029v67.91943H431.267548v-67.91943c0-9.375381-7.708647-17.084028-16.875686-17.084029z" fill="#B71C1C" p-id="2946"></path><path d="M259.385554 806.282808H145.0059c-9.375381 0-16.875687 8.125331-16.875686 17.917395v71.877925H139.589013v-66.252696c0-9.16704 7.083622-16.667345 15.625636-16.667345h105.629298c8.542014 0 15.625636 7.500305 15.625636 16.667345v-5.625229c0-10.000407-7.708647-17.917396-17.084029-17.917395z" fill="#A81919" p-id="2947"></path><path d="M259.385554 811.074669H152.922889c-9.375381 0-17.084028 7.708647-17.084028 17.084029v67.91943h140.42238v-67.91943c0.208342-9.375381-7.500305-17.084028-16.875687-17.084029z" fill="#B71C1C" p-id="2948"></path><path d="M127.921872 223.967447c249.176806 22.292574 506.062258 19.167447 767.947914 0v480.019532H127.921872V223.967447z" fill="#3E2723" p-id="2949"></path><path d="M127.921872 223.967447c249.176806 18.542421 506.062258 16.042319 767.947914 0v400.016276H127.921872v-400.016276z" fill="#795548" p-id="2950"></path><path d="M234.801221 262.093998c184.382503 24.16765 369.806714 19.375788 554.6059 0l10.625432-1.041709V587.107223l-10.625432-1.250051c-184.590844-20.209156-370.223398-20.625839-554.6059 0l-10.625433 1.250051v-11.042116-315.22116l10.625433 1.250051z" fill="#424242" p-id="2951"></path><path d="M233.759512 272.094405c186.049237 24.375992 371.473449 19.375788 556.689318 0v303.970702c-188.757681-20.625839-374.390234-20.209156-556.689318 0V272.094405z" fill="#E6E6E6" p-id="2952"></path><path d="M820.241709 226.050865h-15.208952V672.110682c0 3.958494 3.333469 7.291963 7.500305 7.291963s7.500305-3.333469 7.500305-7.291963V663.985351c0.208342-0.208342 0.208342-437.934486 0.208342-437.934486z" fill="#F44336" p-id="2953"></path><path d="M820.241709 226.050865h15.208952V672.110682c0 3.958494-3.333469 7.291963-7.500305 7.291963s-7.500305-3.333469-7.500305-7.291963V663.985351c-0.208342-0.208342-0.208342-437.934486-0.208342-437.934486z" fill="#B71C1C" p-id="2954"></path><path d="M850.659613 226.050865H835.450661V672.110682c0 3.958494 3.333469 7.291963 7.500305 7.291963s7.500305-3.333469 7.500306-7.291963V663.985351c0.208342-0.208342 0.208342-437.934486 0.208341-437.934486z" fill="#F44336" p-id="2955"></path><path d="M850.659613 226.050865h15.208953V672.110682c0 3.958494-3.333469 7.291963-7.500306 7.291963s-7.500305-3.333469-7.500305-7.291963V663.985351c-0.208342-0.208342-0.208342-437.934486-0.208342-437.934486z" fill="#B71C1C" p-id="2956"></path><path d="M880.869176 226.050865h-15.208952V672.110682c0 3.958494 3.333469 7.291963 7.500305 7.291963s7.500305-3.333469 7.500305-7.291963V663.985351c0.208342-0.208342 0.208342-437.934486 0.208342-437.934486z" fill="#F44336" p-id="2957"></path><path d="M880.869176 226.050865h15.208952V672.110682c0 3.958494-3.333469 7.291963-7.500305 7.291963s-7.500305-3.333469-7.500305-7.291963V663.985351c-0.208342-0.208342-0.208342-437.934486-0.208342-437.934486z" fill="#B71C1C" p-id="2958"></path><path d="M143.130824 226.050865h-15.208952V672.110682c0 3.958494 3.333469 7.291963 7.500305 7.291963s7.500305-3.333469 7.500305-7.291963V663.985351l0.208342-437.934486z" fill="#F44336" p-id="2959"></path><path d="M143.130824 226.050865H158.339776V672.110682c0 3.958494-3.333469 7.291963-7.500305 7.291963s-7.500305-3.333469-7.500305-7.291963V663.985351l-0.208342-437.934486z" fill="#B71C1C" p-id="2960"></path><path d="M173.340387 226.050865H158.339776V672.110682c0 3.958494 3.333469 7.291963 7.500305 7.291963s7.500305-3.333469 7.500306-7.291963V226.050865z" fill="#F44336" p-id="2961"></path><path d="M173.340387 226.050865h15.208952V672.110682c0 3.958494-3.333469 7.291963-7.500305 7.291963s-7.500305-3.333469-7.500306-7.291963V663.985351l-0.208341-437.934486z" fill="#B71C1C" p-id="2962"></path><path d="M203.758291 226.050865h-15.208952V672.110682c0 3.958494 3.333469 7.291963 7.500305 7.291963s7.500305-3.333469 7.500305-7.291963V663.985351l0.208342-437.934486z" fill="#F44336" p-id="2963"></path><path d="M203.758291 226.050865h15.208952V672.110682c0 3.958494-3.333469 7.291963-7.500305 7.291963s-7.500305-3.333469-7.500305-7.291963V663.985351l-0.208342-437.934486z" fill="#B71C1C" p-id="2964"></path><path d="M896.078128 224.38413V127.921872H127.921872v96.253916c249.176806 20.209156 506.062258 17.500712 768.156256 0.208342z" fill="#5D4037" p-id="2965"></path><path d="MNaN NaNaNaN NaN NaN 1 0 NaN NaN NaN NaN NaN 1 0 NaN NaNZ" fill="#856052" p-id="2966"></path><path d="MNaN NaNaNaN NaN NaN 1 0 NaN NaN NaN NaN NaN 1 0 NaN NaNZ" fill="#856052" p-id="2967"></path><path d="MNaN NaNaNaN NaN NaN 1 0 NaN NaN NaN NaN NaN 1 0 NaN NaNZ" fill="#856052" p-id="2968"></path><path d="MNaN NaNaNaN NaN NaN 1 0 NaN NaN NaN NaN NaN 1 0 NaN NaNZ" fill="#856052" p-id="2969"></path><path d="M683.392935 154.921112a7.500305 18.334079 80.979 1 0 36.214608-5.749437 7.500305 18.334079 80.979 1 0-36.214608 5.749437Z" fill="#856052" p-id="2970"></path><path d="M668.944708 182.138915a5.625229 13.75056 80.979 1 0 27.160956-4.312078 5.625229 13.75056 80.979 1 0-27.160956 4.312078Z" fill="#856052" p-id="2971"></path><path d="M654.736851 207.470954a4.375178 10.625432 80.979 1 0 20.988011-3.33206 4.375178 10.625432 80.979 1 0-20.988011 3.33206Z" fill="#856052" p-id="2972"></path><path d="M641.402366 230.07666a3.541811 8.542014 80.979 1 0 16.872715-2.678715 3.541811 8.542014 80.979 1 0-16.872715 2.678715Z" fill="#856052" p-id="2973"></path><path d="M803.406348 156.209449a7.083622 19.792472 78.014 1 0 38.721928-8.220712 7.083622 19.792472 78.014 1 0-38.721928 8.220712Z" fill="#856052" p-id="2974"></path><path d="M778.269203 183.068071a5.208545 14.792269 78.014 1 0 28.939546-6.1439 5.208545 14.792269 78.014 1 0-28.939546 6.1439Z" fill="#856052" p-id="2975"></path><path d="M753.816941 208.200938a4.166836 11.4588 78.014 1 0 22.417958-4.759359 4.166836 11.4588 78.014 1 0-22.417958 4.759359Z" fill="#856052" p-id="2976"></path><path d="M731.507325 230.664517a3.333469 9.16704 78.014 1 0 17.934366-3.807487 3.333469 9.16704 78.014 1 0-17.934366 3.807487Z" fill="#856052" p-id="2977"></path><path d="M451.6388 159.838639a17.501587 7.917385 3.667 1 0 1.012752-15.80235 17.501587 7.917385 3.667 1 0-1.012752 15.80235Z" fill="#856052" p-id="2978"></path><path d="M458.374748 186.070747a13.12619 6.042215 3.667 1 0 0.77289-12.059688 13.12619 6.042215 3.667 1 0-0.77289 12.059688Z" fill="#856052" p-id="2979"></path><path d="M464.674093 210.421749a10.209259 4.583749 3.667 1 0 0.58633-9.148729 10.209259 4.583749 3.667 1 0-0.58633 9.148729Z" fill="#856052" p-id="2980"></path><path d="M470.34351 232.431103a8.125737 3.75034 3.667 1 0 0.479725-7.485323 8.125737 3.75034 3.667 1 0-0.479725 7.485323Z" fill="#856052" p-id="2981"></path><path d="M321.575047 159.365056a18.334079 7.500305 9.021 1 0 2.352043-14.815067 18.334079 7.500305 9.021 1 0-2.352043 14.815067Z" fill="#856052" p-id="2982"></path><path d="M340.588309 185.635749a13.75056 5.625229 9.021 1 0 1.764032-11.1113 13.75056 5.625229 9.021 1 0-1.764032 11.1113Z" fill="#856052" p-id="2983"></path><path d="M358.134306 210.332205a10.625432 4.375178 9.021 1 0 1.372025-8.642122 10.625432 4.375178 9.021 1 0-1.372025 8.642122Z" fill="#856052" p-id="2984"></path><path d="M373.738166 232.204705a8.542014 3.541811 9.021 1 0 1.110687-6.996004 8.542014 3.541811 9.021 1 0-1.110687 6.996004Z" fill="#856052" p-id="2985"></path><path d="M199.824211 158.893916a19.792472 7.083622 11.988 1 0 2.942633-13.858271 19.792472 7.083622 11.988 1 0-2.942633 13.858271Z" fill="#856052" p-id="2986"></path><path d="M230.18952 185.183714a14.792269 5.208545 11.988 1 0 2.163701-10.189906 14.792269 5.208545 11.988 1 0-2.163701 10.189906Z" fill="#856052" p-id="2987"></path><path d="M258.187664 209.856163a11.4588 4.166836 11.988 1 0 1.730961-8.151924 11.4588 4.166836 11.988 1 0-1.730961 8.151924Z" fill="#856052" p-id="2988"></path><path d="M282.946701 231.930268a9.16704 3.333469 11.988 1 0 1.384769-6.521539 9.16704 3.333469 11.988 1 0-1.384769 6.521539Z" fill="#856052" p-id="2989"></path></svg>