<?xml version="1.0" standalone="no"?><!DOCTYPE svg PUBLIC "-//W3C//DTD SVG 1.1//EN" "http://www.w3.org/Graphics/SVG/1.1/DTD/svg11.dtd"><svg t="1569483351205" class="icon" viewBox="0 0 1024 1024" version="1.1" xmlns="http://www.w3.org/2000/svg" p-id="2521" xmlns:xlink="http://www.w3.org/1999/xlink" width="200" height="200"><defs><style type="text/css"></style></defs><path d="M160.423194 388.974161h725.446185v398.974567c0 20.000814-7.916989 38.126551-20.834181 51.252086-12.917192 13.125534-30.417904 21.250865-50.002034 21.250865H213.550356c-19.375788 0-37.084842-8.125331-50.002035-21.250865-12.917192-13.125534-20.834181-31.251272-20.834181-51.252086V388.974161H160.423194z" fill="#996633" p-id="2522"></path><path d="M151.464496 293.553611h743.571923V388.974161H133.338759V293.553611z" fill="#4D4D4D" p-id="2523"></path><path d="M151.464496 293.553611h36.459817l65.002645 95.42055H189.79939l-56.252289-82.711699V293.34527l17.917395 0.208341z m102.29583 0h63.33591l65.002645 95.42055H318.76297l-65.002644-95.42055z m129.171922 0h63.335911l65.002645 95.42055H447.934893l-65.002645-95.42055z m129.171923 0h63.33591l65.002645 95.42055H577.106816l-65.002645-95.42055z m129.171923 0h63.33591l65.002645 95.42055H706.278739l-65.002645-95.42055z m129.171922 0h63.335911l61.04415 89.795321v5.625229H835.450661l-65.002645-95.42055z" fill="#333333" p-id="2524"></path><path d="M514.187589 624.817091m-145.0059 0a145.0059 145.0059 0 1 0 290.0118 0 145.0059 145.0059 0 1 0-290.0118 0Z" fill="#CC9933" p-id="2525"></path><path d="M575.856765 632.942421l-48.3353 28.126145-48.3353 28.126144-13.958902 8.125331v-145.005901l13.958902 8.125331 48.3353 28.126144 48.3353 28.126145 13.75056 8.125331z" fill="#FFCC99" p-id="2526"></path><path d="M151.464496 293.136928l724.612818-33.543032 18.125738-0.833367-0.416684-9.375381-3.541811-76.253103-0.416683-9.583724-18.125738 0.833368L147.089318 197.92472l-18.125737 0.833367 0.416683 9.583724 3.541811 76.253103 0.416684 9.375381z" fill="#4D4D4D" p-id="2527"></path><path d="M151.464496 293.136928l36.459817-1.666735 60.627467-98.337334-63.33591 2.916785L132.922075 281.261445l0.208342 3.333469 0.416684 9.583723 17.917395-1.041709z m102.29583-4.58352l63.33591-2.916785 60.627467-98.337335-63.335911 2.916785-60.627466 98.337335z m128.96358-6.041913l63.335911-2.916785L506.687284 181.257375l-63.335911 2.916786-60.627467 98.337334z m128.963581-6.041912l63.335911-2.916785 60.627467-98.337335-63.335911 2.916785-60.627467 98.337335z m129.171923-5.833571l63.33591-2.916785 60.419126-98.337335-63.335911 2.916786-60.419125 98.337334z m128.963581-6.041912l63.33591-2.916786 56.877315-92.503764-0.208342-5.625229-18.125738 0.833368-41.251678 1.875076-60.627467 98.337335z" fill="#333333" p-id="2528"></path></svg>