<?xml version="1.0" standalone="no"?><!DOCTYPE svg PUBLIC "-//W3C//DTD SVG 1.1//EN" "http://www.w3.org/Graphics/SVG/1.1/DTD/svg11.dtd"><svg t="1569483359134" class="icon" viewBox="0 0 1024 1024" version="1.1" xmlns="http://www.w3.org/2000/svg" p-id="3106" xmlns:xlink="http://www.w3.org/1999/xlink" width="200" height="200"><defs><style type="text/css"></style></defs><path d="M299.595524 608.774771c-7.708647-5.208545-18.334079-3.125127-23.542625 4.58352s-3.125127 18.334079 4.58352 23.542625l383.973957 256.260427c7.708647 5.208545 18.334079 3.125127 23.542625-4.58352s3.125127-18.334079-4.58352-23.542625l-383.973957-256.260427zM205.216684 452.310071l0.208341 153.547915v34.168057H153.964598V418.142014H205.216684zM819.2 418.142014H870.452085v221.884029h-51.460427v-34.168057l0.208342-153.547915zM204.8 162.089929V127.921872h34.168057v34.168057zM785.031943 162.089929V127.921872h34.168057v34.168057z" fill="#C59861" p-id="3107"></path><path d="M743.363581 637.109257c7.708647-5.208545 9.792065-15.833978 4.58352-23.542624-5.208545-7.708647-15.833978-9.792065-23.542625-4.58352L340.430519 864.826857c-7.708647 5.208545-10.000407 15.833978-4.58352 23.542624 5.208545 7.708647 15.833978 10.000407 23.542625 4.58352l383.973957-255.843744z" fill="#C59861" p-id="3108"></path><path d="M238.968057 418.142014v132.505392l-33.751373 88.753611-0.416684-221.259003zM819.2 418.142014v221.259003l-34.168057-88.753611v-132.505392H238.968057h546.063886z" fill="#AB814D" p-id="3109"></path><path d="M221.884028 162.089929h597.315972v256.052085H204.8V162.089929z" fill="#424242" p-id="3110"></path><path d="M512.312513 770.656358m-15.833978 0a15.833978 15.833978 0 1 0 31.667955 0 15.833978 15.833978 0 1 0-31.667955 0Z" fill="#E6E6E6" p-id="3111"></path><path d="M512.312513 770.656358m-7.083622 0a7.083622 7.083622 0 1 0 14.167243 0 7.083622 7.083622 0 1 0-14.167243 0Z" fill="#999999" p-id="3112"></path><path d="M819.408342 639.817701c-206.258393 37.293184-411.266734 36.043133-614.608342 0.208342l34.168057-89.586979 546.272228-0.208342 34.168057 89.586979z m-34.376399-89.170295c-190.424415 22.917599-372.515158 29.584537-546.272228 0h546.272228z" fill="#424242" p-id="3113"></path></svg>