<?xml version="1.0" standalone="no"?><!DOCTYPE svg PUBLIC "-//W3C//DTD SVG 1.1//EN" "http://www.w3.org/Graphics/SVG/1.1/DTD/svg11.dtd"><svg t="1569483362642" class="icon" viewBox="0 0 1024 1024" version="1.1" xmlns="http://www.w3.org/2000/svg" p-id="3355" xmlns:xlink="http://www.w3.org/1999/xlink" width="200" height="200"><defs><style type="text/css"></style></defs><path d="M264.802442 419.392065h23.125941v314.804476c0 7.708647 3.125127 14.792269 8.333672 20.209156 5.416887 5.416887 12.500509 8.333672 20.209156 8.333672H781.28179v23.125941H316.471211c-13.75056 0-26.876094-5.416887-36.668159-15.208952-9.792065-9.792065-15.208952-22.709257-15.208952-36.668159l0.208342-314.596134z" fill="#5D9DB8" p-id="3356"></path><path d="M722.321058 419.392065h-23.125941v416.891963c0 7.708647-3.125127 14.792269-8.333672 20.209156-5.416887 5.416887-12.500509 8.333672-20.209156 8.333673H313.971109v23.125941h356.472838c13.75056 0 26.876094-5.416887 36.668159-15.208953 9.792065-9.792065 15.208952-22.709257 15.208952-36.668158v-416.683622z" fill="#5D9DB8" p-id="3357"></path><path d="M705.653713 136.047202h8.958698c9.16704 0 17.29237 4.166836 23.334283 10.833775 6.041913 6.666938 9.792065 15.833978 9.792065 26.042726v221.050661c0 10.208749-3.750153 19.375788-9.792065 26.042727-6.041913 6.666938-14.167243 10.833774-23.334283 10.833774h-8.958698V136.047202z" fill="#4073A6" p-id="3358"></path><path d="M697.945066 136.047202h9.375382v295.012005H697.945066c-9.583723 0-18.125738-4.166836-24.375992-10.833775s-10.208749-15.833978-10.208748-26.042726V172.923703c0-10.208749 3.958494-19.375788 10.208748-26.042726 6.250254-6.666938 14.792269-10.833774 24.375992-10.833775z" fill="#336699" p-id="3359"></path><path d="M284.803255 136.047202h8.958698c9.16704 0 17.29237 4.166836 23.334283 10.833775 6.041913 6.666938 9.792065 15.833978 9.792065 26.042726v221.050661c0 10.208749-3.750153 19.375788-9.792065 26.042727-6.041913 6.666938-14.167243 10.833774-23.334283 10.833774h-8.958698V136.047202z" fill="#4073A6" p-id="3360"></path><path d="M277.30295 136.047202h9.375382v295.012005h-9.375382c-9.583723 0-18.125738-4.166836-24.375992-10.833775s-10.208749-15.833978-10.208748-26.042726V172.923703c0-10.208749 3.958494-19.375788 10.208748-26.042726 6.250254-6.666938 14.792269-10.833774 24.375992-10.833775z" fill="#336699" p-id="3361"></path><path d="M329.596745 176.257172c12.70885 0 24.375992 7.500305 32.709664 19.58413 8.333672 12.083825 13.542218 28.959512 13.542218 47.501933s-5.208545 35.209766-13.542218 47.501933c-8.333672 12.083825-19.792472 19.58413-32.709664 19.58413-12.70885 0-24.375992-7.500305-32.709665-19.58413-8.333672-12.083825-13.542218-28.959512-13.542217-47.501933s5.208545-35.209766 13.542217-47.501933c8.333672-12.083825 19.792472-19.58413 32.709665-19.58413z" fill="#669999" p-id="3362"></path><path d="M329.596745 203.341607c7.500305 0 14.375585 4.375178 19.375788 11.667142 5.000203 7.291963 8.125331 17.29237 8.125331 28.334486 0 11.042116-3.125127 21.042523-8.125331 28.334486s-11.875483 11.667141-19.375788 11.667142c-7.500305 0-14.375585-4.375178-19.375789-11.667142-5.000203-7.291963-8.125331-17.29237-8.12533-28.334486 0-11.042116 3.125127-21.042523 8.12533-28.334486 4.791862-7.291963 11.667141-11.667141 19.375789-11.667142z" fill="#333333" p-id="3363"></path><path d="M663.568667 176.257172c12.70885 0 24.375992 7.500305 32.709665 19.58413 8.333672 12.083825 13.542218 28.959512 13.542217 47.501933s-5.208545 35.209766-13.542217 47.501933c-8.333672 12.083825-19.792472 19.58413-32.709665 19.58413s-24.375992-7.500305-32.709664-19.58413c-8.333672-12.083825-13.542218-28.959512-13.542218-47.501933s5.208545-35.209766 13.542218-47.501933c8.333672-12.083825 19.792472-19.58413 32.709664-19.58413z" fill="#669999" p-id="3364"></path><path d="M663.568667 203.341607c7.500305 0 14.375585 4.375178 19.375789 11.667142 5.000203 7.291963 8.125331 17.29237 8.12533 28.334486 0 11.042116-3.125127 21.042523-8.12533 28.334486s-11.875483 11.667141-19.375789 11.667142c-7.500305 0-14.375585-4.375178-19.375788-11.667142-5.000203-7.291963-8.125331-17.29237-8.125331-28.334486 0-11.042116 3.125127-21.042523 8.125331-28.334486 4.791862-7.291963 11.667141-11.667141 19.375788-11.667142z" fill="#333333" p-id="3365"></path></svg>