<?xml version="1.0" standalone="no"?><!DOCTYPE svg PUBLIC "-//W3C//DTD SVG 1.1//EN" "http://www.w3.org/Graphics/SVG/1.1/DTD/svg11.dtd"><svg t="1569483377699" class="icon" viewBox="0 0 1024 1024" version="1.1" xmlns="http://www.w3.org/2000/svg" p-id="4329" xmlns:xlink="http://www.w3.org/1999/xlink" width="200" height="200"><defs><style type="text/css"></style></defs><path d="M445.22645 194.799593c87.503561 0 166.88179 35.418108 224.38413 92.920448C727.11292 345.22238 762.531027 424.392269 762.531027 512.104171c0 82.711699-31.667955 157.923093-83.545066 214.383723V762.531027c0 9.16704 3.750153 17.500712 9.792065 23.542625 6.041913 6.041913 14.375585 9.792065 23.542625 9.792065h183.757477v33.33469h-183.757477c-18.334079 0-35.001424-7.500305-47.085249-19.58413-12.083825-12.083825-19.58413-28.75117-19.58413-47.08525v-4.583519c-54.585554 44.585148-124.380061 71.252899-200.424822 71.252899-87.503561 0-166.88179-35.418108-224.384131-92.920448-57.50234-57.50234-92.920448-136.672228-92.920447-224.38413 0-87.503561 35.418108-166.88179 92.920447-224.38413 57.50234-57.293998 136.88057-92.712106 224.384131-92.712106z" fill="#4F576A" p-id="4330"></path><path d="M678.985961 726.487894V762.531027c0 9.16704 3.750153 17.500712 9.792065 23.542625 6.041913 6.041913 14.375585 9.792065 23.542625 9.792065h183.757477v33.33469h-183.757477c-18.334079 0-35.001424-7.500305-47.085249-19.58413-12.083825-12.083825-19.58413-28.75117-19.58413-47.08525v-4.583519l33.334689-31.459614z" fill="#333333" p-id="4331"></path><path d="M457.101933 500.228688c-2.916785-2.916785-7.291963-4.791862-11.875483-4.791862s-8.750356 1.875076-11.875484 4.791862-4.791862 7.291963-4.791861 11.875483 1.875076 8.750356 4.791861 11.875483 7.291963 4.791862 11.875484 4.791862 8.750356-1.875076 11.875483-4.791862 4.791862-7.291963 4.791862-11.875483c0-4.791862-1.875076-8.958698-4.791862-11.875483z" fill="#424242" p-id="4332"></path><path d="M445.22645 461.893795c13.75056 0 26.251068 5.625229 35.418107 14.583926 9.16704 9.16704 14.583927 21.667548 14.583927 35.418108s-5.625229 26.251068-14.583927 35.418108c-9.16704 9.16704-21.667548 14.583927-35.418107 14.583927s-26.251068-5.625229-35.418108-14.583927c-9.16704-9.16704-14.583927-21.667548-14.583927-35.418108s5.625229-26.251068 14.583927-35.418108 21.667548-14.583927 35.418108-14.583926z" fill="#3E4659" p-id="4333"></path><path d="M567.523093 346.680773c-3.958494-12.083825-12.70885-22.709257-25.20936-28.959512-12.292167-6.250254-26.042726-6.87528-38.334893-2.708443-12.083825 3.958494-22.709257 12.70885-28.959511 25.209359-6.250254 12.292167-6.87528 26.042726-2.708444 38.334893 3.958494 12.083825 12.70885 22.709257 25.209359 28.959512 12.292167 6.250254 26.042726 6.87528 38.334893 2.708443 12.083825-3.958494 22.709257-12.70885 28.959512-25.209359 6.250254-12.292167 6.666938-26.042726 2.708444-38.334893z" fill="#424242" p-id="4334"></path><path d="M557.106002 288.136724c20.625839 10.208749 35.001424 27.917803 41.876704 48.3353 6.666938 20.209156 5.833571 43.126755-4.58352 63.544253-10.208749 20.625839-27.917803 35.001424-48.3353 41.876704-20.209156 6.666938-43.126755 5.833571-63.544252-4.58352-20.625839-10.208749-35.001424-27.917803-41.876704-48.3353-6.666938-20.209156-5.833571-43.126755 4.58352-63.544253 10.208749-20.625839 27.917803-35.001424 48.3353-41.876704 20.209156-6.666938 43.126755-5.833571 63.544252 4.58352z" fill="#3E4659" p-id="4335"></path><path d="M610.441506 634.192472c12.083825-3.958494 22.709257-12.70885 28.959511-25.209359 6.250254-12.292167 6.87528-26.042726 2.708444-38.334893-3.958494-12.083825-12.70885-22.709257-25.209359-28.959512-12.292167-6.250254-26.042726-6.87528-38.334893-2.708444-12.083825 3.958494-22.709257 12.70885-28.959512 25.20936-6.250254 12.292167-6.87528 26.042726-2.708444 38.334893 3.958494 12.083825 12.70885 22.709257 25.209359 28.959511s26.251068 6.87528 38.334894 2.708444z" fill="#424242" p-id="4336"></path><path d="M669.193896 623.983723c-10.208749 20.625839-27.917803 35.001424-48.3353 41.876704-20.209156 6.666938-43.126755 5.833571-63.544252-4.58352-20.625839-10.208749-35.001424-27.917803-41.876704-48.3353-6.666938-20.209156-5.833571-43.126755 4.58352-63.544252 10.208749-20.625839 27.917803-35.001424 48.3353-41.876704 20.209156-6.666938 43.126755-5.833571 63.544252 4.58352 20.625839 10.208749 35.001424 27.917803 41.876704 48.3353 6.666938 20.209156 5.625229 42.918413-4.58352 63.544252z" fill="#3E4659" p-id="4337"></path><path d="M418.142014 645.44293c-3.958494-12.083825-12.70885-22.709257-25.209359-28.959512-12.292167-6.250254-26.042726-6.87528-38.334893-2.708443-12.083825 3.958494-22.709257 12.70885-28.959512 25.209359-6.250254 12.292167-6.87528 26.042726-2.708443 38.334893 3.958494 12.083825 12.70885 22.709257 25.209359 28.959512 12.292167 6.250254 26.042726 6.87528 38.334893 2.708443 12.083825-3.958494 22.709257-12.70885 28.959512-25.209359 6.250254-12.292167 6.87528-26.042726 2.708443-38.334893z" fill="#424242" p-id="4338"></path><path d="M407.933266 586.690539c20.625839 10.208749 35.001424 27.917803 41.876703 48.3353 6.666938 20.209156 5.833571 43.126755-4.583519 63.544253-10.208749 20.625839-27.917803 35.001424-48.3353 41.876704-20.209156 6.666938-43.126755 5.833571-63.544253-4.58352-20.625839-10.208749-35.001424-27.917803-41.876704-48.3353-6.666938-20.209156-5.833571-43.126755 4.58352-63.544253 10.208749-20.625839 27.917803-35.001424 48.3353-41.876704 20.000814-6.666938 42.918413-5.625229 63.544253 4.58352z" fill="#3E4659" p-id="4339"></path><path d="M311.887691 485.019736c12.083825-3.958494 22.709257-12.70885 28.959511-25.20936 6.250254-12.292167 6.87528-26.042726 2.708444-38.334893-3.958494-12.083825-12.70885-22.709257-25.209359-28.959511-12.292167-6.250254-26.042726-6.87528-38.334893-2.708444-12.083825 3.958494-22.709257 12.70885-28.959512 25.209359-6.250254 12.292167-6.87528 26.042726-2.708444 38.334893 3.958494 12.083825 12.70885 22.709257 25.20936 28.959512 12.292167 6.041913 26.042726 6.666938 38.334893 2.708444z" fill="#424242" p-id="4340"></path><path d="M370.43174 474.602645c-10.208749 20.625839-27.917803 35.001424-48.335301 41.876704-20.209156 6.666938-43.126755 5.833571-63.544252-4.58352-20.625839-10.208749-35.001424-27.917803-41.876704-48.3353-6.666938-20.209156-5.833571-43.126755 4.58352-63.544252 10.208749-20.625839 27.917803-35.001424 48.3353-41.876704 20.209156-6.666938 43.126755-5.833571 63.544252 4.58352 20.625839 10.208749 35.001424 27.917803 41.876704 48.3353 6.666938 20.209156 5.833571 42.918413-4.583519 63.544252z" fill="#3E4659" p-id="4341"></path><path d="M550.230722 302.095626c16.667345 8.333672 28.542828 22.709257 33.959715 39.16826 5.416887 16.459003 4.58352 35.001424-3.750152 51.668769s-22.709257 28.542828-39.168261 33.959715c-16.459003 5.416887-35.001424 4.58352-51.668769-3.750152s-28.542828-22.709257-33.959715-39.168261c-5.416887-16.459003-4.58352-35.001424 3.750153-51.668769s22.709257-28.542828 39.16826-33.959715c16.459003-5.416887 35.001424-4.58352 51.668769 3.750153zM356.472838 467.727365c-8.333672 16.667345-22.709257 28.542828-39.16826 33.959715-16.459003 5.416887-35.001424 4.58352-51.668769-3.750152s-28.542828-22.709257-33.959715-39.168261c-5.416887-16.459003-4.58352-35.001424 3.750152-51.668769s22.709257-28.542828 39.168261-33.959715c16.459003-5.416887 35.001424-4.58352 51.668769 3.750153s28.542828 22.709257 33.959715 39.16826c5.416887 16.250661 4.58352 34.793082-3.750153 51.668769zM400.849644 600.857782c16.667345 8.333672 28.542828 22.709257 33.959715 39.168261 5.416887 16.459003 4.58352 35.001424-3.750152 51.668769s-22.709257 28.542828-39.168261 33.959715c-16.459003 5.416887-35.001424 4.58352-51.668769-3.750153s-28.542828-22.709257-33.959715-39.16826c-5.416887-16.459003-4.58352-35.001424 3.750152-51.668769s22.709257-28.542828 39.168261-33.959715c16.459003-5.416887 35.001424-4.58352 51.668769 3.750152zM655.026653 616.900102c-8.333672 16.667345-22.709257 28.542828-39.16826 33.959715-16.459003 5.416887-35.001424 4.58352-51.668769-3.750153s-28.542828-22.709257-33.959716-39.16826c-5.416887-16.459003-4.58352-35.001424 3.750153-51.668769s22.709257-28.542828 39.16826-33.959715c16.459003-5.416887 35.001424-4.58352 51.66877 3.750152s28.542828 22.709257 33.959715 39.168261c5.416887 16.459003 4.791862 35.001424-3.750153 51.668769zM445.22645 478.561139c9.16704 0 17.500712 3.750153 23.542624 9.792065 6.041913 6.041913 9.792065 14.375585 9.792065 23.542625s-3.750153 17.500712-9.792065 23.542625c-6.041913 6.041913-14.375585 9.792065-23.542624 9.792065s-17.500712-3.750153-23.542625-9.792065c-6.041913-6.041913-9.792065-14.375585-9.792065-23.542625s3.750153-17.500712 9.792065-23.542625c6.041913-6.041913 14.375585-9.792065 23.542625-9.792065z" fill="#FFCE57" p-id="4342"></path></svg>