<?xml version="1.0" standalone="no"?><!DOCTYPE svg PUBLIC "-//W3C//DTD SVG 1.1//EN" "http://www.w3.org/Graphics/SVG/1.1/DTD/svg11.dtd"><svg t="1569483366627" class="icon" viewBox="0 0 1024 1024" version="1.1" xmlns="http://www.w3.org/2000/svg" p-id="3602" xmlns:xlink="http://www.w3.org/1999/xlink" width="200" height="200"><defs><style type="text/css"></style></defs><path d="M207.925127 806.699491c-26.876094-2.916785-50.418718-20.209156-67.502747-46.668565-17.500712-27.084435-28.334486-64.169278-28.334486-104.795931 0-40.626653 10.833774-77.711495 28.334486-104.795931 17.084028-26.45941 40.834995-43.75178 67.502747-46.668566v302.928993z" fill="#E34544" p-id="3603"></path><path d="M207.925127 503.353815v-16.459003c0-70.419532 28.75117-134.380468 75.211394-180.840692 46.460224-46.460224 110.42116-75.211394 180.840692-75.211394h96.045574c70.419532 0 134.380468 28.75117 180.840692 75.211394 46.460224 46.460224 75.211394 110.42116 75.211394 180.840692v319.596338c-2.708444 0.208342-5.208545 0.416684-7.916989 0.416683-1.458393 0-3.333469 0-5.208545-0.208342-1.666734-0.208342-3.333469-0.208342-5.000204-0.625025l-13.750559-1.875076V486.894812c0-61.669176-25.209359-117.504781-65.836012-158.131435-40.626653-40.626653-96.6706-65.836012-158.131435-65.836012h-96.045575c-61.669176 0-117.504781 25.209359-158.131434 65.836012-40.626653 40.626653-65.836012 96.6706-65.836012 158.131435V804.407731l-13.75056 1.875077c-1.875076 0.208342-3.541811 0.416684-5.000203 0.625025-1.875076 0.208342-3.541811 0.208342-5.208545 0.208342-2.708444 0-5.416887-0.208342-7.916989-0.416684l-0.416684-303.345676z" fill="#424242" p-id="3604"></path><path d="M271.052696 551.06409c0-8.750356-7.083622-16.042319-16.04232-16.04232-8.750356 0-16.042319 7.083622-16.042319 16.04232v240.009766c0 8.750356 7.083622 16.042319 16.042319 16.042319 8.750356 0 16.042319-7.083622 16.04232-16.042319V551.06409zM783.990234 548.355646c0-8.750356-7.083622-16.042319-16.042319-16.042319-8.750356 0-16.042319 7.083622-16.04232 16.042319v240.009766c0 8.750356 7.083622 16.042319 16.04232 16.042319s16.042319-7.083622 16.042319-16.042319V548.355646z" fill="#6E6E6E" p-id="3605"></path><path d="M816.074873 806.699491c26.876094-2.916785 50.418718-20.209156 67.502747-46.668565 17.500712-27.084435 28.334486-64.169278 28.334486-104.795931 0-40.626653-10.833774-77.711495-28.334486-104.795931-17.084028-26.45941-40.834995-43.75178-67.502747-46.668566v302.928993z" fill="#E34544" p-id="3606"></path><path d="M910.662055 678.985961c0.833367-7.916989 1.250051-15.833978 1.250051-23.959308 0-13.75056-1.250051-27.084435-3.541811-39.793286-16.042319 1.875076-28.334486 15.417294-28.334486 31.876297 0 17.084028 13.542218 31.251272 30.626246 31.876297z" fill="#424242" p-id="3607"></path><path d="M351.472635 241.676501l0.416683-0.208342c34.793082-16.042319 72.919634-24.584334 112.296236-24.584334h96.045575c44.168464 0 87.086877 10.833774 125.42177 31.04293l-30.00122 52.085453c-29.167854-15.00061-61.877518-23.125941-95.42055-23.125941h-96.045575c-28.75117 0-56.460631 5.833571-82.295015 16.875686h-0.208342l-30.209562-52.085452z" fill="#333333" p-id="3608"></path><path d="M113.337945 678.985961c-0.833367-7.916989-1.250051-15.833978-1.250051-23.959308 0-13.75056 1.250051-27.084435 3.541811-39.793286 16.042319 1.875076 28.334486 15.417294 28.334486 31.876297 0 17.084028-13.542218 31.251272-30.626246 31.876297z" fill="#424242" p-id="3609"></path></svg>