<?xml version="1.0" standalone="no"?><!DOCTYPE svg PUBLIC "-//W3C//DTD SVG 1.1//EN" "http://www.w3.org/Graphics/SVG/1.1/DTD/svg11.dtd"><svg t="1569483390499" class="icon" viewBox="0 0 1024 1024" version="1.1" xmlns="http://www.w3.org/2000/svg" p-id="5322" xmlns:xlink="http://www.w3.org/1999/xlink" width="200" height="200"><defs><style type="text/css"></style></defs><path d="M416.058596 872.327162l80.003255-27.917803v-140.42238h31.876298v140.42238l80.003255 27.917803v8.542014h-191.882808z" fill="#424242" p-id="5323"></path><path d="M620.233571 168.965209c22.084232 25.834385 35.834791 61.669176 35.834791 101.045778v135.83886H367.931638v-135.83886c0-39.376602 13.75056-75.211394 35.834791-101.045778 21.87589-25.626043 52.085453-41.46002 85.003459-41.460021h46.251882c33.126348 0 63.33591 15.833978 85.211801 41.460021z" fill="#8F6353" p-id="5324"></path><path d="M654.818311 549.189013c-3.958494 31.04293-16.459003 58.960732-34.58474 80.003256-21.87589 25.626043-51.877111 41.46002-85.003459 41.46002h-46.251882c-33.126348 0-63.127569-15.833978-85.003459-41.46002-18.125738-21.250865-30.626246-48.960326-34.58474-80.003256v-123.13001h285.42828v123.13001z" fill="#5D4037" p-id="5325"></path><path d="M583.982096 658.568464c-5.208545 2.708444-10.417091 5.000203-16.04232 6.87528V431.059207h16.04232v227.509257zM520.02116 670.652289h-16.04232v-239.593082h16.04232zM456.060224 665.235402c-5.416887-1.875076-10.833774-4.166836-16.04232-6.87528V431.059207h16.04232v234.176195z" fill="#8F6353" p-id="5326"></path><path d="M320.013021 400.016277h383.973958V568.35646c0 43.960122-18.334079 83.753408-47.918617 112.504578-28.959512 28.126144-68.961139 45.626857-112.504578 45.626856h-62.919227c-43.75178 0-83.545066-17.500712-112.504577-45.626856-29.584537-28.75117-47.918616-68.544456-47.918617-112.504578v-137.297253l-0.208342-31.04293z m356.68118 31.04293h-329.180061v137.297253c0 34.584741 14.583927 66.044354 38.334894 88.961953 24.16765 23.542625 57.710682 38.126551 94.795523 38.126551h62.919227c37.084842 0 70.627874-14.583927 94.795524-38.126551 23.542625-22.917599 38.334893-54.377213 38.334893-88.961953v-137.297253z" fill="#616161" p-id="5327"></path><path d="M347.305799 400.016277h329.388402v31.04293H347.305799z" fill="#424242" p-id="5328"></path><path d="M411.683418 355.431129c6.666938 0 12.292167 5.416887 12.292167 12.292167s-5.416887 12.292167-12.292167 12.292167-12.292167-5.416887-12.292167-12.292167 5.416887-12.292167 12.292167-12.292167zM411.683418 306.679145c6.666938 0 12.292167 5.416887 12.292167 12.292167s-5.416887 12.292167-12.292167 12.292167-12.292167-5.416887-12.292167-12.292167 5.416887-12.292167 12.292167-12.292167zM411.683418 257.927162c6.666938 0 12.292167 5.416887 12.292167 12.292167 0 6.666938-5.416887 12.292167-12.292167 12.292166s-12.292167-5.416887-12.292167-12.292166c0-6.87528 5.416887-12.292167 12.292167-12.292167zM453.143438 273.552798c6.666938 0 12.292167 5.416887 12.292167 12.292166 0 6.666938-5.416887 12.292167-12.292167 12.292167s-12.292167-5.416887-12.292166-12.292167c0.208342-6.87528 5.625229-12.292167 12.292166-12.292166zM453.143438 224.800814c6.666938 0 12.292167 5.416887 12.292167 12.292167 0 6.666938-5.416887 12.292167-12.292167 12.292167s-12.292167-5.416887-12.292166-12.292167 5.625229-12.292167 12.292166-12.292167zM453.143438 176.04883c6.666938 0 12.292167 5.416887 12.292167 12.292167 0 6.666938-5.416887 12.292167-12.292167 12.292167s-12.292167-5.416887-12.292166-12.292167 5.625229-12.292167 12.292166-12.292167zM453.143438 317.304578c6.666938 0 12.292167 5.416887 12.292167 12.292167 0 6.666938-5.416887 12.292167-12.292167 12.292166s-12.292167-5.416887-12.292166-12.292166c0.208342-6.87528 5.625229-12.292167 12.292166-12.292167zM612.316582 355.431129c6.666938 0 12.292167 5.416887 12.292167 12.292167s-5.416887 12.292167-12.292167 12.292167c-6.666938 0-12.292167-5.416887-12.292167-12.292167s5.625229-12.292167 12.292167-12.292167zM612.316582 306.679145c6.666938 0 12.292167 5.416887 12.292167 12.292167s-5.416887 12.292167-12.292167 12.292167c-6.666938 0-12.292167-5.416887-12.292167-12.292167s5.625229-12.292167 12.292167-12.292167zM612.316582 257.927162c6.666938 0 12.292167 5.416887 12.292167 12.292167 0 6.666938-5.416887 12.292167-12.292167 12.292166-6.666938 0-12.292167-5.416887-12.292167-12.292166 0.208342-6.87528 5.625229-12.292167 12.292167-12.292167zM494.811801 273.552798c6.666938 0 12.292167 5.416887 12.292166 12.292166 0 6.666938-5.416887 12.292167-12.292166 12.292167-6.666938 0-12.292167-5.416887-12.292167-12.292167 0-6.87528 5.416887-12.292167 12.292167-12.292166zM494.811801 224.800814c6.666938 0 12.292167 5.416887 12.292166 12.292167 0 6.666938-5.416887 12.292167-12.292166 12.292167-6.666938 0-12.292167-5.416887-12.292167-12.292167s5.416887-12.292167 12.292167-12.292167zM494.811801 176.04883c6.666938 0 12.292167 5.416887 12.292166 12.292167 0 6.666938-5.416887 12.292167-12.292166 12.292167-6.666938 0-12.292167-5.416887-12.292167-12.292167s5.416887-12.292167 12.292167-12.292167zM494.811801 317.304578c6.666938 0 12.292167 5.416887 12.292166 12.292167 0 6.666938-5.416887 12.292167-12.292166 12.292166-6.666938 0-12.292167-5.416887-12.292167-12.292166 0-6.87528 5.416887-12.292167 12.292167-12.292167zM536.271821 273.552798c6.666938 0 12.292167 5.416887 12.292167 12.292166 0 6.666938-5.416887 12.292167-12.292167 12.292167-6.666938 0-12.292167-5.416887-12.292167-12.292167 0.208342-6.87528 5.625229-12.292167 12.292167-12.292166zM536.271821 224.800814c6.666938 0 12.292167 5.416887 12.292167 12.292167 0 6.666938-5.416887 12.292167-12.292167 12.292167-6.666938 0-12.292167-5.416887-12.292167-12.292167s5.625229-12.292167 12.292167-12.292167zM536.271821 176.04883c6.666938 0 12.292167 5.416887 12.292167 12.292167 0 6.666938-5.416887 12.292167-12.292167 12.292167-6.666938 0-12.292167-5.416887-12.292167-12.292167s5.625229-12.292167 12.292167-12.292167zM536.271821 317.304578c6.666938 0 12.292167 5.416887 12.292167 12.292167 0 6.666938-5.416887 12.292167-12.292167 12.292166-6.666938 0-12.292167-5.416887-12.292167-12.292166 0.208342-6.87528 5.625229-12.292167 12.292167-12.292167zM577.940183 273.552798c6.666938 0 12.292167 5.416887 12.292167 12.292166 0 6.666938-5.416887 12.292167-12.292167 12.292167-6.666938 0-12.292167-5.416887-12.292167-12.292167 0.208342-6.87528 5.625229-12.292167 12.292167-12.292166zM577.940183 224.800814c6.666938 0 12.292167 5.416887 12.292167 12.292167 0 6.666938-5.416887 12.292167-12.292167 12.292167-6.666938 0-12.292167-5.416887-12.292167-12.292167s5.625229-12.292167 12.292167-12.292167zM577.940183 176.04883c6.666938 0 12.292167 5.416887 12.292167 12.292167 0 6.666938-5.416887 12.292167-12.292167 12.292167-6.666938 0-12.292167-5.416887-12.292167-12.292167s5.625229-12.292167 12.292167-12.292167zM577.940183 317.304578c6.666938 0 12.292167 5.416887 12.292167 12.292167 0 6.666938-5.416887 12.292167-12.292167 12.292166-6.666938 0-12.292167-5.416887-12.292167-12.292166 0.208342-6.87528 5.625229-12.292167 12.292167-12.292167zM453.143438 355.431129c6.666938 0 12.292167 5.416887 12.292167 12.292167s-5.416887 12.292167-12.292167 12.292167-12.292167-5.416887-12.292166-12.292167 5.625229-12.292167 12.292166-12.292167zM494.811801 355.431129c6.666938 0 12.292167 5.416887 12.292166 12.292167s-5.416887 12.292167-12.292166 12.292167c-6.666938 0-12.292167-5.416887-12.292167-12.292167s5.416887-12.292167 12.292167-12.292167zM536.271821 355.431129c6.666938 0 12.292167 5.416887 12.292167 12.292167s-5.416887 12.292167-12.292167 12.292167c-6.666938 0-12.292167-5.416887-12.292167-12.292167s5.625229-12.292167 12.292167-12.292167zM577.940183 355.431129c6.666938 0 12.292167 5.416887 12.292167 12.292167s-5.416887 12.292167-12.292167 12.292167c-6.666938 0-12.292167-5.416887-12.292167-12.292167s5.625229-12.292167 12.292167-12.292167z" fill="#5D4037" p-id="5329"></path><path d="M520.02116 431.059207v239.593082h-16.04232v-239.593082z" fill="#8F6353" p-id="5330"></path></svg>