<?xml version="1.0" standalone="no"?><!DOCTYPE svg PUBLIC "-//W3C//DTD SVG 1.1//EN" "http://www.w3.org/Graphics/SVG/1.1/DTD/svg11.dtd"><svg t="1569483372650" class="icon" viewBox="0 0 1024 1024" version="1.1" xmlns="http://www.w3.org/2000/svg" p-id="3965" xmlns:xlink="http://www.w3.org/1999/xlink" width="200" height="200"><defs><style type="text/css"></style></defs><path d="M147.089318 303.970702h767.947915v32.084639H147.089318zM127.921872 463.977213h768.156256v32.084638H127.921872zM127.921872 623.983723h768.156256v32.084639H127.921872z" fill="#336699" p-id="3966"></path><path d="M343.97233 322.721465l43.126754 288.553408c-20.625839-5.416887-47.293591-1.458393-71.252899 15.625636-35.62645 25.626043-41.043337 63.33591-22.917599 84.170091 18.334079 20.625839 60.419125 24.16765 95.837233-1.250051 25.626043-18.334079 35.62645-43.126755 32.501322-63.33591l-32.918006-220.425636 219.383927-78.961546 29.584537 198.133062c-20.625839-5.625229-47.293591-1.458393-71.252899 15.625636-35.418108 25.626043-41.043337 63.33591-22.917599 84.170091 18.125738 20.625839 60.210783 24.375992 95.837233-1.250051 25.626043-18.334079 35.62645-43.126755 32.501322-63.33591l-53.127162-356.056155-274.386164 98.337335z" fill="#2196F3" p-id="3967"></path><path d="M387.099084 611.274873c-20.625839-5.416887-47.293591-1.458393-71.252899 15.625636-35.62645 25.626043-41.043337 63.33591-22.917599 84.170091 18.334079 20.625839 60.419125 24.16765 95.837233-1.250051 25.626043-18.334079 35.62645-43.126755 32.501322-63.33591-6.87528-21.667548-18.959105-31.667955-34.168057-35.209766zM637.317599 545.022177c-20.625839-5.625229-47.293591-1.458393-71.252899 15.625636-35.418108 25.626043-41.043337 63.33591-22.917599 84.170091 18.125738 20.625839 60.210783 24.375992 95.837233-1.25005 25.626043-18.334079 35.62645-43.126755 32.501322-63.335911-8.542014-14.792269-20.000814-26.667752-34.168057-35.209766z" fill="#01579B" p-id="3968"></path><path d="M236.884639 540.646999c13.333876-2.083418 23.542625-11.042116 24.584334-21.250865l11.667141-120.421566s26.45941 1.041709 48.126958 43.75178c0 0 2.083418-20.834181-16.250661-37.91821-36.043133-30.626246-35.209766-36.876501-35.209766-36.8765-7.500305 0.208342-8.750356 5.625229-8.750356 5.625229l-12.083825 126.880163c-5.416887-2.500102-11.875483-3.541811-18.750763-2.500102-15.417294 2.29176-26.251068 13.75056-24.584334 25.417701 1.041709 11.042116 15.833978 19.58413 31.251272 17.29237zM303.970702 591.482401c6.250254-1.666734 10.833774-6.458596 10.833774-11.4588l0.208342-58.335707s12.70885-0.625025 25.209359 18.959105c0 0 0-10.208749-9.583723-17.500712-18.750763-13.125534-18.542421-16.042319-18.542421-16.04232-3.541811 0.416684-3.958494 3.125127-3.958495 3.125128v61.669176c-2.708444-1.041709-5.833571-1.041709-9.16704-0.416684-7.291963 1.875076-12.083825 7.916989-10.625432 13.333876 0.833367 5.000203 8.333672 8.542014 15.625636 6.666938z" fill="#2196F3" p-id="3969"></path></svg>