<?xml version="1.0" standalone="no"?><!DOCTYPE svg PUBLIC "-//W3C//DTD SVG 1.1//EN" "http://www.w3.org/Graphics/SVG/1.1/DTD/svg11.dtd"><svg t="1569483368373" class="icon" viewBox="0 0 1024 1024" version="1.1" xmlns="http://www.w3.org/2000/svg" p-id="3726" xmlns:xlink="http://www.w3.org/1999/xlink" width="200" height="200"><defs><style type="text/css"></style></defs><path d="M308.762564 278.553001l65.62767 439.809563c-31.459613-8.333672-72.086267-2.29176-108.754425 23.750966-54.168871 39.16826-62.502543 96.6706-34.793083 128.338555 27.917803 31.459613 92.08708 37.084842 146.255952-2.083418 39.16826-27.917803 54.377213-65.836012 49.58535-96.462258l-50.210376-336.263683 334.388606-120.421566 45.001832 302.095625c-31.251272-8.542014-72.086267-2.29176-108.754426 23.750967-54.168871 39.16826-62.502543 96.6706-34.793082 128.338555 27.709461 31.459613 91.878739 37.084842 146.255951-2.083418 38.959919-27.917803 54.377213-65.836012 49.585351-96.462258l-81.253306-542.938759-418.142014 150.631129z" fill="#2196F3" p-id="3727"></path><path d="M374.390234 718.570905c-31.459613-8.333672-72.086267-2.29176-108.754425 23.750967-54.168871 39.16826-62.502543 96.6706-34.793083 128.338555 27.917803 31.459613 92.08708 37.084842 146.255952-2.083418 39.16826-27.917803 54.377213-65.836012 49.58535-96.462258-10.625432-32.918006-29.376195-48.126958-52.293794-53.543846zM755.86409 617.525127c-31.251272-8.542014-72.086267-2.29176-108.754426 23.750967-54.168871 39.16826-62.502543 96.6706-34.793082 128.338555 27.709461 31.459613 91.878739 37.084842 146.255951-2.083418 38.959919-27.917803 54.377213-65.836012 49.585351-96.462258-13.333876-22.500916-30.626246-40.626653-52.293794-53.543846z" fill="#01579B" p-id="3728"></path></svg>