<?xml version="1.0" standalone="no"?><!DOCTYPE svg PUBLIC "-//W3C//DTD SVG 1.1//EN" "http://www.w3.org/Graphics/SVG/1.1/DTD/svg11.dtd"><svg t="1569483376181" class="icon" viewBox="0 0 1024 1024" version="1.1" xmlns="http://www.w3.org/2000/svg" p-id="4207" xmlns:xlink="http://www.w3.org/1999/xlink" width="200" height="200"><defs><style type="text/css"></style></defs><path d="M893.786368 418.142014c6.250254-6.250254 6.250254-16.459003 0-22.709257s-16.459003-6.250254-22.709257 0l-194.38291 194.382909c-6.250254 6.250254-6.250254 16.459003 0 22.709258s16.459003 6.250254 22.709258 0l194.382909-194.38291z" fill="#F44336" p-id="4208"></path><path d="M699.403459 395.432757c-6.250254-6.250254-16.459003-6.250254-22.709258 0s-6.250254 16.459003 0 22.709257l194.38291 194.38291c6.250254 6.250254 16.459003 6.250254 22.709257 0s6.250254-16.459003 0-22.709258l-194.382909-194.382909zM592.315768 156.048016l0.625025-0.625025 2.916786-2.500102 28.959512-25.001017V896.078128l-28.959512-25.001017-3.541811-3.125127z" fill="#F44336" p-id="4209"></path><path d="M592.315768 512.104171v355.847813l-220.217294-189.174364H205.841709v-166.673449z" fill="#C2C2C2" p-id="4210"></path><path d="M205.841709 345.22238H372.306816l220.008952-189.174364v365.639878H205.841709v-0.416683z" fill="#CCCCCC" p-id="4211"></path><path d="M177.507223 345.22238h28.334486v333.763581H177.507223c-12.292167 0-23.334283-5.000203-31.459614-13.125534-8.125331-8.125331-13.125534-19.167447-13.125534-31.459613V389.599186c0-12.292167 5.000203-23.334283 13.125534-31.459613 8.125331-7.916989 19.167447-12.917192 31.459614-12.917193z" fill="#F44336" p-id="4212"></path></svg>