<?xml version="1.0" standalone="no"?><!DOCTYPE svg PUBLIC "-//W3C//DTD SVG 1.1//EN" "http://www.w3.org/Graphics/SVG/1.1/DTD/svg11.dtd"><svg t="1569483380750" class="icon" viewBox="0 0 1024 1024" version="1.1" xmlns="http://www.w3.org/2000/svg" p-id="4579" xmlns:xlink="http://www.w3.org/1999/xlink" width="200" height="200"><defs><style type="text/css"></style></defs><path d="M512.104171 400.016277m-160.006511 0a160.006511 160.006511 0 1 0 320.013022 0 160.006511 160.006511 0 1 0-320.013022 0Z" fill="#333333" p-id="4580"></path><path d="M527.938149 573.981689c0-7.708647-7.083622-13.958901-16.04232-13.958902s-16.042319 6.250254-16.042319 13.958902v292.095218c0 7.708647 7.083622 13.958901 16.042319 13.958902 8.750356 0 16.042319-6.250254 16.04232-13.958902V573.981689z" fill="#424242" p-id="4581"></path><path d="M512.104171 400.016277m-84.795117 0a84.795117 84.795117 0 1 0 169.590234 0 84.795117 84.795117 0 1 0-169.590234 0Z" fill="#FFC107" p-id="4582"></path><path d="M512.104171 400.016277m-63.960936 0a63.960936 63.960936 0 1 0 127.921872 0 63.960936 63.960936 0 1 0-127.921872 0Z" fill="#333333" p-id="4583"></path><path d="M528.563174 779.406714c-5.208545-3.125127-12.083825-1.250051-15.208952 3.958495s-1.250051 12.083825 3.958494 15.208952l133.130417 76.878128c5.208545 3.125127 12.083825 1.250051 15.208952-3.958494s1.250051-12.083825-3.958494-15.208953l-133.130417-76.878128zM495.436826 779.406714c5.208545-3.125127 12.083825-1.250051 15.208952 3.958495s1.250051 12.083825-3.958494 15.208952l-133.130417 76.878128c-5.208545 3.125127-12.083825 1.250051-15.208952-3.958494s-1.250051-12.083825 3.958494-15.208953l133.130417-76.878128z" fill="#424242" p-id="4584"></path><path d="M743.363581 560.022787l-105.004273-78.961546c15.833978-23.125941 25.001017-51.043744 25.001018-81.044964 0-25.626043-6.666938-49.585351-18.33408-70.419532l98.337335-73.54466v303.970702z" fill="#4D4D4D" p-id="4585"></path><path d="M775.44822 263.969074V583.982096l-25.626043-19.167447-6.250254-4.791862h-0.208342V256.052085l0.625025-0.416683 5.833571-4.375178 25.626043-19.167447z" fill="#333333" p-id="4586"></path><path d="M280.844761 560.022787l105.004273-78.961546c-15.833978-23.125941-25.001017-51.043744-25.001018-81.044964 0-25.626043 6.666938-49.585351 18.33408-70.419532l-98.337335-73.54466v303.970702z" fill="#4D4D4D" p-id="4587"></path><path d="M248.760122 263.969074V583.982096l25.626043-19.167447 6.458596-4.791862V256.052085l-0.625025-0.416683-5.833571-4.375178-25.626043-19.167447z" fill="#333333" p-id="4588"></path><path d="M663.985351 167.298474l-78.961546 105.004273c-23.125941-15.833978-51.043744-25.001017-81.044965-25.001018-25.626043 0-49.585351 6.666938-70.419532 18.33408l-73.544659-98.337335h303.970702z" fill="#4D4D4D" p-id="4589"></path><path d="M367.931638 135.213835H687.944659L668.777213 160.839878l-4.791862 6.458596H360.014649l-0.416684-0.625025-4.375178-5.833571-19.167446-25.626043z" fill="#333333" p-id="4590"></path><path d="M663.985351 632.942421l-78.961546-105.004272c-23.125941 15.833978-51.043744 25.001017-81.044965 25.001017-25.626043 0-49.585351-6.666938-70.419532-18.33408l-73.544659 98.337335h303.970702z" fill="#4D4D4D" p-id="4591"></path><path d="M367.931638 665.02706H687.944659l-19.167446-25.626043-4.791862-6.458596H360.014649l-0.416684 0.625026-4.375178 5.83357-19.167446 25.626043z" fill="#333333" p-id="4592"></path></svg>