<?xml version="1.0" standalone="no"?><!DOCTYPE svg PUBLIC "-//W3C//DTD SVG 1.1//EN" "http://www.w3.org/Graphics/SVG/1.1/DTD/svg11.dtd"><svg t="1569483387231" class="icon" viewBox="0 0 1024 1024" version="1.1" xmlns="http://www.w3.org/2000/svg" p-id="5076" xmlns:xlink="http://www.w3.org/1999/xlink" width="200" height="200"><defs><style type="text/css"></style></defs><path d="M144.797558 228.134283h751.28057V795.865717H127.921872V228.134283z" fill="#E84C3D" p-id="5077"></path><path d="M160.006511 260.218922v503.562156h703.986978V260.218922z" fill="#FFFFFF" p-id="5078"></path><path d="M295.012004 260.218922v268.552594H194.799593V260.218922h100.212411z" fill="#424242" p-id="5079"></path><path d="M252.926958 528.771516v235.009562h-16.042319V528.771516z" fill="#808080" p-id="5080"></path><path d="M428.559105 260.218922v268.552594h-100.212411V260.218922h100.212411z" fill="#424242" p-id="5081"></path><path d="M386.474059 528.771516v235.009562h-16.042319V528.771516z" fill="#808080" p-id="5082"></path><path d="M829.200407 260.218922v268.552594h-100.212411V260.218922H829.200407z" fill="#424242" p-id="5083"></path><path d="M787.115361 528.771516v235.009562h-16.042319V528.771516z" fill="#808080" p-id="5084"></path><path d="M695.653306 260.218922v268.552594h-100.212411V260.218922h100.212411z" fill="#424242" p-id="5085"></path><path d="M653.56826 528.771516v235.009562H637.525941V528.771516zM520.02116 260.218922v503.562156h-16.04232V260.218922z" fill="#808080" p-id="5086"></path></svg>