<?xml version="1.0" standalone="no"?><!DOCTYPE svg PUBLIC "-//W3C//DTD SVG 1.1//EN" "http://www.w3.org/Graphics/SVG/1.1/DTD/svg11.dtd"><svg t="1569483379296" class="icon" viewBox="0 0 1024 1024" version="1.1" xmlns="http://www.w3.org/2000/svg" p-id="4459" xmlns:xlink="http://www.w3.org/1999/xlink" width="200" height="200"><defs><style type="text/css"></style></defs><path d="M512.104171 127.921872c106.045982 0 202.091556 42.918413 271.469379 112.504578 69.586165 69.586165 112.504578 165.423398 112.504578 271.469379 0 106.045982-42.918413 202.091556-112.504578 271.46938-69.586165 69.586165-165.423398 112.504578-271.469379 112.504577-106.045982 0-202.091556-42.918413-271.46938-112.504577-69.586165-69.586165-112.504578-165.423398-112.504577-271.46938 0-106.045982 42.918413-202.091556 112.504577-271.469379 69.377823-69.377823 165.423398-112.504578 271.46938-112.504578z" fill="#00C9CA" p-id="4460"></path><path d="M647.73469 376.26531c-34.793082-34.793082-82.711699-56.252289-135.838861-56.252289s-101.045778 21.459207-135.838861 56.252289c-34.793082 34.793082-56.252289 82.711699-56.252288 135.838861s21.459207 101.045778 56.252288 135.838861c34.793082 34.793082 82.711699 56.252289 135.838861 56.252288s101.045778-21.459207 135.838861-56.252288c34.793082-34.793082 56.252289-82.711699 56.252289-135.838861s-21.459207-101.045778-56.252289-135.838861z" fill="#424242" p-id="4461"></path><path d="M613.774975 410.225025c-26.042726-26.042726-62.08586-42.085046-101.879146-42.085045-39.793286 0-75.836419 16.042319-101.879145 42.085045s-42.085046 62.08586-42.085046 101.879146c0 39.793286 16.042319 75.836419 42.085046 101.879145s62.08586 42.085046 101.879145 42.085046c39.793286 0 75.836419-16.042319 101.879146-42.085046s42.085046-62.08586 42.085045-101.879145c0.208342-39.793286-16.042319-75.836419-42.085045-101.879146z" fill="#F44336" p-id="4462"></path></svg>