<?xml version="1.0" standalone="no"?><!DOCTYPE svg PUBLIC "-//W3C//DTD SVG 1.1//EN" "http://www.w3.org/Graphics/SVG/1.1/DTD/svg11.dtd"><svg t="1569483395150" class="icon" viewBox="0 0 1024 1024" version="1.1" xmlns="http://www.w3.org/2000/svg" p-id="5686" xmlns:xlink="http://www.w3.org/1999/xlink" width="200" height="200"><defs><style type="text/css"></style></defs><path d="M780.03174 538.771923H244.176602V127.921872h535.855138z" fill="#795548" p-id="5687"></path><path d="M833.575585 717.320855v117.921464c0 16.667345-6.87528 31.876297-17.917396 42.918413-11.042116 11.042116-26.251068 17.917396-42.918413 17.917396H251.260224c-16.667345 0-31.876297-6.87528-42.918413-17.917396-11.042116-11.042116-17.917396-26.251068-17.917396-42.918413v-117.921464h643.15117z" fill="#4D4D4D" p-id="5688"></path><path d="M251.260224 538.771923h521.479552c16.667345 0 31.876297 7.083622 42.918413 18.750763 11.042116 11.4588 17.917396 27.501119 17.917396 45.001831v123.338352H190.424415V602.524517c0-17.500712 6.87528-33.33469 17.917396-45.001831 11.042116-11.667141 26.251068-18.750763 42.918413-18.750763z" fill="#666666" p-id="5689"></path><path d="M190.424415 654.818311c0-9.792065-7.916989-17.917396-17.917396-17.917395-9.792065 0-17.917396 7.916989-17.917395 17.917395v125.005087c0 9.792065 7.916989 17.917396 17.917395 17.917395 9.792065 0 17.917396-7.916989 17.917396-17.917395v-125.005087zM869.202035 654.818311c0-9.792065-7.916989-17.917396-17.917396-17.917395-9.792065 0-17.917396 7.916989-17.917396 17.917395v125.005087c0 9.792065 7.916989 17.917396 17.917396 17.917395s17.917396-7.916989 17.917396-17.917395v-125.005087z" fill="#333333" p-id="5690"></path><path d="M892.119634 677.319227c0-6.250254-5.208545-11.4588-11.4588-11.4588s-11.4588 5.208545-11.458799 11.4588v80.003255c0 6.250254 5.208545 11.4588 11.458799 11.4588s11.4588-5.208545 11.4588-11.4588v-80.003255zM154.797965 677.319227c0-6.250254-5.208545-11.4588-11.458799-11.4588s-11.4588 5.208545-11.4588 11.4588v80.003255c0 6.250254 5.208545 11.4588 11.4588 11.4588s11.4588-5.208545 11.458799-11.4588v-80.003255z" fill="#4D4D4D" p-id="5691"></path><path d="M386.890743 181.674059h250.010173c9.792065 0 18.750763 3.958494 25.209359 10.417091 6.458596 6.458596 10.417091 15.417294 10.41709 25.209359v232.092777c0 9.792065-3.958494 18.750763-10.41709 25.209359-6.458596 6.458596-15.417294 10.417091-25.209359 10.417091h-250.010173c-9.792065 0-18.750763-3.958494-25.209359-10.417091-6.458596-6.458596-10.417091-15.417294-10.417091-25.209359V217.300509c0-9.792065 3.958494-18.750763 10.417091-25.209359 6.458596-6.458596 15.417294-10.417091 25.209359-10.417091z" fill="#FFFFFF" p-id="5692"></path><path d="M315.637843 306.887487v71.2529h-35.834791v-71.2529zM315.637843 199.383113V270.844354h-35.834791V199.383113zM315.637843 414.18352v71.461241h-35.834791v-71.461241zM744.196948 199.383113V270.844354h-35.62645V199.383113zM744.196948 306.887487v71.2529h-35.62645v-71.2529zM744.196948 414.18352v71.461241h-35.62645v-71.461241z" fill="#B37F6E" p-id="5693"></path></svg>