<?xml version="1.0" standalone="no"?><!DOCTYPE svg PUBLIC "-//W3C//DTD SVG 1.1//EN" "http://www.w3.org/Graphics/SVG/1.1/DTD/svg11.dtd"><svg t="1569483396672" class="icon" viewBox="0 0 1024 1024" version="1.1" xmlns="http://www.w3.org/2000/svg" p-id="5810" xmlns:xlink="http://www.w3.org/1999/xlink" width="200" height="200"><defs><style type="text/css"></style></defs><path d="M306.679145 127.921872h410.850051c9.792065 0 18.750763 3.958494 25.209359 10.41709 6.458596 6.458596 10.417091 15.417294 10.417091 25.209359v696.486674c0 9.792065-3.958494 18.750763-10.417091 25.209359-6.458596 6.458596-15.417294 10.417091-25.209359 10.417091H306.679145c-9.792065 0-18.750763-3.958494-25.209359-10.417091-6.458596-6.458596-10.417091-15.417294-10.41709-25.209359V163.756663c0-9.792065 3.958494-18.750763 10.41709-25.209359 6.458596-6.458596 15.208952-10.625432 25.209359-10.625432z" fill="#464748" p-id="5811"></path><path d="M306.679145 143.964191c-5.208545 0-10.208749 2.083418-13.958901 5.833571s-5.833571 8.750356-5.833571 13.958901v696.486674c0 5.208545 2.083418 10.208749 5.833571 13.958901 3.750153 3.750153 8.750356 5.833571 13.958901 5.833571h410.850051c5.208545 0 10.208749-2.083418 13.958902-5.833571 3.750153-3.750153 5.833571-8.750356 5.83357-13.958901V163.756663c0-5.208545-2.083418-10.208749-5.83357-13.958901-3.750153-3.750153-8.750356-5.833571-13.958902-5.833571H306.679145z" fill="#5C5D5E" p-id="5812"></path><path d="M562.522889 291.886877c-12.917192-12.917192-30.834588-20.834181-50.418718-20.834181-19.792472 0-37.501526 7.916989-50.418718 20.834181-12.917192 12.917192-20.834181 30.834588-20.834181 50.418718 0 19.792472 7.916989 37.501526 20.834181 50.418718 12.917192 12.917192 30.834588 20.834181 50.418718 20.834181 19.792472 0 37.501526-7.916989 50.418718-20.834181 12.917192-12.917192 20.834181-30.834588 20.834181-50.418718 0.208342-19.792472-7.916989-37.501526-20.834181-50.418718z" fill="#424242" p-id="5813"></path><path d="M512.104171 235.217904c29.584537 0 56.460631 12.083825 75.836419 31.459614 19.375788 19.375788 31.459613 46.251882 31.459613 75.836419s-12.083825 56.460631-31.459613 75.836419c-19.375788 19.375788-46.251882 31.459613-75.836419 31.459613s-56.460631-12.083825-75.836419-31.459613c-19.375788-19.375788-31.459613-46.251882-31.459614-75.836419s12.083825-56.460631 31.459614-75.836419c19.375788-19.58413 46.251882-31.459613 75.836419-31.459614z" fill="#424242" p-id="5814"></path><path d="M512.104171 520.854527c41.876704 0 79.794914 17.084028 107.296032 44.376806 27.501119 27.501119 44.376806 65.419329 44.376806 107.296032s-17.084028 79.794914-44.376806 107.296033c-27.501119 27.501119-65.419329 44.376806-107.296032 44.376805s-79.794914-17.084028-107.296033-44.376805c-27.501119-27.501119-44.376806-65.419329-44.376805-107.296033s17.084028-79.794914 44.376805-107.296032c27.292777-27.292777 65.210987-44.376806 107.296033-44.376806zM681.694405 181.674059c9.792065 0 17.917396 7.916989 17.917396 17.917396 0 9.792065-7.916989 17.917396-17.917396 17.917395-9.792065 0-17.917396-7.916989-17.917396-17.917395s8.125331-17.917396 17.917396-17.917396z" fill="#464748" p-id="5815"></path><path d="M512.104171 560.022787c31.04293 0 59.377416 12.70885 79.794913 33.126348 20.417497 20.417497 33.126348 48.543642 33.126348 79.794914 0 31.04293-12.70885 59.377416-33.126348 79.794913-20.417497 20.417497-48.543642 33.126348-79.794913 33.126348-31.04293 0-59.377416-12.70885-79.794914-33.126348-20.417497-20.417497-33.126348-48.543642-33.126348-79.794913 0-31.04293 12.70885-59.377416 33.126348-79.794914 20.417497-20.417497 48.543642-33.126348 79.794914-33.126348z" fill="#FFBF5C" p-id="5816"></path><path d="M340.638861 181.674059c9.792065 0 17.917396 7.916989 17.917395 17.917396 0 9.792065-7.916989 17.917396-17.917395 17.917395s-17.917396-7.916989-17.917396-17.917395 8.125331-17.917396 17.917396-17.917396zM681.694405 806.699491c9.792065 0 17.917396 7.916989 17.917396 17.917396 0 9.792065-7.916989 17.917396-17.917396 17.917396-9.792065 0-17.917396-7.916989-17.917396-17.917396 0-9.792065 8.125331-17.917396 17.917396-17.917396zM340.638861 806.699491c9.792065 0 17.917396 7.916989 17.917395 17.917396 0 9.792065-7.916989 17.917396-17.917395 17.917396s-17.917396-7.916989-17.917396-17.917396c0-9.792065 8.125331-17.917396 17.917396-17.917396z" fill="#464748" p-id="5817"></path><path d="M539.188606 645.651272c-6.87528-6.87528-16.459003-11.250458-27.084435-11.250458s-20.209156 4.375178-27.084435 11.250458c-6.87528 6.87528-11.250458 16.459003-11.250458 27.084435s4.375178 20.209156 11.250458 27.084435c6.87528 6.87528 16.459003 11.250458 27.084435 11.250458s20.209156-4.375178 27.084435-11.250458c6.87528-6.87528 11.250458-16.459003 11.250458-27.084435s-4.375178-20.209156-11.250458-27.084435z" fill="#424242" p-id="5818"></path><path d="M512.104171 609.81648c17.29237 0 33.126348 7.083622 44.376806 18.33408 11.4588 11.4588 18.334079 27.084435 18.334079 44.376805s-7.083622 33.126348-18.334079 44.376806c-11.4588 11.4588-27.084435 18.334079-44.376806 18.334079s-33.126348-7.083622-44.376806-18.334079c-11.4588-11.4588-18.334079-27.084435-18.334079-44.376806s7.083622-33.126348 18.334079-44.376805 26.876094-18.334079 44.376806-18.33408zM512.104171 289.595117c14.583927 0 27.709461 5.833571 37.293184 15.417294 9.583723 9.583723 15.417294 22.709257 15.417294 37.293184 0 14.583927-5.833571 27.709461-15.417294 37.293184-9.583723 9.583723-22.709257 15.417294-37.293184 15.417294s-27.709461-5.833571-37.293184-15.417294c-9.583723-9.583723-15.417294-22.709257-15.417294-37.293184 0-14.583927 5.833571-27.709461 15.417294-37.293184 9.375381-9.583723 22.709257-15.417294 37.293184-15.417294z" fill="#333333" p-id="5819"></path></svg>