<?xml version="1.0" standalone="no"?><!DOCTYPE svg PUBLIC "-//W3C//DTD SVG 1.1//EN" "http://www.w3.org/Graphics/SVG/1.1/DTD/svg11.dtd"><svg t="1569483406152" class="icon" viewBox="0 0 1024 1024" version="1.1" xmlns="http://www.w3.org/2000/svg" p-id="6576" xmlns:xlink="http://www.w3.org/1999/xlink" width="200" height="200"><defs><style type="text/css"></style></defs><path d="M127.921872 720.029298H895.869786V800.032553H127.921872z" fill="#4D4D4D" p-id="6577"></path><path d="M127.921872 127.921872H895.869786v616.066734H127.921872z" fill="#666666" p-id="6578"></path><path d="M711.487284 127.921872H895.869786v321.263072c-119.379858-31.667955-205.841709-123.13001-205.841709-230.842726 0-31.876297 7.500305-62.502543 21.459207-90.420346z" fill="#E95249" p-id="6579"></path><path d="M759.197558 127.921872H895.869786v321.263072c-88.54527-31.667955-152.506205-123.13001-152.506205-230.842726 0-31.876297 5.625229-62.502543 15.833977-90.420346z" fill="#AF3E36" p-id="6580"></path><path d="M793.573957 127.921872H895.869786v321.263072c-66.252696-31.667955-113.96297-123.13001-113.96297-230.842726 0-31.876297 4.166836-62.502543 11.667141-90.420346z" fill="#E95249" p-id="6581"></path><path d="M844.826043 127.921872H895.869786v321.263072c-33.126348-31.667955-57.085656-123.13001-57.085656-230.842726 0-31.876297 2.083418-62.502543 6.041913-90.420346z" fill="#AF3E36" p-id="6582"></path><path d="M312.512716 127.921872H127.921872v321.263072c119.379858-31.667955 205.841709-123.13001 205.841709-230.842726 0-31.876297-7.500305-62.502543-21.250865-90.420346z" fill="#E95249" p-id="6583"></path><path d="M264.802442 127.921872H127.921872v321.263072c88.54527-31.667955 152.506205-123.13001 152.506205-230.842726 0-31.876297-5.625229-62.502543-15.625635-90.420346z" fill="#AF3E36" p-id="6584"></path><path d="M230.217701 127.921872H127.921872v321.263072c66.252696-31.667955 113.96297-123.13001 113.96297-230.842726 0.208342-31.876297-3.958494-62.502543-11.667141-90.420346z" fill="#E95249" p-id="6585"></path><path d="M179.173957 127.921872H127.921872v321.263072c33.126348-31.667955 57.085656-123.13001 57.085656-230.842726 0-31.876297-2.083418-62.502543-5.833571-90.420346zM752.113937 127.921872c-26.667752 96.045575-123.755036 167.506816-239.384741 167.506816-115.838047 0-212.925331-71.252899-239.38474-167.506816H752.113937z" fill="#AF3E36" p-id="6586"></path><path d="M743.155239 127.921872c-25.626043 96.045575-119.171516 167.506816-230.634384 167.506816s-205.008342-71.252899-230.634385-167.506816h461.268769z" fill="#E95249" p-id="6587"></path><path d="M743.155239 127.921872c-25.626043 65.002645-119.171516 113.337945-230.634384 113.337945s-205.008342-48.3353-230.634385-113.337945h461.268769z" fill="#AF3E36" p-id="6588"></path><path d="M743.155239 127.921872C717.529196 168.965209 623.983723 199.174771 512.520855 199.174771S307.512513 168.756867 281.88647 127.921872h461.268769z" fill="#E95249" p-id="6589"></path><path d="M743.155239 127.921872c-25.626043 20.417497-119.171516 35.62645-230.634384 35.626449s-205.008342-15.208952-230.634385-35.626449h461.268769z" fill="#AF3E36" p-id="6590"></path><path d="M895.869786 447.934893h-9.792065c-23.750966 80.211597-31.459613 164.173347-9.792065 255.42706 2.083418 8.750356 2.916785 16.667345 12.083825 16.667345h0.208342c9.16704 0 7.291963-7.708647 7.291963-16.667345V447.934893z" fill="#742924" p-id="6591"></path><path d="M866.285249 447.934893h19.792472c-11.250458 87.503561-15.833978 173.132045-9.792065 255.42706 0.625025 8.542014-11.875483 16.667345-21.042523 16.667345h-0.208342c-9.16704 0-11.4588-7.291963-12.083825-16.667345-5.833571-92.08708-9.375381-187.715972 23.334283-255.42706z" fill="#AF3E36" p-id="6592"></path><path d="M866.285249 447.934893h-19.792472c-25.209359 73.127976-37.084842 158.75646-37.084842 255.42706 0 9.375381 2.916785 16.667345 12.083825 16.667345h0.208342c9.16704 0 20.834181-7.500305 21.042523-16.667345 2.29176-85.003459 9.375381-170.215259 23.542624-255.42706z" fill="#742924" p-id="6593"></path><path d="M824.200203 447.934893h22.292574c-23.542625 84.378433-36.043133 169.381892-37.084842 255.42706 0 8.958698-11.875483 16.667345-21.042523 16.667345h-0.208342c-9.16704 0-12.292167-7.500305-12.083825-16.667345 2.916785-95.837233 19.375788-180.63235 48.126958-255.42706z" fill="#AF3E36" p-id="6594"></path><path d="M822.325127 427.309054H895.869786v23.125941h-73.544659c-5.625229 0-10.208749-5.208545-10.208749-11.667141 0-6.250254 4.58352-11.4588 10.208749-11.4588z" fill="#015176" p-id="6595"></path><path d="M895.869786 441.476297v-5.208545h-82.503357c-0.833367 0-1.250051 2.083418-1.250051 2.500102 0 0.625025 0.416684 2.500102 1.250051 2.500101l82.503357 0.208342z" fill="#0E6891" p-id="6596"></path><path d="M128.130214 447.934893h9.792065c23.750966 80.211597 31.459613 164.173347 9.792065 255.42706-2.083418 8.750356-2.916785 16.667345-12.083825 16.667345H135.422177c-9.16704 0-7.291963-7.708647-7.291963-16.667345V447.934893z" fill="#742924" p-id="6597"></path><path d="M157.714751 447.934893h-19.792472c11.250458 87.503561 15.833978 173.132045 9.792065 255.42706-0.625025 8.542014 11.875483 16.667345 21.042523 16.667345h0.208342c9.16704 0 11.4588-7.291963 12.083825-16.667345 5.833571-92.08708 9.583723-187.715972-23.334283-255.42706z" fill="#AF3E36" p-id="6598"></path><path d="M157.714751 447.934893h19.792472c25.209359 73.127976 37.084842 158.75646 37.084842 255.42706 0 9.375381-2.916785 16.667345-12.083825 16.667345H202.091556c-9.16704 0-20.834181-7.500305-21.042522-16.667345-2.083418-85.003459-9.16704-170.215259-23.334283-255.42706z" fill="#742924" p-id="6599"></path><path d="M199.799797 447.934893H177.507223c23.542625 84.378433 36.043133 169.381892 37.084842 255.42706 0 8.958698 11.875483 16.667345 21.042523 16.667345h0.208342c9.16704 0 12.292167-7.500305 12.083825-16.667345-2.916785-95.837233-19.167447-180.63235-48.126958-255.42706z" fill="#AF3E36" p-id="6600"></path><path d="M201.674873 427.309054H128.130214v23.125941h73.544659c5.625229 0 10.208749-5.208545 10.208749-11.667141 0-6.250254-4.58352-11.4588-10.208749-11.4588z" fill="#015176" p-id="6601"></path><path d="M128.130214 441.476297v-5.208545h82.503357c0.833367 0 1.250051 2.083418 1.250051 2.500102 0 0.625025-0.416684 2.500102-1.250051 2.500101l-82.503357 0.208342z" fill="#0E6891" p-id="6602"></path><path d="M317.51292 607.941404h80.003255v176.04883h-80.003255z" fill="#FB8C00" p-id="6603"></path><path d="M317.51292 607.941404h80.003255v27.917803h-80.003255z" fill="#E37D00" p-id="6604"></path><path d="M296.88708 600.64944h121.463276v31.667956h-121.463276z" fill="#E65100" p-id="6605"></path><path d="M328.555036 580.231943a5.416887 4.166836 90 1 0 8.333672 0 5.416887 4.166836 90 1 0-8.333672 0Z" fill="#212121" p-id="6606"></path></svg>