<?xml version="1.0" standalone="no"?><!DOCTYPE svg PUBLIC "-//W3C//DTD SVG 1.1//EN" "http://www.w3.org/Graphics/SVG/1.1/DTD/svg11.dtd"><svg t="1569483398334" class="icon" viewBox="0 0 1024 1024" version="1.1" xmlns="http://www.w3.org/2000/svg" p-id="5936" xmlns:xlink="http://www.w3.org/1999/xlink" width="200" height="200"><defs><style type="text/css"></style></defs><path d="M187.50763 285.844964h296.678738l-104.170905-104.170905a19.74247 19.74247 0 0 1 27.917803-27.917803l104.170905 104.170906 104.170905-104.170906a19.74247 19.74247 0 0 1 27.917803 27.917803l-104.170905 104.170905h296.678738c16.875687 0 32.084639 8.125331 42.918413 21.250865 10.000407 12.083825 16.042319 28.542828 16.04232 46.251882V808.366226c0 17.709054-6.250254 34.168057-16.04232 46.251882-10.833774 13.125534-26.042726 21.250865-42.918413 21.250865H187.50763c-16.875687 0-32.084639-8.125331-42.918413-21.250865-10.000407-12.083825-16.042319-28.542828-16.04232-46.251882V353.347711c0-17.709054 6.250254-34.168057 16.04232-46.251882 10.833774-13.125534 25.834385-21.250865 42.918413-21.250865z" fill="#E7B248" p-id="5937"></path><path d="M484.186368 285.844964l-104.170905-104.170905a19.74247 19.74247 0 0 1 27.917803-27.917803l104.170905 104.170906 104.170905-104.170906a19.74247 19.74247 0 0 1 27.917803 27.917803l-104.170905 104.170905h-55.835606z" fill="#999999" p-id="5938"></path><path d="M822.116785 502.103764c10.833774 0 19.58413 8.750356 19.584131 19.58413s-8.750356 19.58413-19.584131 19.58413-19.58413-8.750356-19.58413-19.58413 8.750356-19.58413 19.58413-19.58413z" fill="#424242" p-id="5939"></path><path d="M234.801221 373.97355h475.852696c12.70885 0 23.750966 6.458596 31.251271 17.084029 6.250254 8.542014 10.000407 20.000814 10.000407 32.292981v315.221159c0 12.292167-3.750153 23.750966-10.000407 32.292981-7.500305 10.625432-18.750763 17.084028-31.251271 17.084028H234.801221c-12.70885 0-23.750966-6.458596-31.251272-17.084028-6.250254-8.542014-10.000407-20.000814-10.000407-32.292981V423.35056c0-12.292167 3.750153-23.750966 10.000407-32.292981 7.500305-10.625432 18.542421-17.084028 31.251272-17.084029z" fill="#FFFFFF" p-id="5940"></path><path d="M234.801221 390.01587c-7.708647 0-13.958901 4.375178-18.33408 10.41709-4.791862 6.458596-7.083622 15.00061-7.083621 22.9176v315.221159c0 7.916989 2.29176 16.459003 7.083621 22.917599 4.375178 6.041913 10.625432 10.417091 18.33408 10.417091h475.852696c7.708647 0 13.958901-4.375178 18.334079-10.417091 4.791862-6.458596 7.083622-15.00061 7.083621-22.917599V423.35056c0-7.916989-2.29176-16.459003-7.083621-22.9176-4.375178-6.041913-10.625432-10.417091-18.334079-10.41709H234.801221z" fill="#A4D3CD" p-id="5941"></path><path d="M774.198169 616.066734h96.045575v16.04232h-96.045575z" fill="#795548" p-id="5942"></path><path d="M774.198169 640.026043h96.045575v16.042319h-96.045575zM774.198169 663.985351h96.045575v16.042319h-96.045575z" fill="#5D4037" p-id="5943"></path><path d="M774.198169 687.944659h96.045575v16.04232h-96.045575zM774.198169 712.112309h96.045575v15.833978h-96.045575z" fill="#795548" p-id="5944"></path><path d="M822.116785 387.932452c25.417701 0 46.04354 20.625839 46.043541 46.04354 0 25.417701-20.625839 46.04354-46.043541 46.04354-25.417701 0-46.04354-20.625839-46.04354-46.04354 0-25.417701 20.625839-46.04354 46.04354-46.04354z" fill="#333333" p-id="5945"></path><path d="M822.116785 401.266328c17.917396 0 32.501322 14.583927 32.501323 32.501322s-14.583927 32.501322-32.501323 32.501323-32.501322-14.583927-32.501322-32.501323 14.583927-32.501322 32.501322-32.501322z" fill="#FFFFFF" p-id="5946"></path><path d="M822.116785 409.6c13.542218 0 24.375992 10.833774 24.375992 24.375992 0 13.542218-10.833774 24.375992-24.375992 24.375992-13.542218 0-24.375992-10.833774-24.375992-24.375992 0-13.542218 10.833774-24.375992 24.375992-24.375992z" fill="#666666" p-id="5947"></path></svg>