<?xml version="1.0" standalone="no"?><!DOCTYPE svg PUBLIC "-//W3C//DTD SVG 1.1//EN" "http://www.w3.org/Graphics/SVG/1.1/DTD/svg11.dtd"><svg t="1569483401499" class="icon" viewBox="0 0 1024 1024" version="1.1" xmlns="http://www.w3.org/2000/svg" p-id="6191" xmlns:xlink="http://www.w3.org/1999/xlink" width="200" height="200"><defs><style type="text/css"></style></defs><path d="M300.428891 598.566022h227.509258v41.460021H300.428891zM266.260834 249.176806h296.053713v91.462055H266.260834z" fill="#34465E" p-id="6192"></path><path d="M259.385554 336.472024h309.595931v29.167854H259.385554z" fill="#415671" p-id="6193"></path><path d="M781.28179 479.394507a93.962157 22.500916 90 1 0 45.001832 0 93.962157 22.500916 90 1 0-45.001832 0Z" fill="#FFE082" p-id="6194"></path><path d="M623.358698 479.394507l3.541811-2.29176 165.840081-104.170906c6.87528-4.375178 15.00061 6.666938 15.00061 15.000611V570.856562c0 8.125331-7.916989 19.375788-15.00061 15.00061l-165.840081-104.170905-3.541811-2.29176z" fill="#415671" p-id="6195"></path><path d="M222.717396 349.8059h399.391251c13.75056 0 25.001017 11.250458 25.001017 25.001018V583.35707c0 13.75056-11.250458 25.001017-25.001017 25.001017H222.717396c-13.75056 0-25.001017-11.250458-25.001018-25.001017V374.598576c0-13.542218 11.250458-24.792675 25.001018-24.792676z" fill="#A5AAAD" p-id="6196"></path><path d="M206.883418 365.84822c-5.000203 0-9.16704 4.375178-9.16704 9.583723v223.550763c0 5.208545 4.166836 9.583723 9.16704 9.583723h414.600204c5.000203 0 9.16704-4.375178 9.167039-9.583723V375.223601c0-5.208545-4.166836-9.583723-9.167039-9.583723l-414.600204 0.208342zM643.984537 412.933469h91.670397v132.29705h-91.670397z" fill="#415671" p-id="6197"></path><path d="M670.443947 409.391658h41.46002v139.589013h-41.46002z" fill="#34465E" p-id="6198"></path><path d="M496.270193 230.842726m-102.712512 0a102.712513 102.712513 0 1 0 205.425025 0 102.712513 102.712513 0 1 0-205.425025 0Z" fill="#415671" p-id="6199"></path><path d="M496.270193 230.842726m-88.961953 0a88.961953 88.961953 0 1 0 177.923906 0 88.961953 88.961953 0 1 0-177.923906 0Z" fill="#A5AAAD" p-id="6200"></path><path d="M315.012818 249.176806m-85.628484 0a85.628484 85.628484 0 1 0 171.256968 0 85.628484 85.628484 0 1 0-171.256968 0Z" fill="#415671" p-id="6201"></path><path d="M315.012818 249.176806m-74.169685 0a74.169685 74.169685 0 1 0 148.33937 0 74.169685 74.169685 0 1 0-148.33937 0Z" fill="#A5AAAD" p-id="6202"></path><path d="M496.270193 230.842726m-59.377416 0a59.377416 59.377416 0 1 0 118.754832 0 59.377416 59.377416 0 1 0-118.754832 0Z" fill="#C0C1C2" p-id="6203"></path><path d="M315.012818 249.176806m-48.3353 0a48.3353 48.3353 0 1 0 96.6706 0 48.3353 48.3353 0 1 0-96.6706 0Z" fill="#C0C1C2" p-id="6204"></path><path d="M430.017497 640.026043v256.052085H397.932859V640.026043z" fill="#424242" p-id="6205"></path><path d="M496.061851 640.026043l59.7941 256.052085h-31.876297l-60.002441-256.052085zM331.888505 640.026043l-59.7941 256.052085h31.876297l60.002441-256.052085z" fill="#616161" p-id="6206"></path><path d="M557.522686 406.474873m-12.083825 0a12.083825 12.083825 0 1 0 24.16765 0 12.083825 12.083825 0 1 0-24.16765 0Z" fill="#34465E" p-id="6207"></path><path d="M265.635809 416.058596h214.383723v139.589013H265.635809z" fill="#34465E" p-id="6208"></path><path d="M557.522686 406.474873m-7.500306 0a7.500305 7.500305 0 1 0 15.000611 0 7.500305 7.500305 0 1 0-15.000611 0Z" fill="#FFE082" p-id="6209"></path><path d="M586.273856 406.474873m-12.083825 0a12.083825 12.083825 0 1 0 24.16765 0 12.083825 12.083825 0 1 0-24.16765 0Z" fill="#34465E" p-id="6210"></path><path d="M586.273856 406.474873m-7.500306 0a7.500305 7.500305 0 1 0 15.000611 0 7.500305 7.500305 0 1 0-15.000611 0Z" fill="#795548" p-id="6211"></path></svg>