<?xml version="1.0" standalone="no"?><!DOCTYPE svg PUBLIC "-//W3C//DTD SVG 1.1//EN" "http://www.w3.org/Graphics/SVG/1.1/DTD/svg11.dtd"><svg t="1569483404453" class="icon" viewBox="0 0 1024 1024" version="1.1" xmlns="http://www.w3.org/2000/svg" p-id="6452" xmlns:xlink="http://www.w3.org/1999/xlink" width="200" height="200"><defs><style type="text/css"></style></defs><path d="M192.09115 160.006511H847.95117V847.95117H176.04883V160.006511z" fill="#424242" p-id="6453"></path><path d="M752.113937 360.014649V447.934893c0 8.750356-3.541811 16.875687-9.375382 22.709258-5.833571 5.833571-13.75056 9.375381-22.709257 9.375381H303.970702c-8.750356 0-16.875687-3.541811-22.709257-9.375381-5.833571-5.833571-9.375381-13.75056-9.375382-22.709258v-87.920244H752.113937z" fill="#7FC3FA" p-id="6454"></path><path d="M303.970702 240.009766h416.058596c8.750356 0 16.875687 3.750153 22.709257 9.583723 5.833571 5.833571 9.375381 14.167243 9.375382 23.125941v89.586979H272.094405V272.511089c0-8.958698 3.541811-17.084028 9.375381-23.125941 5.625229-5.625229 13.75056-9.375381 22.500916-9.375382z" fill="#ABD9FF" p-id="6455"></path><path d="M752.113937 647.943032v87.920244c0 8.750356-3.541811 16.875687-9.375382 22.709257-5.833571 5.833571-13.75056 9.375381-22.709257 9.375382H303.970702c-8.750356 0-16.875687-3.541811-22.709257-9.375382-5.833571-5.833571-9.375381-13.75056-9.375382-22.709257V647.943032H752.113937z" fill="#7FC3FA" p-id="6456"></path><path d="M303.970702 527.938149h416.058596c8.750356 0 16.875687 3.750153 22.709257 9.583723 5.833571 5.833571 9.375381 14.167243 9.375382 23.125941v89.586978H272.094405V560.439471c0-8.958698 3.541811-17.084028 9.375381-23.125941 5.625229-5.625229 13.75056-9.375381 22.500916-9.375381z" fill="#ABD9FF" p-id="6457"></path><path d="M240.009766 240.009766v63.960936H207.925127v-63.960936zM240.009766 356.056155v63.960936H207.925127v-63.960936zM240.009766 703.986979v63.960936H207.925127v-63.960936zM240.009766 587.94059V652.109868H207.925127v-64.169278zM240.009766 472.102543v63.960936H207.925127v-63.960936z" fill="#666666" p-id="6458"></path><path d="M816.074873 703.986979v63.960936h-32.084639v-63.960936zM816.074873 587.94059V652.109868h-32.084639v-64.169278zM816.074873 356.056155v63.960936h-32.084639v-63.960936zM816.074873 472.102543v63.960936h-32.084639v-63.960936zM816.074873 240.009766v63.960936h-32.084639v-63.960936z" fill="#666666" p-id="6459"></path></svg>