<?xml version="1.0" standalone="no"?><!DOCTYPE svg PUBLIC "-//W3C//DTD SVG 1.1//EN" "http://www.w3.org/Graphics/SVG/1.1/DTD/svg11.dtd"><svg t="1569483403000" class="icon" viewBox="0 0 1024 1024" version="1.1" xmlns="http://www.w3.org/2000/svg" p-id="6328" xmlns:xlink="http://www.w3.org/1999/xlink" width="200" height="200"><defs><style type="text/css"></style></defs><path d="M592.315768 156.048016l0.625025-0.625025 2.916786-2.500102 28.959512-25.001017V896.078128l-28.959512-25.001017-3.541811-3.125127z" fill="#F44336" p-id="6329"></path><path d="M592.315768 512.104171v355.847813l-220.217294-189.174364H205.841709v-166.673449z" fill="#C2C2C2" p-id="6330"></path><path d="M205.841709 345.22238H372.306816l220.008952-189.174364v365.639878H205.841709v-0.416683z" fill="#CCCCCC" p-id="6331"></path><path d="M177.507223 345.22238h28.334486v333.763581H177.507223c-12.292167 0-23.334283-5.000203-31.459614-13.125534-8.125331-8.125331-13.125534-19.167447-13.125534-31.459613V389.599186c0-12.292167 5.000203-23.334283 13.125534-31.459613 8.125331-7.916989 19.167447-12.917192 31.459614-12.917193zM750.238861 519.187792v-0.625025c-0.416684-29.792879-4.166836-58.335707-10.417091-83.128382-6.458596-26.042726-15.625636-47.710275-26.876093-62.294202l27.917802-21.250865c14.167243 18.542421 25.417701 44.585148 32.918006 75.003052 6.87528 27.709461 11.042116 58.960732 11.4588 91.670397v0.416684l-35.001424 0.208341z" fill="#F44336" p-id="6332"></path><path d="M719.612614 668.568871c9.375381-16.042319 17.084028-37.084842 22.292574-61.252493 5.416887-24.792675 8.333672-52.710478 8.333673-81.461648v-6.666938H785.448627v6.666938c0 31.251272-3.333469 61.669176-9.16704 88.753612-6.041913 27.709461-15.00061 52.502136-26.45941 71.669583l-30.209563-17.709054z" fill="#E8382C" p-id="6333"></path><path d="M855.659817 519.187792v-0.416683c-0.833367-50.210376-6.87528-98.337335-17.29237-140.214039-11.042116-43.960122-26.667752-81.044964-46.043541-106.254323l27.917803-21.250865c22.292574 29.167854 40.001628 70.627874 52.085453 119.171516 11.250458 44.793489 17.709054 95.628891 18.542421 148.756053v0.208341h-35.209766z" fill="#F44336" p-id="6334"></path><path d="M803.782706 769.614649c16.042319-27.292777 28.959512-63.127569 37.91821-103.962564 9.16704-41.46002 13.958901-87.920244 13.958901-136.047202v-10.208749h35.209766v10.208749c0 50.418718-5.208545 99.587386-14.792269 143.547508-9.792065 44.376806-23.959308 83.753408-42.085045 114.379654l-30.209563-17.917396z" fill="#E8382C" p-id="6335"></path></svg>