<?xml version="1.0" standalone="no"?><!DOCTYPE svg PUBLIC "-//W3C//DTD SVG 1.1//EN" "http://www.w3.org/Graphics/SVG/1.1/DTD/svg11.dtd"><svg t="1569483399734" class="icon" viewBox="0 0 1024 1024" version="1.1" xmlns="http://www.w3.org/2000/svg" p-id="6064" xmlns:xlink="http://www.w3.org/1999/xlink" width="200" height="200"><defs><style type="text/css"></style></defs><path d="M146.255951 160.006511H896.078128v703.986978H127.921872V160.006511z" fill="#616161" p-id="6065"></path><path d="M404.391455 502.103764V264.385758h56.668972V502.103764h36.668159v56.460631h-36.668159v201.258189h-56.668972v-201.258189h-36.459817V502.103764z" fill="#575757" p-id="6066"></path><path d="M414.391862 274.386165h36.668158v475.436012h-36.668158V274.386165z" fill="#FFCC99" p-id="6067"></path><path d="M562.939573 428.975788v-164.59003h56.668972v164.59003h36.459817V485.436419h-36.459817v274.386165h-56.668972V485.436419h-36.459817v-56.460631z" fill="#575757" p-id="6068"></path><path d="M572.93998 274.386165h36.668158v475.436012H572.93998V274.386165z" fill="#FFCC99" p-id="6069"></path><path d="M721.487691 611.691556V264.385758h56.46063v347.305798H814.61648v56.668973h-36.668159v91.462055h-56.46063v-91.462055h-36.668159v-56.668973z" fill="#575757" p-id="6070"></path><path d="M731.488098 274.386165h36.668158v475.436012h-36.668158V274.386165z" fill="#FFCC99" p-id="6071"></path><path d="M302.512309 355.639471h36.668159v56.668973h-36.668159v347.51414h-56.46063V412.308444h-36.668159v-56.668973h36.668159v-91.253713h56.46063z" fill="#575757" p-id="6072"></path><path d="M292.511902 274.386165v91.253713H329.180061v36.668159h-36.668159v347.51414h-36.459817V402.308037h-36.668158v-36.668159h36.668158v-91.253713z" fill="#FFCC99" p-id="6073"></path><path d="M219.383927 365.639878H329.180061v36.668159h-109.796134zM377.932045 511.062462h109.796134v36.668159h-109.796134zM536.480163 438.142828h109.796134v36.668159h-109.796134zM694.403255 621.691963H804.19939V658.360122h-109.796135z" fill="#FB8C00" p-id="6074"></path></svg>