<?xml version="1.0" standalone="no"?><!DOCTYPE svg PUBLIC "-//W3C//DTD SVG 1.1//EN" "http://www.w3.org/Graphics/SVG/1.1/DTD/svg11.dtd"><svg t="1569483329149" class="icon" viewBox="0 0 1024 1024" version="1.1" xmlns="http://www.w3.org/2000/svg" p-id="1511" xmlns:xlink="http://www.w3.org/1999/xlink" width="200" height="200"><defs><style type="text/css"></style></defs><path d="M178.132248 275.01119H845.867752c11.4588 0 21.667548 5.208545 28.959511 13.75056 6.666938 7.708647 10.833774 18.334079 10.833775 29.584537v351.055951c0 11.4588-4.166836 21.87589-10.833775 29.584537-7.291963 8.542014-17.500712 13.75056-28.959511 13.75056H178.132248c-11.4588 0-21.667548-5.208545-28.959511-13.75056-6.666938-7.708647-10.833774-18.334079-10.833775-29.584537V318.346287c0-11.4588 4.166836-21.87589 10.833775-29.584537 7.291963-8.542014 17.500712-13.75056 28.959511-13.75056z" fill="#424242" p-id="1512"></path><path d="M178.132248 311.471007c-0.416684 0-1.250051 0.833367-1.458392 1.041709-1.250051 1.458393-2.083418 3.750153-2.083419 5.833571v351.055951c0 2.083418 0.625025 4.166836 2.083419 5.833571 0.208342 0.208342 1.041709 1.041709 1.458392 1.041709H845.867752c0.416684 0 1.250051-0.833367 1.458392-1.041709 1.250051-1.458393 2.083418-3.750153 2.083419-5.833571V318.346287c0-2.083418-0.625025-4.166836-2.083419-5.833571-0.208342-0.208342-1.041709-1.041709-1.458392-1.041709H178.132248z" fill="#E6E6E6" p-id="1513"></path><path d="M138.338962 712.528993c-10.000407 0-18.334079 8.125331-18.334079 18.334079 0 10.000407 8.125331 18.334079 18.334079 18.33408h747.530417c10.000407 0 18.334079-8.125331 18.33408-18.33408s-8.125331-18.334079-18.33408-18.334079H448.143235 138.338962z" fill="#424242" p-id="1514"></path><path d="M466.685656 712.528993h90.83703v23.542624H466.685656z" fill="#1A1A1A" p-id="1515"></path><path d="M188.966022 726.279552h16.667345v9.16704h-16.667345z" fill="#999999" p-id="1516"></path><path d="M229.384334 726.279552h16.667345v9.16704h-16.667345z" fill="#999999" p-id="1517"></path><path d="M870.868769 730.863072m-3.333469 0a3.333469 3.333469 0 1 0 6.666938 0 3.333469 3.333469 0 1 0-6.666938 0Z" fill="#64B5F6" p-id="1518"></path><path d="M846.076094 730.863072m-3.333469 0a3.333469 3.333469 0 1 0 6.666938 0 3.333469 3.333469 0 1 0-6.666938 0Z" fill="#66BB6A" p-id="1519"></path><path d="M211.258596 341.888911h601.69115v59.169075H211.258596z" fill="#F9AF32" p-id="1520"></path><path d="M211.258596 426.267345h236.259614v84.378433H211.258596z" fill="#4ED0AA" p-id="1521"></path><path d="M480.852899 426.267345h149.797762v84.378433h-149.797762zM663.151984 426.267345h149.797762v84.378433h-149.797762z" fill="#008F90" p-id="1522"></path><path d="M211.258596 536.271821h601.69115v18.334079H211.258596z" fill="#E8626D" p-id="1523"></path><path d="M211.258596 581.690336h601.69115v18.334079H211.258596zM211.258596 627.317192h601.69115v18.33408H211.258596z" fill="#B3B3B3" p-id="1524"></path></svg>