<?xml version="1.0" encoding="UTF-8" standalone="no"?>
<!-- Created with Inkscape (http://www.inkscape.org/) -->

<svg
   xmlns:dc="http://purl.org/dc/elements/1.1/"
   xmlns:cc="http://creativecommons.org/ns#"
   xmlns:rdf="http://www.w3.org/1999/02/22-rdf-syntax-ns#"
   xmlns:svg="http://www.w3.org/2000/svg"
   xmlns="http://www.w3.org/2000/svg"
   xmlns:sodipodi="http://sodipodi.sourceforge.net/DTD/sodipodi-0.dtd"
   xmlns:inkscape="http://www.inkscape.org/namespaces/inkscape"
   width="48"
   height="48"
   viewBox="0 0 12.7 12.7"
   version="1.1"
   id="svg8"
   sodipodi:docname="autumn.svg"
   inkscape:export-filename="D:\Octdev\Autumn\icons\autumn_blue.png"
   inkscape:export-xdpi="96"
   inkscape:export-ydpi="96"
   inkscape:version="0.92.3 (2405546, 2018-03-11)">
  <defs
     id="defs2" />
  <sodipodi:namedview
     id="base"
     pagecolor="#ffffff"
     bordercolor="#666666"
     borderopacity="1.0"
     inkscape:pageopacity="0.0"
     inkscape:pageshadow="2"
     inkscape:zoom="4.5791667"
     inkscape:cx="20.89172"
     inkscape:cy="17.142857"
     inkscape:document-units="mm"
     inkscape:current-layer="layer1"
     showgrid="false"
     units="px"
     inkscape:window-width="1262"
     inkscape:window-height="963"
     inkscape:window-x="211"
     inkscape:window-y="149"
     inkscape:window-maximized="0" />
  <metadata
     id="metadata5">
    <rdf:RDF>
      <cc:Work
         rdf:about="">
        <dc:format>image/svg+xml</dc:format>
        <dc:type
           rdf:resource="http://purl.org/dc/dcmitype/StillImage" />
        <dc:title></dc:title>
      </cc:Work>
    </rdf:RDF>
  </metadata>
  <g
     inkscape:label="Layer 1"
     inkscape:groupmode="layer"
     id="layer1"
     transform="translate(0,-284.3)">
    <rect
       style="fill:#008e99;fill-opacity:1;stroke:none;stroke-width:0.26342541;stroke-opacity:0.94117647"
       id="rect4531"
       width="12.884895"
       height="13.116014"
       x="0"
       y="284.28845" />
    <path
       style="fill:#ffffff;fill-opacity:1;stroke-width:0.104807"
       d="m 10.493822,296.39537 c -0.5524459,0.084 -1.0673864,-0.18467 -1.4302503,-0.74588 -0.2912345,-0.45046 -0.3321706,-0.47681 -0.6520155,-0.41906 -0.1877691,0.0338 -0.5361967,-0.0113 -0.7743953,-0.1001 -0.3591208,-0.13416 -0.4773884,-0.24085 -0.691147,-0.62793 -0.2569183,-0.46371 -0.2606988,-0.46597 -0.7624062,-0.42191 -0.7941295,0.0698 -1.4206997,-0.38983 -1.5791194,-1.15798 -0.2077826,-1.00769 0.5871989,-1.90195 1.574222,-1.77103 0.2425596,0.0322 0.3944234,0.002 0.3930505,-0.0777 -0.00113,-0.0716 0.1040471,-0.31889 0.2347277,-0.54946 l 0.2375187,-0.41908 -0.3425226,-0.44159 C 6.5130747,289.42078 6.1619922,289.10404 5.9216168,288.9595 l -0.4371141,-0.263 0.1319476,0.46457 c 0.1423516,0.49981 0.068056,1.14907 -0.1821753,1.60173 -0.238893,0.43149 -0.4732932,0.53475 -0.7900337,0.34691 -0.2500872,-0.14822 -0.3330507,-0.13552 -0.7161424,0.11007 -0.8681983,0.55683 -1.3994897,0.36784 -1.5583045,-0.55387 -0.065516,-0.38066 -0.078485,-0.3926 -0.5228042,-0.48677 -0.2506392,-0.053 -0.6273605,-0.21131 -0.8371738,-0.35174 -0.37084989,-0.24791 -0.38026086,-0.26374 -0.33578204,-0.55619 0.0539131,-0.35459 0.45794134,-1.0378 0.71788294,-1.21412 0.1475379,-0.10068 0.1485585,-0.19898 0.00479,-0.51647 -0.4040213,-0.88882 -0.1493239,-1.28717 0.8987085,-1.40563 0.5660575,-0.0639 0.5942584,-0.0784 0.719481,-0.36819 0.1256674,-0.29065 0.1431803,-0.29926 0.4887581,-0.23694 0.9404358,0.16959 1.6411613,1.24491 1.39804,2.14532 l -0.078389,0.29185 0.5251804,0.14633 c 0.2888057,0.0807 0.6301109,0.21631 0.7584546,0.30143 0.3011147,0.19984 0.3811913,0.13795 0.3466837,-0.26816 -0.075827,-0.88947 0.5122447,-2.26358 1.2660833,-2.95826 0.272705,-0.25127 0.3581511,-0.28455 0.4854398,-0.18825 0.190703,0.14399 0.07116,0.51489 -0.2299841,0.71463 -0.307451,0.20402 -0.5183896,0.90003 -0.4072338,1.34394 0.1172406,0.46538 0.5674708,0.88549 0.9193471,0.85633 0.2234283,-0.0186 0.2210164,-0.0253 -0.072477,-0.19954 -0.6162701,-0.3654 -0.7279221,-0.94979 -0.2800111,-1.46579 0.2135267,-0.24621 0.3295088,-0.30509 0.6260726,-0.31818 0.2001367,-0.009 0.4626268,0.0445 0.5832872,0.11826 0.2752102,0.1695 0.4902333,0.21122 0.2979366,0.0588 -0.079064,-0.0628 -0.1375685,-0.22095 -0.1297734,-0.35201 0.011928,-0.20192 0.046532,-0.23402 0.2280529,-0.21115 0.5795543,0.0727 0.6756433,1.08359 0.1850706,1.95017 -0.6704462,1.18465 -1.7786482,1.29583 -2.6543354,0.26709 l -0.2753086,-0.32356 -0.0024,0.6181 c -0.00115,0.33997 0.093237,0.87373 0.2096903,1.18618 0.1893709,0.50816 0.2342119,0.56694 0.4202649,0.5596 0.1143688,-0.005 0.3917101,-0.006 0.6156595,-0.005 0.3976799,0.003 0.4082232,-0.002 0.4498245,-0.26199 0.1021676,-0.63634 0.8366829,-1.16976 1.5185215,-1.10273 1.062602,0.1044 1.62866,1.2731 1.092153,2.25516 -0.24456,0.44652 -0.243396,0.46177 0.03839,0.86471 0.357384,0.51089 0.373907,1.12962 0.04537,1.69008 -0.212669,0.36232 -0.211377,0.40532 0.01622,0.65374 0.309925,0.33812 0.448685,1.16232 0.266512,1.58356 -0.175758,0.40658 -0.742005,0.84831 -1.170849,0.91343 z m 0.659533,-1.33287 c 0.188066,-0.89267 -0.958795,-1.4711 -1.5235763,-0.76845 -0.6381991,0.79394 0.2959212,1.89284 1.1357913,1.33606 0.215277,-0.1427 0.335263,-0.31848 0.387802,-0.56765 z m -2.2590027,-0.73587 c 0.2198256,-0.28955 0.2392807,-0.82011 0.041902,-1.13664 -0.060153,-0.0972 -0.2886441,-0.23345 -0.5067566,-0.30294 -1.0458328,-0.33316 -1.6419344,1.17561 -0.6820687,1.72625 0.1628172,0.094 0.4699218,0.0928 0.9218775,-0.002 0.00609,-8.8e-4 0.1074604,-0.12919 0.2250079,-0.28458 z m 2.0293267,-1.38414 c 0.570968,-0.8539 -0.36117,-1.85878 -1.2052366,-1.29922 -0.831606,0.55133 -0.3729505,1.86539 0.5946576,1.70357 0.424857,-0.0711 0.358222,-0.0269 0.610595,-0.40439 z m -4.0008451,-0.13598 c 0.1377109,-0.65406 -0.3973497,-1.20741 -1.0517428,-1.08762 -1.0141348,0.18559 -1.0174906,1.549 -0.00481,1.81368 0.4361311,0.11405 0.9543004,-0.24219 1.0562139,-0.72613 z m 1.9969446,-1.32384 c 0.1745211,-0.8281 -0.6588662,-1.42875 -1.3482707,-0.97172 -0.2277481,0.15102 -0.346563,0.31924 -0.3940699,0.55858 -0.1649,0.82933 0.6705573,1.4342 1.354524,0.98076 0.2152714,-0.14268 0.3352613,-0.31851 0.3877806,-0.56765 z m 2.0197515,-1.31313 c 0.07259,-0.46038 -0.0084,-0.70618 -0.320013,-0.96586 -0.183738,-0.15307 -0.403636,-0.21278 -0.6621768,-0.17778 -0.3434191,0.0457 -0.411743,0.0885 -0.6065536,0.3797 -0.2524963,0.37766 -0.254864,0.69671 -0.0084,1.09244 0.392488,0.629 1.4806844,0.40513 1.5964864,-0.32838 z m -5.7835144,-0.44866 c 0.00952,-0.33878 -0.046582,-0.51125 -0.2488254,-0.75793 -0.3429796,-0.41812 -0.6604561,-0.47589 -1.3373802,-0.24285 -0.3577956,0.12283 -0.598403,0.14556 -0.6754979,0.063 -0.1940971,-0.20696 0.049718,-0.41446 0.7598178,-0.64675 l 0.6654775,-0.21763 0.082481,-0.39095 c 0.068562,-0.32527 0.032598,-0.47089 -0.2154819,-0.86721 -0.1634129,-0.26207 -0.3878791,-0.50601 -0.4986146,-0.54216 -0.1829866,-0.0595 -0.2160961,-0.0366 -0.3621154,0.25193 -0.1325875,0.26244 -0.1998281,0.31564 -0.3853625,0.3056 -0.3430334,-0.0187 -1.2053932,0.10983 -1.220579,0.18192 -0.00708,0.0348 0.1060791,0.32048 0.2521727,0.63412 l 0.2656262,0.57023 -0.3580324,0.3109 c -0.4534855,0.39387 -0.7121532,0.82539 -0.6012972,1.00307 0.04669,0.0761 0.4091319,0.19894 0.8040391,0.27407 l 0.7181054,0.13648 0.056172,0.53225 c 0.078955,0.74868 0.1912453,0.79261 0.9139501,0.35821 0.5654851,-0.33938 0.6245371,-0.35253 0.8800977,-0.18968 0.2535035,0.16094 0.2824161,0.15511 0.3827774,-0.0769 0.05975,-0.13842 0.1142211,-0.44887 0.1219464,-0.68996 z m 4.2138698,-2.83213 c -0.1237939,-0.37779 -0.465617,-0.52547 -0.7617979,-0.32913 -0.3504704,0.23227 -0.250509,0.58605 0.1982054,0.70177 0.4279144,0.11051 0.669483,-0.0493 0.5635647,-0.37269 z"
       id="path826"
       inkscape:connector-curvature="0" />
  </g>
</svg>
