<?xml version="1.0" standalone="no"?><!DOCTYPE svg PUBLIC "-//W3C//DTD SVG 1.1//EN" "http://www.w3.org/Graphics/SVG/1.1/DTD/svg11.dtd"><svg t="1569487227605" class="icon" viewBox="0 0 1024 1024" version="1.1" xmlns="http://www.w3.org/2000/svg" p-id="23071" xmlns:xlink="http://www.w3.org/1999/xlink" width="200" height="200"><defs><style type="text/css"></style></defs><path d="M258.509804 374.588235h115.24183v169.411765h-115.24183z" fill="#1296db" p-id="23072"></path><path d="M454.27451 161.045752h115.24183v382.954248h-115.24183z" fill="#1296db" p-id="23073"></path><path d="M112.732026 700.026144h802.509804c29.490196 0 53.333333-23.843137 53.333333-53.333334V42.875817h36.392157c10.457516 0 19.03268-8.575163 19.03268-19.03268s-8.575163-19.03268-19.03268-19.032679H19.03268c-10.457516 0-19.03268 8.575163-19.03268 19.032679s8.575163 19.03268 19.03268 19.03268h40.366013v603.816993c0 29.490196 23.843137 53.333333 53.333333 53.333334z m817.777778-53.333334c0 8.575163-6.901961 15.477124-15.477124 15.477125H112.732026c-8.575163 0-15.477124-6.901961-15.477124-15.477125V42.875817h833.254902v603.816993zM514.300654 1019.189542c10.457516 0 19.03268-8.575163 19.032679-19.032679v-106.875817l119.633987 119.633987c3.764706 3.764706 8.575163 5.647059 13.385621 5.647059s9.620915-1.882353 13.385621-5.647059c7.320261-7.320261 7.320261-19.45098 0-26.771242l-146.405229-146.405229v-56.470588h75.712419c10.457516 0 19.03268-8.575163 19.032679-19.03268s-8.575163-19.03268-19.032679-19.03268h-189.071896c-10.457516 0-19.03268 8.575163-19.03268 19.03268s8.575163 19.03268 19.03268 19.03268h75.294118v56.470588l-147.03268 147.03268c-7.320261 7.320261-7.320261 19.45098 0 26.771242 3.764706 3.764706 8.575163 5.647059 13.385621 5.647058 4.810458 0 9.620915-1.882353 13.385621-5.647058l120.261438-120.261438v106.875817c0 10.457516 8.575163 19.03268 19.03268 19.032679z" fill="#1296db" p-id="23074"></path><path d="M258.509804 562.823529h115.45098c10.457516 0 19.03268-8.575163 19.03268-19.032679v-169.411765c0-10.457516-8.575163-19.03268-19.03268-19.03268h-115.24183c-10.457516 0-19.03268 8.575163-19.032679 19.03268v169.411765c0 10.666667 8.366013 19.03268 18.823529 19.032679z m19.03268-169.202614h77.385621v131.555556h-77.385621v-131.555556zM650.039216 562.823529h115.24183c10.457516 0 19.03268-8.575163 19.032679-19.032679V276.705882c0-10.457516-8.575163-19.03268-19.032679-19.032679h-115.24183c-10.457516 0-19.03268 8.575163-19.03268 19.032679v267.294118c0.20915 10.457516 8.575163 18.823529 19.03268 18.823529z m19.032679-267.294117h77.385621V524.96732h-77.385621V295.529412zM454.27451 562.823529h115.24183c10.457516 0 19.03268-8.575163 19.03268-19.032679V161.045752c0-10.457516-8.575163-19.03268-19.03268-19.03268h-115.24183c-10.457516 0-19.03268 8.575163-19.03268 19.03268v382.954248c0.20915 10.457516 8.575163 18.823529 19.03268 18.823529zM473.30719 179.869281h77.38562v345.098039h-77.38562V179.869281z" fill="#1296db" p-id="23075"></path></svg>