<?xml version="1.0" standalone="no"?><!DOCTYPE svg PUBLIC "-//W3C//DTD SVG 1.1//EN" "http://www.w3.org/Graphics/SVG/1.1/DTD/svg11.dtd"><svg t="1569487230567" class="icon" viewBox="0 0 1024 1024" version="1.1" xmlns="http://www.w3.org/2000/svg" p-id="23255" xmlns:xlink="http://www.w3.org/1999/xlink" width="200" height="200"><defs><style type="text/css"></style></defs><path d="M737.188086 535.709506H290.572011c-13.369237 0-24.440636-10.862505-24.440636-24.440636v-106.745002c0-13.369237 10.862505-24.440636 24.440636-24.440637h446.616075c13.369237 0 24.440636 10.862505 24.440637 24.440637v106.745002c0 13.578131-11.071399 24.440636-24.440637 24.440636z" fill="#1296db" p-id="23256"></path><path d="M426.56222 76.350877h-163.982049c-27.156263 0-49.090167 21.933905-49.090167 49.090167v63.294982H180.275806c-10.026928 0-18.173807 7.72909-18.80049 17.756018l-16.084863 249.00204c-35.303142 7.72909-62.877193 38.227662-65.801714 75.619747l-25.694002 335.693187H19.009384c-10.444716 0-19.009384 8.564667-19.009384 19.009383v75.410853c0 32.79641 26.738474 59.534884 59.534884 59.534884h345.302325c32.79641 0 59.534884-26.738474 59.534884-59.534884v-75.410853c0-10.444716-8.564667-19.009384-19.009384-19.009383H91.913505l25.276213-332.768666c1.880049-23.813953 21.933905-42.614443 45.956753-42.614443 10.026928 0 18.173807-7.72909 18.800489-17.756018l16.084864-246.913097h628.354141l16.084863 246.913097c0.626683 10.026928 8.982456 17.756018 18.80049 17.756018h0.417788c23.813953 0 43.867809 18.591595 45.956753 42.196654l28.200734 333.186455H578.637291c-10.444716 0-19.009384 8.564667-19.009384 19.009383v75.410853c0 32.79641 26.738474 59.534884 59.534884 59.534884h345.302325c32.79641 0 59.534884-26.738474 59.534884-59.534884v-75.410853c0-10.444716-8.564667-19.009384-19.009384-19.009383h-31.125255l-28.409629-336.31987c-3.133415-37.183191-30.916361-67.472868-66.219502-74.993064l-16.084863-249.00204c-0.626683-10.026928-8.982456-17.756018-18.80049-17.756018h-33.423092v-63.294982c0-27.156263-21.933905-49.090167-49.090168-49.090167h-163.982048c-27.156263 0-49.090167 21.933905-49.090167 49.090167v63.294982h-72.904121v-63.294982c-0.208894-26.947368-22.142799-49.090167-49.299061-49.090167z m0.417788 884.876377c0 11.906977-9.818033 21.72501-21.72501 21.72501H59.743778c-11.906977 0-21.72501-9.818033-21.72501-21.72501v-56.610363h388.752346v56.610363h0.208894z m559.419013 0c0 11.906977-9.818033 21.72501-21.72501 21.72501H619.371685c-11.906977 0-21.72501-9.818033-21.72501-21.72501v-56.610363h388.752346v56.610363zM251.299878 188.736026v-63.294982c0-6.26683 5.013464-11.280294 11.280293-11.280293h163.982049c6.26683 0 11.280294 5.013464 11.280293 11.280293v63.294982h-186.542635z m335.275397-63.294982c0-6.26683 5.013464-11.280294 11.280294-11.280293h163.982048c6.26683 0 11.280294 5.013464 11.280294 11.280293v63.294982h-186.542636v-63.294982zM217.458996 22.45614c0 10.444716 8.564667 19.009384 19.009384 19.009384h214.534476c10.444716 0 19.009384-8.564667 19.009384-19.009384s-8.564667-19.009384-19.009384-19.009384H236.46838c-10.444716 0-19.009384 8.564667-19.009384 19.009384zM564.641371 41.25663H783.353733c10.444716 0 19.009384-8.564667 19.009384-19.009384s-8.564667-19.009384-19.009384-19.009384H564.641371c-10.444716 0-19.009384 8.564667-19.009384 19.009384s8.564667 19.009384 19.009384 19.009384z" fill="#1296db" p-id="23257"></path><path d="M402.539372 830.25051c10.444716 0 19.009384-8.564667 19.009384-19.009384v-256.73113h168.368829v256.73113c0 10.444716 8.564667 19.009384 19.009384 19.009384s19.009384-8.564667 19.009384-19.009384v-256.73113h84.811097c37.392085 0 67.890657-30.498572 67.890657-67.890657v-57.237046c0-37.392085-30.498572-67.890657-67.890657-67.890657H315.430437c-37.392085 0-67.890657 30.498572-67.890657 67.890657v57.237046c0 37.392085 30.498572 67.890657 67.890657 67.890657h68.308445v256.73113c0 10.444716 8.355773 19.009384 18.80049 19.009384z m-117.398613-343.631171v-57.237046c0-16.502652 13.578131-30.080783 30.080783-30.080783H712.329661c16.502652 0 30.080783 13.578131 30.080784 30.080783v57.237046c0 16.502652-13.578131 30.080783-30.080784 30.080783H315.430437c-16.711546 0-30.289678-13.578131-30.289678-30.080783z" fill="#1296db" p-id="23258"></path></svg>