<?xml version="1.0" standalone="no"?><!DOCTYPE svg PUBLIC "-//W3C//DTD SVG 1.1//EN" "http://www.w3.org/Graphics/SVG/1.1/DTD/svg11.dtd"><svg t="1569487238075" class="icon" viewBox="0 0 1024 1024" version="1.1" xmlns="http://www.w3.org/2000/svg" p-id="23805" xmlns:xlink="http://www.w3.org/1999/xlink" width="200" height="200"><defs><style type="text/css"></style></defs><path d="M781.385621 819.137255h51.24183c12.54902 0 22.588235-10.039216 22.588235-22.588235v-61.699347c0-12.54902-10.039216-22.588235-22.588235-22.588235h-51.24183c-7.111111-36.183007-21.333333-69.647059-40.993464-99.137255l36.392157-36.392157c8.784314-8.784314 8.784314-23.215686 0-32l-43.712419-43.712418c-8.784314-8.784314-23.215686-8.784314-32 0l-36.392156 36.183006c-29.490196-19.869281-62.954248-33.882353-99.137255-40.993464v-51.24183c0-12.54902-10.039216-22.588235-22.588236-22.588235h-61.699346c-12.54902 0-22.588235 10.039216-22.588235 22.588235v51.24183c-36.183007 7.111111-69.647059 21.333333-99.137255 40.993464l-36.392157-36.392156c-8.784314-8.784314-23.215686-8.784314-32 0l-43.712418 43.712418c-8.784314 8.784314-8.784314 23.215686 0 32l36.392156 36.392157c-19.869281 29.490196-33.882353 62.954248-40.993464 99.137255H191.581699c-12.54902 0-22.588235 10.039216-22.588235 22.588235v61.699346c0 12.54902 10.039216 22.588235 22.588235 22.588236h51.24183l109.385621-53.542484c0-88.261438 71.738562-160 160-160s160 71.738562 160 160" fill="#1296db" p-id="23806"></path><path d="M1024 856.575163V167.215686c0-43.084967-34.928105-78.013072-78.013072-78.013072h-867.973856C34.928105 89.202614 0 124.130719 0 167.215686v689.568628c0 43.084967 34.928105 78.013072 78.013072 78.013072h867.973856c43.084967 0 78.013072-35.137255 78.013072-78.222223zM78.013072 127.058824h867.973856c22.169935 0 40.156863 17.986928 40.156863 40.156862v93.071896H37.856209v-93.071896c0-22.169935 17.986928-40.156863 40.156863-40.156862z m-40.156863 729.516339v-558.431372h948.287582v558.431372c0 22.169935-17.986928 40.156863-40.156863 40.156863h-867.973856c-22.169935 0-40.156863-17.986928-40.156863-40.156863z" fill="#1296db" p-id="23807"></path><path d="M512 586.771242c-98.718954 0-178.823529 80.313725-178.823529 178.823529 0 10.457516 8.575163 19.03268 19.032679 19.03268s19.03268-8.575163 19.03268-19.03268c0-77.803922 63.163399-140.96732 140.96732-140.96732s140.96732 63.163399 140.967321 140.96732c0 10.457516 8.575163 19.03268 19.032679 19.03268s19.03268-8.575163 19.03268-19.03268c-0.418301-98.718954-80.522876-178.823529-179.24183-178.823529z" fill="#1296db" p-id="23808"></path><path d="M832.836601 693.228758h-36.183006c-6.901961-27.398693-17.777778-53.333333-32.209151-77.594771l25.51634-25.51634c7.947712-7.947712 12.130719-18.405229 12.130719-29.490196 0-11.084967-4.392157-21.542484-12.130719-29.490196l-43.712418-43.712418c-16.313725-16.313725-42.666667-16.313725-58.771242 0l-25.51634 25.516339c-24.261438-14.431373-50.196078-25.098039-77.594771-32.20915v-35.764706c0-23.006536-18.614379-41.620915-41.620915-41.620915H481.045752c-23.006536 0-41.620915 18.614379-41.620915 41.620915v36.183007c-27.398693 6.901961-53.333333 17.777778-77.594772 32.20915l-25.51634-25.51634c-7.947712-7.947712-18.405229-12.130719-29.490196-12.130719s-21.542484 4.392157-29.490196 12.130719l-43.712418 43.712419c-7.947712 7.947712-12.130719 18.405229-12.130719 29.490196s4.392157 21.542484 12.130719 29.490196l25.51634 25.51634c-14.431373 24.261438-25.098039 50.196078-32.20915 77.594771H190.745098c-23.006536 0-41.620915 18.614379-41.620915 41.620915v61.699346c0 23.006536 18.614379 41.620915 41.620915 41.620915h51.24183c10.457516 0 19.03268-8.575163 19.03268-19.032679s-8.575163-19.03268-19.03268-19.03268H190.745098c-2.091503 0-3.764706-1.673203-3.764706-3.764706v-61.699346c0-2.091503 1.673203-3.764706 3.764706-3.764706h51.24183c8.993464 0 16.941176-6.48366 18.614379-15.267974 6.48366-33.045752 19.45098-64.20915 38.27451-92.235294 5.019608-7.529412 3.973856-17.568627-2.300654-24.052288l-36.392156-36.392157c-0.836601-0.836601-1.045752-1.882353-1.045752-2.509804 0-0.627451 0.20915-1.673203 1.045752-2.509804l43.712418-43.712418c0.836601-0.836601 1.882353-1.045752 2.509804-1.045752s1.673203 0.20915 2.718954 1.045752l36.392157 36.392157c6.48366 6.48366 16.522876 7.320261 24.052287 2.300654 28.026144-18.823529 59.189542-31.581699 92.235295-38.27451 8.784314-1.673203 15.267974-9.620915 15.267973-18.614379v-51.450981c0-2.091503 1.673203-3.764706 3.764706-3.764706h61.699347c2.091503 0 3.764706 1.673203 3.764706 3.764706v51.24183c0 8.993464 6.48366 16.941176 15.267973 18.614379 33.045752 6.48366 64.20915 19.45098 92.235295 38.27451 7.529412 5.019608 17.568627 3.973856 24.052287-2.300653l36.392157-36.392157c1.464052-1.464052 3.764706-1.464052 5.228758 0l43.712418 43.712418c0.836601 0.836601 1.045752 1.882353 1.045752 2.509804 0 0.627451-0.20915 1.673203-1.045752 2.718954l-36.392156 36.392157c-6.48366 6.48366-7.320261 16.522876-2.300654 24.052288 18.823529 28.026144 31.581699 59.189542 38.27451 92.235294 1.673203 8.784314 9.620915 15.267974 18.614379 15.267974h51.24183c2.091503 0 3.764706 1.673203 3.764706 3.764706v61.699346c0 2.091503-1.673203 3.764706-3.764706 3.764706h-51.24183c-10.457516 0-19.03268 8.575163-19.03268 19.03268s8.575163 19.03268 19.03268 19.032679h51.24183c23.006536 0 41.620915-18.614379 41.620915-41.620915v-61.699346c0-23.424837-18.614379-42.039216-41.411765-42.039216zM171.084967 211.346405c5.019608 0 9.830065-2.091503 13.385621-5.647059s5.647059-8.366013 5.647059-13.385621-2.091503-9.830065-5.647059-13.38562c-3.555556-3.555556-8.366013-5.647059-13.385621-5.647059s-9.830065 2.091503-13.385621 5.647059c-3.555556 3.555556-5.647059 8.366013-5.647058 13.38562s2.091503 9.830065 5.647058 13.385621c3.555556 3.764706 8.366013 5.647059 13.385621 5.647059zM238.013072 211.346405c5.019608 0 9.830065-2.091503 13.385621-5.647059s5.647059-8.366013 5.647059-13.385621-2.091503-9.830065-5.647059-13.38562c-3.555556-3.555556-8.366013-5.647059-13.385621-5.647059s-9.830065 2.091503-13.385621 5.647059-5.647059 8.366013-5.647059 13.38562 2.091503 9.830065 5.647059 13.385621c3.555556 3.764706 8.366013 5.647059 13.385621 5.647059zM104.156863 211.346405c5.019608 0 9.830065-2.091503 13.385621-5.647059s5.647059-8.366013 5.647058-13.385621-2.091503-9.830065-5.647058-13.38562c-3.555556-3.555556-8.366013-5.647059-13.385621-5.647059s-9.830065 2.091503-13.385621 5.647059-5.647059 8.366013-5.647059 13.38562 2.091503 9.830065 5.647059 13.385621c3.555556 3.764706 8.366013 5.647059 13.385621 5.647059z" fill="#1296db" p-id="23809"></path></svg>