<?xml version="1.0" standalone="no"?><!DOCTYPE svg PUBLIC "-//W3C//DTD SVG 1.1//EN" "http://www.w3.org/Graphics/SVG/1.1/DTD/svg11.dtd"><svg t="1569487244944" class="icon" viewBox="0 0 1024 1024" version="1.1" xmlns="http://www.w3.org/2000/svg" p-id="24221" xmlns:xlink="http://www.w3.org/1999/xlink" width="200" height="200"><defs><style type="text/css"></style></defs><path d="M513.074485 614.603388h-122.82819c-4.394194 0-8.160646-3.766452-8.160647-8.160646v-325.588866c0-4.394194 3.766452-8.160646 8.160647-8.160646h122.82819c4.394194 0 8.160646 3.766452 8.160646 8.160646v325.588866c0 4.394194-3.766452 8.160646-8.160646 8.160646z" fill="#1296db" p-id="24222"></path><path d="M960.236057 722.784265c3.766452-9.834625-0.836989-20.715487-10.671614-24.691187-9.834625-3.766452-20.715487 0.836989-24.691187 10.671615-14.438067 36.618285-50.42861 61.309472-89.76711 61.309471H438.163936c-4.812689 0-9.625378 1.883226-13.182582 5.231184l-181.208199 173.466047v-159.86497c0-5.021936-2.092473-9.834625-5.649679-13.39183-3.557205-3.557205-8.369894-5.649678-13.39183-5.649678H134.336794c-53.148825 0-96.463025-43.3142-96.463025-96.463025v-427.492322c0-53.148825 43.3142-96.463025 96.463025-96.463025h430.00329c10.462367 0 19.041508-8.579141 19.041508-19.041508s-8.579141-19.041508-19.041508-19.041509H134.336794c-74.073559 0-134.336794 60.263235-134.336794 134.336795v427.701569c0 74.073559 60.263235 134.336794 134.336794 134.336794h71.562592v185.393146c0 7.532904 4.603442 14.438067 11.508603 17.367529 2.301721 1.046237 5.021936 1.464731 7.532905 1.464732 4.812689 0 9.625378-1.883226 13.182582-5.231184l207.782612-198.994223h389.409305c54.613557 0.209247 104.832919-34.107317 124.920664-84.954421z" fill="#1296db" p-id="24223"></path><path d="M1022.801013 332.328723c5.649678-35.362801-8.997636-71.353344-37.246027-91.650337-16.112045-11.508604-34.944306-17.576777-54.613557-17.576776h-138.730988v-99.183241c0-43.941942-12.973335-75.747538-38.501511-94.370552-40.384737-29.713123-95.626036-12.764088-97.927757-12.136346-7.951399 2.510968-13.182583 9.834625-13.182583 17.995272v114.458297c0 88.093131-102.740445 118.224749-106.925392 119.480232-0.418495 0.209247-0.836989 0.418495-1.255484 0.418495-6.27742-9.625378-17.158282-16.112045-29.713123-16.112045h-106.29765c-19.460003 0-35.362801 15.902798-35.362801 35.362801v309.058325c0 19.460003 15.902798 35.362801 35.362801 35.362801h106.29765c9.834625 0 18.623014-3.9757 25.109682-10.462367 16.949035 16.949035 40.384737 27.411402 66.331407 27.411402h279.972945c63.401945 0 103.786682-33.270328 111.110339-91.231841l35.572049-226.82412zM502.193623 595.56188h-101.066466v-303.827142H502.193623v303.827142z m483.152115-269.092083l-35.781295 227.242615v0.627742c-4.812689 38.710758-29.503875 58.380009-73.445818 58.380008H596.14568c-30.968607 0-56.078288-25.109681-56.078288-56.078288v-250.050575c1.883226 0 3.766452 0 5.649679-0.627742 5.440431-1.464731 134.755289-38.920006 134.755289-156.098517v-98.973994c13.810325-1.883226 35.153554-2.301721 51.056351 9.206883 15.275056 11.299357 22.80796 32.642586 22.807961 63.82044v118.224749c0 10.462367 8.579141 19.041508 19.041508 19.041508H931.150676c11.717851 0 23.017208 3.557205 32.433339 10.462367 16.53054 11.927099 25.109681 33.479575 21.761723 54.822804z" fill="#1296db" p-id="24224"></path></svg>