<?xml version="1.0" standalone="no"?><!DOCTYPE svg PUBLIC "-//W3C//DTD SVG 1.1//EN" "http://www.w3.org/Graphics/SVG/1.1/DTD/svg11.dtd"><svg t="1569487232892" class="icon" viewBox="0 0 1024 1024" version="1.1" xmlns="http://www.w3.org/2000/svg" p-id="23438" xmlns:xlink="http://www.w3.org/1999/xlink" width="200" height="200"><defs><style type="text/css"></style></defs><path d="M383.520351 733.142164c-39.339046 30.550535-84.327848 37.874294-113.832131 33.270788-9.625511-1.464752-11.718014-14.647517-2.929504-18.832522 28.248783-13.810516 44.779552-44.361051 54.195813-65.913826-89.349853-101.067867-85.792599-255.494546 10.881013-352.168157 100.440116-100.440116 263.236805-100.440116 363.67692 0s100.440116 263.236805 0 363.67692c-84.537098 84.746348-213.435247 97.929113-311.992111 39.966797z" fill="#1296db" p-id="23439"></path><path d="M848.055889 845.928044l-0.627751-57.334566c-0.20925-10.462512-8.78851-19.041772-19.251022-18.832522s-18.832522 8.78851-18.832522 19.251022l1.255501 103.160369c0 5.022006 2.092502 9.834761 5.649757 13.392016 3.557254 3.557254 8.37001 5.440506 13.182765 5.440506h0.20925l103.16037-1.255501c10.462512-0.20925 18.832522-8.78851 18.832522-19.251022-0.20925-10.462512-8.57926-18.832522-19.041772-18.832522h-0.209251l-57.334566 0.62775 2.720253-2.929503c95.41811-97.719863 147.31217-226.827262 145.638169-363.46767s-56.288315-264.492306-154.008179-360.119667c-69.889581-68.424829-157.356182-115.087633-252.774292-134.966406-92.907107-19.251022-188.952969-12.764265-278.093572 19.251022-9.834761 3.557254-15.066017 14.438267-11.508763 24.273028s14.438267 15.066017 24.273028 11.508764c172.212949-61.728821 360.538167-20.715774 491.319568 107.136123 90.396105 88.512852 141.034663 206.739239 142.499415 333.335636s-46.453554 246.078285-134.966406 336.474389l-2.092502 3.138754zM685.468451 993.449465c9.834761-3.557254 15.066017-14.438267 11.508763-24.273028s-14.438267-15.066017-24.273028-11.508764c-172.212949 61.728821-360.538167 20.715774-491.319568-107.136124-90.396105-88.512852-141.034663-206.739239-142.499415-333.335635-1.674002-126.387146 46.035053-245.869034 134.547905-336.265139l2.720253-2.929504 0.627751 57.334567c0.20925 10.462512 8.57926 18.832522 19.041772 18.832521h0.20925c10.462512-0.20925 18.832522-8.78851 18.832522-19.251022l-1.255501-103.160369c-0.20925-10.462512-8.57926-18.832522-19.041772-18.832522h-0.20925l-103.16037 1.255501c-10.462512 0.20925-18.832522 8.78851-18.832522 19.251023 0.20925 10.462512 8.57926 18.832522 19.041772 18.832522h0.209251l57.334566-0.627751-2.720253 2.929503c-95.41811 97.719863-147.31217 226.827262-145.638169 363.467671 1.464752 136.640408 56.288315 264.492306 154.008179 360.119666 69.889581 68.424829 157.356182 115.087633 252.774292 134.966406 34.73554 7.323758 69.889581 10.881013 104.834371 10.881013 58.799318-0.4185 117.389386-10.462512 173.259201-30.550535z" fill="#1296db" p-id="23440"></path><path d="M258.597957 730.631161c-11.299513 5.649757-17.786271 17.786271-15.903019 30.341285s11.718014 22.389776 24.273029 24.273028c6.277507 1.046251 12.973515 1.464752 19.878773 1.464751 33.480039 0 68.634079-11.299513 98.138363-31.178286 39.548296 20.925024 83.909347 31.806037 128.898149 31.806037 73.656085 0 143.127166-28.667283 195.230476-80.770593 107.554624-107.554624 107.554624-282.906327 0-390.460952-52.10331-52.10331-121.574391-80.770593-195.230476-80.770593s-143.127166 28.667283-195.230476 80.770593c-100.021616 100.021616-107.763875 259.4703-19.669522 368.489676-11.718014 23.226777-25.319279 38.711295-40.385297 46.035054z m86.83885-387.531449c44.988802-44.988802 104.834371-69.680331 168.446445-69.68033s123.457643 24.691529 168.446445 69.68033c92.907107 92.907107 92.907107 243.985782 0 336.89289-44.988802 44.988802-104.834371 69.680331-168.446445 69.680331-42.477799 0-84.118597-11.299513-120.528139-32.643038-2.929503-1.674002-6.277507-2.720253-9.625511-2.720253-4.185005 0-8.160759 1.255501-11.718014 3.975754-27.411782 21.343525-55.032814 28.039532-72.609834 29.922785 15.066017-13.810516 28.039532-33.270788 39.129795-58.799318 2.929503-6.696008 1.674002-14.647517-3.138753-20.088023-83.281596-94.162609-78.887341-237.499025 10.044011-326.221128z" fill="#1296db" p-id="23441"></path><path d="M512.20925 531.00643c5.022006 0 9.834761-2.092502 13.392016-5.649757s5.649757-8.37001 5.649756-13.392015-2.092502-9.834761-5.649756-13.392016-8.37001-5.649757-13.392016-5.649756-9.834761 2.092502-13.392015 5.649756-5.649757 8.37001-5.649757 13.392016 2.092502 9.834761 5.649757 13.392015c3.557254 3.557254 8.37001 5.649757 13.392015 5.649757zM582.726582 531.00643c5.022006 0 9.834761-2.092502 13.392015-5.649757 3.557254-3.557254 5.649757-8.37001 5.649757-13.392015s-2.092502-9.834761-5.649757-13.392016-8.37001-5.649757-13.392015-5.649756-9.834761 2.092502-13.392016 5.649756c-3.557254 3.557254-5.649757 8.37001-5.649756 13.392016s2.092502 9.834761 5.649756 13.392015c3.557254 3.557254 8.57926 5.649757 13.392016 5.649757zM441.691919 531.00643c5.022006 0 9.834761-2.092502 13.392015-5.649757s5.649757-8.37001 5.649757-13.392015-2.092502-9.834761-5.649757-13.392016-8.37001-5.649757-13.392015-5.649756-9.834761 2.092502-13.392016 5.649756-5.649757 8.37001-5.649756 13.392016 2.092502 9.834761 5.649756 13.392015c3.348004 3.557254 8.37001 5.649757 13.392016 5.649757z" fill="#1296db" p-id="23442"></path></svg>