<?xml version="1.0" standalone="no"?><!DOCTYPE svg PUBLIC "-//W3C//DTD SVG 1.1//EN" "http://www.w3.org/Graphics/SVG/1.1/DTD/svg11.dtd"><svg t="1569487241326" class="icon" viewBox="0 0 1024 1024" version="1.1" xmlns="http://www.w3.org/2000/svg" p-id="24037" xmlns:xlink="http://www.w3.org/1999/xlink" width="200" height="200"><defs><style type="text/css"></style></defs><path d="M477.782955 509.279379h256.366238l137.705293 131.845493v-131.845493h58.388719c41.018598 0 74.503168-33.48457 74.503167-74.503168v-276.247701c0-41.018598-33.48457-74.503168-74.503167-74.503168H477.782955c-41.018598 0-74.503168 33.48457-74.503168 74.503168v276.247701c0 41.018598 33.48457 74.503168 74.503168 74.503168z" fill="#1296db" p-id="24038"></path><path d="M143.355814 957.554057c2.302064 1.046393 5.022685 1.46495 7.534029 1.46495 4.813407 0 9.626814-1.883507 13.184549-5.231964l131.217658-125.567137H542.031474c51.273247 0 92.919681-41.646434 92.919681-92.919681v-140.007358c0-10.463928-8.580421-19.044349-19.044349-19.044349s-19.044349 8.580421-19.044349 19.044349v140.007358c0 30.345391-24.69487 54.830983-54.830983 54.830983H287.548743c-4.813407 0-9.626814 1.883507-13.184549 5.231964l-104.639281 100.035152v-86.013489c0-10.463928-8.580421-19.044349-19.044349-19.044349H92.919681c-30.345391 0-54.830983-24.69487-54.830983-54.830983v-274.154915c0-30.345391 24.69487-55.040262 54.830983-55.040261h224.555896c10.463928 0 19.044349-8.580421 19.044349-19.044349s-8.580421-19.044349-19.044349-19.04435H92.919681c-51.273247 0-92.919681 41.646434-92.919681 92.919682v274.154915c0 51.273247 41.646434 92.919681 92.919681 92.919681H131.845494v111.96403c0 7.534028 4.604128 14.440221 11.51032 17.370121z" fill="#1296db" p-id="24039"></path><path d="M726.615165 528.323728l132.26405 126.613529c3.557736 3.348457 8.371142 5.231964 13.18455 5.231964 2.511343 0 5.022685-0.418557 7.534028-1.46495 6.906193-2.9299 11.510321-9.836092 11.510321-17.37012v-113.010423h39.344369c51.482526 0 93.547517-41.855712 93.547517-93.547517v-276.247701c0-51.482526-41.855712-93.547517-93.547517-93.547517H477.782955c-51.482526 0-93.547517 41.855712-93.547517 93.547517v276.247701c0 51.482526 41.855712 93.547517 93.547517 93.547517h248.83221z m-304.291028-93.547517v-276.247701c0-30.55467 24.904149-55.458819 55.458818-55.458819h452.46025c30.55467 0 55.458819 24.904149 55.458818 55.458819v276.247701c0 30.55467-24.904149 55.458819-55.458818 55.458819h-58.388719c-10.463928 0-19.044349 8.580421-19.044349 19.044349v87.478438l-105.685673-101.081545a19.044349 19.044349 0 0 0-13.18455-5.231964H477.782955c-30.55467 0-55.458819-24.904149-55.458818-55.668097z" fill="#1296db" p-id="24040"></path><path d="M704.01308 319.463724c5.022685 0 9.836092-2.092786 13.393828-5.650521 3.557736-3.557736 5.650521-8.371142 5.650521-13.393828s-2.092786-9.836092-5.650521-13.393828-8.371142-5.650521-13.393828-5.650521-9.836092 2.092786-13.393828 5.650521c-3.557736 3.557736-5.650521 8.371142-5.650521 13.393828s2.092786 9.836092 5.650521 13.393828c3.557736 3.767014 8.371142 5.650521 13.393828 5.650521zM774.749234 319.463724c5.022685 0 9.836092-2.092786 13.393828-5.650521 3.557736-3.557736 5.650521-8.371142 5.650521-13.393828s-2.092786-9.836092-5.650521-13.393828-8.371142-5.650521-13.393828-5.650521-9.836092 2.092786-13.393828 5.650521c-3.557736 3.557736-5.650521 8.371142-5.650521 13.393828s2.092786 9.836092 5.650521 13.393828c3.348457 3.767014 8.371142 5.650521 13.393828 5.650521zM633.486205 319.463724c5.022685 0 9.836092-2.092786 13.393828-5.650521 3.557736-3.557736 5.650521-8.371142 5.650521-13.393828s-2.092786-9.836092-5.650521-13.393828-8.371142-5.650521-13.393828-5.650521-9.836092 2.092786-13.393828 5.650521c-3.557736 3.557736-5.650521 8.371142-5.650521 13.393828s2.092786 9.836092 5.650521 13.393828c3.557736 3.767014 8.371142 5.650521 13.393828 5.650521z" fill="#1296db" p-id="24041"></path></svg>