<?xml version="1.0" standalone="no"?><!DOCTYPE svg PUBLIC "-//W3C//DTD SVG 1.1//EN" "http://www.w3.org/Graphics/SVG/1.1/DTD/svg11.dtd"><svg t="1569486288800" class="icon" viewBox="0 0 1024 1024" version="1.1" xmlns="http://www.w3.org/2000/svg" p-id="7119" xmlns:xlink="http://www.w3.org/1999/xlink" width="200" height="200"><defs><style type="text/css"></style></defs><path d="M378.512264 386.384989c0-3.559685 3.140899-5.444225 6.909977-3.769078 9.00391 3.978472 17.798426 7.956944 26.592943 12.144808l276.39909 125.63595c2.303326 1.046966 4.606652 2.093933 4.606652 5.234832s-2.303326 3.978472-4.816045 5.025438c-38.528358 15.495101-76.847323 30.780808-115.375681 46.275908-15.285707 38.318965-30.780808 76.63793-46.066515 115.166288-1.046966 2.303326-1.884539 4.816045-5.025438 4.816044-3.350292 0.209393-4.397258-2.093933-5.653618-4.606651-45.438335-100.50876-90.876671-201.01752-136.105613-301.316887-0.62818-1.675146-1.675146-2.931506-1.465752-4.606652z" fill="#1296db" p-id="7120"></path><path d="M484.046462 200.653176c10.469663-0.837573 18.217213-10.260269 17.170246-20.520538-1.046966-10.469663-10.260269-18.217213-20.520538-17.170247-10.469663 0.837573-18.217213 10.260269-17.170247 20.520539 0.837573 9.841483 9.213303 17.37964 18.845393 17.379639 0.418787 0 1.046966-0.209393 1.675146-0.209393zM507.707899 862.754634c10.469663 0 18.845393-8.37573 19.054786-18.845393s-8.166337-19.054786-18.635999-19.264179-19.054786 8.166337-19.264179 18.635999c-0.209393 10.469663 8.166337 19.054786 18.635999 19.264179 0 0.209393 0 0.209393 0.209393 0.209394zM202.203147 555.574735c-1.465753-10.469663-11.097842-17.589033-21.567505-16.12328-10.469663 1.465753-17.589033 11.097842-16.12328 21.358112 1.25636 9.422696 9.422696 16.332674 18.845392 16.332673 0.837573 0 1.675146 0 2.722113-0.209393 10.469663-1.25636 17.589033-10.888449 16.12328-21.358112zM416.412442 213.635558c1.884539 0 3.769079-0.209393 5.444224-0.837573 10.050876-3.140899 15.704494-13.610561 12.772989-23.661438-3.140899-10.050876-13.610561-15.704494-23.661438-12.772988s-15.704494 13.610561-12.772988 23.661437c2.722112 8.166337 10.260269 13.610561 18.217213 13.610562zM161.999643 490.034648c-0.62818 10.469663 7.328764 19.473572 17.798426 20.101752h1.25636c10.050876 0 18.217213-7.74755 18.845392-17.798426 0.62818-10.469663-7.328764-19.473572-17.798426-20.101752s-19.473572 7.328764-20.101752 17.798426zM549.586549 201.700142c9.422696 0 17.798426-7.119371 18.845393-16.75146 1.25636-10.469663-6.281798-19.892359-16.75146-20.939325-10.469663-1.25636-19.892359 6.281798-20.939325 16.75146-1.25636 10.469663 6.281798 19.892359 16.75146 20.939325h2.093932zM614.917243 215.938883c7.956944 0 15.495101-5.025438 18.00782-12.982381 3.350292-10.050876-2.093933-20.729932-12.144809-23.870831-10.050876-3.350292-20.729932 2.093933-23.87083 12.144809-3.350292 10.050876 2.093933 20.729932 12.144808 23.87083 1.884539 0.62818 3.978472 0.837573 5.863011 0.837573zM255.807819 723.717515c-7.74755 7.119371-8.166337 19.054786-1.046966 26.802336 3.769079 3.978472 8.794517 6.072404 13.819954 6.072405 4.606652 0 9.213303-1.675146 12.772988-5.025438 7.74755-7.119371 8.166337-19.054786 1.046967-26.802336-6.909977-7.74755-19.054786-8.166337-26.592943-1.046967zM286.79802 243.369399c-7.956944 6.700584-9.213303 18.635999-2.303326 26.802336 3.769079 4.397258 9.213303 6.700584 14.448134 6.700584 4.397258 0 8.585123-1.465753 12.144809-4.397258 7.956944-6.700584 9.213303-18.635999 2.303326-26.802336-6.491191-7.956944-18.635999-9.00391-26.592943-2.303326zM666.846769 240.647287c2.931506 1.675146 6.281798 2.512719 9.422697 2.512719 6.491191 0 12.982382-3.559685 16.542066-9.63209 5.234831-9.213303 2.093933-20.729932-7.11937-25.964763s-20.729932-2.093933-25.964763 7.119371-1.884539 20.729932 7.11937 25.964763zM199.690428 642.263541c2.093933 0 4.187865-0.418787 6.281797-1.046966 9.841483-3.559685 15.076314-14.448134 11.516629-24.289617s-14.448134-15.076314-24.289617-11.516629-15.076314 14.448134-11.516629 24.289617c2.722112 7.74755 10.050876 12.563595 18.00782 12.563595zM345.637523 203.584682c-9.213303 5.025438-12.772988 16.542067-7.74755 25.755369 3.559685 6.281798 10.050876 10.050876 16.75146 10.050876 2.931506 0 6.072404-0.62818 9.00391-2.303325 9.213303-5.025438 12.772988-16.542067 7.74755-25.75537s-16.542067-12.772988-25.75537-7.74755zM359.876264 807.474816c-4.187865 9.63209 0 20.729932 9.63209 25.12719 2.512719 1.046966 5.025438 1.675146 7.74755 1.675146 7.328764 0 14.238741-4.187865 17.37964-11.307236 4.187865-9.63209 0-20.729932-9.63209-24.917797-9.63209-4.606652-20.939325-0.209393-25.12719 9.422697zM330.142423 766.433738c-8.585123-6.072404-20.311145-4.187865-26.38355 4.397259-6.072404 8.585123-4.187865 20.311145 4.397258 26.383549 3.350292 2.303326 7.119371 3.559685 11.097843 3.559686 5.863011 0 11.726022-2.722112 15.4951-7.956944 5.863011-8.585123 3.769079-20.311145-4.606651-26.38355zM440.911452 855.007083c8.794517 0 16.542067-6.072404 18.426606-14.86692 2.303326-10.260269-4.187865-20.311145-14.448134-22.614471-10.260269-2.303326-20.311145 4.187865-22.614471 14.448134s4.187865 20.311145 14.448134 22.614471c1.465753 0.209393 2.931506 0.418787 4.187865 0.418786zM263.974156 291.11106c-8.166337-6.491191-20.101752-5.234831-26.592943 3.140899-6.491191 8.166337-5.234831 20.101752 3.140899 26.592943 3.559685 2.722112 7.538157 4.187865 11.726022 4.187865 5.653618 0 11.097842-2.512719 14.86692-7.119371 6.491191-8.37573 5.025438-20.311145-3.140898-26.802336zM735.946542 730.208706c-7.328764 7.538157-7.119371 19.473572 0.418786 26.802336 3.769079 3.559685 8.37573 5.444225 13.191775 5.444225 5.025438 0 9.841483-1.884539 13.610561-5.653618 7.328764-7.538157 7.119371-19.473572-0.418786-26.802336-7.538157-7.538157-19.473572-7.328764-26.802336 0.209393zM765.052204 297.183464c-8.37573 6.281798-10.050876 18.217213-3.769079 26.592943 3.769079 5.025438 9.422696 7.538157 15.076314 7.538157 3.978472 0 7.956944-1.25636 11.516629-3.769078 8.37573-6.281798 10.050876-18.217213 3.769078-26.592943s-18.217213-10.050876-26.592942-3.769079zM803.161775 352.463283c-9.422696 4.397258-13.401168 15.913887-9.00391 25.336583 3.350292 6.909977 10.050876 10.888449 17.170247 10.888449 2.722112 0 5.444225-0.62818 8.166337-1.884539 9.422696-4.606652 13.401168-15.913887 9.00391-25.336584-4.606652-9.422696-15.913887-13.401168-25.336584-9.003909zM224.608225 345.553305c-9.422696-4.816045-20.729932-1.046966-25.545977 8.37573-4.816045 9.422696-1.046966 20.729932 8.37573 25.545977 2.722112 1.465753 5.653618 2.093933 8.585123 2.093932 6.909977 0 13.610561-3.769079 16.960854-10.469662 4.816045-9.422696 1.046966-20.939325-8.37573-25.545977zM716.682363 250.698163c-6.909977 7.956944-6.072404 19.892359 1.675146 26.802336 3.559685 3.140899 8.166337 4.816045 12.563595 4.816045 5.234831 0 10.469663-2.093933 14.238741-6.491191 6.909977-7.956944 6.072404-19.892359-1.675146-26.802336-7.956944-7.119371-19.892359-6.281798-26.802336 1.675146zM173.725665 420.097302c-2.722112 10.050876 3.140899 20.520539 13.401168 23.242651 1.675146 0.418787 3.350292 0.62818 5.025438 0.62818 8.37573 0 15.913887-5.653618 18.217213-14.029348 2.722112-10.050876-3.140899-20.520539-13.401168-23.242651-10.050876-2.722112-20.520539 3.140899-23.242651 13.401168zM687.576701 770.830997c-8.585123 5.863011-10.888449 17.589033-5.025438 26.383549 3.769079 5.444225 9.63209 8.37573 15.704494 8.37573 3.769079 0 7.328764-1.046966 10.679056-3.350292 8.585123-5.863011 10.888449-17.589033 5.025438-26.383549s-17.798426-10.888449-26.38355-5.025438zM821.378988 649.801698c7.538157 0 14.866921-4.606652 17.798426-12.144808 3.769079-9.841483-1.046966-20.729932-10.888449-24.499011-9.841483-3.769079-20.729932 1.046966-24.49901 10.888449-3.769079 9.841483 1.046966 20.729932 10.888449 24.499011 2.093933 0.837573 4.397258 1.25636 6.700584 1.256359zM857.813414 569.39469c1.675146-10.260269-5.234831-20.101752-15.704494-21.776898-10.260269-1.675146-20.101752 5.234831-21.776898 15.704494s5.234831 20.101752 15.704494 21.776898c1.046966 0.209393 2.093933 0.209393 3.140898 0.209393 9.00391-0.209393 16.960853-6.700584 18.636-15.913887zM228.377303 702.987584c3.350292 0 6.700584-0.837573 9.841483-2.722113 9.00391-5.444225 11.935415-17.170247 6.491191-25.964763-5.444225-9.00391-17.170247-11.935415-25.964763-6.49119-9.00391 5.444225-11.935415 17.170247-6.491191 25.964763 3.350292 5.863011 9.63209 9.213303 16.12328 9.213303zM801.486629 674.719495c-8.794517-5.653618-20.520539-2.931506-26.174156 5.863011-5.653618 8.794517-3.140899 20.520539 5.863011 26.174156 3.140899 2.093933 6.700584 2.931506 10.260269 2.931506 6.281798 0 12.354202-3.140899 15.913887-8.794517 5.444225-8.794517 2.931506-20.520539-5.863011-26.174156zM570.944661 819.200838c-10.260269 1.884539-16.960853 11.935415-15.076314 22.195684 1.675146 9.00391 9.63209 15.495101 18.635999 15.495101 1.25636 0 2.303326-0.209393 3.559685-0.418787 10.260269-1.884539 16.960853-11.935415 15.076314-22.195684-2.093933-10.469663-11.935415-17.170247-22.195684-15.076314zM631.878096 800.774232c-0.209393 0-0.209393 0-0.418786 0.209393-9.63209 3.978472-14.238741 15.076314-10.260269 24.708403 2.931506 7.328764 10.050876 11.726022 17.589033 11.726022 2.303326 0 4.816045-0.418787 7.11937-1.465752 0.209393 0 0.209393-0.209393 0.418787-0.209394 9.63209-3.978472 14.238741-15.076314 10.260269-24.708403s-15.076314-14.238741-24.708404-10.260269zM829.335932 414.443685c-10.260269 2.512719-16.332674 12.772988-13.819955 23.033257 2.093933 8.585123 9.841483 14.448134 18.426606 14.448134 1.465753 0 3.140899-0.209393 4.606652-0.628179 10.260269-2.512719 16.332674-12.772988 13.819954-23.033258s-12.982382-16.332674-23.033257-13.819954zM842.527706 480.193165c-10.469663 0.418787-18.635999 9.213303-18.217212 19.682966 0.418787 10.260269 8.794517 18.217213 18.845392 18.217213h0.837573c10.469663-0.418787 18.635999-9.213303 18.217213-19.682966s-9.213303-18.426606-19.682966-18.217213z" fill="#1296db" p-id="7121"></path><path d="M506.032753 0.473229c-136.733792 1.675146-264.673068 56.326784-360.156391 154.113432-68.471593 69.937346-115.166288 157.463724-135.058646 252.737653-19.264179 92.76121-12.772988 189.082105 19.264179 278.074237 2.722112 7.74755 10.050876 12.563595 17.798426 12.563595 2.093933 0 4.187865-0.418787 6.491191-1.046967 9.841483-3.559685 15.076314-14.448134 11.516629-24.289617-61.771009-172.330645-20.729932-360.78457 106.999951-491.655351 88.363952-90.457884 206.880531-141.131051 333.354054-142.596804 126.473523-1.25636 246.037069 46.485302 336.704347 134.849253l2.931505 2.722113-57.37375 0.628179c-10.469663 0.209393-18.845393 8.794517-18.845393 19.264179 0.209393 10.469663 8.585123 18.845393 19.054786 18.845393h0.209393l103.021479-1.25636c10.469663-0.209393 18.845393-8.794517 18.845393-19.264179l-1.046966-103.021479c-0.209393-10.469663-8.585123-18.635999-19.264179-18.845392-10.469663 0.209393-18.845393 8.794517-18.845393 19.264179l0.62818 57.37375-2.931506-2.722112c-97.577255-95.692715-226.563497-147.412848-363.297289-145.737702zM180.635642 851.028612l-2.931506-2.722113 57.373751-0.628179c10.469663-0.209393 18.845393-8.794517 18.845393-19.264179s-8.794517-18.635999-19.264179-18.845393l-103.02148 1.25636c-10.469663 0.209393-18.845393 8.794517-18.845392 19.264179l1.256359 103.021479c0.209393 10.469663 8.585123 18.845393 19.054786 18.845392h0.209393c10.469663-0.209393 18.845393-8.794517 18.845393-19.264179l-0.62818-57.37375 2.931506 2.722112c99.461794 97.158468 228.448036 145.528309 357.643671 145.528309 132.964714 0 265.929428-51.51074 366.019402-153.904039 68.471593-69.937346 115.166288-157.463724 135.058646-252.737653 19.264179-92.76121 12.772988-189.082105-19.264179-278.074237-3.559685-9.841483-14.448134-15.076314-24.289617-11.516628s-15.076314 14.448134-11.516628 24.289617c61.771009 172.330645 20.729932 360.78457-106.999951 491.655351-183.009701 186.778779-483.489015 190.338465-670.477188 7.747551z" fill="#1296db" p-id="7122"></path><path d="M366.158062 369.842922c-4.187865 4.397258-6.700584 10.260269-6.700584 16.542067 0 5.863011 2.093933 10.050876 3.140899 12.354202l136.105612 301.316887c5.863011 12.982382 15.495101 15.913887 22.614471 15.913887h1.25636c6.909977-0.418787 16.332674-3.559685 21.567505-16.75146l15.285707-38.109571c9.213303-23.242651 18.635999-46.275908 27.849302-69.51856 25.75537-10.260269 51.301346-20.520539 77.056716-30.780807l30.990201-12.354202c14.448134-5.863011 16.75146-16.542067 16.75146-22.405078 0-7.119371-2.512719-16.75146-15.704493-22.614471-71.193705-32.246561-142.178017-64.702514-213.371723-96.949075l-69.099772-31.408987-20.729932-9.422697c-9.63209-4.606652-20.311145-2.722112-27.011729 4.187865z m100.927546 70.774919c61.561616 28.058696 123.123231 56.117391 184.894241 84.176087l-1.88454 0.628179c-28.058696 11.307236-56.326784 22.614471-84.38548 33.712314-4.816045 1.884539-8.794517 5.863011-10.679055 10.679055-10.260269 25.75537-20.520539 51.301346-30.780808 77.056717l-3.769079 9.213303-108.675097-240.383452 55.279818 24.917797z" fill="#1296db" p-id="7123"></path></svg>