<?xml version="1.0" standalone="no"?><!DOCTYPE svg PUBLIC "-//W3C//DTD SVG 1.1//EN" "http://www.w3.org/Graphics/SVG/1.1/DTD/svg11.dtd"><svg t="1569486260977" class="icon" viewBox="0 0 1024 1024" version="1.1" xmlns="http://www.w3.org/2000/svg" p-id="6102" xmlns:xlink="http://www.w3.org/1999/xlink" width="200" height="200"><defs><style type="text/css"></style></defs><path d="M507.611984 240.860047c3.761479-3.761479 8.776785-2.507653 10.866495 3.134565 5.224277 13.374148 10.030611 26.539325 15.045917 39.913473 51.824823 138.338843 103.649647 276.677687 155.47447 414.807559 1.253826 3.552508 2.507653 7.105016-0.626913 10.030611-3.134566 3.134566-6.687074 1.671768-10.030611 0.208971-55.586303-23.822701-111.172605-47.436431-166.758908-71.468103-55.377332 23.822701-110.963634 47.436431-166.340966 71.050161-3.552508 1.462797-6.687074 2.925595-10.030611 0-3.552508-3.134566-2.298682-6.896045-1.044855-10.448553 56.840129-150.459165 113.680258-300.91833 170.520387-451.586466 0.835884-1.671768 1.253826-3.97045 2.925595-5.642218z" fill="#1296db" p-id="6103"></path><path d="M506.567129 38.158116c126.427493-1.671768 246.167912 46.391576 336.861352 134.995306l2.925595 2.925595-57.467042 0.626913c-10.448553 0.208971-18.807396 8.776785-18.807396 19.225338 0.208971 10.448553 8.567814 18.807396 19.016367 18.807396h0.208971l103.231705-1.253827c10.448553-0.208971 18.807396-8.776785 18.807395-19.225337l-1.253826-103.231705c-0.208971-10.448553-8.776785-18.598425-19.225338-18.807396-10.448553 0.208971-18.807396 8.776785-18.807395 19.225338l0.626913 57.467042-2.925595-2.925595c-96.33566-94.245949-223.181095-145.861802-357.758459-145.861801h-6.060161c-136.458104 1.671768-264.557365 56.422187-360.05714 154.220644-68.333537 70.005306-115.143055 157.564181-134.995307 252.854985-19.434309 92.783152-12.747235 189.118811 19.225338 278.140484 2.716624 7.731929 10.030611 12.538264 17.762541 12.538264 2.089711 0 4.179421-0.417942 6.478102-1.044855 9.82164-3.552508 15.045916-14.419003 11.493409-24.240644-61.855434-172.401126-20.897106-360.893025 107.202155-491.91788 88.394759-90.275499 206.881352-141.055467 333.517816-142.518265zM512.000376 1023.874617c133.114567 0 266.020162-51.406881 366.117301-153.802702 68.542508-70.005306 115.143055-157.564181 134.995307-252.854985 19.434309-92.783152 12.747235-189.118811-19.225338-278.140484-3.552508-9.82164-14.419003-15.045916-24.240643-11.493409s-15.045916 14.419003-11.493409 24.240644c61.855434 172.401126 20.897106 360.893025-107.202155 491.917881-92.574181 94.663891-215.867107 142.309293-338.951063 142.309293-119.531448 0-239.271866-44.928778-331.219134-134.786335l-2.925595-2.925595 57.467043-0.626913c10.448553-0.208971 18.807396-8.776785 18.807395-19.225338-0.208971-10.448553-8.567814-18.807396-19.016367-18.807396h-0.208971l-103.440675 1.253827c-5.015305 0-9.82164 2.089711-13.374148 5.642218s-5.433248 8.358842-5.433248 13.374148l1.253826 103.231705c0.208971 10.448553 8.567814 18.807396 19.016367 18.807396h0.208971c10.448553-0.208971 18.807396-8.776785 18.807396-19.225338l-0.626914-57.467042 2.925595 2.925595c99.470226 97.380515 228.614342 145.65283 357.758459 145.65283z" fill="#1296db" p-id="6104"></path><path d="M547.734428 267.608343c-3.761479-10.239582-7.522958-20.270193-11.493409-30.509776-4.179421-10.657524-13.583119-17.553569-24.031672-17.553569-6.687074 0-12.956206 2.716624-17.971511 7.522958-4.597363 4.388392-6.269132 9.403698-7.105016 12.120322l-0.208971 0.626913c-36.778907 97.171544-73.557814 194.552059-110.12775 291.723603l-60.392637 159.653892c-4.806334 12.747235-2.925595 23.404759 5.851189 31.345659 4.806334 4.388392 10.657524 6.687074 16.926657 6.687074 5.642219 0 10.239582-1.88074 13.374148-3.134566l55.795273-23.822701c34.271254-14.627974 68.75148-29.255949 103.022734-44.092894 37.823762 16.299743 75.647525 32.599486 113.680258 48.690258l45.764663 19.434308c2.716624 1.253826 7.522958 3.134566 13.165177 3.134566 6.478103 0 12.747235-2.507653 17.553569-7.313987 7.9409-7.731929 9.612669-17.971511 5.015305-30.300804-42.630097-113.680258-85.260193-227.569487-127.89029-341.458716l-30.927717-82.75254z m92.365209 404.567976c-40.331415-17.344598-80.66283-34.480225-120.994245-51.824823-2.298682-1.044855-5.015305-1.462797-7.522958-1.462798-2.507653 0-5.015305 0.417942-7.522958 1.462798-36.778907 15.881801-73.557814 31.55463-110.336721 47.22746l-33.017428 14.001061 51.406881-136.458104c33.226399-88.185788 66.661769-176.580548 99.888168-264.766336v0.208971l31.136688 83.170483c39.704502 105.948329 79.409004 211.896657 119.113506 317.636015l-22.150933-9.194727z" fill="#1296db" p-id="6105"></path></svg>