<?xml version="1.0" standalone="no"?><!DOCTYPE svg PUBLIC "-//W3C//DTD SVG 1.1//EN" "http://www.w3.org/Graphics/SVG/1.1/DTD/svg11.dtd"><svg t="1569485777327" class="icon" viewBox="0 0 1024 1024" version="1.1" xmlns="http://www.w3.org/2000/svg" p-id="4787" xmlns:xlink="http://www.w3.org/1999/xlink" width="200" height="200"><defs><style type="text/css"></style></defs><path d="M878.46324 802.234692H38.166701c-10.485357 0-19.08335-8.597993-19.083351-19.083351v-110.935081h878.672947v110.935081c0 10.485357-8.597993 19.08335-19.293057 19.083351z" fill="#1296db" p-id="4788"></path><path d="M944.311284 56.096662H577.533484c-33.133729 0-60.395658 27.261929-60.395659 60.395658v223.967234c0 33.133729 27.261929 60.395658 60.395659 60.395658H624.927299v106.950645l111.564202-106.950645h207.819783c33.133729 0 60.395658-27.261929 60.395658-60.395658V116.49232c0-33.343436-27.052222-60.395658-60.395658-60.395658z" fill="#1296db" p-id="4789"></path><path d="M897.756297 458.734385c-10.485357 0-19.08335 8.597993-19.08335 19.08335v183.07434H37.956994v-416.688102c0-22.648372 18.454229-41.312308 41.312308-41.312308h363.8419c10.485357 0 19.08335-8.597993 19.083351-19.08335s-8.597993-19.08335-19.083351-19.083351H79.269302c-43.619087 0-79.269302 35.650215-79.269302 79.269302v501.619496c0 43.619087 35.650215 79.269302 79.269302 79.269302h360.067171v123.936924H270.52222c-10.485357 0-19.08335 8.597993-19.08335 19.08335s8.597993 19.08335 19.08335 19.083351h375.795208c10.485357 0 19.08335-8.597993 19.08335-19.083351s-8.597993-19.08335-19.08335-19.08335h-168.814254v-123.936924h360.067172c43.619087 0 79.269302-35.650215 79.269302-79.269302v-268.005734c-0.209707-10.485357-8.597993-18.873643-19.083351-18.873643z m-60.395658 328.401392H79.269302c-22.648372 0-41.312308-18.454229-41.312308-41.312308v-46.974401H878.672947v46.974401c0 22.858079-18.454229 41.312308-41.312308 41.312308z" fill="#1296db" p-id="4790"></path><path d="M944.311284 37.013311H577.533484c-43.828794 0-79.479009 35.650215-79.479009 79.479009v223.967234c0 43.828794 35.650215 79.479009 79.479009 79.479008h28.310464v87.867295c0 7.549457 4.613557 14.469793 11.533893 17.405693 2.306779 1.048536 5.032972 1.46795 7.549458 1.46795 4.823264 0 9.646529-1.887364 13.21155-5.242678l106.111817-101.707967h200.270325c43.828794 0 79.479009-35.650215 79.479009-79.479009V116.49232c-0.209707-43.828794-35.859922-79.479009-79.688716-79.479009z m41.522015 303.236535c0 22.858079-18.454229 41.312308-41.312308 41.312308h-207.819783c-4.823264 0-9.646529 1.887364-13.21155 5.242679l-79.479009 76.123695v-62.49273c0-5.032972-2.097071-9.856236-5.662093-13.421258s-8.388286-5.662093-13.421257-5.662093h-47.393815c-22.858079 0-41.312308-18.454229-41.312308-41.312308V116.49232c0-22.858079 18.454229-41.312308 41.312308-41.312308h366.7778c22.858079 0 41.312308 18.454229 41.312308 41.312308v223.757526h0.209707z" fill="#1296db" p-id="4791"></path><path d="M761.027237 216.732337c-5.032972 0-9.856236 2.097071-13.421257 5.452386-3.565022 3.565022-5.662093 8.388286-5.662093 13.421257s2.097071 9.856236 5.662093 13.421257 8.388286 5.452386 13.421257 5.452386 9.856236-2.097071 13.421258-5.452386c3.565022-3.565022 5.662093-8.388286 5.662093-13.421257s-2.097071-9.856236-5.662093-13.421257c-3.565022-3.565022-8.597993-5.452386-13.421258-5.452386zM831.698546 216.732337c-5.032972 0-9.856236 2.097071-13.421257 5.452386-3.565022 3.565022-5.662093 8.388286-5.662093 13.421257s2.097071 9.856236 5.662093 13.421257 8.388286 5.452386 13.421257 5.452386 9.856236-2.097071 13.421257-5.452386c3.565022-3.565022 5.662093-8.388286 5.662093-13.421257s-2.097071-9.856236-5.662093-13.421257c-3.565022-3.565022-8.388286-5.452386-13.421257-5.452386zM690.146222 216.732337c-5.032972 0-9.856236 2.097071-13.421258 5.452386-3.565022 3.565022-5.662093 8.388286-5.662093 13.421257s2.097071 9.856236 5.662093 13.421257 8.388286 5.452386 13.421258 5.452386 9.856236-2.097071 13.421257-5.452386c3.565022-3.565022 5.662093-8.388286 5.662093-13.421257s-2.097071-9.856236-5.662093-13.421257c-3.355314-3.565022-8.388286-5.452386-13.421257-5.452386z" fill="#1296db" p-id="4792"></path></svg>