<?xml version="1.0" standalone="no"?><!DOCTYPE svg PUBLIC "-//W3C//DTD SVG 1.1//EN" "http://www.w3.org/Graphics/SVG/1.1/DTD/svg11.dtd"><svg t="1569486283423" class="icon" viewBox="0 0 1024 1024" version="1.1" xmlns="http://www.w3.org/2000/svg" p-id="6750" xmlns:xlink="http://www.w3.org/1999/xlink" width="200" height="200"><defs><style type="text/css"></style></defs><path d="M684.202259 526.636458h-344.608649c-8.364288 0-15.055718-6.69143-15.055717-15.055718v-237.33666c0-8.364288 6.69143-15.055718 15.055717-15.055718h344.608649c8.364288 0 15.055718 6.69143 15.055718 15.055718v237.33666c0 8.15518-6.69143 15.055718-15.055718 15.055718z" fill="#1296db" p-id="6751"></path><path d="M49.980152 828.58724h443.098136v143.656639h-191.960401c-10.455359 0-19.028754 8.573395-19.028754 19.028755s8.573395 19.028754 19.028754 19.028754h421.769202c10.455359 0 19.028754-8.573395 19.028755-19.028754s-8.573395-19.028754-19.028755-19.028755h-191.9604v-143.656639h443.098135c27.602149 0 49.976618-22.374469 49.976619-49.976618V183.909774c0-27.602149-22.374469-49.976618-49.976619-49.976619h-210.780047c-10.455359 0-19.028754 8.573395-19.028754 19.028754s8.573395 19.028754 19.028754 19.028755h210.57094c6.69143 0 12.128217 5.436787 12.128217 12.128217v594.700848c0 6.69143-5.436787 12.128217-12.128217 12.128217h-923.835565c-6.69143 0-12.128217-5.436787-12.128217-12.128217V183.909774c0-6.69143 5.436787-12.128217 12.128217-12.128217h211.198262c10.455359 0 19.028754-8.573395 19.028754-19.028755s-8.573395-19.028754-19.028754-19.028754h-211.198262c-27.602149 0-49.976618 22.374469-49.976618 49.976618v594.700848c-0.209107 27.811256 22.374469 50.185726 49.976618 50.185726z" fill="#1296db" p-id="6752"></path><path d="M354.858435 545.456105h314.078999c27.183935 0 49.349297-22.165362 49.349297-49.349297v-206.807011c0-27.183935-22.165362-49.349297-49.349297-49.349297h-5.855001v-75.069481c0-83.433769-67.75073-151.184498-151.184498-151.184498s-151.184498 67.75073-151.184499 151.184498v75.278589h-5.855001c-27.183935 0-49.349297 22.165362-49.349297 49.349296v206.807011c0.209107 27.183935 22.165362 49.14019 49.349297 49.14019z m43.703403-380.575086c0-62.52305 50.813047-113.336097 113.336097-113.336097s113.336097 50.813047 113.336097 113.336097v75.278589h-226.672194v-75.278589z m-54.995191 124.627885c0-6.273216 5.018573-11.291788 11.291788-11.291788h314.078999c6.273216 0 11.291788 5.018573 11.291789 11.291788v206.807011c0 6.273216-5.018573 11.291788-11.291789 11.291788h-314.078999c-6.273216 0-11.291788-5.018573-11.291788-11.291788v-206.807011z" fill="#1296db" p-id="6753"></path><path d="M495.378467 395.735357c2.091072 1.672858 2.718393 3.136608 2.718393 5.645894v35.966437c0 9.828038 10.455359 17.355897 20.910719 12.128217 4.391251-2.300179 6.900537-7.109644 6.69143-12.128217v-35.966437c0-2.718393 0.627322-4.391251 2.927501-5.855001 7.527859-5.436787 11.291788-13.173753 11.291788-22.37447-0.209107-13.591967-9.618931-24.465541-23.001791-27.183934-12.128217-2.509286-25.092863 4.391251-30.320542 16.101253-5.645894 11.91911-2.091072 25.511077 8.782502 33.666258z" fill="#1296db" p-id="6754"></path></svg>