<?xml version="1.0" standalone="no"?><!DOCTYPE svg PUBLIC "-//W3C//DTD SVG 1.1//EN" "http://www.w3.org/Graphics/SVG/1.1/DTD/svg11.dtd"><svg t="1569486286238" class="icon" viewBox="0 0 1024 1024" version="1.1" xmlns="http://www.w3.org/2000/svg" p-id="6934" xmlns:xlink="http://www.w3.org/1999/xlink" width="200" height="200"><defs><style type="text/css"></style></defs><path d="M511.789906 265.559294c-68.070579 0-123.3254-55.254822-123.3254-123.3254 0-68.070579 55.254822-123.3254 123.3254-123.3254 68.070579 0 123.3254 55.254822 123.3254 123.3254 0 68.070579-55.254822 123.3254-123.3254 123.3254z" fill="#1296db" p-id="6935"></path><path d="M511.789906 635.3254c-68.070579 0-123.3254-55.254822-123.3254-123.3254 0-68.070579 55.254822-123.3254 123.3254-123.3254 68.070579 0 123.3254 55.254822 123.3254 123.3254 0 68.070579-55.254822 123.3254-123.3254 123.3254z" fill="#1296db" p-id="6936"></path><path d="M511.789906 1005.091506c-68.070579 0-123.3254-55.254822-123.3254-123.3254 0-68.070579 55.254822-123.3254 123.3254-123.3254 68.070579 0 123.3254 55.254822 123.3254 123.3254 0 68.070579-55.254822 123.3254-123.3254 123.3254z" fill="#1296db" p-id="6937"></path><path d="M978.40952 118.703324h-200.430037L859.286007 37.396799c7.353303-7.353303 7.353303-19.538777 0-26.89208s-19.538777-7.353303-26.89208 0L718.522774 124.375872c-3.571604 3.571604-5.672548 8.403775-5.672548 13.44604 0 5.042265 2.100944 9.874436 5.672548 13.44604l113.871153 113.871153c3.781699 3.781699 8.61387 5.672548 13.44604 5.672549s9.664341-1.890849 13.44604-5.672549c7.353303-7.353303 7.353303-19.538777 0-26.89208l-81.306524-81.306524h181.521543v705.917111h-306.737793c-9.244153-69.541239-68.910956-123.3254-140.973327-123.3254-78.365203 0-142.233894 63.868691-142.233895 142.233894s63.868691 142.233894 142.233895 142.233894c72.062372 0 131.729175-53.784161 140.973327-123.3254h325.646287c10.504719 0 19.118588-8.61387 19.118588-19.118589v-743.734099c0-10.714813-8.61387-19.118588-19.118588-19.118588zM511.789906 985.972918c-57.56586 0-104.206812-46.851046-104.206812-104.206812s46.851046-104.206812 104.206812-104.206812 104.206812 46.851046 104.206811 104.206812-46.640952 104.206812-104.206811 104.206812zM191.816167 758.860895c-7.353303-7.353303-19.538777-7.353303-26.89208 0s-7.353303 19.538777 0 26.89208l81.306524 81.306524H64.498974v-705.917111h306.317604c9.244153 69.541239 68.910956 123.3254 140.973328 123.3254 78.365203 0 142.233894-63.868691 142.233894-142.233894S590.155109 0 511.789906 0c-72.062372 0-131.729175 53.784161-140.973328 123.3254H45.59048c-10.504719 0-19.118588 8.61387-19.118588 19.118589v743.944193c0 10.504719 8.61387 19.118588 19.118588 19.118589h200.850226l-81.306525 81.306524c-7.353303 7.353303-7.353303 19.538777 0 26.89208 3.781699 3.781699 8.61387 5.672548 13.446041 5.672549s9.664341-1.890849 13.44604-5.672549l113.871153-113.871153c3.571604-3.571604 5.672548-8.403775 5.672548-13.44604s-2.100944-9.874436-5.672548-13.44604l-114.081248-114.081247zM511.789906 38.027082c57.56586 0 104.206812 46.851046 104.206811 104.206812s-46.851046 104.206812-104.206811 104.206812S407.583094 199.589659 407.583094 142.233894s46.851046-104.206812 104.206812-104.206812z" fill="#1296db" p-id="6938"></path><path d="M511.789906 369.766106c-78.365203 0-142.233894 63.868691-142.233895 142.233894s63.868691 142.233894 142.233895 142.233894 142.233894-63.868691 142.233894-142.233894c0.210094-78.365203-63.658597-142.233894-142.233894-142.233894z m0 246.440706c-57.56586 0-104.206812-46.851046-104.206812-104.206812s46.851046-104.206812 104.206812-104.206812 104.206812 46.851046 104.206811 104.206812-46.640952 104.206812-104.206811 104.206812z" fill="#1296db" p-id="6939"></path></svg>