<?xml version="1.0" standalone="no"?><!DOCTYPE svg PUBLIC "-//W3C//DTD SVG 1.1//EN" "http://www.w3.org/Graphics/SVG/1.1/DTD/svg11.dtd"><svg t="1569486297782" class="icon" viewBox="0 0 1024 1024" version="1.1" xmlns="http://www.w3.org/2000/svg" p-id="7668" xmlns:xlink="http://www.w3.org/1999/xlink" width="200" height="200"><defs><style type="text/css"></style></defs><path d="M150.465306 787.121633m-131.657143 0a131.657143 131.657143 0 1 0 263.314286 0 131.657143 131.657143 0 1 0-263.314286 0Z" fill="#1296db" p-id="7669"></path><path d="M873.534694 787.121633m-131.657143 0a131.657143 131.657143 0 1 0 263.314286 0 131.657143 131.657143 0 1 0-263.314286 0Z" fill="#1296db" p-id="7670"></path><path d="M505.312653 157.048163m-131.657143 0a131.657143 131.657143 0 1 0 263.314286 0 131.657143 131.657143 0 1 0-263.314286 0Z" fill="#1296db" p-id="7671"></path><path d="M709.067755 948.871837c-4.597551-9.404082-15.882449-13.374694-25.286531-8.777143-54.125714 26.122449-112.43102 39.497143-173.035102 39.497143-91.742041 0-180.140408-31.555918-250.984489-89.025306 25.49551-26.958367 41.16898-63.320816 41.168979-103.235919 0-82.964898-67.500408-150.465306-150.465306-150.465306s-150.465306 67.500408-150.465306 150.465306 67.500408 150.465306 150.465306 150.465306c29.048163 0 56.42449-8.359184 79.412245-22.778775 78.576327 66.246531 177.632653 102.4 280.868571 102.4 66.45551 0 130.194286-14.628571 189.54449-43.258776 9.404082-4.597551 13.374694-15.882449 8.777143-25.28653z m-671.242449-161.750204c0-62.066939 50.573061-112.64 112.64-112.64s112.64 50.573061 112.64 112.64-50.573061 112.64-112.64 112.64-112.64-50.573061-112.64-112.64zM75.441633 561.005714c-0.417959 10.44898 7.732245 19.226122 18.390204 19.644082h0.626939c10.24 0 18.599184-8.150204 19.017142-18.390204 4.597551-135.627755 76.69551-258.298776 192.679184-328.306939 18.181224-10.866939 37.198367-20.48 56.633469-28.421224 20.27102 59.141224 76.486531 101.982041 142.315102 101.98204 82.964898 0 150.465306-67.500408 150.465307-150.465306s-67.500408-150.465306-150.465307-150.465306-150.465306 67.500408-150.465306 150.465306c0 3.761633 0.20898 7.314286 0.41796 10.866939-23.614694 9.195102-46.811429 20.48-68.545307 33.645714-127.059592 76.486531-206.053878 210.860408-211.069387 359.444898z m429.87102-516.597551c62.066939 0 112.64 50.573061 112.64 112.64s-50.573061 112.43102-112.64 112.431021-112.64-50.573061-112.64-112.64 50.364082-112.43102 112.64-112.431021zM873.534694 636.656327c-82.964898 0-150.465306 67.500408-150.465306 150.465306s67.500408 150.465306 150.465306 150.465306 150.465306-67.500408 150.465306-150.465306c0-58.305306-33.436735-109.087347-82.12898-133.955919 4.179592-24.659592 6.478367-49.737143 6.478368-74.814694 0-148.37551-74.396735-285.257143-198.948572-366.341224-8.777143-5.642449-20.48-3.134694-26.122449 5.642449s-3.134694 20.48 5.642449 26.122449c113.893878 73.978776 181.812245 198.948571 181.812245 334.576326 0 20.68898-1.671837 41.377959-4.80653 61.85796-10.44898-2.298776-21.315918-3.552653-32.391837-3.552653z m112.64 150.465306c0 62.066939-50.573061 112.64-112.64 112.64s-112.64-50.573061-112.64-112.64 50.573061-112.64 112.64-112.64 112.64 50.573061 112.64 112.64z" fill="#1296db" p-id="7672"></path></svg>