<?xml version="1.0" standalone="no"?><!DOCTYPE svg PUBLIC "-//W3C//DTD SVG 1.1//EN" "http://www.w3.org/Graphics/SVG/1.1/DTD/svg11.dtd"><svg t="1569486294929" class="icon" viewBox="0 0 1024 1024" version="1.1" xmlns="http://www.w3.org/2000/svg" p-id="7485" xmlns:xlink="http://www.w3.org/1999/xlink" width="200" height="200"><defs><style type="text/css"></style></defs><path d="M709.147628 554.536347l-25.438404-427.657096c-2.085115-35.238444-31.276726-62.761963-66.723681-62.761963h-114.055793 17.723477H406.597434c-35.238444 0-64.638566 27.523519-66.723681 62.761963l-25.438404 427.657096" fill="#1296db" p-id="7486"></path><path d="M201.213602 535.770312H18.974547c-10.425575 0-18.974547 8.548972-18.974547 18.974546s8.548972 18.974547 18.974547 18.974547h45.872531v78.400326c0 10.425575 8.548972 18.974547 18.974547 18.974547h46.915089v289.205457c0 10.425575 8.548972 18.974547 18.974546 18.974547h65.889636c10.425575 0 18.974547-8.548972 18.974547-18.974547s-8.548972-18.974547-18.974547-18.974547H168.477296v-270.647933h685.168805v270.23091h-46.915089c-10.425575 0-18.974547 8.548972-18.974547 18.974547s8.548972 18.974547 18.974547 18.974547h65.889636c10.425575 0 18.974547-8.548972 18.974546-18.974547v-289.205457h48.583181c10.425575 0 18.974547-8.548972 18.974547-18.974547v-78.400326h45.872531c10.425575 0 18.974547-8.548972 18.974547-18.974547s-8.548972-18.974547-18.974547-18.974546h-182.447567l-22.310731-123.438811c-5.004276-27.73203-29.191611-47.957646-57.340663-47.957646h-26.063939L702.683771 125.211159c-2.71065-45.246997-40.24272-80.485441-85.489717-80.485441H406.805946c-45.246997 0-82.779067 35.446956-85.489717 80.485441l-14.178782 238.745673h-26.063939c-28.149053 0-52.336388 20.225616-57.340663 47.957646l-22.519243 123.855834z m719.781715 97.166361H102.796172v-59.425779h817.990633v59.425779h0.208512z m-178.277337-230.822236c10.008552 0 18.349012 7.089391 20.225616 16.889432l21.059662 116.557931h-57.132152l-7.923438-133.447363h23.770312z m-383.661169-274.192629c1.459581-25.229892 22.519243-45.038485 47.749135-45.038485h210.179597c25.229892 0 46.289554 19.808593 47.749134 45.038485l24.395846 407.848504h-354.469558l24.395846-407.848504z m-98.208919 291.082061c1.668092-9.800041 10.217064-16.889432 20.225616-16.889432h23.770312l-7.923437 133.447363H239.788231l21.059661-116.557931z" fill="#1296db" p-id="7487"></path><path d="M421.401751 270.335166h176.400733c10.425575 0 18.974547-8.548972 18.974547-18.974547s-8.548972-18.974547-18.974547-18.974547h-176.400733c-10.425575 0-18.974547 8.548972-18.974547 18.974547s8.548972 18.974547 18.974547 18.974547zM709.147628 753.873346c10.425575 0 18.974547-8.548972 18.974547-18.974547s-8.548972-18.974547-18.974547-18.974547H314.643861c-10.425575 0-18.974547 8.548972-18.974547 18.974547s8.548972 18.974547 18.974547 18.974547h178.485848v82.987578h-86.740786c-10.425575 0-18.974547 8.548972-18.974547 18.974547v104.255753c0 10.425575 8.548972 18.974547 18.974547 18.974547s18.974547-8.548972 18.974547-18.974547v-85.281206h67.97475v85.281206c0 10.425575 8.548972 18.974547 18.974547 18.974547s18.974547-8.548972 18.974547-18.974547v-85.281206h67.974751v85.281206c0 10.425575 8.548972 18.974547 18.974547 18.974547s18.974547-8.548972 18.974547-18.974547v-104.255753c0-10.425575-8.548972-18.974547-18.974547-18.974547h-86.740786v-82.987578h177.651802z" fill="#1296db" p-id="7488"></path></svg>