<?xml version="1.0" standalone="no"?><!DOCTYPE svg PUBLIC "-//W3C//DTD SVG 1.1//EN" "http://www.w3.org/Graphics/SVG/1.1/DTD/svg11.dtd"><svg t="1569486306126" class="icon" viewBox="0 0 1024 1024" version="1.1" xmlns="http://www.w3.org/2000/svg" p-id="8216" xmlns:xlink="http://www.w3.org/1999/xlink" width="200" height="200"><defs><style type="text/css"></style></defs><path d="M512 511.581528m-280.166735 0a280.166735 280.166735 0 1 0 560.33347 0 280.166735 280.166735 0 1 0-560.33347 0Z" fill="#1296db" p-id="8217"></path><path d="M995.753167 392.735595c6.277074-12.135676 7.323253-25.945239 3.138537-38.917859-4.184716-12.97262-13.181855-23.434409-25.317532-29.711483l-113.405803-57.539845c-3.766244-1.883122-6.277074-5.440131-6.904781-9.624847l-20.086637-125.750715c-3.97548-24.89906-25.108296-43.102575-50.216591-43.102575-2.720065 0-5.440131 0.209236-8.160197 0.627708l-125.541479 20.086636c-4.184716 0.627707-8.369432-0.836943-11.298733-3.766244l-89.971394-89.971393C538.363711 5.440131 525.600327 0 512 0s-26.363711 5.230895-35.988557 15.064978l-89.971394 89.971393c-2.929301 2.929301-7.114017 4.393952-11.298733 3.766244l-125.541479-20.086636c-2.720065-0.418472-5.440131-0.627707-8.160197-0.627708-25.317532 0-46.450347 18.203515-50.216591 43.102575l-19.877401 125.750715c-0.627707 4.184716-3.347773 7.741725-6.904782 9.624847l-113.405803 57.539845c-12.135676 6.277074-21.132816 16.738864-25.317531 29.711483s-3.138537 26.782182 3.138537 38.917859l57.958316 113.196567c1.883122 3.766244 1.883122 8.160196 0 11.92644l-58.167552 113.405803c-6.277074 12.135676-7.323253 25.945239-3.138537 38.917859s13.181855 23.434409 25.317532 29.711483L163.831631 757.433592c3.766244 1.883122 6.277074 5.440131 6.904781 9.624847l19.668165 125.750715c3.97548 24.89906 25.108296 43.102575 50.216592 43.102575 2.720065 0 5.440131-0.209236 8.160196-0.627708l125.541479-20.086636c4.184716-0.627707 8.369432 0.836943 11.298733 3.766244l89.971394 89.971393c9.624847 9.624847 22.38823 15.064978 35.988557 15.064978s26.363711-5.230895 35.988558-15.064978l89.971393-89.971393c2.929301-2.929301 7.114017-4.393952 11.298734-3.766244l125.541479 20.086636c2.720065 0.418472 5.440131 0.627707 8.160196 0.627708 25.317532 0 46.450347-18.203515 50.216592-43.102575l19.877401-125.750715c0.627707-4.184716 3.347773-7.741725 6.904781-9.624847l113.405803-57.539845c12.135676-6.277074 21.132816-16.738864 25.317532-29.711483s3.138537-26.782182-3.138537-38.917859l-57.958317-113.196567c-1.883122-3.766244-1.883122-8.160196 0-11.92644l58.586024-113.405803z m-91.64528 142.489579l57.958317 113.196567c1.673886 3.138537 1.883122 6.695546 0.836943 10.043318-1.046179 3.347773-3.347773 6.067838-6.48631 7.532489l-113.405803 57.749081c-14.43727 7.323253-24.689824 21.342051-27.200654 37.453208l-19.877401 125.750715c-1.046179 6.904781-7.741725 12.135676-14.855742 10.880261l-125.541479-20.086636c-2.720065-0.418472-5.440131-0.627707-7.95096-0.627708-13.600327 0-26.363711 5.230895-35.988558 15.064978l-89.971393 89.971393c-5.021659 5.021659-13.600327 5.021659-18.412751 0l-89.971393-89.971393c-9.415611-9.415611-22.597466-15.064978-35.988558-15.064978-2.720065 0-5.440131 0.209236-7.95096 0.627708l-125.541479 20.086636c-7.114017 1.046179-13.809563-3.97548-14.855742-10.880261l-19.668165-125.750715c-2.51083-16.111157-12.763384-30.129955-27.200654-37.453208l-113.405803-57.539845c-3.138537-1.673886-5.440131-4.184716-6.48631-7.532489s-0.836943-6.904781 0.836943-10.043318l57.958317-113.196568c7.323253-14.43727 7.323253-31.803841 0-46.450347l-58.79526-113.405803c-1.673886-3.138537-1.883122-6.695546-0.836943-10.043318s3.347773-6.067838 6.48631-7.532489l113.405803-57.539845c14.43727-7.323253 24.689824-21.342051 27.200654-37.453208l19.668165-125.750715c1.046179-6.904781 7.95096-11.926441 14.855742-10.880261l125.541479 20.086636c2.720065 0.418472 5.440131 0.627707 7.95096 0.627708 13.600327 0 26.363711-5.230895 35.988558-15.064978l89.971393-89.971393c5.021659-5.021659 13.600327-5.021659 18.412751 0l89.971393 89.971393c11.298733 11.507969 28.246833 16.9481 44.148754 14.228034l125.541479-20.086636c7.114017-1.046179 13.809563 3.97548 14.855742 10.880261l19.877401 125.750715c2.51083 16.111157 12.763384 30.129955 27.200654 37.453208l113.405803 57.539845c3.138537 1.673886 5.440131 4.184716 6.486309 7.532489s0.836943 6.904781-0.836943 10.043318l-57.958316 113.196568c-6.904781 14.855742-6.904781 32.013077 0.627707 46.659583z" fill="#1296db" p-id="8218"></path><path d="M537.945239 492.750306h-52.099714c-20.92358 0-38.080915-17.157336-38.080915-38.080915s17.157336-38.080915 38.080915-38.080915H577.490805c10.46179 0 19.040458-8.578668 19.040458-19.040458s-8.578668-19.040458-19.040458-19.040458h-46.868819V343.14671c0-10.46179-8.578668-19.040458-19.040458-19.040457s-19.040458 8.578668-19.040457 19.040457v35.36085H485.427054c-41.84716 0-75.952595 34.105435-75.952595 75.952595s34.105435 75.952595 75.952595 75.952595h52.099713c20.92358 0 38.080915 17.157336 38.080916 38.080916s-17.157336 38.080915-38.080916 38.080915h-93.528402c-10.46179 0-19.040458 8.578668-19.040457 19.040458s8.578668 19.040458 19.040457 19.040458h48.542706v35.988557c0 10.46179 8.578668 19.040458 19.040457 19.040458s19.040458-8.578668 19.040458-19.040458v-35.988557h7.114017c41.84716 0 75.952595-34.105435 75.952595-75.952595 0.209236-41.84716-33.896199-75.952595-75.743359-75.952596zM660.138946 296.487127c3.347773 2.301594 7.114017 3.347773 10.671025 3.347773 6.067838 0 11.926441-2.929301 15.692685-8.160196 6.067838-8.578668 3.766244-20.505108-4.812423-26.363711-8.578668-5.858602-20.505108-3.766244-26.363711 4.812423-5.858602 8.578668-3.766244 20.505108 4.812424 26.363711zM721.445035 344.611361c4.393952 0 8.997139-1.464651 12.554148-4.812424 7.741725-6.904781 8.578668-18.831222 1.673886-26.782182-6.904781-7.741725-19.040458-8.578668-26.782182-1.46465-7.741725 6.904781-8.578668 18.831222-1.464651 26.782182 3.557009 4.184716 8.787904 6.277074 14.018799 6.277074zM605.109931 755.759706c-9.834083 3.766244-14.646506 14.646506-10.880262 24.480588 2.929301 7.532489 10.043318 12.135676 17.785043 12.135677 2.301594 0 4.603188-0.418472 6.695545-1.255415 9.834083-3.766244 14.646506-14.646506 10.880262-24.480589-3.766244-9.624847-14.646506-14.646506-24.480588-10.880261zM660.766653 726.257458c-8.578668 6.067838-10.671026 17.785043-4.812423 26.363711 3.766244 5.230895 9.624847 8.160196 15.692685 8.160196 3.766244 0 7.532489-1.046179 10.880261-3.347773 8.578668-6.067838 10.671026-17.785043 4.812424-26.363711-6.067838-8.578668-17.994279-10.671026-26.572947-4.812423zM419.936248 756.178177c-9.834083-3.766244-20.714344 1.255415-24.480588 11.089498-3.766244 9.834083 1.255415 20.714344 11.089497 24.480588 2.092358 0.836943 4.393952 1.255415 6.695546 1.255415 7.741725 0 14.855742-4.603188 17.785043-12.344912 3.557009-9.834083-1.255415-20.92358-11.089498-24.480589zM544.013077 770.824683c-10.46179 1.255415-17.785043 10.671026-16.529628 21.132816 1.255415 9.624847 9.415611 16.738864 18.831222 16.738864 0.836943 0 1.464651 0 2.301594-0.209236 10.46179-1.255415 17.785043-10.671026 16.529628-21.132816-1.255415-10.252554-10.671026-17.785043-21.132816-16.529628zM481.033102 771.033919c-10.46179-1.255415-19.877401 6.277074-21.132816 16.738864s6.277074 19.877401 16.529628 20.92358c0.836943 0 1.464651 0.209236 2.301594 0.209236 9.415611 0 17.575807-7.114017 18.831222-16.738864 1.464651-10.46179-6.067838-19.877401-16.529628-21.132816zM765.593788 448.810789c2.092358 8.578668 9.834083 14.43727 18.412751 14.43727 1.464651 0 3.138537-0.209236 4.603187-0.627708 10.252554-2.51083 16.320392-12.763384 13.809563-23.015937-2.51083-10.252554-12.763384-16.320392-23.015938-13.809563-10.043318 2.51083-16.320392 12.763384-13.809563 23.015938zM792.166735 492.331835c-10.46179 0-19.040458 8.578668-19.040458 19.040458s8.578668 19.040458 19.040458 18.831222c10.46179 0 19.040458-8.578668 18.831222-19.040458 0.209236-10.46179-8.369432-18.831222-18.831222-18.831222zM788.609726 559.914998c-10.252554-2.51083-20.505108 3.766244-23.015938 13.809563-2.51083 10.252554 3.766244 20.505108 13.809563 23.015938 1.464651 0.418472 2.929301 0.627707 4.603188 0.627707 8.578668 0 16.320392-5.858602 18.41275-14.43727 2.720065-10.46179-3.557009-20.505108-13.809563-23.015938zM759.944422 400.058848c2.929301 0 6.067838-0.627707 8.787903-2.092358 9.206375-4.812423 12.763384-16.320392 7.950961-25.526768-5.021659-9.206375-16.320392-12.763384-25.526768-7.95096-9.206375 4.812423-12.763384 16.320392-7.95096 25.526767 3.347773 6.48631 10.043318 10.043318 16.738864 10.043319zM707.844708 684.410298c-6.904781 7.741725-6.277074 19.877401 1.673886 26.782183 3.557009 3.138537 8.160196 4.812423 12.554148 4.812423 5.230895 0 10.46179-2.092358 14.228034-6.48631 6.904781-7.95096 6.277074-19.877401-1.673886-26.782182s-19.877401-6.067838-26.782182 1.673886zM769.150797 624.56886c-9.206375-4.812423-20.714344-1.255415-25.526768 7.95096-4.812423 9.206375-1.255415 20.714344 7.950961 25.526768 2.720065 1.464651 5.858602 2.092358 8.787903 2.092358 6.904781 0 13.391091-3.766244 16.738864-10.252555 4.812423-8.997139 1.255415-20.295872-7.95096-25.317531zM302.345729 344.820597c5.230895 0 10.46179-2.092358 14.228035-6.277074 6.904781-7.741725 6.277074-19.877401-1.673887-26.782183s-19.877401-6.277074-26.782182 1.673887c-6.904781 7.741725-6.277074 19.877401 1.673887 26.782182 3.557009 3.138537 7.95096 4.603188 12.554147 4.603188zM255.267675 625.615039c-9.206375 5.021659-12.763384 16.320392-7.950961 25.736003 3.347773 6.48631 10.043318 10.043318 16.738864 10.043318 2.929301 0 6.067838-0.627707 8.787904-2.092358 9.206375-4.812423 12.763384-16.320392 7.95096-25.526767-4.812423-9.415611-16.111157-12.97262-25.526767-8.160196zM258.406212 574.77074c-2.51083-10.252554-12.763384-16.320392-23.015938-13.809563-10.252554 2.51083-16.320392 12.763384-13.809563 23.015938 2.092358 8.578668 9.834083 14.43727 18.41275 14.43727 1.464651 0 3.138537-0.209236 4.603188-0.627707 10.252554-2.51083 16.529628-12.763384 13.809563-23.015938zM235.390274 463.038823c1.464651 0.418472 3.138537 0.627707 4.603187 0.627707 8.578668 0 16.320392-5.858602 18.412751-14.43727 2.51083-10.252554-3.766244-20.505108-13.809563-23.015938-10.252554-2.51083-20.505108 3.766244-23.015938 13.809563-2.51083 10.252554 3.557009 20.505108 13.809563 23.015938zM231.833265 531.458929c10.46179 0 18.831222-8.578668 18.831222-19.040457v-0.418472-0.418472c0-10.46179-8.578668-19.040458-19.040458-19.040457s-18.831222 8.578668-18.831221 19.040457v0.836944c0.209236 10.46179 8.578668 19.040458 19.040457 19.040457zM255.058439 398.175725c2.929301 1.464651 5.858602 2.092358 8.787903 2.092358 6.904781 0 13.391091-3.766244 16.738864-10.043318 4.812423-9.206375 1.255415-20.714344-7.95096-25.526767-9.206375-4.812423-20.714344-1.255415-25.526767 7.95096-4.812423 9.206375-1.255415 20.714344 7.95096 25.526767zM290.210053 683.782591c-7.741725 6.904781-8.578668 19.040458-1.46465 26.782182 3.766244 4.184716 8.997139 6.277074 14.228034 6.277074 4.603188 0 8.997139-1.464651 12.554148-4.812423 7.741725-6.904781 8.578668-19.040458 1.46465-26.782182-7.114017-7.741725-19.040458-8.369432-26.782182-1.464651zM477.894565 252.547609c0.836943 0 1.464651 0 2.301594-0.209235 10.46179-1.255415 17.785043-10.671026 16.529628-21.132816s-10.671026-17.785043-21.132816-16.529628-17.785043 10.671026-16.529628 21.132815c1.255415 9.624847 9.415611 16.738864 18.831222 16.738864zM543.176134 252.338374c0.836943 0 1.464651 0.209236 2.301594 0.209235 9.415611 0 17.575807-7.114017 18.831222-16.738864 1.255415-10.46179-6.277074-19.877401-16.529628-21.132815-10.46179-1.255415-19.877401 6.277074-21.132816 16.529628-1.255415 10.46179 6.277074 19.877401 16.529628 21.132816zM604.482223 267.194115c2.092358 0.836943 4.393952 1.255415 6.695546 1.255415 7.741725 0 14.855742-4.603188 17.785043-12.344912 3.766244-9.834083-1.255415-20.714344-11.089498-24.480589-9.834083-3.766244-20.714344 1.255415-24.480588 11.089498-3.766244 9.834083 1.255415 20.92358 11.089497 24.480588zM412.40376 268.658766c2.301594 0 4.603188-0.418472 6.695545-1.255415 9.834083-3.766244 14.646506-14.646506 11.089498-24.480588-3.766244-9.834083-14.646506-14.646506-24.480589-11.089498-9.834083 3.766244-14.646506 14.646506-10.880261 24.480589 2.720065 7.741725 10.043318 12.344912 17.575807 12.344912zM364.07029 726.885166c-8.578668-5.858602-20.505108-3.766244-26.363711 4.812423-5.858602 8.578668-3.766244 20.505108 4.812424 26.363711 3.347773 2.301594 7.114017 3.347773 10.671026 3.347772 6.067838 0 11.926441-2.929301 15.692685-8.160196 6.067838-8.578668 3.97548-20.295872-4.812424-26.36371zM352.771557 300.044136c3.766244 0 7.532489-1.046179 10.880262-3.347773 8.578668-5.858602 10.671026-17.785043 4.812423-26.363711-6.067838-8.578668-17.785043-10.671026-26.363711-4.812423-8.578668 6.067838-10.671026 17.785043-4.812423 26.363711 3.557009 5.440131 9.415611 8.160196 15.483449 8.160196z" fill="#1296db" p-id="8219"></path></svg>