<?xml version="1.0" standalone="no"?><!DOCTYPE svg PUBLIC "-//W3C//DTD SVG 1.1//EN" "http://www.w3.org/Graphics/SVG/1.1/DTD/svg11.dtd"><svg t="1569486309325" class="icon" viewBox="0 0 1024 1024" version="1.1" xmlns="http://www.w3.org/2000/svg" p-id="8399" xmlns:xlink="http://www.w3.org/1999/xlink" width="200" height="200"><defs><style type="text/css"></style></defs><path d="M512 930.947196m-73.981171 0a73.981171 73.981171 0 1 0 147.962342 0 73.981171 73.981171 0 1 0-147.962342 0Z" fill="#1296db" p-id="8400"></path><path d="M512 93.052804m-73.981171 0a73.981171 73.981171 0 1 0 147.962342 0 73.981171 73.981171 0 1 0-147.962342 0Z" fill="#1296db" p-id="8401"></path><path d="M930.947196 512m-73.981171 0a73.981171 73.981171 0 1 0 147.962342 0 73.981171 73.981171 0 1 0-147.962342 0Z" fill="#1296db" p-id="8402"></path><path d="M93.052804 512m-73.981171 0a73.981171 73.981171 0 1 0 147.962342 0 73.981171 73.981171 0 1 0-147.962342 0Z" fill="#1296db" p-id="8403"></path><path d="M512 726.817847c-10.478919 0-19.071633 8.592714-19.071633 19.071633v93.891118c-42.125256 8.802292-73.981171 46.316824-73.981171 91.166598 0 51.346705 41.706099 93.052804 93.052804 93.052804s93.052804-41.706099 93.052804-93.052804c0-44.849775-31.855915-82.364306-73.981171-91.166598v-93.891118c0-10.478919-8.592714-19.071633-19.071633-19.071633z m55.119116 204.129349c0 30.388866-24.73025 55.119116-55.119116 55.119116S456.880884 961.336062 456.880884 930.947196s24.73025-55.119116 55.119116-55.119116 55.119116 24.73025 55.119116 55.119116zM730.380679 757.206713c-9.850184 15.089644-15.299222 32.48465-15.299222 50.927548 0 24.939828 9.640606 48.203029 27.245191 65.807614 17.604585 17.604585 40.867786 27.24519 65.807613 27.24519s48.203029-9.640606 65.807614-27.24519c17.604585-17.604585 27.24519-40.867786 27.24519-65.807614 0-24.939828-9.640606-48.203029-27.24519-65.807613-17.604585-17.604585-40.867786-27.24519-65.807614-27.245191-18.442898 0-36.047483 5.23946-50.927548 15.299222l-66.436349-66.436348c-7.335244-7.335244-19.49079-7.335244-26.826033 0s-7.335244 19.49079 0 26.826033l66.436348 66.436349z m116.735162 12.155547c21.376995 21.376995 21.376995 56.376586 0 77.96316-10.478919 10.478919-24.311093 16.137536-38.98158 16.137535s-28.502661-5.658616-38.98158-16.137535c-21.376995-21.376995-21.376995-56.376586 0-77.753582 10.478919-10.478919 24.311093-16.137536 38.98158-16.137536 14.880065-0.209578 28.712239 5.449038 38.98158 15.927958zM663.944331 360.055669c3.772411 3.772411 8.592714 5.658616 13.413017 5.658617s9.640606-1.886205 13.413016-5.658617l66.436349-66.436348c15.089644 9.850184 32.48465 15.299222 50.927548 15.299222 24.939828 0 48.203029-9.640606 65.807614-27.245191s27.24519-40.867786 27.24519-65.807613-9.640606-48.203029-27.24519-65.807614-40.867786-27.24519-65.807614-27.24519-48.203029 9.640606-65.807613 27.24519-27.24519 40.867786-27.245191 65.807614c0 18.442898 5.23946 36.047483 15.299222 50.927548L663.944331 333.229636c-7.335244 7.335244-7.335244 19.49079 0 26.826033z m105.417929-183.17151c10.478919-10.478919 24.311093-16.137536 38.98158-16.137536s28.502661 5.658616 38.98158 16.137536c21.376995 21.376995 21.376995 56.376586 0 77.96316-10.478919 10.478919-24.311093 16.137536-38.98158 16.137536s-28.502661-5.658616-38.98158-16.137536c-21.586574-21.586574-21.586574-56.586165 0-77.96316zM360.055669 663.944331c-7.335244-7.335244-19.49079-7.335244-26.826033 0l-66.436349 66.436348c-15.089644-9.850184-32.48465-15.299222-50.927548-15.299222-24.939828 0-48.203029 9.640606-65.807614 27.245191-17.604585 17.604585-27.24519 40.867786-27.24519 65.807613 0 24.939828 9.640606 48.203029 27.24519 65.807614 17.604585 17.604585 40.867786 27.24519 65.807614 27.24519s48.203029-9.640606 65.807613-27.24519c17.604585-17.604585 27.24519-40.867786 27.245191-65.807614 0-18.442898-5.23946-36.047483-15.299222-50.927548l66.436348-66.436349c7.335244-7.335244 7.335244-19.49079 0-26.826033z m-105.417929 183.17151c-10.478919 10.478919-24.311093 16.137536-38.98158 16.137536s-28.502661-5.658616-38.98158-16.137536c-21.376995-21.376995-21.376995-56.376586 0-77.96316 10.478919-10.478919 24.311093-16.137536 38.98158-16.137536s28.502661 5.658616 38.98158 16.137536c21.586574 21.586574 21.586574 56.586165 0 77.96316zM536.101515 492.50921h-48.20303c-18.652476 0-33.74212-15.089644-33.74212-33.74212 0-18.652476 15.089644-33.74212 33.74212-33.742121h84.879247c10.478919 0 19.071633-8.592714 19.071634-19.071633s-8.592714-19.071633-19.071634-19.071633h-41.915677v-31.436758c0-10.478919-8.592714-19.071633-19.071633-19.071633s-19.071633 8.592714-19.071634 19.071633v31.436758h-5.029881c-39.610315 0-71.885387 32.275072-71.885387 71.885387s32.275072 71.885387 71.885387 71.885386h48.203029c18.652476 0 33.74212 15.089644 33.74212 33.742121 0 18.652476-15.089644 33.74212-33.74212 33.74212h-86.555874c-10.478919 0-19.071633 8.592714-19.071633 19.071633s8.592714 19.071633 19.071633 19.071634h43.382726v32.065493c0 10.478919 8.592714 19.071633 19.071634 19.071633s19.071633-8.592714 19.071633-19.071633v-32.065493h5.029881c39.610315 0 71.885387-32.275072 71.885387-71.885387S575.71183 492.50921 536.101515 492.50921zM418.947196 93.052804c0 44.849775 31.855915 82.364306 73.981171 91.166598v93.891118c0 10.478919 8.592714 19.071633 19.071633 19.071633s19.071633-8.592714 19.071633-19.071633V184.219402c42.125256-8.802292 73.981171-46.316824 73.981171-91.166598 0-51.346705-41.706099-93.052804-93.052804-93.052804s-93.052804 41.706099-93.052804 93.052804z m148.17192 0c0 30.388866-24.73025 55.119116-55.119116 55.119116S456.880884 123.44167 456.880884 93.052804s24.73025-55.119116 55.119116-55.119116 55.119116 24.73025 55.119116 55.119116zM839.780598 492.928367h-93.891118c-10.478919 0-19.071633 8.592714-19.071633 19.071633s8.592714 19.071633 19.071633 19.071633h93.891118c8.802292 42.125256 46.316824 73.981171 91.166598 73.981171 51.346705 0 93.052804-41.706099 93.052804-93.052804s-41.706099-93.052804-93.052804-93.052804c-44.849775 0-82.364306 31.855915-91.166598 73.981171z m146.285714 19.071633c0 30.388866-24.73025 55.119116-55.119116 55.119116s-55.119116-24.73025-55.119116-55.119116 24.73025-55.119116 55.119116-55.119116 55.119116 24.73025 55.119116 55.119116zM93.052804 605.052804c44.849775 0 82.364306-31.855915 91.166598-73.981171h93.891118c10.478919 0 19.071633-8.592714 19.071633-19.071633s-8.592714-19.071633-19.071633-19.071633H184.219402c-8.802292-42.125256-46.316824-73.981171-91.166598-73.981171-51.346705 0-93.052804 41.706099-93.052804 93.052804s41.706099 93.052804 93.052804 93.052804z m0-148.17192c30.388866 0 55.119116 24.73025 55.119116 55.119116s-24.73025 55.119116-55.119116 55.119116-55.119116-24.73025-55.119116-55.119116S62.663938 456.880884 93.052804 456.880884zM281.463774 149.848547c-17.604585-17.604585-40.867786-27.24519-65.807614-27.24519s-48.203029 9.640606-65.807613 27.24519-27.24519 40.867786-27.24519 65.807613 9.640606 48.203029 27.24519 65.807614 40.867786 27.24519 65.807613 27.24519c18.442898 0 36.047483-5.23946 50.927549-15.299222l66.436348 66.436349c3.772411 3.772411 8.592714 5.658616 13.413017 5.658616 4.820303 0 9.640606-1.886205 13.413017-5.658616 7.335244-7.335244 7.335244-19.49079 0-26.826034l-66.22677-66.22677c9.850184-15.089644 15.299222-32.48465 15.299222-50.927548-0.209578-24.939828-9.850184-48.412607-27.454769-66.017192z m-104.579615 104.789193c-21.376995-21.376995-21.376995-56.376586 0-77.96316 10.478919-10.478919 24.311093-16.137536 38.98158-16.137535s28.502661 5.658616 38.98158 16.137535c21.376995 21.376995 21.376995 56.376586 0 77.753582-10.478919 10.478919-24.311093 16.137536-38.98158 16.137536-14.880065 0.209578-28.712239-5.449038-38.98158-15.927958z" fill="#1296db" p-id="8404"></path></svg>