<?xml version="1.0" standalone="no"?><!DOCTYPE svg PUBLIC "-//W3C//DTD SVG 1.1//EN" "http://www.w3.org/Graphics/SVG/1.1/DTD/svg11.dtd"><svg t="1569486312264" class="icon" viewBox="0 0 1024 1024" version="1.1" xmlns="http://www.w3.org/2000/svg" p-id="8584" xmlns:xlink="http://www.w3.org/1999/xlink" width="200" height="200"><defs><style type="text/css"></style></defs><path d="M664.815526 752.676609H408.763228c-46.440858 0-84.304801-37.863943-84.304801-84.304801V355.837385c0-46.440858 37.863943-84.304801 84.304801-84.304801h512.104596c46.440858 0 84.304801 37.863943 84.304801 84.304801v312.534423c0 46.440858-37.863943 84.304801-84.304801 84.304801H630.717058" fill="#1296db" p-id="8585"></path><path d="M408.763228 771.503984h512.104596c56.900511 0 103.132176-46.231665 103.132176-103.341369V355.837385c0-56.900511-46.231665-103.341369-103.132176-103.341369H408.763228c-56.900511 0-103.132176 46.231665-103.132176 103.341369v312.534423c-0.209193 56.900511 46.231665 103.132176 103.132176 103.132176z m-65.268233-415.666599c0-35.981205 29.287028-65.268233 65.268233-65.268233h512.104596c35.981205 0 65.268233 29.287028 65.268233 65.268233v312.534423c0 35.981205-29.287028 65.268233-65.268233 65.268233H408.763228c-35.981205 0-65.268233-29.287028-65.268233-65.268233V355.837385z" fill="#1296db" p-id="8586"></path><path d="M409.390807 668.999387c3.765475 4.183861 8.995301 6.484985 14.225128 6.484985 4.393054 0 8.995301-1.464351 12.551583-4.81144l163.798161-144.343208 53.135036 41.211032c3.347089 2.71951 7.53095 3.974668 11.714811 3.974668s8.158529-1.255158 11.714811-3.974668l54.80858-42.46619 162.124617 145.389173c3.556282 3.347089 8.158529 4.81144 12.551583 4.81144 5.229826 0 10.459653-2.091931 14.225128-6.275792 6.903371-7.740143 6.275792-19.87334-1.464351-26.776711l-156.894791-140.786925 156.058019-121.122779c8.367722-6.484985 9.832074-18.408989 3.347088-26.567517-6.484985-8.367722-18.408989-9.832074-26.567517-3.347089l-229.903167 178.441675-53.971808-42.047804-175.512972-136.184678c-8.367722-6.484985-20.082533-5.020633-26.567518 3.347089-6.484985 8.367722-5.020633 20.082533 3.347089 26.567517l157.522369 122.377937-158.359142 139.531767c-8.158529 6.903371-8.786108 18.827375-1.882737 26.567518zM246.011032 531.141164c10.459653 0 19.036568-8.576915 19.036568-19.036567s-8.576915-19.036568-19.036568-19.036568h-150.618999c-10.459653 0-19.036568 8.576915-19.036568 19.036568s8.576915 19.036568 19.036568 19.036567h150.618999zM19.036568 430.937692h226.974464c10.459653 0 19.036568-8.576915 19.036568-19.036568s-8.576915-19.036568-19.036568-19.036568H19.036568c-10.459653 0-19.036568 8.576915-19.036568 19.036568 0.209193 10.459653 8.576915 19.036568 19.036568 19.036568zM265.0476 612.308069c0-10.459653-8.576915-19.036568-19.036568-19.036567H146.853524c-10.459653 0-19.036568 8.576915-19.036568 19.036567s8.576915 19.036568 19.036568 19.036568h99.157508c10.459653 0 19.036568-8.576915 19.036568-19.036568z" fill="#1296db" p-id="8587"></path></svg>