<?xml version="1.0" standalone="no"?><!DOCTYPE svg PUBLIC "-//W3C//DTD SVG 1.1//EN" "http://www.w3.org/Graphics/SVG/1.1/DTD/svg11.dtd"><svg t="1569485762302" class="icon" viewBox="0 0 1024 1024" version="1.1" xmlns="http://www.w3.org/2000/svg" p-id="4455" xmlns:xlink="http://www.w3.org/1999/xlink" width="200" height="200"><defs><style type="text/css"></style></defs><path d="M513.988146 926.057633m-79.107296 0a79.107296 79.107296 0 1 0 158.214592 0 79.107296 79.107296 0 1 0-158.214592 0Z" fill="#1296db" p-id="4456"></path><path d="M260.133252 631.811976h483.224197c52.947476-3.767014 102.337216-28.252606 139.170244-68.643368 36.623748-40.390762 56.71449-92.082567 56.71449-145.867157 0-98.988759-68.224811-186.676477-160.725935-209.48784C760.309013 88.524831 658.390354 0 535.962395 0 446.809728 0 364.144697 48.971183 321.242591 126.194972c-9.417535-2.092786-19.044349-3.139178-28.880441-3.139178-72.828939 0-132.054772 59.225833-132.054772 132.054772 0 10.463928 1.255671 20.718578 3.557735 30.55467-49.180462 34.321684-79.107296 91.245453-79.107296 151.726957 0.209279 100.244431 80.572246 189.187819 175.375435 194.419783zM196.094012 310.360106c7.952585-4.604128 11.510321-14.440221 8.161864-23.020641-3.767014-10.045371-5.650521-20.927856-5.650521-32.228899 0-51.901083 42.274269-94.175353 94.175352-94.175352 11.091764 0 21.974249 1.883507 32.01962 5.650521 9.208257 3.348457 19.462906-0.837114 23.857756-9.626814 34.112405-72.410382 107.778459-119.079501 187.722869-119.079501 107.56918 0 196.30329 80.572246 206.55794 187.304312 0.837114 8.580421 7.32475 15.486614 15.695892 16.951563 81.618639 14.021664 143.146536 89.152667 143.146536 174.956877 0 91.036174-71.782546 170.14347-160.098099 176.840385H261.80748c-75.340282-4.604128-138.751686-75.968118-138.751686-156.540364 0-51.901083 27.834049-100.662988 73.038218-127.032087zM611.930513 926.057633c0-47.506233-34.112405-87.26916-79.107296-96.268138v-97.523809c0-10.463928-8.580421-19.044349-19.044349-19.044349s-19.044349 8.580421-19.044349 19.044349v97.523809c-44.994891 8.7897-79.107296 48.552626-79.107296 96.268138 0 53.993869 43.948498 97.942367 97.942366 97.942367s98.360924-43.739219 98.360924-97.942367z m-158.005314 0c0-33.066013 26.996934-60.062947 60.062947-60.062947s60.062947 26.996934 60.062947 60.062947c0 33.066013-26.996934 60.062947-60.062947 60.062947-33.275291 0.209279-60.062947-26.787656-60.062947-60.062947zM386.95606 926.057633c0-10.463928-8.580421-19.044349-19.044349-19.044349s-19.044349 8.580421-19.044349 19.044349 8.580421 19.044349 19.044349 19.044349 19.044349-8.371142 19.044349-19.044349zM253.227059 926.057633c0-10.463928-8.371142-19.044349-19.044349-19.044349-10.463928 0-19.044349 8.580421-19.044349 19.044349s8.580421 19.044349 19.044349 19.044349 19.044349-8.371142 19.044349-19.044349zM282.107501 926.057633c0 10.463928 8.580421 19.044349 19.044349 19.044349s19.044349-8.371142 19.044349-19.044349c0-10.463928-8.371142-19.044349-19.044349-19.044349-10.463928 0.209279-19.044349 8.580421-19.044349 19.044349zM153.819742 912.663805c-3.557736 3.557736-5.441243 8.371142-5.441242 13.393828s2.092786 9.836092 5.441242 13.393828c3.557736 3.557736 8.371142 5.650521 13.393828 5.650521s9.836092-2.092786 13.393828-5.650521c3.557736-3.557736 5.650521-8.371142 5.650521-13.393828s-2.092786-9.836092-5.650521-13.393828c-3.557736-3.557736-8.371142-5.650521-13.393828-5.650521-4.813407 0.209279-9.836092 2.092786-13.393828 5.650521zM873.947272 939.451461c3.557736-3.557736 5.650521-8.371142 5.650521-13.393828s-2.092786-9.836092-5.650521-13.393828c-3.557736-3.557736-8.371142-5.650521-13.393828-5.650521s-9.836092 2.092786-13.393828 5.650521c-3.557736 3.557736-5.650521 8.371142-5.650521 13.393828s2.092786 9.836092 5.650521 13.393828c3.557736 3.557736 8.371142 5.650521 13.393828 5.650521s9.836092-2.092786 13.393828-5.650521zM812.628653 926.057633c0-10.463928-8.371142-19.044349-19.044349-19.044349-10.463928 0-19.044349 8.580421-19.044349 19.044349s8.580421 19.044349 19.044349 19.044349 19.044349-8.371142 19.044349-19.044349zM726.824443 945.101982c10.463928 0 19.044349-8.371142 19.044349-19.044349 0-10.463928-8.371142-19.044349-19.044349-19.044349-10.463928 0-19.044349 8.580421-19.044349 19.044349 0 10.673207 8.580421 19.044349 19.044349 19.044349zM678.899653 926.057633c0-10.463928-8.371142-19.044349-19.04435-19.044349-10.463928 0-18.835071 8.580421-18.83507 19.044349s8.371142 19.044349 18.83507 19.044349 19.044349-8.371142 19.04435-19.044349z" fill="#1296db" p-id="4457"></path></svg>