<?xml version="1.0" standalone="no"?><!DOCTYPE svg PUBLIC "-//W3C//DTD SVG 1.1//EN" "http://www.w3.org/Graphics/SVG/1.1/DTD/svg11.dtd"><svg t="1569486317708" class="icon" viewBox="0 0 1024 1024" version="1.1" xmlns="http://www.w3.org/2000/svg" p-id="8902" xmlns:xlink="http://www.w3.org/1999/xlink" width="200" height="200"><defs><style type="text/css"></style></defs><path d="M1004.754239 938.126251v-36.608784c0-7.740143-3.347089-15.0619-9.413687-19.87334-33.052503-27.195097-68.615322-45.1857-75.937079-48.741982-0.836772-0.418386-1.255158-1.255158-1.255158-2.09193v-51.461492c6.484985-4.393054 10.668846-11.714811 10.668845-20.082533v-53.344229c0-26.567518-21.546885-48.114402-48.114402-48.114402h-11.296425c-26.567518 0-48.114402 21.546885-48.114402 48.114402v53.344229c0 8.367722 4.183861 15.689479 10.668845 20.082533v51.461492c0 0.836772-0.418386 1.673544-1.255158 2.09193-7.321757 3.556282-42.884576 21.546885-75.937079 48.741982-6.066599 4.81144-9.413687 12.34239-9.413687 19.87334v36.608784" fill="#1296db" p-id="8903"></path><path d="M641.176711 938.126251v-36.608784c0-7.740143-3.347089-15.0619-9.413688-19.87334-33.052503-27.195097-68.615322-45.1857-75.937078-48.741982-0.836772-0.418386-1.255158-1.255158-1.255158-2.09193v-51.461492c6.484985-4.393054 10.668846-11.714811 10.668845-20.082533v-53.344229c0-26.567518-21.546885-48.114402-48.114402-48.114402h-11.505618c-26.567518 0-48.114402 21.546885-48.114403 48.114402v53.344229c0 8.367722 4.183861 15.689479 10.668846 20.082533v51.461492c0 0.836772-0.418386 1.673544-1.255158 2.09193-7.321757 3.556282-42.884576 21.546885-75.937079 48.741982-6.066599 4.81144-9.413687 12.34239-9.413687 19.87334v36.608784" fill="#1296db" p-id="8904"></path><path d="M275.507252 934.779162v-36.190398c0-7.53095-3.347089-14.852707-9.204494-19.664147-32.634116-26.776711-67.77855-44.558121-75.100307-48.114402-0.836772-0.418386-1.255158-1.255158-1.255158-2.091931v-50.833912c6.484985-4.183861 10.668846-11.505618 10.668846-19.87334v-52.71665c0-26.149132-21.337692-47.486823-47.486823-47.486823h-11.505618c-26.149132 0-47.486823 21.337692-47.486824 47.486823v52.71665c0 8.158529 4.183861 15.480286 10.668846 19.87334v50.833912c0 0.836772-0.418386 1.673544-1.255158 2.091931-7.112564 3.556282-42.46619 21.337692-75.100307 48.114402-5.857406 4.81144-9.204494 12.133197-9.204494 19.664147v36.190398" fill="#1296db" p-id="8905"></path><path d="M660.004086 423.720531c10.459653 0 19.036568-8.576915 19.036568-19.036568v-41.629418c0-14.643514-6.484985-28.241062-17.572217-37.445556-31.169765-25.521553-64.431461-44.348927-80.957712-53.135036v-39.955873c7.740143-8.367722 12.133197-19.664147 12.133197-31.378958v-60.665986c0-40.583453-33.052503-73.635955-73.635955-73.635955h-12.969969c-40.583453 0-73.635955 33.052503-73.635955 73.635955v60.665986c0 11.714811 4.393054 22.802043 12.133197 31.378958v39.955873c-16.526251 8.576915-49.787947 27.40429-80.957712 53.135036-11.087232 9.204494-17.572217 22.802043-17.572216 37.445556v41.629418c0 10.459653 8.576915 19.036568 19.036567 19.036568s19.036568-8.576915 19.036568-19.036568v-41.629418c0-3.137896 1.464351-6.066599 3.765475-8.158529 35.981205-29.705414 75.100306-49.369561 82.631257-52.925842 7.321757-3.556282 12.133197-11.296425 12.133197-19.454954v-58.574056c0-6.275792-3.137896-12.34239-8.367722-15.689479-2.301124-1.673544-3.765475-4.183861-3.765475-6.90337v-60.665986c0-19.664147 15.898672-35.562819 35.562819-35.562819h12.969969c19.664147 0 35.562819 15.898672 35.56282 35.562819v60.665986c0 2.71951-1.464351 5.439019-3.765475 6.90337-5.229826 3.556282-8.367722 9.413687-8.367723 15.689479v58.574056c0 8.158529 4.81144 15.898672 12.133198 19.454954 7.53095 3.556282 46.650051 23.429622 82.631256 52.925842 2.301124 1.882737 3.765475 4.81144 3.765475 8.158529v41.629418c0.209193 10.668846 8.576915 19.036568 19.036568 19.036568z" fill="#1296db" p-id="8906"></path><path d="M493.695608 590.029009c0 10.459653 8.576915 19.036568 19.036568 19.036568s19.036568-8.576915 19.036568-19.036568v-58.155669h324.458427v58.155669c0 10.459653 8.576915 19.036568 19.036568 19.036568s19.036568-8.576915 19.036567-19.036568v-77.192237c0-10.459653-8.576915-19.036568-19.036567-19.036568H531.559551v-58.155669c0-10.459653-8.576915-19.036568-19.036568-19.036568s-19.036568 8.576915-19.036568 19.036568v58.155669H148.736261c-10.459653 0-19.036568 8.576915-19.036567 19.036568v77.192237c0 10.459653 8.576915 19.036568 19.036567 19.036568s19.036568-8.576915 19.036568-19.036568v-58.155669H493.695608v58.155669zM947.644535 759.26619v-53.344229c0-37.027171-30.1238-66.941777-66.941777-66.941777h-11.505618c-37.027171 0-66.941777 30.1238-66.941777 66.941777v53.344229c0 10.668846 3.974668 20.710112 10.668845 28.450255v32.84331c-14.852707 7.949336-43.512155 24.266394-70.288866 46.231665-10.459653 8.576915-16.317058 21.128498-16.317058 34.726047v36.608784c0 10.459653 8.576915 19.036568 19.036568 19.036568s19.036568-8.576915 19.036568-19.036568v-36.608784c0-2.091931 0.836772-3.974668 2.510316-5.229827 31.588151-25.939939 65.686619-43.093769 72.171604-46.231665 7.321757-3.556282 11.924004-11.087232 11.924004-19.24576v-51.461492c0-6.275792-3.137896-12.34239-8.367722-15.689479-0.627579-0.418386-2.301124-1.882737-2.301124-4.183861v-53.344229c0-16.107865 12.969969-29.077835 29.077835-29.077834h11.505618c16.107865 0 29.077835 12.969969 29.077834 29.077834v53.344229c0 2.510317-1.673544 3.765475-2.301123 4.183861-5.229826 3.556282-8.367722 9.413687-8.367722 15.689479v51.461492c0 8.158529 4.602247 15.689479 11.924004 19.24576 6.484985 3.137896 40.792646 20.500919 72.171603 46.231665 1.673544 1.255158 2.510317 3.137896 2.510317 5.229827v36.608784c0 10.459653 8.576915 19.036568 19.036568 19.036568s19.036568-8.576915 19.036568-19.036568v-36.608784c0-13.388355-5.857406-26.149132-16.317058-34.726047-26.776711-21.965271-55.436159-38.491522-70.288866-46.231665v-32.84331c6.484985-7.740143 10.25046-17.78141 10.250459-28.450255zM641.176711 957.162819c10.459653 0 19.036568-8.576915 19.036568-19.036568v-36.608784c0-13.388355-5.857406-26.149132-16.317058-34.726047-26.776711-21.965271-55.436159-38.491522-70.288867-46.231665v-32.84331c6.903371-7.740143 10.668846-17.78141 10.668846-28.450255v-53.344229c0-37.027171-30.1238-66.941777-66.941777-66.941777h-11.714811c-37.027171 0-66.941777 30.1238-66.941777 66.941777v53.344229c0 10.668846 3.974668 20.710112 10.668845 28.450255v32.84331c-14.852707 7.949336-43.512155 24.266394-70.288866 46.231665-10.459653 8.576915-16.317058 21.128498-16.317058 34.726047v36.608784c0 10.459653 8.576915 19.036568 19.036568 19.036568s19.036568-8.576915 19.036568-19.036568v-36.608784c0-2.091931 0.836772-3.974668 2.510316-5.229827 31.588151-25.939939 65.686619-43.093769 72.171604-46.231665 7.321757-3.556282 11.924004-11.087232 11.924004-19.24576v-51.461492c0-6.275792-3.137896-12.34239-8.367722-15.689479-0.627579-0.418386-2.301124-1.882737-2.301124-4.183861v-53.344229c0-16.107865 12.969969-29.077835 29.077835-29.077834h11.505618c16.107865 0 29.077835 12.969969 29.077834 29.077834v53.344229c0 2.510317-1.673544 3.765475-2.301123 4.183861-5.229826 3.556282-8.367722 9.413687-8.367722 15.689479v51.461492c0 8.158529 4.602247 15.689479 11.924004 19.24576 6.484985 3.137896 40.792646 20.500919 72.171603 46.231665 1.673544 1.255158 2.510317 3.137896 2.510317 5.229827v36.608784c-0.209193 10.459653 8.367722 19.036568 18.827375 19.036568zM275.507252 953.81573c10.459653 0 19.036568-8.576915 19.036568-19.036568v-36.190398c0-13.388355-5.857406-25.939939-16.317058-34.307661-26.358325-21.756078-54.599387-37.863943-69.452094-45.813279v-32.21573c6.694178-7.740143 10.668846-17.572217 10.668846-28.241062v-52.71665c0-36.608784-29.705414-66.523391-66.523391-66.523391h-11.296425c-36.608784 0-66.523391 29.705414-66.523392 66.523391v52.71665c0 10.459653 3.765475 20.500919 10.668846 28.241062v32.21573c-14.852707 7.949336-42.884576 24.057201-69.452094 45.813279-10.25046 8.367722-16.317058 20.919305-16.317058 34.307661v36.190398c0 10.459653 8.576915 19.036568 19.036568 19.036568s19.036568-8.576915 19.036568-19.036568v-36.190398c0-2.091931 0.836772-3.765475 2.301123-5.020633 31.169765-25.521553 64.849847-42.675383 71.334832-45.813279 7.321757-3.556282 11.924004-11.087232 11.924004-19.036568v-50.833912c0-6.275792-3.137896-12.34239-8.367722-15.689479-0.627579-0.418386-2.091931-1.673544-2.091931-3.974668v-52.71665c0-15.689479 12.760776-28.450255 28.450256-28.450255h11.296425c15.689479 0 28.450255 12.760776 28.450255 28.450255v52.71665c0 2.301124-1.464351 3.556282-2.091931 3.974668-5.229826 3.556282-8.367722 9.413687-8.367722 15.689479v50.833912c0 8.158529 4.602247 15.689479 11.924004 19.245761 6.484985 3.137896 40.165066 20.291726 71.334832 45.813279 1.464351 1.255158 2.301124 3.137896 2.301123 5.020633v35.981205c0 10.668846 8.576915 19.036568 19.036568 19.036568z" fill="#1296db" p-id="8907"></path></svg>