<?xml version="1.0" standalone="no"?><!DOCTYPE svg PUBLIC "-//W3C//DTD SVG 1.1//EN" "http://www.w3.org/Graphics/SVG/1.1/DTD/svg11.dtd"><svg t="1569486320601" class="icon" viewBox="0 0 1024 1024" version="1.1" xmlns="http://www.w3.org/2000/svg" p-id="9087" xmlns:xlink="http://www.w3.org/1999/xlink" width="200" height="200"><defs><style type="text/css"></style></defs><path d="M19.037652 515.180604l109.956548-320.609946 131.050517 44.944323-109.954458 320.609947z" fill="#1296db" p-id="9088"></path><path d="M355.245517 221.716553l-12.747495 6.26926c-15.882125 7.732087-34.480929 8.776964-50.989979 2.925654l-21.315484-7.523112c-1.253852-0.835901-2.507704-1.462827-3.761556-1.880778l-131.236505-44.929695c-9.82184-3.343605-20.688557 1.880778-24.032163 11.702618l-110.129997 320.777127c-1.671803 4.806433-1.253852 10.030816 0.835901 14.419298s6.060284 7.941062 10.866717 9.612865l131.02753 44.929695c2.089753 0.626926 4.179507 1.044877 6.060285 1.044877 7.941062 0 15.255199-5.015408 17.971878-12.747495l103.860738-302.178323 7.105161 2.507704c26.121916 9.194914 55.378462 7.523112 80.455501-4.597457l12.747495-6.26926c15.67315-7.732087 34.062978-8.776964 50.572029-3.13463l240.948552 82.963205c-2.507704 10.030816-7.523112 21.942409-16.718026 28.420644-10.239791 7.105161-25.49499 7.105161-45.556622 0.208976l-107.413318-36.779658c-5.015408-1.671803-10.448766-1.253852-15.046223 1.253852s-7.941062 6.896186-9.40389 11.911594c-0.208975 0.626926-15.046224 56.214363-62.483623 81.709353-29.883472 16.0911-67.08108 16.718026-110.756923 1.880778-9.82184-3.343605-20.688557 1.880778-24.032163 11.702618-3.343605 9.82184 1.880778 20.688557 11.702619 24.032163 25.077039 8.567988 48.691251 12.95647 70.63366 12.95647 25.49499 0 48.900227-5.642334 70.21571-17.135977 42.421991-22.778311 64.364401-62.692598 74.395216-86.515785l89.650416 30.719373c31.973225 11.075692 58.722067 9.40389 79.410624-5.015408 33.227077-22.987286 34.89888-69.588784 35.107855-71.678537 0.208975-8.359013-5.015408-15.67315-12.747495-18.389829l-255.7858-88.187588c-25.703965-8.776964-54.751536-6.896186-79.410625 5.015408z m-216.916389 314.298892l-95.292749-32.600151 97.591478-284.833371 95.292749 32.600151-97.591478 284.833371z" fill="#1296db" p-id="9089"></path><path d="M880.358719 562.034963l-148.961792-304.428988 124.436448-60.887051 148.959703 304.428987z" fill="#1296db" p-id="9090"></path><path d="M857.204253 557.539903l-44.929695 41.377115c-40.750189 37.406584-86.724761 68.961858-136.460889 93.202996l-238.440848 116.608232c-10.448766 5.224383-23.196261 0.835901-28.420645-9.82184-5.224383-10.448766-0.835901-23.196261 9.821841-28.420644l2.925654-1.462828 130.400605-63.737475c9.40389-4.597457 13.374421-15.882125 8.776963-25.286014s-15.882125-13.374421-25.286014-8.776964l-130.400604 63.737475-65.618253 32.1822c-10.448766 5.224383-23.196261 0.835901-28.420645-9.82184-2.507704-5.015408-2.925655-10.866717-1.044876-16.0911 1.880778-5.433359 5.642334-9.612865 10.657741-12.120569l49.527153-24.241138 141.685272-69.379809c9.40389-4.597457 13.374421-15.882125 8.776963-25.286014s-15.882125-13.374421-25.286014-8.776964l-141.894247 69.588784-5.433359 2.716679-67.708006 33.227077c-5.015408 2.507704-10.866717 2.925655-16.0911 1.044877-5.433359-1.880778-9.612865-5.642334-12.120569-10.657742-5.224383-10.448766-0.835901-23.196261 9.821841-28.420644l23.405236-11.493643 47.85535-23.405237 13.374421-6.478235 109.921022-53.915635c9.40389-4.597457 13.374421-15.882125 8.776964-25.286014s-15.882125-13.374421-25.286015-8.776964l-119.115936 58.304116-52.034857 25.49499c-10.448766 5.015408-23.196261 0.835901-28.420644-9.82184-2.507704-5.015408-2.925655-10.866717-1.044877-16.0911 1.880778-5.433359 5.642334-9.612865 10.657742-12.120569l90.904267-44.511745c9.40389-4.597457 13.374421-15.882125 8.776964-25.286014s-15.882125-13.374421-25.286015-8.776964l-90.904267 44.511744c-14.210322 6.896186-24.868064 19.016755-29.883472 33.854003s-4.179507 30.928348 2.71668 45.138671c4.388482 8.776964 10.657742 16.0911 18.180853 21.524459-13.165446 17.344952-16.509051 41.168139-6.26926 62.065672 6.896186 14.210322 19.016755 24.868064 33.854003 29.883472 6.26926 2.089753 12.53852 3.13463 18.80778 3.13463-0.208975 9.40389 1.671803 18.807779 6.060284 27.375767 10.239791 20.897533 31.346299 33.018102 53.079733 33.018102 8.776964 0 17.553927-1.880778 25.912941-6.060284l13.374421-6.478236c0.626926 7.105161 2.507704 14.001347 5.642334 20.688558 10.239791 20.897533 31.346299 33.018102 53.079733 33.018101 8.776964 0 17.553927-1.880778 25.91294-6.060284l238.440848-116.608232c53.079733-25.912941 101.97996-59.348993 145.446828-99.263281l53.288708-49.109202 122.041591-59.766943c9.40389-4.597457 13.374421-15.882125 8.776964-25.286015l-149.208383-304.059101c-2.298729-4.597457-6.060284-7.941062-10.866718-9.612865-4.806433-1.671803-10.030816-1.253852-14.419297 0.835902l-124.549295 60.81182c-9.40389 4.597457-13.374421 15.882125-8.776964 25.286014l142.939124 291.938532z m-10.030816-335.614375l132.281382 270.623049-90.486316 44.302769-132.281382-270.623049 90.486316-44.302769z" fill="#1296db" p-id="9091"></path></svg>