<?xml version="1.0" standalone="no"?><!DOCTYPE svg PUBLIC "-//W3C//DTD SVG 1.1//EN" "http://www.w3.org/Graphics/SVG/1.1/DTD/svg11.dtd"><svg t="1569487024407" class="icon" viewBox="0 0 1024 1024" version="1.1" xmlns="http://www.w3.org/2000/svg" p-id="9636" xmlns:xlink="http://www.w3.org/1999/xlink" width="200" height="200"><defs><style type="text/css"></style></defs><path d="M437.340216 602.020829c-35.96651 28.020421-77.369818 34.711864-104.3447 30.529712-8.78252-1.463753-10.664488-13.382887-2.718399-17.355932 25.720237-12.755565 40.985093-40.775985 49.767612-60.432101-81.970186-92.425567-78.624464-233.991423 9.828058-322.653053 92.007351-92.007351 241.101082-92.007351 333.108434 0s92.007351 241.101082 0 333.108434c-77.369818 77.788033-195.515622 89.916275-285.641005 36.80294z" fill="#1296db" p-id="9637"></path><path d="M556.113343 0c-60.222994 0-118.354911 12.964672-172.513784 38.684909-141.565857 65.868899-233.3641 209.316725-233.364101 365.729222v59.177456l-76.32428 145.538901c-12.546457 24.047376-13.382887 48.512967-2.091076 67.123545s33.248111 29.275066 60.432101 29.275066h17.983255v123.373494c0 54.995303 44.74903 99.744333 99.744334 99.744334 0.83643 0 1.881969 0 2.718399-0.209108l89.288952-13.382887 0.209108 89.916275c0 10.455381 8.573412 19.028793 19.028793 19.028793h455.018174c10.455381 0 19.028793-8.573412 19.028793-19.028793v-309.479273c79.460894-75.906065 124.837247-181.923627 124.837248-291.914233-0.209108-222.490504-181.296304-403.577701-403.995916-403.577701z m247.374311 673.535634c-3.973045 3.554829-6.064121 8.573412-6.064121 14.01021v298.814785h-417.169696l-0.209108-93.05289c0-5.436798-2.509291-10.664488-6.482336-14.428425-4.182152-3.554829-9.61895-5.22769-15.055748-4.39126l-109.572391 16.310394c-33.457219-0.627323-60.641209-28.229528-60.641209-61.895855v-142.402287c0-10.455381-8.573412-19.028793-19.028793-19.028793h-36.802941c-13.591995 0-23.838268-3.973045-28.020421-11.082704s-3.136614-17.983255 3.136615-29.902389l78.415356-149.721053c1.463753-2.718399 2.091076-5.645906 2.091076-8.78252v-63.986931c0-141.565857 83.015724-271.630794 211.616908-331.435573 49.14029-23.210945 101.626302-35.13008 156.412498-35.13008 201.78885 0 365.93833 164.149479 365.938329 365.93833 0 102.67184-43.285277 200.95242-118.564018 270.167041z" fill="#1296db" p-id="9638"></path><path d="M556.531558 144.493363c-67.959975 0-131.946906 26.556667-180.041658 74.442312-92.007351 92.007351-99.326118 238.382683-18.819686 338.963447-10.455381 20.283439-22.374515 33.875434-35.757402 40.566878-11.082704 5.436798-17.146825 17.146825-15.473964 29.484174 1.881969 12.128242 11.291811 21.747192 23.420053 23.62916 5.855013 0.83643 11.919134 1.463753 18.401471 1.463754 30.529712 0 62.732285-10.246273 90.125383-28.229529 36.175618 19.028793 76.742495 28.856851 117.936695 28.856851 67.959975 0 131.946906-26.556667 180.041659-74.442311 99.326118-99.326118 99.326118-260.757198 0-359.874209-47.885644-48.512967-111.872575-74.860527-179.832551-74.860527z m153.066776 407.550746c-40.985093 40.985093-95.353073 63.359608-153.066776 63.359608-38.684909 0-76.533388-10.246273-109.781499-29.693282-2.927507-1.672861-6.273229-2.718399-9.61895-2.718399-4.182152 0-8.155197 1.254646-11.710027 3.973045-22.583623 17.56504-45.167245 24.047376-61.059424 26.347559 12.546457-12.546457 23.420053-29.484174 32.829896-51.022258 2.927507-6.691444 1.672861-14.637533-3.136614-20.074331-75.696957-85.525015-71.723913-215.799061 9.200735-296.514601 40.985093-40.985093 95.353073-63.359608 153.066775-63.359608s112.29079 22.583623 153.066776 63.359608c84.688585 84.479477 84.688585 221.863182 0.209108 306.342659z" fill="#1296db" p-id="9639"></path><path d="M556.531558 379.94854c-5.018583 0-9.828058 2.091076-13.382887 5.645906-3.554829 3.554829-5.436798 8.364305-5.436798 13.382887s2.091076 9.828058 5.436798 13.382888c3.554829 3.554829 8.364305 5.645906 13.382887 5.645905s9.828058-2.091076 13.382888-5.645905c3.554829-3.554829 5.436798-8.364305 5.436798-13.382888s-2.091076-9.828058-5.436798-13.382887c-3.554829-3.554829-8.364305-5.645906-13.382888-5.645906zM627.000825 379.94854c-5.018583 0-9.828058 2.091076-13.382887 5.645906-3.554829 3.554829-5.436798 8.364305-5.436799 13.382887s2.091076 9.828058 5.436799 13.382888c3.554829 3.554829 8.364305 5.645906 13.382887 5.645905s9.828058-2.091076 13.382887-5.645905c3.554829-3.554829 5.436798-8.364305 5.436799-13.382888s-2.091076-9.828058-5.436799-13.382887-8.364305-5.645906-13.382887-5.645906zM486.062291 379.94854c-5.018583 0-9.828058 2.091076-13.382887 5.645906s-5.436798 8.364305-5.436798 13.382887 1.881969 9.828058 5.436798 13.382888c3.554829 3.554829 8.364305 5.645906 13.382887 5.645905s9.828058-2.091076 13.382888-5.645905 5.436798-8.364305 5.436798-13.382888-2.091076-9.828058-5.436798-13.382887c-3.554829-3.554829-8.573412-5.645906-13.382888-5.645906z" fill="#1296db" p-id="9640"></path></svg>