<?xml version="1.0" standalone="no"?><!DOCTYPE svg PUBLIC "-//W3C//DTD SVG 1.1//EN" "http://www.w3.org/Graphics/SVG/1.1/DTD/svg11.dtd"><svg t="1569487018205" class="icon" viewBox="0 0 1024 1024" version="1.1" xmlns="http://www.w3.org/2000/svg" p-id="9271" xmlns:xlink="http://www.w3.org/1999/xlink" width="200" height="200"><defs><style type="text/css"></style></defs><path d="M678.235126 378.739726v-46.897567c0-9.840114-4.396647-19.261501-12.14312-25.542425-42.50092-34.754447-88.142302-57.993866-97.354325-62.599877-1.046821-0.418728-1.674913-1.674913-1.674913-2.721734V174.819055c8.374566-5.443468 13.818033-14.864854 13.818033-25.751789V80.605193c0-34.126355-27.636066-61.762421-61.76242-61.762421h-14.65549c-34.126355 0.209364-61.762421 27.84543-61.762421 61.762421v68.462073c0 10.677571 5.443468 20.098957 13.818033 25.751789V240.768759c0 1.256185-0.628092 2.303006-1.674913 2.721734-9.212022 4.606011-55.062768 27.636066-97.354324 62.599877-7.746473 6.280924-12.14312 15.70231-12.14312 25.542425v46.897567" fill="#1296db" p-id="9272"></path><path d="M256.366387 641.491719c10.468207 0 19.052137-8.58393 19.052137-19.052136v-68.252709h471.278675v68.252709c0 10.468207 8.58393 19.052137 19.052137 19.052136s19.052137-8.58393 19.052136-19.052136v-87.095482c0-10.468207-8.58393-19.052137-19.052136-19.052136h-234.906564V448.039256c0-10.468207-8.58393-19.052137-19.052136-19.052137s-19.052137 8.58393-19.052137 19.052137v68.252709h-236.372112c-10.468207 0-19.052137 8.58393-19.052136 19.052136v87.095482c0 10.677571 8.58393 19.052137 19.052136 19.052136zM845.307708 802.91147v-60.296872c0-40.407279-32.87017-73.277448-73.277448-73.277448h-12.980577c-40.407279 0-73.277448 32.87017-73.277448 73.277448v60.296872c0 11.724392 4.396647 22.820691 12.14312 31.195257v39.569822c-16.330403 8.58393-49.409937 27.217338-80.395829 52.759763-11.096299 9.212022-17.586588 22.820691-17.586588 37.266816V1004.947863c0 10.468207 8.58393 19.052137 19.052137 19.052137s19.052137-8.58393 19.052136-19.052137v-41.244735c0-3.140462 1.256185-5.862196 3.768555-7.955837 35.801268-29.310979 74.533633-48.991208 82.070742-52.550399 7.537109-3.768554 12.14312-11.096299 12.14312-19.470865v-57.993866c0-6.280924-3.140462-12.352484-8.374566-15.70231-2.303006-1.465549-3.768554-3.977919-3.768554-6.909017v-60.296872c0-19.470865 15.911675-35.382539 35.382539-35.382539h12.980577c19.470865 0 35.382539 15.911675 35.382539 35.382539v60.087508c0 2.721734-1.465549 5.234103-3.768554 6.909017-5.234103 3.55919-8.374566 9.421386-8.374566 15.70231V883.516663c0 8.374566 4.606011 15.70231 12.14312 19.470865 7.327745 3.55919 46.269475 23.239419 82.070742 52.550399 2.303006 1.884277 3.768554 4.815375 3.768555 7.955837v41.244735c0 10.468207 8.58393 19.052137 19.052136 19.052137s19.052137-8.58393 19.052137-19.052137v-41.244735c0-14.446126-6.490288-28.054795-17.586588-37.266817-30.985892-25.333061-63.856062-44.175833-80.395829-52.759762v-39.569822c7.327745-8.374566 11.724392-19.261501 11.724392-30.985893zM249.876099 707.441423h12.771212c19.052137 0 34.545083 15.492946 34.545083 34.545083v59.459415c0 2.721734-1.256185 5.024739-3.55919 6.490288-5.234103 3.55919-8.374566 9.421386-8.374566 15.702311v57.365774c0 8.374566 4.606011 15.70231 12.14312 19.470864 7.327745 3.55919 45.641382 22.820691 81.023922 51.922307 2.303006 1.884277 3.55919 4.606011 3.55919 7.537109V1000.760581c0 10.468207 8.58393 19.052137 19.052137 19.052136s19.052137-8.58393 19.052136-19.052136v-40.826007c0-14.446126-6.280924-27.84543-17.377223-36.848089-30.567164-25.123697-63.018606-43.547741-79.349009-52.13167v-38.94173c7.537109-8.374566 11.933756-19.261501 11.933756-30.776528v-59.459415c0-39.98855-32.660806-72.649356-72.649356-72.649356h-12.771212c-39.98855 0-72.649356 32.660806-72.649356 72.649356v59.459415c0 11.515028 4.396647 22.611327 11.933756 30.776528V870.954815c-16.330403 8.58393-48.781844 27.007974-79.349009 52.13167-11.096299 9.002658-17.377223 22.611327-17.377223 36.848089V1000.760581c0 10.468207 8.58393 19.052137 19.052137 19.052136s19.052137-8.58393 19.052136-19.052136v-40.826007c0-2.931098 1.256185-5.862196 3.559191-7.537109 35.382539-29.101615 73.696177-48.363116 81.023921-51.922307 7.537109-3.768554 12.14312-11.096299 12.14312-19.470864v-57.15641c0-6.280924-3.140462-12.352484-8.374565-15.70231-2.303006-1.465549-3.55919-3.977919-3.559191-6.490289v-59.459415c0-19.261501 15.492946-34.754447 34.545083-34.754447zM678.235126 397.582498c10.468207 0 19.052137-8.58393 19.052136-19.052136v-46.688203c0-15.70231-6.909017-30.3578-19.052136-40.197914-35.801268-29.520343-74.324269-50.875486-92.329585-60.296872V183.612349c8.793294-9.212022 13.818033-21.355142 13.818033-34.335718V80.605193c0-44.385197-36.219996-80.605193-80.605193-80.605193h-14.65549c-44.594561 0-80.605193 36.219996-80.605193 80.605193v68.462073c0 12.980577 5.024739 25.123697 13.818033 34.335719v47.525659c-18.005316 9.421386-56.318953 30.776528-92.329585 60.296872-12.14312 9.840114-19.052137 24.704968-19.052137 40.197915v46.897567c0 10.468207 8.58393 19.052137 19.052137 19.052136s19.052137-8.58393 19.052137-19.052136v-46.478839c0-4.396647 1.884277-8.374566 5.234103-10.886935 40.826007-33.707626 85.211204-55.900225 93.795134-60.087508 7.537109-3.768554 12.352484-11.305663 12.352484-19.680229V174.819055c0-6.280924-3.140462-12.352484-8.374565-15.70231-3.349826-2.303006-5.234103-5.862196-5.234104-9.840114V80.605193c0-23.448783 19.052137-42.710284 42.710284-42.710284h14.65549c23.448783 0 42.710284 19.261501 42.710284 42.710284v68.462073c0 3.977919-2.093641 7.746473-5.234103 9.840115-5.234103 3.55919-8.374566 9.421386-8.374566 15.70231v65.949704c0 8.374566 4.815375 16.121039 12.352484 19.889593 8.58393 4.187283 52.759763 26.589246 93.795134 60.087508 3.349826 2.721734 5.234103 6.699652 5.234104 10.886935v46.897567c-0.628092 10.886935 7.746473 19.261501 18.21468 19.2615z" fill="#1296db" p-id="9273"></path></svg>