<?xml version="1.0" standalone="no"?><!DOCTYPE svg PUBLIC "-//W3C//DTD SVG 1.1//EN" "http://www.w3.org/Graphics/SVG/1.1/DTD/svg11.dtd"><svg t="1569487021793" class="icon" viewBox="0 0 1024 1024" version="1.1" xmlns="http://www.w3.org/2000/svg" p-id="9453" xmlns:xlink="http://www.w3.org/1999/xlink" width="200" height="200"><defs><style type="text/css"></style></defs><path d="M763.863367 965.982409l38.95766-38.95766 38.95766 38.95766 38.95766 38.957661 38.95766-38.957661V318.992023c0-37.282062-30.160769-67.652281-67.652281-67.652281H307.262835c37.282062 0 67.652281 30.160769 67.652281 67.652281v646.780937l38.95766 38.95766 38.95766-38.95766 38.95766-38.95766 38.95766 38.95766 38.95766 38.95766 38.95766-38.95766 38.95766-38.95766 38.95766 38.95766 38.95766 38.95766 38.329311-38.748211z" fill="#1296db" p-id="9454"></path><path d="M471.680916 416.805073h354.389037c10.472489 0 19.05993-8.587441 19.05993-19.059931s-8.587441-19.05993-19.05993-19.05993H471.680916c-10.472489 0-19.05993 8.587441-19.05993 19.05993s8.587441 19.05993 19.05993 19.059931zM471.680916 517.969319h257.413786c10.472489 0 19.05993-8.587441 19.059931-19.059931s-8.587441-19.05993-19.059931-19.05993H471.680916c-10.472489 0-19.05993 8.587441-19.05993 19.05993 0 10.681939 8.587441 19.05993 19.05993 19.059931zM471.680916 610.755574h354.389037c10.472489 0 19.05993-8.587441 19.05993-19.059931s-8.587441-19.05993-19.05993-19.05993H471.680916c-10.472489 0-19.05993 8.587441-19.05993 19.05993 0 10.681939 8.587441 19.05993 19.05993 19.059931zM505.402332 678.407854h-33.721416c-10.472489 0-19.05993 8.587441-19.05993 19.059931s8.587441 19.05993 19.05993 19.05993h33.721416c10.472489 0 19.05993-8.587441 19.05993-19.05993s-8.587441-19.05993-19.05993-19.059931zM505.402332 771.194109h-33.721416c-10.472489 0-19.05993 8.587441-19.05993 19.059931s8.587441 19.05993 19.05993 19.05993h33.721416c10.472489 0 19.05993-8.587441 19.05993-19.05993-0.20945-10.681939-8.587441-19.05993-19.05993-19.059931zM826.069953 678.407854H581.223154c-10.472489 0-19.05993 8.587441-19.05993 19.059931s8.587441 19.05993 19.05993 19.05993h244.846799c10.472489 0 19.05993-8.587441 19.05993-19.05993s-8.587441-19.05993-19.05993-19.059931zM747.945183 790.04459c0-10.472489-8.587441-19.05993-19.05993-19.059931h-147.662099c-10.472489 0-19.05993 8.587441-19.05993 19.059931s8.587441 19.05993 19.05993 19.05993H728.885253c10.472489 0 19.05993-8.587441 19.05993-19.05993z" fill="#1296db" p-id="9455"></path><path d="M711.50092 1018.344856c7.330742 7.330742 19.47883 7.330742 26.809573 0l64.510534-64.510534 64.510534 64.510534c3.770096 3.770096 8.587441 5.655144 13.404786 5.655144s9.63469-1.885048 13.404786-5.655144l38.95766-38.95766c3.560646-3.560646 5.655144-8.377991 5.655144-13.404787V318.992023c0-47.754551-38.74821-86.502761-86.502761-86.502761h-145.567601V19.05993c0-10.472489-8.587441-19.05993-19.05993-19.05993H104.305993c-10.472489 0-19.05993 8.587441-19.05993 19.05993v646.780937c0 47.754551 38.74821 86.502761 86.502761 86.502762h109.751687c10.472489 0 19.05993-8.587441 19.059931-19.059931s-8.587441-19.05993-19.059931-19.05993h-38.119861c9.42524-13.823686 15.080385-30.579669 15.080385-48.592351V318.992023c0-26.809573 21.782778-48.59235 48.59235-48.59235 26.809573 0 48.59235 21.782778 48.59235 48.59235v646.780937c0 1.256699 0.20945 2.513397 0.4189 3.770096 0.20945 0.837799 0.4189 1.466148 0.628349 2.303947 0.20945 0.4189 0.20945 0.837799 0.4189 1.256699 0.4189 0.837799 0.837799 1.675598 1.256699 2.303948 0.20945 0.20945 0.20945 0.628349 0.418899 0.837799 0.628349 1.047249 1.466148 2.094498 2.303948 2.932297l38.95766 38.95766c7.330742 7.330742 19.47883 7.330742 26.809572 0l64.510534-64.510534 64.510534 64.510534c7.330742 7.330742 19.47883 7.330742 26.809573 0l64.510533-64.510534 64.301084 64.719984zM220.550624 318.992023v346.848844c0 26.809573-21.782778 48.59235-48.59235 48.59235s-48.59235-21.782778-48.59235-48.59235V37.910411h545.40724V232.489262H307.053385c-47.754551 0-86.502761 38.74821-86.502761 86.502761z m348.733892 658.929024L504.773982 913.410513c-3.770096-3.770096-8.587441-5.655144-13.404786-5.655144-4.817345 0-9.63469 1.885048-13.404786 5.655144l-64.510534 64.510534-19.89773-19.897729V318.992023c0-2.722847-0.20945-5.445694-0.418899-7.959092 0-0.837799-0.20945-1.466148-0.20945-2.303948-0.20945-1.885048-0.4189-3.770096-0.837799-5.655144-0.20945-0.837799-0.20945-1.466148-0.4189-2.303947-0.4189-2.303948-1.047249-4.817345-1.885048-7.121293 0-0.20945 0-0.20945-0.209449-0.4189-0.837799-2.513397-1.675598-4.817345-2.722848-7.121292-0.20945-0.628349-0.628349-1.256699-0.837799-2.094498-0.837799-1.675598-1.466148-3.351197-2.513397-5.026795-0.4189-0.628349-0.628349-1.256699-1.047249-2.094498-1.047249-1.885048-2.303948-3.979546-3.560647-5.864594-0.20945-0.20945-0.20945-0.4189-0.418899-0.628349v-0.20945h473.147065c26.809573 0 48.59235 21.782778 48.59235 48.59235v639.240745l-19.89773 19.897729-64.510534-64.510534c-7.330742-7.330742-19.47883-7.330742-26.809572 0l-64.510534 64.510534-63.882184-64.301084c-7.330742-7.330742-19.47883-7.330742-26.809573 0l-64.510534 64.301084z" fill="#1296db" p-id="9456"></path></svg>