<?xml version="1.0" standalone="no"?><!DOCTYPE svg PUBLIC "-//W3C//DTD SVG 1.1//EN" "http://www.w3.org/Graphics/SVG/1.1/DTD/svg11.dtd"><svg t="1569487027151" class="icon" viewBox="0 0 1024 1024" version="1.1" xmlns="http://www.w3.org/2000/svg" p-id="9820" xmlns:xlink="http://www.w3.org/1999/xlink" width="200" height="200"><defs><style type="text/css"></style></defs><path d="M512 927.372549m-77.803922 0a77.803922 77.803922 0 1 0 155.607844 0 77.803922 77.803922 0 1 0-155.607844 0Z" fill="#1296db" p-id="9821"></path><path d="M256.418301 528.732026h167.947712c5.437908 16.732026 19.869281 28.862745 36.810458 28.862745H562.614379c16.941176 0 31.372549-11.921569 36.810458-28.862745H767.581699c10.457516 0 19.03268-8.575163 19.03268-19.03268s-8.575163-19.03268-19.03268-19.032679h-184.888889c-10.457516 0-19.03268 8.575163-19.032679 19.032679v4.392157c0 2.928105-1.045752 4.810458-1.673203 5.437909h-99.973856c-0.627451-0.627451-1.882353-2.509804-1.882353-5.437909v-4.392157c0-10.457516-8.575163-19.03268-19.03268-19.032679h-184.679738c-10.457516 0-19.03268 8.575163-19.03268 19.032679 0.20915 10.457516 8.575163 19.03268 19.03268 19.03268z" fill="#1296db" p-id="9822"></path><path d="M120.888889 658.196078h782.222222c48.522876 0 88.052288-39.529412 88.052288-88.052287v-46.013072c0-10.457516-8.575163-19.03268-19.03268-19.03268h-51.24183V58.352941 56.470588c-3.137255-32.20915-29.071895-56.470588-60.444445-56.470588H161.045752C128.836601 0 102.69281 26.143791 102.69281 58.352941v446.954249H51.660131c-10.457516 0-19.03268 8.575163-19.03268 19.032679v46.013072c0 48.313725 39.529412 87.843137 88.261438 87.843137z m-50.405229-115.032679h51.03268c10.457516 0 19.03268-8.575163 19.03268-19.03268V58.352941c0-11.294118 9.202614-20.496732 20.496732-20.496732h699.607843c11.294118 0 21.124183 9.411765 22.588235 21.542484v464.732026c0 10.457516 8.575163 19.03268 19.03268 19.03268h51.03268v26.980392c0 27.607843-22.588235 50.196078-50.196079 50.196078h-782.222222c-27.607843 0-50.196078-22.588235-50.196079-50.196078v-26.980392h-0.20915zM980.496732 946.196078c10.457516 0 19.03268-8.575163 19.03268-19.032679s-8.575163-19.03268-19.03268-19.03268H606.954248c-7.529412-38.065359-37.647059-68.392157-75.921568-75.921569v-88.052287c0-10.457516-8.575163-19.03268-19.03268-19.03268s-19.03268 8.575163-19.03268 19.03268v88.052287c-38.065359 7.529412-68.392157 37.647059-75.921568 75.921569H43.503268c-10.457516 0-19.03268 8.575163-19.03268 19.03268s8.575163 19.03268 19.03268 19.032679h373.751634c8.784314 44.339869 48.104575 77.803922 94.954248 77.803922s85.960784-33.464052 94.954249-77.803922h373.333333z m-468.496732 39.947713c-32.418301 0-58.771242-26.352941-58.771242-58.771242s26.352941-58.771242 58.771242-58.771242 58.771242 26.352941 58.771242 58.771242-26.352941 58.771242-58.771242 58.771242z" fill="#1296db" p-id="9823"></path></svg>