<?xml version="1.0" standalone="no"?><!DOCTYPE svg PUBLIC "-//W3C//DTD SVG 1.1//EN" "http://www.w3.org/Graphics/SVG/1.1/DTD/svg11.dtd"><svg t="1569487032966" class="icon" viewBox="0 0 1024 1024" version="1.1" xmlns="http://www.w3.org/2000/svg" p-id="10186" xmlns:xlink="http://www.w3.org/1999/xlink" width="200" height="200"><defs><style type="text/css"></style></defs><path d="M298.562347 519.615322v111.830481c0 9.180114 11.266504 13.352893 17.317034 6.467807l102.233088-118.298288h350.304809c30.669927 0 55.497963-24.828036 55.497962-55.497963v-302.526487c0-30.669927-24.828036-55.497963-55.497962-55.497962H256.208639c-30.669927 0-55.497963 24.828036-55.497963 55.497962v302.526487c0 30.669927 24.828036 55.497963 55.497963 55.497963h42.353708z" fill="#1296db" p-id="10187"></path><path d="M178.177669 813.170334h224.704157c6.05053 17.94295 22.950285 30.878566 42.770986 30.878566h132.485737c19.820701 0 36.720456-12.935615 42.770986-30.878566h224.912796c10.431948 0 18.986145-8.554197 18.986145-18.986145s-8.554197-18.986145-18.986145-18.986145H604.427058c-10.431948 0-18.986145 8.554197-18.986145 18.986145v4.590057c0 3.96414-3.338223 7.302363-7.302364 7.302364h-132.485737c-3.96414 0-7.302363-3.338223-7.302364-7.302364v-4.590057c0-10.431948-8.554197-18.986145-18.986145-18.986145H178.177669c-10.431948 0-18.986145 8.554197-18.986145 18.986145 0.208639 10.431948 8.554197 18.986145 18.986145 18.986145z" fill="#1296db" p-id="10188"></path><path d="M1005.013855 775.198044h-56.332518v-479.869601c0-10.431948-8.554197-18.986145-18.986145-18.986145s-18.986145 8.554197-18.986146 18.986145v498.855746c0 10.431948 8.554197 18.986145 18.986146 18.986145h56.123879v30.252649c0 30.461288-24.828036 55.080685-55.080685 55.080684H93.052975c-30.461288 0-55.080685-24.828036-55.080685-55.080684v-30.252649h56.12388c10.431948 0 18.986145-8.554197 18.986145-18.986145v-498.855746c0-10.431948-8.554197-18.986145-18.986145-18.986145s-18.986145 8.554197-18.986146 18.986145v479.869601H18.986145c-10.431948 0-18.986145 8.554197-18.986145 18.986145v49.238794c0 51.325183 41.727791 93.052975 93.052975 93.052975h837.89405c51.325183 0 93.052975-41.727791 93.052975-93.052975v-49.238794c-0.208639-10.431948-8.554197-18.986145-18.986145-18.986145z" fill="#1296db" p-id="10189"></path><path d="M594.412388 232.736756l-121.010595 120.384678-42.979625-43.188264c-7.302363-7.511002-19.403423-7.511002-26.705787 0-7.511002 7.302363-7.511002 19.403423 0 26.705787l56.332519 56.541157c3.755501 3.755501 8.554197 5.633252 13.352893 5.633252 4.798696 0 9.597392-1.877751 13.352893-5.424613l134.363488-133.737571c7.511002-7.302363 7.511002-19.403423 0-26.705787-7.511002-7.511002-19.403423-7.511002-26.705786-0.208639z" fill="#1296db" p-id="10190"></path><path d="M768.417278 87.524042H256.208639c-40.893236 0-74.275469 33.382233-74.275469 74.275469v302.526487c0 40.893236 33.382233 74.275469 74.275469 74.275469H279.576202v92.844336c0 15.856561 12.935615 28.792176 28.792176 28.792176 8.345558 0 16.273839-3.546862 21.698452-10.01467l96.599837-111.830481h341.541972c40.893236 0 74.275469-33.382233 74.275469-74.275469v-302.526487c0.208639-40.893236-33.173594-74.06683-74.06683-74.06683z m36.511817 376.801956c0 20.02934-16.273839 36.511817-36.511817 36.511818H418.112469c-5.424613 0-10.640587 2.295029-14.396088 6.467807l-86.376528 99.938061v-87.628362c0-10.431948-8.554197-18.986145-18.986145-18.986145h-42.353708c-20.02934 0-36.511817-16.273839-36.511817-36.511818v-302.526487c0-20.02934 16.273839-36.511817 36.511817-36.511817h512.208639c20.02934 0 36.511817 16.273839 36.511817 36.511817v302.735126h0.208639z" fill="#1296db" p-id="10191"></path></svg>