<?xml version="1.0" standalone="no"?><!DOCTYPE svg PUBLIC "-//W3C//DTD SVG 1.1//EN" "http://www.w3.org/Graphics/SVG/1.1/DTD/svg11.dtd"><svg t="1569487040203" class="icon" viewBox="0 0 1024 1024" version="1.1" xmlns="http://www.w3.org/2000/svg" p-id="10736" xmlns:xlink="http://www.w3.org/1999/xlink" width="200" height="200"><defs><style type="text/css"></style></defs><path d="M299.380972 993.058391H152.617395c-4.390363 0-8.153532-3.763169-8.153532-8.153532v-384.679461c0-4.390363 3.763169-8.153532 8.153532-8.153532h146.763577c4.390363 0 8.153532 3.763169 8.153532 8.153532v384.679461c0 4.390363-3.554104 8.153532-8.153532 8.153532z" fill="#1296db" p-id="10737"></path><path d="M516.599428 19.024908v165.57942c0 10.453246 8.571662 19.024908 19.024908 19.024908s19.024908-8.571662 19.024909-19.024908V19.024908c0-10.453246-8.571662-19.024908-19.024909-19.024908-10.662311 0-19.024908 8.571662-19.024908 19.024908zM879.536137 372.135566h-165.57942c-10.453246 0-19.024908 8.571662-19.024908 19.024908s8.571662 19.024908 19.024908 19.024908h165.57942c10.453246 0 19.024908-8.571662 19.024908-19.024908s-8.571662-19.024908-19.024908-19.024908zM172.478563 391.160474c0 10.453246 8.571662 19.024908 19.024908 19.024908h165.57942c10.453246 0 19.024908-8.571662 19.024908-19.024908s-8.571662-19.024908-19.024908-19.024908H191.503471c-10.453246 0-19.024908 8.571662-19.024908 19.024908zM275.338506 127.320539c3.554104-3.554104 5.644753-8.362597 5.644752-13.380155s-2.090649-9.826051-5.644752-13.380155-8.362597-5.644753-13.380156-5.644753-9.826051 2.090649-13.380155 5.644753c-3.554104 3.554104-5.644753 8.362597-5.644753 13.380155s2.090649 9.826051 5.644753 13.380155 8.362597 5.644753 13.380155 5.644753 9.826051-2.090649 13.380156-5.644753zM326.559412 178.541445c-7.317272 7.317272-7.317272 19.443038 0 26.760311 3.763169 3.763169 8.571662 5.644753 13.380155 5.644753s9.826051-1.881584 13.380155-5.644753c7.317272-7.317272 7.317272-19.443038 0-26.760311s-19.443038-7.317272-26.76031 0zM314.433646 166.41568c7.317272-7.317272 7.317272-19.443038 0-26.76031s-19.443038-7.317272-26.76031 0-7.317272 19.443038 0 26.76031c3.763169 3.763169 8.571662 5.435688 13.380155 5.435688 4.808493 0.209065 9.616987-1.672519 13.380155-5.435688zM365.654553 217.636586c-3.554104 3.554104-5.435688 8.362597-5.435688 13.380156s2.090649 9.826051 5.644753 13.380155c3.554104 3.554104 8.362597 5.644753 13.380155 5.644753s9.826051-2.090649 13.380155-5.644753 5.644753-8.362597 5.644753-13.380155-2.090649-9.826051-5.644753-13.380156c-3.554104-3.554104-8.362597-5.644753-13.380155-5.644753-5.226623 0-10.244181 2.090649-13.58922 5.644753zM777.930584 112.685994c-3.554104 3.554104-5.644753 8.362597-5.644753 13.380155s2.090649 9.826051 5.644753 13.380156c3.554104 3.554104 8.362597 5.644753 13.380155 5.644753s9.826051-2.090649 13.380155-5.644753c3.554104-3.554104 5.435688-8.362597 5.435688-13.380156s-2.090649-9.826051-5.435688-13.380155c-3.554104-3.554104-8.362597-5.435688-13.380155-5.435688-4.808493-0.209065-9.826051 1.881584-13.380155 5.435688zM713.329522 222.863209c4.808493 0 9.616987-1.881584 13.380155-5.435688 7.317272-7.317272 7.317272-19.443038 0-26.76031s-19.443038-7.317272-26.76031 0-7.317272 19.443038 0 26.76031c3.763169 3.763169 8.571662 5.435688 13.380155 5.435688zM739.044508 151.57207c-7.317272 7.317272-7.317272 19.443038 0 26.760311 3.763169 3.763169 8.571662 5.644753 13.380155 5.644753s9.616987-1.881584 13.380155-5.644753c7.317272-7.317272 7.317272-19.443038 0-26.760311s-19.443038-7.317272-26.76031 0zM655.418538 243.142507c0 5.017558 2.090649 9.826051 5.644753 13.380155s8.362597 5.644753 13.380155 5.644753 9.826051-2.090649 13.380155-5.644753c3.554104-3.554104 5.644753-8.362597 5.644753-13.380155s-2.090649-9.826051-5.644753-13.380155c-3.554104-3.554104-8.362597-5.435688-13.380155-5.435688s-9.826051 2.090649-13.380155 5.435688c-3.554104 3.345039-5.644753 8.362597-5.644753 13.380155z" fill="#1296db" p-id="10738"></path><path d="M895.216007 635.9755c0-58.956309-47.875868-106.832176-106.832177-106.832176h-165.99755v-119.794202c0-50.384647-14.634545-86.761944-43.903634-108.086566-45.994283-33.868518-109.340955-14.42548-111.849735-13.58922-7.944467 2.508779-13.17109 9.826051-13.17109 17.979584v134.219681c0 105.786852-122.721111 141.955084-127.947734 143.418538-2.508779 0.627195-4.599428 1.881584-6.481012 3.345039-6.481013-8.153532-16.516129-13.380155-27.59657-13.380155H160.770927c-19.443038 0-35.331972 15.888934-35.331972 35.331972v368.163332c0 19.443038 15.888934 35.331972 35.331972 35.331972h130.247448c12.962025 0 24.460596-7.108207 30.523479-17.770518 19.233973 18.397713 45.158024 29.687219 73.799918 29.687219h328.231932c72.545529 0 118.748877-38.049816 126.902409-104.323397l44.112699-280.774194c0.41813-0.83626 0.627195-1.881584 0.627195-2.926909zM288.718661 974.033483H163.488771V611.096774h125.22989v362.936709zM813.262556 914.240915v0.627194c-5.853818 47.248673-35.959167 71.291139-89.479788 71.29114h-328.231931c-38.049816 0-68.991425-30.941609-68.991425-68.991425V619.877501c2.926909 0.627195 6.062883 0.627195 8.989792-0.209065 6.271948-1.672519 155.544304-45.158024 155.544304-179.795835v-118.957942c16.307064-2.508779 44.530829-3.972234 64.810126 10.871376 18.815843 13.798285 28.43283 39.931401 28.43283 77.563087v138.81911c0 10.453246 8.571662 19.024908 19.024908 19.024908h185.022458c37.631686 0 68.155165 30.105349 68.991425 67.527971L813.262556 914.240915z" fill="#1296db" p-id="10739"></path></svg>