<?xml version="1.0" standalone="no"?><!DOCTYPE svg PUBLIC "-//W3C//DTD SVG 1.1//EN" "http://www.w3.org/Graphics/SVG/1.1/DTD/svg11.dtd"><svg t="1569487053055" class="icon" viewBox="0 0 1024 1024" version="1.1" xmlns="http://www.w3.org/2000/svg" p-id="11517" xmlns:xlink="http://www.w3.org/1999/xlink" width="200" height="200"><defs><style type="text/css"></style></defs><path d="M299.914128 993.223472h-146.345533c-4.396647 0-8.165201-3.768554-8.165201-8.165202V601.503169c0-4.396647 3.768554-8.165201 8.165201-8.165201h146.345533c4.396647 0 8.165201 3.768554 8.165201 8.165201v383.555101c0 4.396647-3.768554 8.165201-8.165201 8.165202z" fill="#1296db" p-id="11518"></path><path d="M535.448783 165.188305c-5.024739 0-9.840114 2.093641-13.399304 5.652832s-5.443468 8.374566-5.443468 13.399305 2.093641 9.840114 5.443468 13.399304c3.55919 3.55919 8.374566 5.652832 13.399304 5.652832s9.840114-2.093641 13.399305-5.652832c3.55919-3.55919 5.652832-8.374566 5.652832-13.399304s-2.093641-9.840114-5.652832-13.399305c-3.55919-3.55919-8.374566-5.652832-13.399305-5.652832zM535.448783 82.698835c-10.468207 0-19.052137 8.58393-19.052136 19.052136s8.374566 19.052137 19.052136 19.052137c10.468207 0 19.052137-8.374566 19.052137-19.052137s-8.58393-19.052137-19.052137-19.052136zM548.848088 5.652832c-3.55919-3.55919-8.374566-5.652832-13.399305-5.652832s-9.840114 2.093641-13.399304 5.652832-5.443468 8.374566-5.443468 13.399305 2.093641 9.840114 5.443468 13.399304c3.55919 3.55919 8.374566 5.652832 13.399304 5.652832s9.840114-2.093641 13.399305-5.652832c3.55919-3.55919 5.652832-8.374566 5.652832-13.399304s-2.093641-9.840114-5.652832-13.399305zM878.596606 409.097526c5.024739 0 9.840114-2.093641 13.399305-5.652832 3.55919-3.55919 5.652832-8.374566 5.652832-13.399305s-2.093641-9.840114-5.652832-13.399304-8.374566-5.652832-13.399305-5.652832-9.840114 2.093641-13.399305 5.652832c-3.55919 3.55919-5.652832 8.374566-5.652832 13.399304s2.093641 9.840114 5.652832 13.399305c3.55919 3.768554 8.374566 5.652832 13.399305 5.652832zM796.107136 409.097526c10.468207 0 19.052137-8.58393 19.052136-19.052137s-8.374566-19.052137-19.052136-19.052136c-10.468207 0-19.052137 8.58393-19.052137 19.052136 0 10.677571 8.58393 19.052137 19.052137 19.052137zM713.617665 409.097526c5.024739 0 9.840114-2.093641 13.399305-5.652832 3.55919-3.55919 5.652832-8.374566 5.652832-13.399305s-2.093641-9.840114-5.652832-13.399304-8.374566-5.652832-13.399305-5.652832-9.840114 2.093641-13.399305 5.652832c-3.55919 3.55919-5.652832 8.374566-5.652831 13.399304s2.093641 9.840114 5.652831 13.399305 8.374566 5.652832 13.399305 5.652832zM192.300961 409.097526c5.024739 0 9.840114-2.093641 13.399305-5.652832s5.652832-8.374566 5.652832-13.399305-2.093641-9.840114-5.652832-13.399304-8.374566-5.652832-13.399305-5.652832c-5.024739 0-9.840114 2.093641-13.399305 5.652832-3.55919 3.55919-5.443468 8.374566-5.443467 13.399304s2.093641 9.840114 5.443467 13.399305c3.55919 3.768554 8.374566 5.652832 13.399305 5.652832zM255.738295 390.254754c0 10.468207 8.374566 19.052137 19.052136 19.052136 10.468207 0 19.052137-8.58393 19.052137-19.052136s-8.58393-19.052137-19.052137-19.052137-19.052137 8.58393-19.052136 19.052137zM343.880597 403.654058c3.55919 3.55919 8.374566 5.652832 13.399305 5.652832s9.840114-2.093641 13.399305-5.652832 5.652832-8.374566 5.652831-13.399304-2.093641-9.840114-5.652831-13.399305-8.374566-5.652832-13.399305-5.652832-9.840114 2.093641-13.399305 5.652832-5.443468 8.374566-5.443468 13.399305 1.884277 9.840114 5.443468 13.399304zM262.647311 132.736864c5.024739 0 9.840114-2.093641 13.399305-5.652832s5.652832-8.374566 5.652832-13.399305-2.093641-9.840114-5.652832-13.399305-8.374566-5.652832-13.399305-5.652832c-5.024739 0-9.840114 2.093641-13.399304 5.652832-3.55919 3.55919-5.652832 8.374566-5.652832 13.399305s2.093641 9.840114 5.652832 13.399305c3.349826 3.768554 8.374566 5.652832 13.399304 5.652832zM321.059906 191.149458c4.815375 0 9.63075-1.884277 13.399305-5.652832 7.327745-7.327745 7.327745-19.470865 0-26.798609s-19.470865-7.327745-26.79861 0-7.327745 19.470865 0 26.798609c3.55919 3.768554 8.374566 5.652832 13.399305 5.652832zM379.263136 249.562053c5.024739 0 9.840114-2.093641 13.399305-5.443468 3.55919-3.55919 5.652832-8.374566 5.652832-13.399305s-2.093641-9.840114-5.652832-13.399305c-3.55919-3.55919-8.374566-5.652832-13.399305-5.652831s-9.840114 2.093641-13.399304 5.652831-5.652832 8.374566-5.652832 13.399305 2.093641 9.840114 5.652832 13.399305c3.55919 3.349826 8.58393 5.443468 13.399304 5.443468zM804.272337 139.227152c3.55919-3.55919 5.652832-8.374566 5.652832-13.399305s-2.093641-9.840114-5.652832-13.399305-8.374566-5.652832-13.399305-5.652832-9.840114 2.093641-13.399305 5.652832c-3.55919 3.55919-5.652832 8.374566-5.652831 13.399305s2.093641 9.840114 5.652831 13.399305c3.55919 3.55919 8.374566 5.652832 13.399305 5.652832 4.815375 0 9.840114-2.093641 13.399305-5.652832zM745.859742 170.841137c-7.327745-7.327745-19.470865-7.327745-26.798609 0s-7.327745 19.470865 0 26.798609c3.768554 3.768554 8.58393 5.652832 13.399305 5.652832s9.63075-1.884277 13.399304-5.652832c7.327745-7.537109 7.327745-19.470865 0-26.798609zM674.047843 223.6009c-5.024739 0-9.840114 2.093641-13.399305 5.652831-3.55919 3.55919-5.652832 8.374566-5.652832 13.399305s2.093641 9.840114 5.652832 13.399305 8.374566 5.652832 13.399305 5.652832 9.840114-2.093641 13.399305-5.652832c3.55919-3.55919 5.652832-8.374566 5.652832-13.399305s-2.093641-9.840114-5.652832-13.399305c-3.55919-3.768554-8.374566-5.652832-13.399305-5.652831z" fill="#1296db" p-id="11519"></path><path d="M126.351257 609.66837v367.015335c0 19.470865 15.911675 35.382539 35.38254 35.382539h129.805765c12.980577 0 24.495604-7.118381 30.567165-17.586587 19.052137 18.21468 45.01329 29.520343 73.486812 29.520343h327.445512c72.439992 0 118.500102-37.894909 126.665304-104.053977l43.966469-279.919852c0.209364-1.046821 0.209364-1.884277 0.209364-2.931098 0-58.831323-47.944388-106.566346-106.566346-106.566347h-165.607034v-119.337559c0-50.247393-14.65549-86.676753-43.757104-107.822531-45.850746-33.707626-109.078716-14.446126-111.80045-13.608669-7.955837 2.51237-13.189941 9.840114-13.189941 18.005316v133.783684c0 105.519526-122.478021 141.530157-127.50276 142.995707-2.51237 0.628092-4.606011 1.884277-6.490288 3.349826-6.490288-8.165201-16.539767-13.399305-27.636067-13.399305h-129.805765c-19.261501-0.209364-35.173175 15.70231-35.173176 35.173175z m209.573503 11.305664c6.280924-1.674913 155.348191-45.01329 155.34819-179.425067v-118.500102c16.330403-2.51237 44.385197-3.977919 64.693519 10.886935 18.633408 13.818033 28.264159 39.779186 28.264159 77.255367v138.389696c0 10.468207 8.58393 19.052137 19.052136 19.052136h184.449806c37.476181 0 68.043345 30.148436 68.671437 67.415253l-43.757105 278.663668v0.628092c-5.652832 47.106931-35.801268 70.974443-89.189122 70.974443h-327.654877c-37.894909 0-68.671437-30.776528-68.671437-68.671437V621.183398c2.721734 0.628092 5.862196 0.628092 8.793294-0.209364z m-171.678594-8.793294h124.781027v361.990595h-124.781027V612.18074z" fill="#1296db" p-id="11520"></path></svg>