<?xml version="1.0" standalone="no"?><!DOCTYPE svg PUBLIC "-//W3C//DTD SVG 1.1//EN" "http://www.w3.org/Graphics/SVG/1.1/DTD/svg11.dtd"><svg t="1569487047513" class="icon" viewBox="0 0 1024 1024" version="1.1" xmlns="http://www.w3.org/2000/svg" p-id="11150" xmlns:xlink="http://www.w3.org/1999/xlink" width="200" height="200"><defs><style type="text/css"></style></defs><path d="M671.170443 741.633933h333.59951v245.810166H671.170443z" fill="#1296db" p-id="11151"></path><path d="M201.497448 861.19466H32.816493c-7.733823 0-14.004491-6.270667-14.004491-14.004491v-455.041437c0-7.733823 6.270667-14.004491 14.004491-14.00449h168.471933c7.733823 0 14.004491 6.270667 14.004491 14.00449v455.041437c0.209022 7.733823-6.270667 14.004491-13.795469 14.004491z" fill="#1296db" p-id="11152"></path><path d="M713.60196 658.6521v63.960809h-42.222495c-10.451112 0-19.021025 8.569912-19.021025 19.021024v245.810166c0 10.451112 8.569912 19.021025 19.021025 19.021024h333.59951c10.451112 0 19.021025-8.569912 19.021025-19.021024v-245.810166c0-10.451112-8.569912-19.021025-19.021025-19.021024h-42.222494v-63.960809c0-68.76832-55.808941-124.577261-124.577261-124.57726s-124.577261 56.017963-124.57726 124.57726z m272.355991 309.770974H690.191468v-207.768116h295.766483v207.768116z m-61.243519-309.770974v63.960809h-173.279445v-63.960809c0-47.866095 38.878138-86.744234 86.744233-86.744233s86.535211 39.087161 86.535212 86.744233z" fill="#1296db" p-id="11153"></path><path d="M842.568687 823.361633c-11.078179-2.299245-22.992447 3.971423-27.799959 14.631557-5.016534 10.869157-1.672178 23.410492 8.151868 30.726271 1.8812 1.463156 2.508267 2.926311 2.508267 5.225556v33.025516c0 8.987957 9.615023 15.885691 19.230047 11.078179 3.971423-2.090222 6.47969-6.47969 6.061645-11.078179v-32.816493c0-2.508267 0.627067-3.971423 2.717289-5.434579 6.897734-5.016534 10.451112-12.12329 10.242091-20.48418-0.209022-12.541335-8.778934-22.574403-21.111248-24.873648zM0 406.362245v426.823434c0 25.918759 21.111247 47.030006 47.030006 47.030006h140.253929c16.094713 0 30.099204-7.942845 38.669117-20.275158 22.992447 27.172892 57.272096 44.521739 95.523168 44.521739h253.125944c10.451112 0 19.021025-8.569912 19.021024-19.021025s-8.569912-19.021025-19.021024-19.021025H321.058175c-47.866095 0-86.953256-39.087161-86.953256-86.953255v-363.28067c2.717289 1.254133 5.643601 2.090222 8.569913 2.090223 1.672178 0 3.344356-0.209022 5.016534-0.627067 1.8812-0.627067 46.402939-13.168402 91.342723-45.148806 61.034497-43.267606 93.432945-101.375791 93.432945-167.844866v-146.733619c19.648091-3.553378 57.272096-6.688712 84.444989 13.377424 23.619514 17.348847 35.533782 49.956318 35.533782 96.568279v167.217799c0 10.451112 8.569912 19.021025 19.021025 19.021025H794.284548c47.866095 0 86.953256 39.087161 86.953256 86.953256 0 0.418044 0.209022 1.045111 0.209022 1.463156l-3.135334 20.275158c-1.672178 10.24209 5.434578 20.066136 15.676669 21.738314 1.045111 0.209022 2.090222 0.209022 2.926311 0.209022 9.196979 0 17.139824-6.688712 18.602981-15.885691l3.344356-20.902225c0.209022-1.672178 0.209022-3.344356 0-5.016534 0-0.627067 0.209022-1.254133 0.209022-1.8812 0-68.76832-56.017963-124.786283-124.786283-124.786283h-204.005716v-148.405797c0-59.362319-17.139824-102.21188-51.210451-127.085528-53.92774-39.505205-128.339661-16.930802-131.474995-15.885691-7.942845 2.508267-13.168402 9.824046-13.168401 17.975914v161.783221c0 130.638906-150.49602 174.742601-156.97571 176.414778-3.135334 0.836089-6.061645 2.717289-8.151867 4.807512-7.524801-15.676669-23.828536-26.754848-42.431517-26.754848H47.030006c-25.918759 0.209022-47.030006 21.320269-47.030006 47.239028z m37.833027 0c0-5.016534 4.180445-9.196979 9.196979-9.196979h140.253929c5.016534 0 9.196979 4.180445 9.196979 9.196979v426.823434c0 5.016534-4.180445 9.196979-9.196979 9.196979H47.030006c-5.016534 0-9.196979-4.180445-9.196979-9.196979v-426.823434z" fill="#1296db" p-id="11154"></path></svg>