<?xml version="1.0" standalone="no"?><!DOCTYPE svg PUBLIC "-//W3C//DTD SVG 1.1//EN" "http://www.w3.org/Graphics/SVG/1.1/DTD/svg11.dtd"><svg t="1569487044093" class="icon" viewBox="0 0 1024 1024" version="1.1" xmlns="http://www.w3.org/2000/svg" p-id="10967" xmlns:xlink="http://www.w3.org/1999/xlink" width="200" height="200"><defs><style type="text/css"></style></defs><path d="M373.136531 675.319393h-83.758917c-4.408364 0-8.186962-3.778598-8.186962-8.186962V437.267733c0-4.408364 3.778598-8.186962 8.186962-8.186962h83.758917c4.408364 0 8.186962 3.778598 8.186962 8.186962v229.654776c0 4.618286-3.778598 8.396884-8.186962 8.396884z" fill="#1296db" p-id="10968"></path><path d="M938.0369 517.877819c-1.889299-3.778598-1.889299-8.186962 0-11.755638l57.9385-113.357933c6.297663-12.175482 7.347273-26.03034 3.148831-39.045511-4.198442-13.01517-13.225092-23.511275-25.400574-29.808938l-113.567855-57.518655c-3.778598-1.889299-6.297663-5.457975-6.92743-9.656417l-19.732677-125.743337c-3.98852-24.98073-25.190652-43.03403-50.381304-43.03403-2.728987 0-5.457975 0.209922-7.97704 0.629766l-125.743337 19.942599c-3.98852 0.629766-8.396884-0.839688-11.335793-3.568675l-89.846659-90.056581c-9.656417-9.656417-22.461665-14.904469-36.106601-14.904469s-26.450185 5.248052-36.106601 14.904469L385.941779 104.96105c-2.519065 2.519065-5.667897 3.778598-9.236572 3.778597-0.629766 0-1.469455 0-2.099221-0.209922l-125.743337-19.942599c-2.728987-0.419844-5.457975-0.629766-7.97704-0.629766-25.190652 0-46.392784 18.053301-50.381304 43.03403l-19.732677 125.743337c-0.629766 4.198442-3.148831 7.767118-6.92743 9.656417l-113.567855 57.728577c-12.175482 6.087741-21.202132 16.793768-25.400574 29.808938s-3.148831 26.870029 3.148831 39.045511l57.9385 113.357933c1.889299 3.778598 1.889299 8.186962 0 11.755638l-57.9385 113.357933c-6.297663 12.175482-7.347273 26.03034-3.148831 39.045511s13.225092 23.511275 25.400574 29.808938l113.357933 57.308733c3.778598 1.889299 6.297663 5.457975 6.92743 9.656417l19.732677 125.743337c3.98852 24.98073 25.190652 43.03403 50.381304 43.03403 2.728987 0 5.457975-0.209922 7.97704-0.629766l125.743337-19.942599c3.98852-0.629766 8.396884 0.839688 11.335793 3.568675l89.846659 90.056581c9.656417 9.656417 22.461665 14.904469 36.106601 14.904469s26.450185-5.248052 36.106601-14.904469l89.846658-90.056581c2.938909-2.938909 7.137351-4.408364 11.335794-3.568675l125.743337 19.942599c2.728987 0.419844 5.457975 0.629766 8.186962 0.629766 25.190652 0 46.392784-18.053301 50.381304-43.03403l19.732677-125.743337c0.629766-4.198442 3.148831-7.767118 6.927429-9.656417l113.567856-57.728577c12.175482-6.087741 21.202132-16.793768 25.400574-29.808938s3.148831-26.870029-3.148831-39.045511l-57.728578-113.148011z m24.770808 140.647806c-1.04961 3.358754-3.358754 6.087741-6.507585 7.557196l-113.567856 57.728577c-14.484625 7.347273-24.770808 21.412054-27.289873 37.576056l-19.732677 125.743337c-1.04961 6.927429-7.767118 11.96556-14.904469 10.706027l-125.743337-19.942599c-2.728987-0.419844-5.248052-0.629766-7.97704-0.629766-13.644936 0-26.450185 5.248052-36.106601 14.904469l-89.846659 90.05658c-4.828208 4.828208-13.435014 4.828208-18.473144 0l-89.846659-90.05658c-9.446494-9.446494-22.671587-14.904469-36.106601-14.904469-2.728987 0-5.457975 0.209922-7.97704 0.629766l-125.743337 19.942599c-7.137351 1.04961-13.854859-3.778598-14.904469-10.915949l-19.732678-125.743337c-2.519065-16.164002-12.805248-30.228782-27.289872-37.576056l-113.567856-57.728577c-3.148831-1.469455-5.457975-4.198442-6.507585-7.557196s-0.839688-6.927429 0.839688-9.866339l57.9385-113.357933c7.347273-14.484625 7.347273-31.908159 0-46.392784l-57.9385-113.357934c-1.679377-3.148831-1.889299-6.717507-0.839688-9.866338 1.04961-3.358754 3.358754-6.087741 6.507585-7.557196l113.567856-57.728577c14.484625-7.347273 24.770808-21.412054 27.289872-37.576056l19.732678-125.743337c1.04961-6.927429 7.767118-11.96556 14.904469-10.706027l125.743337 19.942599c2.728987 0.419844 5.457975 0.629766 7.97704 0.629766 13.435014 0 26.660107-5.457975 36.106601-14.904469l89.846659-90.05658c4.828208-4.828208 13.435014-4.828208 18.473144 0l89.846659 90.05658c11.335793 11.335793 28.129561 16.793768 44.083641 14.274703l125.743337-19.942599c7.137351-1.04961 13.854859 3.778598 14.904469 10.706027l19.732677 125.743337c2.519065 16.164002 12.805248 30.228782 27.289873 37.576056l113.567856 57.728577c3.148831 1.469455 5.457975 4.198442 6.507585 7.557196s0.839688 6.927429-0.839688 9.866338l-57.9385 113.357934c-7.347273 14.484625-7.347273 31.908159 0 46.392784l57.9385 113.357933c1.679377 3.148831 1.889299 6.717507 0.839688 10.076261z" fill="#1296db" p-id="10969"></path><path d="M676.264043 388.145961h-94.464945v-66.125461c0-33.377614-10.076261-57.728577-29.808938-72.213202-30.648626-22.461665-70.743747-10.915949-75.362034-9.446494-7.97704 2.519065-13.225092 9.866339-13.225092 18.0533v82.289463c0 57.308733-65.495695 78.510865-72.633046 80.610086-6.507585-6.927429-15.744157-11.335793-25.820419-11.335793h-67.175071c-19.522755 0-35.476835 15.95408-35.476835 35.476835v213.07093c0 19.522755 15.95408 35.476835 35.476835 35.476835h67.175071c7.97704 0 15.114391-2.728987 21.202133-6.927429 13.01517 11.96556 30.228782 19.312833 49.331693 19.312833h201.525215c47.862239 0 79.770398-26.240262 85.228372-70.323903l27.079951-172.136122c0.209922-1.04961 0.209922-1.889299 0.209922-2.938909-0.209922-40.095121-32.95777-72.842968-73.262812-72.842969z m-314.043461 268.070521h-62.136941v-208.0328h62.136941v208.0328z m322.230423-25.610496v0.629766c-1.04961 9.236572-4.618286 37.156212-47.442395 37.156212h-201.525215c-19.312833 0-34.847068-15.744157-34.847069-34.847069v-175.284952h0.209922c4.198442-1.04961 100.97253-29.179172 100.97253-117.556376v-66.335383c8.606806-0.629766 19.732677 0 28.129561 6.087741 9.446494 6.927429 14.274703 20.99221 14.274703 41.564575V407.248872c0 10.496105 8.606806 19.102911 19.102911 19.102912h113.567856c18.892989 0 34.217302 14.904469 34.847068 33.587535l-27.289872 170.666667z" fill="#1296db" p-id="10970"></path></svg>