<?xml version="1.0" standalone="no"?><!DOCTYPE svg PUBLIC "-//W3C//DTD SVG 1.1//EN" "http://www.w3.org/Graphics/SVG/1.1/DTD/svg11.dtd"><svg t="1569487035667" class="icon" viewBox="0 0 1024 1024" version="1.1" xmlns="http://www.w3.org/2000/svg" p-id="10371" xmlns:xlink="http://www.w3.org/1999/xlink" width="200" height="200"><defs><style type="text/css"></style></defs><path d="M299.434178 993.020442h-146.943581c-4.395748 0-8.163532-3.767784-8.163532-8.163533V600.333606c0-4.395748 3.767784-8.163532 8.163532-8.163532h146.73426c4.395748 0 8.163532 3.767784 8.163532 8.163532v384.523303c0.209321 4.395748-3.558463 8.163532-7.954211 8.163533z" fill="#1296db" p-id="10372"></path><path d="M554.387572 184.621423V19.048242c0-10.466067-8.582175-19.048242-19.048242-19.048242s-19.048242 8.582175-19.048243 19.048242v165.573181c0 10.466067 8.582175 19.048242 19.048243 19.048242 10.466067-0.209321 19.048242-8.582175 19.048242-19.048242zM879.463614 372.173344h-165.573181c-10.466067 0-19.048242 8.582175-19.048242 19.048242s8.582175 19.048242 19.048242 19.048242h165.573181c10.466067 0 19.048242-8.582175 19.048242-19.048242-0.209321-10.675388-8.582175-19.048242-19.048242-19.048242zM172.376124 391.012265c0 10.466067 8.582175 19.048242 19.048242 19.048242h165.573181c10.466067 0 19.048242-8.582175 19.048242-19.048242s-8.582175-19.048242-19.048242-19.048242h-165.573181c-10.466067 0.209321-19.048242 8.582175-19.048242 19.048242zM275.362224 127.476697c3.558463-3.558463 5.651676-8.372854 5.651676-13.396566s-2.093213-9.838103-5.651676-13.396566-8.372854-5.442355-13.396566-5.442355c-5.023712 0-9.838103 1.883892-13.396566 5.442355-3.558463 3.558463-5.651676 8.372854-5.651676 13.396566s2.093213 9.838103 5.651676 13.396566 8.372854 5.651676 13.396566 5.651676c4.814391 0 9.838103-2.093213 13.396566-5.651676zM353.229763 205.553557c7.326247-7.326247 7.326247-19.466885 0-26.793132s-19.466885-7.326247-26.793132 0-7.326247 19.466885 0 26.793132c3.767784 3.767784 8.582175 5.651676 13.396566 5.651676 4.814391-0.209321 9.838103-1.883892 13.396566-5.651676zM314.295993 166.619787c7.326247-7.326247 7.326247-19.466885 0-26.793131s-19.466885-7.326247-26.793131 0-7.326247 19.466885 0 26.793131c3.767784 3.767784 8.582175 5.651676 13.396566 5.651677 4.814391-0.209321 9.628782-2.093213 13.396565-5.651677zM392.372854 244.487326c3.558463-3.558463 5.651676-8.372854 5.651676-13.396566s-2.093213-9.838103-5.651676-13.396565c-3.558463-3.558463-8.372854-5.442355-13.396566-5.442355s-9.838103 2.093213-13.396566 5.442355c-3.558463 3.558463-5.651676 8.372854-5.651676 13.396565s2.093213 9.838103 5.651676 13.396566c3.558463 3.558463 8.372854 5.651676 13.396566 5.651676 4.814391 0 9.838103-2.093213 13.396566-5.651676zM804.735895 139.408013c3.558463-3.558463 5.651676-8.372854 5.651677-13.396566s-2.093213-9.838103-5.651677-13.396566-8.372854-5.651676-13.396565-5.651676-9.838103 2.093213-13.396566 5.651676c-3.558463 3.558463-5.651676 8.372854-5.651677 13.396566s2.093213 9.838103 5.651677 13.396566c3.558463 3.558463 8.372854 5.651676 13.396566 5.651676s9.838103-2.093213 13.396565-5.651676zM713.262469 223.136549c4.814391 0 9.628782-1.883892 13.396566-5.651676 7.326247-7.326247 7.326247-19.466885 0-26.793131s-19.466885-7.326247-26.793131 0-7.326247 19.466885 0 26.793131c3.767784 3.767784 8.582175 5.651676 13.396565 5.651676zM765.592805 178.551104c7.326247-7.326247 7.326247-19.466885 0-26.793132s-19.466885-7.326247-26.793132 0-7.326247 19.466885 0 26.793132c3.767784 3.767784 8.582175 5.651676 13.396566 5.651676s9.838103-2.093213 13.396566-5.651676zM687.725266 256.418643c3.558463-3.558463 5.651676-8.372854 5.651676-13.396566s-2.093213-9.838103-5.651676-13.396566c-3.558463-3.558463-8.372854-5.651676-13.396566-5.651676s-9.838103 2.093213-13.396566 5.651676c-3.558463 3.558463-5.442355 8.372854-5.442355 13.396566s2.093213 9.838103 5.651676 13.396566 8.372854 5.651676 13.396566 5.651676c4.814391 0 9.628782-2.093213 13.187245-5.651676z" fill="#1296db" p-id="10373"></path><path d="M850.577269 919.548651l44.166803-280.699918c0.209321-1.046607 0.209321-1.883892 0.209321-2.930499 0-59.028618-47.934587-106.963205-106.963205-106.963205h-165.991823v-119.522486c0-50.446443-14.652494-86.659035-43.748161-108.009812-46.050695-33.700736-109.26574-14.443173-111.986917-13.605887-7.954211 2.511856-13.187244 9.838103-13.187244 18.001635v134.17498c0 105.916599-122.662306 141.919869-127.89534 143.385118-2.511856 0.627964-4.60507 1.883892-6.488961 3.349142-6.488962-8.163532-16.536386-13.396566-27.630417-13.396566h-130.197874c-19.466885 0-35.375307 15.908422-35.375307 35.375307v367.986917c0 19.466885 15.908422 35.375307 35.375307 35.375307h130.197874c12.977923 0 24.490597-7.116926 30.560915-17.582993 19.257563 18.420278 45.21341 29.514309 73.681112 29.514309h328.215863c72.634505-0.209321 118.894522-38.096484 127.058054-104.451349z m-562.0278 54.423549h-125.174162V611.008994h125.174162v362.963206z m37.887162-56.935405V620.009812c2.930499 0.627964 5.860998 0.627964 9.000818-0.209321 6.27964-1.674571 155.525756-45.004088 155.525756-179.807032v-118.894522c16.327065-2.511856 44.585446-3.977105 64.889616 10.88471 18.838921 13.815209 28.258381 39.771055 28.258381 77.448896v138.780049c0 10.466067 8.582175 19.048242 19.048242 19.048242h185.040065c37.46852 0 68.238757 30.142273 68.866722 67.610793l-43.957482 279.44399v0.627964c-5.860998 47.306623-35.793949 71.169256-89.380213 71.169256h-328.215862c-38.096484-0.209321-69.076043-31.18888-69.076043-69.076042z" fill="#1296db" p-id="10374"></path></svg>