<?xml version="1.0" standalone="no"?><!DOCTYPE svg PUBLIC "-//W3C//DTD SVG 1.1//EN" "http://www.w3.org/Graphics/SVG/1.1/DTD/svg11.dtd"><svg t="1569487038114" class="icon" viewBox="0 0 1024 1024" version="1.1" xmlns="http://www.w3.org/2000/svg" p-id="10554" xmlns:xlink="http://www.w3.org/1999/xlink" width="200" height="200"><defs><style type="text/css"></style></defs><path d="M230.967761 971.143429H27.445895c-4.433568 0-8.233768-3.800201-8.233769-8.233768v-524.427713c0-4.433568 3.800201-8.233768 8.233769-8.233768h203.521866c4.433568 0 8.233768 3.800201 8.233768 8.233768v524.427713c0 4.433568-3.589079 8.233768-8.233768 8.233768z" fill="#1296db" p-id="10555"></path><path d="M600.853973 43.049942c-59.536479-43.702309-141.874164-18.57876-145.25212-17.523149-8.022646 2.533467-13.300703 9.922747-13.300703 18.156515v181.142906c0 61.43658-29.134873 113.372658-86.771252 154.5415-44.546798 31.879462-90.149208 44.969043-90.571452 45.180165-0.422245 0-0.633367 0.211122-1.055612 0.422244l-10.767235 3.589079c-6.333668-10.344991-17.523148-17.312026-30.612729-17.312026H35.679663c-19.634371 0-35.679663 16.045292-35.679663 35.679663v507.749053c0 19.634371 16.045292 35.679663 35.679663 35.679663h187.054329c16.889781 0 31.034973-11.822847 34.624052-27.445894 25.12355 26.812528 60.803213 43.702309 100.494199 43.702309h442.934517c94.160531 0 154.330377-49.191488 164.886491-135.118251l56.580768-359.330099c8.233768-52.1472-13.089581-104.927767-54.469545-134.484885-23.434572-16.889781-51.091589-25.756917-80.015339-25.756916H657.434741v-168.053325c0-65.870147-19.001004-113.161535-56.580768-140.818552z m-380.86457 908.881361H38.21313v-502.470997h181.776273v502.470997z m667.779732-561.796354c20.901104 0 40.746598 6.333668 57.636379 18.57876 29.557117 21.323349 44.969043 59.536479 38.846497 97.538487l-56.369646 359.541222v0.633366c-10.344991 84.026662-74.737283 101.760933-127.095605 101.760933H357.852243c-54.89179 0-99.438588-44.546798-99.438588-99.438588v-401.554552l17.523149-5.911424c6.122546-1.688978 53.202811-16.045292 100.916443-50.035977 67.770248-48.135877 103.661033-112.528169 103.661034-186.20984v-165.942102c21.956716-4.222445 66.08127-8.444891 97.960732 14.989681 27.02365 19.845493 40.746598 56.79189 40.746597 109.783579v187.265451c0 10.556113 8.656013 19.212126 19.212127 19.212126h249.335398v-0.211122z" fill="#1296db" p-id="10556"></path></svg>