<?xml version="1.0" standalone="no"?><!DOCTYPE svg PUBLIC "-//W3C//DTD SVG 1.1//EN" "http://www.w3.org/Graphics/SVG/1.1/DTD/svg11.dtd"><svg t="1569487050278" class="icon" viewBox="0 0 1024 1024" version="1.1" xmlns="http://www.w3.org/2000/svg" p-id="11334" xmlns:xlink="http://www.w3.org/1999/xlink" width="200" height="200"><defs><style type="text/css"></style></defs><path d="M171.050736 758.363339h246.363339v246.363339H171.050736z" fill="#1296db" p-id="11335"></path><path d="M852.739771 118.991817h-266.684125l45.669395-45.669395c7.332242-7.332242 7.332242-19.482815 0-26.815057s-19.482815-7.332242-26.815057 0l-78.140753 77.93126c-7.332242 7.332242-7.332242 19.482815 0 26.815057l78.140753 78.140753c3.770867 3.770867 8.589198 5.656301 13.407528 5.656301s9.636661-1.885434 13.407529-5.656301c7.332242-7.332242 7.332242-19.482815 0-26.815057l-45.669395-45.669394h247.620295v705.780687h-397.198036v-104.11784c0-10.474632-8.589198-19.06383-19.06383-19.063829H171.050736c-10.474632 0-19.06383 8.589198-19.063829 19.063829v246.363339c0 10.474632 8.589198 19.06383 19.063829 19.06383h246.363339c10.474632 0 19.06383-8.589198 19.06383-19.06383V900.818331h416.471359c10.474632 0 19.06383-8.589198 19.063829-19.06383v-743.698855c-0.209493-10.684124-8.798691-19.06383-19.273322-19.063829z m-454.389526 866.880523h-208.445171v-208.445171h208.445171v208.445171z" fill="#1296db" p-id="11336"></path><path d="M151.986907 388.818331v246.363338c0 10.474632 8.589198 19.06383 19.063829 19.06383h246.363339c10.474632 0 19.06383-8.589198 19.06383-19.06383V388.818331c0-10.474632-8.589198-19.06383-19.06383-19.06383H171.050736c-10.474632 0-19.06383 8.589198-19.063829 19.06383z m37.918167 19.063829h208.445171v208.445172h-208.445171v-208.445172zM417.414075 246.572831c-5.027823 0-9.846154 2.094926-13.407528 5.656302s-5.656301 8.379705-5.656302 13.407528 2.094926 9.846154 5.656302 13.407529 8.379705 5.656301 13.407528 5.656301 9.846154-2.094926 13.407529-5.656301 5.656301-8.379705 5.656301-13.407529-2.094926-9.846154-5.656301-13.407528c-3.561375-3.561375-8.379705-5.656301-13.407529-5.656302zM355.823241 246.572831c-10.474632 0-19.06383 8.589198-19.06383 19.06383s8.379705 19.06383 19.06383 19.06383c10.474632 0 19.06383-8.589198 19.063829-19.06383s-8.589198-19.06383-19.063829-19.06383zM232.641571 246.572831c-10.474632 0-19.06383 8.589198-19.06383 19.06383s8.589198 19.06383 19.06383 19.06383 19.06383-8.589198 19.06383-19.06383c-0.209493-10.474632-8.589198-19.06383-19.06383-19.06383zM294.232406 246.572831c-10.474632 0-19.06383 8.589198-19.06383 19.06383s8.379705 19.06383 19.06383 19.06383c10.474632 0 19.06383-8.589198 19.06383-19.06383-0.209493-10.474632-8.589198-19.06383-19.06383-19.06383zM171.050736 246.572831c-5.027823 0-9.846154 2.094926-13.407528 5.656302-3.561375 3.561375-5.656301 8.379705-5.656301 13.407528s2.094926 9.846154 5.656301 13.407529 8.379705 5.656301 13.407528 5.656301 9.846154-2.094926 13.407529-5.656301c3.561375-3.561375 5.656301-8.379705 5.656301-13.407529s-2.094926-9.846154-5.656301-13.407528c-3.561375-3.561375-8.379705-5.656301-13.407529-5.656302zM171.050736 184.981997c-10.474632 0-19.06383 8.379705-19.063829 19.06383 0 10.474632 8.589198 19.06383 19.063829 19.063829s19.06383-8.589198 19.06383-19.063829c-0.209493-10.474632-8.589198-19.06383-19.06383-19.06383zM171.050736 61.800327c-10.474632 0-19.06383 8.589198-19.063829 19.06383s8.589198 19.06383 19.063829 19.06383 19.06383-8.589198 19.06383-19.06383c-0.209493-10.684124-8.589198-19.06383-19.06383-19.06383zM171.050736 123.391162c-10.474632 0-19.06383 8.379705-19.063829 18.854337s8.589198 19.06383 19.063829 19.06383 19.06383-8.589198 19.06383-19.06383c-0.209493-10.265139-8.589198-18.854337-19.06383-18.854337zM171.050736 0.209493c-5.027823 0-9.846154 2.094926-13.407528 5.656301-3.561375 3.561375-5.656301 8.379705-5.656301 13.407528s2.094926 9.846154 5.656301 13.407529 8.379705 5.656301 13.407528 5.656301 9.846154-2.094926 13.407529-5.656301c3.561375-3.561375 5.446809-8.379705 5.446809-13.407529s-2.094926-9.846154-5.656301-13.407528c-3.351882-3.561375-8.379705-5.656301-13.198037-5.656301zM355.823241 0.209493c-10.474632 0-19.06383 8.379705-19.06383 19.063829 0 10.474632 8.379705 19.06383 19.06383 19.06383 10.474632 0 19.06383-8.589198 19.063829-19.06383 0-10.684124-8.589198-19.06383-19.063829-19.063829zM232.641571 0.209493c-10.474632 0-19.06383 8.379705-19.06383 19.063829 0 10.474632 8.379705 19.06383 19.06383 19.06383 10.474632 0 19.06383-8.589198 19.06383-19.06383-0.209493-10.684124-8.589198-19.06383-19.06383-19.063829zM294.232406 0.209493c-10.474632 0-19.06383 8.379705-19.06383 19.063829 0 10.474632 8.379705 19.06383 19.06383 19.06383 10.474632 0 19.06383-8.589198 19.06383-19.06383-0.209493-10.684124-8.589198-19.06383-19.06383-19.063829zM417.414075 38.12766c5.027823 0 9.846154-2.094926 13.407529-5.656302s5.656301-8.379705 5.656301-13.407528-2.094926-9.846154-5.656301-13.407529-8.379705-5.656301-13.407529-5.656301-9.846154 2.094926-13.407528 5.656301-5.656301 8.379705-5.656302 13.407529 2.094926 9.846154 5.656302 13.407528c3.561375 3.770867 8.379705 5.656301 13.407528 5.656302zM417.414075 184.981997c-10.474632 0-19.06383 8.379705-19.06383 18.854337s8.379705 19.06383 19.06383 19.06383c10.474632 0 19.06383-8.589198 19.06383-19.06383 0-10.265139-8.589198-18.854337-19.06383-18.854337zM417.414075 61.800327c-10.474632 0-19.06383 8.589198-19.06383 19.06383s8.379705 19.06383 19.06383 19.06383c10.474632 0 19.06383-8.589198 19.06383-19.06383 0-10.684124-8.589198-19.06383-19.06383-19.06383zM417.414075 123.391162c-10.474632 0-19.06383 8.379705-19.06383 19.06383 0 10.474632 8.379705 19.06383 19.06383 19.06383 10.474632 0 19.06383-8.589198 19.06383-19.06383s-8.589198-19.06383-19.06383-19.06383z" fill="#1296db" p-id="11337"></path></svg>