<?xml version="1.0" standalone="no"?><!DOCTYPE svg PUBLIC "-//W3C//DTD SVG 1.1//EN" "http://www.w3.org/Graphics/SVG/1.1/DTD/svg11.dtd"><svg t="1569487058974" class="icon" viewBox="0 0 1024 1024" version="1.1" xmlns="http://www.w3.org/2000/svg" p-id="11883" xmlns:xlink="http://www.w3.org/1999/xlink" width="200" height="200"><defs><style type="text/css"></style></defs><path d="M226.437346 621.444717H116.153972c-29.981982 0-54.512695-24.530713-54.512694-54.30303v-110.283374c0-29.981982 24.530713-54.512695 54.30303-54.512695h110.283374c29.981982 0 54.512695 24.530713 54.512695 54.303031v110.283374c0.209664 29.981982-24.321048 54.512695-54.303031 54.512694z" fill="#1296db" p-id="11884"></path><path d="M171.295659 640.524161c-70.866503 0-128.524161-57.657658-128.733824-128.524161 0-34.175266 13.418509-66.463554 37.739557-90.784603s56.609337-37.739558 90.784603-37.739558c70.866503 0 128.524161 57.657658 128.733825 128.524161 0 34.175266-13.418509 66.463554-37.739558 90.784603s-56.609337 37.739558-90.784603 37.739558z m0-219.0991c-24.111384 0-46.755119 9.434889-63.947584 26.627355s-26.627355 39.8362-26.627354 63.947584c0 49.900082 40.674857 90.574939 90.574938 90.574939v19.079443-19.079443c24.111384 0 46.755119-9.434889 63.947584-26.627355s26.627355-39.8362 26.627355-63.947584c0-49.900082-40.674857-90.574939-90.574939-90.574939zM170.876331 257.048321s0.209664 0 0 0c34.38493 0 66.673219-13.418509 90.994267-37.739558s37.739558-56.609337 37.739558-90.784602C299.610156 57.657658 241.952498 0 170.876331 0 136.701065 0 104.412776 13.418509 80.091728 37.739558s-37.739558 56.609337-37.739558 90.784603c0 70.866503 57.657658 128.524161 128.524161 128.52416zM106.928747 64.576577c17.192465-17.192465 39.8362-26.627355 63.947584-26.627355 49.900082 0 90.574939 40.674857 90.574938 90.574939 0 24.111384-9.434889 46.755119-26.627354 63.947583s-39.8362 26.627355-63.947584 26.627355v19.079443-19.079443c-49.900082 0-90.574939-40.674857-90.574939-90.574938 0-24.111384 9.434889-46.755119 26.627355-63.947584zM171.505324 766.951679c-34.175266 0-66.463554 13.418509-90.784603 37.739558s-37.739558 56.609337-37.739558 90.784602c0 70.866503 57.657658 128.524161 128.524161 128.524161s128.524161-57.867322 128.52416-128.733825c0-70.656839-57.657658-128.314496-128.52416-128.314496z m0.209664 219.099099v19.079443-19.079443c-49.900082 0-90.574939-40.674857-90.574939-90.574939 0-24.111384 9.434889-46.755119 26.627355-63.947583s39.8362-26.627355 63.947584-26.627355c49.900082 0 90.574939 40.674857 90.574938 90.574938-0.209664 49.900082-40.674857 90.574939-90.574938 90.574939zM981.64783 120.976249c0-10.48321-8.596233-19.079443-19.079443-19.079443l-521.644554 0.419328c-10.48321 0-19.079443 8.596233-19.079443 19.079443s8.596233 19.079443 19.079443 19.079443l521.644554-0.419328c10.48321-0.209664 19.079443-8.596233 19.079443-19.079443zM415.135135 511.790336c0 5.031941 2.096642 9.854218 5.45127 13.418509 3.564292 3.564292 8.386568 5.660934 13.418509 5.660934s9.854218-2.096642 13.418509-5.660934 5.660934-8.386568 5.660934-13.418509-2.096642-9.854218-5.660934-13.41851-8.386568-5.660934-13.418509-5.660933-9.854218 2.096642-13.418509 5.660933c-3.354627 3.564292-5.451269 8.386568-5.45127 13.41851zM518.289926 511.790336c0-10.48321-8.386568-19.079443-19.079443-19.079443-10.48321 0-19.079443 8.596233-18.869779 19.079443 0 10.48321 8.386568 19.079443 19.079443 19.079443 10.48321-0.209664 19.079443-8.596233 18.869779-19.079443zM583.495495 511.580672c0-10.48321-8.386568-18.869779-19.079443-18.869779-10.48321 0-19.079443 8.596233-19.079443 19.079443s8.596233 19.079443 19.079443 19.079443c10.692875-0.209664 19.289107-8.596233 19.079443-19.289107zM909.733006 511.371007c0-10.48321-8.596233-19.079443-19.079443-19.079443s-18.869779 8.596233-18.869779 19.079443 8.596233 19.079443 19.079443 19.079443c10.273546 0 18.869779-8.596233 18.869779-19.079443zM779.321867 511.580672c0-10.48321-8.596233-19.079443-19.079443-19.079443s-18.869779 8.596233-18.869779 19.079443 8.386568 18.869779 19.079443 18.869778c10.273546 0 18.869779-8.386568 18.869779-18.869778zM714.116298 511.580672c0-10.48321-8.596233-19.079443-19.079443-19.079443s-18.869779 8.596233-18.869779 19.079443 8.386568 18.869779 19.079443 18.869778c10.273546 0.209664 18.869779-8.386568 18.869779-18.869778zM844.527437 511.580672c0-10.48321-8.596233-19.079443-19.079444-19.079443s-18.869779 8.596233-18.869778 19.079443 8.596233 19.079443 19.079443 19.079443c10.273546-0.209664 18.869779-8.596233 18.869779-19.079443zM648.910729 511.580672c0-10.48321-8.596233-19.079443-19.079443-18.869779-10.48321 0-19.079443 8.386568-18.869779 19.079443 0 10.48321 8.386568 19.079443 19.079443 18.869779 10.273546 0 18.869779-8.596233 18.869779-19.079443zM969.277641 524.789517c3.564292-3.564292 5.660934-8.386568 5.660934-13.41851s-2.096642-9.854218-5.660934-13.418509-8.386568-5.660934-13.418509-5.660934-9.854218 2.096642-13.41851 5.660934c-3.564292 3.564292-5.660934 8.386568-5.660933 13.418509s2.096642 9.854218 5.660933 13.41851 8.386568 5.660934 13.41851 5.660933 9.854218-2.096642 13.418509-5.660933zM415.554464 895.266175c0 10.48321 8.596233 19.079443 19.079443 19.079443l521.644553-0.419328c10.48321 0 19.079443-8.596233 19.079443-19.079443s-8.596233-19.079443-19.079443-19.079443l-521.854218 0.628992c-10.48321 0-18.869779 8.386568-18.869778 18.869779z" fill="#1296db" p-id="11885"></path></svg>