<?xml version="1.0" standalone="no"?><!DOCTYPE svg PUBLIC "-//W3C//DTD SVG 1.1//EN" "http://www.w3.org/Graphics/SVG/1.1/DTD/svg11.dtd"><svg t="1569487076258" class="icon" viewBox="0 0 1024 1024" version="1.1" xmlns="http://www.w3.org/2000/svg" p-id="12979" xmlns:xlink="http://www.w3.org/1999/xlink" width="200" height="200"><defs><style type="text/css"></style></defs><path d="M511.938342 511.712609m-369.53248 0a369.532479 369.532479 0 1 0 739.064959 0 369.532479 369.532479 0 1 0-739.064959 0Z" fill="#1296db" p-id="12980"></path><path d="M1023.807709 511.712609c0-136.693576-53.297954-265.235699-149.861305-362.008062-199.606062-199.606062-524.410063-199.606062-724.016125 0-188.73746 188.946471-200.233097 491.804256-27.79854 693.918457-17.347961 36.786039-46.609583 81.932541-91.965097 104.29678-15.048834 7.315405-23.409297 23.409297-20.901159 39.921212s15.257846 29.470633 31.769761 31.978772c9.614533 1.463081 23.200286 2.926162 39.712201 2.926162 45.564525 0 113.911313-11.077614 183.094147-62.912486 77.752309 43.056386 162.820023 64.166556 247.678726 64.166556 132.513344 0 263.563607-51.41685 362.217074-150.070317 96.772363-96.981375 150.070317-225.523498 150.070317-362.217074z m-752.023677 408.826657c-7.94244-4.807266-17.974996-2.926162-23.82732 3.97122-0.836046 0.418023-1.672093 1.045058-2.508139 1.672093-84.231668 65.420626-166.791244 61.031382-198.561004 56.015104 0-0.209012-0.209012-0.418023 0-0.418023 59.150278-29.05261 94.682247-87.575853 113.911312-131.468286 1.881104-4.180232 1.881104-8.778487 0.627035-12.958718-0.209012-4.180232-1.672093-8.151452-4.598255-11.495637-165.746186-187.274379-156.967699-472.366178 19.856101-649.39899 184.76624-184.76624 485.533908-184.76624 670.300148 0 89.456958 89.456958 138.783691 208.59356 138.783691 335.25458s-49.326734 245.588611-138.783691 335.25458c-152.787467 152.578456-389.179568 182.885135-575.199878 73.572077z" fill="#1296db" p-id="12981"></path><path d="M544.544149 492.483543h-65.420626c-29.05261 0-52.879931-23.618309-52.879931-52.87993s23.618309-52.879931 52.879931-52.879931h115.374394c10.450579 0 19.020054-8.569475 19.020054-19.020054s-8.569475-19.020054-19.020054-19.020054h-63.748533v-49.535745c0-10.450579-8.569475-19.020054-19.020054-19.020054s-19.020054 8.569475-19.020054 19.020054v49.744757h-13.794765c-49.953768 0-90.711027 40.757259-90.711027 90.711027s40.757259 90.711027 90.711027 90.711027h65.420626c29.05261 0 52.879931 23.618309 52.879931 52.879931 0 29.05261-23.618309 52.879931-52.879931 52.87993h-117.673521c-10.450579 0-19.020054 8.569475-19.020055 19.020054s8.569475 19.020054 19.020055 19.020054h66.04766v50.371792c0 10.450579 8.569475 19.020054 19.020054 19.020054s19.020054-8.569475 19.020054-19.020054v-50.371792h13.794765c49.953768 0 90.711027-40.757259 90.711027-90.711027 0-50.371792-40.757259-90.920039-90.711027-90.920039zM226.428519 747.268664c-7.733429 7.106394-8.151452 19.020054-1.25407 26.753482 3.762209 4.180232 8.778487 6.061336 14.003776 6.061336 4.598255 0 9.19651-1.672093 12.749707-5.016278 7.733429-7.106394 8.151452-19.020054 1.254069-26.753483-6.897382-7.733429-19.020054-8.151452-26.753482-1.045057zM238.760202 281.799867c5.22529 0 10.241568-2.090116 14.003776-6.270347 7.106394-7.733429 6.479359-19.647089-1.254069-26.753483s-19.647089-6.479359-26.753483 1.25407-6.479359 19.647089 1.254069 26.753482c3.553197 3.344185 8.151452 5.016278 12.749707 5.016278zM856.389431 446.919018c1.672093 9.19651 9.614533 15.466857 18.602031 15.466857 1.25407 0 2.299127-0.209012 3.553197-0.418023 10.241568-1.881104 17.13895-11.704649 15.257845-22.155228-1.881104-10.241568-11.91366-17.13895-22.155227-15.048834-10.450579 1.881104-17.13895 11.91366-15.257846 22.155228zM187.970387 690.835536c-8.778487 5.434301-11.704649 17.13895-6.061336 26.126448 3.553197 5.852324 9.823544 8.987498 16.093892 8.987498 3.344185 0 6.897382-0.836046 10.032556-2.926162 8.778487-5.643313 11.495637-17.13895 6.061336-26.126448s-17.13895-11.495637-26.126448-6.061336zM667.860983 197.777211c2.717151 1.25407 5.643313 1.881104 8.360463 1.881104 6.897382 0 13.585753-3.762209 16.929938-10.450579 4.598255-9.405521 0.836046-20.692147-8.569475-25.499413-9.405521-4.598255-20.692147-0.836046-25.499413 8.569475-4.389243 9.405521-0.627035 20.692147 8.778487 25.499413zM838.623446 384.842578c2.926162 7.524417 10.032556 12.122672 17.556973 12.122672 2.299127 0 4.598255-0.418023 6.897383-1.25407 9.823544-3.762209 14.630811-14.839822 10.868602-24.454355-3.762209-9.823544-14.630811-14.630811-24.454355-10.868602-9.823544 3.553197-14.630811 14.630811-10.868603 24.454355zM607.665647 174.367913c1.672093 0.418023 3.553197 0.627035 5.225289 0.627035 8.151452 0 15.88488-5.434301 18.184008-13.794764 2.717151-10.032556-2.926162-20.483135-13.16773-23.409298-10.032556-2.926162-20.483135 2.926162-23.409297 12.958719-2.926162 10.450579 2.926162 20.901158 13.16773 23.618308zM185.253237 639.000663c-3.762209-9.823544-14.839822-14.630811-24.454356-10.868602-9.823544 3.762209-14.630811 14.839822-10.868602 24.454355 2.926162 7.524417 10.032556 12.122672 17.556973 12.122672 2.299127 0 4.598255-0.418023 6.897382-1.254069 9.823544-3.553197 14.630811-14.630811 10.868603-24.454356zM668.488018 825.438996c-9.405521 4.598255-13.16773 16.093892-8.360464 25.499413 3.344185 6.688371 10.032556 10.450579 16.929938 10.450579 2.926162 0 5.852324-0.627035 8.360464-1.881104 9.405521-4.807266 13.16773-16.093892 8.360463-25.499413-4.389243-9.614533-15.88488-13.376741-25.290401-8.569475zM881.261809 492.274532c-10.450579 0-19.020054 8.569475-19.020054 19.020054s8.569475 18.811043 19.020054 18.811042 19.020054-8.569475 19.020055-19.020054c0-10.241568-8.569475-18.811043-19.020055-18.811042zM878.544659 560.62132c-10.241568-1.881104-20.065112 4.807266-22.155228 15.257845-1.881104 10.241568 4.807266 20.065112 15.257846 22.155228 1.25407 0.209012 2.299127 0.209012 3.553197 0.209012 8.987498 0 16.929938-6.270348 18.60203-15.466858 1.881104-10.450579-4.807266-20.274124-15.257845-22.155227zM152.229407 599.079451c10.241568-1.881104 17.13895-11.91366 15.257845-22.155228-1.881104-10.241568-11.91366-17.13895-22.155228-15.048834-10.241568 1.881104-17.13895 11.91366-15.048834 22.155228 1.672093 9.19651 9.614533 15.466857 18.602031 15.466857 1.045058-0.209012 2.090116-0.209012 3.344186-0.418023zM722.831029 231.846099c3.344185 2.508139 7.315405 3.762209 11.286626 3.762208 5.852324 0 11.495637-2.508139 15.257845-7.524417 6.270348-8.360463 4.598255-20.274124-3.762208-26.544471s-20.274124-4.598255-26.544471 3.762209-4.598255 20.274124 3.762208 26.544471zM836.324319 689.790478c-8.987498-5.434301-20.483135-2.717151-26.126448 6.061336-5.434301 8.987498-2.717151 20.692147 6.061336 26.126448 3.135174 1.881104 6.479359 2.926162 10.032556 2.926162 6.270348 0 12.540695-3.135174 16.093892-8.987498 5.643313-8.987498 2.717151-20.692147-6.061336-26.126448zM863.495825 627.087003c-9.823544-3.762209-20.692147 1.045058-24.454355 10.868602-3.762209 9.823544 1.045058 20.692147 10.868602 24.454356 2.299127 0.836046 4.598255 1.25407 6.897382 1.254069 7.524417 0 14.839822-4.598255 17.765985-12.122672 3.553197-9.614533-1.25407-20.692147-11.077614-24.454355zM161.216905 512.548655v-0.418023-0.418023c0-10.450579-8.569475-19.020054-19.020054-19.020054s-19.020054 8.569475-19.020055 19.020054v0.836046c0 10.450579 8.569475 19.020054 19.020055 18.811043 10.659591 0.209012 19.020054-8.360463 19.020054-18.811043zM145.123013 462.385875c1.045058 0.209012 2.299127 0.418023 3.553197 0.418024 8.987498 0 16.929938-6.479359 18.602031-15.466858 1.881104-10.241568-4.807266-20.065112-15.257846-22.155227-10.241568-1.881104-20.065112 4.807266-22.155228 15.257845-1.881104 10.241568 5.016278 20.065112 15.257846 21.946216zM160.380858 395.920192c2.299127 0.836046 4.598255 1.25407 6.897383 1.254069 7.524417 0 14.630811-4.598255 17.556973-12.122671 3.762209-9.823544-1.045058-20.692147-10.868603-24.454356s-20.692147 1.045058-24.454355 10.868603c-3.762209 9.614533 1.045058 20.692147 10.868602 24.454355zM187.552364 333.425728c3.135174 1.881104 6.479359 2.926162 10.032556 2.926163 6.270348 0 12.540695-3.135174 16.093892-8.987498 5.434301-8.987498 2.717151-20.483135-6.061336-26.126448-8.987498-5.434301-20.483135-2.717151-26.126448 6.061336-5.434301 8.778487-2.717151 20.483135 6.061336 26.126447zM480.168581 860.761953c-10.450579-0.836046-19.647089 6.688371-20.483135 17.13895-1.045058 10.450579 6.688371 19.647089 17.13895 20.483135h1.672092c9.823544 0 17.974996-7.315405 18.811043-17.347961 0.836046-10.032556-6.897382-19.229066-17.13895-20.274124zM416.62906 849.057305c-10.032556-2.926162-20.483135 3.135174-23.409298 13.167729-2.717151 10.032556 3.135174 20.483135 13.16773 23.409298 1.672093 0.418023 3.553197 0.627035 5.22529 0.627035 8.151452 0 15.88488-5.434301 18.184007-13.794765 2.717151-10.032556-3.135174-20.483135-13.167729-23.409297zM356.224712 825.857019c-9.405521-4.598255-20.692147-0.836046-25.290402 8.569475-4.598255 9.405521-0.836046 20.692147 8.569475 25.499413 2.717151 1.25407 5.643313 1.881104 8.360464 1.881104 6.897382 0 13.585753-3.97122 16.929938-10.450579 4.598255-9.405521 0.836046-20.901158-8.569475-25.499413zM608.292682 848.848293c-10.032556 2.926162-15.88488 13.376741-12.958719 23.409297 2.299127 8.360463 10.032556 13.794765 18.184008 13.794765 1.672093 0 3.553197-0.209012 5.22529-0.836046 10.032556-2.926162 15.88488-13.376741 12.958718-23.409298-2.717151-10.032556-13.376741-15.88488-23.409297-12.958718zM347.028202 199.867327c2.717151 0 5.643313-0.627035 8.360464-2.090116 9.405521-4.598255 13.16773-16.093892 8.360463-25.499413-4.598255-9.405521-16.093892-13.16773-25.290402-8.360464-9.405521 4.598255-13.16773 16.093892-8.569475 25.499413 3.553197 6.688371 10.241568 10.450579 17.13895 10.45058zM301.045654 791.997142c-8.360463-6.270348-20.274124-4.598255-26.544471 3.762209s-4.598255 20.274124 3.762208 26.544471c3.344185 2.508139 7.315405 3.762209 11.286626 3.762209 5.852324 0 11.495637-2.508139 15.257845-7.524417 6.270348-8.360463 4.807266-20.274124-3.762208-26.544472zM784.698458 281.590856c4.598255 0 9.19651-1.672093 12.749707-5.016278 7.733429-7.106394 8.151452-19.020054 1.254069-26.753483-7.106394-7.733429-19.020054-8.360463-26.753483-1.254069-7.733429 7.106394-8.360463 19.020054-1.254069 26.753482 3.762209 4.180232 8.778487 6.270348 14.003776 6.270348zM543.917114 162.663265h1.672093c9.614533 0 17.974996-7.315405 18.811042-17.13895 0.836046-10.450579-6.688371-19.647089-17.13895-20.483135-10.450579-1.045058-19.647089 6.688371-20.483135 17.13895-0.836046 10.241568 6.688371 19.438077 17.13895 20.483135zM723.458064 791.161096c-8.360463 6.270348-10.032556 18.184008-3.553197 26.544471 3.762209 5.016278 9.405521 7.524417 15.048834 7.524417 3.97122 0 7.94244-1.25407 11.495637-3.97122 8.360463-6.270348 10.032556-18.184008 3.762209-26.544471-6.479359-8.151452-18.393019-9.823544-26.753483-3.553197zM771.321717 747.477675c-7.106394 7.733429-6.479359 19.647089 1.254069 26.753483 3.762209 3.344185 8.151452 5.016278 12.749707 5.016278 5.22529 0 10.241568-2.090116 14.003776-6.270348 7.106394-7.733429 6.479359-19.647089-1.25407-26.753482s-19.8561-6.479359-26.753482 1.254069zM544.75316 860.761953c-10.450579 1.045058-17.974996 10.241568-17.13895 20.692147 0.836046 9.823544 9.19651 17.13895 18.811043 17.13895h1.672093c10.450579-1.045058 18.184008-10.241568 17.138949-20.692147-0.836046-10.450579-10.032556-18.184008-20.483135-17.13895zM410.567724 175.20396c1.672093 0 3.553197-0.209012 5.225289-0.836047 10.032556-2.717151 15.88488-13.376741 12.958718-23.409297-2.926162-10.032556-13.376741-15.88488-23.409297-12.958718s-15.88488 13.376741-12.958718 23.409297c2.299127 8.360463 9.823544 13.794765 18.184008 13.794765zM477.45143 162.663265h1.672093c10.450579-1.045058 18.184008-10.241568 17.13895-20.483135-1.045058-10.450579-10.241568-18.184008-20.692147-17.13895s-17.974996 10.241568-17.13895 20.483135c1.25407 9.823544 9.405521 17.13895 19.020054 17.13895zM825.87374 335.933867c3.553197 0 6.897382-0.836046 10.032556-2.926162 8.987498-5.434301 11.495637-17.13895 6.061336-26.126448s-17.13895-11.495637-26.126448-6.061336c-8.778487 5.434301-11.495637 17.13895-6.061336 26.126448 3.553197 5.852324 9.823544 8.987498 16.093892 8.987498zM289.131994 235.817319c3.97122 0 7.94244-1.25407 11.495637-3.762209 8.360463-6.270348 10.032556-18.184008 3.762208-26.544471s-18.184008-10.032556-26.544471-3.762208-10.032556 18.184008-3.762208 26.544471c3.553197 5.016278 9.19651 7.524417 15.048834 7.524417z" fill="#1296db" p-id="12982"></path></svg>