<?xml version="1.0" standalone="no"?><!DOCTYPE svg PUBLIC "-//W3C//DTD SVG 1.1//EN" "http://www.w3.org/Graphics/SVG/1.1/DTD/svg11.dtd"><svg t="1569487064905" class="icon" viewBox="0 0 1024 1024" version="1.1" xmlns="http://www.w3.org/2000/svg" p-id="12248" xmlns:xlink="http://www.w3.org/1999/xlink" width="200" height="200"><defs><style type="text/css"></style></defs><path d="M511.924613 1004.943967c-105.541104 0-190.979141-85.438037-190.979141-190.979141v-190.979141c0-105.541104 85.438037-190.979141 190.979141-190.979141 105.541104 0 190.979141 85.438037 190.979142 190.979141v190.979141c0 105.541104-85.438037 190.979141-190.979142 190.979141z" fill="#1296db" p-id="12249"></path><path d="M650.133202 220.086708c5.863395 0 11.726789-2.72229 15.496115-7.957465 6.072802-8.585685 3.978732-20.312474-4.397546-26.385276-43.556646-30.992229-95.280164-47.325971-149.097751-47.325971s-105.541104 16.333742-149.09775 47.325971c-8.585685 6.072802-10.470348 18.008998-4.397546 26.385276 6.072802 8.585685 18.008998 10.470348 26.385276 4.397546 36.855624-26.385276 80.831084-40.206135 126.900613-40.206135s90.04499 14.030266 127.110021 40.415542c3.350511 2.303476 7.329243 3.350511 11.098568 3.350512zM511.924613 275.788957c-23.662986 0-46.06953 7.119836-65.125562 20.731288-8.585685 6.072802-10.470348 18.008998-4.397546 26.385276 6.072802 8.585685 18.008998 10.470348 26.385276 4.397546 12.564417-9.004499 27.432311-13.611452 43.137832-13.611451s30.573415 4.81636 43.137833 13.611451c3.350511 2.303476 7.119836 3.559918 10.889161 3.559919 5.863395 0 11.726789-2.72229 15.496115-7.957465 6.072802-8.585685 3.978732-20.312474-4.397546-26.385276-19.056033-13.611452-41.462577-20.731288-65.125563-20.731288zM747.926249 112.870348c5.863395 0 11.726789-2.72229 15.496115-7.957465 6.072802-8.585685 3.978732-20.312474-4.397546-26.385276-72.454806-51.51411-157.683436-78.527607-247.100205-78.527607s-174.645399 27.013497-246.890797 78.3182c-8.585685 6.072802-10.470348 18.008998-4.397546 26.385276 6.072802 8.585685 18.008998 10.470348 26.385276 4.397546 65.753783-46.488344 143.443763-71.198364 224.903067-71.198364s159.149284 24.71002 224.903068 71.407771c3.350511 2.303476 7.329243 3.559918 11.098568 3.559919zM511.924613 666.332924c10.470348 0 19.056033-8.585685 19.056033-19.056032v-97.58364c0-10.470348-8.585685-19.056033-19.056033-19.056033s-19.056033 8.585685-19.056032 19.056033v97.58364c0 10.470348 8.585685 19.056033 19.056032 19.056032z" fill="#1296db" p-id="12250"></path><path d="M301.88944 813.964826c0 115.802045 94.233129 210.035174 210.035173 210.035174s210.035174-94.233129 210.035174-210.035174v-190.979141c0-115.802045-94.233129-210.035174-210.035174-210.035174s-210.035174 94.233129-210.035173 210.035174v190.979141z m37.902658-190.979141c0-94.86135 77.271166-172.132515 172.132515-172.132515s172.132515 77.271166 172.132516 172.132515v190.979141c0 94.86135-77.271166 172.132515-172.132516 172.132516s-172.132515-77.271166-172.132515-172.132516v-190.979141z" fill="#1296db" p-id="12251"></path></svg>