<?xml version="1.0" standalone="no"?><!DOCTYPE svg PUBLIC "-//W3C//DTD SVG 1.1//EN" "http://www.w3.org/Graphics/SVG/1.1/DTD/svg11.dtd"><svg t="1569487062450" class="icon" viewBox="0 0 1024 1024" version="1.1" xmlns="http://www.w3.org/2000/svg" p-id="12065" xmlns:xlink="http://www.w3.org/1999/xlink" width="200" height="200"><defs><style type="text/css"></style></defs><path d="M547.652849 1005.180314h-71.09659c-73.814989 0-134.037982-60.432101-134.037983-134.037982V632.968756c0-73.814989 60.432101-134.037982 134.037983-134.037982h71.09659c73.814989 0 134.037982 60.432101 134.037982 134.037982v238.173576c0 73.605881-60.222994 134.037982-134.037982 134.037982z" fill="#1296db" p-id="12066"></path><path d="M469.4466 479.901981c-80.506433 0-145.957117 65.450684-145.957117 145.957116v252.183786c0 80.506433 65.450684 145.957117 145.957117 145.957117h85.1068c80.506433 0 145.957117-65.450684 145.957117-145.957117V625.859097c0-80.506433-65.450684-145.957117-145.957117-145.957116H533.224423v-92.843782c0-34.293649-27.811313-62.104962-62.104962-62.104962h-133.201552c-17.983255 0-32.620788-14.637533-32.620788-32.620789s14.637533-32.620788 32.620788-32.620788h350.464366c37.639371 0 68.378191-30.73882 68.378191-68.378191s-30.73882-68.378191-68.378191-68.37819h-128.810292c-14.637533 0-26.34756-11.919134-26.34756-26.34756V19.028793c0-10.455381-8.573412-19.028793-19.028793-19.028793s-19.028793 8.573412-19.028793 19.028793V96.189504c0 35.339187 28.856851 64.196038 64.196038 64.196038h128.810292c16.728609 0 30.529712 13.591995 30.529712 30.529712s-13.591995 30.529712-30.529712 30.529712H337.917909c-38.894017 0-70.678375 31.784358-70.678375 70.678375s31.57525 70.678375 70.678375 70.678374h133.201552c13.382887 0 24.256484 10.873596 24.256483 24.256484v92.843782h-25.929344z m193.424546 145.957116v252.183786c0 59.595671-48.512967 108.108638-108.108638 108.108638h-85.1068c-59.595671 0-108.108638-48.512967-108.108638-108.108638V625.859097c0-59.595671 48.512967-108.108638 108.108638-108.108638h85.1068c59.595671 0 108.108638 48.512967 108.108638 108.108638z" fill="#1296db" p-id="12067"></path><path d="M493.075761 609.966919v68.796405c0 10.455381 8.573412 19.028793 19.028793 19.028794s19.028793-8.573412 19.028793-19.028794v-68.796405c0-10.455381-8.573412-19.028793-19.028793-19.028794-10.455381 0.209108-19.028793 8.573412-19.028793 19.028794z" fill="#1296db" p-id="12068"></path></svg>