<?xml version="1.0" standalone="no"?><!DOCTYPE svg PUBLIC "-//W3C//DTD SVG 1.1//EN" "http://www.w3.org/Graphics/SVG/1.1/DTD/svg11.dtd"><svg t="1569487067759" class="icon" viewBox="0 0 1024 1024" version="1.1" xmlns="http://www.w3.org/2000/svg" p-id="12431" xmlns:xlink="http://www.w3.org/1999/xlink" width="200" height="200"><defs><style type="text/css"></style></defs><path d="M511.922583 229.740907c101.270127 0 183.918267 82.857376 183.918267 183.918267v196.681652c0 101.270127-82.857376 183.918267-183.918267 183.918267-101.270127 0-183.918267-82.857376-183.918268-183.918267v-196.681652c0-101.060891 82.648141-183.918267 183.918268-183.918267z" fill="#1296db" p-id="12432"></path><path d="M511.922583 985.919085c-84.322027 0-168.434818-21.551287-250.03678-64.235391-68.629342-35.988557-124.076829-91.226808-159.85615-160.274622-112.150388-215.094401-74.906416-451.949326 94.574581-603.226808 7.741725-6.904781 8.578668-19.040458 1.46465-26.782182-6.904781-7.741725-19.040458-8.578668-26.782182-1.464651-83.69432 74.69718-141.234164 176.176543-162.157744 285.816101-22.806702 119.682877-2.301594 245.224356 59.213731 363.233347 39.545566 75.743359 100.433183 136.840213 175.967307 176.385779 87.251328 45.613404 177.222722 68.629342 267.612587 68.629342 282.259093 0 512-229.740907 512-512S794.181676 0 511.922583 0c-10.46179 0-19.040458 8.578668-19.040458 19.040458v192.706171c-102.944013 9.624847-183.918267 96.457703-183.918267 201.912545v196.681652c0 111.941152 91.017573 202.958725 202.958725 202.958724s202.958725-91.017573 202.958725-202.958724v-196.681652c0-105.454843-80.974254-192.287699-183.918268-201.912545V38.499387c252.547609 9.834083 454.878627 218.442174 454.878627 473.500613 0 261.335513-212.583572 473.919085-473.919084 473.919085z m164.875717-572.259911v196.681652c0 91.017573-74.069473 164.87781-164.87781 164.877809s-164.87781-74.069473-164.877809-164.877809v-196.681652c0-91.017573 74.069473-164.87781 164.877809-164.877809s164.87781 74.069473 164.87781 164.877809z" fill="#1296db" p-id="12433"></path><path d="M492.882125 364.907233V435.210462c0 10.46179 8.578668 19.040458 19.040458 19.040457s19.040458-8.578668 19.040457-19.040457v-70.303229c0-10.46179-8.578668-19.040458-19.040457-19.040457s-19.040458 8.578668-19.040458 19.040457z" fill="#1296db" p-id="12434"></path></svg>