<?xml version="1.0" standalone="no"?><!DOCTYPE svg PUBLIC "-//W3C//DTD SVG 1.1//EN" "http://www.w3.org/Graphics/SVG/1.1/DTD/svg11.dtd"><svg t="1569487092316" class="icon" viewBox="0 0 1024 1024" version="1.1" xmlns="http://www.w3.org/2000/svg" p-id="14083" xmlns:xlink="http://www.w3.org/1999/xlink" width="200" height="200"><defs><style type="text/css"></style></defs><path d="M294.604005 506.978341m-57.958316 0a57.958316 57.958316 0 1 0 115.916632 0 57.958316 57.958316 0 1 0-115.916632 0Z" fill="#1296db" p-id="14084"></path><path d="M512 506.978341m-57.958316 0a57.958316 57.958316 0 1 0 115.916632 0 57.958316 57.958316 0 1 0-115.916632 0Z" fill="#1296db" p-id="14085"></path><path d="M729.395995 506.978341m-57.958316 0a57.958316 57.958316 0 1 0 115.916632 0 57.958316 57.958316 0 1 0-115.916632 0Z" fill="#1296db" p-id="14086"></path><path d="M76.998774 877.325705c42.474867 0 76.998774-34.523907 76.998774-76.998774 0-35.36085-24.062117-65.281569-56.702901-74.069473v-58.376788H276.191255v57.749081c-33.686964 8.160196-58.79526 38.499387-58.79526 74.69718 0 42.474867 34.523907 76.998774 76.998774 76.998774s76.998774-34.523907 76.998774-76.998774c0-35.570086-24.480588-65.700041-57.330609-74.278709v-144.581937c32.85002-8.787904 57.330609-38.708623 57.330609-74.278708s-24.480588-65.700041-57.330609-74.278709v-50.216592h178.896608v49.79812c-33.268492 8.578668-57.958316 38.708623-57.958316 74.487945 0 42.474867 34.523907 76.998774 76.998774 76.998774s76.998774-34.523907 76.998774-76.998774c0-35.988557-24.689824-66.118512-57.958316-74.487945v-50.216591h178.896608v50.216591c-32.85002 8.787904-57.330609 38.708623-57.330609 74.278709s24.480588 65.700041 57.330609 74.278709v48.542705h-197.937066c-10.46179 0-19.040458 8.578668-19.040458 19.040458v76.998774c-33.268492 8.578668-57.958316 38.708623-57.958316 74.487944 0 42.474867 34.523907 76.998774 76.998774 76.998774s76.998774-34.523907 76.998774-76.998774c0-35.988557-24.689824-66.118512-57.958316-74.487944v-57.958317h178.896608v58.167553c-32.85002 8.787904-57.330609 38.708623-57.330609 74.278708 0 42.474867 34.523907 76.998774 76.998774 76.998774s76.998774-34.523907 76.998774-76.998774c0-36.197793-25.108296-66.536984-58.79526-74.69718v-57.749081h178.896608V726.048222c-32.640785 8.997139-56.702902 38.708623-56.702901 74.069473 0 42.474867 34.523907 76.998774 76.998774 76.998774s76.998774-34.523907 76.998774-76.998774c0-36.407029-25.317532-66.955456-59.422967-74.906416V648.630977c0-10.46179-8.578668-19.040458-19.040458-19.040458h-197.72783v-48.33347c33.686964-8.160196 58.79526-38.499387 58.79526-74.69718 0-36.197793-25.108296-66.536984-58.79526-74.69718v-68.420106c0-10.46179-8.578668-19.040458-19.040457-19.040458h-197.72783v-46.241112c33.268492-8.578668 57.958316-38.708623 57.958316-74.487944 0-42.474867-34.523907-76.998774-76.998774-76.998774s-76.998774 34.523907-76.998774 76.998774c0 35.988557 24.689824 66.118512 57.958316 74.487944v46.241112h-197.72783c-10.46179 0-19.040458 8.578668-19.040457 19.040458v68.838578c-33.686964 8.160196-58.79526 38.499387-58.79526 74.69718 0 36.197793 25.108296 66.536984 58.79526 74.69718v48.33347H78.463425c-10.46179 0-19.040458 8.578668-19.040458 19.040457v76.371067C25.526767 733.371475 0 763.919902 0 800.326931c0 42.474867 34.523907 76.998774 76.998774 76.998774z m474.12832-370.347364c0 21.551287-17.575807 39.127094-39.127094 39.127094s-39.127094-17.575807-39.127094-39.127094c0-21.551287 17.575807-39.127094 39.127094-39.127095s39.127094 17.575807 39.127094 39.127095z m0 293.34859c0 21.551287-17.575807 39.127094-39.127094 39.127094s-39.127094-17.575807-39.127094-39.127094c0-21.551287 17.575807-39.127094 39.127094-39.127094s39.127094 17.575807 39.127094 39.127094z m434.791991 0c0 21.551287-17.575807 39.127094-39.127095 39.127094-21.551287 0-39.127094-17.575807-39.127094-39.127094 0-21.551287 17.575807-39.127094 39.127094-39.127094 21.760523 0 39.127094 17.575807 39.127095 39.127094z m-217.395996 0c0 21.551287-17.575807 39.127094-39.127094 39.127094-21.551287 0-39.127094-17.575807-39.127094-39.127094 0-21.551287 17.575807-39.127094 39.127094-39.127094s39.127094 17.575807 39.127094 39.127094z m0-293.34859c0 21.551287-17.575807 39.127094-39.127094 39.127094-21.551287 0-39.127094-17.575807-39.127094-39.127094 0-21.551287 17.575807-39.127094 39.127094-39.127095s39.127094 17.575807 39.127094 39.127095zM472.872906 223.673069c0-21.551287 17.575807-39.127094 39.127094-39.127094s39.127094 17.575807 39.127094 39.127094-17.575807 39.127094-39.127094 39.127094c-21.551287 0-39.127094-17.575807-39.127094-39.127094z m-139.351042 576.653862c0 21.551287-17.575807 39.127094-39.127095 39.127094s-39.127094-17.575807-39.127094-39.127094c0-21.551287 17.575807-39.127094 39.127094-39.127094s39.127094 17.575807 39.127095 39.127094z m-78.044953-293.34859c0-21.551287 17.575807-39.127094 39.127094-39.127095s39.127094 17.575807 39.127094 39.127095c0 21.551287-17.575807 39.127094-39.127094 39.127094-21.551287-0.209236-39.127094-17.575807-39.127094-39.127094zM76.998774 761.199837c21.551287 0 39.127094 17.575807 39.127094 39.127094 0 21.551287-17.575807 39.127094-39.127094 39.127094s-39.127094-17.575807-39.127094-39.127094c0.209236-21.551287 17.575807-39.127094 39.127094-39.127094z" fill="#1296db" p-id="14087"></path></svg>