<?xml version="1.0" standalone="no"?><!DOCTYPE svg PUBLIC "-//W3C//DTD SVG 1.1//EN" "http://www.w3.org/Graphics/SVG/1.1/DTD/svg11.dtd"><svg t="1569487089659" class="icon" viewBox="0 0 1024 1024" version="1.1" xmlns="http://www.w3.org/2000/svg" p-id="13901" xmlns:xlink="http://www.w3.org/1999/xlink" width="200" height="200"><defs><style type="text/css"></style></defs><path d="M443.454694 186.723265h136.881633c3.343673 0 6.060408 2.716735 6.060408 6.060408v86.517551c0 3.343673-2.716735 6.060408-6.060408 6.060409h-136.881633c-3.343673 0-6.060408-2.716735-6.060408-6.060409v-86.517551c0.20898-3.343673 2.925714-6.060408 6.060408-6.060408z" fill="#1296db" p-id="13902"></path><path d="M992.862041 719.621224h-43.467755v-70.635102c0-10.44898-8.568163-19.017143-19.017143-19.017142h-190.380408v-49.528164H783.673469c17.136327 0 31.137959-14.001633 31.13796-31.137959v-74.396735c0-17.136327-14.001633-31.137959-31.13796-31.137959h-43.467755v-70.635102c0-10.44898-8.568163-19.017143-19.017143-19.017143H530.808163v-50.155102h43.467755c17.136327 0 31.137959-14.001633 31.13796-30.928979v-74.396735c0-17.136327-14.001633-31.137959-31.13796-31.137959h-124.760816c-17.136327 0-31.137959 14.001633-31.137959 31.137959v74.396735c0 17.136327 14.001633 30.92898 31.137959 30.928979h43.467755v50.155102h-190.380408c-10.44898 0-19.017143 8.568163-19.017143 19.017143v70.635102H240.326531c-17.136327 0-31.137959 14.001633-31.13796 31.137959v74.605715c0 17.136327 14.001633 31.137959 31.13796 31.137959h43.467755v49.528163h-190.171429c-10.44898 0-19.017143 8.568163-19.017143 19.017143v70.635102H31.137959c-17.136327 0-31.137959 14.001633-31.137959 31.137959v74.396735c0 17.136327 14.001633 31.137959 31.137959 31.137959h124.760817c17.136327 0 31.137959-14.001633 31.137959-31.137959v-74.396735c0-17.136327-14.001633-31.137959-31.137959-31.137959H112.43102v-51.826939h171.363266v51.826939H240.326531c-17.136327 0-31.137959 14.001633-31.13796 31.137959v74.396735c0 17.136327 14.001633 31.137959 31.13796 31.137959h124.760816c17.136327 0 31.137959-14.001633 31.137959-31.137959v-74.396735c0-17.136327-14.001633-31.137959-31.137959-31.137959h-43.467755v-139.180408h43.467755c17.136327 0 31.137959-14.001633 31.137959-31.137959v-74.396735c0-17.136327-14.001633-31.137959-31.137959-31.137959h-43.467755v-51.826939h171.363265v51.826939h-43.467755c-17.136327 0-31.137959 14.001633-31.137959 31.137959v74.396735c0 17.136327 14.001633 31.137959 31.137959 31.137959h124.760816c17.136327 0 31.137959-14.001633 31.13796-31.137959v-74.396735c0-17.136327-14.001633-31.137959-31.13796-31.137959H530.808163v-51.826939h171.363266v51.826939h-43.467756c-17.136327 0-31.137959 14.001633-31.137959 31.137959v74.396735c0 17.136327 14.001633 31.137959 31.137959 31.137959H702.171429v49.528163h-190.171429c-10.44898 0-19.017143 8.568163-19.017143 19.017143v70.635102h-43.467755c-17.136327 0-31.137959 14.001633-31.137959 31.137959v74.396735c0 17.136327 14.001633 31.137959 31.137959 31.137959h124.760816c17.136327 0 31.137959-14.001633 31.13796-31.137959v-74.396735c0-17.136327-14.001633-31.137959-31.13796-31.137959H530.808163v-51.826939h171.363266v51.826939h-43.467756c-17.136327 0-31.137959 14.001633-31.137959 31.137959v74.396735c0 17.136327 14.001633 31.137959 31.137959 31.137959H783.673469c17.136327 0 31.137959-14.001633 31.13796-31.137959v-74.396735c0-17.136327-14.001633-31.137959-31.13796-31.137959h-43.467755v-51.826939h171.363266v51.826939h-43.467756c-17.136327 0-31.137959 14.001633-31.137959 31.137959v74.396735c0 17.136327 14.001633 31.137959 31.137959 31.137959h124.760817c17.136327 0 31.137959-14.001633 31.137959-31.137959v-74.396735c-0.20898-17.345306-14.001633-31.346939-31.137959-31.346939z m-536.450612-514.089795h110.968163v60.604081h-110.968163v-60.604081zM149.002449 818.259592H38.034286v-60.604082h110.968163v60.604082z m209.188571 0h-110.968163v-60.604082h110.968163v60.604082z m0-275.644082h-110.968163v-60.604081h110.968163v60.604081z m209.397551 0h-110.968163v-60.604081h110.968163v60.604081z m98.220409-60.604081h110.968163v60.604081h-110.968163v-60.604081z m-98.220409 336.248163h-110.968163v-60.604082h110.968163v60.604082z m209.188572 0h-110.968163v-60.604082h110.968163v60.604082z m209.188571 0h-110.968163v-60.604082h110.968163v60.604082z" fill="#1296db" p-id="13903"></path></svg>