<?xml version="1.0" standalone="no"?><!DOCTYPE svg PUBLIC "-//W3C//DTD SVG 1.1//EN" "http://www.w3.org/Graphics/SVG/1.1/DTD/svg11.dtd"><svg t="1569487073369" class="icon" viewBox="0 0 1024 1024" version="1.1" xmlns="http://www.w3.org/2000/svg" p-id="12796" xmlns:xlink="http://www.w3.org/1999/xlink" width="200" height="200"><defs><style type="text/css"></style></defs><path d="M608.20915 502.797386c-128.418301 53.124183-275.45098-7.947712-328.575163-136.156863s7.738562-275.45098 136.156863-328.575164S691.24183 46.013072 744.366013 174.222222s-7.738562 275.45098-136.156863 328.575164z" fill="#1296db" p-id="12797"></path><path d="M512 910.640523m-94.117647 0a94.117647 94.117647 0 1 0 188.235294 0 94.117647 94.117647 0 1 0-188.235294 0Z" fill="#1296db" p-id="12798"></path><path d="M882.614379 798.954248v-121.307189c0-10.457516-8.575163-19.03268-19.03268-19.03268h-332.549019v-113.150327c0-1.882353-0.418301-3.555556-0.836602-5.228758 29.281046-1.882353 57.934641-8.575163 85.333334-19.869281 137.830065-57.098039 203.503268-215.633987 146.405229-353.254902C719.895425 65.673203 621.803922 0 512 0c-35.555556 0-70.27451 6.901961-103.320261 20.705882-66.718954 27.607843-118.797386 79.686275-146.405229 146.405229s-27.607843 140.339869 0 207.058824c39.738562 95.79085 129.464052 159.581699 231.738562 166.48366-0.418301 1.673203-0.836601 3.346405-0.836601 5.228758v113.150327h-332.54902c-10.457516 0-19.03268 8.575163-19.03268 19.032679v121.30719c-53.960784 8.575163-95.163399 55.424837-95.163398 111.686275 0 62.326797 50.614379 112.941176 112.941176 112.941176s112.941176-50.614379 112.941176-112.941176c0-55.424837-40.156863-101.647059-92.862745-111.267974v-102.692811h313.725491v102.48366c-53.333333 8.993464-94.117647 55.633987-94.117647 111.477125 0 62.326797 50.614379 112.941176 112.941176 112.941176s112.941176-50.614379 112.941176-112.941176c0-55.843137-40.784314-102.27451-94.117647-111.477125v-102.48366h313.725491v102.692811c-52.705882 9.411765-92.862745 55.843137-92.862745 111.267974 0 62.326797 50.614379 112.941176 112.941176 112.941176s112.941176-50.614379 112.941176-112.941176c0.20915-56.679739-41.202614-103.529412-94.954248-112.104576zM292.601307 347.607843c-17.777778-50.196078-17.777778-104.156863 0-154.352941h66.091503c-4.810458 25.098039-7.320261 51.03268-7.320261 76.75817 0 23.843137 3.346405 50.614379 9.411765 77.594771h-68.183007z m96.627451-77.594771c0-26.352941 2.928105-52.287582 8.156863-76.75817h95.581699v154.352941h-93.699346c-6.27451-26.143791-10.039216-52.705882-10.039216-77.594771z m342.169935-76.75817c18.196078 51.660131 16.941176 105.830065-0.209151 154.352941h-65.254901c6.065359-26.980392 9.411765-53.751634 9.411764-77.594771 0-25.72549-2.509804-51.660131-7.320261-76.75817h63.372549z m-93.908497 76.75817c0 24.888889-3.764706 51.660131-10.039216 77.594771h-96.4183V193.254902h98.300653c5.228758 24.470588 8.156863 50.405229 8.156863 76.75817z m-106.457516 227.973856v-112.522876h84.705882c-19.869281 54.379085-51.03268 100.183007-84.705882 112.522876z m0-342.588235V41.620915c35.555556 11.294118 68.392157 55.633987 87.843137 113.777778h-87.843137z m-38.06536-112.732026v112.732026H407.843137c19.03268-56.679739 50.614379-100.183007 85.124183-112.732026z m0 342.797385v111.267974c-32.836601-13.594771-62.954248-58.352941-82.196078-111.267974h82.196078z m114.196079 97.045752c20.496732-26.980392 36.810458-61.281046 48.522876-97.045752h58.352941c-23.843137 41.620915-60.235294 76.130719-106.875817 97.045752z m106.875817-327.111111h-55.424837c-7.111111-24.052288-16.313725-46.849673-27.607843-66.928105-5.437908-9.830065-11.294118-18.823529-17.359477-27.189542 41.830065 20.078431 76.96732 52.705882 100.392157 94.117647zM414.117647 59.607843c-6.48366 8.784314-12.75817 18.405229-18.405229 28.862745-11.294118 20.287582-20.496732 42.875817-27.607843 66.928105h-57.93464c23.633987-42.039216 59.607843-75.294118 103.947712-95.79085z m-104.156863 325.856209h61.071896c11.921569 36.601307 28.862745 71.738562 49.986928 99.137255-46.222222-19.660131-85.542484-54.169935-111.058824-99.137255z m-75.503268 525.176471c0 41.411765-33.673203 75.084967-75.084967 75.084967s-75.084967-33.673203-75.084967-75.084967 33.673203-75.084967 75.084967-75.084967 75.084967 33.673203 75.084967 75.084967z m352.627451 0c0 41.411765-33.673203 75.084967-75.084967 75.084967s-75.084967-33.673203-75.084967-75.084967 33.673203-75.084967 75.084967-75.084967 75.084967 33.673203 75.084967 75.084967z m277.542484 75.084967c-41.411765 0-75.084967-33.673203-75.084967-75.084967s33.673203-75.084967 75.084967-75.084967 75.084967 33.673203 75.084967 75.084967c0.20915 41.411765-33.673203 75.084967-75.084967 75.084967z" fill="#1296db" p-id="12799"></path></svg>