<?xml version="1.0" standalone="no"?><!DOCTYPE svg PUBLIC "-//W3C//DTD SVG 1.1//EN" "http://www.w3.org/Graphics/SVG/1.1/DTD/svg11.dtd"><svg t="1569487084223" class="icon" viewBox="0 0 1024 1024" version="1.1" xmlns="http://www.w3.org/2000/svg" p-id="13529" xmlns:xlink="http://www.w3.org/1999/xlink" width="200" height="200"><defs><style type="text/css"></style></defs><path d="M718.052412 334.157685c0 19.644042-15.882417 35.317479-35.317479 35.317479H341.262977c-19.644042 0-35.317479-15.882417-35.317479-35.317479V89.025124c0-19.644042 15.882417-35.317479 35.317479-35.317479h341.471956c19.644042 0 35.317479 15.882417 35.317479 35.317479v245.132561z" fill="#1296db" p-id="13530"></path><path d="M682.734933 388.492268c29.884021 0 54.334583-24.450562 54.334583-54.334583V89.025124c0-29.884021-24.450562-54.334583-54.334583-54.334583H341.262977c-29.884021 0-54.334583 24.450562-54.334583 54.334583v245.132561c0 29.884021 24.450562 54.334583 54.334583 54.334583h151.718874v50.572958h-49.737041c-10.448958 0-19.017104 8.568146-19.017104 19.017104s8.568146 19.017104 19.017104 19.017104h137.299311c10.448958 0 19.017104-8.568146 19.017104-19.017104s-8.568146-19.017104-19.017104-19.017104H530.80708v-50.572958h151.927853z m-357.98131-54.334583V89.025124c0-8.986104 7.314271-16.509354 16.509354-16.509354h341.471956c8.986104 0 16.509354 7.314271 16.509354 16.509354v245.132561c0 8.986104-7.314271 16.509354-16.509354 16.509354H341.262977c-8.986104 0-16.509354-7.314271-16.509354-16.509354z" fill="#1296db" p-id="13531"></path><path d="M431.124018 846.574599c0 19.644042-15.882417 35.317479-35.317479 35.317479H54.334583c-19.644042 0-35.317479-15.882417-35.317479-35.317479V601.442038c0-19.644042 15.882417-35.317479 35.317479-35.317479h341.471956c19.644042 0 35.317479 15.882417 35.317479 35.317479v245.132561zM1005.189785 846.574599c0 19.644042-15.882417 35.317479-35.317479 35.317479H628.40035c-19.644042 0-35.317479-15.882417-35.317479-35.317479V601.442038c0-19.644042 15.882417-35.317479 35.317479-35.317479H969.663327c19.644042 0 35.317479 15.882417 35.317479 35.317479v245.132561h0.208979z" fill="#1296db" p-id="13532"></path><path d="M395.59756 546.898476H54.334583c-29.884021 0-54.334583 24.450562-54.334583 54.334583V846.36562c0 29.884021 24.450562 54.334583 54.334583 54.334583h151.718874v50.572958H156.316416c-10.448958 0-19.017104 8.568146-19.017104 19.017104s8.568146 19.017104 19.017104 19.017104h137.299311c10.448958 0 19.017104-8.568146 19.017104-19.017104s-8.568146-19.017104-19.017104-19.017104h-49.737041V900.700203h151.718874c29.884021 0 54.334583-24.450562 54.334583-54.334583V601.442038c0-30.093-24.241583-54.543562-54.334583-54.543562z m16.509354 299.676123c0 8.986104-7.314271 16.509354-16.509354 16.509354H54.334583c-8.986104 0-16.509354-7.314271-16.509354-16.509354V601.442038c0-8.986104 7.314271-16.509354 16.509354-16.509354h341.471956c8.986104 0 16.509354 7.314271 16.509354 16.509354v245.132561h-0.208979zM969.663327 546.898476H628.40035c-29.884021 0-54.334583 24.450562-54.334583 54.334583V846.36562c0 29.884021 24.450562 54.334583 54.334583 54.334583h151.718874v50.572958h-49.737041c-10.448958 0-19.017104 8.568146-19.017104 19.017104s8.568146 19.017104 19.017104 19.017104h137.299312c10.448958 0 19.017104-8.568146 19.017104-19.017104s-8.568146-19.017104-19.017104-19.017104h-49.737042V900.700203H969.663327c29.884021 0 54.334583-24.450562 54.334583-54.334583V601.442038c0.208979-30.093-24.241583-54.543562-54.334583-54.543562z m16.509354 299.676123c0 8.986104-7.314271 16.509354-16.509354 16.509354H628.40035c-8.986104 0-16.509354-7.314271-16.509354-16.509354V601.442038c0-8.986104 7.314271-16.509354 16.509354-16.509354H969.663327c8.986104 0 16.509354 7.314271 16.509354 16.509354v245.132561zM76.904333 476.890455c10.448958 0 19.017104-8.568146 19.017104-19.017104V197.69429h113.684666c10.448958 0 19.017104-8.568146 19.017104-19.017104s-8.568146-19.017104-19.017104-19.017104H76.904333c-10.448958 0-19.017104 8.568146-19.017104 19.017104v279.405144c0 10.448958 8.568146 18.808125 19.017104 18.808125zM947.093577 476.890455c10.448958 0 19.017104-8.568146 19.017104-19.017104V178.677186c0-10.448958-8.568146-19.017104-19.017104-19.017104h-132.70177c-10.448958 0-19.017104 8.568146-19.017104 19.017104s8.568146 19.017104 19.017104 19.017104h113.684666v260.38804c0.208979 10.448958 8.568146 18.808125 19.017104 18.808125z" fill="#1296db" p-id="13533"></path></svg>