<?xml version="1.0" standalone="no"?><!DOCTYPE svg PUBLIC "-//W3C//DTD SVG 1.1//EN" "http://www.w3.org/Graphics/SVG/1.1/DTD/svg11.dtd"><svg t="1569487070862" class="icon" viewBox="0 0 1024 1024" version="1.1" xmlns="http://www.w3.org/2000/svg" p-id="12614" xmlns:xlink="http://www.w3.org/1999/xlink" width="200" height="200"><defs><style type="text/css"></style></defs><path d="M35.757402 747.455177h225.208904c9.200735 0 16.937717 7.527874 16.937717 16.937717v137.592812c0 9.200735-7.527874 16.937717-16.937717 16.937717H35.757402c-9.200735 0-16.937717-7.527874-16.937716-16.937717v-137.592812c0-9.409843 7.736982-16.937717 16.937716-16.937717zM763.242802 747.455177h225.208903c9.200735 0 16.937717 7.527874 16.937717 16.937717v137.592812c0 9.200735-7.527874 16.937717-16.937717 16.937717H763.242802c-9.200735 0-16.937717-7.527874-16.937717-16.937717v-137.592812c0.209108-9.409843 7.736982-16.937717 16.937717-16.937717z" fill="#1296db" p-id="12615"></path><path d="M243.819481 937.743108c29.275066 0 52.904227-23.838268 52.904227-52.904227v-103.299163c0-29.275066-23.838268-52.904227-52.904227-52.904227H167.286094v-141.774964h325.789667v141.774964h-76.533388c-29.275066 0-52.904227 23.838268-52.904227 52.904227v103.299163c0 29.275066 23.838268 52.904227 52.904227 52.904227h190.915254c29.275066 0 52.904227-23.838268 52.904227-52.904227v-103.299163c0-29.275066-23.838268-52.904227-52.904227-52.904227h-76.533388v-141.774964h325.789667v141.774964h-76.533387c-29.275066 0-52.904227 23.838268-52.904227 52.904227v103.299163c0 29.275066 23.838268 52.904227 52.904227 52.904227h190.915254c29.275066 0 52.904227-23.838268 52.904227-52.904227v-103.299163c0-29.275066-23.838268-52.904227-52.904227-52.904227h-76.32428v-160.59465c0-10.455381-8.573412-19.028793-19.028793-19.028793H531.133347v-98.907903h154.739636c38.266694 0 69.423729-31.157035 69.423729-69.423728V155.680621c0-38.266694-31.157035-69.423729-69.423729-69.423729H338.336124c-38.266694 0-69.423729 31.157035-69.423729 69.423729v224.790688c0 38.266694 31.157035 69.423729 69.423729 69.423729h154.739637v98.907903H148.2573c-10.455381 0-19.028793 8.573412-19.028793 19.028793v160.59465H52.904227c-29.275066 0-52.904227 23.838268-52.904227 52.904227v103.299162c0 29.275066 23.838268 52.904227 52.904227 52.904227h190.915254v0.209108z m378.693895-156.20339v103.299163c0 8.364305-6.691444 15.055748-15.055749 15.055748h-190.915254c-8.364305 0-15.055748-6.691444-15.055749-15.055748v-103.299163c0-8.364305 6.691444-15.055748 15.055749-15.055748h190.915254c8.364305-0.209108 15.055748 6.691444 15.055749 15.055748z m363.847253 0v103.299163c0 8.364305-6.691444 15.055748-15.055748 15.055748h-190.915255c-8.364305 0-15.055748-6.691444-15.055748-15.055748v-103.299163c0-8.364305 6.691444-15.055748 15.055748-15.055748h190.915255c8.364305-0.209108 15.055748 6.691444 15.055748 15.055748z m-679.599755-401.068409V155.680621c0-17.355932 14.219318-31.57525 31.57525-31.57525H685.872983c17.355932 0 31.57525 14.219318 31.575251 31.57525v224.790688c0 17.355932-14.219318 31.57525-31.575251 31.57525H338.336124c-17.355932 0-31.57525-14.219318-31.57525-31.57525zM37.848479 884.838881v-103.299163c0-8.364305 6.691444-15.055748 15.055748-15.055748h190.915254c8.364305 0 15.055748 6.691444 15.055749 15.055748v103.299163c0 8.364305-6.691444 15.055748-15.055749 15.055748H52.904227c-8.364305 0-15.055748-6.691444-15.055748-15.055748z" fill="#1296db" p-id="12616"></path></svg>