<?xml version="1.0" standalone="no"?><!DOCTYPE svg PUBLIC "-//W3C//DTD SVG 1.1//EN" "http://www.w3.org/Graphics/SVG/1.1/DTD/svg11.dtd"><svg t="1569487078924" class="icon" viewBox="0 0 1024 1024" version="1.1" xmlns="http://www.w3.org/2000/svg" p-id="13162" xmlns:xlink="http://www.w3.org/1999/xlink" width="200" height="200"><defs><style type="text/css"></style></defs><path d="M35.764706 821.124183h225.045752c9.202614 0 16.941176 7.529412 16.941176 16.941176v137.411765c0 9.202614-7.529412 16.941176-16.941176 16.941177H35.764706c-9.202614 0-16.941176-7.529412-16.941177-16.941177v-137.411765c0-9.411765 7.738562-16.941176 16.941177-16.941176z" fill="#1296db" p-id="13163"></path><path d="M399.267974 821.124183h224.836601c9.202614 0 16.941176 7.529412 16.941177 16.941176v137.411765c0 9.202614-7.529412 16.941176-16.941177 16.941177H399.267974c-9.202614 0-16.941176-7.529412-16.941177-16.941177v-137.411765c0-9.411765 7.738562-16.941176 16.941177-16.941176z" fill="#1296db" p-id="13164"></path><path d="M762.771242 821.124183h224.836601c9.202614 0 16.941176 7.529412 16.941177 16.941176v137.411765c0 9.202614-7.529412 16.941176-16.941177 16.941177H762.771242c-9.202614 0-16.941176-7.529412-16.941177-16.941177v-137.411765c0.20915-9.411765 7.738562-16.941176 16.941177-16.941176z" fill="#1296db" p-id="13165"></path><path d="M52.915033 1011.24183h190.745098c29.281046 0 52.915033-23.843137 52.915032-52.915033v-103.320261c0-29.281046-23.843137-52.915033-52.915032-52.915033H167.320261v-117.960784h264.575164c7.111111 30.117647 30.954248 53.960784 61.071895 61.071895v56.888889h-76.339869c-29.281046 0-52.915033 23.843137-52.915033 52.915033v103.111111c0 29.281046 23.843137 52.915033 52.915033 52.915033h190.745098c29.281046 0 52.915033-23.843137 52.915033-52.915033v-103.111111c0-29.281046-23.843137-52.915033-52.915033-52.915033h-76.339869v-56.888889c30.117647-7.111111 53.960784-30.954248 61.071895-61.071895h264.575164v117.960784h-76.33987c-29.281046 0-52.915033 23.843137-52.915032 52.915033v103.111111c0 29.281046 23.843137 52.915033 52.915032 52.915033h190.745098c29.281046 0 52.915033-23.843137 52.915033-52.915033v-103.111111c0-29.281046-23.843137-52.915033-52.915033-52.915033h-76.339869v-136.784313c0-10.457516-8.575163-19.03268-19.03268-19.03268H591.895425c-8.575163-36.183007-41.202614-63.372549-80.104575-63.372549s-71.529412 27.189542-80.104575 63.372549H148.287582c-10.457516 0-19.03268 8.575163-19.03268 19.03268v136.784313H52.915033c-29.281046 0-52.915033 23.843137-52.915033 52.915033v103.111111c0 29.281046 23.633987 53.124183 52.915033 53.124183z m569.307189-156.235294v103.111111c0 8.366013-6.69281 15.058824-15.058823 15.058824h-190.745098c-8.366013 0-15.058824-6.69281-15.058824-15.058824v-103.111111c0-8.366013 6.69281-15.058824 15.058824-15.058824h190.745098c8.366013 0 15.058824 6.901961 15.058823 15.058824z m363.503268 0v103.111111c0 8.366013-6.69281 15.058824-15.058823 15.058824h-190.745098c-8.366013 0-15.058824-6.69281-15.058824-15.058824v-103.111111c0-8.366013 6.69281-15.058824 15.058824-15.058824h190.745098c8.366013 0 15.058824 6.901961 15.058823 15.058824z m-473.93464-234.248366c24.470588 0 44.339869 19.869281 44.339869 44.339869s-19.869281 44.339869-44.339869 44.339869-44.339869-19.869281-44.33987-44.339869 19.869281-44.339869 44.33987-44.339869z m-473.934641 234.248366c0-8.366013 6.69281-15.058824 15.058824-15.058824h190.745098c8.366013 0 15.058824 6.69281 15.058823 15.058824v103.111111c0 8.366013-6.69281 15.058824-15.058823 15.058824H52.915033c-8.366013 0-15.058824-6.69281-15.058824-15.058824v-103.111111zM269.385621 574.117647c10.457516 0 19.03268-8.575163 19.03268-19.03268v-68.183006c0-8.784314 3.973856-17.150327 10.666666-22.588236 60.235294-49.568627 125.699346-82.405229 138.039216-88.679738 8.156863-3.973856 13.176471-11.921569 13.176471-20.915033v-96c0-6.27451-3.137255-12.339869-8.366013-15.686274-7.320261-4.810458-11.712418-12.96732-11.712419-21.542484V121.51634c0-39.111111 31.79085-70.901961 70.901961-70.901961h21.542484c39.111111 0 70.901961 31.79085 70.90196 70.901961v99.555555c0 8.784314-4.392157 16.732026-11.712418 21.542484-5.228758 3.555556-8.366013 9.411765-8.366013 15.686275v96c0 8.993464 5.019608 17.150327 13.176471 21.124183 12.54902 6.065359 77.803922 39.111111 138.039215 88.679738 6.69281 5.647059 10.666667 13.803922 10.666667 22.588235v68.392157c0 10.457516 8.575163 19.03268 19.03268 19.03268s19.03268-8.575163 19.032679-19.03268v-68.183006c0-20.287582-8.993464-39.111111-24.470588-51.869281-55.006536-45.176471-113.986928-77.385621-137.411764-89.30719V267.712418c12.75817-11.921569 20.078431-28.653595 20.078431-46.431372V121.51634c0-60.026144-48.732026-108.75817-108.75817-108.75817h-21.542484c-60.026144 0-108.75817 48.732026-108.75817 108.75817v99.555555c0 17.777778 7.320261 34.509804 20.078432 46.431373v78.013072c-23.424837 11.921569-82.405229 44.130719-137.411765 89.307189-15.477124 12.75817-24.470588 31.79085-24.470588 51.869281v68.392157c-0.20915 10.666667 8.156863 19.03268 18.614379 19.03268z" fill="#1296db" p-id="13166"></path></svg>