<?xml version="1.0" standalone="no"?><!DOCTYPE svg PUBLIC "-//W3C//DTD SVG 1.1//EN" "http://www.w3.org/Graphics/SVG/1.1/DTD/svg11.dtd"><svg t="1569487087269" class="icon" viewBox="0 0 1024 1024" version="1.1" xmlns="http://www.w3.org/2000/svg" p-id="13713" xmlns:xlink="http://www.w3.org/1999/xlink" width="200" height="200"><defs><style type="text/css"></style></defs><path d="M69.452094 521.727477m-50.415526 0a50.415526 50.415526 0 1 0 100.831052 0 50.415526 50.415526 0 1 0-100.831052 0Z" fill="#1296db" p-id="13714"></path><path d="M69.452094 224.882533m-50.415526 0a50.415526 50.415526 0 1 0 100.831052 0 50.415526 50.415526 0 1 0-100.831052 0Z" fill="#1296db" p-id="13715"></path><path d="M69.452094 818.363228m-50.415526 0a50.415526 50.415526 0 1 0 100.831052 0 50.415526 50.415526 0 1 0-100.831052 0Z" fill="#1296db" p-id="13716"></path><path d="M954.338713 521.727477m-50.415526 0a50.415526 50.415526 0 1 0 100.831052 0 50.415526 50.415526 0 1 0-100.831052 0Z" fill="#1296db" p-id="13717"></path><path d="M954.338713 818.363228m-50.415526 0a50.415526 50.415526 0 1 0 100.831052 0 50.415526 50.415526 0 1 0-100.831052 0Z" fill="#1296db" p-id="13718"></path><path d="M954.338713 224.882533m-50.415526 0a50.415526 50.415526 0 1 0 100.831052 0 50.415526 50.415526 0 1 0-100.831052 0Z" fill="#1296db" p-id="13719"></path><path d="M668.162615 361.485598h-5.648213V286.594484c0-83.049642-67.569356-150.618999-150.618999-150.618999s-150.618999 67.569356-150.618999 150.618999c0 10.459653 8.576915 19.036568 19.036568 19.036568s19.036568-8.576915 19.036568-19.036568c0-62.130337 50.624719-112.755056 112.755057-112.755056s112.755056 50.624719 112.755056 112.755056v74.891114H355.628192c-27.195097 0-49.369561 22.174464-49.369561 49.36956v205.636773c0 27.195097 22.174464 49.369561 49.369561 49.36956h312.32523c27.195097 0 49.369561-22.174464 49.369561-49.36956v-205.636773c0-27.195097-21.965271-49.369561-49.160368-49.36956z m11.296425 254.797139c0 6.275792-5.020633 11.296425-11.296425 11.296425H355.628192c-6.275792 0-11.296425-5.020633-11.296425-11.296425v-205.636772c0-6.275792 5.020633-11.296425 11.296425-11.296425h312.32523c6.275792 0 11.296425 5.020633 11.296425 11.296425v205.636772h0.209193z" fill="#1296db" p-id="13720"></path><path d="M517.334423 460.015526c-13.806742-2.71951-28.241062 5.020633-34.098468 18.199796-6.066599 13.597549-2.091931 28.868641 10.25046 37.863943 2.510317 1.882737 2.928703 3.556282 2.928702 6.275791v40.583453c0 11.087232 11.714811 19.664147 23.638816 13.597548 5.020633-2.510317 7.949336-7.949336 7.53095-13.597548v-40.583453c0-2.928703 0.627579-4.81144 3.347088-6.694178 8.576915-6.275792 12.760776-14.852707 12.760777-25.312359-0.418386-15.0619-11.087232-27.40429-26.358325-30.332993zM241.408784 502.690909H136.184678c-8.367722-29.077835-34.93524-50.415526-66.732584-50.415526-38.282329 0-69.452094 31.169765-69.452094 69.452094s31.169765 69.452094 69.452094 69.452094c31.588151 0 58.364862-21.337692 66.732584-50.415526h105.4333c10.459653 0 19.036568-8.576915 19.036567-19.036568-0.209193-10.459653-8.786108-19.036568-19.245761-19.036568z m-171.95669 50.415526c-17.363023 0-31.378958-14.015935-31.378958-31.378958s14.015935-31.378958 31.378958-31.378958 31.378958 14.015935 31.378958 31.378958-14.015935 31.378958-31.378958 31.378958zM241.408784 391.191011H126.143412c-20.710112 0-37.65475-16.944637-37.65475-37.65475v-61.921144c29.077835-8.367722 50.415526-34.93524 50.415526-66.732584 0-38.282329-31.169765-69.452094-69.452094-69.452094S0 186.600204 0 224.882533c0 31.588151 21.337692 58.364862 50.415526 66.732584V353.536261c0 41.629418 33.889275 75.518693 75.518693 75.518693h115.474565c10.459653 0 19.036568-8.576915 19.036568-19.036568s-8.576915-18.827375-19.036568-18.827375z m-203.544841-166.308478c0-17.363023 14.015935-31.378958 31.378958-31.378958s31.378958 14.015935 31.378958 31.378958-14.015935 31.378958-31.378958 31.378958-31.378958-14.015935-31.378958-31.378958zM241.408784 614.190807H126.143412c-41.629418 0-75.518693 33.889275-75.518693 75.518692v61.921145C21.546885 759.998366 0.209193 786.565884 0.209193 818.363228c0 38.282329 31.169765 69.452094 69.452094 69.452094s69.452094-31.169765 69.452094-69.452094c0-31.588151-21.337692-58.364862-50.415526-66.732584v-61.921145c0-20.710112 16.944637-37.65475 37.65475-37.654749h115.474566c10.459653 0 19.036568-8.576915 19.036568-19.036568-0.418386-10.25046-8.995301-18.827375-19.454955-18.827375z m-140.577732 204.172421c0 17.363023-14.015935 31.378958-31.378958 31.378958s-31.378958-14.015935-31.378958-31.378958 14.015935-31.378958 31.378958-31.378958 31.378958 14.015935 31.378958 31.378958zM954.338713 452.275383c-31.588151 0-58.364862 21.337692-66.732584 50.415526h-105.4333c-10.459653 0-19.036568 8.576915-19.036568 19.036568s8.576915 19.036568 19.036568 19.036568h105.4333c8.367722 29.077835 34.93524 50.415526 66.732584 50.415526 38.282329 0 69.452094-31.169765 69.452094-69.452094s-31.169765-69.452094-69.452094-69.452094z m0 100.831052c-17.363023 0-31.378958-14.015935-31.378958-31.378958s14.015935-31.378958 31.378958-31.378958 31.378958 14.015935 31.378958 31.378958c0.209193 17.363023-14.015935 31.378958-31.378958 31.378958zM973.375281 751.630644v-61.921145c0-41.629418-33.889275-75.518693-75.518693-75.518692H782.382022c-10.459653 0-19.036568 8.576915-19.036567 19.036568s8.576915 19.036568 19.036567 19.036568h115.474566c20.710112 0 37.65475 16.944637 37.65475 37.65475v61.921144c-29.077835 8.367722-50.415526 34.93524-50.415526 66.732584 0 38.282329 31.169765 69.452094 69.452094 69.452094 38.282329 0 69.452094-31.169765 69.452094-69.452094-0.209193-31.797344-21.546885-58.574055-50.624719-66.941777z m-19.036568 98.320735c-17.363023 0-31.378958-14.015935-31.378958-31.378958s14.015935-31.378958 31.378958-31.378958 31.378958 14.015935 31.378958 31.378958c0.209193 17.15383-14.015935 31.378958-31.378958 31.378958zM782.382022 429.054954h115.474566c41.629418 0 75.518693-33.889275 75.518693-75.518693v-61.921144c29.077835-8.367722 50.415526-34.93524 50.415526-66.732584 0-38.282329-31.169765-69.452094-69.452094-69.452094-38.282329 0-69.452094 31.169765-69.452094 69.452094 0 31.588151 21.337692 58.364862 50.415526 66.732584V353.536261c0 20.710112-16.944637 37.65475-37.65475 37.65475h-115.474566c-10.459653 0-19.036568 8.576915-19.036568 19.036568 0.209193 10.25046 8.786108 18.827375 19.245761 18.827375z m140.577733-204.172421c0-17.363023 14.015935-31.378958 31.378958-31.378958s31.378958 14.015935 31.378958 31.378958-14.015935 31.378958-31.378958 31.378958-31.378958-14.015935-31.378958-31.378958z" fill="#1296db" p-id="13721"></path></svg>