<?xml version="1.0" standalone="no"?><!DOCTYPE svg PUBLIC "-//W3C//DTD SVG 1.1//EN" "http://www.w3.org/Graphics/SVG/1.1/DTD/svg11.dtd"><svg t="1569487081534" class="icon" viewBox="0 0 1024 1024" version="1.1" xmlns="http://www.w3.org/2000/svg" p-id="13346" xmlns:xlink="http://www.w3.org/1999/xlink" width="200" height="200"><defs><style type="text/css"></style></defs><path d="M710.820743 443.008575H312.761127c-13.798285 0-25.087791-11.289506-25.087791-25.087791V142.373214c0-13.798285 11.289506-25.087791 25.087791-25.087791H710.820743c13.798285 0 25.087791 11.289506 25.087791 25.087791v275.54757c0 13.798285-11.289506 25.087791-25.087791 25.087791z" fill="#1296db" p-id="13347"></path><path d="M52.893426 925.530421h190.667211c29.269089 0 52.893426-23.833401 52.893426-52.893426V769.358922c0-29.269089-23.833401-52.893426-52.893426-52.893426H167.25194V627.194773c0-15.679869 12.75296-28.641895 28.641894-28.641894h297.081258v117.912617h-76.308698c-29.269089 0-52.893426 23.833401-52.893425 52.893426v103.278073c0 29.269089 23.833401 52.893426 52.893425 52.893426h190.667212c29.269089 0 52.893426-23.833401 52.893425-52.893426V769.358922c0-29.269089-23.833401-52.893426-52.893425-52.893426H531.024908v-117.912617h297.081258c15.679869 0 28.641895 12.75296 28.641894 28.641894v89.270723h-76.308697c-29.269089 0-52.893426 23.833401-52.893426 52.893426v103.278073c0 29.269089 23.833401 52.893426 52.893426 52.893426h190.667211c29.269089 0 52.893426-23.833401 52.893426-52.893426V769.358922c0-29.269089-23.833401-52.893426-52.893426-52.893426H894.797877V627.194773c0-36.586362-29.896284-66.482646-66.482646-66.482646H530.815843v-98.887709h154.708044c38.258881 0 69.409555-31.150674 69.409555-69.409555V167.879134c0-38.258881-31.150674-69.409555-69.409555-69.409555H338.267048c-38.258881 0-69.409555 31.150674-69.409555 69.409555v224.535729c0 38.258881 31.150674 69.409555 69.409555 69.409555h154.708044v98.678644H195.893834c-36.586362 0-66.482646 29.896284-66.482646 66.482646v89.270723H52.893426C23.624336 716.256431 0 740.089833 0 769.149857v103.278073c0 29.478154 23.833401 53.102491 52.893426 53.102491zM622.177215 769.358922v103.278073c0 8.362597-6.690078 15.052675-15.052674 15.052674h-190.667211c-8.362597 0-15.052675-6.690078-15.052675-15.052674V769.358922c0-8.362597 6.690078-15.052675 15.052675-15.052675h190.667211c8.362597 0 15.052675 6.899143 15.052674 15.052675z m363.563904 0v103.278073c0 8.362597-6.690078 15.052675-15.052675 15.052674h-190.667211c-8.362597 0-15.052675-6.690078-15.052674-15.052674V769.358922c0-8.362597 6.690078-15.052675 15.052674-15.052675h190.667211c8.153532 0 15.052675 6.899143 15.052675 15.052675zM306.698244 392.414863V167.879134c0-17.352389 14.216415-31.568804 31.568804-31.568803h347.047774c17.352389 0 31.568804 14.216415 31.568804 31.568803v224.535729c0 17.352389-14.216415 31.568804-31.568804 31.568804h-347.047774c-17.561454 0-31.568804-14.216415-31.568804-31.568804zM37.840751 769.358922c0-8.362597 6.690078-15.052675 15.052675-15.052675h190.667211c8.362597 0 15.052675 6.690078 15.052675 15.052675v103.278073c0 8.362597-6.690078 15.052675-15.052675 15.052674H52.893426c-8.362597 0-15.052675-6.690078-15.052675-15.052674V769.358922z" fill="#1296db" p-id="13348"></path><path d="M412.066966 255.268273h199.447938c10.453246 0 19.024908-8.571662 19.024908-19.024908s-8.571662-19.024908-19.024908-19.024908h-199.447938c-10.453246 0-19.024908 8.571662-19.024908 19.024908s8.571662 19.024908 19.024908 19.024908zM630.539812 323.841568c0-10.453246-8.571662-19.024908-19.024908-19.024908h-199.447938c-10.453246 0-19.024908 8.571662-19.024908 19.024908s8.571662 19.024908 19.024908 19.024908h199.447938c10.453246 0 19.024908-8.571662 19.024908-19.024908z" fill="#1296db" p-id="13349"></path></svg>