<?xml version="1.0" standalone="no"?><!DOCTYPE svg PUBLIC "-//W3C//DTD SVG 1.1//EN" "http://www.w3.org/Graphics/SVG/1.1/DTD/svg11.dtd"><svg t="1569487100758" class="icon" viewBox="0 0 1024 1024" version="1.1" xmlns="http://www.w3.org/2000/svg" p-id="14633" xmlns:xlink="http://www.w3.org/1999/xlink" width="200" height="200"><defs><style type="text/css"></style></defs><path d="M686.980573 737.511216h-349.960394c-8.362256 0-15.05206-6.689804-15.052059-15.05206v-241.251071c0-8.362256 6.689804-15.05206 15.052059-15.05206h350.16945c8.362256 0 15.05206 6.689804 15.05206 15.05206v241.251071c-0.209056 8.362256-6.898861 15.05206-15.261116 15.05206z" fill="#1296db" p-id="14634"></path><path d="M48.104251 697.790503c2.090564 0 4.390184-0.418113 6.480748-1.045282 9.82565-3.553959 15.05206-14.424891 11.498102-24.250541-62.089747-172.47152-20.905639-360.831326 107.03687-491.909681 182.715283-186.896411 483.338369-190.45037 670.23478-7.735087l2.92679 2.92679-57.281451 0.627169c-10.452819 0.209056-18.815075 8.780368-18.815074 19.233188 0.209056 10.452819 8.571312 18.815075 19.024131 18.815074h0.209056l103.0648-1.254338c5.017353 0 9.82565-2.090564 13.379608-5.644522s5.435466-8.362256 5.435466-13.379609l-1.254338-103.0648c-0.209056-10.452819-8.571312-19.024131-19.233188-18.815074-10.452819 0.209056-18.815075 8.780368-18.815074 19.233187l0.627169 57.281451-2.92679-2.92679c-201.948471-197.34923-526.613042-193.586215-723.753215 8.362256-68.361439 70.03389-115.19007 157.41946-135.050427 252.958229-19.442244 92.821036-12.75244 188.986975 19.233188 278.254053 2.926789 7.52603 10.243763 12.334327 17.978849 12.334327zM850.880781 843.293749c-92.61198 94.9116-215.746192 142.576457-339.089461 142.3674-119.580254 0-239.160508-44.738067-331.145319-134.84137l-2.926789-2.92679 57.28145-0.627169c10.452819-0.209056 18.815075-8.780368 18.815075-19.233188-0.209056-10.452819-8.571312-18.815075-19.024131-18.815075h-0.209057l-103.064799 1.463395c-10.452819 0.209056-18.815075 8.780368-18.815075 19.233188l1.254338 103.064799c0.209056 10.452819 8.571312 18.815075 19.024132 18.815075h0.209056c10.452819-0.209056 18.815075-8.780368 18.815075-19.233188l-0.627169-57.28145 2.926789 2.92679c99.510841 97.21122 228.498632 145.503246 357.69548 145.503246 132.959863 0 265.919726-51.427871 366.057736-153.865502 68.361439-70.03389 115.19007-157.41946 135.050426-252.95823 19.442244-92.821036 12.75244-188.986975-19.233187-278.254052-3.553959-9.82565-14.424891-15.05206-24.250541-11.498101s-15.05206 14.424891-11.498102 24.250541c61.880691 172.47152 20.696582 360.831326-107.245927 491.909681z" fill="#1296db" p-id="14635"></path><path d="M512.000376 217.378923c-84.458781 0-153.238332 68.779552-153.238332 153.238332v76.514638h-6.689805c-27.17733 0-49.337308 22.159977-49.337307 49.337308v210.728839c0 27.17733 22.159977 49.337308 49.337307 49.337308h319.647218c27.17733 0 49.337308-22.159977 49.337307-49.337308v-210.728839c0-27.17733-22.159977-49.337308-49.337307-49.337308h-6.689805v-76.723694c0.209056-84.458781-68.570495-153.029276-153.029276-153.029276z m-115.19007 153.029276c0-63.553142 51.636928-115.19007 115.19007-115.19007s115.19007 51.636928 115.19007 115.19007v76.723694h-230.38014v-76.723694z m286.407252 126.061002v210.728839c0 6.271692-5.017353 11.289045-11.289045 11.289045h-319.647217c-6.271692 0-11.289045-5.017353-11.289045-11.289045v-210.728839c0-6.271692 5.017353-11.289045 11.289045-11.289045h319.647217c6.062635 0 11.289045 5.017353 11.289045 11.289045z" fill="#1296db" p-id="14636"></path><path d="M517.644899 547.060847c-14.006778-2.717733-28.849782 5.017353-34.912417 18.606018-6.271692 13.797722-2.090564 29.476951 10.452819 38.675432 2.508677 1.881507 3.135846 3.763015 3.135846 6.480748v41.393165c0 11.498101 11.916214 20.069413 24.041485 13.797722 5.017353-2.508677 7.944143-8.153199 7.735086-14.006778v-41.393165c0-2.926789 0.627169-5.017353 3.344902-6.898861 8.571312-6.271692 12.961496-15.05206 12.961496-25.713936-0.418113-15.261116-11.289045-27.8045-26.759217-30.940345z" fill="#1296db" p-id="14637"></path></svg>