<?xml version="1.0" standalone="no"?><!DOCTYPE svg PUBLIC "-//W3C//DTD SVG 1.1//EN" "http://www.w3.org/Graphics/SVG/1.1/DTD/svg11.dtd"><svg t="1569487098554" class="icon" viewBox="0 0 1024 1024" version="1.1" xmlns="http://www.w3.org/2000/svg" p-id="14449" xmlns:xlink="http://www.w3.org/1999/xlink" width="200" height="200"><defs><style type="text/css"></style></defs><path d="M692.713794 723.4563h-346.078213c-8.374548 0-15.074187-6.699639-15.074187-15.074187v-238.465266c0-8.374548 6.699639-15.074187 15.074187-15.074187h346.078213c8.374548 0 15.074187 6.699639 15.074187 15.074187v238.465266c0 8.374548-6.909002 15.074187-15.074187 15.074187z" fill="#1296db" p-id="14450"></path><path d="M48.08293 697.913928c2.093637 0 4.396638-0.418727 6.490275-1.046819 9.840094-3.559183 15.074187-14.446096 11.515004-24.28619-61.971658-172.306333-20.936371-360.733673 106.984856-491.795355 88.560849-90.445123 206.851346-141.111141 333.516391-142.576687 126.455681-1.465546 246.211723 46.478744 336.656845 135.039593l2.931092 2.721728-57.365656 0.628092c-10.468186 0.209364-18.842734 8.793276-18.842734 19.261461 0.209364 10.468186 8.583912 18.842734 19.052098 18.842734h0.209363l103.216309-1.256182c5.024729 0 9.840094-2.093637 13.399278-5.652821s5.443456-8.374548 5.443456-13.399277l-1.256182-103.216309c-0.209364-10.468186-8.583912-19.052098-19.261461-18.842734-10.468186 0.209364-18.842734 8.793276-18.842734 19.261461l0.628091 57.365657-2.931092-2.721728c-96.307307-94.21367-223.181715-145.717142-357.593217-145.717143h-6.071548c-136.714503 1.465546-264.63573 56.318838-360.105581 154.091691-68.461933 69.927479-115.150041 157.44151-135.039593 252.911362-19.261461 92.957487-12.771186 189.05543 19.261461 278.244371 2.931092 7.32773 10.258822 12.143095 18.005279 12.143095zM993.778809 338.855165c-3.559183-9.840094-14.446096-15.074187-24.28619-11.515004s-15.074187 14.446096-11.515004 24.28619c61.762294 172.306333 20.727007 360.733673-107.19422 491.585992-92.748124 94.841761-215.853985 142.367323-338.959847 142.367323-119.546678 0-239.093357-44.803834-331.213389-134.83023l-2.931092-2.721728 57.365656-0.628091c10.468186-0.209364 18.842734-8.793276 18.842734-19.261461-0.209364-10.468186-8.583912-18.842734-19.052097-18.842734h-0.209364l-103.216309 1.256182c-10.468186 0.209364-18.842734 8.793276-18.842734 19.261461l1.256182 103.216309c0.209364 10.468186 8.583912 18.842734 19.052098 18.842734h0.209364c10.468186-0.209364 18.842734-8.793276 18.842734-19.261461l-0.628092-57.365657 2.931092 2.721729c99.447762 97.144762 228.625171 145.507779 357.802581 145.507778 132.945956 0 266.101276-51.503473 366.177129-153.882327 68.461933-69.927479 115.150041-157.44151 135.039593-252.911362 19.261461-92.53876 12.561823-188.636703-19.470825-277.825643z" fill="#1296db" p-id="14451"></path><path d="M519.570006 208.421573c-83.745484 0-151.78869 68.043206-151.78869 151.78869v75.789663h-6.071548c-27.217282 0-49.409836 22.192553-49.409836 49.409836v207.898164c0 27.217282 22.192553 49.409836 49.409836 49.409836h315.720475c27.217282 0 49.409836-22.192553 49.409836-49.409836v-207.898164c0-27.217282-22.192553-49.409836-49.409836-49.409836h-6.071548v-75.789663c0-83.745484-68.043206-151.78869-151.788689-151.78869z m-113.684495 151.78869c0-62.809113 51.084745-113.893858 113.893858-113.893858s113.893858 51.084745 113.893859 113.893858v75.789663h-227.787717v-75.789663z m282.850372 124.990135v207.898164c0 6.280911-5.024729 11.30564-11.30564 11.305641h-315.511111c-6.280911 0-11.30564-5.024729-11.305641-11.305641v-207.898164c0-6.280911 5.024729-11.30564 11.305641-11.30564h315.511111c6.280911 0 11.30564 5.024729 11.30564 11.30564z" fill="#1296db" p-id="14452"></path><path d="M524.594735 540.263054c-12.561823-2.512365-25.9611 4.606002-31.404557 16.749097-5.65282 12.352459-1.884273 26.589191 9.421367 34.963739 2.303001 1.67491 2.721728 3.349819 2.721728 5.862184v37.266741c0 10.258822 10.886913 18.005279 21.773826 12.561822 4.606002-2.303001 7.32773-7.32773 6.909003-12.561822v-37.266741c0-2.721728 0.628091-4.396638 2.931091-6.071547 7.746457-5.65282 11.724368-13.608641 11.724368-23.239372-0.209364-14.027369-10.049458-25.330915-24.076826-28.264101z" fill="#1296db" p-id="14453"></path></svg>