<?xml version="1.0" standalone="no"?><!DOCTYPE svg PUBLIC "-//W3C//DTD SVG 1.1//EN" "http://www.w3.org/Graphics/SVG/1.1/DTD/svg11.dtd"><svg t="1569487096088" class="icon" viewBox="0 0 1024 1024" version="1.1" xmlns="http://www.w3.org/2000/svg" p-id="14267" xmlns:xlink="http://www.w3.org/1999/xlink" width="200" height="200"><defs><style type="text/css"></style></defs><path d="M622.140143 18.827375H401.232278c-13.597549 0-24.475587 10.878039-24.475587 24.475587v129.281308h270.068232V43.302962c0-13.388355-11.087232-24.475587-24.68478-24.475587z" fill="#1296db" p-id="14268"></path><path d="M357.720123 827.776915v0.418386c0 0.836772 0.209193 1.882737 0.209193 2.71951 0 0.209193 0 0.418386 0.209193 0.836772 0.209193 1.045965 0.627579 2.091931 1.045965 3.137896 0.209193 0.209193 0.209193 0.418386 0.418386 0.836772 0.418386 0.836772 0.836772 1.464351 1.255158 2.091931 0.209193 0.209193 0.418386 0.627579 0.62758 0.836772s0.209193 0.418386 0.418386 0.627579l135.138713 177.186517c3.556282 4.602247 9.204494 7.53095 15.0619 7.53095s11.505618-2.71951 15.061899-7.53095l135.138713-177.186517c0.209193-0.209193 0.209193-0.418386 0.418387-0.627579 0.209193-0.209193 0.418386-0.627579 0.627579-0.836772 0.418386-0.627579 0.836772-1.464351 1.255158-2.091931 0.209193-0.209193 0.209193-0.418386 0.418386-0.836772 0.418386-1.045965 0.627579-2.091931 1.045965-3.137896 0-0.209193 0-0.418386 0.209193-0.836772 0.209193-0.836772 0.209193-1.882737 0.209193-2.71951V258.771808c0-10.459653-8.576915-19.036568-19.036567-19.036568s-19.036568 8.576915-19.036568 19.036568v549.968539H531.350358V259.817773c0-10.459653-8.576915-19.036568-19.036568-19.036568s-19.036568 8.576915-19.036568 19.036568v548.922574h-97.065577V259.817773c0-10.459653-8.576915-19.036568-19.036568-19.036568s-19.036568 8.576915-19.036568 19.036568v567.959142h-0.418386z m250.822471 19.036568l-96.856384 126.770991-96.856384-126.980184h193.712768v0.209193zM597.455363 0h-171.538305c-37.65475 0-68.406129 30.542186-68.406128 68.406129v104.387334c0 10.459653 8.576915 19.036568 19.036567 19.036568h270.068233c10.459653 0 19.036568-8.576915 19.036568-19.036568v-104.596527c0-37.65475-30.542186-68.196936-68.196935-68.196936z m30.332992 153.756895h-232.20429V68.196936c0-16.735444 13.597549-30.332993 30.332993-30.332993h171.538305c16.735444 0 30.332993 13.597549 30.332992 30.332993v85.559959z" fill="#1296db" p-id="14269"></path></svg>