<?xml version="1.0" standalone="no"?><!DOCTYPE svg PUBLIC "-//W3C//DTD SVG 1.1//EN" "http://www.w3.org/Graphics/SVG/1.1/DTD/svg11.dtd"><svg t="1569487117434" class="icon" viewBox="0 0 1024 1024" version="1.1" xmlns="http://www.w3.org/2000/svg" p-id="15736" xmlns:xlink="http://www.w3.org/1999/xlink" width="200" height="200"><defs><style type="text/css"></style></defs><path d="M511.83268 207.477124h0.4183c84.496732-0.836601 72.156863-113.777778 72.156863-113.777778-3.346405-75.503268-66.300654-74.875817-72.575163-74.666666-6.27451-0.20915-69.228758-0.836601-72.784314 74.457516 0 0-12.339869 112.941176 72.366013 113.777778 0 0.20915 0.20915 0.20915 0.418301 0.20915zM511.83268 347.816993l54.588235-75.294117s38.48366 15.477124 69.856209 38.69281c8.156863 6.065359 11.921569 9.620915 19.24183 16.941177 17.359477 17.359477 10.039216 117.960784 0 154.771242s-39.529412 89.72549-39.529412 89.72549c-5.856209 13.385621-9.620915 27.816993-11.084967 42.248366l-37.647059 369.150327c-1.254902 11.712418-11.084967 20.705882-22.797385 20.705882h-65.254902c-11.712418 0-21.751634-8.993464-22.797386-20.705882l-37.647059-369.150327c-1.464052-14.640523-5.228758-28.862745-11.084967-42.248366 0 0-29.490196-52.705882-39.529412-89.72549-10.039216-36.810458-17.359477-137.411765 0-154.771242 7.320261-7.320261 11.084967-10.875817 19.24183-16.941177 31.372549-23.006536 69.856209-38.69281 69.856209-38.69281l54.588236 75.294117z" fill="#1296db" p-id="15737"></path><path d="M87.257516 520.366013c9.411765 34.300654 34.509804 80.522876 38.27451 87.633987 4.601307 10.666667 7.529412 21.751634 8.575164 33.254902l35.346405 346.352941c2.091503 20.705882 19.45098 36.392157 40.366013 36.392157h61.071895c20.915033 0 38.27451-15.686275 40.366013-36.392157l35.346406-346.352941c1.254902-11.712418 4.183007-23.215686 8.993464-33.882353 4.183007-9.620915-0.20915-20.705882-9.620915-24.888889-9.620915-4.183007-20.705882 0.20915-24.888889 9.620915-6.27451 14.431373-10.457516 29.699346-11.921569 45.385621l-35.346405 346.352941c-0.20915 1.254902-1.254902 2.300654-2.509804 2.300654h-61.071896c-1.254902 0-2.509804-1.045752-2.509803-2.300654l-35.764706-346.562091c-1.673203-15.686275-5.647059-30.954248-11.921569-45.385621-0.20915-0.627451-0.418301-1.045752-0.836601-1.673203-0.20915-0.418301-26.562092-47.895425-35.346405-79.895425-9.620915-35.764706-12.339869-113.568627-4.392157-127.372549 6.27451-6.27451 8.993464-8.784314 15.477124-13.594771 16.522876-12.130719 35.555556-21.960784 47.895425-27.816993l42.248366 58.143791c3.555556 4.810458 9.202614 7.738562 15.267974 7.738562s11.712418-2.928105 15.267973-7.738562l51.24183-70.483661c6.065359-8.366013 4.183007-20.287582-4.183006-26.562091-8.366013-6.065359-20.287582-4.183007-26.562092 4.183006l-35.973856 49.359478-35.555555-49.150327c-5.019608-7.111111-14.431373-9.620915-22.379085-6.48366-1.464052 0.627451-38.69281 15.686275-69.647059 38.48366-8.784314 6.48366-12.96732 10.457516-20.287582 17.777778-26.771242 26.771242-11.921569 138.039216-5.019608 163.555555zM238.682353 275.869281h3.555555c24.261438-0.627451 44.75817-9.411765 59.398693-25.93464 31.163399-35.137255 26.771242-93.699346 25.934641-101.019608-3.137255-64.627451-48.104575-87.424837-85.542484-87.424837h-3.346405c-37.437908 0-82.196078 23.006536-85.542484 87.424837-0.627451 7.320261-5.228758 65.882353 25.934641 101.019608 14.849673 16.522876 35.346405 25.51634 59.607843 25.93464z m-47.686275-123.607843v-1.254902c2.091503-45.176471 30.745098-51.869281 47.686275-51.869281h3.137255c16.941176 0 45.594771 6.69281 47.686274 51.869281v1.045752c1.464052 13.385621 1.045752 52.496732-16.732026 72.575163-7.738562 8.784314-18.405229 13.176471-32.4183 13.176471h-0.418301c-14.013072-0.20915-24.679739-4.392157-32.418301-13.176471-17.568627-19.869281-17.777778-58.980392-16.522876-72.366013zM677.898039 582.27451c-9.620915 4.183007-14.013072 15.477124-9.620915 24.888889 4.810458 10.875817 7.738562 22.169935 8.993464 33.882353l35.346405 346.352941c2.091503 20.705882 19.45098 36.392157 40.366014 36.392157h61.071895c20.915033 0 38.27451-15.686275 40.366013-36.392157l35.346405-346.352941c1.254902-11.503268 3.973856-22.588235 8.575164-33.254902 3.764706-6.901961 29.071895-53.124183 38.274509-87.633987 6.901961-25.51634 21.960784-136.784314-4.810457-163.555556-7.320261-7.320261-11.503268-11.294118-20.287582-17.777778-30.954248-22.797386-67.973856-37.856209-69.647059-38.48366-8.156863-3.346405-17.359477-0.627451-22.379085 6.48366l-35.973856 49.359478-36.183006-49.150327c-6.065359-8.575163-17.986928-10.248366-26.562092-4.183007-8.366013 6.065359-10.248366 17.986928-4.183006 26.562092l51.24183 70.48366c3.555556 4.810458 9.202614 7.738562 15.267974 7.738562s11.712418-2.928105 15.267973-7.738562l42.248366-58.143791c12.339869 5.856209 31.372549 15.686275 47.895425 27.816993 6.27451 4.601307 8.993464 7.320261 15.477124 13.594772 7.947712 13.803922 5.228758 91.607843-4.392156 127.372549-8.784314 32-35.137255 79.477124-35.346406 79.895425s-0.627451 1.045752-0.836601 1.673202c-6.27451 14.431373-10.457516 29.699346-11.921569 45.385621l-35.346405 346.352941c-0.20915 1.254902-1.254902 2.300654-2.509804 2.300654h-61.071895c-1.254902 0-2.509804-1.045752-2.509804-2.300654l-35.346405-346.352941c-1.673203-15.686275-5.647059-30.954248-11.921569-45.385621-4.183007-9.830065-15.267974-14.013072-24.888889-9.830065zM781.427451 275.869281H784.983007c24.261438-0.418301 44.75817-9.411765 59.607843-25.93464 31.163399-35.137255 26.771242-93.699346 25.93464-101.019608-3.137255-64.627451-47.895425-87.424837-85.542483-87.424837h-3.346406c-37.437908 0-82.196078 23.006536-85.542483 87.424837-0.627451 7.320261-5.228758 65.882353 25.93464 101.019608 14.640523 16.522876 35.137255 25.30719 59.398693 25.93464z m-47.686275-123.607843v-1.254902c2.091503-45.176471 30.745098-51.869281 47.686275-51.869281h3.137255c16.941176 0 45.594771 6.69281 47.686274 51.869281v1.045752c1.464052 13.385621 1.045752 52.496732-16.732026 72.575163-7.738562 8.784314-18.405229 12.96732-32.4183 13.176471h-0.418301c-14.013072-0.20915-24.679739-4.392157-32.418301-13.176471-17.568627-19.869281-17.777778-58.980392-16.522876-72.366013zM354.760784 314.771242c-28.235294 28.235294-12.339869 145.986928-4.810457 173.17647 10.039216 36.601307 36.810458 85.960784 40.784314 93.071896 5.019608 11.503268 8.156863 23.424837 9.411764 35.764706l37.647059 369.150327c2.091503 21.542484 20.078431 37.647059 41.830065 37.647058h65.045752c21.542484 0 39.529412-16.313725 41.830065-37.647058l37.647059-369.150327c1.254902-12.339869 4.392157-24.470588 9.411765-35.764706 3.973856-7.320261 30.745098-56.470588 40.784314-93.071896 7.320261-27.189542 23.424837-144.941176-4.810458-173.17647-7.738562-7.738562-12.130719-11.921569-21.333333-18.82353-32.836601-24.261438-72.366013-40.156863-74.039216-40.993464-8.156863-3.346405-17.359477-0.627451-22.379085 6.48366l-39.947712 54.169935-39.320262-54.169935c-5.019608-7.111111-14.431373-9.620915-22.379085-6.48366-1.673203 0.627451-40.993464 16.732026-74.039215 40.993464-9.202614 6.901961-13.803922 11.084967-21.333334 18.82353z m27.189543 26.352941c6.901961-6.901961 9.830065-9.620915 16.732026-14.640523 17.986928-13.385621 38.901961-24.052288 52.287582-30.326797l45.594771 62.745098c3.555556 4.810458 9.202614 7.738562 15.267974 7.738562 6.065359 0 11.712418-2.928105 15.267974-7.738562l45.594771-62.745098c13.176471 6.27451 34.091503 16.941176 52.287582 30.326797 6.901961 5.019608 9.830065 7.738562 16.732026 14.640523 8.784314 14.222222 6.065359 98.091503-4.601308 136.784314-9.411765 34.300654-37.437908 84.915033-37.856209 85.333333-0.20915 0.418301-0.627451 1.045752-0.836601 1.673203-6.69281 15.267974-11.084967 31.372549-12.75817 48.104575l-37.647059 369.150327c-0.20915 2.091503-1.882353 3.555556-3.973856 3.555555h-65.045752c-2.091503 0-3.764706-1.464052-3.973856-3.555555l-37.647059-369.150327c-1.673203-16.522876-5.856209-32.836601-12.75817-48.104575-0.20915-0.627451-0.418301-1.045752-0.836601-1.673203-0.20915-0.418301-28.444444-51.24183-37.856209-85.542484-10.039216-38.48366-12.75817-122.352941-3.973856-136.575163zM509.950327 226.300654H513.715033c25.934641-0.418301 46.849673-9.620915 62.535947-27.398693 33.045752-37.019608 28.026144-99.346405 27.398693-106.875817-3.346405-67.973856-50.405229-92.026144-89.93464-92.026144h-3.764706c-39.320261 0-86.588235 24.052288-89.934641 92.026144-0.627451 7.529412-5.647059 69.647059 27.398693 106.666666 15.686275 17.777778 36.810458 26.980392 62.535948 27.607844z m-52.078432-130.718955v-1.254902c2.300654-51.03268 37.228758-56.470588 52.078432-56.470588h3.555555c14.849673 0 49.777778 5.437908 52.078432 56.470588v1.045752c1.464052 14.431373 1.254902 56.679739-17.986928 78.222222-8.575163 9.620915-20.287582 14.431373-35.555556 14.431373h-0.627451c-15.267974-0.20915-26.980392-4.810458-35.555555-14.431373-19.24183-21.333333-19.45098-63.581699-17.986929-78.013072z" fill="#1296db" p-id="15738"></path></svg>