<?xml version="1.0" standalone="no"?><!DOCTYPE svg PUBLIC "-//W3C//DTD SVG 1.1//EN" "http://www.w3.org/Graphics/SVG/1.1/DTD/svg11.dtd"><svg t="1569487103241" class="icon" viewBox="0 0 1024 1024" version="1.1" xmlns="http://www.w3.org/2000/svg" p-id="14817" xmlns:xlink="http://www.w3.org/1999/xlink" width="200" height="200"><defs><style type="text/css"></style></defs><path d="M704.535401 372.743522h-203.713528V169.029994c-112.40808 0-203.713528 91.096511-203.713528 203.713528s91.096511 203.713528 203.713528 203.713528 203.713528-91.096511 203.713528-203.713528z" fill="#1296db" p-id="14818"></path><path d="M1004.7778 0.626811H19.013263C8.566415 0.626811 0 9.193226 0 19.640073s8.566415 19.013263 19.013263 19.013263h36.563966V647.70455c0 29.669047 24.027749 53.696797 53.696797 53.696797h809.42175c29.669047 0 53.696797-24.027749 53.696797-53.696797V38.444399H1004.986737c10.446848 0 19.013263-8.566415 19.013263-19.013262s-8.775352-18.804326-19.2222-18.804326zM934.366048 647.70455c0 8.775352-7.103856 15.670271-15.670272 15.670271H109.065089c-8.775352 0-15.670271-7.103856-15.670272-15.670271V38.444399h840.971231V647.70455zM356.655376 990.987962c-7.312793 7.312793-7.312793 19.431137 0 26.743929 3.760865 3.760865 8.566415 5.641298 13.371965 5.641298s9.6111-1.880433 13.371965-5.641298l121.601306-121.601305v108.229341c0 10.446848 8.566415 19.013263 19.013263 19.013262s19.013263-8.566415 19.013262-19.013262v-108.229341l120.974495 120.974495c3.760865 3.760865 8.566415 5.641298 13.371965 5.641297s9.6111-1.880433 13.371965-5.641297c7.312793-7.312793 7.312793-19.431137 0-26.74393l-147.718425-147.718425v-57.248725h75.008366c10.446848 0 19.013263-8.566415 19.013263-19.013262s-8.566415-19.013263-19.013263-19.013263h-190.759437c-10.446848 0-19.013263 8.566415-19.013262 19.013263s8.566415 19.013263 19.013262 19.013262h77.933483v57.248725l-148.554173 148.345236z" fill="#1296db" p-id="14819"></path><path d="M500.821873 595.470312c122.854928 0 222.72679-99.871863 222.726791-222.72679 0-10.446848-8.566415-19.013263-19.013263-19.013263h-184.700265V169.029994c0-10.446848-8.566415-19.013263-19.013263-19.013263-122.854928 0-222.72679 99.871863-222.72679 222.726791S377.966946 595.470312 500.821873 595.470312z m-19.013263-406.591308v183.864518c0 10.446848 8.566415 19.013263 19.013263 19.013262h183.864518c-9.6111 92.976943-88.380331 165.89594-183.864518 165.89594-101.961232 0-184.700265-82.94797-184.700265-184.700265 0-95.693124 72.710059-174.462355 165.687002-184.073455z" fill="#1296db" p-id="14820"></path><path d="M591.082636 304.212202h159.836768c10.446848 0 19.013263-8.566415 19.013263-19.013263 0-43.667823-15.879208-85.66415-44.712508-118.467252C691.163436 128.496225 642.272189 106.557845 591.082636 106.557845c-10.446848 0-19.013263 8.566415-19.013262 19.013263v159.836768c0 10.446848 8.357478 18.804326 19.013262 18.804326z m18.804326-158.583147c33.220975 4.596613 64.143644 20.893695 86.708835 46.384004 18.595389 20.893695 30.295858 46.801877 34.056723 74.381554h-120.765558V145.629055z" fill="#1296db" p-id="14821"></path></svg>