<?xml version="1.0" standalone="no"?><!DOCTYPE svg PUBLIC "-//W3C//DTD SVG 1.1//EN" "http://www.w3.org/Graphics/SVG/1.1/DTD/svg11.dtd"><svg t="1569487108734" class="icon" viewBox="0 0 1024 1024" version="1.1" xmlns="http://www.w3.org/2000/svg" p-id="15184" xmlns:xlink="http://www.w3.org/1999/xlink" width="200" height="200"><defs><style type="text/css"></style></defs><path d="M609.613008 21.853659v395.447154H1005.268293c0-100.318699-37.463415-192.104065-99.069919-261.827642-72.637398-82.003252-178.57561-133.619512-296.585366-133.619512z" fill="#1296db" p-id="15185"></path><path d="M1024 417.300813c0-101.15122-36.839024-198.556098-103.856911-274.315447C841.678049 54.113821 728.455285 2.913821 609.613008 2.913821c-10.406504 0-18.939837 8.533333-18.939837 18.939838v395.447154c0 10.406504 8.533333 18.939837 18.939837 18.939837h395.447155c10.614634 0 18.939837-8.533333 18.939837-18.939837z m-395.447154-18.731707V41.209756c100.943089 4.995122 196.058537 50.57561 263.492682 126.95935 56.611382 64.104065 89.495935 145.274797 93.866667 230.4H628.552846z" fill="#1296db" p-id="15186"></path><path d="M909.320325 566.321951c0-10.406504-8.533333-18.939837-18.939837-18.939837s-18.939837 8.533333-18.939838 18.939837c0 229.98374-187.108943 416.884553-416.884552 416.884553-229.98374 0-416.884553-187.108943-416.884553-416.884553S224.780488 149.437398 454.556098 149.437398c10.406504 0 18.939837-8.533333 18.939837-18.939837s-8.533333-18.939837-18.939837-18.939837C203.96748 111.765854 0 315.733333 0 566.321951s203.96748 454.764228 454.764228 454.764228 454.556098-203.96748 454.556097-454.764228z" fill="#1296db" p-id="15187"></path><path d="M454.556098 298.458537c-10.406504 0-18.939837 8.325203-18.939838 18.939837 0 10.406504 8.533333 18.939837 18.939838 18.939837s18.939837-8.533333 18.939837-18.939837c0-10.614634-8.325203-18.939837-18.939837-18.939837zM454.556098 173.996748c-10.406504 0-18.939837 8.325203-18.939838 18.939837 0 10.406504 8.533333 18.731707 18.939838 18.731708s18.939837-8.533333 18.939837-18.731708c0-10.614634-8.325203-18.939837-18.939837-18.939837zM454.556098 360.689431c-10.406504 0-18.939837 8.533333-18.939838 18.939837s8.533333 18.939837 18.939838 18.939838 18.939837-8.325203 18.939837-18.939838c0-10.406504-8.325203-18.939837-18.939837-18.939837zM454.556098 236.227642c-10.406504 0-18.939837 8.533333-18.939838 18.939838s8.533333 18.939837 18.939838 18.939837 18.939837-8.533333 18.939837-18.939837c0-10.614634-8.325203-18.939837-18.939837-18.939838zM454.556098 485.15122c-10.406504 0-18.939837 8.533333-18.939838 18.939837s8.533333 18.939837 18.939838 18.939837 18.939837-8.325203 18.939837-18.939837c0-10.406504-8.325203-18.939837-18.939837-18.939837zM454.556098 422.920325c-10.406504 0-18.939837 8.325203-18.939838 18.939838 0 10.406504 8.533333 18.939837 18.939838 18.939837s18.939837-8.533333 18.939837-18.939837-8.325203-18.939837-18.939837-18.939838zM454.556098 547.382114c-4.995122 0-9.782114 2.081301-13.320326 5.619512s-5.619512 8.325203-5.619512 13.320325 2.081301 9.782114 5.619512 13.320325c3.538211 3.538211 8.325203 5.411382 13.320326 5.411383s9.782114-2.081301 13.320325-5.411383c3.538211-3.538211 5.619512-8.325203 5.619512-13.320325s-2.081301-9.782114-5.619512-13.320325c-3.330081-3.538211-8.325203-5.619512-13.320325-5.619512zM847.089431 566.321951c0-10.406504-8.325203-18.939837-18.939838-18.939837-10.406504 0-18.939837 8.533333-18.939837 18.939837s8.533333 18.939837 18.939837 18.939838 18.939837-8.533333 18.939838-18.939838zM597.957724 566.321951c0-10.406504-8.533333-18.939837-18.939838-18.939837s-18.939837 8.533333-18.939837 18.939837 8.325203 18.939837 18.939837 18.939838 18.939837-8.533333 18.939838-18.939838zM660.396748 566.321951c0-10.406504-8.533333-18.939837-18.939837-18.939837s-18.939837 8.533333-18.939838 18.939837 8.325203 18.939837 18.939838 18.939838c10.406504 0 18.939837-8.533333 18.939837-18.939838zM722.627642 566.321951c0-10.406504-8.533333-18.939837-18.939837-18.939837s-18.939837 8.533333-18.939838 18.939837 8.325203 18.939837 18.939838 18.939838c10.406504 0 18.939837-8.533333 18.939837-18.939838zM765.918699 585.261789c10.406504 0 18.939837-8.325203 18.939838-18.939838 0-10.406504-8.533333-18.939837-18.939838-18.939837s-18.939837 8.533333-18.939837 18.939837c0.20813 10.406504 8.533333 18.939837 18.939837 18.939838zM535.726829 566.321951c0-10.406504-8.325203-18.939837-18.939837-18.939837-10.406504 0-18.939837 8.533333-18.939838 18.939837s8.533333 18.939837 18.939838 18.939838c10.614634 0 18.939837-8.533333 18.939837-18.939838z" fill="#1296db" p-id="15188"></path></svg>