<?xml version="1.0" standalone="no"?><!DOCTYPE svg PUBLIC "-//W3C//DTD SVG 1.1//EN" "http://www.w3.org/Graphics/SVG/1.1/DTD/svg11.dtd"><svg t="1569487112832" class="icon" viewBox="0 0 1024 1024" version="1.1" xmlns="http://www.w3.org/2000/svg" p-id="15368" xmlns:xlink="http://www.w3.org/1999/xlink" width="200" height="200"><defs><style type="text/css"></style></defs><path d="M287.905971 399.165132m-150.02742 0a150.02742 150.02742 0 1 0 300.05484 0 150.02742 150.02742 0 1 0-300.05484 0Z" fill="#1296db" p-id="15369"></path><path d="M482.773988 117.339881m-98.27215 0a98.272151 98.272151 0 1 0 196.544301 0 98.272151 98.272151 0 1 0-196.544301 0Z" fill="#1296db" p-id="15370"></path><path d="M906.035703 694.61019v-90.728872c0-30.801719-24.934725-55.736444-55.736444-55.736444h-13.619807c-19.067731-49.86945-51.545734-95.129118-95.129118-131.797831 0-0.209536 0-0.209536-0.209536-0.419071-6.495601-22.83937-1.676284-47.355024 14.248414-72.708819 8.590956-13.619808 8.38142-30.382648-0.209535-43.79292s-23.677512-20.534479-39.60221-18.64866c-60.55576 7.543278-96.595867 35.201964-117.549417 60.765296-20.115408-5.657459-41.068958-9.848169-62.022509-12.362595-10.476775-1.257213-19.905873 6.286065-21.163086 16.553305-1.257213 10.476775 6.286065 19.905873 16.553305 21.163086 23.258441 2.723962 46.097811 7.752814 68.099038 14.667485 7.962349 2.514426 16.76284-0.419071 21.582157-7.543278 14.45795-21.582157 43.583384-48.821772 99.110293-55.526908 0.419071 0 1.88582-0.209536 2.933497 1.257213 1.047678 1.676284 0.209536 2.723962 0 3.143032-21.582157 34.363822-27.868222 70.194393-18.439124 103.301003 0 0.209536 0.209536 0.419071 0.209535 0.838142 0.209536 5.447923 2.723962 10.686311 7.124207 14.248414 44.421526 35.830571 76.689994 81.50931 93.033763 131.797831 2.514426 7.752814 9.848169 12.991201 18.020053 12.991201H850.299259c9.848169 0 17.810518 7.962349 17.810518 17.810518v90.728872c0 9.848169-7.962349 17.810518-17.810518 17.810518h-25.353796c-8.38142 0-15.715163 5.447923-18.229588 13.410272-11.943524 38.764068-63.698793 103.929609-83.814201 127.397586l-4.609781 3.981174c-42.535707 38.554532-46.935953 84.023736-47.355024 97.014938v30.382648c0 0.419071-0.419071 0.838142-0.838142 0.838142h-121.321056c-0.419071 0-0.838142-0.419071-0.838142-0.838142v-28.706364c0-5.447923-2.304891-10.476775-6.286065-14.038879s-9.429098-5.238388-14.667485-4.819316c-30.592183 3.143033-61.603438 2.723962-91.567014-1.257213-5.447923-0.628607-10.895846 0.838142-15.086557 4.609781-4.19071 3.562104-6.495601 8.800491-6.4956 14.248414v29.963577c0 0.419071-0.419071 0.838142-0.838142 0.838142h-121.321056c-0.419071 0-0.838142-0.419071-0.838142-0.838142v-9.219563-0.838142c-1.047678-21.791692-7.962349-77.109065-50.917127-121.321055-20.744015-21.372621-39.392674-49.450379-55.107837-83.604666-0.209536-0.209536-0.209536-0.419071-0.419071-0.628606-9.429098-18.229589-16.553305-37.506855-21.372621-56.993657 0-0.209536 0-0.419071-0.209536-0.419071l-0.209535-0.628607c0-0.209536-0.209536-0.419071-0.209536-0.628606-7.543278-25.353796-6.705136-57.203192-6.705136-57.622263v-0.628607c0-14.038879 1.257213-28.077757 3.562103-41.697565 1.676284-10.26724-5.238388-20.115408-15.505627-21.791692s-20.115408 5.238388-21.791692 15.505627c-2.723962 15.715163-3.981175 31.639861-3.981174 47.774095 0 3.981175-0.628607 38.973603 8.38142 69.146716l0.209535 0.419071c5.447923 22.420299 13.619808 44.211991 24.306118 64.956005 17.600982 37.925926 38.554532 69.565787 62.232045 93.871905 33.735216 34.782893 39.392674 78.575813 40.230816 96.176796V987.750358c1.466749 20.324944 18.439124 36.249642 38.764068 36.249642h121.321056c21.372621 0 38.973603-17.391447 38.973603-38.973603v-8.800492c19.277266 1.676284 38.764068 1.88582 58.25087 0.838142v7.96235c0 21.372621 17.391447 38.973603 38.973603 38.973603h121.321056c21.372621 0 38.973603-17.391447 38.973604-38.973603v-29.754042c0.209536-7.124207 2.933497-40.649887 34.573358-69.356251l5.447923-4.609781 1.885819-1.88582c2.933497-3.352568 64.536935-74.385103 87.376305-128.654798h12.153059c29.754041-0.419071 54.688766-25.563331 54.688766-56.155515z" fill="#1296db" p-id="15371"></path><path d="M119.020356 399.165132c0 93.243299 75.851852 168.885615 168.885615 168.885615s168.885615-75.851852 168.885615-168.885615-75.851852-168.885615-168.885615-168.885615-168.885615 75.851852-168.885615 168.885615z m299.845304 0c0 72.289748-58.669941 130.959689-130.959689 130.959689s-130.959689-58.669941-130.959689-130.959689 58.669941-130.959689 130.959689-130.959689 130.959689 58.879476 130.959689 130.959689zM365.643642 117.339881c0 64.74647 52.593411 117.339881 117.339882 117.339882s117.339881-52.593411 117.339881-117.339882-52.593411-117.339881-117.339881-117.339881-117.339881 52.593411-117.339882 117.339881z m196.544302 0c0 43.79292-35.621035 79.413955-79.413956 79.413956s-79.413955-35.621035-79.413955-79.413956 35.621035-79.413955 79.413955-79.413955 79.413955 35.621035 79.413956 79.413955z" fill="#1296db" p-id="15372"></path></svg>