<?xml version="1.0" standalone="no"?><!DOCTYPE svg PUBLIC "-//W3C//DTD SVG 1.1//EN" "http://www.w3.org/Graphics/SVG/1.1/DTD/svg11.dtd"><svg t="1569487106065" class="icon" viewBox="0 0 1024 1024" version="1.1" xmlns="http://www.w3.org/2000/svg" p-id="15001" xmlns:xlink="http://www.w3.org/1999/xlink" width="200" height="200"><defs><style type="text/css"></style></defs><path d="M693.407438 715.337442h311.342868v200.866367H693.407438z" fill="#1296db" p-id="15002"></path><path d="M625.824275 916.203809c0-10.46179-8.578668-19.040458-19.040458-19.040458h-43.730282c-2.092358 0-3.766244-1.673886-3.766244-3.766244v-34.314671c0-5.440131-2.301594-10.671026-6.48631-14.228035-4.184716-3.557009-9.624847-5.230895-15.064978-4.603187-34.733143 4.603188-70.512464 5.230895-105.873314 1.46465-5.440131-0.627707-10.671026 1.255415-14.646506 4.812424-3.97548 3.557009-6.277074 8.787904-6.277074 14.018798v32.850021c0 2.092358-1.673886 3.766244-3.766244 3.766244h-139.141807c-2.092358 0-3.766244-1.673886-3.766244-3.766244v-34.314671-0.418472c-0.209236-12.97262-11.298733-70.303228-59.422967-114.661218-46.031876-41.010217-79.091132-91.64528-96.039232-146.465059-2.51083-7.95096-9.834083-13.391091-18.203514-13.391091h-29.293012c-12.763384 0-23.225174-10.46179-23.225174-23.225174v-103.990192c0-12.763384 10.46179-23.225174 23.225174-23.225174h30.548427c8.160196 0 15.901921-5.021659 18.41275-12.972619 19.040458-58.167552 56.28443-110.894973 107.756436-152.532898 4.393952-3.557009 6.904781-8.578668 7.114018-14.228034 0-0.627707 0-1.046179 0.209235-1.673886 10.671026-37.243972 3.347773-77.417246-20.923579-116.125869-1.883122-2.929301-0.836943-5.440131 0-6.695545 0.836943-1.255415 2.51083-3.347773 6.067838-2.720066 64.863098 8.160196 98.759297 39.754802 115.707397 65.072334 4.603188 6.904781 13.391091 10.043318 21.551287 7.532489 41.84716-13.181855 85.995913-20.086637 130.98161-20.086637 165.923989 0 312.179812 92.063752 363.861054 228.903964 3.97548 10.880262 7.532489 21.969759 10.252554 33.059256 1.673886 7.114017 3.347773 14.228034 4.393952 21.551287 1.673886 10.252554 11.507969 17.366571 21.969759 15.48345 10.252554-1.673886 17.366571-11.507969 15.483449-21.969759-1.464651-8.160196-3.138537-16.320392-5.021659-24.271353-3.138537-12.554148-7.114017-25.108296-11.717205-37.243972-57.330609-151.695954-217.814467-253.593788-399.43114-253.593789-44.148754 0-87.6698 6.067838-129.307724 17.785043-23.434409-29.293012-64.444626-61.306089-134.120147-70.093992-17.157336-2.092358-33.477728 5.649367-42.684103 20.086636s-9.206375 32.640785-0.209235 47.287291c18.621986 29.711483 24.271353 58.586024 16.529628 85.577442-0.209236 0.418472-0.209236 0.836943-0.418472 1.255415-50.425828 42.265631-88.088271 94.574581-109.639559 152.323661h-17.575807c-33.686964 0-61.096853 27.40989-61.096853 61.096853v103.990193c0 33.686964 27.40989 61.096853 61.096853 61.096853h15.692685c19.877401 56.28443 55.238251 107.965672 102.316306 150.022068 37.243972 34.105435 46.659583 79.718839 46.868819 87.251328v34.105435c0 23.015938 18.831222 41.84716 41.84716 41.84716h139.141806c23.015938 0 41.84716-18.831222 41.84716-41.84716v-12.135676c24.271353 1.464651 48.33347 1.046179 72.395586-1.046179v13.181855c0 23.015938 18.831222 41.84716 41.84716 41.84716H606.783817c10.671026 0.418472 19.040458-8.160196 19.040458-18.621986z" fill="#1296db" p-id="15003"></path><path d="M731.697589 638.129432v58.376788h-38.080916c-10.46179 0-19.040458 8.578668-19.040457 19.040458v200.866367c0 10.46179 8.578668 19.040458 19.040457 19.040457h311.342869c10.46179 0 19.040458-8.578668 19.040458-19.040457v-200.866367c0-10.46179-8.578668-19.040458-19.040458-19.040458h-38.080915v-58.376788c0-64.863098-52.727421-117.590519-117.590519-117.590519s-117.590519 52.727421-117.590519 117.590519z m254.01226 259.033919H712.447895v-162.994687h273.47119v162.994687h-0.209236z m-57.121373-259.033919v58.376788h-159.228443v-58.376788c0-43.939518 35.779322-79.509604 79.509603-79.509604 44.148754-0.209236 79.718839 35.570086 79.71884 79.509604z" fill="#1296db" p-id="15004"></path></svg>