<?xml version="1.0" standalone="no"?><!DOCTYPE svg PUBLIC "-//W3C//DTD SVG 1.1//EN" "http://www.w3.org/Graphics/SVG/1.1/DTD/svg11.dtd"><svg t="1569487115250" class="icon" viewBox="0 0 1024 1024" version="1.1" xmlns="http://www.w3.org/2000/svg" p-id="15552" xmlns:xlink="http://www.w3.org/1999/xlink" width="200" height="200"><defs><style type="text/css"></style></defs><path d="M758.791853 460.35967l-31.58059-18.195439c-6.692575-3.764574-10.457149-11.084578-10.038863-18.613725 0.627429-11.084578 0.209143-21.960013-1.045715-32.835448-0.836572-7.529147 2.509716-14.849152 8.784005-19.032011l30.953161-20.914298c7.529147-5.228574 10.248006-15.058295 6.483433-23.424014l-10.248006-22.169155-10.248006-22.169156c-3.764574-8.365719-12.966865-12.548579-21.960013-10.248006l-35.136021 9.82972c-7.529147 2.09143-15.267438-0.418286-20.496012-6.065147-7.320004-7.947433-15.058295-15.47658-23.633156-22.378298-5.856003-4.810289-8.784005-12.339436-7.529148-19.65944l7.110862-36.809165c1.673144-8.993148-3.346288-17.986296-11.92115-21.332584l-23.005728-8.574862-23.005728-8.574862c-8.784005-3.346288-18.404582 0.209143-23.005727 8.156576l-18.19544 31.371447c-3.764574 6.692575-11.293721 10.457149-19.032011 10.038863-11.502864-0.627429-22.796585-0.209143-33.881163 1.045715-7.529147 0.836572-15.058295-2.300573-19.450297-8.574862l-20.705155-30.534875c-5.228574-7.529147-15.058295-10.248006-23.424013-6.483433l-22.169156 10.248006-22.169156 10.248006c-8.365719 3.764574-12.548579 12.966865-10.248006 21.960013l9.620577 35.76345c1.882287 7.320004-0.418286 15.058295-6.065146 20.286869-8.156576 7.320004-15.47658 15.47658-22.378299 24.051442-4.810289 6.065146-12.339436 8.993148-19.868583 7.529148l-36.390879-7.110862c-8.784005-1.673144-17.777153 3.346288-21.332583 11.502864l-8.574863 23.005728-8.574862 23.005728c-3.346288 8.784005 0.209143 18.404582 8.156576 23.005727l31.998876 18.404583c6.692575 3.764574 10.457149 10.875435 10.038863 18.613725-0.418286 11.084578-0.209143 21.960013 1.254858 32.835448 0.836572 7.529147-2.300573 15.058295-8.574862 19.241154l-30.744018 20.705155c-7.529147 5.228574-10.248006 15.058295-6.483432 23.424013l10.248006 22.169156 10.248006 22.169156c3.764574 8.365719 12.966865 12.548579 21.960013 10.248006l35.972592-10.038863c7.320004-1.882287 15.058295 0.418286 20.286869 6.065146 7.320004 8.156576 15.47658 15.47658 24.051443 22.378299 6.065146 4.810289 8.993148 12.339436 7.529147 19.868583l-7.110861 36.390879c-1.673144 8.993148 3.346288 17.986296 11.921149 21.332584l23.005728 8.574862 23.005728 8.574862c8.784005 3.346288 18.404582-0.209143 23.005728-8.156576l18.404582-31.998876c3.764574-6.692575 11.084578-10.457149 18.613725-10.038863 10.457149 0.418286 20.914298 0 31.162304-1.045715 7.529147-0.836572 15.058295 2.509716 19.241154 8.784005l20.914298 30.953161c5.228574 7.529147 15.058295 10.248006 23.424014 6.483432l22.169156-10.248006 22.169155-10.248006c8.365719-3.764574 12.548579-12.966865 10.248006-21.960012l-9.411434-35.345164c-2.09143-7.320004 0.418286-15.267438 6.065147-20.286869 7.947433-7.320004 15.47658-15.267438 22.378298-23.8423 4.810289-5.856003 12.339436-8.784005 19.659441-7.529147l36.809164 7.110861c8.993148 1.673144 17.986296-3.346288 21.332584-11.921149l8.574862-23.005728 8.574862-23.005728c3.764574-8.993148 0.209143-18.404582-7.73829-23.005728z m-160.412665-16.313152c-12.966865 36.390878-47.684599 60.860607-86.166908 60.860607-10.457149 0-20.705155-1.882287-30.744018-5.228574-47.475456-16.940581-72.572614-69.226326-55.632032-116.910926 12.966865-36.390878 47.684599-60.860607 86.166907-60.860607 10.457149 0 20.705155 1.882287 30.534875 5.228574 23.005728 8.156576 41.41031 24.888015 52.076602 46.848028 10.666292 22.169156 11.92115 47.05717 3.764574 70.062898z" fill="#1296db" p-id="15553"></path><path d="M913.766801 486.2934c4.810289-25.306301 7.320004-51.24003 7.320004-77.17376 0-230.475563-191.574969-416.821958-423.723676-408.874524-204.123548 7.110861-372.901932 165.850383-392.561373 368.928215-3.764574 39.31888-1.882287 78.63776 5.437718 117.329212 0.209143 1.464001 1.045715 5.856003 2.718858 12.966865 6.274289 27.816016 15.47658 55.004604 27.397731 80.938333 44.338312 104.362347 141.79894 265.193298 355.543065 437.945399 4.601146 3.764574 10.248006 5.64686 16.104009 5.64686s11.502864-2.09143 16.10401-5.64686c213.744125-172.752101 311.204753-333.373909 355.543065-437.945399 11.92115-25.933729 21.123441-53.122317 27.39773-80.72919 1.882287-7.947433 2.718859-12.548579 2.718859-13.385151z m-37.227451-6.692576c0 0.418286-0.209143 0.627429-0.209143 1.045715-0.209143 1.045715-0.836572 4.810289-2.300572 10.457149-5.64686 25.306301-14.221723 49.985172-25.097158 73.618329 0 0.209143-0.209143 0.418286-0.209143 0.627429-41.828596 99.342915-134.269793 251.599004-336.720197 417.240244-202.450404-165.432097-294.891601-317.897329-336.720197-417.240244 0-0.209143-0.209143-0.418286-0.209143-0.627429-10.875435-23.633157-19.241154-48.312028-25.097157-73.827472-1.464001-6.483432-2.09143-9.82972-2.300573-10.457149 0-0.209143 0-0.627429-0.209143-0.836572-6.692575-35.136021-8.365719-70.89947-5.019432-106.662919 17.777153-184.464108 170.869814-328.354478 356.170494-334.628767 210.60698-7.320004 384.404796 161.876666 384.404797 371.019645 0.209143 23.424014-2.09143 47.05717-6.483433 70.272041z" fill="#1296db" p-id="15554"></path><path d="M549.021445 309.358439c-11.92115-4.18286-24.469729-6.483432-37.018308-6.483432-46.638884 0-88.46748 29.48916-104.153204 73.409186-9.82972 27.816016-8.365719 57.723462 4.392003 84.493763 12.757722 26.561158 34.926878 46.848027 62.742894 56.677748 11.92115 4.18286 24.469729 6.483432 37.018307 6.483432 46.638884 0 88.46748-29.48916 104.153204-73.409186 20.496012-57.514319-9.620577-120.884642-67.134896-141.171511z m31.371446 128.41379c-10.248006 28.861731-37.645736 48.312028-68.389754 48.312028-8.156576 0-16.522295-1.464001-24.260585-4.18286-37.645736-13.385151-57.514319-55.004604-44.129169-92.65034 10.248006-28.861731 37.645736-48.312028 68.389754-48.312028 8.156576 0 16.522295 1.464001 24.260586 4.18286 37.854879 13.176008 57.514319 54.795461 44.129168 92.65034z" fill="#1296db" p-id="15555"></path><path d="M725.119833 252.889835c-3.346288 0-6.483432 0.418286-10.038863 1.254858l-35.345163 9.82972c-0.418286 0-0.836572-0.209143-1.254858-0.627429-8.156576-8.993148-16.731438-17.149724-25.93373-24.260586-0.418286-0.209143-0.836572-0.836572-0.627429-1.464001l7.110862-36.809164c3.346288-18.195439-6.692575-35.972592-24.051443-42.456025l-46.011455-17.149724c-4.18286-1.673144-8.784005-2.300573-13.176008-2.300573-13.385151 0-25.933729 7.320004-32.626305 18.822868l-18.195439 31.371447c-0.209143 0.418286-0.836572 0.627429-1.464001 0.627429-12.339436-0.627429-24.678872-0.418286-37.436593 1.254858-0.209143 0-0.836572 0-1.254858-0.418286l-20.705155-30.744018c-7.110861-10.248006-18.822868-16.522295-31.162304-16.522295-5.437717 0-10.666292 1.045715-15.685724 3.346287l-44.547454 20.286869c-16.731438 7.73829-25.515443 26.142872-20.705155 44.129169l9.620577 35.763449c0.209143 0.418286-0.209143 1.045715-0.418286 1.254858-8.784005 7.947433-16.940581 16.940581-24.469729 26.352016-0.209143 0.418286-0.627429 0.627429-1.254858 0.627429l-36.390878-7.110862c-2.300573-0.418286-4.601146-0.627429-6.901718-0.627429-15.267438 0-29.280017 9.202291-35.345164 23.214871-0.209143 0.209143-0.209143 0.627429-0.418286 0.836572l-17.149724 46.011455c-6.483432 17.358867 0.418286 36.600021 16.522295 46.011456l31.998876 18.404582c0.418286 0.209143 0.627429 0.836572 0.627429 1.254858-0.627429 12.130293-0.209143 24.260586 1.254858 35.972592 0 0.418286 0 1.045715-0.418286 1.254858l-30.744018 20.914298c-15.267438 10.457149-20.705155 30.116589-13.176008 46.848028l20.286869 44.547454c6.065146 13.385151 19.65944 21.960013 34.299449 21.960013 3.346288 0 6.483432-0.418286 9.82972-1.254858l35.972592-9.620577c0.418286 0 0.836572 0.209143 1.045715 0.627429 7.947433 8.784005 16.940581 16.940581 26.352016 24.469729 0.418286 0.209143 0.627429 0.836572 0.627429 1.254858l-7.110862 36.390878c-3.555431 18.195439 6.692575 35.972592 24.051443 42.456025l46.011456 17.149724c4.18286 1.673144 8.784005 2.300573 13.176007 2.300573 13.385151 0 25.933729-7.320004 32.626305-19.032011l18.404582-31.998876c0.209143-0.418286 0.836572-0.627429 1.464001-0.627429 11.293721 0.418286 22.796585 0 34.508592-1.254858 0.209143 0 0.836572 0 1.254858 0.418286l21.123441 30.953161c7.110861 10.248006 18.822868 16.522295 31.162303 16.522295 5.437717 0 10.666292-1.045715 15.685724-3.346287l44.547455-20.286869c16.731438-7.73829 25.515443-26.142872 20.705154-44.129169l-9.411434-35.345163c-0.209143-0.627429 0.209143-1.045715 0.627429-1.464001 8.993148-8.156576 17.149724-16.940581 24.469729-25.93373 0.418286-0.418286 0.836572-0.627429 1.464001-0.627429l36.809164 6.901719c2.300573 0.418286 4.601146 0.627429 7.110861 0.627429 15.685723 0 30.116589-9.82972 35.554307-24.678872l17.149724-46.011455c6.483432-17.358867-0.418286-36.600021-16.522295-46.011456l-31.58059-18.195439c-0.418286-0.209143-0.627429-0.836572-0.627429-1.254858 0.627429-11.92115 0.209143-23.8423-1.045715-35.763449 0-0.627429 0.209143-1.045715 0.418286-1.254858l31.162304-21.123441c15.267438-10.457149 20.705155-30.116589 13.176008-46.848028l-20.286869-44.338311c-6.483432-12.757722-19.868583-21.332584-34.717735-21.332584z m-10.666292 102.898346c-12.130293 8.156576-18.613725 22.378299-16.940581 36.809164 1.045715 9.82972 1.464001 19.868583 0.836572 29.698303-0.836572 14.849152 6.692575 28.652588 19.450297 36.181736l31.58059 18.195439-17.149724 46.011455-36.809165-6.901718c-2.300573-0.418286-4.810289-0.627429-7.320004-0.627429-11.92115 0-23.214871 5.437717-30.744018 14.849152-6.065146 7.529147-12.966865 14.849152-20.286869 21.541726-11.084578 10.038863-15.47658 25.097158-11.712007 39.318881l9.620577 35.13602-44.129169 20.286869-20.914298-30.953161c-8.156576-11.92115-22.378299-18.613725-37.018307-16.940581-9.411434 1.045715-18.822868 1.464001-28.234302 1.045715-14.849152-0.627429-28.652588 6.901718-35.972593 19.65944l-18.404582 31.998876-46.011455-16.940582 7.110861-36.390878c2.718859-14.430866-2.718859-29.070874-14.221723-38.273165-7.947433-6.274289-15.267438-12.966865-21.960012-20.286869-7.529147-8.156576-17.986296-12.966865-29.070875-12.966865-3.346288 0-6.692575 0.418286-10.038863 1.254858l-35.554306 9.620577-20.286869-44.129169 30.744018-20.914298c12.130293-8.156576 18.613725-22.378299 16.940581-37.22745-1.254858-9.82972-1.464001-19.868583-1.045715-29.907446 0.627429-14.849152-6.901718-28.443445-19.450297-35.76345l-31.998876-18.404582 16.940582-45.174883c0-0.209143 0.209143-0.209143 0.209143-0.209143l36.390878 7.110861c2.509716 0.418286 5.019432 0.627429 7.320004 0.627429 12.130293 0 23.214871-5.437717 30.744018-15.058295 6.274289-7.947433 12.966865-15.267438 20.286869-21.960013 10.875435-10.038863 15.267438-24.888015 11.502864-39.109737l-9.620577-35.554306 44.129169-20.286869 20.705155 30.534875c8.156576 12.130293 22.587442 18.613725 37.436593 16.940581 10.038863-1.254858 20.286869-1.464001 30.534875-1.045715 15.058295 0.836572 29.070874-6.692575 36.390879-19.450297l17.986296-31.371447 46.011455 17.149725-7.110861 36.809164c-2.718859 14.221723 2.718859 28.861731 14.221723 38.064022 7.529147 6.065146 14.640009 12.757722 21.541726 20.286869 7.529147 8.365719 18.195439 12.966865 29.280018 12.966865 3.555431 0 7.110861-0.418286 10.457149-1.464001l34.717734-9.82972 20.286869 44.129169-31.371447 20.914298z" fill="#1296db" p-id="15556"></path></svg>