<?xml version="1.0" standalone="no"?><!DOCTYPE svg PUBLIC "-//W3C//DTD SVG 1.1//EN" "http://www.w3.org/Graphics/SVG/1.1/DTD/svg11.dtd"><svg t="1569487120752" class="icon" viewBox="0 0 1024 1024" version="1.1" xmlns="http://www.w3.org/2000/svg" p-id="15918" xmlns:xlink="http://www.w3.org/1999/xlink" width="200" height="200"><defs><style type="text/css"></style></defs><path d="M226.310493 272.70362V53.828595c0-19.26938 15.499284-34.768664 34.768664-34.768665h501.422786c19.26938 0 34.768664 15.499284 34.768664 34.768665v219.084475M762.711393 1004.73062h-501.422786c-19.26938 0-34.768664-15.499284-34.768664-34.768665V527.813459h571.169564v442.357946c-0.20945 19.05993-15.708734 34.559215-34.978114 34.559215z" fill="#1296db" p-id="15919"></path><path d="M101.687871 801.773778h105.772141v168.397627c0 29.74187 24.086725 53.828595 53.828595 53.828595h501.422786c29.74187 0 53.828595-24.086725 53.828595-53.828595v-168.397627h105.772141c46.707302 0 84.617713-37.910411 84.617714-84.617713V338.261403c0-46.707302-37.910411-84.617713-84.617714-84.617713h-105.981591V53.828595c0-29.74187-24.086725-53.828595-53.828595-53.828595h-501.422786c-29.74187 0-53.828595 24.086725-53.828595 53.828595v200.024545h-105.562691c-46.707302 0-84.617713 37.910411-84.617714 84.617713v378.685212c0 46.707302 37.910411 84.617713 84.617714 84.617713z m676.941706 168.188177c0 8.796891-7.121293 15.708734-15.708734 15.708734h-501.632236c-8.796891 0-15.708734-7.121293-15.708734-15.708734V546.663939h533.049704v423.298016zM245.370423 53.828595c0-8.796891 7.121293-15.708734 15.708734-15.708734h501.422786c8.796891 0 15.708734 7.121293 15.708734 15.708734v200.024545h-532.840254V53.828595z m-190.180405 284.432808c0-25.762324 20.944979-46.497852 46.497853-46.497852h820.624258c25.762324 0 46.497852 20.944979 46.497853 46.497852v378.894662c0 25.762324-20.944979 46.497852-46.497853 46.497852h-105.772141V527.813459c0-10.472489-8.587441-19.05993-19.059931-19.059931h-570.960114c-10.472489 0-19.05993 8.587441-19.059931 19.059931v236.049908h-105.772141c-25.762324 0-46.497852-20.944979-46.497853-46.497853v-379.104111z" fill="#1296db" p-id="15920"></path><path d="M162.847208 418.690121c5.026795 0 9.84414-2.094498 13.404786-5.655145 3.560646-3.560646 5.445694-8.377991 5.445695-13.404786s-2.094498-9.84414-5.445695-13.404786c-3.560646-3.560646-8.377991-5.655144-13.404786-5.655144s-9.84414 2.094498-13.404786 5.655144c-3.560646 3.560646-5.655144 8.377991-5.655144 13.404786s2.094498 9.84414 5.655144 13.404786c3.560646 3.560646 8.377991 5.655144 13.404786 5.655145zM659.033749 747.316834h-294.067498c-10.472489 0-19.05993 8.587441-19.059931 19.05993s8.587441 19.05993 19.059931 19.059931h294.276948c10.472489 0 19.05993-8.587441 19.05993-19.059931s-8.796891-19.05993-19.26938-19.05993zM659.033749 865.027613h-294.067498c-10.472489 0-19.05993 8.587441-19.059931 19.05993s8.587441 19.05993 19.059931 19.059931h294.276948c10.472489 0 19.05993-8.587441 19.05993-19.059931-0.20945-10.681939-8.796891-19.05993-19.26938-19.05993zM659.033749 629.606054h-294.067498c-10.472489 0-19.05993 8.587441-19.059931 19.059931s8.587441 19.05993 19.059931 19.05993h294.276948c10.472489 0 19.05993-8.587441 19.05993-19.05993s-8.796891-19.05993-19.26938-19.059931z" fill="#1296db" p-id="15921"></path></svg>