<?xml version="1.0" standalone="no"?><!DOCTYPE svg PUBLIC "-//W3C//DTD SVG 1.1//EN" "http://www.w3.org/Graphics/SVG/1.1/DTD/svg11.dtd"><svg t="1569487142582" class="icon" viewBox="0 0 1024 1024" version="1.1" xmlns="http://www.w3.org/2000/svg" p-id="17395" xmlns:xlink="http://www.w3.org/1999/xlink" width="200" height="200"><defs><style type="text/css"></style></defs><path d="M819.063899 581.987118l-41.039566-16.960229c7.119108-35.386157 6.909723-71.191085 0-105.530314l41.248952-16.960229c14.656988-6.072181 21.776097-23.03241 15.703916-37.689398l-18.635314-44.808506c-6.072181-14.656988-23.03241-21.776097-37.689397-15.703916l-41.248953 16.960229c-19.472856-29.104591-44.599121-54.649627-74.541253-74.750639l16.960229-41.039566c6.072181-14.656988-0.837542-31.617217-15.49453-37.689398l-44.808506-18.635314c-14.656988-6.072181-31.617217 0.837542-37.689398 15.494531l-16.960229 41.039566c-35.386157-7.119108-71.191085-6.909723-105.530314 0l-16.960229-41.248952c-6.072181-14.656988-23.03241-21.776097-37.689398-15.703916l-44.808506 18.635314c-14.656988 6.072181-21.776097 23.03241-15.703916 37.689398l16.960229 41.248952c-29.104591 19.472856-54.649627 44.599121-74.750639 74.541253l-41.039567-16.960229c-14.656988-6.072181-31.617217 0.837542-37.689397 15.49453l-18.635314 44.808507c-6.072181 14.656988 0.837542 31.617217 15.494531 37.689397l41.039566 16.960229c-7.119108 35.386157-6.909723 71.191085 0 105.530314l-41.248952 16.960229c-14.656988 6.072181-21.776097 23.03241-15.703916 37.689398l18.635314 44.808506c6.072181 14.656988 23.03241 21.776097 37.689397 15.703916l41.248952-16.960229c19.472856 29.104591 44.599121 54.649627 74.541254 74.750639l-16.960229 41.039567c-6.072181 14.656988 0.837542 31.617217 15.49453 37.689397l44.808506 18.635314c14.656988 6.072181 31.617217-0.837542 37.689398-15.49453l16.960229-41.039567c35.386157 7.119108 71.191085 6.909723 105.530314 0l16.960229 41.248952c6.072181 14.656988 23.03241 21.776097 37.689398 15.703916l44.808506-18.635314c14.656988-6.072181 21.776097-23.03241 15.703916-37.689397l-16.960229-41.248952c29.104591-19.472856 54.649627-44.599121 74.750639-74.541254l41.039566 16.960229c14.656988 6.072181 31.617217-0.837542 37.689398-15.49453l18.635314-44.808506c6.281566-14.866374-0.837542-31.617217-15.494531-37.689398z m-356.58358 49.414988c-65.956446-27.220121-97.154892-102.808302-69.934772-168.764748s102.808302-97.154892 168.764748-69.934771 97.154892 102.808302 69.934772 168.764748-102.808302 97.154892-168.764748 69.934771z" fill="#1296db" p-id="17396"></path><path d="M176.459667 176.616706c184.887435-184.887435 485.774461-184.887435 670.871281 0l2.931397 2.931397h-57.371639c-10.469277 0-19.054084 8.584807-19.054084 19.054085s8.584807 19.054084 19.054084 19.054084h103.227073c10.469277 0 19.054084-8.584807 19.054085-19.054084v-103.227073c0-10.469277-8.584807-19.054084-19.054085-19.054084s-19.054084 8.584807-19.054084 19.054084v57.371639l-2.931398-2.931398c-199.753808-199.753808-524.720172-199.753808-724.47398 0-7.328494 7.328494-7.328494 19.472856 0 26.80135 7.328494 7.53788 19.472856 7.53788 26.80135 0zM127.882221 947.783662c10.469277 0 19.054084-8.584807 19.054084-19.054084v-57.371639l2.722012 2.931397c99.876904 99.876904 230.952254 149.710664 362.23699 149.710664 131.07535 0 262.360086-50.043145 362.23699-149.710664 7.328494-7.328494 7.328494-19.472856 0-26.801349s-19.472856-7.328494-26.801349 0c-184.887435 184.887435-485.774461 184.887435-670.871281 0l-2.931398-2.931398h57.371639c10.469277 0 19.054084-8.584807 19.054084-19.054084s-8.584807-19.054084-19.054084-19.054085h-103.017687c-10.469277 0-19.054084 8.584807-19.054085 19.054085v103.227073c0 10.469277 8.584807 19.054084 19.054085 19.054084z" fill="#1296db" p-id="17397"></path><path d="M852.146815 433.951539c4.815867-11.72559 4.815867-24.707494 0-36.64247l-18.635313-44.808507c-7.328494-18.007157-24.707494-29.523362-44.18035-29.523361-6.281566 0-12.353747 1.256313-18.216542 3.559554l-27.220121 11.306819c-16.541458-22.194868-36.014313-41.458338-57.999795-57.999795l11.306819-27.220121c10.050506-24.288723-1.465699-52.346386-25.754422-62.396892l-44.808506-18.635313c-5.862795-2.512627-11.934976-3.559554-18.216542-3.559554-19.472856 0-36.64247 11.516205-44.18035 29.523361l-11.306819 27.220121c-27.220121-3.978325-54.859012-3.978325-82.079133 0l-11.30682-27.220121c-7.328494-18.007157-24.707494-29.523362-44.180349-29.523361-6.281566 0-12.353747 1.256313-18.216543 3.559554l-44.808506 18.635313c-11.72559 4.815867-20.938554 14.028831-25.963807 25.963808-4.815867 11.72559-4.815867 24.707494 0 36.64247l11.306819 27.22012c-22.194868 16.541458-41.458338 36.014313-57.999795 57.999796l-27.220121-11.30682c-5.862795-2.512627-11.934976-3.559554-18.216542-3.559554-19.472856 0-36.64247 11.516205-44.18035 29.523362l-18.635313 44.808506c-10.050506 24.288723 1.465699 52.346386 25.963807 62.396892l27.220121 11.306819c-3.978325 27.220121-3.978325 54.859012 0 82.079133l-27.220121 11.30682c-24.288723 10.050506-36.014313 38.108169-25.963807 62.396892l18.635313 44.808506c7.328494 18.007157 24.707494 29.523362 44.18035 29.523362 6.281566 0 12.353747-1.256313 18.216542-3.559555l27.220121-11.306819c16.541458 22.194868 36.014313 41.458338 57.999795 57.999796l-11.306819 27.22012c-10.050506 24.288723 1.465699 52.346386 25.754422 62.396892l44.808506 18.635313c5.862795 2.512627 11.934976 3.559554 18.216542 3.559555 19.472856 0 36.64247-11.516205 44.18035-29.523362l11.306819-27.220121c27.220121 3.978325 54.859012 3.978325 82.079133 0l11.30682 27.220121c7.328494 18.007157 24.707494 29.523362 44.180349 29.523362 6.281566 0 12.353747-1.256313 18.216542-3.559555l44.808507-18.635313c24.288723-10.050506 36.014313-38.108169 25.963807-62.396892l-11.306819-27.22012c22.194868-16.541458 41.458338-36.014313 57.999795-57.999796l27.220121 11.306819c5.862795 2.512627 11.934976 3.559554 18.216542 3.559555 19.472856 0 36.64247-11.516205 44.18035-29.523362l18.635313-44.808506c4.815867-11.72559 4.815867-24.707494 0-36.64247-4.815867-11.72559-14.028831-20.938554-25.963807-25.963808l-27.220121-11.306819c3.978325-27.220121 3.978325-54.859012 0-82.079133l27.220121-11.306819c11.934976-4.815867 21.14794-14.028831 25.963807-25.754422z m-34.967385-14.447603c-1.046928 2.512627-2.931398 4.397096-5.234639 5.234639l-41.248952 16.960229c-8.375422 3.559554-13.191289 12.353747-11.306819 21.14794 6.490952 32.664145 6.490952 65.537675 0 98.20182-1.675084 8.794193 2.931398 17.797771 11.306819 21.147939l41.039566 16.960229c2.512627 1.046928 4.397096 2.931398 5.234639 5.234639 1.046928 2.512627 1.046928 5.025253 0 7.53788l-18.635313 44.808506c-2.093855 4.815867-7.956651 7.328494-12.772519 5.234638l-41.039566-16.960229c-8.375422-3.559554-18.007157-0.628157-23.03241 6.909723-18.425928 27.638892-41.667723 50.880687-69.306615 69.306615-7.53788 5.025253-10.469277 14.656988-6.909723 23.03241l16.960229 41.248952c2.093855 5.025253-0.418771 10.888048-5.234638 12.772518l-44.808506 18.635314c-5.025253 2.093855-10.888048-0.418771-12.772519-5.234639l-16.960229-41.248952c-2.931398-7.119108-10.050506-11.72559-17.588385-11.72559-1.256313 0-2.512627 0.209386-3.76894 0.418771-32.245374 6.490952-65.956446 6.490952-98.20182 0-8.794193-1.675084-17.797771 2.931398-21.14794 11.306819l-16.960229 41.039566c-2.093855 4.815867-7.956651 7.328494-12.772518 5.234639l-44.808506-18.635313c-5.025253-2.093855-7.328494-7.747265-5.234639-12.772518l16.960229-41.039567c3.559554-8.375422 0.628157-18.007157-6.909723-23.03241-27.638892-18.425928-50.880687-41.667723-69.306615-69.516-5.025253-7.53788-14.656988-10.469277-23.032409-6.909723l-41.248952 16.960229c-5.025253 2.093855-10.888048-0.418771-12.772519-5.234639l-18.635313-44.808506c-2.093855-5.025253 0.418771-10.888048 5.234639-12.772518l41.248952-16.960229c8.375422-3.559554 13.191289-12.353747 11.306819-21.14794-6.490952-32.664145-6.490952-65.537675 0-98.20182 1.675084-8.794193-2.931398-17.797771-11.306819-21.14794l-41.039567-16.960229c-5.025253-2.093855-7.328494-7.747265-5.234638-12.772518l18.635313-44.808506c2.093855-4.815867 7.956651-7.328494 12.772518-5.234639l41.039567 16.960229c8.375422 3.559554 18.007157 0.628157 23.032409-6.909723 18.425928-27.638892 41.667723-50.880687 69.306615-69.306615 7.53788-5.025253 10.469277-14.656988 6.909723-23.032409l-16.960229-41.248952c-1.046928-2.512627-1.046928-5.025253 0-7.53788s2.931398-4.397096 5.234639-5.234639l44.808506-18.635313c5.025253-2.093855 10.888048 0.418771 12.772518 5.234639l16.960229 41.248952c3.559554 8.375422 12.353747 13.191289 21.14794 11.306819 32.245374-6.490952 65.956446-6.490952 98.20182 0 8.794193 1.675084 17.797771-2.931398 21.14794-11.306819l16.960229-41.039567c2.093855-4.815867 7.956651-7.328494 12.772518-5.234638l44.808506 18.635313c5.025253 2.093855 7.328494 7.747265 5.234639 12.772518l-16.960229 41.039567c-3.559554 8.375422-0.628157 18.007157 6.909723 23.032409 27.638892 18.425928 50.880687 41.667723 69.306615 69.516001 5.025253 7.53788 14.656988 10.469277 23.032409 6.909723l41.248952-16.960229c5.025253-2.093855 10.888048 0.418771 12.772519 5.234638l18.635313 44.808507c1.256313 2.303241 1.256313 5.025253 0.209386 7.537879z" fill="#1296db" p-id="17398"></path><path d="M568.638789 375.323587c-18.216542-7.53788-37.270627-11.306819-56.743482-11.30682-60.093651 0-113.905736 35.804928-136.938145 91.501483-15.075759 36.64247-15.075759 76.844494 0 113.277579 15.075759 36.64247 43.552193 65.118904 80.194663 80.194663 18.216542 7.53788 37.270627 11.306819 56.743482 11.306819 60.093651 0 113.905736-35.804928 136.938146-91.501482 15.075759-36.64247 15.075759-76.844494 0-113.277579-15.285145-36.64247-43.761579-65.118904-80.194664-80.194663z m45.017892 178.815254c-17.169615 41.248952-57.162253 68.050302-101.761374 68.050301-14.447602 0-28.685819-2.931398-42.086494-8.375422-27.220121-11.306819-48.368061-32.454759-59.67488-59.674879s-11.306819-57.162253 0-84.382374c17.169615-41.248952 57.162253-68.050302 101.761374-68.050302 14.447602 0 28.685819 2.931398 42.086494 8.375422 27.220121 11.306819 48.368061 32.454759 59.67488 59.67488 11.306819 27.429506 11.306819 57.371639 0 84.382374z" fill="#1296db" p-id="17399"></path></svg>