<?xml version="1.0" standalone="no"?><!DOCTYPE svg PUBLIC "-//W3C//DTD SVG 1.1//EN" "http://www.w3.org/Graphics/SVG/1.1/DTD/svg11.dtd"><svg t="1569487135034" class="icon" viewBox="0 0 1024 1024" version="1.1" xmlns="http://www.w3.org/2000/svg" p-id="16839" xmlns:xlink="http://www.w3.org/1999/xlink" width="200" height="200"><defs><style type="text/css"></style></defs><path d="M463.090121 350.621945h37.185087c5.84934 29.664508 17.548019 57.03106 33.633702 81.264039l-26.322028 26.322027c-9.400724 9.400724-9.400724 24.650788 0 34.051513l28.619983 28.619982c9.400724 9.400724 24.650788 9.400724 34.051512 0l26.322028-26.322028c24.232978 16.294589 51.808436 27.784363 81.264038 33.633703v37.185087c0 13.369919 10.863059 24.024073 24.024073 24.024073h40.527567c13.369919 0 24.024073-10.863059 24.024073-24.024073v-37.185087c29.664508-5.84934 57.03106-17.548019 81.264038-33.633703l26.322028 26.322028c9.400724 9.400724 24.650788 9.400724 34.051512 0l28.619983-28.619982c9.400724-9.400724 9.400724-24.650788 0-34.051513l-26.322028-26.322027c16.294589-24.232978 27.784363-51.808436 33.633703-81.264039h37.185087c13.369919 0 24.024073-10.863059 24.024073-24.024073v-40.318662c0-13.369919-10.863059-24.024073-24.024073-24.024073h-37.185087c-5.84934-29.664508-17.548019-57.03106-33.633703-81.264038l26.322028-26.322028c9.400724-9.400724 9.400724-24.650788 0-34.051512l-28.828888-28.619983c-9.400724-9.400724-24.650788-9.400724-34.051512 0l-26.322028 26.322028c-24.232978-16.294589-51.808436-27.784363-81.264038-33.633702v-37.185087c0-13.369919-10.863059-24.024073-24.024073-24.024073h-40.527567c-13.369919 0-24.024073 10.863059-24.024073 24.024073v37.185087c-29.664508 5.84934-57.03106 17.548019-81.264038 33.633702l-26.113123-26.322028c-9.400724-9.400724-24.650788-9.400724-34.051512 0l-28.619983 28.619983c-9.400724 9.400724-9.400724 24.650788 0 34.051512l26.322028 26.322028c-16.294589 24.232978-27.784363 51.808436-33.633702 81.264038h-37.185087c-13.369919 0-24.024073 10.863059-24.024073 24.024073v40.527567c0 13.161014 10.654154 23.815168 24.024073 23.815168z m258.833274-146.651298c56.61325 0 102.572347 45.959096 102.572346 102.572347s-45.959096 102.572347-102.572346 102.572346-102.572347-45.959096-102.572347-102.572346 45.959096-102.572347 102.572347-102.572347z" fill="#1296db" p-id="16840"></path><path d="M723.38573 794.962844c-2.92467 7.311674-11.280869 10.654154-18.383639 7.729484l-47.212526-19.637068c-8.356199-3.551385-17.965829-0.626715-22.979548 6.893864a289.040934 289.040934 0 0 1-80.428419 80.428419c-7.520579 5.01372-10.445249 14.623349-6.893864 22.979548l19.428163 47.212526c2.92467 7.102769-0.41781 15.458969-7.729484 18.383638l-51.390626 21.517214c-7.102769 2.92467-15.458969-0.41781-18.383638-7.729485l-19.637069-47.212526c-3.551385-8.356199-12.325394-13.161014-21.099403-11.280869-37.602897 7.520579-75.832509 7.520579-113.644311 0-8.774009-1.67124-17.756924 2.92467-21.099403 11.280869l-19.637068 47.212526c-2.92467 7.102769-11.280869 10.654154-18.383639 7.729485l-51.390626-21.308309c-3.551385-1.462335-6.267149-4.1781-7.729484-7.729484s-1.462335-7.311674 0-10.863059l19.637068-47.212526c3.551385-8.356199 0.626715-17.965829-6.893864-22.979548a289.040934 289.040934 0 0 1-80.428418-80.428419c-5.01372-7.520579-14.623349-10.445249-22.979549-6.893864l-47.212526 19.637068c-7.311674 2.92467-15.458969-0.41781-18.383638-7.729484l-21.308308-51.390626c-2.92467-7.102769 0.41781-15.458969 7.729484-18.383638l47.212526-19.637069c8.356199-3.551385 13.161014-12.325394 11.280869-21.099403-7.520579-37.602897-7.520579-75.832509 0-113.644311 1.67124-8.774009-2.92467-17.756924-11.280869-21.099403l-47.212526-19.637068c-3.551385-1.462335-6.267149-4.1781-7.729484-7.729485s-1.462335-7.311674 0-10.863059l21.308308-51.390626c1.462335-3.551385 4.1781-6.267149 7.729484-7.729484s7.311674-1.462335 10.863059 0l47.212526 19.637068c8.356199 3.551385 17.965829 0.626715 22.979549-6.893864 21.308308-31.962462 48.465956-59.12011 80.428418-80.428419 7.520579-5.01372 10.445249-14.623349 6.893864-22.979548l-19.637068-47.212526c-1.462335-3.551385-1.462335-7.311674 0-10.863059s4.1781-6.267149 7.729484-7.729484l51.390626-21.308309c7.102769-2.92467 15.458969 0.41781 18.383639 7.729485l19.637068 47.212526c3.969195 9.609629 15.041159 14.205539 24.650788 10.236344 9.609629-3.969195 14.205539-15.041159 10.236344-24.650788l-19.637068-47.212526c-11.071964-26.530933-41.363187-39.065232-67.89412-28.202173l-51.390625 21.308309c-12.743204 5.222625-22.770643 15.250064-28.202173 28.202172-5.222625 12.743204-5.222625 26.948743 0 39.900852l13.787729 33.215892c-26.322028 19.428163-49.510481 42.616617-69.14755 69.14755l-33.215892-13.787729c-12.743204-5.222625-26.948743-5.222625-39.900852 0-12.743204 5.222625-22.770643 15.250064-28.202172 28.202172l-21.308309 51.390626c-5.222625 12.743204-5.222625 26.948743 0 39.900852 5.222625 12.743204 15.250064 22.770643 28.202173 28.202173l33.215892 13.787729a319.624624 319.624624 0 0 0 0 97.767532l-33.215892 13.787728c-26.530933 11.071964-39.065232 41.363187-28.202173 67.89412l21.308309 50.763911c10.863059 26.530933 41.363187 39.065232 67.894119 28.202172l33.215892-13.787728c19.428163 26.322028 42.616617 49.510481 69.14755 69.147549l-13.787729 33.215892c-5.222625 12.743204-5.222625 26.948743 0 39.900852 5.222625 12.743204 15.250064 22.770643 28.202173 28.202173l51.390625 21.308308c26.530933 10.863059 57.03106-1.67124 67.89412-28.202173l13.787729-33.215892a319.624624 319.624624 0 0 0 97.767532 0l13.787729 33.215892c8.356199 20.054878 27.784363 32.171367 48.048146 32.171368 6.684959 0 13.369919-1.25343 19.845973-3.969195l51.390626-21.308308c26.530933-11.071964 39.065232-41.363187 28.202173-67.89412l-13.787729-33.215892c26.322028-19.428163 49.510481-42.616617 69.147549-69.147549l33.215892 13.787728c26.530933 11.071964 57.03106-1.67124 67.89412-28.202172l21.308308-51.390626c5.222625-12.743204 5.222625-26.948743 0-39.900852-5.222625-12.743204-15.250064-22.770643-28.202173-28.202173l-47.212526-19.637068c-9.609629-3.969195-20.681593 0.626715-24.650788 10.236344s0.626715 20.681593 10.236344 24.650788l47.212526 19.637069c3.551385 1.462335 6.267149 4.1781 7.729485 7.729484s1.462335 7.311674 0 10.863059l-21.517213 51.390626z" fill="#1296db" p-id="16841"></path><path d="M390.808997 498.317768c10.445249 0 18.801448-8.565104 18.801448-19.010353s-8.565104-18.801448-19.010353-18.801449h-0.208905c-44.705666 0.41781-86.486663 17.965829-117.822411 49.719386-31.335747 31.753557-48.465956 73.952364-48.048146 118.449125 0.41781 44.705666 17.965829 86.486663 49.719386 117.822411 31.544652 31.126842 73.116744 48.048146 117.195696 48.048146h1.25343c44.705666-0.41781 86.486663-17.965829 117.82241-49.719386 31.335747-31.753557 48.465956-73.952364 48.048146-118.449125 0-10.445249-8.565104-18.801448-19.010353-18.801449h-0.208905c-10.445249 0-18.801448 8.565104-18.801449 19.010354 0.208905 34.469322-12.952109 67.0585-37.185087 91.709287s-56.61325 38.229612-91.082572 38.438517h-1.044525c-34.051512 0-66.431785-13.161014-90.664763-37.185087-24.650788-24.232978-38.229612-56.61325-38.438517-91.082573s12.952109-67.0585 37.185087-91.709287c24.650788-24.441883 57.03106-38.229612 91.500383-38.438517zM980.965574 369.632299c23.606263 0 43.034426-19.219258 43.034426-43.034427v-40.318662c0-23.606263-19.219258-43.034426-43.034426-43.034426h-21.935024c-5.640435-20.890498-13.787729-40.945377-24.650788-59.53792l15.667874-15.667874c16.712399-16.712399 16.712399-44.078951 0-60.79135l-28.619983-28.619983c-8.147294-8.147294-19.010353-12.534299-30.291222-12.534299-11.489774 0-22.352833 4.387005-30.291223 12.534299l-15.667873 15.667874c-18.801448-10.863059-38.647422-19.219258-59.537921-24.650788v-22.143928c0-23.606263-19.219258-43.034426-43.034426-43.034426h-40.527567c-23.606263 0-43.034426 19.219258-43.034426 43.034426v22.143928c-20.890498 5.640435-40.945377 13.787729-59.53792 24.650788l-15.667874-15.667874c-8.147294-8.147294-19.010353-12.534299-30.291223-12.534299-11.489774 0-22.352833 4.387005-30.291222 12.534299l-28.619983 28.619983c-16.712399 16.712399-16.712399 44.078951 0 60.79135l15.667874 15.667874c-10.863059 18.801448-19.219258 38.647422-24.650788 59.53792h-22.143928c-23.606263 0-43.034426 19.219258-43.034427 43.034426v40.527567c0 23.606263 19.219258 43.034426 43.034427 43.034427h22.143928c5.640435 20.890498 13.787729 40.945377 24.650788 59.53792l-15.667874 15.667874c-16.712399 16.712399-16.712399 44.078951 0 60.79135l28.619983 28.619982c8.147294 8.147294 19.010353 12.534299 30.291222 12.534299 11.489774 0 22.352833-4.387005 30.291223-12.534299l15.667874-15.667874c18.801448 10.863059 38.647422 19.219258 59.53792 24.650788v22.143929c0 23.606263 19.219258 43.034426 43.034426 43.034426h40.527567c23.606263 0 43.034426-19.219258 43.034426-43.034426v-22.352834c20.890498-5.640435 40.945377-13.787729 59.537921-24.650788l15.667873 15.667874c8.147294 8.147294 19.010353 12.534299 30.291223 12.534299 11.489774 0 22.352833-4.387005 30.291222-12.534299l28.619983-28.619982c16.712399-16.712399 16.712399-44.078951 0-60.79135l-15.667874-15.667874c10.863059-18.801448 19.219258-38.647422 24.650788-59.53792h21.935024z m-55.568726-22.561738c-5.222625 26.739838-15.667874 51.808436-30.917937 74.579078-5.01372 7.520579-3.969195 17.548019 2.297954 23.815168l26.322028 26.322028c2.08905 2.08905 2.08905 5.222625 0 7.311675l-28.619982 28.619982c-1.25343 1.25343-2.715765 1.462335-3.551385 1.462335-1.044525 0-2.297955-0.208905-3.551385-1.462335l-26.322028-26.322027c-6.476054-6.476054-16.503494-7.311674-23.815168-2.297955-22.770643 15.250064-47.839241 25.486408-74.579079 30.917937-8.774009 1.67124-15.250064 9.609629-15.250063 18.592544v37.185087c0 2.715765-2.297955 5.01372-5.01372 5.013719h-40.527567c-2.715765 0-5.01372-2.297955-5.013719-5.013719v-37.185087c0-8.982914-6.476054-16.712399-15.250064-18.592544-26.739838-5.222625-51.808436-15.667874-74.579079-30.917937-3.133575-2.08905-6.893864-3.133575-10.445249-3.133575-4.804815 0-9.818534 1.880145-13.369919 5.640435l-26.322028 26.322027c-1.25343 1.25343-2.715765 1.462335-3.551385 1.462335-1.044525 0-2.297955-0.208905-3.551384-1.462335l-28.619983-28.619982c-2.08905-2.08905-2.08905-5.222625 0-7.311675l26.322028-26.322028c6.476054-6.476054 7.311674-16.503494 2.297955-23.815168-15.250064-22.770643-25.486408-47.839241-30.917938-74.579079-1.67124-8.774009-9.609629-15.250064-18.592543-15.250063h-37.185087c-2.715765 0-5.01372-2.297955-5.01372-5.01372v-40.736472c0-2.715765 2.297955-5.01372 5.01372-5.013719h37.185087c8.982914 0 16.712399-6.476054 18.592543-15.250064 5.222625-26.739838 15.667874-51.808436 30.917938-74.579079 5.01372-7.520579 3.969195-17.548019-2.297955-23.815168l-26.322028-26.322028c-1.25343-1.25343-1.462335-2.715765-1.462335-3.551384 0-1.044525 0.208905-2.297955 1.462335-3.551385l28.411078-28.828888c1.25343-1.25343 2.715765-1.462335 3.551385-1.462335 1.044525 0 2.297955 0.208905 3.551384 1.462335l26.322028 26.322028c6.476054 6.476054 16.503494 7.311674 23.815168 2.297955 22.770643-15.250064 47.839241-25.486408 74.579079-30.917938 8.774009-1.67124 15.250064-9.609629 15.250064-18.592543v-36.976182c0-2.715765 2.297955-5.01372 5.013719-5.01372h40.527567c2.715765 0 5.01372 2.297955 5.01372 5.01372v37.185087c0 8.982914 6.476054 16.712399 15.250063 18.592543 26.739838 5.222625 51.808436 15.667874 74.579079 30.917938 7.520579 5.01372 17.548019 3.969195 23.815168-2.297955l26.322028-26.322028c1.25343-1.25343 2.715765-1.462335 3.551385-1.462335 1.044525 0 2.297955 0.208905 3.551385 1.462335l28.619982 28.619983c2.08905 2.08905 2.08905 5.222625 0 7.311674l-26.322028 26.322028c-6.476054 6.476054-7.311674 16.503494-2.297954 23.815168 15.250064 22.770643 25.486408 47.839241 30.917937 74.579079 1.67124 8.774009 9.609629 15.250064 18.592544 15.250064h37.185087c2.715765 0 5.01372 2.297955 5.013719 5.013719v40.527567c0 2.715765-2.297955 5.01372-5.013719 5.01372h-37.185087c-8.982914-0.208905-16.712399 6.058245-18.383639 15.041159z" fill="#1296db" p-id="16842"></path><path d="M722.1323 184.960294c-67.0585 0-121.373795 54.524201-121.373795 121.373795 0 67.0585 54.524201 121.373795 121.373795 121.373795 67.0585 0 121.373795-54.524201 121.373795-121.373795s-54.524201-121.373795-121.373795-121.373795z m0 204.935788c-46.168001 0-83.561993-37.393992-83.561993-83.561993s37.393992-83.561993 83.561993-83.561993 83.561993 37.393992 83.561993 83.561993-37.602897 83.561993-83.561993 83.561993z" fill="#1296db" p-id="16843"></path></svg>