<?xml version="1.0" standalone="no"?><!DOCTYPE svg PUBLIC "-//W3C//DTD SVG 1.1//EN" "http://www.w3.org/Graphics/SVG/1.1/DTD/svg11.dtd"><svg t="1569487132058" class="icon" viewBox="0 0 1024 1024" version="1.1" xmlns="http://www.w3.org/2000/svg" p-id="16655" xmlns:xlink="http://www.w3.org/1999/xlink" width="200" height="200"><defs><style type="text/css"></style></defs><path d="M795.06439 565.128438l-36.247269-20.952178c-7.542784-4.399957-11.942742-12.780829-11.523698-21.371222 0.628565-12.571307 0.209522-25.142614-1.047609-37.504399-1.047609-8.590393 2.723783-16.971264 10.057046-21.999787l35.618703-24.095005c8.799915-5.86661 11.942742-17.180786 7.542784-26.818788l-11.73322-25.561658-11.73322-25.561657c-4.399957-9.42848-14.876047-14.457003-25.142614-11.73322l-40.228182 11.314176c-8.590393 2.30474-17.59983-0.419044-23.675961-6.914219-8.380871-9.218958-17.390308-17.809352-27.237832-25.561657-6.704697-5.447566-10.266567-14.037959-8.590393-22.628353l7.961828-42.3234c1.885696-10.476089-3.980914-20.742657-13.618916-24.304527l-26.399745-9.847523-26.399745-9.847524c-10.057046-3.771392-20.952178 0.209522-26.399744 9.42848l-20.742657 36.037747c-4.399957 7.752306-12.780829 11.942742-21.790265 11.523698-13.199872-0.838087-25.980701-0.419044-38.76153 1.25713-8.799915 1.047609-17.390308-2.723783-22.209309-9.847523l-23.885483-35.19966c-5.86661-8.799915-17.180786-11.942742-26.818788-7.542784l-25.561658 11.73322-25.561658 11.73322c-9.42848 4.399957-14.457003 14.876047-11.733219 25.142613l10.895132 41.06627c2.30474 8.380871-0.419044 17.390308-6.914218 23.256918-9.218958 8.380871-17.809352 17.59983-25.77118 27.656875-5.447566 6.914219-14.037959 10.266567-22.628352 8.590393l-41.694835-7.961827c-10.057046-1.885696-20.323613 3.771392-24.514049 13.199872l-9.847524 26.399744-9.847523 26.399745c-3.771392 10.057046 0.209522 20.952178 9.42848 26.399745l36.666312 21.1617c7.542784 4.399957 11.942742 12.571307 11.523698 21.371222-0.628565 12.780829-0.209522 25.352136 1.257131 37.713921 1.047609 8.590393-2.723783 17.180786-9.847524 21.999787l-34.780616 23.46644c-8.799915 5.86661-11.942742 17.180786-7.542784 26.818788l11.73322 25.561657 11.733219 25.561658c4.399957 9.42848 14.876047 14.457003 25.142614 11.73322l41.06627-10.895133c8.380871-2.30474 17.390308 0.419044 23.256918 6.914219 8.380871 9.218958 17.59983 17.809352 27.656875 25.771179 6.914219 5.447566 10.266567 14.037959 8.590393 22.628353l-7.961828 41.694834c-1.885696 10.476089 3.980914 20.742657 13.618916 24.304527l26.399745 9.847524 26.399745 9.847524c10.057046 3.771392 20.952178-0.209522 26.399744-9.42848l21.1617-36.666312c4.399957-7.542784 12.571307-11.942742 21.371222-11.523699 11.942742 0.419044 24.095005 0 35.828225-1.25713 8.590393-1.047609 17.180786 2.723783 22.209309 10.057045l24.095005 35.618703c5.86661 8.799915 17.180786 11.942742 26.818788 7.542785l25.561658-11.73322 25.561657-11.73322c9.42848-4.399957 14.457003-14.876047 11.73322-25.142614l-10.895133-40.437704c-2.30474-8.590393 0.419044-17.390308 7.123741-23.46644 9.218958-8.380871 17.809352-17.390308 25.771179-27.237832 5.447566-6.704697 14.037959-10.266567 22.628353-8.590393l42.3234 7.961828c10.476089 1.885696 20.742657-3.980914 24.304527-13.618916l9.847524-26.399744 9.847523-26.399745c3.352349-10.266567-0.838087-21.371222-9.847523-26.609267z m-186.474387-19.485525c-19.066482 53.428055-77.52306 81.294452-130.951114 62.227969-53.428055-19.066482-81.294452-77.52306-62.22797-130.951114s77.52306-81.294452 130.951114-62.22797c53.218533 19.066482 81.08493 77.732581 62.22797 130.951115z" fill="#1296db" p-id="16656"></path><path d="M505.924329 0.467234c-136.608202 1.676174-264.626012 56.36136-360.167945 153.99851-68.304101 70.189797-115.027459 157.560381-134.932028 252.892792-19.276004 92.81815-12.780829 188.988648 19.276004 278.035406 2.723783 7.752306 10.057046 12.571307 17.809352 12.571307 2.095218 0 4.399957-0.419044 6.495175-1.047609 9.847524-3.56187 15.085568-14.457003 11.523698-24.304527-61.808926-172.226906-20.742657-360.586988 107.065631-491.538103 88.418192-90.51341 206.798-141.00816 333.349157-142.474812s245.978573 46.513836 336.491983 134.932028l2.933305 2.723783-57.199447 0.628566c-10.476089 0.209522-18.85696 8.799915-18.85696 19.276004 0.209522 10.476089 8.590393 18.85696 19.066482 18.85696h0.209522l103.084717-1.25713c10.476089-0.209522 18.85696-8.799915 18.856961-19.276004l-1.257131-103.084718c-0.209522-10.476089-8.590393-18.85696-19.066482-18.85696h-0.209522c-10.476089 0.209522-18.85696 8.799915-18.856961 19.276004l0.628566 57.199447-2.933305-2.723784c-97.427629-95.541933-226.702569-147.293813-363.310772-145.82716zM112.861465 829.963972l1.25713 103.084717c0.209522 10.476089 8.590393 18.85696 19.066482 18.856961h0.209522c10.476089-0.209522 18.85696-8.799915 18.856961-19.276004l-0.628566-57.199447 2.933305 2.723783c99.313325 97.218107 228.588265 145.617639 357.653684 145.408117 133.046332 0 265.883142-51.332837 366.034554-153.788988 68.513623-69.980275 115.027459-157.350859 134.932029-252.892792 19.276004-92.81815 12.780829-188.988648-19.276004-278.035406-3.56187-9.847524-14.457003-15.085568-24.304527-11.523698s-15.085568 14.457003-11.523698 24.304527c61.808926 172.226906 20.742657 360.586988-107.065631 491.538102-182.493473 186.89343-483.157231 190.245779-669.84114 7.752306l-2.933305-2.723783 57.199447-0.628565c10.476089-0.209522 18.85696-8.799915 18.85696-19.276004-0.209522-10.476089-8.590393-18.85696-19.066482-18.856961h-0.209522l-103.084717 1.257131c-10.895133 0.209522-19.276004 8.799915-19.066482 19.276004z" fill="#1296db" p-id="16657"></path><path d="M312.745245 353.72096c-1.047609 1.257131-2.723783 1.885696-4.190435 1.676174l-41.694835-8.17135c-2.514261-0.419044-4.819001-0.628565-7.333262-0.628565-16.552221 0-31.428267 9.847524-37.923443 24.933092-0.209522 0.209522-0.209522 0.628565-0.419044 0.838087l-19.695047 52.79949c-6.914219 18.647439 0.419044 39.390095 17.809351 49.44714l36.666312 21.1617c1.257131 0.838087 2.095218 2.30474 2.095218 3.980914-0.628565 13.618916-0.209522 27.447354 1.466653 40.856748 0.209522 1.676174-0.419044 3.352349-1.676175 4.190436l-35.409181 23.885483c-16.342699 11.104654-22.209309 32.266355-14.037959 50.285228l23.256917 50.913793c6.495175 14.457003 20.952178 23.675961 36.875834 23.675961 3.56187 0 6.914219-0.419044 10.476089-1.466652l41.06627-10.895133c1.466652-0.419044 3.142827 0.209522 4.190435 1.466653 9.009437 10.057046 19.276004 19.276004 29.961615 27.866397 1.257131 1.047609 1.885696 2.723783 1.676175 4.190435l-7.961828 41.694835c-3.771392 19.485526 7.123741 38.76153 25.771179 45.675749l52.79949 19.695048c4.609479 1.676174 9.42848 2.514261 14.247481 2.514261 14.457003 0 27.866397-7.752306 35.199659-20.323613l21.1617-36.666312c0.838087-1.257131 2.30474-2.095218 4.190436-2.095218 12.780829 0.628565 25.980701 0 38.76153-1.257131 1.676174-0.209522 3.352349 0.419044 4.190436 1.676175l24.095005 35.618703c7.542784 11.104654 20.114091 17.809352 33.523485 17.809351 5.86661 0 11.523698-1.257131 16.761742-3.56187l50.913794-23.256918c18.018873-8.17135 27.447354-28.075919 22.209309-47.351923l-10.895133-40.437704c-0.419044-1.466652 0.209522-3.142827 1.466652-4.399957 10.266567-9.218958 19.485526-19.066482 27.656876-29.542572 1.047609-1.257131 2.723783-2.095218 4.190435-1.676174l42.323401 7.961828c2.514261 0.419044 5.028523 0.628565 7.542784 0.628565 16.971264 0 32.266355-10.685611 38.132964-26.399745l19.695048-52.799489c6.914219-18.647439-0.419044-39.390095-17.809352-49.447141l-36.247268-20.952178c-1.257131-0.838087-2.095218-2.30474-2.095218-3.980914 0.628565-13.409394 0.209522-27.237832-1.257131-40.647226-0.209522-1.676174 0.419044-3.142827 1.676175-4.190435l35.618703-24.095005c16.342699-11.104654 22.209309-32.266355 14.037959-50.285228l-23.256918-50.913793c-6.495175-14.457003-20.952178-23.675961-36.875834-23.675962-3.56187 0-6.914219 0.419044-10.68561 1.466653l-40.228183 11.314176c-1.466652 0.419044-3.142827-0.209522-4.399957-1.466653-9.218958-10.057046-19.066482-19.485526-29.33305-27.656875-1.466652-1.047609-2.095218-2.723783-1.676174-4.190436l7.961828-42.3234c3.771392-19.485526-7.123741-38.76153-25.77118-45.675748l-52.799489-19.695048c-4.609479-1.676174-9.42848-2.514261-14.247481-2.514261-14.457003 0-27.866397 7.752306-35.19966 20.323612l-20.952178 36.037747c-0.838087 1.257131-2.095218 2.095218-4.190436 2.095218-14.037959-0.838087-28.285441-0.419044-42.113878 1.257131-1.676174 0.209522-3.352349-0.419044-4.399957-1.676175l-23.885484-35.199659c-7.542784-11.104654-20.114091-17.809352-33.523485-17.809352-5.86661 0-11.523698 1.257131-16.761743 3.561871l-50.913793 23.256918c-18.018873 8.17135-27.447354 28.075919-22.209309 47.351922l10.895133 41.06627c0.419044 1.466652-0.209522 3.142827-1.466653 4.190436-9.218958 9.009437-18.647439 19.066482-27.02831 29.961615z m29.752094 23.466439c7.123741-9.218958 15.085568-17.809352 23.675961-25.352136 11.73322-10.685611 16.552221-26.818788 12.571307-42.113878l-10.895133-41.066269c-0.419044-1.257131 0.209522-2.514261 1.257131-2.933305l50.913793-23.256918c0.419044-0.209522 0.628565-0.209522 1.047609-0.209522s1.466652 0 2.095218 1.047609l23.885483 35.199659c8.799915 12.990351 24.304527 20.114091 40.228183 18.228396 11.73322-1.466652 23.675961-1.885696 35.409181-1.047609 16.133177 1.047609 31.428267-7.333262 39.180573-20.952179l20.742657-36.037746c0.628565-1.257131 1.885696-1.676174 3.352348-1.257131l52.79949 19.695048c1.257131 0.419044 1.885696 1.885696 1.676174 2.933305l-7.961828 42.3234c-2.933305 15.29509 2.933305 31.009224 15.29509 41.066269 8.799915 6.914219 17.180786 14.876047 24.933092 23.46644 8.17135 9.009437 19.485526 14.037959 31.428268 14.037959 3.771392 0 7.542784-0.419044 11.314176-1.466652l40.018661-11.104655c1.047609-0.209522 2.30474 0 3.142826 1.257131l23.256918 50.913793c0.419044 1.047609 0 2.514261-0.838087 3.142827l-35.618703 24.095005c-12.990351 8.799915-19.904569 24.095005-18.228395 39.809139 1.257131 11.523698 1.676174 23.047396 1.047609 34.571094-0.838087 15.923656 7.123741 31.009224 20.952178 38.971052l36.247269 20.952178c1.257131 0.628565 1.676174 1.885696 1.25713 3.352348l-19.695047 52.79949c-0.419044 1.047609-1.885696 1.885696-2.933305 1.676174l-42.3234-7.961828c-2.514261-0.419044-5.238045-0.838087-7.752306-0.838087-12.990351 0-24.933092 5.86661-33.104442 16.133177-6.914219 8.799915-14.876047 17.180786-23.675962 25.142614-11.942742 10.895133-16.761743 27.02831-12.571306 42.3234l10.895132 40.437705c0.419044 1.257131-0.209522 2.514261-1.25713 2.933305l-50.913794 23.256917c-0.419044 0.209522-0.628565 0.209522-1.047609 0.209522s-1.466652 0-2.095217-1.047609l-24.095005-35.618703c-8.799915-12.780829-24.095005-20.114091-40.018661-18.228395-10.895133 1.257131-21.999787 1.676174-32.89492 1.047609-15.923656-0.628565-30.799702 7.542784-38.76153 21.1617l-21.1617 36.666312c-0.628565 1.257131-1.885696 1.676174-3.352348 1.257131l-52.79949-19.695048c-1.257131-0.419044-1.885696-1.885696-1.676174-2.933305l7.961828-41.694835c2.933305-15.504612-2.933305-31.218746-15.504612-41.275791-9.218958-7.123741-17.59983-15.085568-25.352136-23.675961-7.961828-8.799915-19.485526-13.828438-31.428267-13.828438-3.56187 0-7.333262 0.419044-10.895133 1.466653l-41.066269 10.895132c-1.047609 0.209522-2.30474 0-3.142827-1.25713l-23.256918-50.913794c-0.419044-1.047609 0-2.514261 0.838087-3.142826l35.19966-23.885484c12.990351-8.799915 20.114091-24.304527 18.228395-40.01866-1.257131-11.314176-1.676174-23.047396-1.257131-34.571094 0.628565-15.923656-7.333262-30.799702-20.952178-38.552008l-36.666312-21.161701c-1.257131-0.628565-1.676174-1.885696-1.257131-3.352348l19.485526-52.170924c0.628565-1.047609 1.885696-1.885696 2.933305-1.885696h0.209522l41.694834 7.961828c2.514261 0.419044 5.238045 0.838087 7.961828 0.838087 12.990351-0.628565 25.142614-6.495175 33.313964-16.761743z" fill="#1296db" p-id="16658"></path><path d="M471.143713 625.889756c13.199872 4.609479 26.818788 7.123741 40.647226 7.12374 51.332837 0 97.427629-32.475876 114.608415-80.875408 22.418831-63.066057-10.685611-132.83681-73.751667-155.255641-13.199872-4.609479-26.818788-7.123741-40.647226-7.123741-51.332837 0-97.427629 32.475876-114.608415 80.875408-22.418831 63.275578 10.685611 132.83681 73.751667 155.255642z m-37.923442-142.474813c11.73322-33.313963 43.371009-55.523272 78.78019-55.523272 9.42848 0 18.85696 1.676174 28.075919 4.819001 43.371009 15.504612 66.208883 63.275578 50.704271 106.646587-11.73322 33.313963-43.371009 55.523272-78.78019 55.523273-9.42848 0-18.85696-1.676174-28.075919-4.819001-43.371009-15.29509-66.208883-63.275578-50.704271-106.646588z" fill="#1296db" p-id="16659"></path></svg>