<?xml version="1.0" standalone="no"?><!DOCTYPE svg PUBLIC "-//W3C//DTD SVG 1.1//EN" "http://www.w3.org/Graphics/SVG/1.1/DTD/svg11.dtd"><svg t="1569487137366" class="icon" viewBox="0 0 1024 1024" version="1.1" xmlns="http://www.w3.org/2000/svg" p-id="17023" xmlns:xlink="http://www.w3.org/1999/xlink" width="200" height="200"><defs><style type="text/css"></style></defs><path d="M1004.955651 727.674114v-51.901083c0-10.882485-4.813407-21.346413-13.393828-28.252606-46.878398-38.507255-97.314531-64.03924-107.778459-69.061925-1.255671-0.627836-1.883507-1.674228-1.883507-3.139179v-73.038217c9.208257-6.069078 15.277335-16.533006 15.277335-28.461885v-75.758839c0-37.670141-30.55467-68.224811-68.224811-68.224811h-16.323728c-37.670141 0-68.224811 30.55467-68.224811 68.224811v75.758839c0 11.928878 6.069078 22.183527 15.277335 28.461885v73.038217c0 1.255671-0.627836 2.511343-1.883507 3.139179-10.254649 5.022685-60.900061 30.55467-107.778459 69.061925-8.371142 6.906193-13.393828 17.370121-13.393828 28.252606v51.901083" fill="#1296db" p-id="17024"></path><path d="M215.975475 229.38186c75.549561-77.223789 176.631106-120.544451 284.618843-121.800123 106.941345-1.255671 208.232168 38.925812 285.037401 113.010423l-42.692827 0.418557c-10.463928 0.209279-18.835071 8.7897-18.83507 19.253628 0.209279 10.463928 8.580421 18.835071 19.044349 18.83507h0.209278l88.524832-1.046392c10.463928-0.209279 18.835071-8.7897 18.83507-19.253628l-1.046392-88.524831c-0.209279-10.463928-8.7897-18.625792-19.253628-18.835071-10.463928 0.209279-18.835071 8.7897-18.835071 19.253628l0.418557 42.902105c-83.920703-81.200082-194.629062-125.14858-311.825056-123.892908-118.242387 1.255671-228.741467 48.552626-311.19722 133.101165-7.32475 7.534028-7.115471 19.462906 0.209278 26.787655 7.32475 7.534028 19.462906 7.32475 26.787656-0.209278zM198.605355 873.331993l-0.418558-42.902105c83.083589 80.153689 191.699162 123.892908 307.01165 123.892908h5.231964c118.242387-1.255671 228.741467-48.552626 311.19722-133.101165 7.32475-7.534028 7.115471-19.462906-0.209278-26.787656-7.534028-7.32475-19.462906-7.115471-26.787656 0.209279-75.549561 77.223789-176.631106 120.544451-284.618843 121.800122-107.150623 1.255671-208.232168-38.925812-285.037401-113.010423l42.692827-0.418557c10.463928-0.209279 18.835071-8.7897 18.83507-19.253628-0.209279-10.463928-8.580421-18.835071-19.044349-18.83507h-0.209278l-88.524832 1.046393c-5.022685 0-9.836092 2.092786-13.393828 5.650521-3.557736 3.557736-5.441243 8.371142-5.441242 13.393828l1.046393 88.524831c0.209279 10.463928 8.580421 18.835071 19.044349 18.835071h0.209278c10.254649 0 18.625792-8.580421 18.416514-19.044349zM160.307378 502.281104c0-6.278357-3.139178-12.347435-8.371143-15.695892-4.185571-2.9299-6.696914-7.534028-6.696914-12.556714v-75.758839c0-27.206213 21.974249-49.180462 49.180462-49.180462h16.323728c27.206213 0 49.180462 21.974249 49.180462 49.180462v75.758839c0 5.022685-2.511343 9.836092-6.696914 12.556714-5.231964 3.557736-8.371142 9.417535-8.371142 15.695892v73.038217c0 8.371142 4.813407 16.323728 12.556713 20.090742 9.417535 4.604128 58.597997 29.508277 104.011445 66.759861 3.976293 3.348457 6.487635 8.371142 6.487636 13.603107v51.901083c0 10.463928 8.580421 19.044349 19.044349 19.044349s19.044349-8.580421 19.044349-19.044349v-51.901083c0-16.742285-7.32475-32.438177-20.300021-42.902105-40.181484-33.066013-83.292867-56.923769-102.755773-66.96914v-54.621704c9.626814-9.836092 15.277335-23.020642 15.277335-37.251584v-75.758839c0-48.134069-39.135091-87.059881-87.059882-87.059882h-16.323728c-48.134069 0-87.059881 39.135091-87.059881 87.059882v75.758839c0 14.021664 5.650521 27.415492 15.277335 37.251584v54.621704c-19.253628 10.045371-62.365011 33.903127-102.755774 66.96914-12.975271 10.673207-20.30002 26.15982-20.30002 42.902105v51.901083c0 10.463928 8.580421 19.044349 19.044349 19.044349s19.044349-8.580421 19.044349-19.044349v-51.901083c0-5.441243 2.302064-10.254649 6.487636-13.603107 45.413448-37.251584 94.59391-62.155733 104.011444-66.759861 7.534028-3.767014 12.556714-11.510321 12.556714-20.090742v-73.038217h-0.837114zM1004.955651 746.718463c10.463928 0 19.044349-8.580421 19.044349-19.044349v-51.901083c0-16.742285-7.32475-32.438177-20.30002-42.902105-40.181484-33.066013-83.292867-56.923769-102.755774-66.96914v-54.621704c9.626814-9.836092 15.277335-23.020642 15.277335-37.251584v-75.758839c0-48.134069-39.135091-87.059881-87.059881-87.059882h-16.323728c-48.134069 0-87.059881 39.135091-87.059882 87.059882v75.758839c0 14.021664 5.650521 27.415492 15.277335 37.251584v54.621704c-19.253628 10.045371-62.365011 33.903127-102.755773 66.96914-12.975271 10.673207-20.30002 26.15982-20.300021 42.902105v51.901083c0 10.463928 8.580421 19.044349 19.044349 19.044349s19.044349-8.580421 19.044349-19.044349v-51.901083c0-5.441243 2.302064-10.254649 6.487636-13.603107 45.413448-37.251584 94.59391-62.155733 104.011445-66.759861 7.534028-3.767014 12.556714-11.510321 12.556713-20.090742v-73.038217c0-6.278357-3.139178-12.347435-8.371142-15.695892-4.185571-2.9299-6.696914-7.534028-6.696914-12.556714v-75.758839c0-27.206213 21.974249-49.180462 49.180462-49.180462h16.323728c27.206213 0 49.180462 21.974249 49.180462 49.180462v75.758839c0 5.022685-2.511343 9.836092-6.696914 12.556714-5.231964 3.557736-8.371142 9.417535-8.371143 15.695892v73.038217c0 8.371142 4.813407 16.323728 12.556714 20.090742 9.417535 4.604128 58.597997 29.508277 104.011445 66.759861 3.976293 3.348457 6.487635 8.371142 6.487635 13.603107v51.901083c-0.627836 10.463928 7.743307 19.044349 18.207235 19.044349z" fill="#1296db" p-id="17025"></path></svg>