<?xml version="1.0" standalone="no"?><!DOCTYPE svg PUBLIC "-//W3C//DTD SVG 1.1//EN" "http://www.w3.org/Graphics/SVG/1.1/DTD/svg11.dtd"><svg t="1569487145631" class="icon" viewBox="0 0 1024 1024" version="1.1" xmlns="http://www.w3.org/2000/svg" p-id="17579" xmlns:xlink="http://www.w3.org/1999/xlink" width="200" height="200"><defs><style type="text/css"></style></defs><path d="M970.2264 957.881488H538.572946c-19.249694 0-34.733143-15.483449-34.733142-34.733143V507.606048h500.910502v415.542297c0.209236 19.040458-15.483449 34.733143-34.523906 34.733143z" fill="#1296db" p-id="17580"></path><path d="M131.609318 976.712709h289.582345c10.46179 0 19.040458-8.578668 19.040458-19.040457s-8.578668-19.040458-19.040458-19.040458H131.609318c-51.681242 0-93.528402-42.056396-93.528403-93.528402V245.015121H167.388639v80.137311c0 10.46179 8.578668 19.040458 19.040458 19.040457s19.040458-8.578668 19.040458-19.040457v-80.137311h253.593788v80.137311c0 10.46179 8.578668 19.040458 19.040458 19.040457s19.040458-8.578668 19.040457-19.040457v-80.137311h129.307724v42.684103c0 10.46179 8.578668 19.040458 19.040458 19.040457s19.040458-8.578668 19.040457-19.040457V225.974663c0-10.46179-8.578668-19.040458-19.040457-19.040458h-148.348182c-2.51083-88.715979-75.324888-159.85615-164.668573-159.85615S170.31794 118.427462 167.807111 206.934205H19.040458c-10.46179 0-19.040458 8.578668-19.040458 19.040458v619.128729c0.209236 72.604822 59.213731 131.609318 131.609318 131.609317z m200.447895-891.553739c68.21087 0 124.076829 54.192072 126.796894 121.984471H205.469555c2.51083-67.792399 58.376788-121.984471 126.587658-121.984471z" fill="#1296db" p-id="17581"></path><path d="M619.965672 463.248059v25.526767h-116.125868c-10.46179 0-19.040458 8.578668-19.040458 19.040458v380.181447c0 48.961177 39.754802 88.925215 88.925215 88.925214h361.350224c48.961177 0 88.925215-39.754802 88.925215-88.925214V507.606048c0-10.46179-8.578668-19.040458-19.040458-19.040457h-116.125868v-25.526768c0-74.069473-60.25991-134.329383-134.329383-134.329383s-134.538619 60.469146-134.538619 134.538619z m365.953413 63.398447v361.350225c0 28.037597-22.806702 50.844299-50.8443 50.844299H573.724561c-28.037597 0-50.844299-22.806702-50.844299-50.844299V526.646506h97.08541v53.355129c0 10.46179 8.578668 19.040458 19.040458 19.040457s19.040458-8.578668 19.040458-19.040457v-53.355129h192.915406v53.355129c0 10.46179 8.578668 19.040458 19.040458 19.040457s19.040458-8.578668 19.040458-19.040457v-53.355129h96.876175z m-231.62403-159.85615c53.145893 0 96.457703 43.31181 96.457703 96.457703v25.526767h-192.915406v-25.526767c0.209236-53.355129 43.31181-96.457703 96.457703-96.457703z" fill="#1296db" p-id="17582"></path></svg>