<?xml version="1.0" standalone="no"?><!DOCTYPE svg PUBLIC "-//W3C//DTD SVG 1.1//EN" "http://www.w3.org/Graphics/SVG/1.1/DTD/svg11.dtd"><svg t="1569487148194" class="icon" viewBox="0 0 1024 1024" version="1.1" xmlns="http://www.w3.org/2000/svg" p-id="17762" xmlns:xlink="http://www.w3.org/1999/xlink" width="200" height="200"><defs><style type="text/css"></style></defs><path d="M219.220187 863.335775h579.933252v100.02442c0 18.129426-14.586895 32.716321-32.716321 32.716321H251.936508c-18.129426 0-32.716321-14.586895-32.716321-32.716321v-100.02442zM801.862434 151.286935H221.929182V61.056573c0-23.339031 18.962963-42.301994 42.301994-42.301994h495.329264c23.339031 0 42.301994 18.962963 42.301994 42.301994v90.230362z" fill="#1296db" p-id="17763"></path><path d="M472.198616 952.732601h83.978836c10.41921 0 18.962963-8.543753 18.962963-18.962963s-8.543753-18.962963-18.962963-18.962963h-83.978836c-10.41921 0-18.962963 8.543753-18.962963 18.962963s8.543753 18.962963 18.962963 18.962963z" fill="#1296db" p-id="17764"></path><path d="M824.784697 912.722833V107.526252c0-59.389499-48.553521-107.526252-108.359789-107.526252H308.825397c-60.43142 0-109.401709 48.345136-109.40171 107.526252v677.248677c0 10.41921 8.543753 18.962963 18.962963 18.962963s18.962963-8.543753 18.962963-18.962963v-608.481889h549.925926v663.078551H227.347171l-4.792836-1.250305c-5.626374-1.458689-11.669516 0-16.045584 3.542532-4.584453 3.542532-7.293447 8.960521-7.293448 14.795278v56.055353c0 60.43142 50.220594 111.485551 109.40171 111.485551h407.599511c58.764347 0 108.568173-50.845747 108.568173-111.277167z m-37.925926 0c0 39.176231-32.924705 73.559626-70.642247 73.559625H308.825397c-38.13431 0-71.684168-34.383394-71.684168-73.559625v-35.425316h549.925926v35.425316h-0.208384zM237.141229 138.367114V107.526252c0-37.925926 32.924705-69.80871 71.684168-69.80871h407.391127c38.967847 0 70.642247 31.257631 70.642247 69.80871v30.840862H237.141229z" fill="#1296db" p-id="17765"></path><path d="M617.025641 682.041514c0-10.41921-8.543753-18.962963-18.962963-18.962963h-167.957672c-10.41921 0-18.962963 8.543753-18.962963 18.962963s8.543753 18.962963 18.962963 18.962963H598.062678c10.41921-0.208384 18.962963-8.543753 18.962963-18.962963zM459.487179 730.178266c-10.41921 0-18.962963 8.543753-18.962962 18.962963s8.543753 18.962963 18.962962 18.962963h113.36101c10.41921 0 18.962963-8.543753 18.962963-18.962963s-8.543753-18.962963-18.962963-18.962963h-113.36101zM343.000407 552.843305c-12.086284 10.002442-19.171347 24.797721-19.171347 40.63492v47.719984c0 10.41921 8.543753 18.962963 18.962963 18.962963s18.962963-8.543753 18.962963-18.962963v-47.719984c0-4.376068 1.875458-8.543753 5.417989-11.461131 41.468457-34.17501 86.687831-56.888889 95.231583-61.056573 7.501832-3.750916 12.294668-11.461131 12.294669-19.7965v-67.099715c0-6.251526-3.125763-12.294668-8.335369-15.628816-3.542532-2.292226-5.626374-6.251526-5.626373-10.41921v-69.600326c0-24.172568 19.588116-43.760684 43.760683-43.760683h15.003664c24.172568 0 43.760684 19.588116 43.760683 43.760683v69.600326c0 4.167684-2.083842 8.126984-5.626373 10.41921-5.209605 3.542532-8.335368 9.377289-8.335369 15.628816v67.099715c0 8.335368 4.792837 16.045584 12.294669 19.7965 8.543753 4.167684 53.763126 26.881563 95.231583 61.056573 3.334147 2.708995 5.417989 6.876679 5.417989 11.461131v47.719984c0 10.41921 8.543753 18.962963 18.962963 18.962963s18.962963-8.543753 18.962963-18.962963v-47.719984c0-15.8372-6.876679-30.632479-19.171347-40.63492-36.467236-30.007326-75.643468-51.887668-93.772894-61.264957v-48.761905c8.960521-9.168905 13.961742-21.671958 13.961742-34.800163v-69.600326c0-45.010989-36.467236-81.478225-81.478225-81.478225h-15.003663c-45.010989 0-81.478225 36.467236-81.478226 81.478225v69.600326c0 13.128205 5.001221 25.422873 13.961742 34.800163v48.761905c-18.546195 9.377289-57.514042 31.257631-94.189662 61.264957z" fill="#1296db" p-id="17766"></path></svg>