<?xml version="1.0" standalone="no"?><!DOCTYPE svg PUBLIC "-//W3C//DTD SVG 1.1//EN" "http://www.w3.org/Graphics/SVG/1.1/DTD/svg11.dtd"><svg t="1569487150672" class="icon" viewBox="0 0 1024 1024" version="1.1" xmlns="http://www.w3.org/2000/svg" p-id="17946" xmlns:xlink="http://www.w3.org/1999/xlink" width="200" height="200"><defs><style type="text/css"></style></defs><path d="M872.734174 278.87285h-398.000966c-36.010608 0-65.530932 29.520324-65.530933 65.530932v242.862241c0 36.010608 29.520324 65.530932 65.530933 65.530933h51.29418v115.987657l121.012393-115.987657h225.485029c36.010608 0 65.530932-29.520324 65.530933-65.530933v-242.862241c0-36.010608-29.31096-65.530932-65.321569-65.530932z" fill="#1296db" p-id="17947"></path><path d="M673.629009 209.364001c10.4682 0 19.052124-8.583924 19.052124-19.052124V107.613097c0-59.459376-48.363084-107.613097-107.613097-107.613097H178.064418c-59.459376 0-107.613097 48.363084-107.613097 107.613097v661.171516c0 10.4682 8.583924 19.052124 19.052125 19.052124s19.052124-8.583924 19.052124-19.052124V107.613097c0-38.522976 31.195236-69.718212 69.718212-69.718213h406.794254c38.522976 0 69.718212 31.195236 69.718213 69.718213v22.611312H176.59887c-10.4682 0-19.052124 8.583924-19.052124 19.052124s8.583924 19.052124 19.052124 19.052124h478.187379V190.521241c-0.209364 10.4682 8.37456 18.84276 18.84276 18.84276zM686.818941 911.570861v-174.190849c0-10.4682-8.583924-19.052124-19.052124-19.052124s-19.052124 8.583924-19.052124 19.052124v174.190849c0 36.6387-23.867496 74.742948-63.856021 74.742949H178.064418c-38.313612 0-73.2774-35.59188-73.2774-74.742949v-30.776508h463.950626c10.4682 0 19.052124-8.583924 19.052124-19.052124s-8.583924-19.052124-19.052124-19.052124H85.944257c-10.4682 0-19.052124 8.583924-19.052124 19.052124v49.619268c0 60.087468 51.922272 112.637833 111.172285 112.637833h406.794254c57.156372 0.209364 101.960269-49.20054 101.960269-112.428469z" fill="#1296db" p-id="17948"></path><path d="M957.107867 587.266023v-242.862241c0-46.478808-37.894884-84.373692-84.583057-84.373692h-397.791602c-46.478808 0-84.583056 37.894884-84.583057 84.373692v242.862241c0 46.478808 37.894884 84.583056 84.583057 84.583057h32.45142v96.935533c0 7.537104 4.606008 14.446116 11.51502 17.377212 2.303004 1.04682 5.024736 1.465548 7.537104 1.465548 4.815372 0 9.630744-1.884276 13.189932-5.2341l115.568929-110.753557h217.947925c46.269444 0 84.164328-37.894884 84.164329-84.373693z m-310.068086 46.478809c-4.815372 0-9.630744 1.884276-13.189932 5.2341l-88.979701 85.211148v-71.602488c0-10.4682-8.583924-19.052124-19.052124-19.052124h-51.29418c-25.751772 0-46.478808-20.9364-46.478808-46.478809v-242.862241c0-25.751772 20.9364-46.478808 46.478808-46.478808h398.000966c25.751772 0 46.478808 20.9364 46.478808 46.478808v242.862241c0 25.751772-20.9364 46.478808-46.478808 46.478809h-225.485029v0.209364z" fill="#1296db" p-id="17949"></path><path d="M673.629009 454.738611c-5.024736 0-9.840108 2.09364-13.399296 5.443464-3.559188 3.559188-5.443464 8.37456-5.443464 13.399296s2.09364 9.840108 5.652828 13.399296 8.37456 5.652828 13.399296 5.652828 9.840108-2.09364 13.399296-5.652828c3.559188-3.559188 5.652828-8.37456 5.652828-13.399296s-2.09364-9.840108-5.652828-13.399296c-3.768552-3.349824-8.583924-5.443464-13.60866-5.443464zM744.184677 454.738611c-5.024736 0-9.840108 2.09364-13.399296 5.443464-3.559188 3.559188-5.443464 8.37456-5.443464 13.399296s2.09364 9.840108 5.443464 13.399296c3.559188 3.559188 8.37456 5.652828 13.399296 5.652828s9.840108-2.09364 13.399296-5.652828c3.559188-3.559188 5.443464-8.37456 5.443464-13.399296s-2.09364-9.840108-5.443464-13.399296c-3.349824-3.349824-8.37456-5.443464-13.399296-5.443464zM603.073341 454.738611c-5.024736 0-9.840108 2.09364-13.399297 5.443464-3.559188 3.559188-5.443464 8.37456-5.443464 13.399296s2.09364 9.840108 5.443464 13.399296c3.559188 3.559188 8.37456 5.652828 13.399297 5.652828s9.840108-2.09364 13.399296-5.652828c3.559188-3.559188 5.652828-8.37456 5.652828-13.399296s-2.09364-9.840108-5.652828-13.399296c-3.559188-3.349824-8.37456-5.443464-13.399296-5.443464z" fill="#1296db" p-id="17950"></path></svg>