<?xml version="1.0" standalone="no"?><!DOCTYPE svg PUBLIC "-//W3C//DTD SVG 1.1//EN" "http://www.w3.org/Graphics/SVG/1.1/DTD/svg11.dtd"><svg t="1569487153190" class="icon" viewBox="0 0 1024 1024" version="1.1" xmlns="http://www.w3.org/2000/svg" p-id="18130" xmlns:xlink="http://www.w3.org/1999/xlink" width="200" height="200"><defs><style type="text/css"></style></defs><path d="M90.039216 708.183007h849.359477v139.084967H90.039216z" fill="#1296db" p-id="18131"></path><path d="M512.104575 917.960784c-10.457516 0-19.03268 8.575163-19.03268 19.03268v48.941177h-163.764705c-10.457516 0-19.03268 8.575163-19.03268 19.032679s8.575163 19.03268 19.03268 19.03268h365.594771c10.457516 0 19.03268-8.575163 19.03268-19.03268s-8.575163-19.03268-19.03268-19.032679h-163.764706V936.993464c0-10.666667-8.575163-19.03268-19.03268-19.03268zM111.372549 866.091503h801.254902c25.30719 0 45.803922-20.496732 45.803922-45.803921V268.75817c0-25.30719-20.496732-45.803922-45.803922-45.803922h-224.20915c-10.457516 0-19.03268 8.575163-19.03268 19.03268s8.575163 19.03268 19.03268 19.03268h224.20915c4.392157 0 7.947712 3.555556 7.947712 7.947712v551.738562c0 4.392157-3.555556 7.947712-7.947712 7.947713H111.372549c-4.392157 0-7.947712-3.555556-7.947712-7.947713v-91.816993h755.869281c10.457516 0 19.03268-8.575163 19.032679-19.03268s-8.575163-19.03268-19.032679-19.03268h-95.5817c-7.947712-55.006536-55.424837-97.464052-112.522876-97.464052-10.457516 0-19.03268 8.575163-19.032679 19.03268s8.575163 19.03268 19.032679 19.03268c36.183007 0 66.509804 25.51634 74.039216 59.398692h-86.588235c-7.320261-58.352941-53.751634-104.784314-112.104575-112.313725v-131.973856c0-10.457516-8.575163-19.03268-19.03268-19.03268s-19.03268 8.575163-19.03268 19.03268V579.346405c-56.052288 9.411765-99.973856 54.797386-107.294117 111.477124h-87.006536c7.529412-33.882353 37.856209-59.398693 74.039215-59.398692 10.457516 0 19.03268-8.575163 19.03268-19.03268s-8.575163-19.03268-19.03268-19.03268c-57.098039 0-104.575163 42.457516-112.522875 97.464052h-161.882353c-2.718954-1.464052-5.856209-2.509804-9.202615-2.509804-10.457516 0-19.03268 8.575163-19.03268 19.03268v113.150327c0.20915 25.098039 20.705882 45.594771 45.803922 45.594771z m398.849673-250.980392c44.96732 0 82.614379 32.627451 90.352941 75.503268h-180.496732c7.529412-42.875817 44.96732-75.503268 90.143791-75.503268zM84.601307 649.411765c10.457516 0 19.03268-8.575163 19.03268-19.03268v-361.830065c0-4.392157 3.555556-7.947712 7.947712-7.947713h224.836602c10.457516 0 19.03268-8.575163 19.032679-19.03268s-8.575163-19.03268-19.032679-19.032679H111.372549c-25.30719 0-45.803922 20.496732-45.803922 45.803921v361.830066c0.20915 10.875817 8.575163 19.24183 19.03268 19.24183z" fill="#1296db" p-id="18132"></path><path d="M510.431373 780.96732m-21.960785 0a21.960784 21.960784 0 1 0 43.921569 0 21.960784 21.960784 0 1 0-43.921569 0Z" fill="#1296db" p-id="18133"></path><path d="M342.48366 476.235294c0 10.457516 8.575163 19.03268 19.03268 19.03268h38.901961v43.921568c0 10.457516 8.575163 19.03268 19.032679 19.03268s19.03268-8.575163 19.03268-19.03268v-43.921568h2.509804c10.457516 0 19.03268-8.575163 19.03268-19.03268s-8.575163-19.03268-19.03268-19.03268h-60.653595v-21.124183c0-7.111111 2.091503-14.013072 6.27451-19.869281l34.300654-49.150326c8.156863-11.712418 12.54902-25.51634 12.549019-39.947713V162.509804c0-15.477124 5.647059-30.535948 15.686275-42.248366l61.699346-72.156863 61.908497 71.947713c10.248366 11.921569 15.895425 26.980392 15.895425 42.457516v165.647059c0 13.176471 3.764706 26.143791 10.875817 37.437908l32 50.405229c3.555556 5.647059 5.437908 11.921569 5.437908 18.614379v22.379085h-57.51634c-10.457516 0-19.03268 8.575163-19.032679 19.03268 0 9.830065 7.320261 17.568627 16.732026 18.823529v44.130719c0 10.457516 8.575163 19.03268 19.03268 19.03268s19.03268-8.575163 19.032679-19.03268v-43.921568h40.575164c10.457516 0 19.03268-8.575163 19.032679-19.03268v-41.411765c0-13.803922-3.973856-27.189542-11.294117-38.901961l-32-50.405228c-3.346405-5.228758-5.019608-11.084967-5.019608-17.150327V162.718954c0-24.679739-8.993464-48.522876-25.098039-67.346405l-76.54902-88.888889c-3.555556-4.183007-8.784314-6.48366-14.431372-6.48366-5.437908 0-10.875817 2.509804-14.431373 6.69281l-75.921569 88.888889c-15.895425 18.614379-24.679739 42.457516-24.679738 66.928105v164.810457c0 6.48366-1.882353 12.96732-5.647059 18.196079l-34.300654 49.150327c-8.575163 12.339869-12.96732 26.562092-12.96732 41.620915v39.947712z" fill="#1296db" p-id="18134"></path></svg>