<?xml version="1.0" standalone="no"?><!DOCTYPE svg PUBLIC "-//W3C//DTD SVG 1.1//EN" "http://www.w3.org/Graphics/SVG/1.1/DTD/svg11.dtd"><svg t="1569487158590" class="icon" viewBox="0 0 1024 1024" version="1.1" xmlns="http://www.w3.org/2000/svg" p-id="18497" xmlns:xlink="http://www.w3.org/1999/xlink" width="200" height="200"><defs><style type="text/css"></style></defs><path d="M545.412199 324.243973c5.23456 4.187648 10.259738 8.165914 15.494298 12.353563 25.754037 19.472564 53.392515 27.638479 85.218643 19.472564 18.425652-4.187648 37.060687-2.093824 53.392515 8.165914 9.212826 6.07209 19.472564 11.30665 29.732303 16.541211 26.800949 14.447387 48.367338 10.259738 68.886814-12.353562 11.30665-13.400474 22.613301-26.800949 33.919951-39.992041 15.494299-19.472564 13.400474-34.966863-6.07209-50.25178-68.886814-53.392515-136.726716-106.785031-205.404148-160.177546-29.732303-22.613301-44.179689-51.298691-38.107599-88.359379 1.046912-9.212826-4.187648-12.353562-14.447387-9.212826-23.660213 7.119002-43.132777 20.519477-54.439427 42.085865-15.494299 30.779215-39.992041 42.085865-70.980638 41.038953-46.273513-2.093824-74.958904 22.613301-99.666029 57.580164-26.800949 37.060687-39.992041 80.193464-50.25178 123.326242-11.30665 46.273513-16.541211 92.547027-18.425652 139.65807-2.093824 36.013775-1.046912 70.980638-2.093824 106.785031v66.79299c0 16.959976 13.819239 30.779215 30.779215 30.779215h288.738348l127.304508 2.093824c15.494299 0 27.638479-11.30665 27.638478-26.800949v-45.226602c0-22.613301-11.30665-43.132777-30.779215-55.486339-2.093824-1.256294-25.335272-15.913063-54.230045-39.154512-11.934798-9.631591-22.822683-20.728859-32.454274-32.663656l-83.752965-106.994414z" fill="#1296db" p-id="18498"></path><path d="M202.653187 888.738961c-0.209382 0-0.418765 0.209382-0.418764 0.209382-13.609857 5.862708-32.035509 16.959976-34.129334 45.854749-0.418765 6.07209-1.465677 12.353562-2.512589 19.263182-1.046912 7.119002-2.093824 14.238004-2.721971 21.566388-1.465677 14.028622 1.465677 25.544654 8.584679 34.129334 7.328384 8.584679 18.425652 13.400474 32.873039 14.238004H806.302686c7.328384 0 16.959976-0.83753 25.963419-8.165914 11.934798-8.794061 17.37874-22.822683 15.494299-38.945129-1.046912-8.584679-2.303207-16.959976-3.768883-25.335272-1.256294-7.956532-2.512589-16.122446-3.559501-24.078978 0-0.418765-0.209382-0.83753-0.209383-1.465677-4.606413-22.613301-19.0538-31.616744-30.779215-35.176245-13.400474-3.768883-23.45083-15.284916-26.172801-29.941685-1.465677-7.537767-2.512589-26.382184 16.54121-41.248336 14.238004-9.631591 20.728859-24.078978 19.0538-41.6671-1.046912-14.028622-3.140736-27.847861-5.23456-41.038953-3.350119-23.660213-18.425652-36.851305-42.50463-36.851305h-521.571593c-37.479452 0-49.204867 10.050356-54.64881 47.111043-0.209382 0.83753-0.209382 1.884442-0.209382 2.721971 0 1.256294 0 3.559501-0.209383 4.606414v0.209382c-8.375297 27.847861-1.465677 51.089309 21.147624 71.190021 9.422209 8.165914 13.609857 20.100712 11.516033 32.663656-2.512589 13.819239-11.725415 25.12589-24.497743 30.151068z m37.898217-91.08135c-11.516033-10.050356-13.819239-17.797505-9.840973-31.407362 1.675059-5.23456 1.884442-10.469121 1.884442-14.447387 1.046912-7.537767 2.093824-10.887886 2.721971-12.562945 1.884442-0.418765 5.862708-0.83753 14.238004-0.837529h521.990357c2.093824 0 3.350119 0.209382 3.978266 0.418765 0.209382 0.628147 0.628147 1.884442 1.046912 4.187648 1.884442 12.772327 3.978266 25.963419 5.025178 38.735746v0.418765c0.418765 4.397031-0.418765 5.23456-2.931353 6.90962-0.209382 0.209382-0.628147 0.418765-0.83753 0.628147-25.335272 19.0538-37.060687 48.57672-31.407362 78.727788 5.443943 28.894773 25.754037 51.717456 52.764368 59.464605 1.884442 0.628147 3.140736 1.046912 4.187648 5.443943 1.046912 8.165914 2.303207 16.541211 3.559501 24.497742 1.256294 7.956532 2.512589 16.122446 3.559501 24.078978 0.209382 1.256294 0.209382 3.350119-0.418764 3.768883l-0.628148 0.628148c-0.418765 0-1.256294 0.209382-2.721971 0.209382h-600.718145c-2.931354-0.209382-4.606413-0.628147-5.443943-1.046912-0.209382-0.83753-0.418765-2.512589 0-5.653325v-0.628148c0.418765-6.07209 1.465677-12.353562 2.512589-19.263182 1.046912-7.119002 2.093824-14.447387 2.721972-21.985153 0.418765-6.490855 1.465677-9.422209 10.887885-13.609857 25.12589-10.050356 42.923395-32.035509 47.529808-58.627076 4.606413-25.963419-4.397031-51.298691-23.660213-68.049284z" fill="#1296db" p-id="18499"></path><path d="M389.212918 881.201194h232.205097c10.469121 0 19.0538-8.584679 19.053799-19.0538s-8.584679-19.0538-19.053799-19.053799h-232.205097c-10.469121 0-19.0538 8.584679-19.0538 19.053799 0.209382 10.678503 8.584679 19.0538 19.0538 19.0538zM601.317303 31.527359c1.675059-14.238004-5.025178-21.985153-9.003444-25.544654-5.23456-4.397031-14.656769-8.584679-29.732302-3.978266-30.569832 9.422209-52.764368 26.591567-65.955461 51.717456-11.097268 21.985153-27.429096 31.407362-52.97375 30.569832-60.092753-2.721971-93.593939 33.710569-115.997858 65.536696-29.52292 40.829571-43.551542 88.568761-53.392515 129.817096-10.678503 43.34216-16.750593 88.987526-19.0538 143.217571-1.256294 21.985153-1.465677 43.970307-1.465677 65.117931 0 13.819239-0.209382 28.266626-0.628147 42.295248V597.697406c0 27.847861 21.775771 49.833014 49.833015 49.833014h288.319583l127.723273 2.093824c26.172802 0 46.692278-20.100712 46.692278-45.645366v-45.226601c0-29.104156-14.866151-55.905104-39.573276-71.608786-0.209382 0-0.209382-0.209382-0.418765-0.209382-0.209382-0.209382-33.291804-20.728859-70.980638-53.392516-7.956532-6.90962-19.891329-6.07209-26.800949 1.884442-6.90962 7.956532-6.07209 19.891329 1.884441 26.800949 38.107599 33.082421 72.02755 54.64881 76.005817 57.161399 14.028622 8.794061 21.985153 23.241448 21.985153 39.363894v45.226601c0 5.443943-4.397031 7.747149-8.375297 7.747149l-127.723272-2.093824h-288.738348c-6.90962 0-11.934798-4.815796-11.934798-11.934797v-66.583608c0.418765-14.447387 0.418765-28.894773 0.628147-42.923395 0.209382-20.728859 0.209382-42.085865 1.465677-63.442871 2.303207-51.926839 7.956532-95.059616 18.006888-136.098569 9.422209-39.573276 21.775771-81.240377 47.320425-116.835387 25.963419-36.641922 50.042397-50.879927 83.543583-49.414249 40.829571 1.465677 70.771256-15.913063 88.359379-51.298692 6.490855-12.353562 17.169358-21.985153 31.616744-28.476008-1.046912 35.385628 14.656769 65.746078 46.692279 90.24382 34.338716 26.591567 68.468049 53.392515 102.597382 79.984082 34.129333 26.800949 68.468049 53.601898 102.806765 80.193465 5.443943 4.397031 8.794061 8.375297 9.212827 11.097268 0.418765 2.721971-1.884442 7.119002-5.862708 12.353562l-33.501186 39.573276c-14.866151 16.122446-26.800949 18.21627-45.645366 8.165914-0.209382 0-0.418765-0.209382-0.628148-0.209382-10.050356-5.025178-19.472564-9.631591-27.638478-15.284916-0.209382 0-0.209382-0.209382-0.418765-0.209383-19.891329-12.353562-43.132777-16.122446-67.63052-10.678503-0.209382 0-0.418765 0-0.628147 0.209383-24.28836 6.281472-46.064131 1.046912-68.886814-16.122446l-15.284916-12.14418c-8.165914-6.490855-20.100712-5.23456-26.591567 2.931354s-5.23456 20.100712 2.931354 26.591566l15.494299 12.353563c0.209382 0 0.209382 0.209382 0.418765 0.209382 31.826127 24.078978 65.95546 31.826127 101.131705 22.822683 14.447387-3.140736 27.429096-1.256294 38.735747 5.653325 10.050356 6.700237 20.728859 12.14418 31.407362 17.378741 34.129333 18.21627 65.117931 12.772327 91.709497-16.331829 0.209382-0.209382 0.209382-0.418765 0.418765-0.418764l33.919951-39.992041c0.209382-0.209382 0.209382-0.418765 0.418765-0.418765 11.097268-14.028622 15.703681-27.429096 14.028622-40.829571s-9.212826-25.12589-23.450831-36.223158c-34.338716-26.800949-68.677432-53.392515-102.806765-80.193464-34.129333-26.800949-68.258667-53.392515-102.806765-80.193464-25.754037-19.472564-35.385628-41.876483-30.779215-70.143109v-1.465677z" fill="#1296db" p-id="18500"></path></svg>