<?xml version="1.0" standalone="no"?><!DOCTYPE svg PUBLIC "-//W3C//DTD SVG 1.1//EN" "http://www.w3.org/Graphics/SVG/1.1/DTD/svg11.dtd"><svg t="1569487155802" class="icon" viewBox="0 0 1024 1024" version="1.1" xmlns="http://www.w3.org/2000/svg" p-id="18314" xmlns:xlink="http://www.w3.org/1999/xlink" width="200" height="200"><defs><style type="text/css"></style></defs><path d="M513.568307 636.000817m-41.821523 0a41.821523 41.821523 0 1 0 83.643047 0 41.821523 41.821523 0 1 0-83.643047 0Z" fill="#1296db" p-id="18315"></path><path d="M365.93833 720.898509c3.554829 6.064121 9.828058 9.409843 16.519501 9.409843 3.136614 0 6.482336-0.83643 9.409843-2.509291l77.578926-44.74903c11.500919 10.664488 26.974883 17.355932 43.9126 17.355932s32.411681-6.691444 43.912599-17.355932l77.578926 44.74903c2.927507 1.672861 6.273229 2.509291 9.409843 2.509291 6.482336 0 12.964672-3.345722 16.519501-9.409843 5.22769-8.991628 2.091076-20.701654-6.900551-25.929344l-77.578926-44.74903c1.045538-4.600368 1.672861-9.409843 1.672861-14.428426 0-29.065959-19.237901-53.740658-45.794568-61.895854v-89.49806c0-10.455381-8.573412-19.028793-19.028793-19.028794s-19.028793 8.573412-19.028793 19.028794v89.49806c-26.556667 8.155197-45.794568 32.829896-45.794568 61.895854 0 5.018583 0.627323 9.828058 1.672861 14.428426l-77.578926 44.74903c-8.573412 5.22769-11.710027 16.937717-6.482336 25.929344z m147.629977-111.872575c14.846641 0 26.765775 11.919134 26.765775 26.765775s-11.919134 26.765775-26.765775 26.765775-26.765775-11.919134-26.765775-26.765775 11.919134-26.765775 26.765775-26.765775z" fill="#1296db" p-id="18316"></path><path d="M329.553604 491.298346c10.455381 0 19.028793-8.573412 19.028793-19.028793v-51.440474c0-5.22769 2.300184-10.037166 6.273229-13.382887 44.958138-37.012048 93.680212-61.477639 102.880947-66.078007 7.527874-3.763937 12.546457-11.500919 12.546457-20.074332v-72.351235c0-6.273229-3.136614-12.337349-8.364304-15.683071-4.182152-2.718399-6.691444-7.318767-6.691444-12.33735v-74.860527c0-26.765775 21.747192-48.512967 48.512967-48.512967h16.101287c26.765775 0 48.512967 21.747192 48.512967 48.512967v74.860527c0 5.018583-2.509291 9.61895-6.691444 12.33735-5.22769 3.554829-8.364305 9.409843-8.364305 15.683071v72.351235c0 8.573412 5.018583 16.310394 12.546457 20.074332 9.409843 4.600368 58.131918 29.065959 102.880948 66.078007 3.973045 3.345722 6.273229 8.155197 6.273228 13.382887v51.440474c0 10.455381 8.573412 19.028793 19.028794 19.028793s19.028793-8.573412 19.028793-19.028793v-51.440474c0-16.728609-7.318767-32.202573-20.074332-42.657954-39.730447-32.829896-82.388401-56.459057-101.626301-66.496222v-53.949765c9.61895-9.828058 15.055748-23.001838 15.055748-37.012048v-74.65142c0-47.676537-38.894017-86.570553-86.570553-86.570553h-16.101287c-47.676537 0-86.570553 38.684909-86.570553 86.570553v74.860527c0 14.01021 5.436798 27.18399 15.055748 37.012048v53.949766c-19.237901 10.037166-61.686747 33.666326-101.626302 66.496222-12.755565 10.455381-20.074331 26.138452-20.074331 42.657954v51.440473c0.209108 10.455381 8.573412 18.819686 19.028793 18.819686zM743.16847 784.88544c-19.237901 10.037166-61.686747 33.666326-101.626301 66.496222-12.755565 10.455381-20.074331 26.138452-20.074332 42.657954v51.440474c0 10.455381 8.573412 19.028793 19.028794 19.028793s19.028793-8.573412 19.028793-19.028793v-51.440474c0-5.22769 2.300184-10.037166 6.273228-13.382887 44.958138-37.012048 93.680212-61.477639 102.880948-66.078007 7.736982-3.763937 12.546457-11.500919 12.546457-20.074332v-72.351235c0-6.273229-3.136614-12.337349-8.364305-15.683071-4.182152-2.718399-6.691444-7.318767-6.691444-12.33735v-74.860527c0-26.765775 21.747192-48.512967 48.512967-48.512967h16.101287c26.765775 0 48.512967 21.747192 48.512967 48.512967v74.860527c0 5.018583-2.509291 9.61895-6.691444 12.33735-5.22769 3.554829-8.364305 9.409843-8.364304 15.683071v72.351235c0 8.573412 4.809475 16.310394 12.546457 20.074332 9.409843 4.600368 58.131918 29.065959 102.880947 66.078007 3.973045 3.345722 6.273229 8.155197 6.273229 13.382887v51.440474c0 10.455381 8.573412 19.028793 19.028793 19.028793s19.028793-8.573412 19.028793-19.028793v-51.440474c0-16.728609-7.318767-32.202573-20.074331-42.657954-39.939555-32.829896-82.388401-56.459057-101.626302-66.496222v-53.949765c9.61895-9.828058 15.055748-23.001838 15.055748-37.012048v-74.860527c0-47.676537-38.894017-86.570553-86.570553-86.570554h-16.101287c-47.676537 0-86.570553 38.894017-86.570553 86.570554v74.860527c0 14.01021 5.436798 27.18399 15.055748 37.012048v53.949765zM19.028793 964.299775c10.455381 0 19.028793-8.573412 19.028793-19.028793v-51.440474c0-5.22769 2.300184-10.037166 6.273229-13.382887 44.958138-37.012048 93.680212-61.477639 102.880947-66.078007 7.736982-3.763937 12.546457-11.500919 12.546457-20.074331v-72.351236c0-6.273229-3.136614-12.337349-8.364304-15.683071-4.182152-2.718399-6.691444-7.318767-6.691444-12.337349v-74.860527c0-26.765775 21.747192-48.512967 48.512967-48.512967h16.101287c26.765775 0 48.512967 21.747192 48.512967 48.512967v74.860527c0 5.018583-2.509291 9.61895-6.691444 12.337349-5.22769 3.554829-8.364305 9.409843-8.364305 15.683071v72.351236c0 8.573412 4.809475 16.310394 12.546457 20.074331 9.409843 4.600368 58.131918 29.065959 102.880948 66.078007 3.973045 3.345722 6.273229 8.155197 6.273228 13.382887v51.440474c0 10.455381 8.573412 19.028793 19.028793 19.028793s19.028793-8.573412 19.028794-19.028793v-51.440474c0-16.728609-7.318767-32.202573-20.074332-42.657953-39.939555-32.829896-82.388401-56.459057-101.626301-66.496223v-53.949765c9.61895-9.828058 15.055748-23.001838 15.055748-37.012048v-74.860527c0-47.676537-38.894017-86.570553-86.570553-86.570553h-16.101287c-47.676537 0-86.570553 38.894017-86.570553 86.570553v74.860527c0 14.01021 5.436798 27.18399 15.055748 37.012048v53.949765c-19.237901 10.037166-61.686747 33.666326-101.626302 66.496223-12.755565 10.455381-20.074331 26.138452-20.074331 42.657953v51.440474c0 10.664488 8.573412 19.028793 19.028793 19.028793z" fill="#1296db" p-id="18317"></path></svg>