<?xml version="1.0" standalone="no"?><!DOCTYPE svg PUBLIC "-//W3C//DTD SVG 1.1//EN" "http://www.w3.org/Graphics/SVG/1.1/DTD/svg11.dtd"><svg t="1569487167135" class="icon" viewBox="0 0 1024 1024" version="1.1" xmlns="http://www.w3.org/2000/svg" p-id="19046" xmlns:xlink="http://www.w3.org/1999/xlink" width="200" height="200"><defs><style type="text/css"></style></defs><path d="M547.913292 550.949693h453.994274v453.994274h-453.994274z" fill="#1296db" p-id="19047"></path><path d="M197.366053 945.262986h148.050716l-46.06953 46.069529c-7.329243 7.329243-7.329243 19.474847 0 26.80409 3.769325 3.769325 8.585685 5.653988 13.402045 5.653988s9.63272-1.884663 13.402045-5.653988l78.527608-78.527607c7.329243-7.329243 7.329243-19.474847 0-26.80409l-78.527608-78.527607c-7.329243-7.329243-19.474847-7.329243-26.80409 0s-7.329243 19.474847 0 26.80409l46.06953 46.069529h-148.050716c-87.322699 0-158.311656-70.988957-158.311656-158.311656v-92.76728c0-10.470348-8.585685-19.056033-19.056033-19.056033s-19.056033 8.585685-19.056033 19.056033v92.76728c0 108.263395 87.95092 196.423722 196.423722 196.423722zM35.285072 5.863395c-3.559918-3.559918-8.376278-5.653988-13.402045-5.653988s-9.842127 2.09407-13.402045 5.653988-5.444581 8.376278-5.444581 13.402045 2.09407 9.842127 5.444581 13.402045c3.559918 3.559918 8.376278 5.653988 13.402045 5.653987s9.842127-2.09407 13.402045-5.653987 5.653988-8.376278 5.653987-13.402045-2.09407-9.842127-5.653987-13.402045zM410.961145 38.112065c10.470348 0 19.056033-8.376278 19.056033-19.056032 0-10.470348-8.376278-19.056033-19.056033-19.056033-10.470348 0-19.056033 8.585685-19.056033 19.056033 0 10.679755 8.585685 19.056033 19.056033 19.056032zM346.04499 0.209407c-10.470348 0-19.056033 8.585685-19.056033 19.056033s8.376278 19.056033 19.056033 19.056032c10.470348 0 19.056033-8.376278 19.056032-19.056032 0-10.470348-8.585685-19.056033-19.056032-19.056033zM151.50593 38.112065c10.470348 0 19.056033-8.376278 19.056033-19.056032 0-10.470348-8.376278-19.056033-19.056033-19.056033-10.470348 0-19.056033 8.585685-19.056032 19.056033 0.209407 10.679755 8.585685 19.056033 19.056032 19.056032zM86.799182 0.209407c-10.470348 0-19.056033 8.585685-19.056033 19.056033s8.376278 19.056033 19.056033 19.056032 19.056033-8.376278 19.056033-19.056032c-0.209407-10.470348-8.585685-19.056033-19.056033-19.056033zM281.338241 0.209407c-10.470348 0-19.056033 8.585685-19.056032 19.056033s8.585685 19.056033 19.056032 19.056032 19.056033-8.376278 19.056033-19.056032c-0.209407-10.470348-8.585685-19.056033-19.056033-19.056033zM216.422086 0.209407c-10.470348 0-19.056033 8.585685-19.056033 19.056033s8.376278 19.056033 19.056033 19.056032c10.470348 0 19.056033-8.376278 19.056033-19.056032 0-10.470348-8.585685-19.056033-19.056033-19.056033zM489.279346 32.667485c3.559918-3.559918 5.444581-8.376278 5.44458-13.402045s-2.09407-9.842127-5.44458-13.402045c-3.559918-3.559918-8.376278-5.653988-13.402045-5.653988s-9.842127 2.09407-13.402045 5.653988-5.444581 8.376278-5.444581 13.402045 2.09407 9.842127 5.444581 13.402045c3.559918 3.559918 8.376278 5.653988 13.402045 5.653987 5.025767-0.209407 9.842127-2.09407 13.402045-5.653987zM475.877301 129.832311c-10.470348 0-18.846626 8.585685-18.846626 19.056033s8.376278 19.056033 18.846626 19.056032 19.056033-8.585685 19.056032-19.056032c-0.209407-10.470348-8.585685-19.056033-19.056032-19.056033zM475.877301 389.287526c-10.470348 0-18.846626 8.376278-18.846626 19.056032 0 10.470348 8.376278 19.056033 18.846626 19.056033s19.056033-8.585685 19.056032-19.056033c-0.209407-10.470348-8.585685-19.056033-19.056032-19.056032zM475.877301 194.748466c-10.470348 0-18.846626 8.376278-18.846626 18.846626s8.376278 19.056033 18.846626 19.056033 19.056033-8.585685 19.056032-19.056033c-0.209407-10.260941-8.585685-18.846626-19.056032-18.846626zM475.877301 324.37137c-10.470348 0-18.846626 8.585685-18.846626 19.056033s8.376278 19.056033 18.846626 19.056033 19.056033-8.376278 19.056032-19.056033c-0.209407-10.470348-8.585685-19.056033-19.056032-19.056033zM475.877301 259.664622c-10.470348 0-18.846626 8.376278-18.846626 19.056032 0 10.470348 8.376278 19.056033 18.846626 19.056033s19.056033-8.585685 19.056032-19.056033c-0.209407-10.679755-8.585685-19.056033-19.056032-19.056032zM475.877301 65.125562c-10.470348 0-18.846626 8.376278-18.846626 19.056033 0 10.470348 8.376278 19.056033 18.846626 19.056033s19.056033-8.585685 19.056032-19.056033c-0.209407-10.679755-8.585685-19.056033-19.056032-19.056033zM494.723926 473.050307c0-5.025767-2.09407-9.842127-5.44458-13.402045-3.559918-3.559918-8.376278-5.653988-13.402045-5.653988s-9.842127 2.09407-13.402045 5.653988-5.653988 8.376278-5.653988 13.402045 2.09407 9.842127 5.653988 13.402045 8.376278 5.653988 13.402045 5.653987 9.842127-2.09407 13.402045-5.653987c3.559918-3.350511 5.444581-8.376278 5.44458-13.402045zM216.422086 454.203681c-10.470348 0-19.056033 8.585685-19.056033 19.056033s8.376278 19.056033 19.056033 19.056032c10.470348 0 19.056033-8.376278 19.056033-19.056032s-8.585685-19.056033-19.056033-19.056033zM281.338241 454.203681c-10.470348 0-19.056033 8.585685-19.056032 19.056033s8.585685 19.056033 19.056032 19.056032 19.056033-8.376278 19.056033-19.056032c-0.209407-10.679755-8.585685-19.056033-19.056033-19.056033zM346.04499 454.203681c-10.470348 0-19.056033 8.585685-19.056033 19.056033s8.376278 19.056033 19.056033 19.056032c10.470348 0 19.056033-8.376278 19.056032-19.056032s-8.585685-19.056033-19.056032-19.056033zM86.799182 454.203681c-10.470348 0-19.056033 8.585685-19.056033 19.056033s8.376278 19.056033 19.056033 19.056032 19.056033-8.376278 19.056033-19.056032c-0.209407-10.679755-8.585685-19.056033-19.056033-19.056033zM151.50593 492.106339c10.470348 0 19.056033-8.376278 19.056033-19.056032 0-10.470348-8.585685-19.056033-19.056033-19.056033s-19.056033 8.585685-19.056032 19.056033c0.209407 10.679755 8.585685 19.056033 19.056032 19.056032zM410.961145 492.106339c10.470348 0 19.056033-8.376278 19.056033-19.056032 0-10.470348-8.376278-19.056033-19.056033-19.056033-10.470348 0-19.056033 8.585685-19.056033 19.056033 0 10.679755 8.585685 19.056033 19.056033 19.056032zM8.480982 459.648262c-3.559918 3.559918-5.444581 8.376278-5.444581 13.402045s2.09407 9.842127 5.444581 13.402045c3.559918 3.559918 8.376278 5.653988 13.402045 5.653987s9.842127-2.09407 13.402045-5.653987 5.653988-8.376278 5.653987-13.402045-2.09407-9.842127-5.653987-13.402045-8.376278-5.653988-13.402045-5.653988c-5.025767 0.209407-9.842127 2.09407-13.402045 5.653988zM21.883027 65.125562c-10.470348 0-19.056033 8.376278-19.056033 19.056033 0 10.470348 8.376278 19.056033 19.056033 19.056033 10.470348 0 19.056033-8.585685 19.056032-19.056033 0-10.679755-8.585685-19.056033-19.056032-19.056033zM21.883027 129.832311c-10.470348 0-19.056033 8.585685-19.056033 19.056033s8.376278 19.056033 19.056033 19.056032c10.470348 0 19.056033-8.585685 19.056032-19.056032s-8.585685-19.056033-19.056032-19.056033zM21.883027 194.748466c-10.470348 0-19.056033 8.376278-19.056033 18.846626s8.376278 19.056033 19.056033 19.056033c10.470348 0 19.056033-8.585685 19.056032-19.056033 0-10.260941-8.585685-18.846626-19.056032-18.846626zM21.883027 324.37137c-10.470348 0-19.056033 8.585685-19.056033 19.056033s8.376278 19.056033 19.056033 19.056033c10.470348 0 19.056033-8.376278 19.056032-19.056033 0-10.470348-8.585685-19.056033-19.056032-19.056033zM21.883027 389.287526c-10.470348 0-19.056033 8.376278-19.056033 19.056032 0 10.470348 8.376278 19.056033 19.056033 19.056033 10.470348 0 19.056033-8.585685 19.056032-19.056033s-8.585685-19.056033-19.056032-19.056032zM21.883027 259.664622c-10.470348 0-19.056033 8.376278-19.056033 19.056032 0 10.470348 8.376278 19.056033 19.056033 19.056033 10.470348 0 19.056033-8.585685 19.056032-19.056033 0-10.679755-8.585685-19.056033-19.056032-19.056032zM697.848671 5.863395l-78.527608 78.527607c-3.559918 3.559918-5.653988 8.376278-5.653987 13.402045s2.09407 9.842127 5.653987 13.402045l78.527608 78.527607c3.769325 3.769325 8.585685 5.653988 13.402045 5.653988s9.63272-1.884663 13.402045-5.653988c7.329243-7.329243 7.329243-19.474847 0-26.80409l-46.06953-46.069529h148.050716c87.322699 0 158.311656 70.988957 158.311656 158.311656v92.76728c0 10.470348 8.585685 19.056033 19.056033 19.056033s19.056033-8.585685 19.056033-19.056033v-92.76728c0-108.263395-88.160327-196.423722-196.423722-196.423722h-148.050716l46.06953-46.069529c7.329243-7.329243 7.329243-19.474847 0-26.80409s-19.26544-7.53865-26.80409 0zM1020.963599 1004.73456V550.949693c0-10.470348-8.585685-19.056033-19.056033-19.056032h-453.994274c-10.470348 0-19.056033 8.585685-19.056032 19.056032v453.994274c0 10.470348 8.585685 19.056033 19.056032 19.056033h453.994274c10.470348-0.209407 19.056033-8.795092 19.056033-19.26544z m-38.112065-18.846625h-415.882209V569.796319h415.882209v416.091616z" fill="#1296db" p-id="19048"></path></svg>