<?xml version="1.0" standalone="no"?><!DOCTYPE svg PUBLIC "-//W3C//DTD SVG 1.1//EN" "http://www.w3.org/Graphics/SVG/1.1/DTD/svg11.dtd"><svg t="1569487161047" class="icon" viewBox="0 0 1024 1024" version="1.1" xmlns="http://www.w3.org/2000/svg" p-id="18680" xmlns:xlink="http://www.w3.org/1999/xlink" width="200" height="200"><defs><style type="text/css"></style></defs><path d="M462.411116 324.943196c0 21.132816-17.157336 38.080915-38.080916 38.080915H56.912137c-21.132816 0-38.080915-17.157336-38.080915-38.080915V61.096853C18.831222 39.964038 35.988557 23.015938 56.912137 23.015938h367.208827c21.132816 0 38.080915 17.157336 38.080916 38.080915v263.846343h0.209236z" fill="#1296db" p-id="18681"></path><path d="M0 61.096853v263.846343c0 31.38537 25.526767 57.121373 57.121373 57.121373H221.789947v57.121373H166.760932c-10.46179 0-19.040458 8.578668-19.040458 19.040458s8.578668 19.040458 19.040458 19.040457h147.720474c10.46179 0 19.040458-8.578668 19.040458-19.040457s-8.578668-19.040458-19.040458-19.040458H259.452391v-57.121373h164.668573c31.38537 0 57.121373-25.526767 57.121374-57.121373V61.096853c0-31.38537-25.526767-57.121373-57.121374-57.121373H56.912137C25.526767 3.97548 0 29.711483 0 61.096853z m443.370658 0v263.846343c0 10.46179-8.578668 19.040458-19.040458 19.040457H56.912137c-10.46179 0-19.040458-8.578668-19.040457-19.040457V61.096853c0-10.46179 8.578668-19.040458 19.040457-19.040457h367.208827c10.671026 0 19.249694 8.578668 19.249694 19.040457zM967.087863 546.942378H599.6698c-31.38537 0-57.121373 25.526767-57.121373 57.121374v263.637106c0 31.38537 25.526767 57.121373 57.121373 57.121373h164.668574v57.121373H709.309358c-10.46179 0-19.040458 8.578668-19.040457 19.040458s8.578668 19.040458 19.040457 19.040458h147.92971c10.46179 0 19.040458-8.578668 19.040458-19.040458s-8.578668-19.040458-19.040458-19.040458h-55.029015V924.822231h164.668574c31.38537 0 57.121373-25.526767 57.121373-57.121373V603.854516c0-31.38537-25.526767-56.912137-56.912137-56.912138z m19.040457 320.75848c0 10.46179-8.578668 19.040458-19.040457 19.040458H599.6698c-10.46179 0-19.040458-8.578668-19.040458-19.040458V603.854516c0-10.46179 8.578668-19.040458 19.040458-19.040458h367.208827c10.46179 0 19.040458 8.578668 19.040458 19.040458v263.846342h0.209235zM582.303228 211.955864h182.035146v199.401717c0 2.301594 0.418472 4.603188 1.255414 6.695545l-34.942378-34.942378c-7.323253-7.323253-19.458929-7.323253-26.782182 0s-7.323253 19.458929 0 26.782182l66.118512 66.118513c3.766244 3.766244 8.578668 5.649367 13.391091 5.649366s9.624847-1.883122 13.391091-5.649366l66.118513-66.118513c7.323253-7.323253 7.323253-19.458929 0-26.782182s-19.458929-7.323253-26.782182 0l-34.942379 34.942378c0.836943-2.092358 1.255415-4.393952 1.255415-6.695545V193.124642c0-10.46179-8.578668-19.040458-19.040458-19.040457h-201.075603c-10.46179 0-19.040458 8.578668-19.040457 19.040457 0.209236 10.46179 8.578668 18.831222 19.040457 18.831222zM221.580711 841.964855c0 10.46179 8.578668 19.040458 19.040458 19.040458h201.075603c10.46179 0 19.040458-8.578668 19.040457-19.040458s-8.578668-19.040458-19.040457-19.040458h-182.035146V623.522681c0-2.301594-0.418472-4.603188-1.255414-6.695546l34.942378 34.942379c3.766244 3.766244 8.578668 5.649367 13.391091 5.649366s9.624847-1.883122 13.391091-5.649366c7.323253-7.323253 7.323253-19.458929 0-26.782183l-66.118512-66.118512c-7.323253-7.323253-19.458929-7.323253-26.782182 0L161.111565 624.987331c-7.323253 7.323253-7.323253 19.458929 0 26.782183s19.458929 7.323253 26.782182 0l34.942379-34.942379c-0.836943 2.092358-1.255415 4.393952-1.255415 6.695546v218.442174z" fill="#1296db" p-id="18682"></path></svg>