<?xml version="1.0" standalone="no"?><!DOCTYPE svg PUBLIC "-//W3C//DTD SVG 1.1//EN" "http://www.w3.org/Graphics/SVG/1.1/DTD/svg11.dtd"><svg t="1569487170470" class="icon" viewBox="0 0 1024 1024" version="1.1" xmlns="http://www.w3.org/2000/svg" p-id="19228" xmlns:xlink="http://www.w3.org/1999/xlink" width="200" height="200"><defs><style type="text/css"></style></defs><path d="M1004.975092 950.722744v-51.639036c0-10.871376-4.808493-21.324622-13.17109-28.223765-46.621478-38.258881-96.79706-63.764802-107.041242-68.78236-1.25439-0.627195-1.881584-1.672519-1.881584-2.926909v-72.545529c9.198857-6.062883 15.052675-16.516129 15.052675-28.223765v-75.263373c0-37.422621-30.314414-67.737036-67.737036-67.737035h-16.307064c-37.422621 0-67.737036 30.314414-67.737036 67.737035v75.263373c0 11.707636 6.062883 22.160882 15.052675 28.223765v72.545529c0 1.25439-0.627195 2.508779-1.881584 2.926909-10.244181 5.017558-60.419763 30.314414-107.041242 68.78236-8.362597 6.899143-13.17109 17.352389-13.17109 28.223765v51.639036" fill="#1296db" p-id="19229"></path><path d="M202.374847 489.94365c-10.453246 0-19.024908 8.571662-19.024908 19.024909v75.263372c0 89.688853 72.963659 162.652511 162.652511 162.652512h239.170274l-31.359739 31.359738c-7.317272 7.317272-7.317272 19.443038 0 26.760311 3.763169 3.763169 8.571662 5.644753 13.380155 5.644753s9.616987-1.881584 13.380155-5.644753l63.555737-63.555737c3.554104-3.554104 5.644753-8.362597 5.644753-13.380156s-2.090649-9.826051-5.644753-13.380155l-63.555737-63.555737c-7.317272-7.317272-19.443038-7.317272-26.76031 0s-7.317272 19.443038 0 26.760311l31.359739 31.359738H346.00245c-68.78236 0-124.81176-56.0294-124.81176-124.81176v-75.263372c0-10.871376-8.362597-19.233973-18.815843-19.233974zM442.590445 307.429971c3.763169 3.763169 8.571662 5.644753 13.380155 5.644753 4.808493 0 9.616987-1.881584 13.380155-5.644753 7.317272-7.317272 7.317272-19.443038 0-26.76031l-31.359738-31.359739h240.215598c68.78236 0 124.81176 56.0294 124.81176 124.81176v75.263373c0 10.453246 8.571662 19.024908 19.024908 19.024908s19.024908-8.571662 19.024908-19.024908v-75.263373c0-89.688853-72.963659-162.652511-162.652511-162.652511H438.200082l31.359738-31.359739c7.317272-7.317272 7.317272-19.443038 0-26.76031s-19.443038-7.317272-26.76031 0l-63.555737 63.555737c-3.554104 3.554104-5.644753 8.362597-5.644753 13.380155s2.090649 9.826051 5.644753 13.380155l63.346672 63.764802zM19.443038 487.643936c10.453246 0 19.024908-8.571662 19.024908-19.024908v-51.639036c0-5.226623 2.299714-10.244181 6.271948-13.58922 45.158024-37.004492 94.079216-61.674153 103.278073-66.273581 7.526337-3.763169 12.543895-11.498571 12.543895-20.070233v-72.545529c0-6.271948-3.135974-12.334831-8.362597-15.679869-4.181298-2.717844-6.690078-7.526337-6.690078-12.543896v-75.263372c0-26.969375 21.951817-48.921192 48.712128-48.921193h16.097999c26.969375 0 48.712127 21.951817 48.712127 48.921193v75.263372c0 5.017558-2.508779 9.616987-6.690077 12.543896-5.226623 3.554104-8.362597 9.407922-8.362597 15.679869v72.545529c0 8.362597 4.808493 16.307064 12.543895 20.070233 9.407922 4.599428 58.329114 29.269089 103.278073 66.273581 3.972234 3.345039 6.271948 8.153532 6.271948 13.58922v51.639036c0 10.453246 8.571662 19.024908 19.024908 19.024908s19.024908-8.571662 19.024908-19.024908v-51.639036c0-16.725194-7.317272-32.195998-20.279298-42.85831-39.931401-32.823193-82.78971-56.656595-102.023683-66.691711v-54.147815c9.616987-9.826051 15.052675-22.997142 15.052675-37.004492v-75.263372c0-47.875868-38.886076-86.761944-86.761944-86.761944h-16.097999c-47.875868 0-86.761944 38.886076-86.761944 86.761944v75.263372c0 14.00735 5.435688 27.17844 15.052675 37.004492v54.147815c-19.233973 10.035116-62.092283 33.868518-102.023683 66.691711-12.75296 10.453246-20.279298 26.133116-20.279298 42.85831v51.639036c0.41813 10.662311 8.989792 19.024908 19.443038 19.024908zM640.365864 856.225398c-12.75296 10.453246-20.279298 26.133116-20.279298 42.85831v51.639036c0 10.453246 8.571662 19.024908 19.024908 19.024908s19.024908-8.571662 19.024908-19.024908v-51.639036c0-5.226623 2.299714-10.244181 6.271948-13.58922 45.158024-37.004492 94.079216-61.674153 103.278073-66.273582 7.526337-3.763169 12.543895-11.498571 12.543895-20.070232v-72.545529c0-6.271948-3.135974-12.334831-8.362597-15.679869-4.181298-2.717844-6.690078-7.526337-6.690077-12.543896v-75.263373c0-26.969375 21.951817-48.921192 48.712127-48.921192h16.097999c26.969375 0 48.921192 21.951817 48.921192 48.921192v75.263373c0 5.017558-2.508779 9.616987-6.690077 12.543896-5.226623 3.554104-8.362597 9.407922-8.362597 15.679869v72.545529c0 8.362597 4.808493 16.307064 12.543895 20.070232 9.407922 4.599428 58.329114 29.269089 103.278073 66.273582 3.972234 3.345039 6.271948 8.153532 6.271948 13.58922v51.639036c0 10.453246 8.571662 19.024908 19.024908 19.024908s19.024908-8.571662 19.024908-19.024908v-51.639036c0-16.725194-7.317272-32.195998-20.279298-42.85831-39.931401-32.823193-82.78971-56.656595-102.023683-66.691711v-54.147815c9.616987-9.826051 15.052675-22.997142 15.052675-37.004492v-75.263373c0-47.875868-38.886076-86.761944-86.761944-86.761943h-16.097999c-47.875868 0-86.761944 38.886076-86.761944 86.761943v75.263373c0 14.00735 5.435688 27.17844 15.052675 37.004492v54.147815c-19.024908 10.035116-61.674153 33.868518-101.814618 66.691711z" fill="#1296db" p-id="19230"></path></svg>