<?xml version="1.0" standalone="no"?><!DOCTYPE svg PUBLIC "-//W3C//DTD SVG 1.1//EN" "http://www.w3.org/Graphics/SVG/1.1/DTD/svg11.dtd"><svg t="1569487181592" class="icon" viewBox="0 0 1024 1024" version="1.1" xmlns="http://www.w3.org/2000/svg" p-id="19960" xmlns:xlink="http://www.w3.org/1999/xlink" width="200" height="200"><defs><style type="text/css"></style></defs><path d="M644.810458 871.738562l-133.019608 133.019608-0.209151-0.20915-132.810457-133.019608c-32.418301-32.418301-32.418301-84.915033 0-117.333334s84.915033-32.20915 117.333333 0l16.104575 16.104576 15.895425-15.895425c32.418301-32.418301 84.915033-32.418301 117.333333 0 32 32.418301 31.79085 84.915033-0.62745 117.333333z" fill="#1296db" p-id="19961"></path><path d="M362.457516 395.921569v139.084967c-31.79085 15.895425-133.019608 69.437908-226.928104 146.614379-22.588235 18.405229-35.346405 45.803922-35.346405 75.084967v110.640523c0 10.457516 8.575163 19.03268 19.032679 19.03268s19.03268-8.575163 19.03268-19.03268v-110.640523c0-17.777778 7.947712-34.509804 21.542484-45.803921 98.718954-81.150327 205.803922-135.111111 226.091503-145.150327 8.993464-4.392157 14.640523-13.594771 14.640523-23.424837v-155.816993c0-6.27451-3.137255-12.339869-8.366013-15.686275-15.058824-10.039216-24.052288-26.771242-24.052288-44.75817V164.392157c0-69.856209 56.679739-126.535948 126.535948-126.535948h34.718954c69.856209 0 126.535948 56.679739 126.535948 126.535948v161.464052c0 17.986928-8.993464 34.718954-24.052288 44.75817-5.228758 3.555556-8.366013 9.411765-8.366013 15.686275v155.816993c0 9.830065 5.856209 19.24183 14.640523 23.424837 20.496732 10.039216 127.372549 64 226.091503 145.150326 13.594771 11.294118 21.542484 28.026144 21.542484 45.803922v110.849673c0 10.457516 8.575163 19.03268 19.03268 19.03268s19.03268-8.575163 19.032679-19.03268v-110.640523c0-29.281046-12.96732-56.679739-35.346405-75.084967-93.908497-77.176471-195.137255-130.509804-226.928104-146.614379v-139.084967c20.496732-17.359477 32.418301-42.875817 32.4183-70.06536V164.392157c0-90.771242-73.830065-164.392157-164.392157-164.392157h-34.718954C404.078431 0 330.457516 73.830065 330.457516 164.392157v161.464052c-0.418301 27.189542 11.503268 52.705882 32 70.06536z" fill="#1296db" p-id="19962"></path><path d="M586.457516 711.111111c-27.189542 0-52.915033 10.666667-72.156862 29.908497l-2.509804 2.509804-2.509804-2.509804C490.039216 721.777778 464.313725 711.111111 437.124183 711.111111s-52.705882 10.666667-71.947712 29.908497c-19.24183 19.24183-29.908497 44.75817-29.908497 72.156863 0 27.189542 10.666667 52.705882 29.908497 71.947712l133.019607 133.019608 0.209151 0.20915c3.555556 3.555556 8.366013 5.647059 13.385621 5.647059 5.019608 0 9.830065-2.091503 13.385621-5.647059l133.019607-133.019608c19.24183-19.24183 29.908497-44.75817 29.908497-71.947712s-10.457516-52.915033-29.908497-72.156863c-19.03268-19.45098-44.54902-30.117647-71.738562-30.117647z m44.967321 147.24183l-119.633987 119.633987-119.843138-119.843137c-12.130719-12.130719-18.823529-28.235294-18.823529-45.176471 0-17.150327 6.69281-33.045752 18.614379-45.17647 12.130719-12.130719 28.026144-18.614379 45.176471-18.614379 17.150327 0 33.254902 6.69281 45.385621 18.823529l16.104575 16.104575c3.555556 3.555556 8.366013 5.647059 13.385621 5.647059s9.830065-2.091503 13.385621-5.647059l15.895424-15.895425c12.130719-12.130719 28.235294-18.823529 45.176471-18.823529 17.150327 0 33.045752 6.69281 45.176471 18.823529 12.130719 12.130719 18.823529 28.235294 18.614379 45.176471 0.20915 16.732026-6.48366 32.836601-18.614379 44.96732z" fill="#1296db" p-id="19963"></path></svg>