<?xml version="1.0" standalone="no"?><!DOCTYPE svg PUBLIC "-//W3C//DTD SVG 1.1//EN" "http://www.w3.org/Graphics/SVG/1.1/DTD/svg11.dtd"><svg t="1569487194934" class="icon" viewBox="0 0 1024 1024" version="1.1" xmlns="http://www.w3.org/2000/svg" p-id="20877" xmlns:xlink="http://www.w3.org/1999/xlink" width="200" height="200"><defs><style type="text/css"></style></defs><path d="M816.212265 1005.16974v-85.363845c0-17.99336-7.950554-35.149819-21.968636-46.6572-77.204066-63.395209-160.47566-105.449456-177.422894-113.818461-1.883026-0.8369-3.138377-2.929152-3.138377-5.021402v-120.095214c15.064208-10.042805 25.107013-27.199264 25.107013-46.6572v-124.698166c0-61.930633-50.214027-112.353885-112.353884-112.353885h-26.780815c-61.930633 0-112.14466 50.214027-112.144659 112.14466v124.698166c0 19.457935 10.042805 36.614394 25.107013 46.6572v120.095214c0 2.092251-1.255351 3.975277-3.138377 5.021402-16.947234 8.369004-100.218828 50.423252-177.422894 113.818461-14.018082 11.507381-21.968637 28.66384-21.968636 46.6572v85.363845" fill="#1296db" p-id="20878"></path><path d="M210.089211 1024c10.461256 0 19.039485-8.57823 19.039485-19.039485v-85.363845c0-12.553507 5.439853-24.060888 15.064208-32.011442 75.73949-62.349083 157.964959-103.775655 173.656842-111.30776 8.369004-4.184502 13.808857-12.762732 13.808857-21.968636v-120.095214c0-6.276753-3.138377-12.344282-8.369004-15.691883-10.461256-6.904429-16.738009-18.621035-16.738009-30.965317v-124.698166c0-51.469377 41.845022-93.3144 93.3144-93.3144h26.780814c51.469377 0 93.3144 41.845022 93.314399 93.3144v124.488941c0 12.553507-6.276753 24.060888-16.738008 30.965317-5.230628 3.556827-8.369004 9.41513-8.369005 15.691883v120.095214c0 9.205905 5.439853 17.99336 13.808857 21.968636 15.691883 7.741329 97.917352 49.167901 173.656843 111.307759 9.624355 7.950554 15.064208 19.457935 15.064208 32.011442v85.363846c0 10.461256 8.57823 19.039485 19.039485 19.039485s19.039485-8.57823 19.039485-19.039485v-85.363846c0-23.851663-10.461256-46.23875-28.873065-61.302957-70.508862-57.955356-146.457578-98.754252-173.447618-112.353885v-102.729529c15.901108-14.227308 25.107013-34.522143 25.107014-56.07233v-124.698166c0-72.391888-58.792256-131.184145-131.184145-131.184145h-26.780814c-72.391888 0-131.184145 58.792256-131.184145 131.184145v125.116616c0 21.550186 9.205905 41.845022 25.107014 56.07233v102.729529c-26.990039 13.808857-102.938755 54.398529-173.447618 112.353885-18.41181 15.064208-28.873065 37.451295-28.873065 61.302958v85.363845c-0.627675 10.461256 7.741329 18.83026 18.202585 18.83026zM512.001046 263.675946c10.461256 0 19.039485-8.57823 19.039485-19.039485v-179.933595l35.149819 35.149818c3.766052 3.766052 8.57823 5.649078 13.390407 5.649078s9.624355-1.883026 13.390407-5.649078c7.322879-7.322879 7.322879-19.457935 0-26.780814l-67.579711-67.579711c-7.322879-7.322879-19.457935-7.322879-26.780814 0l-67.579711 67.579711c-7.322879 7.322879-7.322879 19.457935 0 26.780814s19.457935 7.322879 26.780814 0l35.149819-35.149818v179.933595c0 10.670481 8.57823 19.039485 19.039485 19.039485zM310.098814 465.578178c0-10.461256-8.57823-19.039485-19.039485-19.039485h-179.933596l35.149819-35.149818c7.322879-7.322879 7.322879-19.457935 0-26.780815s-19.457935-7.322879-26.780814 0l-67.579711 67.579711c-3.556827 3.556827-5.649078 8.369004-5.649078 13.390407s2.092251 9.83358 5.649078 13.390408l67.579711 67.57971c3.766052 3.766052 8.57823 5.649078 13.390407 5.649078s9.624355-1.883026 13.390407-5.649078c7.322879-7.322879 7.322879-19.457935 0-26.780814l-35.149819-35.149818h179.933596c10.461256 0 19.039485-8.57823 19.039485-19.039486zM713.901186 465.578178c0 10.461256 8.57823 19.039485 19.039485 19.039486h179.933596l-35.149819 35.149818c-7.322879 7.322879-7.322879 19.457935 0 26.780814 3.766052 3.766052 8.57823 5.649078 13.390407 5.649078s9.624355-1.883026 13.390407-5.649078l67.579711-67.57971c3.556827-3.556827 5.649078-8.369004 5.649078-13.390408s-2.092251-9.83358-5.649078-13.390407l-67.579711-67.579711c-7.322879-7.322879-19.457935-7.322879-26.780814 0s-7.322879 19.457935 0 26.780815l35.149819 35.149818h-179.933596c-10.459163 0.209225-19.039485 8.57823-19.039485 19.039485zM310.726489 149.857486c0-10.461256-8.57823-19.039485-19.039485-19.039485h-95.615876c-10.461256 0-19.039485 8.57823-19.039485 19.039485v95.615876c0 10.461256 8.57823 19.039485 19.039485 19.039485s19.039485-8.57823 19.039485-19.039485v-49.795577l127.208868 127.208868c3.766052 3.766052 8.57823 5.649078 13.390407 5.649078 4.812178 0 9.624355-1.883026 13.390407-5.649078 7.322879-7.322879 7.322879-19.457935 0-26.780815l-127.208867-127.208867h49.795576c10.461256-0.209225 19.039485-8.57823 19.039485-19.039485zM654.899705 322.886653c3.766052 3.766052 8.57823 5.649078 13.390407 5.649078s9.624355-1.883026 13.390407-5.649078l127.208868-127.208868v49.795577c0 10.461256 8.57823 19.039485 19.039485 19.039485s19.039485-8.57823 19.039485-19.039485v-95.615876c0-10.461256-8.57823-19.039485-19.039485-19.039485h-95.615876c-10.461256 0-19.039485 8.57823-19.039485 19.039485s8.57823 19.039485 19.039485 19.039485h49.795576l-127.208867 127.208867c-7.530012 7.322879-7.530012 19.24871 0 26.780815z" fill="#1296db" p-id="20879"></path></svg>