<?xml version="1.0" standalone="no"?><!DOCTYPE svg PUBLIC "-//W3C//DTD SVG 1.1//EN" "http://www.w3.org/Graphics/SVG/1.1/DTD/svg11.dtd"><svg t="1569487192480" class="icon" viewBox="0 0 1024 1024" version="1.1" xmlns="http://www.w3.org/2000/svg" p-id="20693" xmlns:xlink="http://www.w3.org/1999/xlink" width="200" height="200"><defs><style type="text/css"></style></defs><path d="M942.178273 440.254142h-216.308626l-116.231794 111.196481v-111.196481h-49.3041c-34.617772 0-62.941404-28.323632-62.941404-62.941404v-232.883196c0-34.617772 28.323632-62.941404 62.941404-62.941404h381.84452c34.617772 0 62.941404 28.323632 62.941404 62.941404v233.093001c0 34.617772-28.323632 62.7316-62.941404 62.731599z" fill="#1296db" p-id="20694"></path><path d="M165.061735 878.116511c0.839219 0 1.888242 0 2.72746-0.209804l75.110076-11.119649v75.73949c0 10.490234 8.601992 19.092226 19.092226 19.092226h397.370066c10.490234 0 19.092226-8.601992 19.092226-19.092226v-269.38921c33.568749-32.309921 60.004139-70.074763 78.88656-112.665114 4.196094-9.651015 0-20.770663-9.651016-25.176561-9.651015-4.196094-20.770663 0-25.176561 9.651015-17.833398 40.282499-43.429569 75.73949-75.949295 105.741559-3.986289 3.56668-6.084336 8.601992-6.084336 14.056914v258.479367h-359.395418v-78.676756c0-5.454922-2.517656-10.700039-6.503945-14.476523-4.196094-3.56668-9.651015-5.245117-15.105937-4.405898l-95.670934 14.476523c-27.904023-0.629414-50.353123-23.498124-50.353124-51.611951v-124.204372c0-10.490234-8.601992-19.092226-19.092226-19.092225h-32.100116c-10.909843 0-19.092226-3.14707-22.239296-8.392188-3.14707-5.454922-2.307851-14.056914 2.937265-23.707929l68.396326-130.708316c1.468633-2.727461 2.098047-5.664726 2.098047-8.811796v-55.808046c0-122.735738 71.963006-235.400852 183.369291-287.222608 38.184452-18.043203 78.88656-28.113827 121.267106-30.002069 10.490234-0.419609 18.672617-9.441211 18.253007-19.931445s-9.231406-18.672617-19.931445-18.253007c-47.415858 2.098047-93.153278 13.4275-135.743628 33.568749-124.833785 57.906092-205.398783 184.20851-205.398783 321.630576v51.192342l-66.298279 126.512222c-11.329453 21.819687-11.958867 44.058983-1.678437 61.053163s30.211874 26.854999 54.968826 26.854999h13.217695v105.32195c-0.209805 49.513905 40.072694 89.586599 89.586599 89.586598z" fill="#1296db" p-id="20695"></path><path d="M602.084885 569.074216c2.307851 1.049023 5.035312 1.468633 7.552968 1.468633 4.825508 0 9.651015-1.888242 13.217695-5.245117l110.776872-105.951364h208.545853c45.108006 0 81.823826-36.715819 81.823825-81.823825V144.429542c0-45.108006-36.715819-81.823826-81.823825-81.823825h-381.84452c-45.108006 0-81.823826 36.715819-81.823825 81.823825v233.093001c0 45.108006 36.715819 81.823826 81.823825 81.823825h30.211874v92.31406c0 7.552969 4.615703 14.476523 11.539258 17.413788z m-41.751132-147.702495c-24.127538 0-43.849178-19.72164-43.849178-43.849178V144.429542c0-24.127538 19.72164-43.849178 43.849178-43.849178h381.84452c24.127538 0 43.849178 19.72164 43.849178 43.849178v233.093001c0 24.127538-19.72164 43.849178-43.849178 43.849178h-216.308626c-4.825508 0-9.651015 1.888242-13.217695 5.245117l-84.131677 80.564998v-66.717889c0-10.490234-8.601992-19.092226-19.092226-19.092226h-49.094296z" fill="#1296db" p-id="20696"></path><path d="M751.256013 287.516335c5.035312 0 9.86082-2.098047 13.4275-5.664727 3.56668-3.56668 5.664726-8.392187 5.664726-13.427499 0-5.035312-2.098047-9.86082-5.664726-13.4275s-8.392187-5.454922-13.4275-5.454922-9.86082 2.098047-13.4275 5.454922c-3.56668 3.56668-5.664726 8.392187-5.664726 13.4275 0 5.035312 2.098047 9.86082 5.664726 13.427499 3.56668 3.776484 8.392187 5.664726 13.4275 5.664727zM822.169995 287.516335c5.035312 0 9.86082-2.098047 13.4275-5.664727 3.56668-3.56668 5.454922-8.392187 5.454921-13.427499 0-5.035312-2.098047-9.86082-5.664726-13.4275s-8.392187-5.454922-13.4275-5.454922-9.86082 2.098047-13.427499 5.454922c-3.56668 3.56668-5.664726 8.392187-5.664727 13.4275 0 5.035312 2.098047 9.86082 5.664727 13.427499 3.56668 3.776484 8.601992 5.664726 13.637304 5.664727zM680.551835 287.516335c5.035312 0 9.86082-2.098047 13.4275-5.664727 3.56668-3.56668 5.664726-8.392187 5.664726-13.427499 0-5.035312-2.098047-9.86082-5.664726-13.4275s-8.392187-5.454922-13.4275-5.454922-9.86082 2.098047-13.427499 5.454922c-3.56668 3.56668-5.664726 8.392187-5.664726 13.4275 0 5.035312 2.098047 9.86082 5.664726 13.427499 3.56668 3.776484 8.392187 5.664726 13.427499 5.664727z" fill="#1296db" p-id="20697"></path></svg>