<?xml version="1.0" standalone="no"?><!DOCTYPE svg PUBLIC "-//W3C//DTD SVG 1.1//EN" "http://www.w3.org/Graphics/SVG/1.1/DTD/svg11.dtd"><svg t="1569487197676" class="icon" viewBox="0 0 1024 1024" version="1.1" xmlns="http://www.w3.org/2000/svg" p-id="21059" xmlns:xlink="http://www.w3.org/1999/xlink" width="200" height="200"><defs><style type="text/css"></style></defs><path d="M611.608224 779.771919h349.07664v225.183732h-349.07664z" fill="#1296db" p-id="21060"></path><path d="M363.822408 38.507255c-141.681586 65.922747-233.345596 209.48784-233.345596 365.609647v59.225833l-76.177397 145.4486c-12.556714 24.067035-13.393828 48.552626-2.092785 67.178418 11.301042 18.625792 33.275291 29.298999 60.481504 29.298998h17.788678v123.265073c0 55.040262 44.785612 99.825874 99.825873 99.825874 0.837114 0 1.883507 0 2.720622-0.209279l89.361945-13.184549 0.209279 89.989781c0 10.463928 8.580421 19.044349 19.044349 19.044349s19.044349-8.580421 19.044349-19.044349l-0.209278-111.96403c0-5.441243-2.511343-10.673207-6.487636-14.440221-4.185571-3.557736-9.626814-5.231964-15.068056-4.39485l-109.452688 16.323728c-33.48457-0.627836-60.481504-28.252606-60.481504-61.946454v-142.309422c0-10.463928-8.580421-19.044349-19.044349-19.044349h-37.460862c-13.603106 0-23.648477-3.976293-28.043328-11.091764-4.185571-6.906193-3.139178-17.997956 3.139179-29.926834l78.47946-149.634171c1.46495-2.720621 2.092786-5.650521 2.092786-8.7897V403.907623c0-141.472307 83.083589-271.643572 211.580625-331.287962 48.971183-23.22992 101.709381-34.94952 156.331085-34.94952 201.744533 0 365.818925 164.074392 365.818925 365.818925 0 37.670141-5.650521 74.921725-16.951563 110.708359-3.139178 10.045371 2.302064 20.718578 12.347435 23.857756 10.045371 3.139178 20.718578-2.302064 23.857756-12.347435 12.556714-39.34437 18.835071-80.362968 18.835071-122.009401 0-222.672389-181.025955-403.698345-403.698345-403.698345-60.272226 0-118.242387 12.975271-172.445534 38.507255z" fill="#1296db" p-id="21061"></path><path d="M611.608224 760.72757c-10.463928 0-19.044349 8.580421-19.044349 19.044349v225.183732c0 10.463928 8.580421 19.044349 19.044349 19.044349h349.07664c10.463928 0 19.044349-8.580421 19.044349-19.044349V779.562641c0-10.463928-8.580421-19.044349-19.044349-19.04435h-44.994891V692.712038c0-71.363989-58.17944-129.543429-129.543429-129.54343s-129.543429 58.17944-129.543429 129.54343c0 10.463928 8.580421 19.044349 19.044349 19.044349s19.044349-8.580421 19.044349-19.044349c0-50.436133 41.018598-91.454731 91.454731-91.454732s91.454731 41.018598 91.454731 91.454732v67.806253h-265.993051v0.209279z m330.24157 225.183732h-311.197221v-187.304312h311.197221v187.304312z" fill="#1296db" p-id="21062"></path></svg>