<?xml version="1.0" standalone="no"?><!DOCTYPE svg PUBLIC "-//W3C//DTD SVG 1.1//EN" "http://www.w3.org/Graphics/SVG/1.1/DTD/svg11.dtd"><svg t="1569487189768" class="icon" viewBox="0 0 1024 1024" version="1.1" xmlns="http://www.w3.org/2000/svg" p-id="20510" xmlns:xlink="http://www.w3.org/1999/xlink" width="200" height="200"><defs><style type="text/css"></style></defs><path d="M390.508475 848.349602h242.564835v156.412497h-242.564835z" fill="#1296db" p-id="20511"></path><path d="M139.579334 674.162957c-22.374515 18.40147-35.13008 45.376353-35.130079 74.442312v109.363283c0 10.455381 8.573412 19.028793 19.028793 19.028793s19.028793-8.573412 19.028793-19.028793V748.605269c0-17.56504 7.736982-34.084542 21.328977-45.167246 97.653257-80.297325 203.461711-133.619767 223.536042-143.447825 8.78252-4.39126 14.637533-13.591995 14.637534-23.420053v-154.112314c0-6.273229-3.136614-12.337349-8.364305-15.683071-14.846641-9.828058-23.629161-26.34756-23.629161-44.121707V162.894834c0-68.796406 56.040841-124.837247 124.837247-124.837248h34.29365c68.796406 0 124.837247 56.040841 124.837247 124.837248v159.758219c0 17.774147-8.78252 34.293649-23.629161 44.121707-5.22769 3.554829-8.364305 9.409843-8.364305 15.683071v154.112314c0 9.828058 5.645906 19.028793 14.637534 23.420053 20.283439 9.828058 126.091893 63.1505 223.536042 143.447825 13.591995 11.082704 21.328977 27.602205 21.328977 45.167246v109.363283c0 10.455381 8.573412 19.028793 19.028793 19.028793s19.028793-8.573412 19.028793-19.028793V748.605269c0-29.065959-12.755565-56.040841-35.130079-74.442312-92.843782-76.32428-192.797223-129.0194-224.372473-144.911579v-137.383704c20.283439-17.146825 32.202573-42.448846 32.202573-69.423729V162.894834c0-89.707168-72.978558-162.894834-162.894834-162.894834h-34.293649c-89.707168 0-162.894834 72.978558-162.894834 162.894834v159.758219c0 26.974883 11.919134 52.067797 32.202573 69.423729v137.383704c-31.993465 15.683071-131.946906 68.378191-224.790688 144.702471z" fill="#1296db" p-id="20512"></path><path d="M511.790892 692.35532c-52.695119 0-95.771289 42.867061-95.771288 95.771288v41.403308h-25.511129c-10.455381 0-19.028793 8.573412-19.028794 19.028793v156.412498c0 10.455381 8.573412 19.028793 19.028794 19.028793h242.564835c10.455381 0 19.028793-8.573412 19.028793-19.028793v-156.412498c0-10.455381-8.573412-19.028793-19.028793-19.028793h-25.511129v-41.403308c0-52.904227-43.076169-95.771289-95.771289-95.771288z m-57.92281 95.771288c0-31.784358 25.929344-57.92281 57.92281-57.92281 31.784358 0 57.92281 25.929344 57.92281 57.92281v41.403308h-115.636512v-41.403308h-0.209108z m160.176435 197.815806h-204.716357v-118.564019h204.716357v118.564019z" fill="#1296db" p-id="20513"></path></svg>