<?xml version="1.0" standalone="no"?><!DOCTYPE svg PUBLIC "-//W3C//DTD SVG 1.1//EN" "http://www.w3.org/Graphics/SVG/1.1/DTD/svg11.dtd"><svg t="1569487200214" class="icon" viewBox="0 0 1024 1024" version="1.1" xmlns="http://www.w3.org/2000/svg" p-id="21242" xmlns:xlink="http://www.w3.org/1999/xlink" width="200" height="200"><defs><style type="text/css"></style></defs><path d="M543.986933 598.971009l16.307065 361.264189-49.548388 44.739894-48.712127-44.112699 15.679869-361.891384" fill="#1296db" p-id="21243"></path><path d="M138.81911 845.040425c10.453246 0 19.024908-8.571662 19.024908-19.024908v-105.368722c0-16.725194 7.317272-32.405063 20.070233-42.85831 93.870151-77.144957 195.475704-128.365864 214.918742-137.98285 8.989792-4.390363 14.42548-13.17109 14.42548-23.206207v-148.227031c0-6.271948-3.135974-12.334831-8.362597-15.679869-14.00735-9.407922-22.579012-25.087791-22.579012-41.812985V157.425888c0-65.855451 53.520621-119.376072 119.376072-119.376072h33.032258c65.855451 0 119.376072 53.520621 119.376072 119.376072v153.66272c0 16.934259-8.362597 32.405063-22.579012 41.812984-5.226623 3.554104-8.362597 9.407922-8.362597 15.67987v148.227031c0 10.035116 5.644753 18.815843 14.42548 23.206207 19.443038 9.407922 121.257656 60.837893 214.918742 137.98285 12.75296 10.453246 20.070233 26.133116 20.070233 42.85831v105.368721c0 10.453246 8.571662 19.024908 19.024908 19.024909s19.024908-8.571662 19.024908-19.024909v-105.368721c0-28.0147-12.334831-54.35688-34.077583-72.127399-88.852593-72.963659-184.604328-123.766435-215.545937-139.23724v-131.292773c19.443038-16.725194 30.941609-40.976725 30.941609-67.10984V157.425888c0-86.761944-70.663944-157.425888-157.425888-157.425888H495.483871c-86.761944 0-157.425888 70.663944-157.425888 157.425888v153.66272c0 25.924051 11.498571 50.384647 30.941609 67.10984v131.292773c-30.941609 15.470804-126.693344 66.273581-215.545937 139.23724-21.533687 17.770519-34.077583 44.112699-34.077583 72.127399v105.368721c0.627195 10.244181 8.989792 18.815843 19.443038 18.815844z" fill="#1296db" p-id="21244"></path><path d="M563.220906 540.43283c-10.453246 0-19.024908 8.571662-19.024908 19.024908 0 9.407922-3.972234 17.770519-10.453246 23.624336-1.25439 0.83626-2.508779 1.672519-3.554104 2.926909-5.017558 3.554104-11.289506 5.435688-17.979583 5.435688-17.561454 0-31.986933-14.42548-31.986934-31.986933 0-10.453246-8.571662-19.024908-19.024908-19.024908s-19.024908 8.571662-19.024908 19.024908c0 16.725194 6.062883 32.195998 15.888934 44.321764l-15.470804 356.455696c-0.209065 5.644753 2.090649 11.080441 6.271948 14.84361l48.712127 44.112699c3.554104 3.345039 8.153532 4.808493 12.752961 4.808493s9.198857-1.672519 12.75296-4.808493l49.548387-44.739894c4.181298-3.763169 6.481013-9.198857 6.271948-14.84361l-15.888934-352.274397c11.707636-12.543895 19.024908-29.269089 19.024908-47.666803 0.209065-10.662311-8.362597-19.233973-18.815844-19.233973z m-52.475296 439.036341l-29.478154-26.551245 14.00735-325.932218c5.435688 1.463454 11.080441 2.090649 16.934259 2.09065 4.808493 0 9.407922-0.41813 14.00735-1.463455l14.634545 324.259698-30.10535 27.59657z" fill="#1296db" p-id="21245"></path></svg>