<?xml version="1.0" standalone="no"?><!DOCTYPE svg PUBLIC "-//W3C//DTD SVG 1.1//EN" "http://www.w3.org/Graphics/SVG/1.1/DTD/svg11.dtd"><svg t="1569487187165" class="icon" viewBox="0 0 1024 1024" version="1.1" xmlns="http://www.w3.org/2000/svg" p-id="20327" xmlns:xlink="http://www.w3.org/1999/xlink" width="200" height="200"><defs><style type="text/css"></style></defs><path d="M611.587871 779.821823h349.214548v225.137719h-349.214548z" fill="#1296db" p-id="20328"></path><path d="M897.403972 538.154475c10.043318 3.138537 20.714344-2.301594 23.852881-12.344912 12.554148-39.33633 18.831222-80.346547 18.831222-122.193707 0-222.62689-180.988966-403.615856-403.615856-403.615856-60.25991 0-118.427462 12.97262-172.410298 38.708623-142.071107 65.700041-233.716387 209.235799-233.716388 365.534941v59.213731l-76.161831 145.41888c-12.554148 24.062117-13.391091 48.542705-2.092357 67.164691s33.268492 29.293012 60.469145 29.293012h17.785043V828.573764c0 55.029015 44.776461 99.805476 99.805476 99.805476 0.836943 0 1.883122 0 2.720066-0.209236l89.343686-13.181855 0.209236 89.971393c0 10.46179 8.578668 19.040458 19.040457 19.040458s19.040458-8.578668 19.040458-19.040458l-0.209236-111.941152c0-5.440131-2.51083-10.671026-6.486309-14.43727-4.184716-3.557009-9.624847-5.230895-15.064978-4.393952l-109.430323 16.320392c-33.477728-0.627707-60.678382-28.246833-60.678381-61.933796v-142.280343c0-10.46179-8.578668-19.040458-19.040458-19.040458h-37.034737c-13.600327 0-23.643645-3.97548-28.037597-11.089498-4.184716-7.114017-3.138537-17.994279 3.138537-29.920719l78.463425-149.603596c1.464651-2.720065 2.092358-5.649367 2.092358-8.787904v-63.816918c0-141.652636 83.066612-271.588067 211.537393-331.22027 49.170413-23.225174 101.688598-34.942378 156.299141-34.942378 201.70331 0 365.744177 164.040866 365.744177 365.744176 0 37.662444-5.649367 74.906416-16.9481 110.685738-3.138537 10.043318 2.51083 20.714344 12.554148 23.852881z" fill="#1296db" p-id="20329"></path><path d="M979.842877 1004.959542V779.821823c0-10.46179-8.578668-19.040458-19.040458-19.040458h-45.194932v-67.792399c0-71.349407-58.167552-129.51696-129.51696-129.516959s-129.51696 58.167552-129.516959 129.516959v67.792399h-45.194933c-10.46179 0-19.040458 8.578668-19.040458 19.040458v225.137719c0 10.46179 8.578668 19.040458 19.040458 19.040458h349.214548c10.671026 0 19.249694-8.578668 19.249694-19.040458z m-285.188394-311.970576c0-50.425828 41.010217-91.64528 91.64528-91.64528s91.64528 41.010217 91.64528 91.64528v67.792399h-183.081324v-67.792399h-0.209236z m247.107479 293.139354h-311.133633v-187.475275h311.133633v187.475275z" fill="#1296db" p-id="20330"></path></svg>