<?xml version="1.0" standalone="no"?><!DOCTYPE svg PUBLIC "-//W3C//DTD SVG 1.1//EN" "http://www.w3.org/Graphics/SVG/1.1/DTD/svg11.dtd"><svg t="1569487173357" class="icon" viewBox="0 0 1024 1024" version="1.1" xmlns="http://www.w3.org/2000/svg" p-id="19410" xmlns:xlink="http://www.w3.org/1999/xlink" width="200" height="200"><defs><style type="text/css"></style></defs><path d="M508.025332 499.762206h1.673544c156.058018-1.673544 133.465169-210.029826 133.465169-210.029826-6.484985-139.113381-122.796323-138.067416-134.301941-137.64903-11.505618-0.418386-127.816956-1.673544-134.301941 137.64903 0.209193 0.209193-22.383657 208.565475 133.465169 210.029826z" fill="#1296db" p-id="19411"></path><path d="M512 0c-197.896629 0-358.975281 161.078652-358.975281 358.975281 0 94.346067 36.817978 180.533606 96.647191 244.54668 1.255158 1.673544 2.71951 3.347089 4.393054 4.602247 65.268233 67.569356 156.894791 109.826353 257.935036 109.826354 197.896629 0 358.975281-161.078652 358.975281-358.975281S709.896629 0 512 0z m-209.61144 601.639224c97.483963-31.797344 131.791624-70.498059 143.715628-95.601226 17.990603 8.158529 38.073136 12.34239 60.665986 12.760776h4.602247c24.266394-0.418386 46.022472-5.439019 65.05904-14.852707 11.087232 24.893973 44.558121 65.05904 144.970786 97.693157-56.272932 48.532789-129.490501 78.238202-209.61144 78.238202-79.911747 0-153.129316-29.496221-209.402247-78.238202z m207.310316-120.704393h-1.255158c-33.261696-0.418386-58.574055-10.878039-77.40143-32.21573-47.696016-53.553422-37.236364-155.639632-37.236364-156.685597v-1.255159c5.020633-110.872319 87.024311-119.449234 112.127477-119.449234H512.418386c24.893973 0 106.897651 8.576915 112.127477 119.449234v1.255159c0.209193 1.045965 10.459653 102.922983-37.236364 156.685597-19.036568 21.337692-44.348927 31.797344-77.610623 32.21573z m242.45475 90.580593c-138.485802-40.165066-143.088049-89.325434-143.088049-89.74382v1.045965h-2.09193c2.928703-2.71951 5.857406-5.648212 8.576915-8.786108 57.109704-64.431461 47.696016-174.885393 46.650051-185.345046-5.439019-114.637794-84.095608-155.430439-149.99142-155.43044h-6.694178c-65.686619 0-144.343207 40.583453-149.991419 155.221247-1.045965 10.25046-10.668846 120.913585 46.650051 185.345046 3.556282 3.974668 7.53095 7.740143 11.296425 11.296425-3.137896 10.459653-23.638815 51.670684-142.042084 86.187538-50.206333-56.691318-80.748519-130.954852-80.748519-212.540143 0-176.977324 143.924821-321.111338 321.111338-321.111338s321.111338 143.924821 321.111338 321.111338c0.209193 81.585291-30.542186 156.058018-80.748519 212.749336zM794.410623 859.155873c0-10.459653-8.576915-19.036568-19.036568-19.036568h-526.74811c-10.459653 0-19.036568 8.576915-19.036568 19.036568s8.576915 19.036568 19.036568 19.036568h526.74811c10.459653 0 19.036568-8.576915 19.036568-19.036568zM701.7381 1004.963432c0-10.459653-8.576915-19.036568-19.036568-19.036568h-341.403064c-10.459653 0-19.036568 8.576915-19.036568 19.036568s8.576915 19.036568 19.036568 19.036568h341.612257c10.25046-0.209193 18.827375-8.576915 18.827375-19.036568z" fill="#1296db" p-id="19412"></path></svg>