<?xml version="1.0" standalone="no"?><!DOCTYPE svg PUBLIC "-//W3C//DTD SVG 1.1//EN" "http://www.w3.org/Graphics/SVG/1.1/DTD/svg11.dtd"><svg t="1569487184634" class="icon" viewBox="0 0 1024 1024" version="1.1" xmlns="http://www.w3.org/2000/svg" p-id="20143" xmlns:xlink="http://www.w3.org/1999/xlink" width="200" height="200"><defs><style type="text/css"></style></defs><path d="M955.287783 388.568631h-171.258413l-92.10361 88.135428v-88.135428h-39.055273c-27.359576 0-49.70671-22.347134-49.70671-49.70671v-184.833775c0-27.359576 22.347134-49.70671 49.70671-49.70671h302.417296c27.359576 0 49.70671 22.347134 49.70671 49.70671v184.624924c0 27.359576-22.347134 49.915562-49.70671 49.915561z" fill="#1296db" p-id="20144"></path><path d="M656.003263 628.748113c-76.022027-62.446665-157.891903-106.096676-186.086885-120.507444v-111.317969c16.91699-14.828472 26.733021-36.3402 26.73302-59.313889v-133.2474c0-76.648583-62.446665-139.095248-139.095247-139.095247h-28.612687c-76.648583 0-139.095248 62.446665-139.095247 139.095247v133.2474c0 22.97369 9.816031 44.485417 26.73302 59.313889v111.317969c-28.194983 14.201917-110.064858 58.060779-186.086885 120.507444-19.42321 15.872731-30.492352 39.472976-30.492352 64.535183v91.268203c0 10.442586 8.562921 19.005507 19.005507 19.005507s19.005507-8.562921 19.005507-19.005507v-91.268203c0-13.784214 6.0567-26.733021 16.499286-35.295941 81.24332-66.6237 169.169896-111.109117 186.086885-119.254334 8.562921-4.177034 13.993065-12.739955 13.993066-22.347135v-128.652661c0-6.265552-3.132776-12.322252-8.354069-15.66388-11.486845-7.727514-18.378952-20.467469-18.378952-34.251682v-133.2474c0-55.76341 45.320824-101.084234 101.084234-101.084234h28.612687c55.76341 0 101.084234 45.320824 101.084234 101.084234v133.2474c0 13.784214-6.892107 26.524169-18.378952 34.251682-5.221293 3.550479-8.354069 9.398328-8.354069 15.66388v128.443809c0 9.398328 5.430145 18.1701 13.993066 22.347135 16.91699 8.145217 104.843565 52.630634 186.086885 119.254334 10.442586 8.562921 16.499286 21.511728 16.499286 35.295941v91.268203c0 10.442586 8.562921 19.005507 19.005507 19.005507s19.005507-8.562921 19.005507-19.005507v-91.268203c0-25.062207-11.069141-48.4536-30.492352-64.326331z" fill="#1296db" p-id="20145"></path><path d="M387.419947 534.138283c-10.442586 0-19.005507 8.562921-19.005507 19.005507 0 7.30981-3.132776 13.784214-8.145217 18.378951-1.044259 0.626555-2.088517 1.461962-3.132776 2.506221-3.968183 2.715072-8.771772 4.385886-13.993065 4.385886-13.993065 0-25.271059-11.277993-25.271059-25.271058 0-10.442586-8.562921-19.005507-19.005507-19.005507s-19.005507 8.562921-19.005507 19.005507c0 14.828472 5.221293 28.403834 13.784214 39.264124l-13.36651 308.473995c-0.208852 5.638997 2.088517 11.069141 6.265552 14.828472l42.396899 38.219866c3.550479 3.341628 8.145217 4.80359 12.739956 4.803589 4.594738 0 9.189476-1.670814 12.739955-4.803589l43.023455-38.846421c4.177034-3.759331 6.474403-9.189476 6.265551-14.828472l-13.784213-304.714665c10.233734-11.277993 16.290434-25.897614 16.290434-42.188048 0.208852-10.651438-8.354069-19.214359-18.796655-19.214358z m-45.529676 380.110136l-22.973689-20.885172 12.1134-278.608199c3.968183 0.835407 8.145217 1.25311 12.531103 1.25311 3.341628 0 6.474403-0.417703 9.816031-0.835407l12.531103 277.563941-24.017948 21.511727zM955.287783 85.524781H652.870487c-37.802162 0-68.712217 30.910055-68.712217 68.712217v184.416072c0 37.802162 30.910055 68.712217 68.712217 68.712217h20.049766v69.12992c0 7.518662 4.594738 14.410769 11.486845 17.334693 2.297369 1.044259 5.012441 1.461962 7.518662 1.461962 4.80359 0 9.607179-1.879666 13.157658-5.221293l86.464614-82.914134h163.739751c37.802162 0 68.712217-30.910055 68.712217-68.712217v-184.416072c0-37.802162-30.910055-68.503365-68.712217-68.503365z m30.910055 253.128289c0 16.91699-13.784214 30.910055-30.910055 30.910055h-171.258413c-4.80359 0-9.607179 1.879666-13.157659 5.221293l-59.940444 57.434224v-43.858862c0-10.442586-8.562921-19.005507-19.005507-19.005507h-39.055273c-16.91699 0-30.910055-13.784214-30.910055-30.910055v-184.416072c0-16.91699 13.784214-30.910055 30.910055-30.910055h302.417296c16.91699 0 30.910055 13.784214 30.910055 30.910055v184.624924z" fill="#1296db" p-id="20146"></path><path d="M804.079135 232.974097c-5.012441 0-9.816031 2.088517-13.36651 5.638997-3.550479 3.550479-5.430145 8.354069-5.430145 13.36651s2.088517 9.816031 5.638997 13.366511 8.354069 5.638997 13.36651 5.638996 9.816031-2.088517 13.36651-5.638996c3.550479-3.550479 5.638997-8.354069 5.638997-13.366511s-2.088517-9.816031-5.638997-13.36651c-3.759331-3.759331-8.562921-5.638997-13.575362-5.638997zM874.462166 232.974097c-5.012441 0-9.816031 2.088517-13.36651 5.638997-3.550479 3.550479-5.430145 8.354069-5.430145 13.36651s2.088517 9.816031 5.638996 13.366511 8.354069 5.638997 13.366511 5.638996 9.816031-2.088517 13.36651-5.638996c3.550479-3.550479 5.638997-8.354069 5.638997-13.366511s-2.088517-9.816031-5.638997-13.36651c-3.759331-3.759331-8.562921-5.638997-13.575362-5.638997zM733.696104 232.974097c-5.012441 0-9.816031 2.088517-13.36651 5.638997-3.550479 3.550479-5.638997 8.354069-5.638996 13.36651s2.088517 9.816031 5.638996 13.366511 8.354069 5.638997 13.36651 5.638996 9.816031-2.088517 13.366511-5.638996c3.550479-3.550479 5.638997-8.354069 5.638996-13.366511s-2.088517-9.816031-5.638996-13.36651c-3.550479-3.759331-8.562921-5.638997-13.366511-5.638997z" fill="#1296db" p-id="20147"></path></svg>