<?xml version="1.0" standalone="no"?><!DOCTYPE svg PUBLIC "-//W3C//DTD SVG 1.1//EN" "http://www.w3.org/Graphics/SVG/1.1/DTD/svg11.dtd"><svg t="1569487178811" class="icon" viewBox="0 0 1024 1024" version="1.1" xmlns="http://www.w3.org/2000/svg" p-id="19776" xmlns:xlink="http://www.w3.org/1999/xlink" width="200" height="200"><defs><style type="text/css"></style></defs><path d="M942.419309 716.108816h-184.315811v-184.315811c-101.792596 0-184.315811 82.523215-184.315811 184.315811s82.523215 184.315811 184.315811 184.315811 184.315811-82.523215 184.315811-184.315811z" fill="#1296db" p-id="19777"></path><path d="M556.403354 378.056862c19.47883-16.755983 30.998568-41.052158 30.998569-67.023931V157.506238c0-86.712211-70.584578-157.506238-157.506239-157.506238h-33.093066c-86.712211 0-157.506238 70.584578-157.506238 157.506238v153.526693c0 25.971773 11.310288 50.477398 30.998568 67.023931v131.325016c-30.998568 15.499284-126.71712 66.186132-215.523829 139.284107-21.573328 17.803232-33.930865 43.984455-33.930865 72.260176v105.353242c0 10.472489 8.587441 19.05993 19.05993 19.05993s19.05993-8.587441 19.059931-19.05993v-105.353242c0-16.755983 7.330742-32.255267 20.107179-42.937206 93.833504-77.077521 195.626099-128.392718 214.89548-137.817959 8.796891-4.398445 14.452035-13.404786 14.452035-23.248926v-148.080998c0-6.283494-3.141747-12.357537-8.377992-15.708734-14.033136-9.42524-22.411127-24.924524-22.411127-41.889957V157.506238c0-65.767233 53.619145-119.386378 119.386378-119.386377h33.093066c65.767233 0 119.386378 53.619145 119.386378 119.386377v153.526693c0 16.755983-8.377991 32.464717-22.411127 41.889957-5.236245 3.560646-8.377991 9.42524-8.377992 15.708734v148.080998c0 10.472489 8.587441 19.05993 19.059931 19.059931s19.05993-8.587441 19.05993-19.059931v-138.655758h-0.4189z" fill="#1296db" p-id="19778"></path><path d="M464.245449 540.589896c-10.472489 0-19.05993 8.587441-19.05993 19.05993 0 9.215791-3.979546 17.593782-10.47249 23.458376-1.256699 0.837799-2.513397 1.675598-3.560646 2.932297-5.026795 3.560646-11.310288 5.445694-17.803232 5.445694-17.593782 0-31.836367-14.242585-31.836367-31.836367 0-10.472489-8.587441-19.05993-19.059931-19.05993s-19.05993 8.587441-19.05993 19.05993c0 16.755983 5.864594 32.255267 15.918184 44.193905l-15.289835 356.483534c-0.20945 5.655144 2.094498 11.100839 6.283494 14.870935l48.8018 43.984455c3.560646 3.351197 8.168542 4.817345 12.776437 4.817345 4.607895 0 9.215791-1.675598 12.776437-4.817345l49.639599-44.822254c4.188996-3.770096 6.492943-9.215791 6.283493-14.870935l-15.918183-352.503988c11.729188-12.566987 18.850481-29.32297 18.85048-47.754551-0.20945-10.263039-8.796891-18.641031-19.26938-18.641031z m-52.571896 439.00675l-29.53242-26.600123 14.033136-325.903866c5.445694 1.466148 11.100839 2.094498 16.965432 2.094498 4.817345 0 9.42524-0.4189 13.823686-1.466149l14.661485 324.437718-29.951319 27.437922zM942.419309 697.048885h-165.255881v-165.25588c0-10.472489-8.587441-19.05993-19.05993-19.059931-112.055635 0-203.166292 91.110657-203.166292 203.166292s91.110657 203.166292 203.166292 203.166292 203.166292-91.110657 203.166291-203.166292c0-10.263039-8.377991-18.850481-18.85048-18.850481z m-184.315811 184.315811c-91.110657 0-165.255881-74.145224-165.255881-165.25588 0-84.617713 64.091634-154.783391 146.19595-164.208632v164.208632c0 10.472489 8.587441 19.05993 19.059931 19.05993h164.208631c-9.42524 82.104316-79.590918 146.19595-164.208631 146.19595z" fill="#1296db" p-id="19779"></path><path d="M839.579464 473.356515c-10.472489 0-19.05993 8.587441-19.05993 19.05993v144.520352c0 10.472489 8.587441 19.05993 19.05993 19.05993h144.520352c10.472489 0 19.05993-8.587441 19.05993-19.05993 0-40.004909-14.452035-78.33422-41.052158-108.285539-30.789118-35.187564-75.611372-55.294743-122.528124-55.294743z m19.059931 144.729801v-105.143792c28.90407 4.398445 55.504193 18.850481 75.192472 41.052158 16.127633 18.222131 26.390673 40.423809 29.95132 64.091634h-105.143792z" fill="#1296db" p-id="19780"></path></svg>