<?xml version="1.0" standalone="no"?><!DOCTYPE svg PUBLIC "-//W3C//DTD SVG 1.1//EN" "http://www.w3.org/Graphics/SVG/1.1/DTD/svg11.dtd"><svg t="1569487176262" class="icon" viewBox="0 0 1024 1024" version="1.1" xmlns="http://www.w3.org/2000/svg" p-id="19592" xmlns:xlink="http://www.w3.org/1999/xlink" width="200" height="200"><defs><style type="text/css"></style></defs><path d="M955.203594 388.417398h-171.468246l-92.007351 88.243415v-88.243415h-39.103125c-27.393098 0-49.767613-22.374515-49.767612-49.767612v-184.642026c0-27.393098 22.374515-49.767613 49.767612-49.767613h302.578722c27.393098 0 49.767613 22.374515 49.767613 49.767613v184.642026c0 27.393098-22.374515 49.767613-49.767613 49.767612z" fill="#1296db" p-id="19593"></path><path d="M496.421483 337.604247v-133.410659c0-76.742495-62.31407-139.056565-139.056566-139.056565h-28.647743c-76.742495 0-139.056565 62.31407-139.056565 139.056565v133.410659c0 23.001838 9.828058 44.330815 26.765775 59.386564v111.245252c-28.229528 14.219318-110.199714 57.92281-186.10578 120.445987-19.237901 15.892179-30.320604 39.52134-30.320604 64.614254v91.380028c0 10.455381 8.573412 19.028793 19.028793 19.028794s19.028793-8.573412 19.028793-19.028794v-91.380028c0-13.801103 6.064121-26.556667 16.519502-35.339187 81.133755-66.70533 169.168062-111.036145 186.105779-119.40045 8.573412-4.182152 14.01021-12.755565 14.01021-22.374515v-128.601184c0-6.273229-3.136614-12.337349-8.364304-15.683071-11.500919-7.736982-18.40147-20.492546-18.401471-34.29365v-133.410659c0-55.831734 45.376353-101.208087 101.208087-101.208087h28.647744c55.831734 0 101.208087 45.376353 101.208086 101.208087v133.410659c0 13.801103-6.900551 26.556667-18.40147 34.29365-5.22769 3.554829-8.364305 9.409843-8.364305 15.683071v128.601184c0 9.61895 5.436798 18.192363 14.01021 22.374515 16.937717 8.155197 104.972024 52.695119 186.10578 119.40045 10.455381 8.573412 16.519502 21.538085 16.519501 35.339187v91.380028c0 10.455381 8.573412 19.028793 19.028793 19.028794s19.028793-8.573412 19.028794-19.028794v-91.380028c0-25.092914-11.082704-48.722075-30.320605-64.614254-76.115173-62.523177-157.876251-106.226669-186.105779-120.445987v-111.245252c16.101287-15.055748 25.929344-36.593833 25.929345-59.386564z" fill="#1296db" p-id="19594"></path><path d="M387.267307 534.165407c-10.455381 0-19.028793 8.573412-19.028794 19.028794 0 7.318767-3.136614 13.801103-8.155197 18.40147-1.045538 0.627323-2.091076 1.463753-3.136614 2.509291-3.973045 2.718399-8.78252 4.39126-14.01021 4.39126-13.801103 0-25.302022-11.291811-25.302022-25.302021 0-10.455381-8.573412-19.028793-19.028793-19.028794s-19.028793 8.573412-19.028793 19.028794c0 14.846641 5.22769 28.438636 13.801103 39.312232l-13.382888 308.433734c-0.209108 5.645906 2.091076 11.082704 6.273229 14.846641l42.448846 38.266694c3.554829 3.345722 8.155197 4.809475 12.755564 4.809475 4.600368 0 9.200735-1.672861 12.755565-4.809475l43.076169-38.894017c4.182152-3.763937 6.482336-9.200735 6.273229-14.84664l-13.801103-304.669798c10.037166-11.291811 16.310394-25.929344 16.310394-42.239739 0.209108-10.664488-8.364305-19.237901-18.819685-19.237901z m-45.585461 380.157648l-23.001838-20.701654 11.919134-278.531346c3.973045 0.83643 8.155197 1.254646 12.33735 1.254646 3.345722 0 6.482336-0.418215 9.61895-0.836431l12.546457 277.485808-23.420053 21.328977zM909.827241 191.019808H697.792118c-10.455381 0-19.028793 8.573412-19.028794 19.028793s8.573412 19.028793 19.028794 19.028793h212.035123c10.455381 0 19.028793-8.573412 19.028793-19.028793s-8.573412-19.028793-19.028793-19.028793zM909.827241 266.716765H697.792118c-10.455381 0-19.028793 8.573412-19.028794 19.028794s8.573412 19.028793 19.028794 19.028793h212.035123c10.455381 0 19.028793-8.573412 19.028793-19.028793s-8.573412-19.028793-19.028793-19.028794z" fill="#1296db" p-id="19595"></path><path d="M955.203594 85.420462H652.624872c-37.848479 0-68.796406 30.73882-68.796406 68.796405v184.642026c0 37.848479 30.73882 68.796406 68.796406 68.796406h20.074332v69.214621c0 7.527874 4.600368 14.428426 11.500919 17.355933 2.300184 1.045538 5.018583 1.463753 7.527874 1.463753 4.809475 0 9.61895-1.881969 13.17378-5.227691l86.570553-82.806616h163.731264c37.848479 0 68.796406-30.73882 68.796406-68.796406v-184.851133c-0.209108-37.848479-30.947927-68.587298-68.796406-68.587298z m30.73882 253.229324c0 16.937717-13.801103 30.73882-30.73882 30.738819h-171.468246c-4.809475 0-9.61895 1.881969-13.17378 5.227691l-60.013886 57.504594v-43.703492c0-10.455381-8.573412-19.028793-19.028793-19.028793H652.415765c-16.937717 0-30.73882-13.801103-30.73882-30.738819v-184.642026c0-16.937717 13.801103-30.73882 30.73882-30.73882h302.787829c16.937717 0 30.73882 13.801103 30.73882 30.73882v184.642026z" fill="#1296db" p-id="19596"></path></svg>