<?xml version="1.0" standalone="no"?><!DOCTYPE svg PUBLIC "-//W3C//DTD SVG 1.1//EN" "http://www.w3.org/Graphics/SVG/1.1/DTD/svg11.dtd"><svg t="1569487207310" class="icon" viewBox="0 0 1024 1024" version="1.1" xmlns="http://www.w3.org/2000/svg" p-id="21793" xmlns:xlink="http://www.w3.org/1999/xlink" width="200" height="200"><defs><style type="text/css"></style></defs><path d="M816.150121 1004.964404v-85.346407c0-17.989684-7.94893-35.142638-21.964149-46.647669-77.188295-63.382258-160.442878-105.427915-177.38665-113.795209-1.882641-0.836729-3.137736-2.928553-3.137736-5.020377v-120.070681c15.061131-10.040754 25.101884-27.193708 25.101885-46.647669v-124.672692c0-61.917982-50.203769-112.330933-112.330933-112.330934h-26.775344c-61.917982 0-112.330933 50.203769-112.330933 112.330934v124.46351c0 19.45396 10.040754 36.606915 25.101885 46.647669v120.07068c0 2.091824-1.255094 3.974465-3.137736 5.020377-16.943772 8.367295-100.198356 50.412951-177.38665 113.79521-14.015219 11.50503-21.964149 28.657985-21.964149 46.647669v85.346407" fill="#1296db" p-id="21794"></path><path d="M511.998954 263.622083c10.459119 0 19.035596-8.576477 19.035596-19.035596v-179.896839l35.142638 35.142638c3.765283 3.765283 8.576477 5.647924 13.387672 5.647924s9.622389-1.882641 13.387672-5.647924c7.321383-7.321383 7.321383-19.45396 0-26.775343l-67.565906-67.565906c-7.321383-7.321383-19.45396-7.321383-26.775344 0l-67.565905 67.565906c-7.321383 7.321383-7.321383 19.45396 0 26.775343s19.45396 7.321383 26.775343 0l35.142638-35.142638v179.896839c0 10.668301 8.576477 19.035596 19.035596 19.035596zM146.34817 546.64583c7.321383-7.321383 7.321383-19.45396 0-26.775343l-35.142638-35.142639h179.896839c10.459119 0 19.035596-8.576477 19.035595-19.035595s-8.576477-19.035596-19.035595-19.035596h-179.896839l35.142638-35.142638c7.321383-7.321383 7.321383-19.45396 0-26.775344s-19.45396-7.321383-26.775343 0l-67.565906 67.565906c-3.5561 3.5561-5.647924 8.367295-5.647924 13.387672s2.091824 9.831571 5.647924 13.387671l67.565906 67.565906c3.765283 3.765283 8.576477 5.647924 13.387671 5.647924 4.811195 0 9.622389-2.091824 13.387672-5.647924zM732.895538 484.518666h179.896838l-35.142638 35.142638c-7.321383 7.321383-7.321383 19.45396 0 26.775344 3.765283 3.765283 8.576477 5.647924 13.387672 5.647924s9.622389-1.882641 13.387671-5.647924l67.565906-67.565906c3.5561-3.5561 5.647924-8.367295 5.647924-13.387672s-2.091824-9.831571-5.647924-13.387671l-67.565906-67.565906c-7.321383-7.321383-19.45396-7.321383-26.775343 0s-7.321383 19.45396 0 26.775343l35.142638 35.142639h-179.896838c-10.459119 0-19.035596 8.576477-19.035596 19.035595s8.576477 19.035596 19.035596 19.035596zM177.307161 149.826873v95.596343c0 10.459119 8.576477 19.035596 19.035596 19.035596s19.035596-8.576477 19.035595-19.035596v-49.785404l127.182882 127.182882c3.765283 3.765283 8.576477 5.647924 13.387672 5.647924s9.622389-1.882641 13.387671-5.647924c7.321383-7.321383 7.321383-19.45396 0-26.775344l-127.182881-127.182881h49.785404c10.459119 0 19.035596-8.576477 19.035596-19.035596s-8.576477-19.035596-19.035596-19.035596h-95.805526c-10.459119 0-18.826413 8.576477-18.826413 19.035596zM668.258185 328.259435c4.811195 0 9.622389-1.882641 13.387672-5.647924l127.182881-127.182881v49.785404c0 10.459119 8.576477 19.035596 19.035596 19.035596s19.035596-8.576477 19.035596-19.035596v-95.387161c0-10.459119-8.576477-19.035596-19.035596-19.035596h-95.596344c-10.459119 0-19.035596 8.576477-19.035595 19.035596s8.576477 19.035596 19.035595 19.035596h49.785405l-127.182882 127.182881c-7.321383 7.321383-7.321383 19.45396 0 26.775344 3.5561 3.765283 8.369387 5.438742 13.387672 5.438741zM368.499848 587.22721c0 21.545784 9.204024 41.836474 25.101884 56.060875v102.708544c-26.984526 13.806036-102.917726 54.387416-173.412185 112.330933-18.408049 15.061131-28.867167 37.443644-28.867167 61.290435v85.346407c0 10.459119 8.576477 19.035596 19.035596 19.035596s19.035596-8.576477 19.035595-19.035596v-85.346407c0-12.550942 5.438742-24.055973 15.061131-32.004903 75.724018-62.336346 157.93269-103.754456 173.621368-111.285021 8.367295-4.183647 13.806036-12.760125 13.806036-21.964149v-120.070681c0-6.275471-3.137736-12.34176-8.367295-15.688677-10.459119-6.903018-16.73459-18.617231-16.734589-30.958991v-124.672693c0-51.458863 41.836474-93.295337 93.295337-93.295337h26.775343c51.458863 0 93.295337 41.836474 93.295338 93.295337v124.254328c0 12.550942-6.275471 24.055973-16.73459 30.958991-5.229559 3.5561-8.367295 9.413207-8.367295 15.688678v120.07068c0 9.204024 5.438742 17.989684 13.806037 21.964149 15.688678 7.739748 97.897349 49.157857 173.621367 111.285022 9.622389 7.94893 15.061131 19.45396 15.061131 32.004902v85.346408c0 10.459119 8.576477 19.035596 19.035596 19.035595s19.035596-8.576477 19.035596-19.035595v-85.346408c0-23.84679-10.459119-46.229304-28.867168-61.290434-70.494459-57.943517-146.427659-98.734079-173.412185-112.330933v-102.708544c15.89786-14.224401 25.101884-34.515091 25.101885-56.060876v-124.672693c0-72.3771-58.780246-131.157346-131.157347-131.157346h-26.775343c-72.3771 0-131.157346 58.780246-131.157347 131.157346v125.091058h-0.836729z" fill="#1296db" p-id="21795"></path></svg>