<?xml version="1.0" standalone="no"?><!DOCTYPE svg PUBLIC "-//W3C//DTD SVG 1.1//EN" "http://www.w3.org/Graphics/SVG/1.1/DTD/svg11.dtd"><svg t="1569487205030" class="icon" viewBox="0 0 1024 1024" version="1.1" xmlns="http://www.w3.org/2000/svg" p-id="21610" xmlns:xlink="http://www.w3.org/1999/xlink" width="200" height="200"><defs><style type="text/css"></style></defs><path d="M543.184503 598.832857l16.320393 361.55946-49.588885 44.776461-48.751941-44.148753 15.692685-362.187168" fill="#1296db" p-id="21611"></path><path d="M137.894761 845.103392c10.46179 0 19.040458-8.578668 19.040458-19.040458v-105.245607c0-16.738864 7.323253-32.431549 20.086636-42.893338 93.946874-77.20801 195.635472-128.470781 215.094402-137.886392 8.997139-4.393952 14.43727-13.181855 14.43727-23.225174v-148.138945c0-6.277074-3.138537-12.344912-8.369432-15.692685-14.018799-9.415611-22.38823-25.108296-22.388231-41.84716V157.345321c0-65.909277 53.564365-119.473641 119.473642-119.473641h33.059256c65.909277 0 119.473641 53.564365 119.473641 119.473641v153.579076c0 16.738864-8.369432 32.431549-22.388231 41.84716-5.230895 3.557009-8.369432 9.415611-8.369432 15.692685v148.138946c0 10.043318 5.440131 18.831222 14.437271 23.225173 19.458929 9.415611 121.147528 60.887617 215.094401 137.886392 12.763384 10.46179 20.086637 26.154475 20.086637 42.893339v105.245606c0 10.46179 8.578668 19.040458 19.040457 19.040458s19.040458-8.578668 19.040458-19.040458v-105.245606c0-28.037597-12.344912-54.401308-34.105435-72.186351-88.925215-73.023294-184.75521-123.867593-215.722109-139.351042v-130.98161c19.458929-16.738864 30.966898-41.010217 30.966898-66.955456V157.345321c0-86.832857-70.512464-157.345321-157.34532-157.345321h-33.059257c-86.832857 0-157.345321 70.512464-157.34532 157.345321v153.579076c0 25.945239 11.298733 50.425828 30.966898 66.955456v131.400082c-30.966898 15.483449-126.587658 66.118512-215.722109 139.351042-21.551287 17.785043-34.105435 44.148754-34.105435 72.18635v105.245607c-0.418472 10.671026 8.160196 19.040458 18.621986 19.040458z" fill="#1296db" p-id="21612"></path><path d="M562.432105 540.456069c-10.46179 0-19.040458 8.578668-19.040458 19.040457 0 9.415611-3.97548 17.785043-10.46179 23.643646-1.255415 0.836943-2.51083 1.673886-3.557009 2.929301-5.021659 3.557009-11.298733 5.440131-17.994278 5.440131-17.575807 0-32.013077-14.228034-32.013078-32.013078 0-10.46179-8.578668-19.040458-19.040457-19.040457s-19.040458 8.578668-19.040458 19.040457c0 16.738864 6.067838 32.222313 15.901921 44.35799l-15.483449 356.537801c-0.209236 5.649367 2.092358 11.089497 6.277074 14.855742l48.751941 43.939518c3.557009 3.347773 8.160196 4.812423 12.763383 4.812423s9.206375-1.673886 12.763384-4.812423l50.007356-44.776461c4.184716-3.766244 6.48631-9.206375 6.277074-14.855742l-15.901921-352.353085c11.717205-12.554148 18.831222-29.293012 18.831222-47.705763 0.002092-10.671026-8.578668-19.040458-19.040457-19.040457z m-52.516094 439.185942l-29.502247-26.572947 14.018798-325.989375c5.440131 1.464651 11.089497 2.092358 16.9481 2.092358 4.812423 0 9.415611-0.418472 13.809563-1.46465l14.646506 324.524724-29.92072 27.40989z" fill="#1296db" p-id="21613"></path></svg>