<?xml version="1.0" standalone="no"?><!DOCTYPE svg PUBLIC "-//W3C//DTD SVG 1.1//EN" "http://www.w3.org/Graphics/SVG/1.1/DTD/svg11.dtd"><svg t="1569487202602" class="icon" viewBox="0 0 1024 1024" version="1.1" xmlns="http://www.w3.org/2000/svg" p-id="21425" xmlns:xlink="http://www.w3.org/1999/xlink" width="200" height="200"><defs><style type="text/css"></style></defs><path d="M512.104554 98.28058m-79.042679 0a79.042679 79.042679 0 1 0 158.085358 0 79.042679 79.042679 0 1 0-158.085358 0Z" fill="#1296db" p-id="21426"></path><path d="M872.606085 717.866449m-79.042679 0a79.042679 79.042679 0 1 0 158.085359 0 79.042679 79.042679 0 1 0-158.085359 0Z" fill="#1296db" p-id="21427"></path><path d="M151.603022 717.866449m-79.042679 0a79.042679 79.042679 0 1 0 158.085358 0 79.042679 79.042679 0 1 0-158.085358 0Z" fill="#1296db" p-id="21428"></path><path d="M970.677558 306.342659c0-54.158873-43.9126-98.071472-98.071473-98.071473-29.484174 0-55.831734 12.964672-73.814988 33.666327L604.948336 129.646722c3.345722-9.828058 5.22769-20.492546 5.22769-31.57525 0-54.158873-43.9126-98.071472-98.071472-98.071472S414.033081 43.9126 414.033081 98.071472c0 11.082704 1.881969 21.538085 5.227691 31.366143l-193.842761 112.29079c-17.983255-20.492546-44.330815-33.666326-73.814989-33.666326-54.158873 0-98.071472 43.9126-98.071472 98.071472 0 46.840106 33.039003 86.152338 76.951603 95.771289l0.209108 219.981213c-44.121707 9.61895-77.369818 48.931182-77.369819 95.771288 0 54.158873 43.9126 98.071472 98.071473 98.071473 28.856851 0 54.786196-12.546457 72.76945-32.411681l194.470084 112.29079c-3.136614 9.61895-4.809475 19.656116-4.809475 30.320605 0 54.158873 43.9126 98.071472 98.071472 98.071472s98.071472-43.9126 98.071473-98.071472c0-10.664488-1.672861-20.701654-4.809476-30.320605l194.470084-112.29079c17.983255 19.865224 43.9126 32.411681 72.769451 32.411681 54.158873 0 98.071472-43.9126 98.071472-98.071473 0-47.467429-34.084542-87.406984-79.042679-96.189504V402.323055c45.167245-8.573412 79.251787-48.30386 79.251787-95.980396z m-98.071473-60.222994c33.248111 0 60.222994 26.974883 60.222994 60.222994s-26.974883 60.222994-60.222994 60.222993-60.222994-26.974883-60.222993-60.222993 27.18399-60.222994 60.222993-60.222994zM512.104554 38.057586c33.248111 0 60.222994 26.974883 60.222993 60.222994 0 10.246273-2.509291 19.865224-7.109658 28.438636-0.418215 0.418215-0.627323 0.83643-1.045539 1.463753l-0.627322 1.254646c-10.455381 17.355932-29.693282 29.065959-51.440474 29.065959-33.248111 0-60.222994-26.974883-60.222994-60.222994s26.974883-60.222994 60.222994-60.222994zM91.380029 306.342659c0-33.248111 26.974883-60.222994 60.222993-60.222994s60.222994 26.974883 60.222994 60.222994-26.974883 60.222994-60.222994 60.222993-60.222994-26.974883-60.222993-60.222993z m60.222993 471.746784c-33.248111 0-60.222994-26.974883-60.222993-60.222994s26.974883-60.222994 60.222993-60.222994 60.222994 26.974883 60.222994 60.222994c-0.209108 33.248111-27.18399 60.222994-60.222994 60.222994z m360.501532 208.062078c-33.248111 0-60.222994-26.974883-60.222994-60.222993S478.856443 865.705534 512.104554 865.705534s60.222994 26.974883 60.222993 60.222994-26.974883 60.222994-60.222993 60.222993z m74.651419-123.582601c-17.983255-21.119869-44.74903-34.711864-74.651419-34.711865s-56.668164 13.382887-74.651419 34.711865l-193.633654-111.663468c3.763937-10.246273 5.855013-21.538085 5.855014-33.039003 0-48.30386-34.920972-88.452522-80.924648-96.607719l-0.209108-218.51746c46.003676-7.946089 81.133755-48.30386 81.133756-96.607719 0-11.082704-1.881969-21.747192-5.227691-31.57525l193.842761-112.29079c17.983255 20.701654 44.539922 33.666326 74.024096 33.666326 29.484174 0 55.831734-12.964672 73.814989-33.666326l193.842761 112.29079c-3.345722 9.828058-5.22769 20.492546-5.22769 31.57525 0 47.467429 34.084542 87.406984 79.042679 96.189504v219.144782c-44.958138 8.78252-79.042679 48.512967-79.042679 96.189504 0 11.710027 2.091076 22.79273 5.855013 33.039004l-193.842761 111.872575z m346.073106-144.702471c0 33.248111-26.974883 60.222994-60.222994 60.222994s-60.222994-26.974883-60.222993-60.222994 26.974883-60.222994 60.222993-60.222994 60.222994 26.974883 60.222994 60.222994z" fill="#1296db" p-id="21429"></path><path d="M603.484582 587.801511v-68.378191c11.500919-11.082704 17.983255-26.34756 17.983255-42.657953v-89.707168c0-54.995303-44.74903-99.744333-99.744333-99.744333h-19.237901c-54.995303 0-99.744333 44.74903-99.744333 99.744333V476.765367c0 16.310394 6.691444 31.57525 17.983255 42.657953v68.378191c-21.747192 11.291811-74.024096 39.939555-122.955279 80.088217-8.155197 6.691444-9.200735 18.610578-2.509291 26.765775s18.610578 9.200735 26.765775 2.509292c54.158873-44.539922 112.709006-74.024096 124.000817-79.460895 7.946089-3.973045 12.755565-11.710027 12.755564-20.701654v-86.570553c0-6.273229-3.136614-12.337349-8.364304-15.683071-6.064121-3.973045-9.61895-10.664488-9.618951-17.983255v-89.707168c0-34.084542 27.811313-61.895855 61.895855-61.895855h19.237901c34.084542 0 61.895855 27.811313 61.895854 61.895855V476.765367c0 7.109659-3.554829 13.801103-9.61895 17.983255-5.22769 3.554829-8.364305 9.409843-8.364305 15.683071v86.570553c0 8.78252 5.018583 16.728609 12.964673 20.701654 11.291811 5.436798 69.841944 35.13008 124.000816 79.460895 3.554829 2.927507 7.736982 4.39126 11.919135 4.39126 5.436798 0 10.873596-2.300184 14.637533-6.900552 6.691444-8.155197 5.436798-20.074331-2.509292-26.765775-49.349398-40.148662-101.626302-69.005514-123.373494-80.088217z" fill="#1296db" p-id="21430"></path></svg>