<?xml version="1.0" standalone="no"?><!DOCTYPE svg PUBLIC "-//W3C//DTD SVG 1.1//EN" "http://www.w3.org/Graphics/SVG/1.1/DTD/svg11.dtd"><svg t="1569487163722" class="icon" viewBox="0 0 1024 1024" version="1.1" xmlns="http://www.w3.org/2000/svg" p-id="18862" xmlns:xlink="http://www.w3.org/1999/xlink" width="200" height="200"><defs><style type="text/css"></style></defs><path d="M684.307692 879.031097c-29.119476 22.625205-62.428805 28.072013-84.425532 24.72013-7.12275-1.047463-8.589198-10.684124-2.094926-14.036006 20.949264-10.265139 33.309329-32.890344 40.222586-48.811784-66.199673-74.788871-63.685761-189.381342 7.96072-260.818331 74.369885-74.369885 195.037643-74.369885 269.407529 0s74.369885 195.037643 0 269.407529c-62.638298 62.638298-158.166939 72.484452-231.070377 29.538462z" fill="#1296db" p-id="18863"></path><path d="M539.338789 352.785597c-5.237316 3.561375-8.379705 9.427169-8.379706 15.711948v148.111293c0 10.474632 8.589198 19.06383 19.06383 19.06383s19.06383-8.589198 19.06383-19.06383v-138.684124c19.482815-16.759411 31.00491-41.060556 31.00491-67.037644V157.328969c0-86.729951-70.599018-157.328969-157.328969-157.328969h-33.099836c-86.729951 0-157.328969 70.599018-157.328969 157.328969v153.558101c0 25.977087 11.312602 50.487725 31.00491 67.037644v131.351882c-31.00491 15.502455-126.743044 66.199673-215.567922 139.312602-21.577741 17.806874-33.937807 43.993453-33.937806 72.274959v105.374796c0 10.474632 8.589198 19.06383 19.063829 19.063829s19.06383-8.589198 19.06383-19.063829v-105.374796c0-16.759411 7.332242-32.261866 20.111293-42.94599 93.8527-77.09329 195.456628-128.418985 214.939444-137.846154 9.008183-4.399345 14.454992-13.198036 14.454991-23.253682V368.707038c0-6.284779-3.14239-12.360065-8.379705-15.711948-14.036007-9.427169-22.415712-24.929624-22.415712-41.898527V157.328969c0-65.780687 53.630115-119.410802 119.410802-119.410802h33.099836c65.780687 0 119.410802 53.630115 119.410802 119.410802v153.558101c-0.837971 16.968903-9.217676 32.471358-23.253682 41.898527z" fill="#1296db" p-id="18864"></path><path d="M476.700491 540.490998c-10.474632 0-19.06383 8.589198-19.06383 19.06383 0 9.217676-3.98036 17.597381-10.474632 23.463175-1.256956 0.837971-2.513912 1.675941-3.561374 2.932897-5.027823 3.561375-11.312602 5.446809-17.806874 5.446809-17.597381 0-31.842881-14.245499-31.842881-31.842881 0-10.474632-8.589198-19.06383-19.06383-19.06383s-19.06383 8.589198-19.063829 19.06383c0 16.759411 5.865794 32.261866 15.92144 44.202946l-15.292963 356.556465c-0.209493 5.656301 2.094926 11.10311 6.28478 14.873977l48.811784 43.993453c3.561375 3.351882 8.170213 4.818331 12.77905 4.818331 4.608838 0 9.217676-1.675941 12.779051-4.818331l49.649754-44.831424c4.189853-3.770867 6.494272-9.217676 6.28478-14.873977l-15.921441-352.366612c11.731588-12.569558 18.854337-29.328969 18.854337-47.76432-0.209493-10.474632-8.798691-18.854337-19.273322-18.854338z m-52.582651 439.096563l-29.538462-26.605564 14.036007-325.97054c5.446809 1.466448 11.10311 2.094926 16.968903 2.094926 4.818331 0 9.427169-0.418985 13.826514-1.466448l14.664484 324.294599-29.957446 27.653027zM990.166939 714.579378c0-55.934534-21.787234-108.517185-61.381342-148.111293s-92.176759-61.381342-148.111293-61.381342c-55.934534 0-108.517185 21.787234-148.111293 61.381342-75.207856 75.207856-81.702128 194.618658-16.968903 277.158756-7.751227 14.664484-16.549918 24.301146-26.186579 29.119477-10.474632 5.027823-16.130933 16.130933-14.454992 27.653027 1.675941 11.522095 10.684124 20.320786 21.996727 22.20622 4.818331 0.837971 10.055646 1.047463 15.502454 1.047463 24.720131 0 50.90671-7.96072 73.11293-22.206219 29.328969 14.873977 62.00982 22.834697 95.319149 22.834697 55.934534 0 108.517185-21.787234 148.111293-61.381342 39.384615-39.594108 61.171849-92.176759 61.171849-148.320786z m-209.492635 171.574468c-30.585925 0-60.752864-8.170213-86.939443-23.463175-2.932897-1.675941-6.284779-2.723404-9.636661-2.723404-4.189853 0-8.170213 1.256956-11.731588 3.98036-12.988543 10.055646-26.186579 15.502455-37.080196 18.435352 7.332242-9.217676 14.036007-20.530278 19.9018-33.937807 2.932897-6.703764 1.675941-14.664484-3.142389-20.111293-59.914894-67.666121-56.772504-170.94599 7.332242-234.841244 32.471358-32.471358 75.417349-50.278232 121.296235-50.278232s88.824877 17.806874 121.296236 50.278232 50.278232 75.417349 50.278233 121.296236-17.806874 88.824877-50.278233 121.296235c-32.261866 32.261866-75.417349 50.06874-121.296236 50.06874z" fill="#1296db" p-id="18865"></path><path d="M780.674304 695.725041c-5.027823 0-9.846154 2.094926-13.407528 5.656301-3.561375 3.561375-5.656301 8.379705-5.656301 13.407529s2.094926 9.846154 5.656301 13.407528c3.561375 3.561375 8.379705 5.656301 13.407528 5.656301s9.846154-2.094926 13.407529-5.656301c3.561375-3.561375 5.446809-8.379705 5.446809-13.407528s-2.094926-9.846154-5.656302-13.407529c-3.351882-3.770867-8.170213-5.656301-13.198036-5.656301zM851.273322 695.725041c-5.027823 0-9.846154 2.094926-13.407528 5.656301-3.561375 3.561375-5.656301 8.379705-5.656301 13.407529s2.094926 9.846154 5.656301 13.407528c3.561375 3.561375 8.379705 5.656301 13.407528 5.656301s9.846154-2.094926 13.407529-5.656301c3.561375-3.561375 5.656301-8.379705 5.656301-13.407528s-2.094926-9.846154-5.656301-13.407529c-3.561375-3.770867-8.379705-5.656301-13.407529-5.656301zM709.865794 695.725041c-5.027823 0-9.846154 2.094926-13.407529 5.656301-3.561375 3.561375-5.656301 8.379705-5.656301 13.407529s2.094926 9.846154 5.656301 13.407528c3.561375 3.561375 8.379705 5.656301 13.407529 5.656301s9.846154-2.094926 13.407528-5.656301c3.561375-3.561375 5.446809-8.379705 5.446809-13.407528s-2.094926-9.846154-5.656301-13.407529c-3.14239-3.770867-8.170213-5.656301-13.198036-5.656301z" fill="#1296db" p-id="18866"></path></svg>