<?xml version="1.0" standalone="no"?><!DOCTYPE svg PUBLIC "-//W3C//DTD SVG 1.1//EN" "http://www.w3.org/Graphics/SVG/1.1/DTD/svg11.dtd"><svg t="1569487222705" class="icon" viewBox="0 0 1024 1024" version="1.1" xmlns="http://www.w3.org/2000/svg" p-id="22706" xmlns:xlink="http://www.w3.org/1999/xlink" width="200" height="200"><defs><style type="text/css"></style></defs><path d="M601.68532 728.606339c-119.788088 49.545858-256.927678-7.316899-306.473536-127.104986s7.316899-256.927678 127.104986-306.473537 256.927678 7.316899 306.473537 127.104987-7.316899 256.927678-127.104987 306.473536z" fill="#1296db" p-id="22707"></path><path d="M511.998955 202.83489c10.452713 0 19.023937-8.571224 19.023937-19.023937v-119.160925l42.228959 42.228959c3.762977 3.762977 8.571224 5.644465 13.379472 5.644465s9.616496-1.881488 13.379473-5.644465c7.316899-7.316899 7.316899-19.442046 0-26.758944l-74.632369-74.632369c-7.316899-7.316899-19.442046-7.316899-26.758945 0l-74.632368 74.632369c-7.316899 7.316899-7.316899 19.442046 0 26.758944s19.442046 7.316899 26.758944 0l42.22896-42.228959v119.369979c0 10.452713 8.571224 18.814883 19.023937 18.814883zM511.998955 820.799265c-10.452713 0-19.023937 8.571224-19.023937 19.023937v119.369979l-42.22896-42.228959c-7.316899-7.316899-19.442046-7.316899-26.758944 0s-7.316899 19.442046 0 26.758944l74.632368 74.632369c3.762977 3.762977 8.571224 5.644465 13.379473 5.644465 4.808248 0 9.616496-1.881488 13.379472-5.644465l74.632369-74.632369c7.316899-7.316899 7.316899-19.442046 0-26.758944s-19.442046-7.316899-26.758945 0l-42.228959 42.228959v-119.369979c0-10.661767-8.571224-19.023937-19.023937-19.023937zM203.016767 511.817078c0-10.452713-8.571224-19.023937-19.023937-19.023938h-119.160925l42.22896-42.228959c7.316899-7.316899 7.316899-19.442046 0-26.758944s-19.442046-7.316899-26.758945 0l-74.632369 74.632368c-7.316899 7.316899-7.316899 19.442046 0 26.758945l74.632369 74.632368c3.762977 3.762977 8.571224 5.644465 13.379472 5.644465s9.616496-1.881488 13.379473-5.644465c7.316899-7.316899 7.316899-19.442046 0-26.758944l-42.22896-42.228959h119.369979c10.452713 0 18.814883-8.571224 18.814883-19.023937zM943.69808 423.805237c-7.316899-7.316899-19.442046-7.316899-26.758945 0s-7.316899 19.442046 0 26.758944l42.22896 42.228959h-119.369979c-10.452713 0-19.023937 8.571224-19.023937 19.023938s8.571224 19.023937 19.023937 19.023937h119.369979l-42.22896 42.228959c-7.316899 7.316899-7.316899 19.442046 0 26.758944 3.762977 3.762977 8.571224 5.644465 13.379473 5.644465s9.616496-1.881488 13.379472-5.644465l74.632369-74.632368c7.316899-7.316899 7.316899-19.442046 0-26.758945l-74.632369-74.632368zM144.481576 163.323636v105.572398c0 10.452713 8.571224 19.023937 19.023937 19.023937s19.023937-8.571224 19.023937-19.023937v-59.789516l84.457919 84.457918c3.762977 3.762977 8.571224 5.644465 13.379472 5.644465s9.616496-1.881488 13.379472-5.644465c7.316899-7.316899 7.316899-19.442046 0-26.758944l-84.457918-84.457919h59.789516c10.452713 0 19.023937-8.571224 19.023938-19.023937s-8.571224-19.023937-19.023938-19.023937h-105.572398c-10.452713 0-19.023937 8.571224-19.023937 19.023937zM736.107206 860.310519c0 10.452713 8.571224 19.023937 19.023937 19.023937h105.572398c10.452713 0 19.023937-8.571224 19.023937-19.023937v-105.572398c0-10.452713-8.571224-19.023937-19.023937-19.023937s-19.023937 8.571224-19.023937 19.023937v59.789516l-84.457919-84.457918c-7.316899-7.316899-19.442046-7.316899-26.758944 0s-7.316899 19.442046 0 26.758944l84.457918 84.457919h-59.789516c-10.454803 0.209054-19.023937 8.571224-19.023937 19.023937zM293.537259 730.278773c-7.316899-7.316899-19.442046-7.316899-26.758944 0l-84.457919 84.457919v-59.789517c0-10.452713-8.571224-19.023937-19.023937-19.023937s-19.023937 8.571224-19.023937 19.023937v105.572398c0 10.452713 8.571224 19.023937 19.023937 19.023937h105.572398c10.452713 0 19.023937-8.571224 19.023937-19.023937s-8.571224-19.023937-19.023937-19.023937h-59.789516l84.457918-84.457918c7.316899-7.316899 7.316899-19.442046 0-26.758945zM860.494487 287.710917c10.452713 0 19.023937-8.571224 19.023937-19.023937v-105.363344c0-10.452713-8.571224-19.023937-19.023937-19.023937h-105.572398c-10.452713 0-19.023937 8.571224-19.023938 19.023937s8.571224 19.023937 19.023938 19.023937h59.789516l-84.457918 84.457919c-7.316899 7.316899-7.316899 19.442046 0 26.758944 3.762977 3.762977 8.571224 5.644465 13.379472 5.644465s9.616496-1.881488 13.379472-5.644465l84.457919-84.457918v59.789516c0.209054 10.243658 8.571224 18.814883 19.023937 18.814883zM511.998955 258.234267c-33.239626 0-65.85209 6.480682-96.79212 19.232992-129.195529 53.517889-190.65748 202.155464-137.348645 331.141938 39.3022 95.119686 131.286072 156.581636 234.349819 156.581636 33.239626 0 65.85209-6.480682 96.79212-19.442045 129.195529-53.517889 190.65748-202.155464 137.348645-331.141939-39.509163-94.910631-131.493035-156.372582-234.349819-156.372582z m-203.618844 324.243148c-16.515286-47.246261-15.260961-97.001174 0.209055-141.320675h58.953299c-4.390139 22.995968-6.689736 46.828153-6.689736 70.242229 0 21.950697 2.92676 46.410044 8.36217 71.078446h-60.834788z m90.311438-71.078446c0-24.041239 2.717705-47.873424 7.316899-70.242229h86.96657v141.320675h-85.085082c-5.853519-23.832185-9.198387-48.291533-9.198387-71.078446z m132.331343-211.144797c31.776247 11.079875 61.043842 51.009238 79.022508 103.063748h-79.022508v-103.063748z m-38.047874 0.836217v102.018476h-76.513857c17.560557-50.591129 45.782882-89.684275 76.513857-102.018476z m0 319.225846v100.764151c-29.267596-13.170418-56.02654-53.308835-73.587098-100.764151h73.587098z m38.047874 101.809422v-101.809422h76.095748c-17.976575 48.918695-45.989845 89.893329-76.095748 101.809422z m0-139.648242v-141.320675h89.266166c4.808248 22.368805 7.316899 46.20099 7.316899 70.242229 0 22.786914-3.344868 47.246261-9.198387 71.078446h-87.384678z m127.941203-141.320675h56.653703c16.515286 47.246261 15.260961 97.001174-0.209054 141.320675h-58.326137c5.435411-24.668402 8.36217-49.12775 8.36217-71.078446 0.211145-23.623131-2.088452-47.246261-6.480682-70.242229z m39.304291-37.83882h-48.500587c-6.689736-22.159751-15.260961-43.065176-25.504619-61.88006-4.181085-7.525953-8.780279-14.633798-13.379473-21.323533 35.957332 18.396774 66.479253 47.037207 87.384679 83.203593z m-281.598171-84.876027c-5.017302 7.107845-9.82555 14.633798-14.424744 22.995967-10.452713 18.605829-19.023937 39.720308-25.504619 61.88006h-50.800183c20.696371-35.748277 51.636401-65.643036 90.729546-84.876027z m-90.938601 301.874342h53.935998c10.661767 32.403409 25.504619 63.343439 43.692339 88.220896-40.347471-18.18772-74.841423-48.709641-97.628337-88.220896z m278.671412 86.339407c17.769612-24.459348 31.985301-54.772215 42.438013-86.339407h51.218292c-21.11448 36.584494-53.099781 67.106416-93.656305 86.339407z" fill="#1296db" p-id="22708"></path></svg>