<?xml version="1.0" standalone="no"?><!DOCTYPE svg PUBLIC "-//W3C//DTD SVG 1.1//EN" "http://www.w3.org/Graphics/SVG/1.1/DTD/svg11.dtd"><svg t="1569487209358" class="icon" viewBox="0 0 1024 1024" version="1.1" xmlns="http://www.w3.org/2000/svg" p-id="21975" xmlns:xlink="http://www.w3.org/1999/xlink" width="200" height="200"><defs><style type="text/css"></style></defs><path d="M622.879021 779.706202c-147.942708 61.311476-317.647852-8.99793-378.959328-156.940638s8.99793-317.647852 156.940639-378.959328 317.647852 8.99793 378.959328 156.940638-8.99793 317.647852-156.940639 378.959328z" fill="#1296db" p-id="21976"></path><path d="M905.790679 207.186753c3.557321-3.557321 5.440609-8.370167 5.440609-13.392268l-1.255525-103.162313c-0.209254-10.462709-8.788676-18.832877-19.251385-18.832876-10.462709 0.209254-18.832877 8.788676-18.832877 19.251385l0.627763 57.335646-2.720305-2.720304c-201.930288-197.326696-526.692783-193.560121-724.019478 8.370167-68.426118 70.100152-115.089802 157.568401-134.968949 252.988309-19.251385 92.908858-12.764505 189.165783 19.251385 278.098812 2.720304 7.742405 10.044201 12.555251 17.786605 12.555251 2.092542 0 4.394338-0.418508 6.48688-1.046271 9.834947-3.557321 15.066301-14.438539 11.50898-24.273485-61.939239-172.425448-20.716164-360.963468 107.138143-491.747334 182.678903-186.863987 483.377166-190.421308 670.241153-7.742405l2.929558 2.929559-57.335646 0.627762c-10.462709 0.209254-18.832877 8.788676-18.832877 19.251385 0.209254 10.462709 8.579422 18.832877 19.042131 18.832877h0.209254l103.162313-1.255525c5.0221-0.418508 9.834947-2.301796 13.392268-6.068372zM993.886691 338.389127c-3.557321-9.834947-14.438539-15.066301-24.273486-11.50898s-15.066301 14.438539-11.50898 24.273485c61.939239 172.425448 20.716164 360.963468-107.138142 491.747334-88.51452 90.607062-206.952389 141.246575-333.551171 142.711354-126.808036 1.674033-246.292175-46.454429-336.689983-134.759695l-2.929558-2.929559 57.335646-0.627762c10.462709-0.209254 18.832877-8.788676 18.832877-19.251385-0.209254-10.462709-8.579422-19.042131-19.251385-18.832877l-103.162313 1.255525c-10.462709 0.209254-18.832877 8.788676-18.832877 19.251385l1.255526 103.162313c0.209254 10.462709 8.579422 18.832877 19.04213 18.832877h0.209255c10.462709-0.209254 18.832877-8.788676 18.832876-19.251385l-0.627762-57.335647 2.929558 2.929559c96.466179 94.164383 223.064961 145.850167 357.615402 145.850167h6.068371c136.642983-1.674033 264.706543-56.289376 360.335706-154.01108 68.426118-70.100152 115.089802-157.568401 134.968949-252.988309 19.042131-93.118112 12.555251-189.375037-19.460639-278.51732z" fill="#1296db" p-id="21977"></path><path d="M511.765049 202.792415c-40.595312 0-80.353607 7.951659-118.01936 23.645723-76.168523 31.597382-135.596712 91.02557-167.194093 167.194094s-31.597382 160.288705 0 236.457228c47.919208 115.926818 160.079451 190.839816 285.631962 190.839817 40.595312 0 80.353607-7.951659 118.01936-23.645723 157.359147-65.078051 232.481399-246.292175 167.194093-403.651322-47.919208-115.926818-160.079451-190.839816-285.631962-190.839817z m238.131262 179.121582h-62.567001c-12.345997-45.198904-30.969619-83.701674-54.196834-112.788005 48.756225 24.273485 89.770045 63.404018 116.763835 112.788005z m-492.793604 221.600182c-21.553181-59.637443-21.553181-124.087731 0-183.725174h86.212724c-5.231355 28.667823-7.951659 59.637443-7.951659 91.862587 0 32.01589 3.138813 62.776255 8.579421 91.862587h-86.840486z m116.136072-91.862587c0-32.434399 3.138813-63.404018 8.579422-91.862587h118.647122v183.725174h-117.600851c-6.068371-28.877077-9.625692-59.846697-9.625693-91.862587z m165.310806-263.451019c47.709954 10.671963 87.468249 61.52073 109.230684 133.922679h-109.230684v-133.922679z m-37.875007 0v133.713424h-109.230685c21.762435-72.192694 61.52073-123.041461 109.230685-133.713424z m0 393.397867v133.50417c-44.780395-11.718234-84.538691-63.404018-107.347397-133.50417h107.347397z m37.875007 133.50417v-133.50417h107.347397c-22.808706 70.100152-62.567001 121.785935-107.347397 133.50417z m0-171.588431v-183.725174h118.647123c5.649863 28.458569 8.579422 59.428188 8.579421 91.862587 0 32.01589-3.557321 62.98551-9.834946 91.862587h-117.391598z m157.359147-183.725174h71.146423c22.180944 61.311476 20.716164 126.180273-0.209255 183.725174h-71.774185c5.649863-29.086332 8.579422-59.846697 8.579422-91.862587 0-32.225144-2.720304-62.98551-7.742405-91.862587z m-287.51525-158.405418c2.092542-0.837017 4.394338-1.674033 6.48688-2.51105-27.412298 30.132603-49.174733 72.611202-62.98551 123.250715h-77.842556c29.50484-54.406088 76.377777-96.884687 134.341186-120.739665z m-134.341186 380.214853h78.888827c14.647793 51.267275 37.875007 94.373637 66.542831 125.134003-61.52073-22.390198-113.415768-66.333577-145.431658-125.134003z m354.476588 114.880548c24.48274-29.714094 44.361887-69.263135 57.544901-114.880548h63.613272c-26.575281 48.546971-68.00761 89.560791-121.158173 114.880548z" fill="#1296db" p-id="21978"></path></svg>