<?xml version="1.0" standalone="no"?><!DOCTYPE svg PUBLIC "-//W3C//DTD SVG 1.1//EN" "http://www.w3.org/Graphics/SVG/1.1/DTD/svg11.dtd"><svg t="1569487213232" class="icon" viewBox="0 0 1024 1024" version="1.1" xmlns="http://www.w3.org/2000/svg" p-id="22158" xmlns:xlink="http://www.w3.org/1999/xlink" width="200" height="200"><defs><style type="text/css"></style></defs><path d="M512.048065 932.675918m-72.306938 0a72.306939 72.306939 0 1 0 144.613877 0 72.306939 72.306939 0 1 0-144.613877 0Z" fill="#1296db" p-id="22159"></path><path d="M834.503576 215.666939c-54.334694-131.030204-180.976327-215.666939-322.66449-215.666939-45.766531 0-90.697143 8.986122-133.32898 26.540408-177.841633 73.769796-262.687347 278.151837-189.12653 455.99347 51.826939 124.969796 169.482449 207.725714 303.438367 215.04v145.867755c-41.16898 8.777143-72.306939 45.348571-72.306939 89.234285 0 50.364082 40.96 91.324082 91.324082 91.324082s91.324082-40.96 91.324081-91.324082c0-43.885714-31.137959-80.457143-72.306938-89.234285v-145.867755c39.288163-2.089796 77.740408-10.866939 114.520816-26.122449 86.099592-35.73551 153.182041-102.817959 188.917551-188.917551 35.73551-85.890612 35.73551-180.767347 0.20898-266.866939z m-30.511021 240.53551h-96.548571c8.359184-35.94449 12.956735-72.724898 12.956734-107.833469 0-35.73551-3.761633-71.88898-11.075918-106.579592h94.667755c25.70449 69.799184 25.70449 144.822857 0 214.413061z m-584.097959 0c-26.331429-71.68-24.450612-147.330612 0.20898-214.413061h98.011428c-7.105306 34.690612-11.075918 70.844082-11.075918 106.579592 0 35.108571 4.597551 71.88898 12.956734 107.833469h-100.101224z m124.969796-107.62449c0-36.780408 4.179592-72.724898 11.702857-106.579592h136.463673v214.413062h-133.746938c-9.195102-36.153469-14.419592-73.142857-14.419592-107.83347z m185.991837-307.408979c53.916735 11.493878 103.026939 76.486531 129.985306 163.004081h-129.985306v-163.004081z m-37.825307 0.835918v162.168163h-126.432653c26.331429-84.845714 73.769796-148.58449 126.432653-162.168163z m0 452.231837v160.705306c-50.364082-14.837551-95.712653-81.71102-122.67102-160.705306h122.67102z m37.825307 161.541224v-161.541224h126.014693c-27.376327 80.666122-74.187755 148.793469-126.014693 161.541224z m0-199.57551V241.998367h140.016326c7.523265 33.645714 11.702857 69.799184 11.702857 106.579592 0 34.690612-5.22449 71.88898-14.210612 107.83347h-137.508571v-0.20898z m256.208979-252.238367h-86.93551c-9.404082-32.809796-21.733878-63.529796-36.989388-91.115102-11.493878-20.68898-24.032653-38.452245-37.407347-53.707756 68.545306 26.958367 126.223673 77.949388 161.332245 144.822858z m-394.13551-142.315102c3.343673-1.462857 6.687347-2.716735 10.24-3.970613-13.792653 15.46449-26.958367 33.854694-38.661225 55.379592-15.25551 27.376327-27.585306 58.305306-36.989387 91.115102h-90.488164c32.600816-62.275918 86.099592-113.684898 155.898776-142.524081z m-156.107755 432.587755h93.622857c18.599184 58.723265 47.020408 112.64 81.92 149.838367-74.814694-25.286531-137.926531-78.367347-175.542857-149.838367z m328.515918 438.439183c0 29.466122-24.032653 53.289796-53.289796 53.289796s-53.289796-24.032653-53.289796-53.289796c0-29.466122 24.032653-53.289796 53.289796-53.289796s53.289796 24.032653 53.289796 53.289796z m65.619592-296.124081c-4.597551 1.880816-9.195102 3.761633-14.001633 5.433469 33.854694-37.198367 61.64898-90.070204 79.830204-147.748571h90.279184c-33.645714 64.156735-88.189388 114.311837-156.107755 142.315102zM359.492963 932.675918c0 10.44898 8.359184 19.017143 19.017143 19.017143 10.44898 0 19.017143-8.359184 19.017143-19.017143 0-10.44898-8.568163-19.017143-19.017143-19.017142-10.44898 0.20898-19.017143 8.568163-19.017143 19.017142zM237.239902 932.675918c0 10.44898 8.359184 19.017143 19.017143 19.017143 10.44898 0 19.017143-8.359184 19.017143-19.017143 0-10.44898-8.568163-19.017143-19.017143-19.017142-10.657959 0.20898-19.017143 8.568163-19.017143 19.017142zM298.261943 932.675918c0 10.44898 8.359184 19.017143 19.017143 19.017143 10.44898 0 19.017143-8.359184 19.017143-19.017143 0-10.44898-8.359184-19.017143-19.017143-19.017142-10.44898 0.20898-19.017143 8.568163-19.017143 19.017142zM181.442351 919.301224c-3.552653 3.552653-5.642449 8.359184-5.642449 13.374694s2.089796 9.822041 5.642449 13.374694c3.552653 3.552653 8.359184 5.642449 13.374694 5.642449s9.822041-2.089796 13.374694-5.642449c3.552653-3.552653 5.642449-8.359184 5.642449-13.374694s-2.089796-9.822041-5.642449-13.374694c-3.552653-3.552653-8.359184-5.642449-13.374694-5.642448-4.806531 0.20898-9.822041 2.089796-13.374694 5.642448zM815.486433 919.301224c-3.552653 3.552653-5.642449 8.359184-5.642449 13.374694s2.089796 9.822041 5.642449 13.374694c3.552653 3.552653 8.359184 5.642449 13.374694 5.642449s9.822041-2.089796 13.374693-5.642449c3.552653-3.552653 5.642449-8.359184 5.642449-13.374694s-2.089796-9.822041-5.642449-13.374694c-3.552653-3.552653-8.359184-5.642449-13.374693-5.642448-4.806531 0.20898-9.822041 2.089796-13.374694 5.642448zM767.839086 913.867755c-10.44898 0-19.017143 8.568163-19.017143 19.017143s8.359184 19.017143 19.017143 19.017143c10.44898 0 19.017143-8.359184 19.017143-19.017143-0.20898-10.657959-8.568163-19.017143-19.017143-19.017143zM706.608065 913.867755c-10.44898 0-19.017143 8.568163-19.017143 19.017143s8.568163 19.017143 19.017143 19.017143 19.017143-8.359184 19.017143-19.017143-8.568163-19.017143-19.017143-19.017143zM626.568882 932.675918c0 10.44898 8.359184 19.017143 19.017142 19.017143 10.44898 0 19.017143-8.359184 19.017143-19.017143 0-10.44898-8.359184-19.017143-19.017143-19.017142-10.657959 0.20898-19.017143 8.568163-19.017142 19.017142z" fill="#1296db" p-id="22160"></path></svg>