<?xml version="1.0" standalone="no"?><!DOCTYPE svg PUBLIC "-//W3C//DTD SVG 1.1//EN" "http://www.w3.org/Graphics/SVG/1.1/DTD/svg11.dtd"><svg t="1569487217198" class="icon" viewBox="0 0 1024 1024" version="1.1" xmlns="http://www.w3.org/2000/svg" p-id="22340" xmlns:xlink="http://www.w3.org/1999/xlink" width="200" height="200"><defs><style type="text/css"></style></defs><path d="M637.379525 1004.726796v-340.632934c0-53.210803 25.138962-103.069744 66.827741-136.378868 69.970111-55.93419 114.591768-141.825643 114.591768-238.191665 0-116.47719-65.361301-217.661512-161.517831-269.196383-8.379654-4.399318-18.435239 1.466439-18.435238 10.89355v179.534086c0 52.163346-42.736235 94.69009-95.109073 94.69009h-79.606713c-52.163346 0-95.109073-42.526744-95.109072-94.69009v-169.897484c0-9.846093-10.684059-15.711851-19.063713-10.474568-86.729419 54.048768-144.549031 149.786315-144.549031 259.140799 0 91.757211 40.641322 173.87782 104.745675 229.812011 37.917934 32.890142 60.333509 80.025695 60.333508 130.094127v355.087838" fill="#1296db" p-id="22341"></path><path d="M666.07984 3.777129c-9.846093-5.237284-21.577609-5.027792-31.214211 0.628474s-15.292868 15.711851-15.292869 27.024384v179.534086c0 41.688779-34.14709 75.835868-76.045359 75.835869h-79.606713c-41.89827 0-76.04536-33.937599-76.04536-75.835869v-178.067646c0-11.522024-6.28474-21.996592-16.340325-27.443367s-22.415574-5.237284-32.052177 1.047457c-93.014159 58.867069-153.138176 170.106976-153.138176 283.232304 0 93.433142 40.641322 182.466965 111.239907 244.057422 34.356581 29.957263 53.839277 72.065024 53.839276 115.848716v355.087837c0 10.474567 8.589145 19.063713 19.063713 19.063713s19.063713-8.589145 19.063713-19.063713v-355.297329c0-54.677242-24.300997-107.259571-66.827741-144.549031-62.428422-54.467751-98.251443-133.027007-98.251442-215.566598 0-96.156529 49.020976-190.846619 125.485318-244.476405v165.707658c0 62.637913 51.115889 113.753803 113.963294 113.753802h79.606713c62.847405 0 113.963294-50.906398 113.963294-113.753802v-168.012062c87.986367 51.325381 142.035135 145.177505 142.035134 246.9903 0 87.148401-39.174882 168.640536-107.469062 223.317779-46.926062 37.498952-73.950446 92.595176-73.950446 151.252754v340.632934c0 10.474567 8.589145 19.063713 19.063713 19.063713s19.063713-8.589145 19.063713-19.063713v-340.842425c0-46.926062 21.7871-91.128737 59.705034-121.504983 77.302308-62.009439 121.714474-154.185633 121.714474-252.856059 0-119.61956-65.780284-229.183536-171.573415-285.7462z" fill="#1296db" p-id="22342"></path><path d="M505.399975 662.417931c-10.474567 0-19.063713 8.589145-19.063713 19.063713v323.454643c0 10.474567 8.589145 19.063713 19.063713 19.063713s19.063713-8.589145 19.063713-19.063713v-323.664134c-0.209491-10.474567-8.589145-18.854221-19.063713-18.854222z" fill="#1296db" p-id="22343"></path></svg>