<?xml version="1.0" standalone="no"?><!DOCTYPE svg PUBLIC "-//W3C//DTD SVG 1.1//EN" "http://www.w3.org/Graphics/SVG/1.1/DTD/svg11.dtd"><svg t="1569487219941" class="icon" viewBox="0 0 1024 1024" version="1.1" xmlns="http://www.w3.org/2000/svg" p-id="22523" xmlns:xlink="http://www.w3.org/1999/xlink" width="200" height="200"><defs><style type="text/css"></style></defs><path d="M511.345588 512.104545m-223.517785 0a223.517785 223.517785 0 1 0 447.03557 0 223.517785 223.517785 0 1 0-447.03557 0Z" fill="#1296db" p-id="22524"></path><path d="M128.709904 530.713603c0.627272 12.754523-3.136358 25.509046-10.872708 36.172663l-99.736186 139.254298c-27.599951 38.472659-23.20905 90.536203 10.245436 123.990689l165.599706 165.599706c18.190877 18.190877 42.445379 28.227223 68.163515 28.227223 20.072692 0 39.518112-6.272716 55.827174-17.981786l139.672479-99.736187c10.663617-7.527259 23.20905-11.49998 35.963573-10.872708 6.272716 0.209091 12.545432 0.418181 18.818148 0.418181 102.454364 0 198.845101-39.936293 271.190428-112.281619 76.318046-76.318046 117.090701-182.117858 111.863437-290.008576-0.627272-12.545432 3.136358-25.299955 10.872708-35.963572l99.736187-139.672479c27.39086-38.472659 22.999959-90.536203-10.245436-123.990689l-165.599706-165.599706c-18.190877-18.190877-42.445379-28.227223-68.163516-28.227223-20.281782 0-39.518112 6.272716-56.036264 17.981786l-139.254298 99.736187c-10.663617 7.73635-23.41814 11.49998-36.172663 10.872708-6.481807-0.418181-13.172704-0.418181-19.654511-0.418181-102.036182 0-198.008739 39.727202-270.354065 112.072528-76.736227 76.736227-117.508882 182.53604-111.863438 290.426757z m37.845388-1.881815c-5.018173-97.2271 31.572671-192.572385 100.572548-261.363172 65.236248-65.236248 151.59064-100.99073 243.590477-100.99073 5.854535 0 11.918161 0.209091 17.772696 0.418181 21.536325 1.045453 42.445379-5.227263 60.218074-17.772695l139.254299-99.736187c10.036346-7.109078 21.745416-10.872708 33.872667-10.872708 15.68179 0 30.318128 6.063626 41.190836 17.145424l165.599706 165.599706c20.281782 20.281782 22.790869 51.854453 6.272716 75.063503l-99.736187 139.672479c-12.545432 17.563605-18.818148 38.681749-17.772695 59.799894 4.809082 97.2271-31.990852 192.572385-100.78164 261.363173-65.236248 65.236248-152.008821 101.19982-244.426838 101.19982-5.645445 0-11.290889-0.209091-16.936334-0.418181-21.327235-1.045453-42.027198 5.227263-59.799894 17.772696l-139.672479 99.736186c-10.036346 7.109078-21.745416 10.872708-33.872667 10.872708-15.68179 0-30.318128-6.063626-41.190836-17.145424l-165.599706-165.599706c-20.281782-20.281782-22.790869-51.854453-6.272716-75.272594l99.736186-139.254298c12.754523-17.772696 19.027239-39.099931 17.981787-60.218075z" fill="#1296db" p-id="22525"></path><path d="M616.309038 336.050312c2.927268 1.881815 6.272716 2.718177 9.618165 2.718177 6.481807 0 12.754523-3.345449 16.309062-9.199983 5.436354-8.990893 2.299996-20.699963-6.690897-25.927227-8.990893-5.436354-20.490873-2.299996-25.927227 6.690897-5.227263 8.781803-2.299996 20.490873 6.690897 25.718136zM616.72722 688.367869c-8.990893 5.227263-11.918161 16.936334-6.690898 25.927226 3.554539 6.063626 9.827255 9.199984 16.309062 9.199984 3.345449 0 6.690897-0.836362 9.618165-2.718177 8.990893-5.436354 11.918161-16.936334 6.481807-25.927227-5.227263-8.990893-16.727243-11.918161-25.718136-6.481806zM316.891388 623.549802c-8.572712 5.854535-10.872708 17.772696-4.809082 26.345408 3.76363 5.436354 9.618165 8.154531 15.68179 8.154531 3.76363 0 7.318169-1.045453 10.663618-3.345449 8.572712-5.854535 10.872708-17.772696 4.809082-26.345408-5.854535-8.572712-17.772696-10.663617-26.345408-4.809082zM292.845976 464.222812c1.881815 0.627272 3.76363 0.836362 5.645445 0.836362 8.154531 0 15.68179-5.227263 18.190877-13.381794 3.136358-10.036346-2.509086-20.699963-12.545433-23.627231-10.036346-3.136358-20.699963 2.509086-23.62723 12.545432-3.345449 10.036346 2.299996 20.490873 12.336341 23.627231zM288.455075 531.340875c10.454527 0 19.027239-8.572712 19.027239-19.027239s-8.572712-19.027239-19.027239-18.818149c-10.454527 0-19.027239 8.572712-18.818148 19.027239 0 10.454527 8.363622 18.818148 18.818148 18.818149zM431.473003 322.459427c2.299996 0 4.599992-0.418181 6.690897-1.254543 9.827255-3.76363 14.636338-14.636338 10.872708-24.463593s-14.636338-14.636338-24.463593-10.872708-14.636338 14.636338-10.872708 24.463593c2.927268 7.527259 10.245436 12.127251 17.772696 12.127251zM385.263994 673.31335c-8.154531-6.481807-20.072692-5.018173-26.554498 3.136358s-5.018173 20.072692 3.136358 26.554498c3.554539 2.718177 7.527259 4.181811 11.70907 4.181811 5.645445 0 11.081799-2.509086 14.845428-7.318169 6.481807-8.154531 5.018173-20.072692-3.136358-26.554498zM373.136743 355.704823c4.181811 0 8.363622-1.254543 11.70907-4.181811 8.154531-6.481807 9.618165-18.399967 3.136358-26.554498s-18.399967-9.618165-26.554498-3.136358-9.618165 18.399967-3.136358 26.554498c3.76363 4.809082 9.409074 7.318169 14.845428 7.318169zM316.682298 401.28656c3.345449 2.299996 6.899988 3.345449 10.663617 3.345449 6.063626 0 11.918161-2.927268 15.68179-8.154531 5.854535-8.572712 3.76363-20.490873-4.809082-26.345408s-20.490873-3.76363-26.345408 5.018173c-6.063626 8.363622-3.76363 20.281782 4.809083 26.136317zM559.854593 711.367828c-10.245436 2.509086-16.518152 12.754523-14.009066 22.790868 2.090905 8.781803 9.827255 14.636338 18.399968 14.636338 1.463634 0 2.927268-0.209091 4.390901-0.418181 10.245436-2.509086 16.518152-12.754523 14.009066-22.790869-2.509086-10.245436-12.754523-16.727243-22.790869-14.218156zM559.436412 313.050353c1.463634 0.418181 2.927268 0.627272 4.390901 0.627272 8.572712 0 16.309062-5.854535 18.399968-14.636338 2.299996-10.245436-3.97272-20.281782-14.009066-22.790868-10.245436-2.509086-20.490873 3.97272-22.790869 14.009066s3.97272 20.490873 14.009066 22.790868zM316.473207 573.158982c-3.136358-10.036346-13.590885-15.68179-23.627231-12.545432s-15.68179 13.590885-12.545432 23.627231c2.509086 8.154531 10.036346 13.381794 18.190877 13.381794 1.881815 0 3.76363-0.209091 5.645444-0.836362 9.827255-2.927268 15.4727-13.590885 12.336342-23.627231zM438.582081 703.422387c-9.827255-3.76363-20.699963 1.254543-24.463593 10.872708-3.76363 9.827255 1.254543 20.699963 10.872708 24.463593 2.299996 0.836362 4.599992 1.254543 6.690898 1.254544 7.73635 0 14.845428-4.599992 17.772695-12.127252 3.76363-9.618165-1.045453-20.699963-10.872708-24.463593zM498.591066 716.595091c-10.454527-0.627272-19.44542 7.318169-20.072692 17.772696s7.318169 19.44542 17.772696 20.072692h1.254543c9.827255 0 18.190877-7.73635 18.818148-17.772696 0.627272-10.454527-7.318169-19.44542-17.772695-20.072692zM496.918341 308.03218h1.254544c10.454527-0.627272 18.399967-9.827255 17.563605-20.072691-0.627272-10.454527-9.827255-18.399967-20.072692-17.563605-10.454527 0.627272-18.399967 9.827255-17.563605 20.072691 0.627272 9.827255 8.990893 17.563605 18.818148 17.563605zM665.445315 676.031527c3.554539 3.345449 8.154531 4.809082 12.754523 4.809082 5.227263 0 10.245436-2.090905 14.009066-6.272716 82.172581-91.163474 82.172581-233.763221 0-324.926696-7.109078-7.73635-19.027239-8.363622-26.763589-1.463633-7.73635 7.109078-8.363622 19.027239-1.463634 26.763588 69.418059 76.736227 69.418059 197.172377 0 274.117696-6.899988 7.94544-6.272716 20.072692 1.463634 26.972679z" fill="#1296db" p-id="22526"></path></svg>