/* XPM */
static char *cam2dViewer_Icon_xpm[] = {
/* width height num_colors chars_per_pixel */
"    32    32      256            2",
/* colors */
"`` c #d4d0c8",
"`. c #a6a39d",
"`# c #8d8b85",
"`a c #a4a19b",
"`b c #c7c3bb",
"`c c #a9a69f",
"`d c #41403d",
"`e c #32312f",
"`f c #2e2d2b",
"`g c #2a2a28",
"`h c #282726",
"`i c #3e3c3a",
"`j c #6a6864",
"`k c #575652",
"`l c #4e4d4a",
"`m c #6c6a66",
"`n c #8b8883",
"`o c #afaba5",
"`p c #716f6b",
"`q c #2c2b2a",
"`r c #21211f",
"`s c #20201f",
"`t c #1e1d1c",
"`u c #252523",
"`v c #676561",
"`w c #cdc9c1",
"`x c #bab7b0",
"`y c #898781",
"`z c #8a8782",
"`A c #b0ada6",
"`B c #63615d",
"`C c #1d1d1b",
"`D c #1b1a19",
"`E c #2a2927",
"`F c #42403e",
"`G c #353432",
"`H c #1c1c1b",
"`I c #b9b5ae",
"`J c #b6b3ac",
"`K c #3a3937",
"`L c #31302e",
"`M c #2b2a29",
"`N c #9f9c96",
"`O c #c4c1b9",
"`P c #595754",
"`Q c #1b1b1a",
"`R c #bebab3",
"`S c #888580",
"`T c #393836",
"`U c #222120",
"`V c #1a1918",
"`W c #cecac3",
"`X c #96948e",
"`Y c #3b3a38",
"`Z c #d0ccc4",
"`0 c #262624",
"`1 c #cbc7bf",
"`2 c #454441",
"`3 c #100f0f",
"`4 c #1f1e1d",
"`5 c #888681",
"`6 c #181817",
"`7 c #bcb8b1",
"`8 c #9d9a94",
".` c #7d7a76",
".. c #b9b6af",
".# c #0d0d0d",
".a c #0c0c0c",
".b c #0c0b0b",
".c c #3f3e3c",
".d c #494845",
".e c #242322",
".f c #373634",
".g c #3c3b38",
".h c #0b0b0a",
".i c #63625d",
".j c #64625f",
".k c #605e5a",
".l c #85837d",
".m c #161615",
".n c #5b5a56",
".o c #141413",
".p c #0a0a09",
".q c #090909",
".r c #bbb8b1",
".s c #161514",
".t c #191818",
".u c #aba8a2",
".v c #171716",
".w c #65635f",
".x c #070707",
".y c #62605c",
".z c #9b9993",
".A c #333230",
".B c #514f4c",
".C c #080808",
".D c #070706",
".E c #272625",
".F c #c1bdb6",
".G c #484744",
".H c #2f2e2d",
".I c #444340",
".J c #6f6d69",
".K c #7e7c77",
".L c #151414",
".M c #9e9b95",
".N c #ccc8c0",
".O c #252423",
".P c #3e3d3b",
".Q c #3d3c39",
".R c #5f5d59",
".S c #83817c",
".T c #615f5c",
".U c #111110",
".V c #989590",
".W c #72706b",
".X c #131312",
".Y c #2d2c2a",
".Z c #696763",
".0 c #4b4947",
".1 c #c9c5be",
".2 c #93908b",
".3 c #111010",
".4 c #302f2d",
".5 c #cfcbc3",
".6 c #a5a29c",
".7 c #96938d",
".8 c #b5b2ab",
"#` c #555350",
"#. c #c8c4bc",
"## c #787571",
"#a c #121211",
"#b c #918e88",
"#c c #4f4d4b",
"#d c #363533",
"#e c #605f5b",
"#f c #92908a",
"#g c #bfbcb4",
"#h c #bbb8b0",
"#i c #cac6bf",
"#j c #474643",
"#k c #343331",
"#l c #474543",
"#m c #403f3c",
"#n c #565552",
"#o c #4d4c49",
"#p c #adaaa3",
"#q c #b3afa9",
"#r c #504e4b",
"#s c #83807b",
"#t c #434240",
"#u c #94918c",
"#v c #c2beb7",
"#w c #d1cdc5",
"#x c #b4b1aa",
"#y c #383735",
"#z c #62605d",
"#A c #5b5955",
"#B c #84827d",
"#C c #b7b3ad",
"#D c #a8a59e",
"#E c #000000",
"#F c #000000",
"#G c #000000",
"#H c #000000",
"#I c #000000",
"#J c #000000",
"#K c #000000",
"#L c #000000",
"#M c #000000",
"#N c #000000",
"#O c #000000",
"#P c #000000",
"#Q c #000000",
"#R c #000000",
"#S c #000000",
"#T c #000000",
"#U c #000000",
"#V c #000000",
"#W c #000000",
"#X c #000000",
"#Y c #000000",
"#Z c #000000",
"#0 c #000000",
"#1 c #000000",
"#2 c #000000",
"#3 c #000000",
"#4 c #000000",
"#5 c #000000",
"#6 c #000000",
"#7 c #000000",
"#8 c #000000",
"a` c #000000",
"a. c #000000",
"a# c #000000",
"aa c #000000",
"ab c #000000",
"ac c #000000",
"ad c #000000",
"ae c #000000",
"af c #000000",
"ag c #000000",
"ah c #000000",
"ai c #000000",
"aj c #000000",
"ak c #000000",
"al c #000000",
"am c #000000",
"an c #000000",
"ao c #000000",
"ap c #000000",
"aq c #000000",
"ar c #000000",
"as c #000000",
"at c #000000",
"au c #000000",
"av c #000000",
"aw c #000000",
"ax c #000000",
"ay c #000000",
"az c #000000",
"aA c #000000",
"aB c #000000",
"aC c #000000",
"aD c #000000",
"aE c #000000",
"aF c #000000",
"aG c #000000",
"aH c #000000",
"aI c #000000",
"aJ c #000000",
"aK c #000000",
"aL c #000000",
"aM c #000000",
"aN c #000000",
"aO c #000000",
"aP c #000000",
"aQ c #000000",
"aR c #000000",
"aS c #000000",
"aT c #000000",
"aU c #000000",
"aV c #000000",
"aW c #000000",
"aX c #000000",
"aY c #000000",
"aZ c #000000",
"a0 c #000000",
"a1 c #000000",
"a2 c #000000",
"a3 c #000000",
"a4 c #000000",
"a5 c #000000",
"a6 c #000000",
"a7 c #000000",
"a8 c #000000",
/* pixels */
"````````````````````````````````````````````````````````````````",
"````````````````````````````````````````````````````````````````",
"````````````````````````````````````````````````````````````````",
"`````````````````````.`#`a`b````````````````````````````````````",
"`````````````````c`d`e`f`g`h`i`j`k`l`m`n````````````````````````",
"`````````````````````o`p`q`r`s`t`t`t`t`t`u`v`w``````````````````",
"`````````````x`y`z`A```B`s`C`D`E`d`F`G`H`D`C`e`I````````````````",
"```````````J`K`L`M`u`M`t`D`g`N`````````O`P`H`Q`E`R``````````````",
"```````````````S`T`U`C`V`l`W```````````````X`t`D`Y``````````````",
"`````````````````Z`0`D`i`````1`2`D`3`4`P`````5`6`Q`n````````````",
"`````````````7`8.``Q`H..```x`Q.#.a.b.a.#`E`````Y`6.c````````````",
"`````````J.d`g.e`4`V.f````.g.a.h.h.h.i`7.j.k``.l.m`t`Z``````````",
"`````````n.n`G`U`C`6.n````.o.h.p.q.q.r```7.e```1.s.t`c``````````",
"``````````````.u`0.v.w````.#.p.q.x.x.y.r.i`V````.v.v.z``````````",
"````````````````.A.v.B````.m.p.C.x.D.x.q.p.E``.F.o.v`A``````````",
"````````````````.G.v.H````.I.p.C.x.x.x.C.p.J``.J.o`t````````````",
"````````````````.K.v.L.M``.N.O.q.C.C.C.p.P`````E.o.Q````````````",
"`````````````````Z`r.L`h`w````.R`u.L`q.S````.T.U.s.V````````````",
"``````````````````.W.m.X.Y..``````````````.Z.X.o.I``````````````",
"````````````````````.0.s.X.v`v.1``````.2.H.3.X.4.5``````````````",
"````````````.6.P.7````.R.s.X.U.X`C`C`6.3.U.X`d.N````````````````",
"``````````.8.Q`f`h#`#.##`6.s.L.X#a#a#a.X.t#b````````````````````",
"````````.F#c`T.A`q.E`g`U`H#d``#b#e#e`F.v`6#f``````#g#h``````````",
"``````#i.T#j.c`l.W.H`h.O`f`R````````.5`h`H#k```R#l.Y.A#m.K``````",
"``````###n#o#c#p``#q#r.c`.````````````#s`r.e`S.G`f.A.f#t#u``````",
"``````#v`c`o#w``````````````````````````.P`E#k.4#k`T`l#x````````",
"`````````````````````````````````````````8`L#k#y`Y#z#i``````````",
"``````````````````````````````````````````#A.g`d#B``````````````",
"``````````````````````````````````````````#C.n#D````````````````",
"````````````````````````````````````````````````````````````````",
"````````````````````````````````````````````````````````````````",
"````````````````````````````````````````````````````````````````"
};
