<?xml version="1.0" standalone="no"?><!DOCTYPE svg PUBLIC "-//W3C//DTD SVG 1.1//EN" "http://www.w3.org/Graphics/SVG/1.1/DTD/svg11.dtd"><svg t="1569482027354" class="icon" viewBox="0 0 1024 1024" version="1.1" xmlns="http://www.w3.org/2000/svg" p-id="892" xmlns:xlink="http://www.w3.org/1999/xlink" width="200" height="200"><defs><style type="text/css"></style></defs><path d="M345.35936 51.2l272.19456 72.8832L890.368 197.12l85.7088 148.50048-18.432 68.7616L1024 432.14336l-19.95264 74.36288-66.33472-17.77152-24.93952 92.95872 66.3552 17.76128-19.93728 74.35776-66.36032-17.75616-24.92928 92.94848 66.3552 17.7664-19.93728 74.37312-66.3552-17.78176-18.44224 68.7616L680.97024 977.92 135.97184 832.0256 50.51392 683.5712l18.432-68.7616L0 596.31104l19.9424-74.31168 68.93056 18.45248 24.93952-92.94848-68.9408-18.46272 19.93728-74.36288 68.94592 18.46272 24.91392-92.95872-68.93056-18.45248 19.9424-74.37312L178.62144 205.824l18.44224-68.7616L345.35936 51.2zM216.10496 764.60032l429.25056 114.9184 117.00736-67.57376 115.4304-430.4384-67.51232-116.9664-429.2608-114.92864-116.7872 67.64032L148.7872 647.68l67.31264 116.92032z m515.87584-114.92352l-25.58464 95.44704-90.7264 52.38272-332.77952-89.088-52.18304-90.64448L320.2048 284.0576l90.54208-52.4288 332.78464 89.10336 52.34688 90.6752-27.02848 100.8128-179.33824-47.98976 19.11296-71.28064-112.1536-30.01344-75.11552 279.99232 112.14848 30.00832 19.11296-71.2704 179.36384 48.00512z" fill="#0078FF" p-id="893"></path></svg>