<?xml version="1.0" standalone="no"?><!DOCTYPE svg PUBLIC "-//W3C//DTD SVG 1.1//EN" "http://www.w3.org/Graphics/SVG/1.1/DTD/svg11.dtd"><svg t="1569482032255" class="icon" viewBox="0 0 1029 1024" version="1.1" xmlns="http://www.w3.org/2000/svg" p-id="1010" xmlns:xlink="http://www.w3.org/1999/xlink" width="200.9765625" height="200"><defs><style type="text/css"></style></defs><path d="M358.32832 405.79584v434.76992h-100.0448v-492.7488z" fill="#FF6A00" p-id="1011"></path><path d="M258.28352 347.81696l100.04992 57.97888 300.1344-173.91104V115.9424zM858.56256 231.8848l-100.05504 57.96864v115.9424l100.05504-57.97888z" fill="#FF6A00" opacity=".5" p-id="1012"></path><path d="M658.46784 115.9424v724.62336h100.0448V173.91616zM858.56256 231.8848v492.73856h100.0448V289.85344z" fill="#FF6A00" p-id="1013"></path><path d="M58.19392 231.8848l100.0448 57.96864 300.13952-173.91104V0z" fill="#FF6A00" opacity=".5" p-id="1014"></path><path d="M458.37824 0v956.50304h100.0448V57.97888zM158.23872 289.85344v434.76992H58.1888V231.8848z" fill="#FF6A00" p-id="1015"></path><path d="M108.21632 792.12544C71.0656 792.12544 40.96 761.90208 40.96 724.62848c0-37.28384 30.1056-67.50208 67.25632-67.50208 37.14048 0 67.25632 30.21824 67.25632 67.50208 0 37.2736-30.11584 67.49696-67.25632 67.49696zM975.84128 724.62848c0 37.2736-30.11584 67.49696-67.25632 67.49696-37.1456 0-67.25632-30.22336-67.25632-67.49696 0-37.28384 30.1056-67.50208 67.25632-67.50208 37.14048 0 67.25632 30.21824 67.25632 67.50208M375.56224 840.56576c0 37.2736-30.11584 67.50208-67.25632 67.50208-37.1456 0-67.25632-30.22848-67.25632-67.50208 0-37.27872 30.1056-67.49696 67.25632-67.49696 37.14048 0 67.25632 30.21824 67.25632 67.49696M775.74656 840.56576c0 37.2736-30.1056 67.49184-67.25632 67.49184-37.14048 0-67.25632-30.21312-67.25632-67.48672 0-37.28384 30.11584-67.50208 67.25632-67.50208 37.15072 0 67.25632 30.21824 67.25632 67.49696M575.65696 956.50304c0 37.27872-30.11584 67.49696-67.25632 67.49696-37.15072 0-67.25632-30.21824-67.25632-67.49696 0-37.2736 30.1056-67.50208 67.25632-67.50208 37.14048 0 67.25632 30.22848 67.25632 67.50208" fill="#FF6A00" p-id="1016"></path></svg>