<?xml version="1.0" standalone="no"?><!DOCTYPE svg PUBLIC "-//W3C//DTD SVG 1.1//EN" "http://www.w3.org/Graphics/SVG/1.1/DTD/svg11.dtd"><svg t="1569482041457" class="icon" viewBox="0 0 1024 1024" version="1.1" xmlns="http://www.w3.org/2000/svg" p-id="1369" xmlns:xlink="http://www.w3.org/1999/xlink" width="200" height="200"><defs><style type="text/css"></style></defs><path d="M56.85248 506.25024c0 46.07488 5.77024 97.90976 21.12512 138.24h312.96c11.52512-46.09024 15.36-86.3744 15.36-132.48512a582.27712 582.27712 0 0 0-15.36-132.48H72.2432c-9.59488 40.31488-15.39072 80.63488-15.39072 126.72z m629.78048-126.72512H448.5376c11.52 40.31488 15.36 86.36928 15.36 132.48s-5.76 86.3744-15.36 132.48h238.08c74.88 0 132.48512-57.57952 132.48512-132.48 0-74.9056-57.60512-132.48-132.48512-132.48h0.01536zM104.83712 316.16h270.7456c-32.64-69.12-69.12-132.48512-111.4112-184.33024-69.07904 46.09024-128.5888 109.45024-159.31392 184.33024h-0.02048z m629.77536 0c69.12 0 126.71488-28.78976 168.96-74.88-84.46976-115.20512-226.54976-190.07488-385.91488-190.07488-78.71488 0-142.08 17.28512-207.36 51.84512 53.76 57.58464 90.24512 132.46976 117.11488 207.36l307.2 5.74976z m-635.50976 391.68H369.8176c-26.88 69.10976-63.36 132.47488-111.37024 178.56-63.36-40.31488-122.86976-103.68-159.34976-178.55488z m635.52512 0c69.12 0 126.70976 28.79488 168.96 74.88C819.0976 897.88416 671.26272 972.8 517.6576 972.8c-78.71488 0-142.08-23.02976-207.36-51.83488 53.76-57.57952 90.24512-132.48 117.11488-207.36l307.21536-5.75488z" fill="#FF6A00" p-id="1370"></path></svg>