<?xml version="1.0" standalone="no"?><!DOCTYPE svg PUBLIC "-//W3C//DTD SVG 1.1//EN" "http://www.w3.org/Graphics/SVG/1.1/DTD/svg11.dtd"><svg t="1569482062023" class="icon" viewBox="0 0 1029 1024" version="1.1" xmlns="http://www.w3.org/2000/svg" p-id="2201" xmlns:xlink="http://www.w3.org/1999/xlink" width="200.9765625" height="200"><defs><style type="text/css"></style></defs><path d="M268.60544 499.4048a298.27584 298.27584 0 0 0 0 80.4096l-225.97632 32.56832a211.69152 211.69152 0 0 1-15.26784-54.9632 341.9648 341.9648 0 0 1 15.26784-137.41568l230.0416 32.57344s-2.02752 19.34336-4.06528 46.8224z m76.3392 203.58144a340.12672 340.12672 0 0 0 32.57344 25.44128L286.9248 859.74016a192.3328 192.3328 0 0 1-93.6448-78.37696 328.448 328.448 0 0 1-27.48416-51.9168l134.36416-81.4336a157.7984 157.7984 0 0 0 44.78976 55.9872v-1.01376zM196.33664 254.08512a203.60192 203.60192 0 0 1 95.68768-78.38208l90.59328 130.29376-33.5872 26.46528a161.89952 161.89952 0 0 0-44.79488 57.00096L169.87136 305.9968a213.63712 213.63712 0 0 1 26.46016-51.91168zM543.4368 27.09504c19.1488 1.408 37.9904 5.51936 55.9872 12.2112l-33.5872 233.10336a289.03424 289.03424 0 0 0-79.39584 0h-46.82752L407.04 42.35776a335.872 335.872 0 0 1 136.3968-15.26272z m-56.99584 726.784a335.5648 335.5648 0 0 0 79.39584 0l33.5872 230.05184a256.4608 256.4608 0 0 1-55.9872 12.21632 335.98976 335.98976 0 0 1-136.3968-12.21632l32.57344-234.11712 46.82752 4.0704z m176.1024-49.87904a150.68672 150.68672 0 0 0 45.80352-55.98208l133.34016 81.42848a213.5808 213.5808 0 0 1-26.46016 51.9168 197.48352 197.48352 0 0 1-93.6448 78.37696l-90.5984-130.29376 31.55968-25.4464z m6.0928-371.53792a251.5456 251.5456 0 0 0-30.52544-26.46528l90.59328-130.29376a203.64288 203.64288 0 0 1 95.68256 78.3872 213.62176 213.62176 0 0 1 26.46016 51.90656L717.50656 387.4304a164.9152 164.9152 0 0 0-48.86528-54.96832z m313.5232 89.5744a339.06688 339.06688 0 0 1 11.20768 137.4208 243.80416 243.80416 0 0 1-11.20768 54.97344l-231.05536-34.61632a298.62912 298.62912 0 0 0 0-80.41472v-46.8224l231.05536-30.5408z" fill="#FF6A00" p-id="2202"></path></svg>