<?xml version="1.0" standalone="no"?><!DOCTYPE svg PUBLIC "-//W3C//DTD SVG 1.1//EN" "http://www.w3.org/Graphics/SVG/1.1/DTD/svg11.dtd"><svg t="1569482044097" class="icon" viewBox="0 0 1024 1024" version="1.1" xmlns="http://www.w3.org/2000/svg" p-id="1487" xmlns:xlink="http://www.w3.org/1999/xlink" width="200" height="200"><defs><style type="text/css"></style></defs><path d="M708.21376 72.99584c53.92384-52.08576 137.97376-56.48896 197.03808-10.3168 59.06944 46.16704 75.09504 128.7936 37.57056 193.69472-37.52448 64.90112-117.12512 92.24192-186.60864 64.09216-69.4784-28.15488-107.60704-103.18848-89.3696-175.90784-159.00672-67.0208-343.08096-24.2176-456.20224 106.07616C97.51552 380.928 80.97792 569.1904 169.66144 717.2096c88.6784 148.0192 262.47168 222.25408 430.72512 183.97184 168.25856-38.27712 292.82816-180.38784 308.74624-352.2048h-183.35744c-18.9184 110.28992-118.5792 188.12928-230.1696 179.77856-111.5904-8.3456-198.5536-100.15744-200.84224-212.03456-2.29376-111.88224 80.82944-207.17568 191.98464-220.09344 111.1552-12.91264 213.91872 60.7744 237.34272 170.19904h266.7008c20.46976 216.38656-106.69056 419.61472-310.23616 495.83616-203.55072 76.22144-432.91648 6.5024-559.616-170.10176-126.6944-176.60416-119.2448-416.22528 18.176-584.61184 137.4208-168.3968 370.68288-223.73376 569.09824-135.0144v0.06144z m-61.57824 433.7664c-3.01056-73.39008-64.16384-130.8928-137.6-129.38752C435.6096 378.88 376.8576 438.8352 376.8576 512.29184c0 73.45152 58.74688 133.41184 132.17792 134.91712 73.43616 1.50528 134.58944-55.99744 137.6-129.3824v-11.06944z" fill="#FF6A00" p-id="1488"></path></svg>