<?xml version="1.0" standalone="no"?><!DOCTYPE svg PUBLIC "-//W3C//DTD SVG 1.1//EN" "http://www.w3.org/Graphics/SVG/1.1/DTD/svg11.dtd"><svg t="1569482056104" class="icon" viewBox="0 0 1024 1024" version="1.1" xmlns="http://www.w3.org/2000/svg" p-id="1964" xmlns:xlink="http://www.w3.org/1999/xlink" width="200" height="200"><defs><style type="text/css"></style></defs><path d="M888.7296 65.5616l-42.81856-15.488a63.616 63.616 0 0 0-125.62944 13.952c0 35.2 28.544 63.744 63.744 63.744a63.29344 63.29344 0 0 0 42.88-16.83456l40.192 14.65856c27.264 9.856 50.74944 46.78144 50.74944 79.03744v566.72256c0 32.18944-23.48544 68.736-50.816 78.336l-36.224 12.8a63.16544 63.16544 0 0 0-46.90944-20.992 63.744 63.744 0 1 0 0.06144 127.488 63.55456 63.55456 0 0 0 60.16-43.52l43.97056-15.55456c52.608-18.432 93.44-79.232 93.44-138.42944V204.75904c0-59.06944-40.576-120.12544-92.86656-139.008l0.06656-0.18944zM210.5856 841.3696a63.42144 63.42144 0 0 0-49.34656 23.808l-45.88544-15.81056c-26.94656-9.472-51.328-42.752-51.328-71.296V197.71904c0-28.672 24.38144-62.336 51.328-71.99744l49.08544-17.60256a63.744 63.744 0 1 0 46.08-107.96544 63.42144 63.42144 0 0 0-60.73344 45.568l-56.064 19.968C41.7536 84.3776 0.34304 142.3616 0.34304 197.59104v580.352c0 55.36256 41.728 113.09056 93.952 131.456l57.02656 19.84a63.93856 63.93856 0 0 0 122.88-24.32 63.616 63.616 0 0 0-63.616-63.744v0.19456z" fill="#FF6A00" p-id="1965"></path><path d="M403.7376 541.8496l82.176-194.11456 86.97344 194.11456H403.7376z m266.94144 218.368l113.408 0.384-252.98944-561.408-93.44 0.95744-237.63456 560.45056 111.744-1.34656 48.896-115.456h257.92l52.16256 116.41856h-0.06656z" fill="#FF6A00" p-id="1966"></path></svg>