<?xml version="1.0" standalone="no"?><!DOCTYPE svg PUBLIC "-//W3C//DTD SVG 1.1//EN" "http://www.w3.org/Graphics/SVG/1.1/DTD/svg11.dtd"><svg t="1569482091322" class="icon" viewBox="0 0 1024 1024" version="1.1" xmlns="http://www.w3.org/2000/svg" p-id="3266" xmlns:xlink="http://www.w3.org/1999/xlink" width="200" height="200"><defs><style type="text/css"></style></defs><path d="M455.3984 910.8992C204.29824 910.8992 0 706.60096 0 455.5008c0-183.296 109.10208-348.00128 278.00064-419.50208 16.896-7.19872 36.4032 0.70144 43.60192 17.60256 7.19872 16.896-0.70144 36.4032-17.60256 43.5968-144.30208 61.10208-237.50144 201.7024-237.50144 358.2976 0 214.5024 174.49984 388.90496 388.89984 388.90496a33.1776 33.1776 0 0 1 33.2032 33.19808c0 18.29888-14.7968 33.30048-33.2032 33.30048z m166.5024-34.0992c-12.9024 0-25.20064-7.5008-30.60224-20.10112a33.37728 33.37728 0 0 1 17.40288-43.6992c142.96064-61.30688 235.60704-201.94304 235.49952-357.49888 0-214.4-174.49984-388.89984-388.89984-388.89984a33.1776 33.1776 0 0 1-33.2032-33.2032A33.24416 33.24416 0 0 1 455.30112 0.2048c251.10016 0 455.3984 204.29824 455.3984 455.3984a455.10656 455.10656 0 0 1-275.79904 418.60096c-4.1984 1.69984-8.6016 2.60096-13.0048 2.60096z" fill="#FF6A00" p-id="3267"></path><path d="M372.59776 504.40192c-29.696 0-59.39712-5.504-87.90016-16.50176-60.8-23.3984-108.8-69.20192-135.19872-128.79872-26.39872-59.5968-28.00128-125.9008-4.59776-186.7008 23.3984-60.8 69.09952-108.6976 128.70144-135.10144 16.69632-7.3984 36.39808 0.1024 43.79648 16.896 7.40352 16.80384-0.1024 36.4032-16.896 43.80672-43.30496 19.2-76.60544 54.20032-93.70112 98.39616-17.1008 44.20096-15.90272 92.50304 3.29728 135.80288s54.20032 76.5952 98.40128 93.696c44.20096 17.1008 92.49792 15.90272 135.79776-3.29728 16.70144-7.3984 36.4032 0.1024 43.8016 16.896 7.3984 16.80384-0.1024 36.4032-16.896 43.80672a240.86528 240.86528 0 0 1-98.60608 21.0944z" fill="#FF6A00" p-id="3268"></path><path d="M609.19808 880a33.33632 33.33632 0 0 1-30.99648-21.1968c-6.6048-17.1008 1.8944-36.4032 18.9952-43.008 44.20096-17.09568 79.104-50.39616 98.2016-93.7984 19.2-43.39712 20.3008-91.5968 3.10272-135.79776-35.39968-91.29984-138.39872-136.69888-229.60128-101.4016-17.2032 6.6048-36.4032-1.8944-42.99776-18.9952-6.6048-17.1008 1.8944-36.4032 18.9952-43.00288 125.40416-48.70144 267.00288 13.9008 315.60192 139.29984 23.6032 60.8 22.00064 127.09888-4.3008 186.7008-26.29632 59.5968-74.29632 105.40032-134.99904 128.9984a33.8944 33.8944 0 0 1-12.00128 2.2016z m342.00064 129.9968c-16.9984 0-33.9968-6.49728-47.0016-19.49696l-99.0976-99.0976c-25.99936-26.00448-25.99936-68.10112 0-94.0032 25.90208-25.99936 68.096-25.99936 94.0032 0l99.0976 99.10272c25.99936 25.99936 25.99936 68.096 0 93.99808a66.25792 66.25792 0 0 1-47.0016 19.50208z" fill="#FF6A00" p-id="3269"></path></svg>