<?xml version="1.0" standalone="no"?><!DOCTYPE svg PUBLIC "-//W3C//DTD SVG 1.1//EN" "http://www.w3.org/Graphics/SVG/1.1/DTD/svg11.dtd"><svg t="1569482069394" class="icon" viewBox="0 0 1029 1024" version="1.1" xmlns="http://www.w3.org/2000/svg" p-id="2437" xmlns:xlink="http://www.w3.org/1999/xlink" width="200.9765625" height="200"><defs><style type="text/css"></style></defs><path d="M703.14496 844.07296l-435.2-96a112 112 0 1 1-107.07456-172.8L233.76896 238.6944a95.93344 95.93344 0 0 1 52.66944-176.256 96 96 0 0 1 91.136 65.85856l400.45056-14.208c22.29248-42.81344 72.9088-62.4128 118.2208-45.78304 45.312 16.62976 71.23456 64.32256 60.53888 111.39072-10.69568 47.06816-54.6816 78.87872-102.72768 74.2912l-71.296 224.90112a80 80 0 1 1-137.53856 79.93344l-150.656-6.144a64 64 0 1 1-59.83744-105.14944l37.12-81.28a64 64 0 1 1 69.376 33.024l-35.90656 78.14144 145.98656 5.248a80 80 0 0 1 60.98944-36.096l73.344-231.424a95.744 95.744 0 0 1-12.86144-24.064l-402.688 14.27456a96.16384 96.16384 0 0 1-60.672 46.208l-73.728 341.12c27.136 17.72544 46.08 46.90944 49.98144 80.64l432.57856 95.42144c30.44352-55.3728 96.73728-80.24064 156.08832-58.55744 59.35104 21.6832 94.0032 83.43552 81.57696 145.39264-12.42112 61.952-68.1984 105.5744-131.32288 102.7072-63.11936-2.87744-114.70336-51.38432-121.4464-114.21184z" fill="#0078FF" p-id="2438"></path></svg>