<?xml version="1.0" standalone="no"?><!DOCTYPE svg PUBLIC "-//W3C//DTD SVG 1.1//EN" "http://www.w3.org/Graphics/SVG/1.1/DTD/svg11.dtd"><svg t="1569482052537" class="icon" viewBox="0 0 1024 1024" version="1.1" xmlns="http://www.w3.org/2000/svg" p-id="1846" xmlns:xlink="http://www.w3.org/1999/xlink" width="200" height="200"><defs><style type="text/css"></style></defs><path d="M865.09568 88.45824c34.28864 0 62.21824 27.9808 62.21824 62.35136 0 34.4064-27.9296 62.35648-62.21824 62.35648-34.29376 0-62.21824-27.9552-62.21824-62.35648 0-34.37056 27.92448-62.35136 62.21824-62.35136M292.74624 443.96032H62.58688a31.7952 31.7952 0 0 0-22.15424 9.27232A30.51008 30.51008 0 0 0 31.45728 475.136c0 17.23392 13.952 31.21152 31.1296 31.21152h230.15936c76.80512 0 139.4688-61.04064 142.7968-137.2416h132.98176c13.40416 35.2512 47.27808 60.288 87.13728 60.288 51.5072 0 93.312-41.86112 93.312-93.53216 0-51.69664-41.7792-93.55776-93.312-93.55776-41.3952 0-76.45184 27.03872-88.64256 64.45056H435.8656v-43.6736c0-44.68224 36.24448-81.05984 80.83456-81.05984h228.08576c13.81888 53.76512 62.37696 93.52704 120.30976 93.52704 68.7104 0 124.43648-55.8336 124.43648-124.70784 0-68.93056-55.72608-124.76416-124.43648-124.76416-57.96352 0-106.52672 39.79264-120.3456 93.55776h-228.0448c-78.88896 0-143.08864 64.3584-143.08864 143.44192v43.67872H62.58688a31.7952 31.7952 0 0 0-22.15424 9.27232 30.51008 30.51008 0 0 0-8.97536 21.90336 31.15008 31.15008 0 0 0 31.1296 31.1808h310.73792c-3.19488 41.79456-38.06208 74.8544-80.57856 74.8544m-230.1952 212.05504h393.984c13.39904 35.22048 47.3088 60.288 87.13216 60.288 51.53792 0 93.312-41.89184 93.312-93.56288 0-51.66592-41.7792-93.55776-93.312-93.55776-41.39008 0-76.45184 27.03872-88.64256 64.45056H62.58688a31.7952 31.7952 0 0 0-22.1696 9.28256 30.5152 30.5152 0 0 0-8.96 21.92384 31.15008 31.15008 0 0 0 31.1296 31.1808m802.5088 280.6784c-34.29376 0-62.21824-27.9808-62.21824-62.3872 0-34.4064 27.92448-62.35136 62.21824-62.35136 34.28864 0 62.21824 27.95008 62.21824 62.35136 0 34.4064-27.9296 62.35136-62.21824 62.35136m0-187.0848c-57.96352 0-106.52672 39.79264-120.3456 93.55776h-67.8144a280.9856 280.9856 0 0 1-121.55904-27.88352l-104.22272-50.3552a343.53152 343.53152 0 0 0-148.5824-34.02752H62.55104a31.7952 31.7952 0 0 0-22.15936 9.27232 30.51008 30.51008 0 0 0-8.97024 21.90336 31.15008 31.15008 0 0 0 31.1296 31.1808h239.97952a280.704 280.704 0 0 1 121.55904 27.88352l104.25344 50.35008a343.69024 343.69024 0 0 0 148.5824 34.02752h67.81952c13.824 53.77024 62.38208 93.56288 120.30976 93.56288 68.7104 0 124.4416-55.83872 124.4416-124.73856 0-68.89984-55.72608-124.73344-124.4416-124.73344" fill="#FF6A00" p-id="1847"></path></svg>