<?xml version="1.0" standalone="no"?><!DOCTYPE svg PUBLIC "-//W3C//DTD SVG 1.1//EN" "http://www.w3.org/Graphics/SVG/1.1/DTD/svg11.dtd"><svg t="1569482099806" class="icon" viewBox="0 0 1024 1024" version="1.1" xmlns="http://www.w3.org/2000/svg" p-id="3622" xmlns:xlink="http://www.w3.org/1999/xlink" width="200" height="200"><defs><style type="text/css"></style></defs><path d="M771.9936 172.47744L740.84864 26.5728 514.4576 189.09184 288.07168 26.5728 256.9216 172.47744 514.4576 390.0416l257.536-217.55904z m-515.072 679.68l31.15008 145.3824 226.38592-162.51904 226.38592 162.51904 31.1552-145.38752-257.54112-217.55904-257.536 217.55904zM997.85728 285.14816l-145.90464-31.1552-217.55904 257.536 217.55904 258.06336 145.90464-31.67744-162.51904-226.3808 162.51904-226.38592zM172.288 253.99808L26.37824 285.15328 188.89728 511.5392 26.37824 737.92l145.90464 31.67744L389.84192 511.5392 172.28288 253.99808zM444.8768 512.57344a67.50208 67.50208 0 1 0 135.00416 0c0-37.2736-30.22336-67.49696-67.50208-67.49696-37.2736 0-67.49696 30.21824-67.49696 67.49696z" fill="#FF6A00" p-id="3623"></path></svg>