<?xml version="1.0" standalone="no"?><!DOCTYPE svg PUBLIC "-//W3C//DTD SVG 1.1//EN" "http://www.w3.org/Graphics/SVG/1.1/DTD/svg11.dtd"><svg t="1574231186760" class="icon" viewBox="0 0 1024 1024" version="1.1" xmlns="http://www.w3.org/2000/svg" p-id="12313" xmlns:xlink="http://www.w3.org/1999/xlink" width="200" height="200"><defs><style type="text/css"></style></defs><path d="M415.298 297.655c-1.088-9.73-2.511-19.426-4.776-28.989-13.127-4.126-24.874-11.659-35.255-22.678-16.467-17.51-24.695-38.718-24.695-63.537 0-24.729 8.228-45.938 24.695-63.459h0.09c16.466-17.51 36.33-26.354 59.67-26.354 23.35 0 43.214 8.844 59.68 26.354 16.558 17.521 24.786 38.63 24.786 63.46 0 24.784-8.217 45.96-24.718 63.458a449.448 449.448 0 0 1 8.117 28.63 122.402 122.402 0 0 0 9.899-9.338v-0.079c21.477-22.834 32.171-50.365 32.171-82.672 0-32.229-10.694-59.76-32.171-82.683-21.479-22.746-47.452-34.213-77.763-34.213-30.3 0-56.274 11.467-77.751 34.213-21.478 22.923-32.172 50.455-32.172 82.683 0 32.307 10.694 59.838 32.172 82.672 16.656 17.713 35.96 28.553 58.021 32.532z m305.186 208.626c-0.65-0.045-1.042-0.718-1.265-1.12-8.934-19.417-20.391-37.33-34.302-53.225-16.334-18.35-39.47-32.15-63.515-35.995l-0.582-0.437-17.33-0.773-11.01-19.427c-1.592-2.914-3.766-5.392-6.299-7.712-14.886-13.912-32.273-21.153-52.294-21.736l-17.633 3.744-0.504-1.592-0.583-0.426-55.119-222.404c-7.656-28.606-20.906-28.685-35.197-25.995 0 0-29.09 4.417-23.575 37.653L456 468.894c0.506 3.285 0.909 6.412 0.819 9.642 0.134 14.617-4.35 27.33-13.35 38.55-2.287 3.375-6.29 6.12-8.812 6.457-16.972 2.88-31.892-1.334-44.996-12.644-16.635-13.284-28.36-41.253-39.761-59.178-6.412-10.122-11.793-22.89-19.65-32.07-14.282-16.692-45.456-29.045-63.414-13.408-5.875 5.112-11.94 18.743-6.659 26.13 7.69 10.762 17.431 22.835 22.633 34.011 4.495 9.607 8.06 20.133 11.433 31.118 2.287 7.466 3.98 24.898 8.946 29.64 5.358 5.123 9.473 17.083 13.385 23.047 9.394 14.304 21.41 31.465 27.352 47.91 16.736 26.981 24.382 60.757 44.267 87.504 23.048 30.984 46.992 59.524 81.373 77.84 12.744 7.668 22.52 17.958 29.438 31.141l11.814 64.357c44.705-8.812 224.04-41.108 243.219-45.243l-11.849-55.187-0.56-0.683c3.958-13.923 7.568-28.148 11.054-42.352 2.69-11.3 4.282-22.676 4.674-34.167 1.39-30.38 2.555-60.948 3.833-91.473 0.111-5.425 0.594-10.952 1.424-16.187 2.24-17.54-7.177-65.406-42.13-67.368z" p-id="12314" fill="#dbdbdb"></path></svg>